<svg width="157" height="131" viewBox="0 0 157 131" fill="none" xmlns="http://www.w3.org/2000/svg">
<path d="M156.513 81.8636L156.504 48.5459L117.03 54.1621L87.4723 35.9592C82.2888 32.7662 73.8834 32.7662 68.6976 35.9592L64.0941 39.079L0.00390625 48.2V81.9074C0.00390625 81.9269 0.00390625 81.9439 0.00390625 81.9634V82.1217L0.0267284 82.1169C0.0997995 84.1481 1.36942 86.1647 3.8858 87.7161L69.0401 127.836C74.2259 131.029 82.6291 131.029 87.8148 127.836L152.624 87.6406C155.134 86.0965 156.401 84.0848 156.481 82.0609L156.513 82.056V81.8636Z" fill="url(#paint0_linear_346_791)"/>
<path d="M156.513 81.8636L156.504 48.5459L117.03 54.1621L87.4723 35.9592C82.2888 32.7662 73.8834 32.7662 68.6976 35.9592L64.0941 39.079L0.00390625 48.2V81.9074C0.00390625 81.9269 0.00390625 81.9439 0.00390625 81.9634V82.1217L0.0267284 82.1169C0.0997995 84.1481 1.36942 86.1647 3.8858 87.7161L69.0401 127.836C74.2259 131.029 82.6291 131.029 87.8148 127.836L152.624 87.6406C155.134 86.0965 156.401 84.0848 156.481 82.0609L156.513 82.056V81.8636Z" fill="url(#paint1_linear_346_791)"/>
<path d="M152.624 42.5148L87.4718 2.39471C82.2861 -0.798237 73.8829 -0.798237 68.6971 2.39471L3.88761 42.5903C-1.29587 45.7833 -1.29587 50.9587 3.88761 54.1517L69.0419 94.2718C74.2254 97.4647 82.6309 97.4647 87.8166 94.2718L152.626 54.0762C157.81 50.8832 157.81 45.7078 152.624 42.5148Z" fill="url(#paint2_radial_346_791)"/>
<path d="M152.623 52.0563L87.8135 92.2519C82.6277 95.4449 74.2222 95.4449 69.0387 92.2519L3.88444 52.1318C1.71057 50.7923 0.461512 49.1045 0.109858 47.3606C-0.376522 49.7767 0.87482 52.2974 3.88444 54.1508L69.0387 94.2709C74.2222 97.4639 82.6277 97.4639 87.8135 94.2709L152.623 54.0753C155.633 52.2219 156.884 49.7012 156.398 47.2852C156.048 49.029 154.797 50.7192 152.623 52.0563Z" fill="white"/>
<path d="M96.5729 103.167L93.4902 105.064V101.267L96.5729 99.3672V103.167Z" fill="white"/>
<path d="M103.026 99.192L99.9434 101.092V97.2923L103.026 95.3926V99.192Z" fill="white"/>
<path d="M109.48 95.2169L106.395 97.1165V93.3196L109.48 91.4199V95.2169Z" fill="white"/>
<path d="M104.204 106.163L101.119 108.062V104.263L104.204 102.363V106.163Z" fill="white"/>
<path d="M109.886 102.664L106.801 104.564V100.764L109.886 98.8672V102.664Z" fill="white"/>
<path d="M130.176 82.4708L127.094 84.3705V80.5711L130.176 78.6738V82.4708Z" fill="white"/>
<path d="M147.954 71.526L144.869 73.4257V69.6263L147.954 67.7266V71.526Z" fill="white"/>
<path d="M115.933 91.2447L112.848 93.1444V89.345L115.933 87.4453V91.2447Z" fill="white"/>
<path opacity="0.4" d="M74.5884 80.322L30.7549 53.3293C28.9738 52.2309 29.1976 50.3166 31.255 49.0477L74.0906 22.6712C76.148 21.4047 79.2604 21.2659 81.0415 22.3643L124.875 49.357C126.656 50.4554 126.432 52.3697 124.375 53.6386L81.5393 80.0152C79.4819 81.2816 76.3695 81.418 74.5884 80.322Z" fill="#02122B"/>
<path d="M57.3421 109.538L21.1696 87.2629C20.3065 86.732 19.6055 85.3048 19.6055 84.0773V81.2131C19.6055 79.9856 20.3065 79.4206 21.1696 79.9515L57.3421 102.227C58.2053 102.758 58.9063 104.185 58.9063 105.412V108.276C58.9063 109.506 58.2053 110.071 57.3421 109.538Z" fill="white"/>
<defs>
<linearGradient id="paint0_linear_346_791" x1="-9.40902" y1="81.9009" x2="100.958" y2="81.9009" gradientUnits="userSpaceOnUse">
<stop stop-color="#01C8EF"/>
<stop offset="0.1297" stop-color="#04B1DD"/>
<stop offset="0.5466" stop-color="#0E6BA7"/>
<stop offset="0.8476" stop-color="#154085"/>
<stop offset="1" stop-color="#172F78"/>
</linearGradient>
<linearGradient id="paint1_linear_346_791" x1="-9.40902" y1="81.8992" x2="100.958" y2="81.8992" gradientUnits="userSpaceOnUse">
<stop stop-color="#03FFCF"/>
<stop offset="1" stop-color="#022480"/>
</linearGradient>
<radialGradient id="paint2_radial_346_791" cx="0" cy="0" r="1" gradientUnits="userSpaceOnUse" gradientTransform="translate(-28.9802 -6.37067) scale(246.473 262.883)">
<stop stop-color="#03FFCF"/>
<stop offset="1" stop-color="#0439C7"/>
</radialGradient>
</defs>
</svg>
