<svg width="157" height="311" viewBox="0 0 157 311" fill="none" xmlns="http://www.w3.org/2000/svg">
<path d="M156.579 261.815L156.57 228.497L117.096 234.113L87.5387 215.91C82.3552 212.717 73.9498 212.717 68.764 215.91L64.1605 219.03L0.0703125 228.151V261.859C0.0703125 261.878 0.0703125 261.895 0.0703125 261.915V262.073L0.0931695 262.068C0.166241 264.099 1.43582 266.116 3.95221 267.667L69.1065 307.787C74.2923 310.98 82.6955 310.98 87.8812 307.787L152.691 267.592C155.2 266.048 156.468 264.036 156.548 262.012L156.579 262.007V261.815Z" fill="url(#paint0_linear_354_790)"/>
<path d="M156.579 261.815L156.57 228.497L117.096 234.113L87.5387 215.91C82.3552 212.717 73.9498 212.717 68.764 215.91L64.1605 219.03L0.0703125 228.151V261.859C0.0703125 261.878 0.0703125 261.895 0.0703125 261.915V262.073L0.0931695 262.068C0.166241 264.099 1.43582 266.116 3.95221 267.667L69.1065 307.787C74.2923 310.98 82.6955 310.98 87.8812 307.787L152.691 267.592C155.2 266.048 156.468 264.036 156.548 262.012L156.579 262.007V261.815Z" fill="url(#paint1_linear_354_790)"/>
<path d="M152.691 222.466L87.5371 182.346C82.3536 179.153 73.9482 179.153 68.7624 182.346L3.95292 222.541C-1.23056 225.734 -1.23284 230.91 3.95292 234.103L69.1072 274.223C74.2907 277.416 82.6962 277.416 87.8819 274.223L152.691 234.027C157.875 230.834 157.875 225.659 152.691 222.466Z" fill="url(#paint2_radial_354_790)"/>
<path d="M152.691 222.466L87.5371 182.346C82.3536 179.153 73.9482 179.153 68.7624 182.346L3.95292 222.541C-1.23056 225.734 -1.23284 230.91 3.95292 234.103L69.1072 274.223C74.2907 277.416 82.6962 277.416 87.8819 274.223L152.691 234.027C157.875 230.834 157.875 225.659 152.691 222.466Z" fill="url(#paint3_radial_354_790)"/>
<path d="M152.691 232.007L87.8818 272.203C82.6983 275.396 74.2929 275.396 69.1071 272.203L3.9528 232.083C1.77893 230.743 0.529872 229.056 0.178217 227.312C-0.308163 229.728 0.94318 232.249 3.9528 234.102L69.1071 274.222C74.2906 277.415 82.6961 277.415 87.8818 274.222L152.691 234.027C155.701 232.173 156.952 229.652 156.466 227.236C156.114 228.98 154.865 230.668 152.691 232.007Z" fill="white"/>
<path d="M96.6416 283.115L93.5566 285.015V281.216L96.6416 279.318V283.115Z" fill="white"/>
<path d="M103.095 279.143L100.01 281.04V277.243L103.095 275.344V279.143Z" fill="white"/>
<path d="M109.548 275.167L106.463 277.066V273.267L109.548 271.367V275.167Z" fill="white"/>
<path d="M104.27 286.111L101.188 288.011V284.214L104.27 282.314V286.111Z" fill="white"/>
<path d="M109.954 282.616L106.869 284.516V280.716L109.954 278.816V282.616Z" fill="white"/>
<path d="M130.245 262.422L127.16 264.322V260.523L130.245 258.623V262.422Z" fill="white"/>
<path d="M148.021 251.477L144.936 253.374V249.577L148.021 247.678V251.477Z" fill="white"/>
<path d="M116.001 271.196L112.916 273.093V269.296L116.001 267.396V271.196Z" fill="white"/>
<path opacity="0.4" d="M78.3255 254.753C103.003 254.753 123.009 242.434 123.009 227.237C123.009 212.04 103.003 199.721 78.3255 199.721C53.6478 199.721 33.6426 212.04 33.6426 227.237C33.6426 242.434 53.6478 254.753 78.3255 254.753Z" fill="#02122B"/>
<path d="M99.4488 223.661C99.4488 223.661 100.842 226.676 100.463 228.624C100.084 230.575 95.6514 237.329 94.3498 241.072C93.0459 244.828 86.3919 250.393 82.6653 250.386C78.9386 250.376 75.502 248.737 77.29 244.304C79.0711 239.891 80.5896 238.228 82.0693 236.196C83.549 234.17 86.4353 228.347 86.8554 225.95C87.2733 223.559 99.4488 223.661 99.4488 223.661Z" fill="#121A46"/>
<path d="M81.1619 205.445C81.1619 205.445 81.7648 209.386 81.219 210.796C80.671 212.209 79.4995 213.495 76.1794 214.513C72.8569 215.533 69.7948 215.886 64.3099 219.379C58.809 222.881 51.3146 224.34 49.0517 220.516C46.7957 216.702 54.612 210.972 57.48 209.471C60.3458 207.973 64.7963 207.209 67.1985 204.912C69.5961 202.62 70.0071 203.158 70.0071 203.158L81.1619 205.445Z" fill="#121A46"/>
<path d="M101.198 136.393C101.198 136.393 98.4898 162.424 99.305 171.547C100.125 180.739 105.61 197.678 103.806 209.088C101.984 220.608 99.869 225.292 99.869 225.292C99.869 225.292 92.5026 233.324 86.8761 226.137C86.8761 226.137 89.2395 221.507 88.9198 209.509C88.7577 203.408 88.6435 199.901 88.5727 197.933C88.5179 196.44 88.1252 195.004 87.431 193.747C85.691 190.598 82.1333 183.727 79.505 175.783C79.505 175.783 80.7724 192.665 80.6765 200.264C80.6605 201.448 80.7747 202.622 80.9779 203.784C81.1469 204.76 81.2725 206.005 81.0761 207.011C80.6902 208.983 74.1252 216.382 68.7659 210.442C68.7659 210.442 66.6948 208.952 67.1378 204.305C67.43 201.243 66.7016 194.492 66.0668 189.061C65.5713 184.816 64.3633 180.751 62.5457 177.056C61.0569 174.029 59.6594 167.826 58.7757 164.971C57.0106 159.284 50.4616 132.041 50.3451 125.84C50.2309 119.673 57.4033 115.229 57.4033 115.229C57.4033 115.229 73.8535 123.804 73.5269 124.739C73.2004 125.677 94.1352 135.049 94.1352 135.049L101.198 136.393Z" fill="url(#paint4_radial_354_790)"/>
<path opacity="0.4" d="M57.3991 115.229C57.3991 115.229 73.8493 123.804 73.5227 124.742C73.1962 125.679 94.131 135.051 94.131 135.051L101.198 136.396C101.198 136.396 98.4902 162.426 99.3031 171.55C100.123 180.741 105.608 197.678 103.804 209.091C101.982 220.61 99.8671 225.294 99.8671 225.294C99.8671 225.294 98.6683 226.599 96.8689 227.686C97.8417 224.317 101.027 212.466 100.927 202.11C100.81 190.021 95.8756 170.527 95.6176 164.248C95.476 160.838 93.0761 158.123 90.103 157.991C85.3237 157.779 78.3089 156.937 73.5136 154.041C75.0321 160.804 79.5054 175.787 79.5054 175.787C79.5054 175.787 80.8595 193.837 80.6608 201.007C80.6403 201.733 80.7065 202.456 80.855 203.16C81.0696 204.181 81.3162 205.778 81.0742 207.015C80.9349 207.729 79.9872 209.147 78.5829 210.389C78.4322 202.97 77.0689 184.195 76.5666 179.872C76.0026 175.052 71.2256 155.729 71.2256 155.729C68.7252 153.636 67.4921 148.678 67.0148 146.196C64.8889 141.31 64.5692 136.693 60.596 136.607C60.2694 136.6 55.3486 143.083 52.0786 137.969C51.0876 132.511 50.382 127.9 50.3432 125.845C50.2267 119.673 57.3991 115.229 57.3991 115.229Z" fill="#02122B"/>
<path d="M51.1621 126.74L52.0572 130.048C52.0572 130.048 53.4821 130.262 55.4116 127.919C57.3366 125.581 55.503 123.357 55.503 123.357L51.8403 124.222L51.1621 126.74Z" fill="#E2B1A6"/>
<path d="M63.9117 36.8385C63.9117 36.8385 62.8932 36.7703 60.5778 38.0928C58.2601 39.4153 55.3281 42.9029 53.6726 51.2591C52.0056 59.6787 45.0753 81.5203 44.5341 85.5705C44.0181 89.4405 45.29 115.369 47.5643 126.39C47.7401 127.244 48.5325 127.736 49.2815 127.466C51.2453 126.753 54.8554 125.303 56.8991 123.623C59.8014 121.236 59.2808 102.495 59.2808 102.495L57.3079 78.4516L60.507 58.7605C60.507 58.7605 65.0854 43.2171 64.4209 42.2088C63.7587 41.198 63.9117 36.8385 63.9117 36.8385Z" fill="url(#paint5_radial_354_790)"/>
<path d="M114.276 60.7851C114.276 60.7851 117.466 67.2952 113.255 75.9461C109.015 84.6652 98.8101 102.503 98.8101 102.503C98.8101 102.503 102.112 127.416 101.655 133.514C101.196 139.647 96.924 146.768 95.8325 149.055C94.7387 151.347 85.856 157.112 75.5689 151.615C65.3298 146.142 64.437 138.66 63.4163 130.533C62.4047 122.464 62.7198 122.895 62.7198 122.895C62.7198 122.895 57.9451 138.943 55.0679 135.935C53.8371 134.649 53.7458 130.706 54.0769 126.546C54.7779 117.7 55.0405 108.884 54.666 100.16C54.6523 99.8384 54.6455 99.5632 54.6455 99.344C54.6546 96.5456 54.1637 70.9972 54.8647 64.1266C55.5611 57.2974 54.5861 46.4205 57.9656 41.9659C60.7766 38.2615 63.9118 36.8368 63.9118 36.8368L68.6888 36.5883C68.6888 36.5883 96.5266 34.1455 98.9448 37.94C101.37 41.7467 102.21 44.1749 102.21 44.1749C102.21 44.1749 110.616 53.5638 114.276 60.7851Z" fill="url(#paint6_linear_354_790)"/>
<path d="M92.214 33.6719C92.214 33.6719 93.3694 34.3441 93.8375 35.7518C94.3079 37.1595 95.6757 41.0003 96.427 42.0719C96.427 42.0719 84.1077 54.5028 79.511 60.8765C74.887 67.2867 73.4393 72.5255 73.4393 72.5255L67.0547 64.5346L69.0368 62.1868L70.1146 56.9431L72.003 50.9932L73.3594 45.109L88.6358 35.8541L92.214 33.6719Z" fill="#F0F6FF"/>
<path d="M79.9985 50.58C79.9985 50.58 82.476 52.3506 83.3323 54.8154C83.3323 54.8154 80.9872 53.0326 80.2314 52.8694C80.2314 52.8694 78.4503 54.7107 78.1215 55.4462C77.7926 56.1841 78.126 62.8964 78.126 62.8964L77.2652 64.2749L76.2536 64.3991C76.2536 64.3991 76.1463 59.5865 76.0207 59.3454C75.8951 59.1019 75.7147 55.261 75.7855 54.959C75.8563 54.657 79.1194 51.3667 79.1194 51.3667L80.2588 50.5508L79.9985 50.58Z" fill="#C4CCD6"/>
<path d="M73.5371 49.1135C73.5371 49.1135 75.1287 48.339 76.1243 48.5825C77.1199 48.8261 79.876 50.285 80.2893 50.8573C80.7027 51.4297 80.1752 52.1749 78.6247 53.4511C77.0719 54.7273 76.8847 55.5213 76.8847 55.5213C76.8847 55.5213 77.7889 60.9793 77.266 64.2745C77.266 64.2745 73.9824 70.4778 73.2928 73.4686C72.6009 76.4667 69.6758 63.8313 69.6758 63.8313C69.6758 63.8313 70.6828 59.7786 71.1555 58.763C71.6281 57.7474 73.4343 52.2894 72.9594 51.3395C72.4867 50.3921 73.5371 49.1135 73.5371 49.1135Z" fill="url(#paint7_radial_354_790)"/>
<path opacity="0.6" d="M101.307 44.9824L99.2104 49.6464L95.5158 49.4345L95.9611 53.531C95.9611 53.531 80.7531 64.3276 74.9531 75.5918L75.3139 76.795C75.3139 76.795 82.1187 64.7879 96.8357 54.8633L97.3289 54.5418L96.5822 50.5816L99.8635 51.2417L101.307 44.9824Z" fill="#051939"/>
<path d="M76.2256 46.2373C76.2256 46.2373 76.8992 48.271 78.8584 48.4366C80.8199 48.6022 91.4107 44.2232 92.9726 37.6108C92.9726 37.6108 92.3309 34.4349 92.2693 33.865C92.2693 33.865 93.0137 33.2171 93.1575 32.2259C93.2991 31.2371 94.1554 29.0134 94.4112 28.3169C94.6669 27.6228 95.2126 26.2297 94.9044 25.2287C94.9044 25.2287 98.0693 6.7943 88.5814 3.63058C79.121 0.474161 72.2112 3.53559 69.0989 13.9815C69.0989 13.9815 68.3476 16.7994 67.7425 18.8842C67.3589 20.2042 67.3292 21.6168 67.6854 22.9441C67.8841 23.6821 68.0416 24.4761 67.9959 25.0143C67.8886 26.2979 67.3063 29.1961 67.8041 32.7836C67.8041 32.7836 67.046 34.7466 68.2974 35.4626C69.551 36.1787 69.2838 42.002 69.2838 42.002L72.8049 45.8476C72.8049 45.8476 73.5585 46.705 76.2256 46.2373Z" fill="#FCD1C5"/>
<path d="M94.9742 26.2367C94.9742 26.2367 101.763 9.81411 90.8274 3.15544C82.253 -2.06629 71.5983 0.449594 68.4973 12.2837C68.4973 12.2837 67.7141 15.3525 71.5572 16.8089C75.4071 18.2678 80.3349 19.8849 82.5795 19.8314C84.8242 19.7778 85.959 21.1197 85.9933 24.2762C86.0138 26.0541 86.2193 26.7677 86.3952 27.0526C86.5733 27.3376 86.6349 27.6859 86.6235 28.0268L86.6007 28.6308C86.587 29.0156 86.8496 29.4297 87.1898 29.5442C87.7333 29.7244 88.3384 29.5588 88.3567 29.4224V29.4151C88.5919 27.4715 89.5943 25.7277 91.1151 24.6707C92.7843 23.5065 94.7298 22.9196 94.9742 26.2367Z" fill="url(#paint8_radial_354_790)"/>
<path opacity="0.5" d="M71.1571 58.7654C71.6297 57.7498 73.436 52.2918 72.961 51.342C72.4883 50.3946 73.5365 49.1135 73.5365 49.1135C73.5365 49.1135 75.128 48.339 76.1259 48.5825C76.2264 48.6069 76.352 48.6483 76.4844 48.6946C76.4821 48.7287 76.4776 48.7555 76.4776 48.7555C76.4776 48.7555 75.1532 51.2665 74.8609 51.8778C74.5686 52.4891 73.3355 58.8945 72.6687 60.329C71.9997 61.7659 70.7369 66.749 70.7369 66.749L70.3396 66.5176C69.9469 64.9881 69.6797 63.8313 69.6797 63.8313C69.6797 63.8313 70.6821 59.781 71.1571 58.7654Z" fill="#380031"/>
<path d="M72.1572 42.3457C72.1572 42.3457 73.8264 45.0102 73.9566 46.318C73.0957 46.1792 72.8057 45.8504 72.8057 45.8504L71.4082 44.3233C71.7964 43.2882 72.1572 42.3457 72.1572 42.3457Z" fill="#E2B1A6"/>
<path d="M60.9913 66.8639C60.9913 66.8639 59.08 63.727 59.1736 61.0576C59.265 58.3932 59.918 55.266 59.918 55.266C59.918 55.266 58.5091 55.3074 58.5914 53.0984C58.6736 50.8943 59.2673 48.7948 59.9706 48.2371C60.6716 47.6794 61.4069 47.8255 61.4069 47.8255C61.4069 47.8255 61.9229 46.0135 63.4232 46.2887C63.4232 46.2887 63.4802 45.1343 64.7499 44.2185C66.0172 43.3028 66.837 44.6935 66.837 44.6935C66.837 44.6935 67.353 42.7597 67.8554 42.426C68.3577 42.0923 69.2848 41.9998 69.2848 41.9998C69.2848 41.9998 71.7236 41.6515 72.1597 42.3432C72.5959 43.0349 73.7878 50.5265 73.6919 50.904C73.596 51.2815 73.016 55.1272 72.6484 56.3474C72.2807 57.5675 69.4835 60.6899 69.0382 62.1828C68.593 63.6782 64.1356 68.4811 64.0854 68.4884C64.0328 68.4957 60.9913 66.8639 60.9913 66.8639Z" fill="#FCD1C5"/>
<path opacity="0.6" d="M62.722 122.895C62.722 122.895 62.8522 96.9062 66.8985 85.3887L64.7954 89.1053C64.7954 89.1053 61.4318 104.347 62.1465 124.715L62.722 122.895Z" fill="#051939"/>
<path opacity="0.6" d="M63.36 82.1348C63.36 82.1348 81.5205 99.517 81.5981 99.7362C81.6758 99.9554 108.137 82.2833 108.137 82.2833L108.947 84.2634C104.342 92.834 98.8109 102.5 98.8109 102.5C98.8109 102.5 99.2106 105.511 99.7106 109.693C99.7106 109.693 86.6355 124.576 78.4835 122.674C71.4572 121.035 63.9446 96.1268 62.0493 89.4389C61.7456 88.3648 61.7639 87.2152 62.0996 86.1485L63.36 82.1348Z" fill="#051939"/>
<path d="M59.9035 64.2419C62.5158 62.5834 67.2198 62.1133 67.2198 62.1133L61.7258 67.2547C61.301 67.0282 60.9905 66.8601 60.9905 66.8601C60.9905 66.8601 60.326 65.7641 59.8008 64.3199C59.8373 64.2955 59.8647 64.2663 59.9035 64.2419Z" fill="#E2B1A6"/>
<path d="M93.439 71.4321C96.1974 67.6838 99.9971 64.7393 103.692 62.1869C107.012 59.8926 110.634 58.144 112.606 59.6028C116.865 62.7471 115.968 68.5241 113.974 74.3181C111.972 80.1414 93.6559 112.916 80.8319 112.195C80.8319 112.195 71.5839 101.971 67.3297 93.9629C63.7652 87.2507 57.9356 75.6406 56.2047 72.1895C55.9078 71.5977 56.0288 70.8621 56.4924 70.4116C58.9928 67.9882 66.6881 60.8108 68.9693 62.0115C68.9693 62.0115 74.1916 76.0912 79.4322 83.0251L83.531 87.1971C83.531 87.1971 86.9653 80.5238 89.6553 76.6684C90.6257 75.2728 92.0872 73.2684 93.439 71.4321Z" fill="url(#paint9_radial_354_790)"/>
<path d="M78.8575 48.4345C76.8959 48.2689 76.2246 46.2352 76.2246 46.2352C76.2246 46.2352 87.119 41.5932 88.2745 34.5059C88.2745 34.5059 88.3681 41.9756 85.4818 45.9113C82.5886 47.5918 79.7754 48.5124 78.8575 48.4345Z" fill="#E2B1A6"/>
<path d="M79.5046 175.779C79.5046 175.779 79.5091 175.85 79.5182 175.969C79.5046 175.894 79.4978 175.83 79.5046 175.779Z" fill="#1E262D"/>
<path opacity="0.4" d="M89.0265 228.142C88.2935 227.677 87.572 227.022 86.8755 226.135C86.8755 226.135 89.2389 221.505 88.9192 209.508C88.7571 203.419 88.6452 199.915 88.5721 197.944C88.5173 196.444 88.1223 195 87.4235 193.736C85.768 190.738 82.4752 184.381 79.8995 176.943C79.8881 176.892 79.8767 176.836 79.8652 176.787C81.7103 180.241 90.0404 190.864 91.1365 199.004C92.2097 206.983 89.8372 223.132 89.0265 228.142Z" fill="#02122B"/>
<path d="M79.8666 176.785C79.8461 176.746 79.8301 176.714 79.8118 176.678C79.7091 176.381 79.6063 176.084 79.5059 175.782C79.5447 175.555 79.6748 175.952 79.8666 176.785Z" fill="#1E262D"/>
<path opacity="0.6" d="M57.6886 69.2676C57.6909 69.2749 74.326 107.607 81.9048 109.13C89.4951 110.652 109.909 82.4632 109.909 82.4632C109.909 82.4632 109.898 82.5046 109.882 82.563C103.338 94.156 90.493 112.734 80.8339 112.191C80.8339 112.191 71.5858 101.967 67.3317 93.9587C63.7672 87.2465 57.9375 75.6365 56.2066 72.1853C55.9098 71.5935 56.0308 70.858 56.4944 70.4074C56.814 70.0957 57.2205 69.7084 57.6886 69.2676Z" fill="#051939"/>
<path opacity="0.6" d="M83.5312 87.1921C83.5312 87.1921 85.6343 90.7552 86.4153 93.047L83.9126 86.459L83.5312 87.1921Z" fill="#051939"/>
<defs>
<linearGradient id="paint0_linear_354_790" x1="-9.34353" y1="261.851" x2="101.024" y2="261.851" gradientUnits="userSpaceOnUse">
<stop stop-color="#01C8EF"/>
<stop offset="0.1297" stop-color="#04B1DD"/>
<stop offset="0.5466" stop-color="#0E6BA7"/>
<stop offset="0.8476" stop-color="#154085"/>
<stop offset="1" stop-color="#172F78"/>
</linearGradient>
<linearGradient id="paint1_linear_354_790" x1="-9.34262" y1="261.85" x2="101.025" y2="261.85" gradientUnits="userSpaceOnUse">
<stop stop-color="#03FFCF"/>
<stop offset="1" stop-color="#022480"/>
</linearGradient>
<radialGradient id="paint2_radial_354_790" cx="0" cy="0" r="1" gradientUnits="userSpaceOnUse" gradientTransform="translate(-28.9136 173.58) scale(246.473 262.883)">
<stop stop-color="#01C8EF"/>
<stop offset="0.1396" stop-color="#03BAE4"/>
<stop offset="0.4033" stop-color="#0895C8"/>
<stop offset="0.76" stop-color="#115A9A"/>
<stop offset="1" stop-color="#172F78"/>
</radialGradient>
<radialGradient id="paint3_radial_354_790" cx="0" cy="0" r="1" gradientUnits="userSpaceOnUse" gradientTransform="translate(-28.916 173.581) scale(246.475 262.883)">
<stop stop-color="#03FFCF"/>
<stop offset="1" stop-color="#0439C7"/>
</radialGradient>
<radialGradient id="paint4_radial_354_790" cx="0" cy="0" r="1" gradientUnits="userSpaceOnUse" gradientTransform="translate(-11.6053 89.3854) rotate(180) scale(42.2801 45.0951)">
<stop stop-color="#01C8EF"/>
<stop offset="0.1376" stop-color="#02C3EB"/>
<stop offset="0.2987" stop-color="#03B5DF"/>
<stop offset="0.4716" stop-color="#069DCA"/>
<stop offset="0.6529" stop-color="#097CAE"/>
<stop offset="0.8387" stop-color="#0D538A"/>
<stop offset="1" stop-color="#122865"/>
</radialGradient>
<radialGradient id="paint5_radial_354_790" cx="0" cy="0" r="1" gradientUnits="userSpaceOnUse" gradientTransform="translate(-32.5863 20.3377) rotate(180) scale(121.191 129.26)">
<stop stop-color="#01C8EF"/>
<stop offset="0.2078" stop-color="#01C5ED"/>
<stop offset="0.3691" stop-color="#03BBE5"/>
<stop offset="0.5146" stop-color="#05ABD8"/>
<stop offset="0.6509" stop-color="#0993C6"/>
<stop offset="0.7808" stop-color="#0D75AF"/>
<stop offset="0.9041" stop-color="#125192"/>
<stop offset="1" stop-color="#172F78"/>
</radialGradient>
<linearGradient id="paint6_linear_354_790" x1="15.6145" y1="61.8828" x2="73.2388" y2="85.0443" gradientUnits="userSpaceOnUse">
<stop stop-color="#01C8EF"/>
<stop offset="0.4589" stop-color="#0C7BB3"/>
<stop offset="0.8239" stop-color="#144489"/>
<stop offset="1" stop-color="#172F78"/>
</linearGradient>
<radialGradient id="paint7_radial_354_790" cx="0" cy="0" r="1" gradientUnits="userSpaceOnUse" gradientTransform="translate(92.9044 72.3326) rotate(180) scale(115.95 123.671)">
<stop stop-color="#F9636B"/>
<stop offset="1" stop-color="#B6246E"/>
</radialGradient>
<radialGradient id="paint8_radial_354_790" cx="0" cy="0" r="1" gradientUnits="userSpaceOnUse" gradientTransform="translate(67.7205 3.55243) scale(36.2282 38.6403)">
<stop stop-color="#F9636B"/>
<stop offset="1" stop-color="#B6246E"/>
</radialGradient>
<radialGradient id="paint9_radial_354_790" cx="0" cy="0" r="1" gradientUnits="userSpaceOnUse" gradientTransform="translate(362.566 138.16) rotate(180) scale(230.622 245.976)">
<stop stop-color="#01C8EF"/>
<stop offset="0.1376" stop-color="#02C3EB"/>
<stop offset="0.2987" stop-color="#03B5DF"/>
<stop offset="0.4716" stop-color="#069DCA"/>
<stop offset="0.6529" stop-color="#097CAE"/>
<stop offset="0.8387" stop-color="#0D538A"/>
<stop offset="1" stop-color="#122865"/>
</radialGradient>
</defs>
</svg>
