<svg width="157" height="131" viewBox="0 0 157 131" fill="none" xmlns="http://www.w3.org/2000/svg">
<path d="M156.847 82.5799L156.838 49.2622L117.364 54.8809L87.8063 36.6779C82.6228 33.485 74.2174 33.485 69.0316 36.6779L64.4281 39.7978L0.337891 48.9188V82.6262C0.337891 82.6457 0.337891 82.6627 0.337891 82.6822V82.8405L0.360713 82.8356C0.433784 84.8668 1.7034 86.8834 4.21979 88.4348L69.3741 128.555C74.5599 131.748 82.963 131.748 88.1488 128.555L152.958 88.3594C155.468 86.8153 156.735 84.8035 156.815 82.7796L156.847 82.7748V82.5799Z" fill="url(#paint0_linear_255_982)"/>
<path d="M156.847 82.5799L156.838 49.2622L117.364 54.8809L87.8063 36.6779C82.6228 33.485 74.2174 33.485 69.0316 36.6779L64.4281 39.7978L0.337891 48.9188V82.6262C0.337891 82.6457 0.337891 82.6627 0.337891 82.6822V82.8405L0.360713 82.8356C0.433784 84.8668 1.7034 86.8834 4.21979 88.4348L69.3741 128.555C74.5599 131.748 82.963 131.748 88.1488 128.555L152.958 88.3594C155.468 86.8153 156.735 84.8035 156.815 82.7796L156.847 82.7748V82.5799Z" fill="url(#paint1_linear_255_982)"/>
<path d="M152.958 43.2336L87.8058 3.11346C82.62 -0.0794872 74.2169 -0.0794872 69.0311 3.11346L4.2216 43.3091C-0.961886 46.502 -0.961886 51.6775 4.2216 54.8704L69.3759 94.9905C74.5594 98.1835 82.9649 98.1835 88.1506 94.9905L152.96 54.7949C158.144 51.602 158.144 46.4241 152.958 43.2336Z" fill="url(#paint2_radial_255_982)"/>
<path d="M152.958 43.2336L87.8058 3.11346C82.62 -0.0794872 74.2169 -0.0794872 69.0311 3.11346L4.2216 43.3091C-0.961886 46.502 -0.961886 51.6775 4.2216 54.8704L69.3759 94.9905C74.5594 98.1835 82.9649 98.1835 88.1506 94.9905L152.96 54.7949C158.144 51.602 158.144 46.4241 152.958 43.2336Z" fill="url(#paint3_radial_255_982)"/>
<path d="M152.958 43.2336L87.8058 3.11346C82.62 -0.0794872 74.2169 -0.0794872 69.0311 3.11346L4.2216 43.3091C-0.961886 46.502 -0.961886 51.6775 4.2216 54.8704L69.3759 94.9905C74.5594 98.1835 82.9649 98.1835 88.1506 94.9905L152.96 54.7949C158.144 51.602 158.144 46.4241 152.958 43.2336Z" fill="url(#paint4_radial_255_982)"/>
<path opacity="0.4" d="M127.864 45.1944L84.6951 18.6109C81.2608 16.4969 75.6913 16.4969 72.2547 18.6109L29.314 45.2432C25.8797 47.3596 25.8797 50.7888 29.314 52.9028L72.4831 79.4864C75.9174 81.6028 81.4868 81.6028 84.9234 79.4864L127.864 52.8541C131.301 50.7401 131.301 47.3109 127.864 45.1944Z" fill="#02122B"/>
<path d="M152.957 52.7731L88.1474 92.9687C82.9617 96.1617 74.5562 96.1617 69.3727 92.9687L4.21842 52.8486C2.04456 51.5091 0.795497 49.8213 0.443842 48.0775C-0.0425375 50.4935 1.2088 53.0142 4.21842 54.8676L69.3727 94.9878C74.5562 98.1783 82.9617 98.1807 88.1474 94.9878L152.957 54.7922C155.967 52.9387 157.218 50.418 156.732 48.002C156.382 49.7482 155.131 51.436 152.957 52.7731Z" fill="white"/>
<path d="M96.9069 103.883L93.8242 105.783V101.984L96.9069 100.084V103.883Z" fill="white"/>
<path d="M103.36 99.9068L100.277 101.807V98.0072L103.36 96.1074V99.9068Z" fill="white"/>
<path d="M109.814 95.9361L106.729 97.8334V94.0364L109.814 92.1367V95.9361Z" fill="white"/>
<path d="M104.538 106.879L101.453 108.779V104.98L104.538 103.08V106.879Z" fill="white"/>
<path d="M110.22 103.381L107.135 105.281V101.484L110.22 99.584V103.381Z" fill="white"/>
<path d="M130.51 83.1876L127.428 85.0873V81.2903L130.51 79.3906V83.1876Z" fill="white"/>
<path d="M148.288 72.2427L145.203 74.1424V70.3431L148.288 68.4434V72.2427Z" fill="white"/>
<path d="M116.267 91.9615L113.182 93.8612V90.0618L116.267 88.1621V91.9615Z" fill="white"/>
<defs>
<linearGradient id="paint0_linear_255_982" x1="-9.07504" y1="82.6174" x2="101.292" y2="82.6174" gradientUnits="userSpaceOnUse">
<stop stop-color="#01C8EF"/>
<stop offset="0.1297" stop-color="#04B1DD"/>
<stop offset="0.5466" stop-color="#0E6BA7"/>
<stop offset="0.8476" stop-color="#154085"/>
<stop offset="1" stop-color="#172F78"/>
</linearGradient>
<linearGradient id="paint1_linear_255_982" x1="-9.07504" y1="82.6179" x2="101.292" y2="82.6179" gradientUnits="userSpaceOnUse">
<stop stop-color="#03FFCF"/>
<stop offset="1" stop-color="#022480"/>
</linearGradient>
<radialGradient id="paint2_radial_255_982" cx="0" cy="0" r="1" gradientUnits="userSpaceOnUse" gradientTransform="translate(-28.6463 -5.65386) scale(246.473 262.883)">
<stop stop-color="#01C8EF"/>
<stop offset="0.1396" stop-color="#03BAE4"/>
<stop offset="0.4033" stop-color="#0895C8"/>
<stop offset="0.76" stop-color="#115A9A"/>
<stop offset="1" stop-color="#172F78"/>
</radialGradient>
<radialGradient id="paint3_radial_255_982" cx="0" cy="0" r="1" gradientUnits="userSpaceOnUse" gradientTransform="translate(-6.89709 10.1871) scale(169.459 180.742)">
<stop stop-color="#01C8EF"/>
<stop offset="0.1396" stop-color="#03BAE4"/>
<stop offset="0.4033" stop-color="#0895C8"/>
<stop offset="0.76" stop-color="#115A9A"/>
<stop offset="1" stop-color="#172F78"/>
</radialGradient>
<radialGradient id="paint4_radial_255_982" cx="0" cy="0" r="1" gradientUnits="userSpaceOnUse" gradientTransform="translate(-28.6463 -5.65192) scale(246.473 262.883)">
<stop stop-color="#03FFCF"/>
<stop offset="1" stop-color="#0439C7"/>
</radialGradient>
</defs>
</svg>
