<svg width="157" height="131" viewBox="0 0 157 131" fill="none" xmlns="http://www.w3.org/2000/svg">
<path d="M156.63 82.5291L156.621 49.2114L117.147 54.8301L87.5895 36.6271C82.4037 33.4342 74.0005 33.4342 68.8148 36.6271L64.2113 39.747L0.121094 48.868V82.5754C0.121094 82.5949 0.121094 82.6119 0.121094 82.6314V82.7897L0.146216 82.7849C0.219287 84.8161 1.48889 86.8327 4.00527 88.3841L69.1596 128.504C74.3431 131.697 82.7485 131.697 87.9343 128.504L152.744 88.3086C155.253 86.7645 156.521 84.7527 156.601 82.7288L156.633 82.724V82.5291H156.63Z" fill="url(#paint0_linear_346_792)"/>
<path d="M152.741 43.1808L87.5867 3.06073C82.4032 -0.132222 73.9978 -0.132222 68.812 3.06073L4.0048 43.2539C-1.17868 46.4469 -1.17868 51.6223 4.0048 54.8152L69.1568 94.9354C74.3403 98.1283 82.7458 98.1283 87.9315 94.9354L152.741 54.7398C157.925 51.5493 157.925 46.3738 152.741 43.1808Z" fill="url(#paint1_radial_346_792)"/>
<path d="M152.742 52.7228L87.9323 92.9184C82.7488 96.1114 74.3433 96.1114 69.1576 92.9184L4.00553 52.7959C1.83166 51.4564 0.582606 49.7686 0.230951 48.0247C-0.255428 50.4408 0.995914 52.9615 4.00553 54.8149L69.1576 94.935C74.3433 98.128 82.7465 98.128 87.9323 94.935L152.742 54.7394C155.751 52.886 157.003 50.3652 156.516 47.9492C156.165 49.6955 154.916 51.3833 152.742 52.7228Z" fill="white"/>
<path d="M96.6904 103.829L93.6055 105.728V101.929L96.6904 100.029V103.829Z" fill="white"/>
<path d="M103.144 99.8555L100.059 101.755V97.9583L103.144 96.0586V99.8555Z" fill="white"/>
<path d="M109.597 95.8814L106.512 97.7811V93.9817L109.597 92.082V95.8814Z" fill="white"/>
<path d="M104.319 106.826L101.236 108.726V104.929L104.319 103.029V106.826Z" fill="white"/>
<path d="M110.003 103.331L106.918 105.23V101.431L110.003 99.5312V103.331Z" fill="white"/>
<path d="M130.294 83.1373L127.209 85.037V81.2376L130.294 79.3379V83.1373Z" fill="white"/>
<path d="M148.069 72.1895L144.984 74.0892V70.2923L148.069 68.3926V72.1895Z" fill="white"/>
<path d="M116.05 91.9083L112.965 93.808V90.011L116.05 88.1113V91.9083Z" fill="white"/>
<path d="M57.4398 107.206L21.2673 84.9309C20.4042 84.3999 19.7031 82.9727 19.7031 81.7452V78.8811C19.7031 77.6536 20.4019 77.0885 21.2673 77.6195L57.4398 99.8946C58.3029 100.426 59.004 101.853 59.004 103.08V105.944C59.004 107.172 58.3029 107.737 57.4398 107.206Z" fill="white"/>
<defs>
<linearGradient id="paint0_linear_346_792" x1="-9.29275" y1="82.5652" x2="101.075" y2="82.5652" gradientUnits="userSpaceOnUse">
<stop stop-color="#01EFC4"/>
<stop offset="0.1297" stop-color="#04DDD0"/>
<stop offset="0.5466" stop-color="#0E6BA7"/>
<stop offset="0.8476" stop-color="#154085"/>
<stop offset="1" stop-color="#172F78"/>
</linearGradient>
<radialGradient id="paint1_radial_346_792" cx="0" cy="0" r="1" gradientUnits="userSpaceOnUse" gradientTransform="translate(-28.8637 -5.70563) scale(246.473 262.884)">
<stop stop-color="#01C8EF"/>
<stop offset="0.1396" stop-color="#03BAE4"/>
<stop offset="0.4033" stop-color="#0895C8"/>
<stop offset="0.76" stop-color="#115A9A"/>
<stop offset="1" stop-color="#172F78"/>
</radialGradient>
</defs>
</svg>
