<svg width="158" height="132" viewBox="0 0 158 132" fill="none" xmlns="http://www.w3.org/2000/svg">
<path d="M157.392 82.785L157.383 49.4673L117.908 55.086L88.3512 36.883C83.1677 33.69 74.7623 33.69 69.5765 36.883L64.973 40.0029L0.882812 49.1238V82.8313C0.882812 82.8507 0.882812 82.8678 0.882812 82.8873V83.0456L0.907934 83.0407C0.981005 85.0719 2.25062 87.0885 4.76701 88.6399L69.9213 128.76C75.1048 131.953 83.5103 131.953 88.696 128.76L153.505 88.5644C156.015 87.0203 157.282 85.0086 157.362 82.9847L157.394 82.9798L157.392 82.785Z" fill="url(#paint0_linear_255_929)"/>
<path d="M157.392 82.785L157.383 49.4673L117.908 55.086L88.3512 36.883C83.1677 33.69 74.7623 33.69 69.5765 36.883L64.973 40.0029L0.882812 49.1238V82.8313C0.882812 82.8507 0.882812 82.8678 0.882812 82.8873V83.0456L0.907934 83.0407C0.981005 85.0719 2.25062 87.0885 4.76701 88.6399L69.9213 128.76C75.1048 131.953 83.5103 131.953 88.696 128.76L153.505 88.5644C156.015 87.0203 157.282 85.0086 157.362 82.9847L157.394 82.9798L157.392 82.785Z" fill="url(#paint1_linear_255_929)"/>
<path d="M153.505 43.4367L88.3505 3.31659C83.167 0.123638 74.7616 0.123638 69.5758 3.31659L4.76628 43.5122C-0.419488 46.7051 -0.419488 51.8806 4.76628 55.0735L69.9206 95.1936C75.1041 98.3866 83.5095 98.3866 88.6953 95.1936L153.505 54.998C158.688 51.8051 158.688 46.6296 153.505 43.4367Z" fill="url(#paint2_radial_255_929)"/>
<path d="M153.505 43.4367L88.3505 3.31659C83.167 0.123638 74.7616 0.123638 69.5758 3.31659L4.76628 43.5122C-0.419488 46.7051 -0.419488 51.8806 4.76628 55.0735L69.9206 95.1936C75.1041 98.3866 83.5095 98.3866 88.6953 95.1936L153.505 54.998C158.688 51.8051 158.688 46.6296 153.505 43.4367Z" fill="url(#paint3_radial_255_929)"/>
<path d="M79.2493 82.196C76.8585 82.196 74.4677 81.6236 72.6067 80.4765L29.4377 53.893C27.5036 52.6996 26.4395 51.0629 26.4395 49.2777C26.4395 47.4973 27.5058 45.8607 29.4377 44.6648L72.3783 18.035C76.1072 15.7383 81.9438 15.7383 85.6659 18.035L128.835 44.6161C130.769 45.8071 131.833 47.4437 131.833 49.229C131.833 51.0142 130.769 52.6484 128.835 53.8418L85.8942 80.4741C84.0309 81.6188 81.6401 82.196 79.2493 82.196ZM79.0232 18.1203C76.9247 18.1203 74.824 18.6122 73.2278 19.5962L30.2871 46.2284C28.8965 47.0857 28.1315 48.1695 28.1315 49.2777C28.1315 50.3883 28.8965 51.4721 30.2848 52.3269L73.4539 78.9105C76.6462 80.8808 81.8525 80.8808 85.0448 78.9105L127.985 52.2782C129.376 51.4209 130.141 50.3396 130.141 49.229C130.141 48.1184 129.376 47.037 127.988 46.1821L84.8187 19.5986C83.2203 18.6122 81.1218 18.1203 79.0232 18.1203Z" fill="#8B1E64"/>
<path d="M153.506 52.9782L88.6963 93.1738C83.5128 96.3667 75.1073 96.3667 69.9216 93.1738L4.76725 53.0537C2.59338 51.7142 1.34432 50.0264 0.99267 48.2825C0.506291 50.6986 1.75763 53.2193 4.76725 55.0727L69.9216 95.1928C75.105 98.3858 83.5105 98.3858 88.6963 95.1928L153.506 54.9972C156.515 53.1438 157.767 50.6231 157.28 48.207C156.929 49.9509 155.68 51.6387 153.506 52.9782Z" fill="white"/>
<path d="M97.4541 104.086L94.3691 105.986V102.187L97.4541 100.287V104.086Z" fill="white"/>
<path d="M103.907 100.111L100.822 102.011V98.2117L103.907 96.3145V100.111Z" fill="white"/>
<path d="M110.36 96.1392L107.275 98.0389V94.2395L110.36 92.3398V96.1392Z" fill="white"/>
<path d="M105.083 107.083L101.998 108.982V105.183L105.083 103.283V107.083Z" fill="white"/>
<path d="M110.764 103.586L107.682 105.484V101.687L110.764 99.7871V103.586Z" fill="white"/>
<path d="M131.058 83.3931L127.973 85.2904V81.4934L131.058 79.5938V83.3931Z" fill="white"/>
<path d="M148.831 72.4459L145.746 74.3456V70.5462L148.831 68.6465V72.4459Z" fill="white"/>
<path d="M116.811 92.1641L113.729 94.0638V90.2644L116.811 88.3672V92.1641Z" fill="white"/>
<defs>
<linearGradient id="paint0_linear_255_929" x1="-8.52966" y1="82.8205" x2="101.838" y2="82.8205" gradientUnits="userSpaceOnUse">
<stop stop-color="#01C8EF"/>
<stop offset="0.1297" stop-color="#04B1DD"/>
<stop offset="0.5466" stop-color="#0E6BA7"/>
<stop offset="0.8476" stop-color="#154085"/>
<stop offset="1" stop-color="#172F78"/>
</linearGradient>
<linearGradient id="paint1_linear_255_929" x1="-8.53025" y1="82.823" x2="101.839" y2="82.823" gradientUnits="userSpaceOnUse">
<stop stop-color="#03FFCF"/>
<stop offset="1" stop-color="#022480"/>
</linearGradient>
<radialGradient id="paint2_radial_255_929" cx="0" cy="0" r="1" gradientUnits="userSpaceOnUse" gradientTransform="translate(-28.1009 -5.45027) scale(246.473 262.883)">
<stop stop-color="#01EFB6"/>
<stop offset="0.1396" stop-color="#03E4BC"/>
<stop offset="0.4033" stop-color="#0895C8"/>
<stop offset="0.76" stop-color="#115A9A"/>
<stop offset="1" stop-color="#172F78"/>
</radialGradient>
<radialGradient id="paint3_radial_255_929" cx="0" cy="0" r="1" gradientUnits="userSpaceOnUse" gradientTransform="translate(-6.35172 10.3908) scale(169.459 180.742)">
<stop stop-color="#F9636B"/>
<stop offset="1" stop-color="#B6246E"/>
</radialGradient>
</defs>
</svg>
