<svg width="20" height="20" viewBox="0 0 20 20" fill="none" xmlns="http://www.w3.org/2000/svg">
<circle cx="10" cy="10" r="10" fill="#33E6BF"/>
<g clip-path="url(#clip0_1_4847)">
<path d="M9.29657 13.2016C9.53903 13.2016 9.73157 13.0931 9.87419 12.8761L13.1331 7.78203C13.1759 7.716 13.2151 7.64407 13.2507 7.56624C13.2864 7.48841 13.3043 7.40941 13.3043 7.32923C13.3043 7.17357 13.2448 7.04858 13.1259 6.95424C13.0071 6.85991 12.874 6.81274 12.7266 6.81274C12.5269 6.81274 12.3606 6.91887 12.2275 7.13112L9.26805 11.8431L7.86323 10.039C7.77766 9.92579 7.69327 9.84914 7.61008 9.80905C7.52688 9.76896 7.43536 9.74891 7.33553 9.74891C7.1834 9.74891 7.05385 9.80434 6.94689 9.91519C6.83992 10.026 6.78644 10.1593 6.78644 10.3149C6.78644 10.4611 6.84111 10.6074 6.95045 10.7536L8.69043 12.8761C8.78076 12.9893 8.87465 13.0719 8.97211 13.1237C9.06957 13.1756 9.17772 13.2016 9.29657 13.2016Z" fill="white"/>
</g>
<defs>
<clipPath id="clip0_1_4847">
<rect width="11.8519" height="14.6667" fill="white" transform="translate(4.14795 2.66675)"/>
</clipPath>
</defs>
</svg>
