<svg width="264" height="159" viewBox="0 0 264 159" fill="none" xmlns="http://www.w3.org/2000/svg">
<g clip-path="url(#clip0_1_4926)">
<path d="M43.8472 42.531C46.5787 39.0511 48.432 34.3791 47.9435 29.6046C43.9451 29.8072 39.0659 32.2916 36.2411 35.7738C33.7045 38.7562 31.4597 43.6238 32.0451 48.198C36.5329 48.5944 41.0175 45.913 43.8472 42.531Z" fill="white"/>
<path d="M47.8923 49.0901C41.3741 48.6946 35.8319 52.858 32.719 52.858C29.6046 52.858 24.8378 49.2895 19.6821 49.3855C12.9718 49.4861 6.7454 53.3504 3.34016 59.4965C-3.66379 71.792 1.49187 90.0305 8.30279 100.044C11.6101 104.998 15.5967 110.453 20.8489 110.257C25.8115 110.059 27.7568 106.984 33.7888 106.984C39.8167 106.984 41.569 110.257 46.822 110.158C52.27 110.059 55.6757 105.201 58.983 100.242C62.7775 94.5945 64.3308 89.1416 64.4282 88.842C64.3303 88.7428 53.9234 84.6763 53.8269 72.4833C53.7286 62.274 61.9977 57.4174 62.3869 57.1164C57.7179 50.0828 50.4217 49.2895 47.8923 49.0901Z" fill="white"/>
<path d="M105.336 35.2745C119.503 35.2745 129.368 45.2213 129.368 59.703C129.368 74.2363 119.3 84.2348 104.98 84.2348H89.2945V109.642H77.9614V35.2745H105.336ZM89.2941 74.5456H102.298C112.165 74.5456 117.781 69.1347 117.781 59.7547C117.781 50.3756 112.165 45.0155 102.349 45.0155H89.2941V74.5456Z" fill="white"/>
<path d="M132.329 94.2349C132.329 84.7515 139.463 78.928 152.114 78.2067L166.685 77.3307V73.1567C166.685 67.1269 162.688 63.5191 156.01 63.5191C149.684 63.5191 145.737 66.6109 144.777 71.456H134.455C135.062 61.6634 143.258 54.4484 156.414 54.4484C169.317 54.4484 177.564 61.4058 177.564 72.2798V109.644H167.09V100.728H166.838C163.751 106.758 157.021 110.571 150.039 110.571C139.615 110.571 132.329 103.974 132.329 94.2349ZM166.685 89.3391V85.0617L153.58 85.886C147.052 86.3503 143.359 89.2878 143.359 93.9262C143.359 98.6669 147.204 101.76 153.074 101.76C160.714 101.759 166.685 96.399 166.685 89.3391Z" fill="white"/>
<path d="M187.453 129.587V120.568C188.261 120.773 190.082 120.773 190.994 120.773C196.053 120.773 198.786 118.609 200.455 113.043C200.455 112.94 201.417 109.745 201.417 109.693L182.19 55.4249H194.029L207.49 99.5406H207.691L221.152 55.4249H232.688L212.75 112.476C208.198 125.618 202.935 129.844 191.905 129.844C190.994 129.844 188.261 129.741 187.453 129.587Z" fill="white"/>
</g>
<defs>
<clipPath id="clip0_1_4926">
<rect width="232" height="139" fill="white" transform="translate(0 10.2238)"/>
</clipPath>
</defs>
</svg>
