<svg width="74" height="131" viewBox="0 0 74 131" fill="none" xmlns="http://www.w3.org/2000/svg">
<g filter="url(#filter0_d_2386_2521)">
<rect x="14.5" y="10.5" width="55" height="112" rx="27.5" stroke="url(#paint0_linear_2386_2521)"/>
<rect x="4" width="56" height="113" rx="28" fill="url(#paint1_linear_2386_2521)"/>
<path d="M36.4609 76.7617L36.4609 70.6191L39 70.6191L39 79.877L36.5391 79.877L34.8789 78.3145C32.9062 76.459 31.6921 75.3327 31.2363 74.9355C30.6764 74.4473 30.1816 74.0957 29.752 73.8809C29.3158 73.666 28.8861 73.5586 28.4629 73.5586C27.8118 73.5586 27.3105 73.7572 26.959 74.1543C26.6009 74.5449 26.4219 75.1016 26.4219 75.8242C26.4219 76.3385 26.526 76.918 26.7344 77.5625C26.9362 78.2005 27.2324 78.8678 27.623 79.5645L24.9375 79.5645C24.6836 78.8678 24.4915 78.1875 24.3613 77.5234C24.2246 76.8529 24.1562 76.2116 24.1562 75.5996C24.1562 74.0566 24.5176 72.8457 25.2402 71.9668C25.9564 71.0814 26.9362 70.6387 28.1797 70.6387C28.7526 70.6387 29.2897 70.7363 29.791 70.9316C30.2923 71.1204 30.849 71.4492 31.4609 71.918C31.9036 72.263 32.8997 73.2103 34.4492 74.7598C35.2891 75.5996 35.9596 76.2669 36.4609 76.7617ZM31.7246 68.128C29.1986 68.128 27.3073 67.7277 26.0508 66.9269C24.7878 66.1261 24.1562 64.9217 24.1562 63.3136C24.1562 61.699 24.7845 60.4913 26.041 59.6905C27.2975 58.8898 29.1921 58.4894 31.7246 58.4894C34.2507 58.4894 36.1419 58.8898 37.3984 59.6905C38.6549 60.4913 39.2832 61.699 39.2832 63.3136C39.2832 64.9217 38.6549 66.1261 37.3984 66.9269C36.1354 67.7277 34.2441 68.128 31.7246 68.128ZM35.6211 64.7687C36.4349 64.4627 36.8418 63.9777 36.8418 63.3136C36.8418 62.643 36.4349 62.1547 35.6211 61.8487C34.8073 61.5428 33.5085 61.3898 31.7246 61.3898C31.0475 61.3898 30.4421 61.4126 29.9082 61.4581L35.3379 64.8663C35.4421 64.8338 35.5365 64.8012 35.6211 64.7687ZM26.5977 63.3136C26.5977 63.9777 27.0046 64.4627 27.8184 64.7687C28.6322 65.0747 29.9342 65.2277 31.7246 65.2277C32.278 65.2277 32.7826 65.2146 33.2383 65.1886L27.877 61.8292C27.8574 61.8357 27.8379 61.8422 27.8184 61.8487C27.0046 62.1547 26.5977 62.643 26.5977 63.3136ZM36.4609 53.4202L36.4609 47.2776L39 47.2776L39 56.5354L36.5391 56.5354L34.8789 54.9729C32.9062 53.1174 31.6921 51.9911 31.2363 51.594C30.6764 51.1057 30.1816 50.7541 29.752 50.5393C29.3158 50.3245 28.8861 50.217 28.4629 50.217C27.8118 50.217 27.3105 50.4156 26.959 50.8127C26.6009 51.2034 26.4219 51.76 26.4219 52.4827C26.4219 52.997 26.526 53.5764 26.7344 54.2209C26.9362 54.859 27.2324 55.5263 27.623 56.2229L24.9375 56.2229C24.6836 55.5263 24.4915 54.8459 24.3613 54.1819C24.2246 53.5113 24.1562 52.87 24.1562 52.258C24.1562 50.7151 24.5176 49.5041 25.2402 48.6252C25.9564 47.7398 26.9362 47.2971 28.1797 47.2971C28.7526 47.2971 29.2897 47.3948 29.791 47.5901C30.2923 47.7789 30.849 48.1077 31.4609 48.5764C31.9036 48.9215 32.8997 49.8687 34.4492 51.4182C35.2891 52.258 35.9596 52.9254 36.4609 53.4202ZM27.623 39.2103L33.3848 42.892L33.3848 39.2103L27.623 39.2103ZM24.4199 39.4642L24.4199 36.4466L33.3848 36.4466L33.3848 34.8451L35.8555 34.8451L35.8555 36.4466L39 36.4466L39 39.2103L35.8555 39.2103L35.8555 44.9916L33.0625 44.9916L24.4199 39.4642Z" fill="#101010"/>
</g>
<defs>
<filter id="filter0_d_2386_2521" x="0" y="0" width="74" height="131" filterUnits="userSpaceOnUse" color-interpolation-filters="sRGB">
<feFlood flood-opacity="0" result="BackgroundImageFix"/>
<feColorMatrix in="SourceAlpha" type="matrix" values="0 0 0 0 0 0 0 0 0 0 0 0 0 0 0 0 0 0 127 0" result="hardAlpha"/>
<feOffset dy="4"/>
<feGaussianBlur stdDeviation="2"/>
<feComposite in2="hardAlpha" operator="out"/>
<feColorMatrix type="matrix" values="0 0 0 0 0 0 0 0 0 0 0 0 0 0 0 0 0 0 0.25 0"/>
<feBlend mode="normal" in2="BackgroundImageFix" result="effect1_dropShadow_2386_2521"/>
<feBlend mode="normal" in="SourceGraphic" in2="effect1_dropShadow_2386_2521" result="shape"/>
</filter>
<linearGradient id="paint0_linear_2386_2521" x1="42" y1="-15" x2="42" y2="143" gradientUnits="userSpaceOnUse">
<stop stop-color="#33E6BF"/>
<stop offset="1" stop-color="#0439C7"/>
</linearGradient>
<linearGradient id="paint1_linear_2386_2521" x1="32" y1="-25" x2="32" y2="133" gradientUnits="userSpaceOnUse">
<stop stop-color="#33E6BF"/>
<stop offset="1" stop-color="#0439C7"/>
</linearGradient>
</defs>
</svg>
