<svg width="56" height="56" viewBox="0 0 56 56" fill="none" xmlns="http://www.w3.org/2000/svg">
<g clip-path="url(#clip0_1_1163)">
<path d="M16.0035 45.0625C15.7523 44.8755 15.584 44.5978 15.5347 44.2885C15.4854 43.9792 15.5589 43.6629 15.7395 43.4071C15.9201 43.1512 16.1935 42.9761 16.5015 42.919C16.8094 42.8619 17.1275 42.9275 17.3878 43.1016C29.4566 51.5987 46.4527 43.0202 46.4527 28C46.452 25.1006 45.7682 22.2422 44.4566 19.6564C43.145 17.0706 41.2426 14.8303 38.9035 13.1171C36.5644 11.4039 33.8546 10.2659 30.9936 9.79551C28.1326 9.32511 25.2011 9.53549 22.4366 10.4096C19.6721 11.2837 17.1525 12.7969 15.082 14.8266C13.0116 16.8563 11.4485 19.3453 10.5196 22.0919C9.59068 24.8384 9.32203 27.7652 9.73543 30.635C10.1488 33.5047 11.2327 36.2367 12.899 38.6094C13.0673 38.8698 13.1281 39.1853 13.0688 39.4897C13.0095 39.7941 12.8346 40.0636 12.5809 40.2419C12.3272 40.4201 12.0143 40.4932 11.7079 40.4458C11.4014 40.3983 11.1253 40.2341 10.9373 39.9875C9.05283 37.3062 7.82687 34.2185 7.35881 30.9748C6.89074 27.7312 7.19376 24.4228 8.24327 21.3182C9.29279 18.2135 11.0593 15.3999 13.3994 13.1055C15.7396 10.8112 18.5876 9.10065 21.7124 8.1127C24.8372 7.12475 28.1509 6.88718 31.3846 7.41926C34.6184 7.95134 37.6813 9.2381 40.3248 11.1752C42.9683 13.1122 45.1181 15.6451 46.5998 18.5683C48.0815 21.4915 48.8533 24.7227 48.8528 28C48.8528 44.9321 29.6885 54.6997 16.0035 45.0625Z" fill="#33E6BF"/>
<path d="M28 56C22.4621 56 17.0486 54.3578 12.444 51.2812C7.83947 48.2045 4.25064 43.8315 2.13139 38.7151C0.0121319 33.5988 -0.542361 27.969 0.538025 22.5375C1.61841 17.106 4.28515 12.1169 8.20102 8.20102C12.1169 4.28515 17.106 1.61841 22.5375 0.538025C27.969 -0.542361 33.5988 0.0121319 38.7151 2.13139C43.8315 4.25064 48.2045 7.83947 51.2812 12.444C54.3578 17.0486 56 22.4621 56 28C55.9917 35.4235 53.039 42.5406 47.7898 47.7898C42.5406 53.039 35.4235 55.9917 28 56ZM28 2.40014C22.9368 2.40014 17.9874 3.90154 13.7775 6.71449C9.56761 9.52744 6.28641 13.5256 4.34881 18.2034C2.41122 22.8811 1.90426 28.0284 2.89203 32.9943C3.87981 37.9602 6.31796 42.5217 9.89817 46.1019C13.4784 49.6821 18.0398 52.1202 23.0057 53.108C27.9716 54.0958 33.1189 53.5888 37.7967 51.6512C42.4744 49.7136 46.4726 46.4324 49.2855 42.2225C52.0985 38.0127 53.5999 33.0632 53.5999 28C53.592 21.2129 50.8924 14.7061 46.0932 9.90686C41.294 5.10766 34.7871 2.40801 28 2.40014Z" fill="#33E6BF"/>
<path d="M30.6801 41.7059C30.3618 41.7055 30.0567 41.5788 29.8317 41.3538C29.6067 41.1288 29.48 40.8237 29.4796 40.5054V38.7187C29.4796 38.5632 29.4178 38.4141 29.3079 38.3041C29.1979 38.1942 29.0488 38.1324 28.8933 38.1324H25.3198C25.1643 38.1324 25.0152 38.1942 24.9053 38.3041C24.7953 38.4141 24.7336 38.5632 24.7336 38.7187V40.5054C24.7379 40.6657 24.7101 40.8253 24.6517 40.9747C24.5933 41.1241 24.5056 41.2603 24.3938 41.3752C24.2819 41.4901 24.1481 41.5815 24.0004 41.6438C23.8526 41.7062 23.6939 41.7383 23.5335 41.7383C23.3731 41.7383 23.2144 41.7062 23.0666 41.6438C22.9189 41.5815 22.7851 41.4901 22.6732 41.3752C22.5614 41.2603 22.4737 41.1241 22.4153 40.9747C22.357 40.8253 22.3291 40.6657 22.3334 40.5054V38.7187C22.3332 38.5631 22.2713 38.414 22.1612 38.3041C22.0511 38.1942 21.9019 38.1324 21.7463 38.1324H19.9604C19.8001 38.1368 19.6406 38.1089 19.4912 38.0506C19.3418 37.9922 19.2056 37.9045 19.0907 37.7926C18.9758 37.6808 18.8844 37.547 18.822 37.3992C18.7597 37.2515 18.7275 37.0927 18.7275 36.9324C18.7275 36.772 18.7597 36.6132 18.822 36.4655C18.8844 36.3177 18.9758 36.184 19.0907 36.0721C19.2056 35.9602 19.3418 35.8725 19.4912 35.8142C19.6406 35.7558 19.8001 35.728 19.9604 35.7323H21.7463C21.9019 35.7323 22.0511 35.6706 22.1612 35.5606C22.2713 35.4507 22.3332 35.3016 22.3334 35.146V20.852C22.3332 20.6965 22.2713 20.5474 22.1612 20.4375C22.0511 20.3275 21.9019 20.2658 21.7463 20.2658H19.9604C19.8001 20.2701 19.6406 20.2423 19.4912 20.1839C19.3418 20.1256 19.2056 20.0379 19.0907 19.926C18.9758 19.8141 18.8844 19.6804 18.822 19.5326C18.7597 19.3849 18.7275 19.2261 18.7275 19.0657C18.7275 18.9054 18.7597 18.7466 18.822 18.5988C18.8844 18.4511 18.9758 18.3173 19.0907 18.2055C19.2056 18.0936 19.3418 18.0059 19.4912 17.9475C19.6406 17.8892 19.8001 17.8613 19.9604 17.8657H21.7463C21.9019 17.8657 22.0511 17.8039 22.1612 17.694C22.2713 17.5841 22.3332 17.435 22.3334 17.2794V15.4927C22.3291 15.3324 22.357 15.1728 22.4153 15.0234C22.4737 14.874 22.5614 14.7378 22.6732 14.6229C22.7851 14.508 22.9189 14.4166 23.0666 14.3543C23.2144 14.2919 23.3731 14.2598 23.5335 14.2598C23.6939 14.2598 23.8526 14.2919 24.0004 14.3543C24.1481 14.4166 24.2819 14.508 24.3938 14.6229C24.5056 14.7378 24.5933 14.874 24.6517 15.0234C24.7101 15.1728 24.7379 15.3324 24.7336 15.4927V17.2794C24.7336 17.4349 24.7953 17.584 24.9053 17.694C25.0152 17.8039 25.1643 17.8657 25.3198 17.8657H28.8933C29.0488 17.8657 29.1979 17.8039 29.3079 17.694C29.4178 17.584 29.4796 17.4349 29.4796 17.2794V15.4927C29.4796 15.1743 29.6061 14.8689 29.8312 14.6438C30.0563 14.4187 30.3617 14.2922 30.6801 14.2922C30.9985 14.2922 31.3038 14.4187 31.529 14.6438C31.7541 14.8689 31.8806 15.1743 31.8806 15.4927V17.9059C31.8806 18.0165 31.9118 18.1248 31.9706 18.2185C32.0295 18.3121 32.1135 18.3873 32.2131 18.4353C32.9636 18.7853 33.6273 19.2971 34.1567 19.9339C34.6861 20.5708 35.068 21.3169 35.275 22.1187C35.482 22.9205 35.509 23.7582 35.354 24.5717C35.199 25.3852 34.866 26.1543 34.3787 26.8239C34.3317 26.8891 34.2986 26.9632 34.2815 27.0416C34.2644 27.1201 34.2636 27.2013 34.2792 27.2801C34.2948 27.3589 34.3264 27.4336 34.3721 27.4996C34.4179 27.5657 34.4767 27.6216 34.5449 27.6639C35.5322 28.2721 36.3079 29.1698 36.7666 30.2347C37.2252 31.2997 37.3444 32.4801 37.108 33.6153C36.8715 34.7505 36.2909 35.7851 35.4452 36.5784C34.5995 37.3717 33.5299 37.885 32.3819 38.0484C32.2426 38.0686 32.1151 38.1384 32.0231 38.245C31.931 38.3515 31.8804 38.4877 31.8806 38.6285V40.5054C31.8801 40.8237 31.7535 41.1288 31.5284 41.3538C31.3034 41.5788 30.9983 41.7055 30.6801 41.7059ZM25.3198 29.1996C25.1643 29.1996 25.0152 29.2613 24.9053 29.3713C24.7953 29.4812 24.7336 29.6303 24.7336 29.7858V35.146C24.7336 35.3015 24.7953 35.4506 24.9053 35.5606C25.0152 35.6705 25.1643 35.7323 25.3198 35.7323H31.5734C32.4397 35.7323 33.2706 35.3882 33.8831 34.7756C34.4957 34.163 34.8398 33.3322 34.8398 32.4659C34.8398 31.5996 34.4957 30.7688 33.8831 30.1562C33.2706 29.5437 32.4397 29.1996 31.5734 29.1996H25.3198ZM25.3198 20.2658C25.1643 20.2658 25.0152 20.3276 24.9053 20.4375C24.7953 20.5475 24.7336 20.6966 24.7336 20.852V26.2123C24.7336 26.3678 24.7953 26.5169 24.9053 26.6268C25.0152 26.7368 25.1643 26.7985 25.3198 26.7985H29.7867C30.653 26.7985 31.4838 26.4544 32.0964 25.8419C32.7089 25.2293 33.0531 24.3985 33.0531 23.5322C33.0531 22.6659 32.7089 21.8351 32.0964 21.2225C31.4838 20.6099 30.653 20.2658 29.7867 20.2658H25.3198Z" fill="#33E6BF"/>
</g>
<defs>
<clipPath id="clip0_1_1163">
<rect width="56" height="56" fill="white"/>
</clipPath>
</defs>
</svg>
