<svg width="61" height="60" viewBox="0 0 61 60" fill="none" xmlns="http://www.w3.org/2000/svg">
<path d="M30.4998 59.4537C45.5621 59.4537 57.7725 47.2432 57.7725 32.1809C57.7725 17.1186 45.5621 4.9082 30.4998 4.9082C15.4375 4.9082 3.22705 17.1186 3.22705 32.1809C3.22705 47.2432 15.4375 59.4537 30.4998 59.4537Z" fill="#E7EFFF" fill-opacity="0.08"/>
<path d="M2.68177 8.18093C3.58551 8.18093 4.31814 7.44831 4.31814 6.54457C4.31814 5.64083 3.58551 4.9082 2.68177 4.9082C1.77804 4.9082 1.04541 5.64083 1.04541 6.54457C1.04541 7.44831 1.77804 8.18093 2.68177 8.18093Z" fill="#FF4D69"/>
<path d="M56.6818 3.81765C57.5855 3.81765 58.3181 3.08502 58.3181 2.18129C58.3181 1.27755 57.5855 0.544922 56.6818 0.544922C55.778 0.544922 55.0454 1.27755 55.0454 2.18129C55.0454 3.08502 55.778 3.81765 56.6818 3.81765Z" fill="#03FFCF"/>
<path d="M58.318 52.3626C59.2217 52.3626 59.9544 51.6299 59.9544 50.7262C59.9544 49.8225 59.2217 49.0898 58.318 49.0898C57.4143 49.0898 56.6816 49.8225 56.6816 50.7262C56.6816 51.6299 57.4143 52.3626 58.318 52.3626Z" fill="#03FFCF"/>
<path d="M4.86341 59.4544C5.76715 59.4544 6.49978 58.7217 6.49978 57.818C6.49978 56.9143 5.76715 56.1816 4.86341 56.1816C3.95968 56.1816 3.22705 56.9143 3.22705 57.818C3.22705 58.7217 3.95968 59.4544 4.86341 59.4544Z" fill="#03FFCF"/>
<path d="M52.3181 22.9086H8.68176L20.5781 9.46317C20.7831 9.23143 21.035 9.04593 21.3171 8.91898C21.5992 8.79202 21.9051 8.72652 22.2145 8.72681H38.7908C39.1002 8.72652 39.4061 8.79202 39.6882 8.91898C39.9704 9.04593 40.2223 9.23143 40.4272 9.46317L52.3181 22.9086Z" fill="#4879FD"/>
<path d="M53.4091 22.9082H7.59091C6.98842 22.9082 6.5 23.3966 6.5 23.9991V26.1809C6.5 26.7834 6.98842 27.2718 7.59091 27.2718H53.4091C54.0116 27.2718 54.5 26.7834 54.5 26.1809V23.9991C54.5 23.3966 54.0116 22.9082 53.4091 22.9082Z" fill="#2155DF"/>
<path d="M30.5 25.0909C34.115 25.0909 37.0455 22.1604 37.0455 18.5455C37.0455 14.9305 34.115 12 30.5 12C26.8851 12 23.9546 14.9305 23.9546 18.5455C23.9546 22.1604 26.8851 25.0909 30.5 25.0909Z" fill="#03FFCF"/>
<path d="M30.7725 17.9998H30.2271C30.0101 17.9998 29.802 17.9136 29.6485 17.7602C29.4951 17.6067 29.4089 17.3986 29.4089 17.1816C29.4089 16.9646 29.4951 16.7565 29.6485 16.6031C29.802 16.4497 30.0101 16.3635 30.2271 16.3635H32.1362C32.2808 16.3635 32.4196 16.306 32.5219 16.2037C32.6242 16.1014 32.6816 15.9627 32.6816 15.818C32.6816 15.6733 32.6242 15.5346 32.5219 15.4323C32.4196 15.33 32.2808 15.2725 32.1362 15.2725H31.0453V14.7271C31.0453 14.5824 30.9878 14.4437 30.8855 14.3414C30.7832 14.2391 30.6445 14.1816 30.4998 14.1816C30.3551 14.1816 30.2164 14.2391 30.1141 14.3414C30.0118 14.4437 29.9544 14.5824 29.9544 14.7271V15.2998C29.448 15.336 28.9768 15.5718 28.6444 15.9554C28.3119 16.339 28.1455 16.839 28.1816 17.3453C28.2178 17.8516 28.4536 18.3228 28.8372 18.6553C29.2208 18.9877 29.7208 19.1542 30.2271 19.118H30.7725C30.9895 19.118 31.1976 19.2042 31.3511 19.3576C31.5045 19.5111 31.5907 19.7192 31.5907 19.9362C31.5907 20.1532 31.5045 20.3613 31.3511 20.5147C31.1976 20.6682 30.9895 20.7544 30.7725 20.7544H28.8634C28.7188 20.7544 28.58 20.8118 28.4777 20.9141C28.3755 21.0164 28.318 21.1552 28.318 21.2998C28.318 21.4445 28.3755 21.5832 28.4777 21.6855C28.58 21.7878 28.7188 21.8453 28.8634 21.8453H29.9544V22.3907C29.9544 22.5354 30.0118 22.6741 30.1141 22.7764C30.2164 22.8787 30.3551 22.9362 30.4998 22.9362C30.6445 22.9362 30.7832 22.8787 30.8855 22.7764C30.9878 22.6741 31.0453 22.5354 31.0453 22.3907V21.818C31.5516 21.7818 32.0228 21.546 32.3553 21.1624C32.6877 20.7788 32.8542 20.2789 32.818 19.7726C32.7818 19.2662 32.546 18.795 32.1624 18.4626C31.7788 18.1301 31.2789 17.9637 30.7725 17.9998Z" fill="white"/>
<path d="M8.68164 27.2715H52.318V29.4533C52.318 29.7426 52.2031 30.0201 51.9985 30.2247C51.7939 30.4293 51.5164 30.5442 51.2271 30.5442H9.77255C9.48322 30.5442 9.20575 30.4293 9.00116 30.2247C8.79658 30.0201 8.68164 29.7426 8.68164 29.4533V27.2715Z" fill="#7097FF"/>
<path d="M47.5561 53.4531C42.7197 57.3371 36.7026 59.4541 30.4997 59.4541C24.2969 59.4541 18.2797 57.3371 13.4434 53.4531H47.5561Z" fill="#7097FF"/>
<path d="M11.4091 30.5449H20.1363V32.7267C20.1363 33.0161 20.0214 33.2935 19.8168 33.4981C19.6122 33.7027 19.3347 33.8176 19.0454 33.8176H12.5C12.2106 33.8176 11.9332 33.7027 11.7286 33.4981C11.524 33.2935 11.4091 33.0161 11.4091 32.7267V30.5449Z" fill="#4879FD"/>
<path d="M20.1365 51.2725V53.4544H13.4437C12.7351 52.8858 12.0561 52.2814 11.4092 51.6435V51.2725C11.4092 50.9832 11.5241 50.7057 11.7287 50.5012C11.9333 50.2966 12.2108 50.1816 12.5001 50.1816H19.0455C19.3349 50.1816 19.6123 50.2966 19.8169 50.5012C20.0215 50.7057 20.1365 50.9832 20.1365 51.2725Z" fill="#4879FD"/>
<path d="M12.5 33.8184H19.0455V50.182H12.5V33.8184Z" fill="#2155DF"/>
<path d="M26.1364 30.5449H34.8636V32.7267C34.8636 33.0161 34.7487 33.2935 34.5441 33.4981C34.3395 33.7027 34.062 33.8176 33.7727 33.8176H27.2273C26.9379 33.8176 26.6605 33.7027 26.4559 33.4981C26.2513 33.2935 26.1364 33.0161 26.1364 32.7267V30.5449Z" fill="#4879FD"/>
<path d="M27.2271 50.1816H33.7726C34.0619 50.1816 34.3394 50.2966 34.544 50.5012C34.7486 50.7057 34.8635 50.9832 34.8635 51.2725V53.4544H26.1362V51.2725C26.1362 50.9832 26.2512 50.7057 26.4557 50.5012C26.6603 50.2966 26.9378 50.1816 27.2271 50.1816Z" fill="#4879FD"/>
<path d="M27.2271 33.8184H33.7725V50.182H27.2271V33.8184Z" fill="#2155DF"/>
<path d="M40.8636 30.5449H49.5909V32.7267C49.5909 33.0161 49.476 33.2935 49.2714 33.4981C49.0668 33.7027 48.7893 33.8176 48.5 33.8176H41.9546C41.6652 33.8176 41.3878 33.7027 41.1832 33.4981C40.9786 33.2935 40.8636 33.0161 40.8636 32.7267V30.5449Z" fill="#4879FD"/>
<path d="M49.591 51.2725V51.6435C48.9442 52.2814 48.2651 52.8858 47.5565 53.4544H40.8638V51.2725C40.8638 50.9832 40.9787 50.7057 41.1833 50.5012C41.3879 50.2966 41.6654 50.1816 41.9547 50.1816H48.5001C48.7895 50.1816 49.0669 50.2966 49.2715 50.5012C49.4761 50.7057 49.591 50.9832 49.591 51.2725Z" fill="#4879FD"/>
<path d="M41.9546 33.8184H48.5V50.182H41.9546V33.8184Z" fill="#2155DF"/>
<path d="M39.2272 19.0909C39.5285 19.0909 39.7727 18.8467 39.7727 18.5455C39.7727 18.2442 39.5285 18 39.2272 18C38.926 18 38.6818 18.2442 38.6818 18.5455C38.6818 18.8467 38.926 19.0909 39.2272 19.0909Z" fill="white"/>
<path d="M41.9545 19.0909C42.2558 19.0909 42.5 18.8467 42.5 18.5455C42.5 18.2442 42.2558 18 41.9545 18C41.6533 18 41.4091 18.2442 41.4091 18.5455C41.4091 18.8467 41.6533 19.0909 41.9545 19.0909Z" fill="white"/>
<path d="M19.0455 19.0909C19.3467 19.0909 19.5909 18.8467 19.5909 18.5455C19.5909 18.2442 19.3467 18 19.0455 18C18.7442 18 18.5 18.2442 18.5 18.5455C18.5 18.8467 18.7442 19.0909 19.0455 19.0909Z" fill="white"/>
<path d="M21.7727 19.0909C22.074 19.0909 22.3182 18.8467 22.3182 18.5455C22.3182 18.2442 22.074 18 21.7727 18C21.4715 18 21.2273 18.2442 21.2273 18.5455C21.2273 18.8467 21.4715 19.0909 21.7727 19.0909Z" fill="white"/>
</svg>
