<svg width="60" height="60" viewBox="0 0 60 60" fill="none" xmlns="http://www.w3.org/2000/svg">
<g clip-path="url(#clip0_1_4734)">
<path d="M29.9998 59.4537C45.0621 59.4537 57.2725 47.2432 57.2725 32.1809C57.2725 17.1186 45.0621 4.9082 29.9998 4.9082C14.9375 4.9082 2.72705 17.1186 2.72705 32.1809C2.72705 47.2432 14.9375 59.4537 29.9998 59.4537Z" fill="#E7EFFF" fill-opacity="0.08"/>
<path d="M2.18177 3.81765C3.08551 3.81765 3.81814 3.08502 3.81814 2.18129C3.81814 1.27755 3.08551 0.544922 2.18177 0.544922C1.27804 0.544922 0.54541 1.27755 0.54541 2.18129C0.54541 3.08502 1.27804 3.81765 2.18177 3.81765Z" fill="#FF4D69"/>
<path d="M57.818 10.3626C58.7217 10.3626 59.4544 9.62995 59.4544 8.72621C59.4544 7.82247 58.7217 7.08984 57.818 7.08984C56.9143 7.08984 56.1816 7.82247 56.1816 8.72621C56.1816 9.62995 56.9143 10.3626 57.818 10.3626Z" fill="#03FFCF"/>
<path d="M52.3634 59.4544C53.2672 59.4544 53.9998 58.7217 53.9998 57.818C53.9998 56.9143 53.2672 56.1816 52.3634 56.1816C51.4597 56.1816 50.7271 56.9143 50.7271 57.818C50.7271 58.7217 51.4597 59.4544 52.3634 59.4544Z" fill="#03FFCF"/>
<path d="M5.99995 55.6358C6.90369 55.6358 7.63631 54.9031 7.63631 53.9994C7.63631 53.0957 6.90369 52.363 5.99995 52.363C5.09621 52.363 4.36359 53.0957 4.36359 53.9994C4.36359 54.9031 5.09621 55.6358 5.99995 55.6358Z" fill="#03FFCF"/>
<path d="M19.6362 52.3636L16.2053 48.9327C16.1287 48.8568 16.0764 48.7598 16.0549 48.6541C16.0334 48.5484 16.0437 48.4386 16.0846 48.3388C16.1255 48.239 16.195 48.1535 16.2845 48.0932C16.3739 48.0329 16.4792 48.0005 16.5871 48H16.8435C17.5842 48 18.2945 48.2942 18.8182 48.818C19.342 49.3417 19.6362 50.0521 19.6362 50.7927V52.3636Z" fill="#2155DF"/>
<path d="M19.6362 52.3636L23.0671 48.9327C23.1437 48.8568 23.1961 48.7598 23.2176 48.6541C23.239 48.5484 23.2287 48.4386 23.1878 48.3388C23.147 48.239 23.0774 48.1535 22.988 48.0932C22.8985 48.0329 22.7932 48.0005 22.6853 48H22.429C21.6883 48 20.9779 48.2942 20.4542 48.818C19.9305 49.3417 19.6362 50.0521 19.6362 50.7927V52.3636Z" fill="#2155DF"/>
<path d="M40.3637 51.2718L36.9328 47.8409C36.8562 47.765 36.8039 47.668 36.7824 47.5623C36.7609 47.4566 36.7713 47.3468 36.8121 47.247C36.853 47.1472 36.9226 47.0617 37.012 47.0014C37.1015 46.9411 37.2068 46.9087 37.3147 46.9082H37.571C38.3117 46.9082 39.022 47.2024 39.5458 47.7262C40.0695 48.2499 40.3637 48.9603 40.3637 49.7009V51.2718Z" fill="#2155DF"/>
<path d="M40.3638 51.2718L43.7947 47.8409C43.8713 47.765 43.9236 47.668 43.9451 47.5623C43.9666 47.4566 43.9562 47.3468 43.9154 47.247C43.8745 47.1472 43.8049 47.0617 43.7155 47.0014C43.6261 46.9411 43.5207 46.9087 43.4129 46.9082H43.1565C42.4158 46.9082 41.7055 47.2024 41.1817 47.7262C40.658 48.2499 40.3638 48.9603 40.3638 49.7009V51.2718Z" fill="#2155DF"/>
<path d="M15.5726 6.45246C13.9363 7.54337 13.5217 8.84701 13.0526 10.0197C13.0124 10.1215 12.9425 10.2088 12.8521 10.2703C12.7616 10.3318 12.6547 10.3647 12.5453 10.3647C12.436 10.3647 12.3291 10.3318 12.2386 10.2703C12.1482 10.2088 12.0783 10.1215 12.0381 10.0197C11.569 8.84701 11.1435 7.54337 9.51808 6.45246C9.44383 6.40256 9.38299 6.33517 9.34092 6.25622C9.29886 6.17727 9.27686 6.08919 9.27686 5.99973C9.27686 5.91028 9.29886 5.82219 9.34092 5.74324C9.38299 5.66429 9.44383 5.5969 9.51808 5.54701C11.1544 4.4561 11.569 3.15246 12.0381 1.97973C12.0783 1.87799 12.1482 1.7907 12.2386 1.72918C12.3291 1.66766 12.436 1.63477 12.5453 1.63477C12.6547 1.63477 12.7616 1.66766 12.8521 1.72918C12.9425 1.7907 13.0124 1.87799 13.0526 1.97973C13.5217 3.15246 13.9472 4.4561 15.5726 5.54701C15.6469 5.5969 15.7077 5.66429 15.7498 5.74324C15.7918 5.82219 15.8138 5.91028 15.8138 5.99973C15.8138 6.08919 15.7918 6.17727 15.7498 6.25622C15.7077 6.33517 15.6469 6.40256 15.5726 6.45246Z" fill="#03FFCF"/>
<path d="M53.2089 14.0892C51.5725 15.1801 51.1579 16.4837 50.6888 17.6565C50.6486 17.7582 50.5788 17.8455 50.4883 17.907C50.3978 17.9685 50.291 18.0014 50.1816 18.0014C50.0722 18.0014 49.9653 17.9685 49.8749 17.907C49.7844 17.8455 49.7145 17.7582 49.6743 17.6565C49.2052 16.4837 48.7798 15.1801 47.1543 14.0892C47.0801 14.0393 47.0192 13.9719 46.9772 13.8929C46.9351 13.814 46.9131 13.7259 46.9131 13.6365C46.9131 13.547 46.9351 13.4589 46.9772 13.38C47.0192 13.301 47.0801 13.2336 47.1543 13.1837C48.7907 12.0928 49.2052 10.7892 49.6743 9.61645C49.7145 9.51471 49.7844 9.42742 49.8749 9.3659C49.9653 9.30438 50.0722 9.27148 50.1816 9.27148C50.291 9.27148 50.3978 9.30438 50.4883 9.3659C50.5788 9.42742 50.6486 9.51471 50.6888 9.61645C51.1579 10.7892 51.5834 12.0928 53.2089 13.1837C53.2831 13.2336 53.3439 13.301 53.386 13.38C53.4281 13.4589 53.4501 13.547 53.4501 13.6365C53.4501 13.7259 53.4281 13.814 53.386 13.8929C53.3439 13.9719 53.2831 14.0393 53.2089 14.0892Z" fill="#03FFCF"/>
<path d="M28.9092 29.4531H31.091V52.9077H28.9092V29.4531Z" fill="#4879FD"/>
<path d="M30 32.1814C38.1336 32.1814 44.7272 25.5877 44.7272 17.4541C44.7272 9.32043 38.1336 2.72681 30 2.72681C21.8663 2.72681 15.2727 9.32043 15.2727 17.4541C15.2727 25.5877 21.8663 32.1814 30 32.1814Z" fill="#03FFCF"/>
<path d="M46.909 53.5855C42.0992 57.3876 36.1474 59.456 30.0163 59.456C23.8851 59.456 17.9333 57.3876 13.1235 53.5855C13.7644 53.1293 14.5353 52.8921 15.3217 52.9091C15.6529 52.904 15.9772 52.8141 16.2637 52.648C16.5502 52.4818 16.7893 52.2449 16.9581 51.96C17.302 51.4159 17.7778 50.9676 18.3414 50.6567C18.905 50.3458 19.5381 50.1825 20.1817 50.1818C21.3576 50.2035 22.5117 49.8626 23.4872 49.2055C24.2856 48.6626 25.2601 48.4423 26.2144 48.5891C27.0275 48.6944 27.854 48.5815 28.609 48.2618C29.5109 47.9127 30.5107 47.9127 31.4126 48.2618C32.1676 48.5815 32.9941 48.6944 33.8072 48.5891C34.7615 48.4423 35.736 48.6626 36.5344 49.2055C37.5037 49.8583 38.6496 50.199 39.8181 50.1818C40.4627 50.1816 41.0968 50.3445 41.6614 50.6554C42.2261 50.9663 42.7028 51.4151 43.0472 51.96C43.216 52.2449 43.4551 52.4818 43.7416 52.648C44.0281 52.8141 44.3524 52.904 44.6835 52.9091C45.4783 52.8928 46.2577 53.1297 46.909 53.5855Z" fill="#A5BCED"/>
<path d="M28.9089 43.0909L22.7507 36.9327C22.6741 36.8568 22.6218 36.7598 22.6003 36.6541C22.5788 36.5484 22.5891 36.4386 22.63 36.3388C22.6709 36.239 22.7404 36.1535 22.8299 36.0932C22.9193 36.0329 23.0246 36.0005 23.1325 36H23.7762C25.1374 36 26.443 36.5408 27.4055 37.5033C28.3681 38.4659 28.9089 39.7714 28.9089 41.1327V43.0909Z" fill="#2155DF"/>
<path d="M31.0908 46.9093L37.249 40.7511C37.3256 40.6751 37.3779 40.5781 37.3994 40.4724C37.4209 40.3667 37.4106 40.257 37.3697 40.1572C37.3288 40.0573 37.2593 39.9719 37.1698 39.9115C37.0804 39.8512 36.9751 39.8188 36.8672 39.8184H36.2235C34.8623 39.8184 33.5567 40.3591 32.5942 41.3217C31.6316 42.2843 31.0908 43.5898 31.0908 44.9511V46.9093Z" fill="#2155DF"/>
<path d="M24 53.4542C24.3013 53.4542 24.5455 53.21 24.5455 52.9087C24.5455 52.6075 24.3013 52.3633 24 52.3633C23.6988 52.3633 23.4546 52.6075 23.4546 52.9087C23.4546 53.21 23.6988 53.4542 24 53.4542Z" fill="#7F96D1"/>
<path d="M26.7271 57.8175C27.0283 57.8175 27.2725 57.5733 27.2725 57.272C27.2725 56.9708 27.0283 56.7266 26.7271 56.7266C26.4258 56.7266 26.1816 56.9708 26.1816 57.272C26.1816 57.5733 26.4258 57.8175 26.7271 57.8175Z" fill="#7F96D1"/>
<path d="M30 52.9093C30.3013 52.9093 30.5455 52.6651 30.5455 52.3638C30.5455 52.0626 30.3013 51.8184 30 51.8184C29.6988 51.8184 29.4546 52.0626 29.4546 52.3638C29.4546 52.6651 29.6988 52.9093 30 52.9093Z" fill="#7F96D1"/>
<path d="M33.2727 56.7274C33.574 56.7274 33.8182 56.4832 33.8182 56.1819C33.8182 55.8807 33.574 55.6365 33.2727 55.6365C32.9715 55.6365 32.7273 55.8807 32.7273 56.1819C32.7273 56.4832 32.9715 56.7274 33.2727 56.7274Z" fill="#7F96D1"/>
<path d="M38.7271 54.0011C39.0283 54.0011 39.2725 53.7569 39.2725 53.4556C39.2725 53.1544 39.0283 52.9102 38.7271 52.9102C38.4258 52.9102 38.1816 53.1544 38.1816 53.4556C38.1816 53.7569 38.4258 54.0011 38.7271 54.0011Z" fill="#7F96D1"/>
<path d="M15.8181 34.9079H14.1818V39.2715C14.1818 39.4162 14.1243 39.5549 14.022 39.6572C13.9197 39.7595 13.781 39.8169 13.6363 39.8169H10.3636C10.2189 39.8169 10.0802 39.7595 9.97788 39.6572C9.87558 39.5549 9.81812 39.4162 9.81812 39.2715V34.9079H8.18175C8.08392 34.9077 7.98792 34.8812 7.90384 34.8312C7.81975 34.7812 7.75066 34.7095 7.70381 34.6236C7.65696 34.5377 7.63407 34.4408 7.63755 34.343C7.64103 34.2452 7.67074 34.1502 7.72357 34.0679L11.5418 28.0679C11.5912 27.9913 11.659 27.9284 11.7391 27.8848C11.8191 27.8412 11.9088 27.8184 11.9999 27.8184C12.0911 27.8184 12.1808 27.8412 12.2608 27.8848C12.3408 27.9284 12.4087 27.9913 12.4581 28.0679L16.2763 34.0679C16.3291 34.1502 16.3588 34.2452 16.3623 34.343C16.3658 34.4408 16.3429 34.5377 16.2961 34.6236C16.2492 34.7095 16.1801 34.7812 16.096 34.8312C16.0119 34.8812 15.916 34.9077 15.8181 34.9079Z" fill="#7097FF"/>
<path d="M51.8181 34.9079H50.1818V39.2715C50.1818 39.4162 50.1243 39.5549 50.022 39.6572C49.9197 39.7595 49.781 39.8169 49.6363 39.8169H46.3636C46.2189 39.8169 46.0802 39.7595 45.9779 39.6572C45.8756 39.5549 45.8181 39.4162 45.8181 39.2715V34.9079H44.1818C44.0839 34.9077 43.9879 34.8812 43.9038 34.8312C43.8197 34.7812 43.7507 34.7095 43.7038 34.6236C43.657 34.5377 43.6341 34.4408 43.6376 34.343C43.641 34.2452 43.6707 34.1502 43.7236 34.0679L47.5418 28.0679C47.5912 27.9913 47.659 27.9284 47.7391 27.8848C47.8191 27.8412 47.9088 27.8184 47.9999 27.8184C48.0911 27.8184 48.1808 27.8412 48.2608 27.8848C48.3408 27.9284 48.4087 27.9913 48.4581 28.0679L52.2763 34.0679C52.3291 34.1502 52.3588 34.2452 52.3623 34.343C52.3658 34.4408 52.3429 34.5377 52.2961 34.6236C52.2492 34.7095 52.1801 34.7812 52.096 34.8312C52.0119 34.8812 51.916 34.9077 51.8181 34.9079Z" fill="#7097FF"/>
<path d="M31.6363 38.1808H31.0908V37.0898H31.6363C31.7809 37.0898 31.9197 37.1473 32.022 37.2496C32.1243 37.3519 32.1817 37.4906 32.1817 37.6353C32.1817 37.78 32.1243 37.9187 32.022 38.021C31.9197 38.1233 31.7809 38.1808 31.6363 38.1808Z" fill="#2155DF"/>
<path d="M28.9093 34.9093H28.3638C28.2192 34.9093 28.0804 34.8518 27.9781 34.7495C27.8758 34.6472 27.8184 34.5085 27.8184 34.3638C27.8184 34.2192 27.8758 34.0804 27.9781 33.9781C28.0804 33.8758 28.2192 33.8184 28.3638 33.8184H28.9093V34.9093Z" fill="#2155DF"/>
<path d="M28.909 45.8177H28.3636C28.2189 45.8177 28.0802 45.7602 27.9779 45.658C27.8756 45.5557 27.8181 45.4169 27.8181 45.2723C27.8181 45.1276 27.8756 44.9889 27.9779 44.8866C28.0802 44.7843 28.2189 44.7268 28.3636 44.7268H28.909V45.8177Z" fill="#2155DF"/>
<path d="M35.3946 17.4544C35.9361 16.9238 36.3074 16.2441 36.4612 15.5018C36.615 14.7595 36.5444 13.9882 36.2583 13.2862C35.9722 12.5842 35.4837 11.9832 34.8548 11.5599C34.226 11.1365 33.4854 10.9099 32.7273 10.9089V9.27255C32.7273 8.98322 32.6124 8.70575 32.4078 8.50116C32.2032 8.29658 31.9257 8.18164 31.6364 8.18164C31.3471 8.18164 31.0696 8.29658 30.865 8.50116C30.6604 8.70575 30.5455 8.98322 30.5455 9.27255V10.9089H28.3637V9.27255C28.3637 8.98322 28.2487 8.70575 28.0442 8.50116C27.8396 8.29658 27.5621 8.18164 27.2728 8.18164C26.9834 8.18164 26.706 8.29658 26.5014 8.50116C26.2968 8.70575 26.1819 8.98322 26.1819 9.27255V10.9089H24.5455C24.2562 10.9089 23.9787 11.0238 23.7741 11.2284C23.5695 11.433 23.4546 11.7105 23.4546 11.9998C23.4546 12.2891 23.5695 12.5666 23.7741 12.7712C23.9787 12.9758 24.2562 13.0907 24.5455 13.0907H26.1819V21.818H24.5455C24.2562 21.818 23.9787 21.9329 23.7741 22.1375C23.5695 22.3421 23.4546 22.6196 23.4546 22.9089C23.4546 23.1982 23.5695 23.4757 23.7741 23.6803C23.9787 23.8849 24.2562 23.9998 24.5455 23.9998H26.1819V25.6362C26.1819 25.9255 26.2968 26.203 26.5014 26.4076C26.706 26.6122 26.9834 26.7271 27.2728 26.7271C27.5621 26.7271 27.8396 26.6122 28.0442 26.4076C28.2487 26.203 28.3637 25.9255 28.3637 25.6362V23.9998H31.091V25.6362C31.091 25.9255 31.2059 26.203 31.4105 26.4076C31.6151 26.6122 31.8925 26.7271 32.1819 26.7271C32.4712 26.7271 32.7487 26.6122 32.9533 26.4076C33.1578 26.203 33.2728 25.9255 33.2728 25.6362V23.9562C33.9761 23.8531 34.6366 23.5557 35.1801 23.0976C35.7236 22.6394 36.1283 22.0387 36.3489 21.3629C36.5694 20.6872 36.5969 19.9633 36.4283 19.2728C36.2597 18.5822 35.9017 17.9525 35.3946 17.4544ZM34.3637 14.7271C34.3637 15.1611 34.1913 15.5773 33.8844 15.8842C33.5775 16.1911 33.1613 16.3635 32.7273 16.3635H28.3637V13.0907H32.7273C33.1613 13.0907 33.5775 13.2631 33.8844 13.57C34.1913 13.8769 34.3637 14.2931 34.3637 14.7271ZM32.7273 21.818H28.3637V18.5453H32.7273C33.1613 18.5453 33.5775 18.7177 33.8844 19.0246C34.1913 19.3314 34.3637 19.7476 34.3637 20.1816C34.3637 20.6156 34.1913 21.0318 33.8844 21.3387C33.5775 21.6456 33.1613 21.818 32.7273 21.818Z" fill="white"/>
</g>
<defs>
<clipPath id="clip0_1_4734">
<rect width="60" height="60" fill="white"/>
</clipPath>
</defs>
</svg>
