<svg width="61" height="60" viewBox="0 0 61 60" fill="none" xmlns="http://www.w3.org/2000/svg">
<path d="M30.4999 57.2723C45.5622 57.2723 57.7726 45.0618 57.7726 29.9995C57.7726 14.9372 45.5622 2.72681 30.4999 2.72681C15.4376 2.72681 3.22717 14.9372 3.22717 29.9995C3.22717 45.0618 15.4376 57.2723 30.4999 57.2723Z" fill="#E7EFFF" fill-opacity="0.08"/>
<path d="M2.68177 7.63576C3.58551 7.63576 4.31814 6.90314 4.31814 5.9994C4.31814 5.09566 3.58551 4.36304 2.68177 4.36304C1.77804 4.36304 1.04541 5.09566 1.04541 5.9994C1.04541 6.90314 1.77804 7.63576 2.68177 7.63576Z" fill="#03FFCF"/>
<path d="M56.1364 3.81765C57.0401 3.81765 57.7727 3.08502 57.7727 2.18129C57.7727 1.27755 57.0401 0.544922 56.1364 0.544922C55.2326 0.544922 54.5 1.27755 54.5 2.18129C54.5 3.08502 55.2326 3.81765 56.1364 3.81765Z" fill="#03FFCF"/>
<path d="M58.3181 55.6358C59.2219 55.6358 59.9545 54.9031 59.9545 53.9994C59.9545 53.0957 59.2219 52.363 58.3181 52.363C57.4144 52.363 56.6818 53.0957 56.6818 53.9994C56.6818 54.9031 57.4144 55.6358 58.3181 55.6358Z" fill="#FF4D69"/>
<path d="M8.13636 59.4544C9.0401 59.4544 9.77273 58.7217 9.77273 57.818C9.77273 56.9143 9.0401 56.1816 8.13636 56.1816C7.23262 56.1816 6.5 56.9143 6.5 57.818C6.5 58.7217 7.23262 59.4544 8.13636 59.4544Z" fill="#03FFCF"/>
<path d="M54.4999 33.2722C54.5003 33.4746 54.4444 33.6731 54.3384 33.8455C54.2325 34.0179 54.0806 34.1575 53.8999 34.2485L53.7254 34.3304C53.2362 34.5766 52.8057 34.9252 52.4631 35.3525C52.1205 35.7797 51.8739 36.2757 51.7399 36.8067C51.6808 37.0426 51.5446 37.252 51.3528 37.4016C51.1611 37.5512 50.9249 37.6324 50.6817 37.6324C50.4385 37.6324 50.2023 37.5512 50.0106 37.4016C49.8189 37.252 49.6827 37.0426 49.6235 36.8067C49.4873 36.2808 49.2395 35.7903 48.8969 35.3687C48.5543 34.947 48.125 34.6041 47.6381 34.3631L47.4635 34.2758C47.282 34.1853 47.1293 34.046 47.0225 33.8736C46.9158 33.7011 46.8593 33.5023 46.8593 33.2995C46.8593 33.0966 46.9158 32.8978 47.0225 32.7253C47.1293 32.5529 47.282 32.4136 47.4635 32.3231L47.6381 32.2413C48.1273 31.995 48.5578 31.6465 48.9003 31.2192C49.2429 30.7919 49.4896 30.2959 49.6235 29.7649C49.6827 29.529 49.8189 29.3197 50.0106 29.1701C50.2023 29.0205 50.4385 28.9392 50.6817 28.9392C50.9249 28.9392 51.1611 29.0205 51.3528 29.1701C51.5446 29.3197 51.6808 29.529 51.7399 29.7649C51.8726 30.2958 52.1188 30.7916 52.4616 31.2182C52.8043 31.6448 53.2355 31.9919 53.7254 32.2358L53.8999 32.3231C54.0766 32.412 54.2257 32.5473 54.3314 32.7145C54.4371 32.8817 54.4953 33.0745 54.4999 33.2722Z" fill="#03FFCF"/>
<path d="M12.5 45.8173C12.5004 46.0197 12.4445 46.2182 12.3386 46.3907C12.2326 46.5631 12.0808 46.7026 11.9 46.7937L11.7255 46.8755C11.2363 47.1218 10.8058 47.4703 10.4632 47.8976C10.1207 48.3249 9.87402 48.8209 9.74003 49.3519C9.68091 49.5878 9.54467 49.7971 9.35295 49.9467C9.16124 50.0963 8.92503 50.1776 8.68185 50.1776C8.43867 50.1776 8.20246 50.0963 8.01074 49.9467C7.81902 49.7971 7.68278 49.5878 7.62367 49.3519C7.48746 48.826 7.23964 48.3355 6.89705 47.9139C6.55446 47.4922 6.12513 47.1492 5.63821 46.9083L5.46367 46.821C5.28213 46.7305 5.12942 46.5912 5.02267 46.4187C4.91592 46.2463 4.85938 46.0475 4.85938 45.8446C4.85937 45.6418 4.91592 45.443 5.02267 45.2705C5.12942 45.098 5.28213 44.9587 5.46367 44.8683L5.63821 44.7864C6.12739 44.5402 6.55788 44.1916 6.90045 43.7643C7.24303 43.3371 7.48968 42.8411 7.62367 42.3101C7.68278 42.0742 7.81902 41.8648 8.01074 41.7152C8.20246 41.5656 8.43867 41.4844 8.68185 41.4844C8.92503 41.4844 9.16124 41.5656 9.35295 41.7152C9.54467 41.8648 9.68091 42.0742 9.74003 42.3101C9.87271 42.841 10.1189 43.3368 10.4617 43.7634C10.8044 44.1899 11.2356 44.5371 11.7255 44.781L11.9 44.8683C12.0767 44.9572 12.2258 45.0925 12.3315 45.2597C12.4372 45.4269 12.4954 45.6196 12.5 45.8173Z" fill="#03FFCF"/>
<path d="M45.7725 7.40182V27.9764C45.7727 28.5847 45.6033 29.181 45.2835 29.6984C44.9636 30.2157 44.5058 30.6338 43.9616 30.9055L30.4998 37.6364L17.038 30.9055C16.4937 30.6338 16.036 30.2157 15.7161 29.6984C15.3962 29.181 15.2269 28.5847 15.2271 27.9764V7.40182C15.9725 6.9 16.7452 6.43273 17.5452 6H43.4543C44.2507 6.42909 45.0234 6.89636 45.7725 7.40182Z" fill="#4879FD"/>
<path d="M25.5908 6H35.409V37.6364H25.5908V6Z" fill="#2155DF"/>
<path d="M30.4998 59.4537C38.9347 59.4537 45.7725 52.6158 45.7725 44.1809C45.7725 35.746 38.9347 28.9082 30.4998 28.9082C22.0649 28.9082 15.2271 35.746 15.2271 44.1809C15.2271 52.6158 22.0649 59.4537 30.4998 59.4537Z" fill="#03FFCF"/>
<path d="M43.4545 5.99943H17.5454C21.5254 3.85111 25.9772 2.72632 30.5 2.72632C35.0227 2.72632 39.4745 3.85111 43.4545 5.99943Z" fill="#7097FF"/>
<path d="M40.3182 41.099L38.6818 50.3717C38.6365 50.6268 38.5018 50.8575 38.3019 51.0224C38.102 51.1873 37.85 51.2757 37.5909 51.2717H23.4091C23.15 51.2757 22.8979 51.1873 22.698 51.0224C22.4981 50.8575 22.3635 50.6268 22.3182 50.3717L20.6818 41.099C20.6427 40.8815 20.6705 40.6572 20.7616 40.4559C20.8527 40.2546 21.0028 40.0857 21.192 39.9716C21.3813 39.8575 21.6007 39.8035 21.8213 39.8168C22.0418 39.8302 22.2531 39.9102 22.4273 40.0462L26.3654 43.0899L29.5563 37.6353C29.6522 37.47 29.7899 37.3328 29.9555 37.2374C30.1211 37.142 30.3089 37.0918 30.5 37.0918C30.6911 37.0918 30.8789 37.142 31.0445 37.2374C31.2101 37.3328 31.3477 37.47 31.4436 37.6353L34.6345 43.0899L38.5563 40.0353C38.7306 39.8917 38.9452 39.8058 39.1705 39.7893C39.3957 39.7728 39.6205 39.8267 39.8138 39.9434C40.0072 40.0601 40.1595 40.2339 40.2498 40.4409C40.3402 40.6479 40.364 40.8778 40.3182 41.099Z" fill="white"/>
</svg>
