<svg width="60" height="60" viewBox="0 0 60 60" fill="none" xmlns="http://www.w3.org/2000/svg">
<g clip-path="url(#clip0_1_4795)">
<path d="M27.8183 57.2723C42.8806 57.2723 55.091 45.0618 55.091 29.9995C55.091 14.9372 42.8806 2.72681 27.8183 2.72681C12.7559 2.72681 0.545532 14.9372 0.545532 29.9995C0.545532 45.0618 12.7559 57.2723 27.8183 57.2723Z" fill="#E7EFFF" fill-opacity="0.08"/>
<path d="M44.1819 19.0898V47.4535C44.1819 48.0321 43.952 48.5871 43.5429 48.9963C43.1337 49.4054 42.5787 49.6353 42.0001 49.6353H8.9019C4.8875 45.7759 2.15236 40.779 1.06495 35.3175C-0.022467 29.856 0.590083 24.1925 2.82008 19.0898H44.1819Z" fill="#2155DF"/>
<path d="M5.4546 3.81765C6.35834 3.81765 7.09096 3.08502 7.09096 2.18129C7.09096 1.27755 6.35834 0.544922 5.4546 0.544922C4.55086 0.544922 3.81824 1.27755 3.81824 2.18129C3.81824 3.08502 4.55086 3.81765 5.4546 3.81765Z" fill="#03FFCF"/>
<path d="M57.8185 4.90945C58.7222 4.90945 59.4549 4.17682 59.4549 3.27308C59.4549 2.36934 58.7222 1.63672 57.8185 1.63672C56.9148 1.63672 56.1821 2.36934 56.1821 3.27308C56.1821 4.17682 56.9148 4.90945 57.8185 4.90945Z" fill="#FF4D69"/>
<path d="M55.091 59.4544C55.9947 59.4544 56.7273 58.7217 56.7273 57.818C56.7273 56.9143 55.9947 56.1816 55.091 56.1816C54.1872 56.1816 53.4546 56.9143 53.4546 57.818C53.4546 58.7217 54.1872 59.4544 55.091 59.4544Z" fill="#03FFCF"/>
<path d="M2.18177 56.7259C3.08551 56.7259 3.81814 55.9932 3.81814 55.0895C3.81814 54.1857 3.08551 53.4531 2.18177 53.4531C1.27804 53.4531 0.54541 54.1857 0.54541 55.0895C0.54541 55.9932 1.27804 56.7259 2.18177 56.7259Z" fill="#03FFCF"/>
<path d="M48.0001 10.363H8.72735C7.52237 10.363 6.54553 11.3399 6.54553 12.5449V39.8176C6.54553 41.0226 7.52237 41.9994 8.72735 41.9994H48.0001C49.2051 41.9994 50.1819 41.0226 50.1819 39.8176V12.5449C50.1819 11.3399 49.2051 10.363 48.0001 10.363Z" fill="#4879FD"/>
<path d="M6.54553 14.7268H50.1819V21.2723H6.54553V14.7268Z" fill="#7097FF"/>
<path d="M58.2764 8.18207V13.1948C58.2779 15.9358 57.4161 18.6076 55.8133 20.8311C54.2105 23.0546 51.9482 24.7169 49.3473 25.5821C49.1237 25.6531 48.8836 25.6531 48.6601 25.5821C46.0592 24.7169 43.7969 23.0546 42.1941 20.8311C40.5913 18.6076 39.7295 15.9358 39.731 13.1948V8.18207C39.731 7.89274 39.8459 7.61526 40.0505 7.41068C40.2551 7.20609 40.5325 7.09116 40.8219 7.09116C43.3773 7.09083 45.8482 6.17561 47.7873 4.51116L48.2946 4.08025C48.4922 3.91124 48.7437 3.81836 49.0037 3.81836C49.2637 3.81836 49.5152 3.91124 49.7128 4.08025L50.2201 4.51116C52.1591 6.17561 54.63 7.09083 57.1855 7.09116C57.4748 7.09116 57.7523 7.20609 57.9569 7.41068C58.1615 7.61526 58.2764 7.89274 58.2764 8.18207Z" fill="#03FFCF"/>
<path d="M46.7563 18.3383L44.029 15.6111C43.7223 15.3015 43.5512 14.8828 43.5532 14.447C43.5553 14.0112 43.7304 13.5941 44.0399 13.2874C44.3495 12.9807 44.7682 12.8096 45.204 12.8116C45.6398 12.8137 46.0569 12.9888 46.3636 13.2983L47.9345 14.8692L51.6872 11.1165C51.837 10.9557 52.0177 10.8268 52.2184 10.7374C52.4191 10.6479 52.6358 10.5998 52.8555 10.596C53.0752 10.5921 53.2935 10.6325 53.4972 10.7148C53.701 10.7971 53.8861 10.9196 54.0415 11.075C54.1969 11.2304 54.3194 11.4155 54.4017 11.6192C54.484 11.823 54.5244 12.0412 54.5205 12.2609C54.5166 12.4806 54.4685 12.6973 54.3791 12.8981C54.2897 13.0988 54.1607 13.2794 53.9999 13.4292L49.0908 18.3383C48.9385 18.4934 48.7569 18.6165 48.5565 18.7006C48.356 18.7846 48.1409 18.8279 47.9236 18.8279C47.7062 18.8279 47.4911 18.7846 47.2907 18.7006C47.0903 18.6165 46.9086 18.4934 46.7563 18.3383Z" fill="white"/>
<path d="M17.4546 24.5449H10.9091C10.3067 24.5449 9.81824 25.0333 9.81824 25.6358V29.9995C9.81824 30.602 10.3067 31.0904 10.9091 31.0904H17.4546C18.0571 31.0904 18.5455 30.602 18.5455 29.9995V25.6358C18.5455 25.0333 18.0571 24.5449 17.4546 24.5449Z" fill="#03FFCF"/>
<path d="M12.0001 38.7267H10.9091C10.6198 38.7267 10.3423 38.6117 10.1378 38.4072C9.93317 38.2026 9.81824 37.9251 9.81824 37.6358V35.4539C9.81824 35.1646 9.93317 34.8871 10.1378 34.6826C10.3423 34.478 10.6198 34.363 10.9091 34.363H12.0001C12.2894 34.363 12.5669 34.478 12.7714 34.6826C12.976 34.8871 13.091 35.1646 13.091 35.4539V37.6358C13.091 37.9251 12.976 38.2026 12.7714 38.4072C12.5669 38.6117 12.2894 38.7267 12.0001 38.7267ZM10.9091 35.4539V37.6358H12.0001V35.4539H10.9091Z" fill="white"/>
<path d="M19.6364 38.7267H18.5455C18.2562 38.7267 17.9787 38.6117 17.7741 38.4072C17.5695 38.2026 17.4546 37.9251 17.4546 37.6358V35.4539C17.4546 35.1646 17.5695 34.8871 17.7741 34.6826C17.9787 34.478 18.2562 34.363 18.5455 34.363H19.6364C19.9257 34.363 20.2032 34.478 20.4078 34.6826C20.6124 34.8871 20.7273 35.1646 20.7273 35.4539V37.6358C20.7273 37.9251 20.6124 38.2026 20.4078 38.4072C20.2032 38.6117 19.9257 38.7267 19.6364 38.7267ZM18.5455 35.4539V37.6358H19.6364V35.4539H18.5455Z" fill="white"/>
<path d="M15.8182 38.7267C15.6736 38.7267 15.5348 38.6692 15.4326 38.5669C15.3303 38.4646 15.2728 38.3259 15.2728 38.1812V35.4539H14.7273C14.5827 35.4539 14.4439 35.3965 14.3416 35.2942C14.2394 35.1919 14.1819 35.0532 14.1819 34.9085C14.1819 34.7638 14.2394 34.6251 14.3416 34.5228C14.4439 34.4205 14.5827 34.363 14.7273 34.363H15.8182C15.9629 34.363 16.1017 34.4205 16.2039 34.5228C16.3062 34.6251 16.3637 34.7638 16.3637 34.9085V38.1812C16.3637 38.3259 16.3062 38.4646 16.2039 38.5669C16.1017 38.6692 15.9629 38.7267 15.8182 38.7267Z" fill="white"/>
<path d="M23.4546 38.7267C23.3099 38.7267 23.1712 38.6692 23.0689 38.5669C22.9666 38.4646 22.9091 38.3259 22.9091 38.1812V35.4539H22.3637C22.219 35.4539 22.0803 35.3965 21.978 35.2942C21.8757 35.1919 21.8182 35.0532 21.8182 34.9085C21.8182 34.7638 21.8757 34.6251 21.978 34.5228C22.0803 34.4205 22.219 34.363 22.3637 34.363H23.4546C23.5993 34.363 23.738 34.4205 23.8403 34.5228C23.9426 34.6251 24.0001 34.7638 24.0001 34.9085V38.1812C24.0001 38.3259 23.9426 38.4646 23.8403 38.5669C23.738 38.6692 23.5993 38.7267 23.4546 38.7267Z" fill="white"/>
<path d="M26.7273 38.7267C26.5826 38.7267 26.4439 38.6692 26.3416 38.5669C26.2393 38.4646 26.1819 38.3259 26.1819 38.1812V35.4539H25.6364C25.4917 35.4539 25.353 35.3965 25.2507 35.2942C25.1484 35.1919 25.0909 35.0532 25.0909 34.9085C25.0909 34.7638 25.1484 34.6251 25.2507 34.5228C25.353 34.4205 25.4917 34.363 25.6364 34.363H26.7273C26.872 34.363 27.0107 34.4205 27.113 34.5228C27.2153 34.6251 27.2728 34.7638 27.2728 34.9085V38.1812C27.2728 38.3259 27.2153 38.4646 27.113 38.5669C27.0107 38.6692 26.872 38.7267 26.7273 38.7267Z" fill="white"/>
<path d="M12.0001 24.5449V26.1813C12.0001 26.3259 11.9426 26.4647 11.8403 26.567C11.738 26.6693 11.5993 26.7267 11.4546 26.7267H9.81824V27.8176H12.0001C12.2894 27.8176 12.5669 27.7027 12.7714 27.4981C12.976 27.2935 13.091 27.0161 13.091 26.7267V24.5449H12.0001Z" fill="#4879FD"/>
<path d="M18.5457 28.9093H16.9093C16.7646 28.9093 16.6259 28.9667 16.5236 29.069C16.4213 29.1713 16.3639 29.3101 16.3639 29.4547V31.0911H15.2729V28.9093C15.2729 28.6199 15.3879 28.3425 15.5925 28.1379C15.7971 27.9333 16.0745 27.8184 16.3639 27.8184H18.5457V28.9093Z" fill="#4879FD"/>
<path d="M43.6365 38.1822H37.0911C36.2231 38.1822 35.3907 37.8374 34.7769 37.2236C34.1632 36.6099 33.8184 35.7774 33.8184 34.9094C33.8184 34.0415 34.1632 33.209 34.7769 32.5953C35.3907 31.9815 36.2231 31.6367 37.0911 31.6367H43.6365C44.5045 31.6367 45.337 31.9815 45.9507 32.5953C46.5645 33.209 46.9093 34.0415 46.9093 34.9094C46.9093 35.7774 46.5645 36.6099 45.9507 37.2236C45.337 37.8374 44.5045 38.1822 43.6365 38.1822Z" fill="#7097FF"/>
</g>
<defs>
<clipPath id="clip0_1_4795">
<rect width="60" height="60" fill="white"/>
</clipPath>
</defs>
</svg>
