<svg width="139" height="154" viewBox="0 0 139 154" fill="none" xmlns="http://www.w3.org/2000/svg">
<path d="M96.7026 153.223H98.4228V108.14L122.233 89.4673V36.0182L109.585 26.0456V0H107.865V26.6074L120.513 36.5807V88.9055L96.7026 107.578V153.223Z" fill="#33E6BF" fill-opacity="0.28"/>
<path d="M80.7529 153.223H82.4725V104.281L99.5336 90.8293V46.6663L102.548 44.2883V0H100.829V43.7271L97.8141 46.1038V90.2675L80.7529 103.719V153.223Z" fill="#33E6BF" fill-opacity="0.28"/>
<path d="M61.3647 153.223H63.085V88.8265L53.5918 81.3416V50.5719L58.4412 46.7474V0H56.7217V46.1862L51.8716 50.0107V81.9041L61.3647 89.3883V153.223Z" fill="#33E6BF" fill-opacity="0.28"/>
<path d="M46.9244 153.223H48.644V106.418L27.6296 89.8492V45.0053L16.137 35.9432V14.3608H14.4175V36.5057L25.9101 45.5671V90.411L26.1614 90.6099L46.9244 106.981V153.223Z" fill="#33E6BF" fill-opacity="0.28"/>
<path d="M40.2388 153.223H41.959V109.456L7.0277 81.9128L5.81006 82.8724L40.2388 110.018V153.223Z" fill="#33E6BF" fill-opacity="0.28"/>
<path d="M52.1241 50.7707L53.3417 49.8119L47.0771 44.8733V0H45.3569V45.4351L52.1241 50.7707Z" fill="#33E6BF" fill-opacity="0.28"/>
<path d="M62.8343 89.587L71.2168 82.9765V57.8591H69.4966V82.4154L61.6167 88.6282L62.8343 89.587Z" fill="#33E6BF" fill-opacity="0.28"/>
<path d="M98.065 46.8644L99.2827 45.9048L89.4681 38.1673V10.2578H87.7485V38.7298L98.065 46.8644Z" fill="#33E6BF" fill-opacity="0.28"/>
<path d="M121.982 36.7789L130.57 30.007V13.6772H128.85V29.4452L120.765 35.82L121.982 36.7789Z" fill="#33E6BF" fill-opacity="0.28"/>
<path d="M121.982 89.666L135.723 78.8701V64.2673H134.003V78.3089L120.765 88.7064L121.982 89.666Z" fill="#33E6BF" fill-opacity="0.28"/>
<path d="M26.1616 77.4932L27.3792 76.5337L8.40312 61.5727V40.7688H6.68359V62.1345L26.1616 77.4932Z" fill="#33E6BF" fill-opacity="0.28"/>
<path d="M27.3777 45.7661L32.7202 41.5547V0H30.9999V40.9922L26.1621 44.8065L27.3777 45.7661Z" fill="#33E6BF" fill-opacity="0.28"/>
<path d="M70.5781 153.223H72.2977V93.7835L84.0647 84.5062V49.7656L73.072 41.0992V0H71.3518V41.661L82.3445 50.3281V83.9437L70.5781 93.221V153.223Z" fill="#33E6BF" fill-opacity="0.28"/>
<path d="M130.57 61.4834C130.57 59.2511 132.46 57.4348 134.785 57.4348C137.109 57.4348 139 59.2511 139 61.4834C139 63.7157 137.109 65.5313 134.785 65.5313C132.461 65.5313 130.57 63.7157 130.57 61.4834ZM137.534 61.4834C137.534 60.0621 136.301 58.9058 134.785 58.9058C133.268 58.9058 132.035 60.0621 132.035 61.4834C132.035 62.9039 133.269 64.0603 134.785 64.0603C136.3 64.0603 137.534 62.9033 137.534 61.4834Z" fill="#33E6BF" fill-opacity="0.28"/>
<path d="M125.406 10.5927C125.406 8.36042 127.296 6.54419 129.62 6.54419C131.945 6.54419 133.836 8.36042 133.836 10.5927C133.836 12.8251 131.945 14.6406 129.62 14.6406C127.296 14.6406 125.406 12.8251 125.406 10.5927ZM132.37 10.5927C132.37 9.17149 131.137 8.01516 129.62 8.01516C128.105 8.01516 126.871 9.17149 126.871 10.5927C126.871 12.0133 128.105 13.1697 129.62 13.1697C131.136 13.169 132.37 12.0133 132.37 10.5927Z" fill="#33E6BF" fill-opacity="0.28"/>
<path d="M0 80.2527C0 78.0203 1.89047 76.2041 4.21473 76.2041C6.53899 76.2041 8.43012 78.0203 8.43012 80.2527C8.43012 82.485 6.53899 84.3005 4.21473 84.3005C1.89047 84.3012 0 82.4857 0 80.2527ZM6.96461 80.2527C6.96461 78.8314 5.73132 77.6751 4.21473 77.6751C2.69882 77.6751 1.46552 78.8314 1.46552 80.2527C1.46552 81.6732 2.69882 82.8296 4.21473 82.8296C5.73064 82.8296 6.96461 81.6732 6.96461 80.2527Z" fill="#33E6BF" fill-opacity="0.28"/>
<path d="M3.19092 37.5906C3.19092 35.3582 5.08138 33.542 7.40564 33.542C9.7299 33.542 11.6204 35.3582 11.6204 37.5906C11.6204 39.8229 9.7299 41.6384 7.40564 41.6384C5.08138 41.6391 3.19092 39.8236 3.19092 37.5906ZM10.1555 37.5906C10.1555 36.1693 8.92223 35.0136 7.40564 35.0136C5.88973 35.0136 4.65643 36.17 4.65643 37.5906C4.65643 39.0111 5.88973 40.1675 7.40564 40.1675C8.92155 40.1675 10.1555 39.0111 10.1555 37.5906Z" fill="#33E6BF" fill-opacity="0.28"/>
<path d="M11.1821 11.6469C11.1821 9.41462 13.0726 7.59839 15.3968 7.59839C17.7211 7.59839 19.6122 9.41462 19.6122 11.6469C19.6122 13.8793 17.7218 15.6948 15.3968 15.6948C13.0726 15.6948 11.1821 13.8793 11.1821 11.6469ZM18.1467 11.6469C18.1467 10.2257 16.9134 9.06934 15.3968 9.06934C13.8803 9.06934 12.6477 10.2257 12.6477 11.6469C12.6477 13.0675 13.8809 14.2238 15.3968 14.2238C16.9128 14.2238 18.1467 13.0675 18.1467 11.6469Z" fill="#33E6BF" fill-opacity="0.28"/>
<path d="M84.4316 7.62888C84.4316 5.39656 86.3221 3.58032 88.6464 3.58032C90.9706 3.58032 92.8618 5.39656 92.8618 7.62888C92.8618 9.86121 90.9713 11.6768 88.6464 11.6768C86.3228 11.6774 84.4316 9.86189 84.4316 7.62888ZM91.3962 7.62888C91.3962 6.20763 90.1629 5.05129 88.6464 5.05129C87.1298 5.05129 85.8972 6.20763 85.8972 7.62888C85.8972 9.04945 87.1304 10.2058 88.6464 10.2058C90.1623 10.2058 91.3962 9.04945 91.3962 7.62888Z" fill="#33E6BF" fill-opacity="0.28"/>
<path d="M66.1328 55.2754C66.1328 53.043 68.0233 51.2268 70.3475 51.2268C72.6718 51.2268 74.5629 53.043 74.5629 55.2754C74.5629 57.5077 72.6725 59.3232 70.3475 59.3232C68.0233 59.3239 66.1328 57.5084 66.1328 55.2754ZM73.0974 55.2754C73.0974 53.8541 71.8641 52.6978 70.3475 52.6978C68.8309 52.6978 67.5983 53.8541 67.5983 55.2754C67.5983 56.6959 68.8316 57.8523 70.3475 57.8523C71.8634 57.8523 73.0974 56.6959 73.0974 55.2754Z" fill="#33E6BF" fill-opacity="0.28"/>
<path d="M36.8356 115.522L18.8003 105.11V56.9539L36.8356 67.3666V115.522Z" fill="#0439C7"/>
<path d="M34.9324 111.984L20.7021 103.768V60.4919L34.9324 68.7077V111.984Z" fill="#042271"/>
<path d="M34.2582 110.441L21.3765 103.004V62.0344L34.2582 69.4717V110.441Z" fill="#0439C7"/>
<path d="M33.4054 72.8299L22.229 66.3773V64.8005L33.4054 71.2533V72.8299Z" fill="#042271"/>
<path d="M34.2582 89.9568L21.3765 82.5195V81.2405L34.2582 88.6777V89.9568Z" fill="#042271"/>
<path d="M34.2582 93.1313L21.3765 85.6941V84.415L34.2582 91.8523V93.1313Z" fill="#042271"/>
<path d="M34.2582 96.3057L21.3765 88.8684V87.5894L34.2582 95.0266V96.3057Z" fill="#042271"/>
<path d="M34.2582 109.013L21.3765 101.575V100.296L34.2582 107.734V109.013Z" fill="#042271"/>
<path d="M29.1246 98.4211C29.1246 99.864 28.5393 100.696 27.8174 100.279C27.0954 99.8618 26.5103 98.3545 26.5103 96.9116C26.5103 95.4686 27.0954 94.637 27.8174 95.0539C28.5393 95.471 29.1246 96.9784 29.1246 98.4211Z" fill="#042271"/>
<path d="M77.4023 43.9364L36.8119 67.3715L18.7764 56.9588L59.367 33.5239L77.4023 43.9364Z" fill="#4879FD"/>
<path d="M77.4268 92.0864L36.835 115.522V67.3665L77.4268 43.9309V92.0864Z" fill="#042271"/>
<path d="M48.553 102.456L47.2563 103.204V91.7768L48.553 91.0281V102.456Z" fill="#0439C7"/>
<path d="M52.2429 100.325L50.9463 101.074V89.6462L52.2429 88.8977V100.325Z" fill="#0439C7"/>
<path d="M55.9338 98.1948L54.6372 98.9436V87.5156L55.9338 86.7671V98.1948Z" fill="#0439C7"/>
<path d="M59.6247 96.064L58.3281 96.8125V85.3847L59.6247 84.6362V96.064Z" fill="#0439C7"/>
<path d="M63.3147 93.9334L62.0181 94.6819V83.2541L63.3147 82.5054V93.9334Z" fill="#0439C7"/>
<path d="M67.0056 91.8023L65.709 92.551V81.1233L67.0056 80.3748V91.8023Z" fill="#0439C7"/>
<path d="M57.9845 128.588L39.9492 118.176V70.0203L57.9845 80.433V128.588Z" fill="#0439C7"/>
<path d="M56.0823 125.05L41.8521 116.834V73.5581L56.0823 81.7739V125.05Z" fill="#042271"/>
<path d="M55.4076 123.508L42.5259 116.07V75.1008L55.4076 82.5381V123.508Z" fill="#0439C7"/>
<path d="M54.5558 85.8958L43.3794 79.443V77.8667L54.5558 84.3195V85.8958Z" fill="#042271"/>
<path d="M55.4076 103.023L42.5259 95.5855V94.3066L55.4076 101.744V103.023Z" fill="#042271"/>
<path d="M55.4076 106.198L42.5259 98.7603V97.4812L55.4076 104.918V106.198Z" fill="#042271"/>
<path d="M55.4076 109.372L42.5259 101.934V100.655L55.4076 108.093V109.372Z" fill="#042271"/>
<path d="M55.4076 122.079L42.5259 114.641V113.362L55.4076 120.8V122.079Z" fill="#042271"/>
<path d="M50.274 111.487C50.274 112.93 49.6889 113.762 48.9669 113.345C48.245 112.928 47.6597 111.421 47.6597 109.978C47.6597 108.535 48.245 107.704 48.9669 108.12C49.6889 108.537 50.274 110.044 50.274 111.487Z" fill="#042271"/>
<path d="M98.5522 57.0028L57.9615 80.4379L39.9263 70.0252L80.5169 46.5901L98.5522 57.0028Z" fill="#4879FD"/>
<path d="M98.5767 105.153L57.9849 128.589V80.4334L98.5767 56.9976V105.153Z" fill="#042271"/>
<path d="M69.7031 115.522L68.4062 116.271V104.843L69.7031 104.094V115.522Z" fill="#0439C7"/>
<path d="M73.3935 113.392L72.0967 114.14V102.712L73.3935 101.964V113.392Z" fill="#0439C7"/>
<path d="M77.0837 111.261L75.7871 112.01V100.582L77.0837 99.8333V111.261Z" fill="#0439C7"/>
<path d="M80.7737 109.13L79.4771 109.879V98.4511L80.7737 97.7024V109.13Z" fill="#0439C7"/>
<path d="M84.4648 107L83.168 107.748V96.3203L84.4648 95.5718V107Z" fill="#0439C7"/>
<path d="M88.1555 104.869L86.8589 105.617V94.1897L88.1555 93.4412V104.869Z" fill="#0439C7"/>
<path d="M79.1341 141.655L61.0991 131.242V83.0867L79.1341 93.4994V141.655Z" fill="#0439C7"/>
<path d="M77.232 138.116L63.0015 129.9V86.6245L77.232 94.8405V138.116Z" fill="#042271"/>
<path d="M76.5578 136.574L63.6763 129.137V88.1672L76.5578 95.6045V136.574Z" fill="#0439C7"/>
<path d="M75.705 98.9627L64.5288 92.5099V90.9333L75.705 97.3861V98.9627Z" fill="#042271"/>
<path d="M76.5578 116.089L63.6763 108.652V107.373L76.5578 114.81V116.089Z" fill="#042271"/>
<path d="M76.5578 119.264L63.6763 111.827V110.548L76.5578 117.985V119.264Z" fill="#042271"/>
<path d="M76.5578 122.438L63.6763 115.001V113.722L76.5578 121.159V122.438Z" fill="#042271"/>
<path d="M76.5578 135.145L63.6763 127.708V126.429L76.5578 133.866V135.145Z" fill="#042271"/>
<path d="M71.4244 124.554C71.4244 125.997 70.8391 126.828 70.1172 126.412C69.3952 125.995 68.8101 124.487 68.8101 123.045C68.8101 121.602 69.3952 120.77 70.1172 121.187C70.8391 121.604 71.4244 123.111 71.4244 124.554Z" fill="#042271"/>
<path d="M119.702 70.0693L79.1114 93.5043L61.0762 83.0916L101.667 59.6567L119.702 70.0693Z" fill="#4879FD"/>
<path d="M119.726 118.219L79.1338 141.655V93.4993L119.726 70.0637V118.219Z" fill="#042271"/>
<path d="M90.852 128.588L89.5557 129.337V117.909L90.852 117.16V128.588Z" fill="#0439C7"/>
<path d="M94.5432 126.457L93.2466 127.206V115.778L94.5432 115.03V126.457Z" fill="#0439C7"/>
<path d="M98.2331 124.327L96.9365 125.075V113.648L98.2331 112.899V124.327Z" fill="#0439C7"/>
<path d="M101.924 122.196L100.627 122.945V111.517L101.924 110.768V122.196Z" fill="#0439C7"/>
<path d="M105.614 120.066L104.317 120.814V109.386L105.614 108.638V120.066Z" fill="#0439C7"/>
<path d="M109.305 117.935L108.008 118.683V107.256L109.305 106.507V117.935Z" fill="#0439C7"/>
<path d="M21.9775 44.3802L25.0066 42.6199C36.4565 49.2303 45.9549 44.4679 46.455 44.2173L43.4259 45.9777C42.9261 46.2281 33.4276 50.9906 21.9775 44.3802Z" fill="#A6FBE8"/>
<path d="M64.8222 69.1193L64.5535 71.1178L60.0192 104.857L43.2354 111.4L35.8001 99.871L33.0709 95.6268L30.3095 91.3503L26.5595 85.5374L26.1193 81.5835L21.9824 44.3845C33.4258 50.9925 42.9242 46.2326 43.4293 45.9748C43.698 46.426 46.6101 51.2612 51.0581 56.6552C53.0354 59.062 55.3129 61.5764 57.8059 63.8541C59.0415 64.9825 60.3309 66.0568 61.6633 67.0348C62.6949 67.7977 63.7478 68.496 64.8222 69.1193Z" fill="#33E6BF"/>
<path d="M43.4226 49.9605C43.8578 50.6835 52.1257 64.4248 62.1523 70.2137L57.9441 101.493L43.2602 107.216L28.6568 84.5835L24.6514 48.5625C34.672 54.348 42.9851 50.1799 43.4226 49.9605Z" fill="#A6FBE8"/>
<path d="M43.4211 52.7161C43.8132 53.3681 51.2654 65.7534 60.3027 70.9708L56.5099 99.1636L43.2747 104.322L30.1121 83.9229L26.502 51.4563C35.5338 56.6708 43.0265 52.9139 43.4211 52.7161Z" fill="#33E6BF"/>
<path d="M43.4268 45.9777L46.4559 44.2173C46.953 45.0436 56.4003 60.7445 67.8569 67.359L64.8278 69.1193C53.3712 62.5046 43.9242 46.804 43.4268 45.9777Z" fill="#A6FBE8"/>
<path d="M64.827 69.119L67.8561 67.3586L63.0479 103.099L60.0186 104.859L64.827 69.119Z" fill="#A6FBE8"/>
<g opacity="0.3">
<path d="M57.8058 63.8546L30.3093 91.3509L26.5594 85.538L26.1191 81.584L51.058 56.6558C53.0351 59.0625 55.3128 61.5769 57.8058 63.8546Z" fill="white"/>
<path d="M64.8216 69.1197L64.553 71.1182L35.7998 99.8716L33.0703 95.6271L61.6625 67.0352C62.6943 67.7981 63.7473 68.4964 64.8216 69.1197Z" fill="white"/>
</g>
</svg>
