<svg width="56" height="56" viewBox="0 0 56 56" fill="none" xmlns="http://www.w3.org/2000/svg">
<g clip-path="url(#clip0_2486_700)">
<path d="M42.0559 24.0059C42.0547 23.9955 42.0539 23.985 42.0524 23.9747C42.0452 23.9235 42.0356 23.8725 42.0221 23.822C42.0219 23.8215 42.0217 23.821 42.0216 23.8204C42.0089 23.7733 41.9927 23.7268 41.9744 23.6808C41.9692 23.6676 41.9634 23.6549 41.9578 23.642C41.9434 23.6088 41.9273 23.5761 41.9099 23.5439C41.9023 23.5299 41.895 23.5158 41.8868 23.502C41.8824 23.4945 41.8789 23.4868 41.8743 23.4793C41.8559 23.4495 41.8357 23.4215 41.8153 23.3938C41.8115 23.3886 41.8084 23.3832 41.8045 23.3781C41.7734 23.337 41.7398 23.2989 41.7045 23.2628C41.698 23.256 41.6907 23.2496 41.6839 23.243C41.6533 23.213 41.6215 23.1849 41.5884 23.1584C41.58 23.1517 41.5717 23.145 41.563 23.1385C41.5187 23.1051 41.473 23.0739 41.4254 23.0469L23.0888 12.437L33.6464 5.66967L51.346 15.9108L43.8917 20.6888C43.31 21.0616 43.1354 21.8439 43.5017 22.436C43.8678 23.0282 44.6363 23.2059 45.218 22.833L54.4315 16.9274C54.8019 16.6901 55.0226 16.2721 55.0126 15.8266C55.0028 15.3812 54.764 14.974 54.3834 14.7538L34.2287 3.09191C33.83 2.86107 33.3388 2.87247 32.9504 3.12118L20.0117 11.4148C20.0091 11.4165 20.0064 11.4182 20.0038 11.4199L13.5383 15.5642C13.5353 15.5661 13.5323 15.568 13.5295 15.5699L0.58193 23.8693C0.211528 24.1066 -0.00914554 24.5246 0.000811508 24.97C0.0106441 25.4155 0.249489 25.8227 0.630097 26.0429L20.7849 37.7047C20.9758 37.8154 21.1879 37.8703 21.3999 37.8703C21.6305 37.8703 21.8608 37.8051 22.063 37.6755L31.2765 31.7697C31.8583 31.3969 32.0329 30.6146 31.6666 30.0225C31.3006 29.4304 30.5319 29.2525 29.9503 29.6255L21.3671 35.1271L3.66762 24.8858L14.2253 18.1183L33.1027 29.041V43.5074C33.1027 43.9688 33.349 44.3937 33.7458 44.6166C33.9333 44.7221 34.1404 44.7744 34.3473 44.7744C34.578 44.7744 34.8083 44.7091 35.0104 44.5795L41.4842 40.4299C41.8462 40.1979 42.0657 39.7931 42.0657 39.3577V24.1542C42.0657 24.1468 42.0645 24.1397 42.0642 24.1322C42.0635 24.0901 42.0608 24.0481 42.0559 24.0059ZM35.5919 41.2126V28.304C35.5919 27.8483 35.3515 27.4278 34.9623 27.2027L16.615 16.5867L20.699 13.9688L38.3984 24.21L36.8487 25.2033C36.267 25.576 36.0924 26.3584 36.4587 26.9504C36.6952 27.333 37.0995 27.5425 37.5131 27.5425C37.7397 27.5425 37.9692 27.4795 38.175 27.3475L39.5764 26.4493V38.6585L35.5919 41.2126Z" fill="#33E6BF"/>
<path d="M53.1052 19.8508L43.8917 25.7565C43.31 26.1293 43.1353 26.9116 43.5016 27.5037C43.7381 27.8863 44.1425 28.0957 44.5561 28.0957C44.7826 28.0957 45.0121 28.0327 45.218 27.9007L54.4315 21.995C55.0132 21.6223 55.1879 20.84 54.8216 20.2479C54.4554 19.6557 53.6868 19.4778 53.1052 19.8508Z" fill="#0439C7"/>
<path d="M29.9499 34.6932L21.3668 40.1949L1.85987 28.9079C1.26269 28.5623 0.50247 28.7746 0.16281 29.3833C-0.176849 29.9915 0.0321241 30.765 0.629796 31.1108L20.7846 42.7726C20.9755 42.8832 21.1876 42.9382 21.3996 42.9382C21.6302 42.9382 21.8605 42.873 22.0627 42.7434L31.2762 36.8376C31.858 36.4648 32.0326 35.6825 31.6663 35.0904C31.3003 34.4981 30.5316 34.3202 29.9499 34.6932Z" fill="#0439C7"/>
<path d="M53.1052 24.9187L43.8917 30.8244C43.31 31.1972 43.1353 31.9795 43.5016 32.5716C43.7381 32.9542 44.1425 33.1636 44.5561 33.1636C44.7826 33.1636 45.0121 33.1006 45.218 32.9686L54.4315 27.0629C55.0132 26.6902 55.1879 25.9079 54.8216 25.3158C54.4554 24.7235 53.6868 24.5457 53.1052 24.9187Z" fill="#0439C7"/>
<path d="M29.9499 39.761L21.3668 45.2626L1.85987 33.9757C1.26269 33.63 0.50247 33.8424 0.16281 34.451C-0.176849 35.0593 0.0321241 35.8328 0.629796 36.1785L20.7846 47.8404C20.9755 47.951 21.1876 48.006 21.3996 48.006C21.6302 48.006 21.8605 47.9407 22.0627 47.8111L31.2762 41.9053C31.858 41.5326 32.0326 40.7502 31.6663 40.1582C31.3003 39.5657 30.5316 39.388 29.9499 39.761Z" fill="#0439C7"/>
<path d="M53.1052 29.9865L43.8917 35.8922C43.31 36.2649 43.1353 37.0473 43.5016 37.6393C43.7381 38.022 44.1425 38.2314 44.5561 38.2314C44.7826 38.2314 45.0121 38.1684 45.218 38.0364L54.4315 32.1307C55.0132 31.758 55.1879 30.9756 54.8216 30.3836C54.4554 29.7914 53.6868 29.6137 53.1052 29.9865Z" fill="#0439C7"/>
<path d="M29.9499 44.8289L21.3668 50.3305L1.85987 39.0435C1.26269 38.6979 0.50247 38.9103 0.16281 39.5189C-0.176849 40.1272 0.0321241 40.9006 0.629796 41.2464L20.7846 52.9083C20.9755 53.0189 21.1876 53.0739 21.3996 53.0739C21.6302 53.0739 21.8605 53.0086 22.0627 52.879L31.2762 46.9732C31.858 46.6004 32.0326 45.8181 31.6663 45.226C31.3003 44.6337 30.5316 44.4559 29.9499 44.8289Z" fill="#0439C7"/>
</g>
<defs>
<clipPath id="clip0_2486_700">
<rect width="55.0131" height="56" fill="white"/>
</clipPath>
</defs>
</svg>
