<svg width="240" height="120" viewBox="0 0 240 120" fill="none" xmlns="http://www.w3.org/2000/svg">
<g clip-path="url(#clip0_1_4937)">
<path d="M112.015 58.7077V86.6664H103.205V17.6251H126.562C132.482 17.6251 137.529 19.6125 141.66 23.5867C145.882 27.5609 147.992 32.4131 147.992 38.1433C147.992 44.0123 145.882 48.8645 141.66 52.7925C137.575 56.7204 132.528 58.6615 126.562 58.6615H112.015V58.7077ZM112.015 26.1282V50.2047H126.746C130.233 50.2047 133.17 49.0033 135.465 46.6463C137.805 44.2894 138.998 41.4245 138.998 38.1896C138.998 35.0008 137.805 32.1818 135.465 29.8253C133.17 27.3758 130.279 26.1744 126.746 26.1744H112.015V26.1282Z" fill="white"/>
<path d="M171.029 37.8693C177.545 37.8693 182.685 39.6253 186.447 43.1374C190.21 46.6494 192.092 51.4554 192.092 57.5557V86.6694H183.694V80.1074H183.327C179.702 85.5143 174.837 88.1946 168.78 88.1946C163.595 88.1946 159.281 86.6694 155.793 83.5732C152.306 80.4771 150.562 76.6412 150.562 72.0203C150.562 67.1218 152.398 63.2401 156.069 60.3748C159.74 57.4636 164.65 56.031 170.754 56.031C175.985 56.031 180.299 57.0015 183.648 58.9421V56.909C183.648 53.8128 182.455 51.225 180.023 49.0531C177.591 46.8812 174.746 45.8181 171.488 45.8181C166.577 45.8181 162.677 47.8975 159.832 52.103L152.076 47.2045C156.344 40.9654 162.677 37.8693 171.029 37.8693ZM159.648 72.1586C159.648 74.4693 160.612 76.4103 162.585 77.9351C164.513 79.4603 166.807 80.2458 169.423 80.2458C173.14 80.2458 176.444 78.8593 179.335 76.0865C182.226 73.3137 183.694 70.0787 183.694 66.3358C180.941 64.1639 177.132 63.0546 172.222 63.0546C168.643 63.0546 165.66 63.9326 163.274 65.6424C160.841 67.4447 159.648 69.6171 159.648 72.1586Z" fill="white"/>
<path d="M240 39.3947L210.631 107.419H201.545L212.466 83.6197L193.101 39.3947H202.692L216.642 73.3144H216.826L230.409 39.3947H240Z" fill="white"/>
<path d="M76.2361 44.7441H39.3047V59.9942L60.5742 59.9989C59.7117 65.073 56.9353 69.3984 52.6814 72.2822V72.285C52.6828 72.2841 52.6847 72.2831 52.6861 72.2822L52.3031 81.397L65.347 82.1716C65.3452 82.1731 65.3433 82.1749 65.3419 82.1764C72.7345 75.2863 76.9706 65.1009 76.9706 53.0673C76.9702 50.1741 76.7133 47.406 76.2361 44.7441Z" fill="#0085F7"/>
<path d="M52.6856 72.2884C52.6842 72.2893 52.6823 72.2903 52.6809 72.2912C49.1573 74.6831 44.6203 76.0822 39.3136 76.0822C29.0573 76.0822 20.3569 69.1228 17.2411 59.7417H17.2397C17.2401 59.7431 17.2406 59.745 17.2411 59.7464L6.35154 58.0098L4.18311 69.9484C10.6542 82.8769 23.9517 91.7482 39.314 91.7482C49.9298 91.7482 58.8487 88.2333 65.3419 82.1821C65.3437 82.1807 65.3456 82.1793 65.347 82.1774L52.6856 72.2884Z" fill="#00A94B"/>
<path d="M16.0106 52.1706C16.0106 49.5366 16.4466 46.9903 17.2406 44.5966L13.8403 34.3927H4.18031C1.50516 39.7396 0 45.7748 0 52.1706C0 58.5664 1.50984 64.6016 4.18031 69.9485L4.18219 69.9471L17.2406 59.7447C17.2402 59.7433 17.2397 59.7418 17.2392 59.74C16.4461 57.3481 16.0106 54.8032 16.0106 52.1706Z" fill="#FFBB00"/>
<path d="M39.3131 12.5879C23.954 12.5879 10.6509 21.4606 4.1803 34.391L17.2401 44.5948C20.3559 35.2138 29.0564 28.2543 39.3126 28.2543C45.1083 28.2543 50.2987 30.2648 54.3965 34.1927L65.6165 22.9032C58.8023 16.5111 49.9181 12.5879 39.3131 12.5879Z" fill="#FF4031"/>
</g>
<defs>
<clipPath id="clip0_1_4937">
<rect width="240" height="120" fill="white"/>
</clipPath>
</defs>
</svg>
