<svg width="183" height="150" viewBox="0 0 183 150" fill="none" xmlns="http://www.w3.org/2000/svg">
<path d="M176.63 36.5181H176.01C174.982 36.5181 174.149 36.9317 174.149 37.4412V43.9044C174.149 44.4146 173.315 44.8276 172.288 44.8276C170.061 44.8276 168.256 43.9321 168.256 42.8268V32.5166C168.256 32.1769 167.7 31.9012 167.015 31.9012C166.329 31.9012 165.774 32.1769 165.774 32.5166V62.3702C165.774 62.8804 164.94 63.2934 163.913 63.2934C162.371 63.2934 161.122 62.6736 161.122 61.9081V40.519C161.122 40.0088 160.289 39.5958 159.26 39.5958H158.02C156.992 39.5958 156.159 40.0094 156.159 40.519V50.0599C156.159 50.5701 155.326 50.983 154.298 50.983H153.367C152.339 50.983 151.506 50.5695 151.506 50.0599V34.5943C151.506 34.1272 150.742 33.7481 149.8 33.7481C148.857 33.7481 148.094 34.1272 148.094 34.5943V40.3651C148.094 41.8951 145.595 43.1351 142.511 43.1351C139.428 43.1351 136.928 41.8951 136.928 40.3651V37.4412C136.928 36.9311 136.095 36.5181 135.067 36.5181C134.039 36.5181 133.206 36.9317 133.206 37.4412V51.1369C133.206 51.6465 132.373 52.06 131.345 52.06H129.732C128.704 52.06 127.871 51.6465 127.871 51.1369V29.9004C127.871 29.3903 127.038 28.9773 126.01 28.9773H124.831C123.803 28.9773 122.97 29.3909 122.97 29.9004V40.0648C122.97 40.6864 121.455 40.9978 120.569 40.5584C120.22 40.3854 120.024 40.1503 120.024 39.9054V22.0138C120.024 21.2704 118.808 20.6672 117.31 20.6672C115.811 20.6672 114.596 21.2704 114.596 22.0138V51.4446C114.596 51.9542 113.763 52.3677 112.735 52.3677H110.874C109.846 52.3677 109.013 51.9542 109.013 51.4446V32.132C109.013 31.3245 107.694 30.6703 106.066 30.6703C104.438 30.6703 103.119 31.3245 103.119 32.132V62.3709C103.119 62.881 102.286 63.294 101.258 63.294H99.3966C98.3685 63.294 97.5355 62.8804 97.5355 62.3709V47.5207C97.5355 46.3735 95.661 45.443 93.3478 45.443C91.4423 45.443 89.8367 46.075 89.3298 46.9391V39.3497C89.3298 38.8395 88.4968 38.4265 87.4687 38.4265H86.8484C85.8203 38.4265 84.9873 38.8401 84.9873 39.3497V45.8129C84.9873 46.323 84.1544 46.736 83.1263 46.736C80.8995 46.736 79.094 45.8406 79.094 44.7353V34.4257C79.094 34.0853 78.5387 33.8102 77.8533 33.8102C77.1679 33.8102 76.6126 34.0859 76.6126 34.4257V64.2793C76.6126 64.7895 75.7796 65.2024 74.7515 65.2024C73.2094 65.2024 71.96 64.5821 71.96 63.8171V42.4274C71.96 41.9172 71.127 41.5043 70.0989 41.5043H68.8582C67.8301 41.5043 66.9971 41.9178 66.9971 42.4274V51.9683C66.9971 52.4785 66.1642 52.8915 65.1361 52.8915H64.2055C63.1774 52.8915 62.3445 52.4779 62.3445 51.9683V36.5027C62.3445 36.035 61.5806 35.6565 60.6389 35.6565C59.6965 35.6565 58.9326 36.0356 58.9326 36.5027V42.2736C58.9326 43.8035 56.4329 45.0436 53.3494 45.0436C50.2659 45.0436 47.7662 43.8035 47.7662 42.2736V39.3497C47.7662 38.8395 46.9333 38.4265 45.9052 38.4265C44.8771 38.4265 44.0441 38.8401 44.0441 39.3497V53.0453C44.0441 53.5555 43.2112 53.9685 42.1831 53.9685H40.5703C39.5422 53.9685 38.7093 53.5549 38.7093 53.0453V31.8095C38.7093 31.2993 37.8755 30.8864 36.8482 30.8864H35.6694C34.6413 30.8864 33.8083 31.2999 33.8083 31.8095V41.9738C33.8083 42.596 32.2932 42.9074 31.4071 42.4674C31.058 42.2945 30.8621 42.0594 30.8621 41.8144V23.9228C30.8621 23.1794 29.6467 22.5763 28.1482 22.5763C26.6497 22.5763 25.4344 23.1794 25.4344 23.9228V53.3537C25.4344 53.8638 24.6014 54.2768 23.5733 54.2768H21.7123C20.6842 54.2768 19.8512 53.8632 19.8512 53.3537V34.0404C19.8512 33.233 18.532 32.5788 16.905 32.5788C15.2779 32.5788 13.9579 33.2336 13.9579 34.0404V64.2793C13.9579 64.7895 13.1249 65.2024 12.0968 65.2024H10.2358C9.20769 65.2024 8.37473 64.7889 8.37473 64.2793V49.4291C8.37473 48.2819 6.50019 47.3514 4.18776 47.3514C1.87533 47.3514 0 48.2813 0 49.4291V75.6425V91.9789V128.272C0 128.782 0.832947 129.195 1.86105 129.195H2.48141C3.50951 129.195 4.34246 128.781 4.34246 128.272V121.809C4.34246 121.298 5.1762 120.885 6.20351 120.885C8.43026 120.885 10.2358 121.781 10.2358 122.886V133.196C10.2358 133.536 10.7911 133.812 11.4765 133.812C12.1619 133.812 12.7172 133.536 12.7172 133.196V103.343C12.7172 102.833 13.5509 102.42 14.5783 102.42C16.1204 102.42 17.3698 103.04 17.3698 103.805V125.195C17.3698 125.705 18.2028 126.118 19.2309 126.118H20.4716C21.4997 126.118 22.3326 125.705 22.3326 125.195V115.654C22.3326 115.144 23.1656 114.731 24.1937 114.731H25.1242C26.1523 114.731 26.9853 115.145 26.9853 115.654V131.12C26.9853 131.588 27.7492 131.966 28.6909 131.966C29.6333 131.966 30.3972 131.587 30.3972 131.12V125.349C30.3972 123.819 32.8969 122.579 35.9804 122.579C39.0639 122.579 41.5635 123.819 41.5635 125.349V128.273C41.5635 128.783 42.3965 129.196 43.4246 129.196C44.4527 129.196 45.2856 128.783 45.2856 128.273V114.577C45.2856 114.067 46.1186 113.654 47.1467 113.654H48.7595C49.7876 113.654 50.6205 114.068 50.6205 114.577V135.814C50.6205 136.324 51.4534 136.737 52.4815 136.737H53.6604C54.6885 136.737 55.5214 136.323 55.5214 135.814V125.649C55.5214 125.028 57.0366 124.716 57.9227 125.156C58.2718 125.329 58.4677 125.564 58.4677 125.809V143.7C58.4677 144.444 59.683 145.047 61.1815 145.047C62.6801 145.047 63.8954 144.444 63.8954 143.7V114.27C63.8954 113.759 64.7283 113.346 65.7564 113.346H67.6175C68.6456 113.346 69.4785 113.76 69.4785 114.27V133.582C69.4785 134.39 70.7978 135.044 72.4256 135.044C74.0534 135.044 75.3727 134.39 75.3727 133.582V103.343C75.3727 102.833 76.2056 102.42 77.2337 102.42H79.0948C80.1229 102.42 80.9558 102.834 80.9558 103.343V118.194C80.9558 119.341 82.8304 120.271 85.1428 120.271C87.0483 120.271 88.6539 119.639 89.1608 118.775V126.365C89.1608 126.875 89.9938 127.288 91.0219 127.288H91.6422C92.6703 127.288 93.5033 126.875 93.5033 126.365V119.902C93.5033 119.392 94.3362 118.979 95.3643 118.979C97.5911 118.979 99.3966 119.874 99.3966 120.98V131.29C99.3966 131.629 99.9519 131.905 100.637 131.905C101.323 131.905 101.878 131.629 101.878 131.29V101.436C101.878 100.926 102.711 100.513 103.739 100.513C105.281 100.513 106.531 101.133 106.531 101.898V123.289C106.531 123.799 107.364 124.212 108.392 124.212H109.632C110.66 124.212 111.493 123.798 111.493 123.289V113.748C111.493 113.238 112.326 112.825 113.355 112.825H114.285C115.313 112.825 116.146 113.238 116.146 113.748V129.213C116.146 129.68 116.91 130.06 117.852 130.06C118.794 130.06 119.558 129.68 119.558 129.213V123.442C119.558 121.913 122.058 120.672 125.141 120.672C128.225 120.672 130.724 121.913 130.724 123.442V126.366C130.724 126.877 131.557 127.29 132.585 127.29C133.613 127.29 134.446 126.876 134.446 126.366V112.671C134.446 112.161 135.279 111.748 136.307 111.748H137.92C138.948 111.748 139.781 112.161 139.781 112.671V133.907C139.781 134.417 140.615 134.83 141.642 134.83H142.821C143.849 134.83 144.682 134.417 144.682 133.907V123.743C144.682 123.121 146.197 122.81 147.084 123.249C147.433 123.422 147.629 123.657 147.629 123.902V141.794C147.629 142.537 148.844 143.14 150.342 143.14C151.841 143.14 153.056 142.537 153.056 141.794V112.363C153.056 111.853 153.889 111.44 154.917 111.44H156.778C157.806 111.44 158.639 111.853 158.639 112.363V131.676C158.639 132.483 159.959 133.137 161.586 133.137C163.213 133.137 164.533 132.482 164.533 131.676V101.437C164.533 100.927 165.366 100.514 166.394 100.514H168.255C169.283 100.514 170.116 100.927 170.116 101.437V116.287C170.116 117.434 171.99 118.365 174.303 118.365C176.615 118.365 178.491 117.435 178.491 116.287V90.0736V73.7341V37.4412C178.491 36.9311 177.658 36.5181 176.63 36.5181Z" fill="#0C264D"/>
<g clip-path="url(#clip0_2386_13783)">
<path d="M136.405 121.789L88.6816 149.18V70.9863L136.405 43.5946V121.789Z" fill="#0439C7"/>
<path d="M132.634 119.542L92.4517 142.605V73.2332L132.634 50.1704V119.542Z" fill="#0D1C44"/>
<path d="M88.6815 149.18L40.9585 121.789V43.5946L88.6815 70.9863V149.18Z" fill="#2155DF"/>
<path d="M84.9108 142.605L44.729 119.542V50.1704L84.9108 73.2332V142.605Z" fill="#152756"/>
<path d="M81.0943 133.826L48.5454 115.143V58.9494L81.0943 77.6314V133.826Z" fill="#0D1C44"/>
<path d="M79.4445 130.839L50.1958 114.051V61.9361L79.4445 78.7238V130.839Z" fill="#152756"/>
<path d="M61.6909 80.3708L60.5374 79.7086C59.9956 79.3979 59.5562 78.5631 59.5562 77.8448V76.8696C59.5562 76.151 59.9956 75.8208 60.5374 76.1321L61.6909 76.7939C62.2329 77.1052 62.672 77.9394 62.672 78.658V79.6332C62.672 80.3516 62.2329 80.6818 61.6909 80.3708Z" fill="#0D1C44"/>
<path d="M61.1993 79.0302L61.0287 78.9323C60.7245 78.7579 60.478 78.2897 60.478 77.8862C60.478 77.483 60.7245 77.2976 61.0287 77.4723L61.1993 77.5702C61.5035 77.7446 61.7501 78.2134 61.7501 78.6163C61.7501 79.0195 61.5035 79.2049 61.1993 79.0302Z" fill="#33E6BF"/>
<path d="M65.3968 82.498L64.2433 81.8362C63.7015 81.5249 63.2622 80.6904 63.2622 79.9721V78.9966C63.2622 78.2782 63.7015 77.9478 64.2433 78.259L65.3968 78.9209C65.9389 79.2322 66.3781 80.0667 66.3781 80.785V81.7605C66.3781 82.4785 65.9389 82.809 65.3968 82.498Z" fill="#0D1C44"/>
<path d="M64.9054 81.1574L64.7347 81.0595C64.4307 80.8851 64.1841 80.4166 64.1841 80.0134C64.1841 79.6099 64.4307 79.4245 64.7347 79.5992L64.9054 79.6971C65.2096 79.8718 65.456 80.3403 65.456 80.7435C65.456 81.1467 65.2096 81.3321 64.9054 81.1574Z" fill="#33E6BF"/>
<path d="M69.103 84.625L67.9494 83.9631C67.4074 83.6519 66.9683 82.8177 66.9683 82.0991V81.1236C66.9683 80.4055 67.4074 80.0753 67.9494 80.3863L69.103 81.0482C69.6448 81.3592 70.0841 82.1939 70.0841 82.9123V83.8875C70.0841 84.6061 69.6448 84.9363 69.103 84.625Z" fill="#0D1C44"/>
<path d="M68.6114 83.2846L68.4408 83.1867C68.1367 83.012 67.8901 82.5435 67.8901 82.1403C67.8901 81.7374 68.1367 81.552 68.4408 81.7267L68.6114 81.8246C68.9156 81.9987 69.1622 82.4672 69.1622 82.8707C69.1622 83.2739 68.9156 83.4593 68.6114 83.2846Z" fill="#33E6BF"/>
<path d="M61.6909 85.0527L60.5374 84.3906C59.9956 84.0796 59.5562 83.2448 59.5562 82.5268V81.5513C59.5562 80.8329 59.9956 80.5028 60.5374 80.8137L61.6909 81.4756C62.2329 81.7869 62.672 82.6214 62.672 83.3397V84.3149C62.672 85.0332 62.2329 85.3637 61.6909 85.0527Z" fill="#0D1C44"/>
<path d="M61.1993 83.7121L61.0287 83.6143C60.7245 83.4396 60.478 82.971 60.478 82.5678C60.478 82.1649 60.7245 81.9796 61.0287 82.1543L61.1993 82.2518C61.5035 82.4265 61.7501 82.8951 61.7501 83.2983C61.7501 83.7012 61.5035 83.8868 61.1993 83.7121Z" fill="#33E6BF"/>
<path d="M65.3968 87.1795L64.2433 86.5176C63.7015 86.2064 63.2622 85.3722 63.2622 84.6535V83.678C63.2622 82.9597 63.7015 82.6295 64.2433 82.9408L65.3968 83.6027C65.9389 83.9139 66.3781 84.7481 66.3781 85.4667V86.4419C66.3781 87.1603 65.9389 87.4908 65.3968 87.1795Z" fill="#0D1C44"/>
<path d="M64.9054 85.8391L64.7347 85.7413C64.4307 85.5666 64.1841 85.0984 64.1841 84.6952C64.1841 84.2917 64.4307 84.1063 64.7347 84.281L64.9054 84.3789C65.2096 84.5536 65.456 85.0218 65.456 85.425C65.456 85.8285 65.2096 86.0136 64.9054 85.8391Z" fill="#33E6BF"/>
<path d="M69.103 89.3064L67.9494 88.6445C67.4074 88.3336 66.9683 87.4991 66.9683 86.7807V85.8052C66.9683 85.0869 67.4074 84.7567 67.9494 85.0677L69.103 85.7299C69.6448 86.0408 70.0841 86.8753 70.0841 87.5937V88.5692C70.0841 89.2875 69.6448 89.6177 69.103 89.3064Z" fill="#0D1C44"/>
<path d="M68.6114 87.9662L68.4408 87.8684C68.1367 87.694 67.8901 87.2254 67.8901 86.8222C67.8901 86.4193 68.1367 86.2337 68.4408 86.4081L68.6114 86.5059C68.9156 86.6806 69.1622 87.1492 69.1622 87.5527C69.1622 87.9556 68.9156 88.1409 68.6114 87.9662Z" fill="#33E6BF"/>
<path d="M61.6909 89.7339L60.5374 89.072C59.9956 88.761 59.5562 87.9266 59.5562 87.2079V86.233C59.5562 85.5144 59.9956 85.1842 60.5374 85.4955L61.6909 86.1574C62.2329 86.4686 62.672 87.3028 62.672 88.0211V88.9966C62.672 89.715 62.2329 90.0452 61.6909 89.7339Z" fill="#0D1C44"/>
<path d="M61.1993 88.3935L61.0287 88.2956C60.7245 88.1212 60.478 87.6527 60.478 87.2495C60.478 86.8463 60.7245 86.6609 61.0287 86.8356L61.1993 86.9335C61.5035 87.1082 61.7501 87.5767 61.7501 87.9796C61.7501 88.3828 61.5035 88.5682 61.1993 88.3935Z" fill="#33E6BF"/>
<path d="M65.3968 91.8613L64.2433 91.1991C63.7015 90.8881 63.2622 90.0533 63.2622 89.3353V88.3598C63.2622 87.6415 63.7015 87.3113 64.2433 87.6223L65.3968 88.2841C65.9389 88.5954 66.3781 89.4299 66.3781 90.1482V91.1237C66.3781 91.842 65.9389 92.1722 65.3968 91.8613Z" fill="#0D1C44"/>
<path d="M64.9054 90.5208L64.7347 90.423C64.4307 90.2486 64.1841 89.78 64.1841 89.3765C64.1841 88.9736 64.4307 88.788 64.7347 88.9627L64.9054 89.0608C65.2096 89.2352 65.456 89.7038 65.456 90.107C65.456 90.5099 65.2096 90.6952 64.9054 90.5208Z" fill="#33E6BF"/>
<path d="M69.103 93.9883L67.9494 93.3264C67.4074 93.0151 66.9683 92.1809 66.9683 91.4623V90.4868C66.9683 89.7688 67.4074 89.4383 67.9494 89.7496L69.103 90.4115C69.6448 90.7224 70.0841 91.5569 70.0841 92.2755V93.2507C70.0841 93.9694 69.6448 94.2996 69.103 93.9883Z" fill="#0D1C44"/>
<path d="M68.6114 92.6479L68.4408 92.55C68.1367 92.3753 67.8901 91.9068 67.8901 91.5039C67.8901 91.1004 68.1367 90.9153 68.4408 91.0897L68.6114 91.1876C68.9156 91.3623 69.1622 91.8305 69.1622 92.2337C69.1622 92.6372 68.9156 92.8226 68.6114 92.6479Z" fill="#33E6BF"/>
<path d="M65.3968 96.5429L64.2433 95.8807C63.7015 95.5698 63.2622 94.7353 63.2622 94.0172V93.0417C63.2622 92.3231 63.7015 91.9929 64.2433 92.3042L65.3968 92.9661C65.9389 93.2773 66.3781 94.1115 66.3781 94.8302V95.8054C66.3781 96.5237 65.9389 96.8539 65.3968 96.5429Z" fill="#0D1C44"/>
<path d="M64.9054 95.2023L64.7347 95.1045C64.4307 94.9303 64.1841 94.4618 64.1841 94.0583C64.1841 93.6551 64.4307 93.4698 64.7347 93.6445L64.9054 93.7423C65.2096 93.917 65.456 94.3852 65.456 94.7884C65.456 95.1917 65.2096 95.377 64.9054 95.2023Z" fill="#33E6BF"/>
<path d="M136.404 43.5494L88.6808 16.158L40.9595 43.5486L88.6823 70.9399L136.404 43.5494Z" fill="#4879FD"/>
<path d="M128.863 43.5493L88.6807 20.4861L48.5 43.5484L88.6819 66.6118L128.863 43.5493Z" fill="#314D99"/>
<path d="M54.4614 108.673L57.048 107.178C57.6015 110.66 59.7736 114.4 62.5368 116.629L59.95 118.124C57.187 115.894 55.0148 112.154 54.4614 108.673Z" fill="#4879FD"/>
<path d="M56.3771 102.52L58.9638 101.026C58.017 101.573 57.3399 102.577 57.0575 103.966L54.4707 105.46C54.7532 104.072 55.4303 103.067 56.3771 102.52Z" fill="#4879FD"/>
<path d="M68.9629 118.103L66.3761 119.598C65.4158 120.153 64.1771 120.226 62.7856 119.751L65.3723 118.257C66.7637 118.732 68.0025 118.658 68.9629 118.103Z" fill="#4879FD"/>
<path d="M62.8035 113.461L65.3902 111.966L65.3723 118.257L62.7856 119.751L62.8035 113.461Z" fill="#4879FD"/>
<path d="M54.4707 105.46L57.0575 103.966L62.5641 107.127L59.9773 108.621L54.4707 105.46Z" fill="#4879FD"/>
<path d="M62.8125 110.248L65.3992 108.754L70.8824 111.901L68.2955 113.396L62.8125 110.248Z" fill="#4879FD"/>
<path d="M62.8303 103.985L65.4172 102.49L65.3992 108.754L62.8125 110.249L62.8303 103.985Z" fill="#4879FD"/>
<path d="M54.2485 98.8321L56.8351 97.3378C58.6648 96.2807 61.1974 96.4223 63.998 98.0301L61.4114 99.5247C58.6107 97.9169 56.0781 97.7753 54.2485 98.8321Z" fill="#4879FD"/>
<path d="M71.1066 121.757L68.5198 123.25C70.3272 122.207 71.4458 119.983 71.4548 116.818C71.4729 110.5 66.9885 102.725 61.4116 99.5246L63.9983 98.03C69.5752 101.231 74.0592 109.006 74.0414 115.323C74.0325 118.488 72.9138 120.712 71.1066 121.757Z" fill="#4879FD"/>
<path d="M62.8127 110.248L68.2957 113.395C67.7424 109.941 65.5936 106.214 62.8304 103.985L62.8127 110.248ZM59.9772 108.621L59.9951 102.358C57.2284 101.413 55.0418 102.651 54.4706 105.46L59.9772 108.621ZM62.7856 119.751C65.5523 120.696 67.7151 119.47 68.2868 116.608L62.8035 113.461L62.7856 119.751ZM59.9501 118.124L59.9681 111.833L54.4615 108.673C55.0149 112.154 57.1871 115.894 59.9501 118.124ZM61.4116 99.5245C66.9884 102.725 71.4728 110.5 71.4547 116.817C71.4366 123.188 66.9228 125.746 61.3458 122.545C55.7688 119.343 51.2845 111.622 51.3028 105.251C51.3208 98.9336 55.8345 96.3231 61.4116 99.5245Z" fill="#0439C7"/>
</g>
<g opacity="0.9" clip-path="url(#clip1_2386_13783)">
<path d="M27.8075 90.9258L17.6616 96.9087V85.213L27.8075 79.4366V90.9258Z" fill="#15D7AC"/>
<path d="M27.0055 90.371L18.4629 95.4526V85.6868L27.0055 80.8232V90.371Z" fill="#072E25"/>
<path d="M17.6615 96.8293L7.51562 91.2823V79.4364L17.6615 85.2129V96.8293Z" fill="#33E6BF"/>
<path d="M16.86 95.4031L8.31738 90.5296V80.8233L16.86 85.6869V95.4031Z" fill="#0C4A3D"/>
<path d="M27.8069 79.4269L17.6611 73.6505L7.51562 79.4267L17.6614 85.2031L27.8069 79.4269Z" fill="#A6FBE8"/>
<path d="M26.2041 79.427L17.6615 74.5633L9.11914 79.4268L17.6618 84.2905L26.2041 79.427Z" fill="#45B19A"/>
</g>
<g opacity="0.9" clip-path="url(#clip2_2386_13783)">
<path d="M35.6982 111.67L29.3101 115.337V108.168L35.6982 104.628V111.67Z" fill="#15D7AC"/>
<path d="M35.1931 111.33L29.8145 114.444V108.459L35.1931 105.478V111.33Z" fill="#072E25"/>
<path d="M29.31 115.288L22.9219 111.888V104.628L29.31 108.168V115.288Z" fill="#33E6BF"/>
<path d="M28.8054 114.414L23.4268 111.427V105.478L28.8054 108.459V114.414Z" fill="#0C4A3D"/>
<path d="M35.6979 104.622L29.3098 101.082L22.9219 104.622L29.31 108.162L35.6979 104.622Z" fill="#A6FBE8"/>
<path d="M34.6884 104.622L29.3097 101.641L23.9312 104.622L29.3098 107.603L34.6884 104.622Z" fill="#45B19A"/>
</g>
<g opacity="0.9" clip-path="url(#clip3_2386_13783)">
<path d="M59.3714 17.2751L49.2256 23.2581V11.5624L59.3714 5.78592V17.2751Z" fill="#15D7AC"/>
<path d="M58.5695 16.7204L50.0269 21.802V12.0362L58.5695 7.17262V16.7204Z" fill="#072E25"/>
<path d="M49.2254 23.1787L39.0796 17.6316V5.78581L49.2254 11.5623V23.1787Z" fill="#33E6BF"/>
<path d="M48.4239 21.7524L39.8813 16.8789V7.17269L48.4239 12.0363V21.7524Z" fill="#0C4A3D"/>
<path d="M59.3709 5.77626L49.2251 -0.000153542L39.0796 5.77608L49.2254 11.5525L59.3709 5.77626Z" fill="#A6FBE8"/>
<path d="M57.7681 5.77636L49.2255 0.912709L40.6831 5.77618L49.2257 10.6399L57.7681 5.77636Z" fill="#45B19A"/>
</g>
<g opacity="0.9" clip-path="url(#clip4_2386_13783)">
<path d="M157.447 70.8544L148.804 75.8723V66.063L157.447 61.2183V70.8544Z" fill="#15D7AC"/>
<path d="M156.764 70.3891L149.487 74.6511V66.4605L156.764 62.3813V70.3891Z" fill="#072E25"/>
<path d="M148.804 75.8059L140.162 71.1535V61.2183L148.804 66.0631V75.8059Z" fill="#33E6BF"/>
<path d="M148.122 74.6096L140.845 70.5222V62.3814L148.122 66.4606V74.6096Z" fill="#0C4A3D"/>
<path d="M157.447 61.2104L148.804 56.3656L140.162 61.2102L148.804 66.0549L157.447 61.2104Z" fill="#A6FBE8"/>
<path d="M156.081 61.2102L148.804 57.131L141.527 61.2101L148.804 65.2893L156.081 61.2102Z" fill="#45B19A"/>
</g>
<g opacity="0.9" clip-path="url(#clip5_2386_13783)">
<path d="M183 98.2088L170.224 105.543V91.2061L183 84.1253V98.2088Z" fill="#15D7AC"/>
<path d="M181.991 97.5288L171.233 103.758V91.7868L181.991 85.825V97.5288Z" fill="#072E25"/>
<path d="M170.224 105.446L157.448 98.6459V84.1252L170.224 91.2061V105.446Z" fill="#33E6BF"/>
<path d="M169.214 103.697L158.457 97.7231V85.8251L169.214 91.7869V103.697Z" fill="#0C4A3D"/>
<path d="M183 84.1136L170.224 77.0328L157.448 84.1133L170.224 91.1941L183 84.1136Z" fill="#A6FBE8"/>
<path d="M180.981 84.1135L170.224 78.1516L159.467 84.1132L170.224 90.0752L180.981 84.1135Z" fill="#45B19A"/>
</g>
<defs>
<clipPath id="clip0_2386_13783">
<rect width="95.4455" height="133.022" fill="white" transform="translate(40.9585 16.158)"/>
</clipPath>
<clipPath id="clip1_2386_13783">
<rect width="20.2916" height="23.2977" fill="white" transform="translate(7.51562 73.6506)"/>
</clipPath>
<clipPath id="clip2_2386_13783">
<rect width="12.7762" height="14.2792" fill="white" transform="translate(22.9219 101.082)"/>
</clipPath>
<clipPath id="clip3_2386_13783">
<rect width="20.2916" height="23.2977" fill="white" transform="translate(39.0796)"/>
</clipPath>
<clipPath id="clip4_2386_13783">
<rect width="17.2854" height="19.54" fill="white" transform="translate(140.162 56.3655)"/>
</clipPath>
<clipPath id="clip5_2386_13783">
<rect width="25.5523" height="28.5585" fill="white" transform="translate(157.448 77.0327)"/>
</clipPath>
</defs>
</svg>
