<svg width="203" height="130" viewBox="0 0 203 130" fill="none" xmlns="http://www.w3.org/2000/svg">
<path d="M81.6149 118.734C80.0212 118.734 78.5 118.413 77.3644 117.758L21.7268 85.6225C20.6112 84.978 19.9966 84.0808 19.9966 83.0965C19.9966 81.9164 20.8795 80.7289 22.4194 79.839L128.532 18.5501C131.417 16.8844 135.8 16.7042 138.305 18.1498L193.942 50.2852C195.058 50.9297 195.672 51.8269 195.672 52.8106C195.672 53.9914 194.789 55.1788 193.249 56.0688L87.1368 117.357C85.56 118.268 83.5355 118.734 81.6149 118.734ZM77.4847 117.55C79.9202 118.957 84.1972 118.778 87.0165 117.15L193.129 55.8608C194.593 55.0155 195.433 53.9037 195.433 52.8106C195.433 51.9164 194.861 51.0929 193.823 50.4932L138.184 18.3578C135.749 16.9509 131.472 17.1305 128.653 18.758L22.5397 80.047C21.076 80.8922 20.2365 82.004 20.2365 83.0965C20.2365 83.9913 20.8082 84.8148 21.8471 85.4145L77.4847 117.55Z" fill="#03FFCF"/>
<path d="M195.553 37.967L187.561 39.3437L138.245 10.8595C135.771 9.43079 131.45 9.60976 128.593 11.2597L34.2463 65.753L20.1184 68.1865L20.1172 73.1973L20.1238 73.1961C20.1172 74.1097 20.6599 74.9833 21.7876 75.6345L77.4252 107.77C79.8994 109.199 84.2205 109.02 87.0773 107.37L193.19 46.0807C194.728 45.1925 195.52 44.0595 195.545 42.9791L195.553 42.9779L195.553 37.967Z" fill="url(#paint0_linear_1_1910)"/>
<path d="M77.426 102.725L21.7884 70.5895C19.3142 69.1602 19.6248 66.6645 22.4816 65.0145L128.593 3.72564C131.45 2.0757 135.772 1.89674 138.245 3.32539L193.884 35.4608C196.358 36.8894 196.047 39.3858 193.19 41.0357L87.0781 102.325C84.2213 103.975 79.8996 104.154 77.426 102.725Z" fill="#081D3D"/>
<path d="M193.189 41.0356L87.0772 102.325C84.2205 103.974 79.8988 104.153 77.4252 102.725L21.7875 70.5894C20.7952 70.0162 20.2585 69.2707 20.1467 68.4781C19.9932 69.5071 20.5275 70.512 21.7875 71.2399L77.4252 103.375C79.8994 104.804 84.2205 104.625 87.0772 102.975L193.189 41.6861C194.9 40.6976 195.69 39.4068 195.523 38.2224C195.376 39.2133 194.591 40.2266 193.189 41.0356Z" fill="white"/>
<path opacity="0.51" d="M77.5349 101.48L23.8802 70.4815C21.4863 69.0987 21.7867 66.6834 24.551 65.0867L128.695 4.95071C131.459 3.35398 135.641 3.18046 138.035 4.56317L191.69 35.5619C194.084 36.9446 193.783 39.36 191.019 40.9567L86.8751 101.093C84.1108 102.689 79.9293 102.863 77.5349 101.48Z" fill="#0E3CB7"/>
<path opacity="0.8" d="M81.5902 101.198C80.0376 101.198 78.5546 100.885 77.448 100.246L23.7933 69.2471C22.6952 68.6128 22.0908 67.7271 22.0908 66.7537C22.0908 65.5905 22.9556 64.4236 24.4641 63.5524L128.609 3.41645C131.416 1.79553 135.684 1.62141 138.121 3.02891L191.776 34.0276C192.874 34.6619 193.478 35.5476 193.478 36.5204C193.478 37.6842 192.613 38.8511 191.104 39.7223L86.9611 99.8589C85.4279 100.745 83.4583 101.198 81.5902 101.198ZM77.6221 99.9465C79.9633 101.299 84.0759 101.125 86.7888 99.559L190.933 39.423C192.331 38.6153 193.133 37.5579 193.133 36.521C193.133 35.677 192.59 34.8983 191.604 34.3281L137.948 3.32939C135.606 1.97631 131.494 2.14922 128.781 3.71693L24.6369 63.8529C23.2385 64.66 22.4365 65.7181 22.4365 66.7543C22.4365 67.5995 22.9798 68.3783 23.9661 68.9478L77.6221 99.9465Z" fill="url(#paint1_linear_1_1910)"/>
<g opacity="0.3">
<path opacity="0.5" d="M77.5354 100.097L23.8806 69.0983C21.4868 67.7156 21.7872 65.3002 24.5515 63.7035L128.695 3.56754C131.46 1.9708 135.641 1.79728 138.036 3.17999L191.69 34.1787C194.084 35.5614 193.784 37.9768 191.02 39.5735L86.8756 99.7095C84.1113 101.306 79.9298 101.48 77.5354 100.097Z" fill="url(#paint2_radial_1_1910)"/>
<mask id="mask0_1_1910" style="mask-type:luminance" maskUnits="userSpaceOnUse" x="22" y="2" width="172" height="100">
<path d="M77.5359 100.098L23.8811 69.0988C21.4873 67.7161 21.7877 65.3007 24.552 63.704L128.696 3.56802C131.46 1.97129 135.642 1.79777 138.036 3.18048L191.691 34.1792C194.085 35.5619 193.784 37.9773 191.02 39.574L86.8761 99.71C84.1118 101.307 79.9303 101.48 77.5359 100.098Z" fill="white"/>
</mask>
<g mask="url(#mask0_1_1910)">
<path d="M156.003 69.8719L155.23 69.7703C155.147 69.7099 155.058 69.6518 154.962 69.5962L95.2593 35.1132C93.717 34.222 91.0222 34.3339 89.2411 35.3629L54.4119 55.4796C53.9477 55.748 53.5936 56.0521 53.3476 56.3707L52.9385 56.2504V57.4554L52.9415 57.456C52.9457 58.0182 53.2854 58.5545 53.9798 58.9554L113.682 93.4384C115.225 94.3296 117.919 94.2177 119.7 93.1887L154.53 73.072C155.525 72.4971 156.024 71.7576 156.001 71.0618H156.003V69.8719Z" fill="#A6FBE8"/>
<path d="M113.681 92.2306L53.9785 57.7476C52.4356 56.8564 52.6296 55.3002 54.4106 54.2718L89.2398 34.1551C91.0208 33.1261 93.7156 33.0149 95.2579 33.9054L154.96 68.3885C156.503 69.2796 156.309 70.8359 154.528 71.8643L119.699 91.9809C117.918 93.0093 115.223 93.1212 113.681 92.2306Z" fill="#03FFCF"/>
</g>
<mask id="mask1_1_1910" style="mask-type:luminance" maskUnits="userSpaceOnUse" x="22" y="2" width="172" height="100">
<path d="M77.5359 100.098L23.8811 69.0988C21.4873 67.7161 21.7877 65.3007 24.552 63.704L128.696 3.56802C131.46 1.97129 135.642 1.79777 138.036 3.18048L191.691 34.1792C194.085 35.5619 193.784 37.9773 191.02 39.574L86.8761 99.71C84.1118 101.307 79.9303 101.48 77.5359 100.098Z" fill="white"/>
</mask>
<g mask="url(#mask1_1_1910)">
<path d="M74.3132 60.8177L66.9419 56.5602C66.256 56.1642 66.3424 55.4719 67.1341 55.0148C67.9258 54.5572 69.1242 54.5076 69.8096 54.9042L77.1808 59.1618C77.8668 59.5578 77.7803 60.25 76.9886 60.7071C76.1969 61.1642 74.9991 61.2137 74.3132 60.8177Z" fill="white"/>
<path d="M87.915 68.6748L80.5437 64.4172C79.8578 64.0212 79.9436 63.3289 80.7359 62.8719C81.5276 62.4142 82.726 62.3646 83.4113 62.7606L90.7826 67.0182C91.4685 67.4142 91.3821 68.1065 90.5904 68.5635C89.7987 69.0206 88.6009 69.0708 87.915 68.6748Z" fill="white"/>
<path d="M101.517 76.5306L94.1453 72.2731C93.4593 71.877 93.5452 71.1848 94.3375 70.7277C95.1291 70.27 96.3276 70.2205 97.0129 70.6165L104.384 74.874C105.07 75.27 104.984 75.9623 104.192 76.4194C103.4 76.877 102.202 76.9266 101.517 76.5306Z" fill="white"/>
<path d="M115.12 84.3876L107.748 80.1301C107.062 79.734 107.148 79.0418 107.94 78.5847C108.732 78.1276 109.931 78.0775 110.616 78.4741L117.987 82.7316C118.673 83.1276 118.587 83.8199 117.795 84.277C117.003 84.734 115.805 84.7842 115.12 84.3876Z" fill="white"/>
</g>
</g>
<path opacity="0.4" d="M180.231 39.3239C179.412 39.7967 178.084 39.7967 177.265 39.3239C176.446 38.8511 176.446 38.0839 177.265 37.6111C178.084 37.1383 179.412 37.1383 180.231 37.6111C181.049 38.0839 181.049 38.8511 180.231 39.3239Z" fill="#081D3D"/>
<path opacity="0.4" d="M168.909 31.0724L174.715 34.4255C175.425 34.8354 175.335 35.5507 174.516 36.0235C173.698 36.4963 172.459 36.5476 171.749 36.1383L165.943 32.7853C165.234 32.3753 165.323 31.6601 166.142 31.1867C166.962 30.7139 168.2 30.6625 168.909 31.0724Z" fill="#081D3D"/>
<path opacity="0.4" d="M136.283 11.8259L142.088 15.179C142.798 15.5883 142.708 16.3041 141.889 16.7769C141.07 17.2497 139.831 17.3011 139.122 16.8918L133.316 13.5387C132.607 13.1288 132.696 12.4136 133.515 11.9402C134.334 11.468 135.573 11.4166 136.283 11.8259Z" fill="#081D3D"/>
<path d="M180.231 37.2414C179.412 37.7142 178.084 37.7142 177.265 37.2414C176.446 36.7686 176.446 36.0013 177.265 35.5285C178.084 35.0558 179.412 35.0558 180.231 35.5285C181.049 36.0013 181.049 36.7686 180.231 37.2414Z" fill="#03FFCF"/>
<path d="M168.909 28.9893L174.715 32.3424C175.425 32.7517 175.335 33.4675 174.516 33.9403C173.698 34.4131 172.459 34.4645 171.749 34.0552L165.943 30.7021C165.234 30.2922 165.323 29.577 166.142 29.1036C166.962 28.6308 168.2 28.5794 168.909 28.9893Z" fill="#03FFCF"/>
<path d="M136.283 9.74421L142.088 13.0973C142.798 13.5072 142.708 14.2224 141.889 14.6958C141.07 15.1686 139.831 15.22 139.122 14.8107L133.316 11.4576C132.607 11.0477 132.696 10.3325 133.515 9.85968C134.334 9.38568 135.573 9.3343 136.283 9.74421Z" fill="#03FFCF"/>
<g opacity="0.3">
<path d="M31.7851 120.979V118.269L31.0358 117.853C30.8242 119.132 29.32 119.974 28.0617 120.149L19.4957 125.16L15.7572 126.511L3.82492 120.35L4.1005 120.191C3.08036 119.715 2.531 118.625 1.97984 117.63L1.17666 118.11L0.699219 118.244V121.023C0.699219 121.554 1.04914 122.084 1.74897 122.489L13.7036 129.393C15.1033 130.202 17.3811 130.202 18.7802 129.393L30.7342 122.489C31.4225 122.091 31.7725 121.571 31.7833 121.049C31.7839 121.025 31.7827 121.002 31.7821 120.979L31.7851 120.979Z" fill="url(#paint3_linear_1_1910)"/>
<path opacity="0.3" d="M28.0625 120.149L19.4965 125.16L16.2427 126.335V129.999C17.1619 129.999 18.0811 129.797 18.7816 129.393L30.7356 122.488C31.4239 122.091 31.7738 121.571 31.7847 121.048C31.7853 121.025 31.7841 121.002 31.7835 120.978L31.7853 120.979V118.269L31.1006 117.888H31.0293C30.7954 119.147 29.3081 119.976 28.0625 120.149Z" fill="#02122B"/>
<path d="M13.7041 126.641L1.74946 119.736C0.349789 118.928 0.349789 117.612 1.74946 116.804L13.7035 109.899C15.1032 109.091 17.3804 109.091 18.78 109.899L30.7347 116.804C32.1343 117.612 32.1343 118.928 30.7347 119.736L18.7806 126.641C17.381 127.449 15.1038 127.449 13.7041 126.641Z" fill="url(#paint4_linear_1_1910)"/>
<g opacity="0.3">
<path d="M13.7041 126.641L1.74946 119.736C0.349789 118.928 0.349789 117.612 1.74946 116.804L13.7035 109.899C15.1032 109.091 17.3804 109.091 18.78 109.899L30.7347 116.804C32.1343 117.612 32.1343 118.928 30.7347 119.736L18.7806 126.641C17.381 127.449 15.1038 127.449 13.7041 126.641Z" fill="#02122B"/>
</g>
</g>
<path d="M16.2431 116.595C15.4267 116.595 14.6108 116.415 13.9901 116.057L2.03548 109.152C1.41421 108.793 1.07275 108.31 1.07275 107.79C1.07275 107.27 1.41482 106.787 2.03548 106.428L13.9895 99.523C15.2321 98.806 17.253 98.806 18.4955 99.523L30.4502 106.428C31.0708 106.787 31.4129 107.27 31.4129 107.79C31.4129 108.31 31.0714 108.794 30.4502 109.152L18.4962 116.057C17.8749 116.415 17.059 116.595 16.2431 116.595ZM16.2425 99.1917C15.4641 99.1917 14.6863 99.3622 14.0941 99.705L2.14003 106.61C1.58705 106.929 1.28246 107.348 1.28246 107.79C1.28246 108.231 1.58705 108.651 2.14064 108.97L14.0947 115.875C15.2792 116.56 17.2065 116.56 18.3916 115.875L30.3456 108.97C30.8986 108.651 31.2032 108.232 31.2032 107.79C31.2032 107.349 30.8986 106.929 30.3456 106.61L18.391 99.705C17.7987 99.3628 17.0209 99.1917 16.2425 99.1917Z" fill="#03FFCF"/>
<path opacity="0.4" d="M31.7851 105.14V101.044L31.0358 100.628C30.8242 101.906 29.32 102.749 28.0617 102.924L19.4957 107.935L15.7572 109.285L3.82492 103.125L4.1005 102.966C3.08036 102.49 2.531 101.4 1.97984 100.405L1.17666 100.884L0.699219 101.019V105.183C0.699219 105.714 1.04914 106.245 1.74897 106.649L13.7036 113.554C15.1033 114.362 17.3811 114.362 18.7802 113.554L30.7342 106.649C31.4225 106.251 31.7725 105.732 31.7833 105.209C31.7839 105.186 31.7827 105.163 31.7821 105.139L31.7851 105.14Z" fill="#03FFCF"/>
<path d="M31.7851 101.499V98.7896L31.0358 98.373C30.8242 99.6517 29.32 100.495 28.0617 100.669L19.4957 105.68L15.7572 107.031L3.82492 100.871L4.1005 100.712C3.08036 100.235 2.531 99.1451 1.97984 98.1505L1.17666 98.63L0.699219 98.7642V101.543C0.699219 102.074 1.04914 102.605 1.74897 103.009L13.7036 109.913C15.1033 110.722 17.3811 110.722 18.7802 109.913L30.7342 103.009C31.4225 102.611 31.7725 102.091 31.7833 101.569C31.7839 101.545 31.7827 101.522 31.7821 101.499L31.7851 101.499Z" fill="url(#paint5_linear_1_1910)"/>
<path opacity="0.3" d="M28.0625 100.669L19.4965 105.68L16.2427 106.855V110.519C17.1619 110.519 18.0811 110.317 18.7816 109.912L30.7356 103.008C31.4239 102.61 31.7738 102.09 31.7847 101.568C31.7853 101.544 31.7841 101.521 31.7835 101.498L31.7853 101.498V98.7885L31.1006 98.4076H31.0293C30.7954 99.667 29.3087 100.495 28.0625 100.669Z" fill="#02122B"/>
<path d="M13.7046 107.16L1.74995 100.255C0.350277 99.4466 0.350277 98.131 1.74995 97.3226L13.704 90.4181C15.1037 89.6098 17.3808 89.6098 18.7805 90.4181L30.7352 97.3232C32.1348 98.1316 32.1348 99.4471 30.7352 100.255L18.7811 107.16C17.3814 107.969 15.1043 107.968 13.7046 107.16Z" fill="url(#paint6_linear_1_1910)"/>
<path d="M16.2429 105.906C15.5056 105.906 14.7689 105.744 14.2068 105.42L4.8678 100.025C4.30515 99.7 3.99512 99.2605 3.99512 98.7883C3.99512 98.3167 4.30515 97.8772 4.8678 97.5519L14.2074 92.1577C15.3297 91.5096 17.1554 91.5096 18.2783 92.1577L27.6179 97.5525C28.1806 97.8772 28.4906 98.3167 28.4906 98.7883C28.4912 99.2605 28.1812 99.7 27.6179 100.025L18.2783 105.42C17.7169 105.744 16.9796 105.906 16.2429 105.906ZM16.2423 91.8784C15.543 91.8784 14.8438 92.0326 14.312 92.3403L4.97235 97.7345C4.47739 98.0205 4.20422 98.3953 4.20422 98.7889C4.20422 99.1831 4.47739 99.558 4.97235 99.8439L14.312 105.238C15.3762 105.853 17.1089 105.853 18.1738 105.238L27.5134 99.8439C28.0083 99.558 28.2815 99.1831 28.2815 98.7889C28.2809 98.3953 28.0083 98.0211 27.5134 97.7351L18.1738 92.3403C17.6407 92.0326 16.9415 91.8784 16.2423 91.8784Z" fill="#0439C7"/>
<path d="M30.7358 100.256L18.7818 107.16C17.3821 107.969 15.1049 107.969 13.7052 107.16L1.75058 100.255C1.12508 99.8937 0.779995 99.4312 0.713516 98.9578C0.631325 99.5436 0.97641 100.146 1.75058 100.593L13.7052 107.497C15.1049 108.305 17.3827 108.305 18.7818 107.497L30.7358 100.593C31.51 100.145 31.855 99.5436 31.7729 98.9578C31.707 99.4324 31.3613 99.8949 30.7358 100.256Z" fill="white"/>
<g opacity="0.3">
<path d="M46.8511 40.166V37.4562L46.1017 37.0396C45.8901 38.3184 44.3859 39.1612 43.1277 39.3365L34.5616 44.3474L30.8231 45.698L18.8908 39.5378L19.1664 39.3788C18.1469 38.9024 17.5975 37.8123 17.0458 36.8177L16.2426 37.2972L15.7651 37.4314V40.2101C15.7651 40.741 16.1151 41.2718 16.8149 41.6763L28.7695 48.5807C30.1692 49.3891 32.447 49.3891 33.8467 48.5807L45.8007 41.6763C46.4891 41.2785 46.839 40.7585 46.8505 40.2361C46.8511 40.2125 46.8498 40.1896 46.8492 40.166H46.8511Z" fill="url(#paint7_linear_1_1910)"/>
<path opacity="0.3" d="M43.128 39.336L34.5619 44.3469L31.3081 45.5222V49.1861C32.2273 49.1861 33.1465 48.9841 33.847 48.5797L45.801 41.6752C46.4894 41.2774 46.8393 40.7574 46.8508 40.235C46.8514 40.2115 46.8502 40.1885 46.8496 40.1649L46.8514 40.1655V37.4557L46.1666 37.0748H46.0953C45.8615 38.3342 44.3741 39.1625 43.128 39.336Z" fill="#02122B"/>
<path d="M28.7705 45.8267L16.8159 38.9223C15.4162 38.1139 15.4162 36.7983 16.8159 35.99L28.7699 29.0855C30.1696 28.2772 32.4468 28.2772 33.847 29.0855L45.8017 35.99C47.2013 36.7983 47.2013 38.1139 45.8017 38.9223L33.8476 45.8267C32.4474 46.6357 30.1702 46.6357 28.7705 45.8267Z" fill="url(#paint8_linear_1_1910)"/>
<g opacity="0.3">
<path d="M28.7705 45.8267L16.8159 38.9223C15.4162 38.1139 15.4162 36.7983 16.8159 35.99L28.7699 29.0855C30.1696 28.2772 32.4468 28.2772 33.847 29.0855L45.8017 35.99C47.2013 36.7983 47.2013 38.1139 45.8017 38.9223L33.8476 45.8267C32.4474 46.6357 30.1702 46.6357 28.7705 45.8267Z" fill="#02122B"/>
</g>
</g>
<path d="M31.3086 37.1236C30.4921 37.1236 29.6762 36.9441 29.0549 36.5849L17.1009 29.6805C16.4802 29.3219 16.1382 28.8377 16.1382 28.3183C16.1382 27.799 16.4796 27.3147 17.1009 26.9562L29.0549 20.0517C30.2975 19.3347 32.3184 19.3347 33.561 20.0517L45.5156 26.9562C46.1363 27.3147 46.4783 27.7984 46.4783 28.3183C46.4783 28.8377 46.1363 29.3219 45.5156 29.6805L33.5616 36.5849C32.9409 36.9447 32.1244 37.1236 31.3086 37.1236ZM31.308 19.721C30.5296 19.721 29.7518 19.8915 29.1595 20.2343L17.2055 27.1388C16.6525 27.458 16.3479 27.8776 16.3479 28.3189C16.3479 28.7603 16.6525 29.1799 17.2055 29.4991L29.1601 36.4036C30.3446 37.0886 32.2719 37.088 33.457 36.4036L45.4111 29.4991C45.964 29.1799 46.2686 28.7603 46.2686 28.3189C46.2686 27.8776 45.964 27.458 45.4111 27.1388L33.4564 20.2343C32.8642 19.8915 32.0864 19.721 31.308 19.721Z" fill="#03FFCF"/>
<path opacity="0.4" d="M46.8501 25.6687V21.5731L46.1007 21.1566C45.8892 22.4353 44.3849 23.2781 43.1267 23.4534L34.5606 28.4643L30.8221 29.815L18.8899 23.6548L19.1654 23.4958C18.1459 23.0193 17.5965 21.9292 17.0448 20.9347L16.2416 21.4141L15.7642 21.5484V25.7128C15.7642 26.2436 16.1141 26.7745 16.8139 27.1789L28.7686 34.0834C30.1682 34.8917 32.446 34.8917 33.8457 34.0834L45.7997 27.1789C46.4881 26.7811 46.838 26.2612 46.8495 25.7388C46.8501 25.7152 46.8489 25.6922 46.8483 25.6687H46.8501Z" fill="#03FFCF"/>
<path d="M46.8501 22.0284V19.3186L46.1007 18.9021C45.8892 20.1808 44.3849 21.0236 43.1267 21.1989L34.5606 26.2098L30.8221 27.5605L18.8899 21.4002L19.1654 21.2412C18.1459 20.7648 17.5965 19.6747 17.0448 18.6802L16.2416 19.1596L15.7642 19.2938V22.0726C15.7642 22.6034 16.1141 23.1342 16.8139 23.5387L28.7686 30.4432C30.1682 31.2515 32.446 31.2515 33.8457 30.4432L45.7997 23.5387C46.4881 23.1409 46.838 22.6209 46.8495 22.0986C46.8501 22.075 46.8489 22.052 46.8483 22.0284H46.8501Z" fill="url(#paint9_linear_1_1910)"/>
<path opacity="0.3" d="M43.127 21.1984L34.5609 26.2093L31.3071 27.3846V31.0485C32.2263 31.0485 33.1456 30.8466 33.846 30.4421L45.8 23.5376C46.4884 23.1398 46.8383 22.6198 46.8498 22.0975C46.8504 22.0739 46.8492 22.0509 46.8486 22.0273L46.8504 22.0279V19.3182L46.1657 18.9373H46.0944C45.8605 20.1966 44.3732 21.0249 43.127 21.1984Z" fill="#02122B"/>
<path d="M28.7695 27.6894L16.8149 20.7849C15.4152 19.9766 15.4152 18.661 16.8149 17.8526L28.7689 10.9482C30.1686 10.1398 32.4458 10.1398 33.8461 10.9482L45.8007 17.8526C47.2004 18.661 47.2004 19.9766 45.8007 20.7849L33.8467 27.6894C32.4464 28.4983 30.1692 28.4983 28.7695 27.6894Z" fill="url(#paint10_linear_1_1910)"/>
<path d="M31.3088 26.4361C30.5715 26.4361 29.8348 26.274 29.2733 25.95L19.9337 20.5558C19.3705 20.2305 19.061 19.791 19.061 19.3188C19.061 18.8472 19.3711 18.4077 19.9337 18.083L29.2733 12.6882C30.395 12.0413 32.2214 12.0413 33.3442 12.6882L42.6838 18.083C43.2465 18.4083 43.5565 18.8472 43.5565 19.3194C43.5565 19.7916 43.2465 20.2305 42.6838 20.5558L33.3442 25.95C32.7834 26.274 32.0455 26.4361 31.3088 26.4361ZM31.3082 12.4089C30.6089 12.4089 29.9097 12.5624 29.3773 12.8702L20.0377 18.265C19.5427 18.5509 19.2701 18.9252 19.2695 19.3188C19.2695 19.713 19.5421 20.0878 20.0377 20.3738L29.3773 25.768C30.4415 26.3835 32.1736 26.3835 33.2391 25.768L42.5787 20.3738C43.0737 20.0878 43.3468 19.713 43.3468 19.3194C43.3468 18.9258 43.0737 18.5509 42.5787 18.265L33.2391 12.8702C32.7072 12.5624 32.0074 12.4089 31.3082 12.4089Z" fill="#0439C7"/>
<path d="M45.8008 20.7849L33.8468 27.6893C32.4471 28.4977 30.1693 28.4977 28.7697 27.6893L16.815 20.7849C16.1895 20.4233 15.8444 19.9608 15.778 19.4874C15.6958 20.0733 16.0409 20.6755 16.815 21.1223L28.7697 28.0267C30.1693 28.8351 32.4471 28.8351 33.8468 28.0267L45.8008 21.1223C46.575 20.6755 46.9201 20.0733 46.8379 19.4874C46.7714 19.9614 46.4263 20.4239 45.8008 20.7849Z" fill="white"/>
<path opacity="0.4" d="M111.625 75.9229L65.248 49.1363C64.0496 48.4441 64.2 47.2355 65.5834 46.4362L92.6389 30.8093C94.0229 30.01 96.1158 29.9235 97.3142 30.6152L143.691 57.4017C144.889 58.094 144.739 59.3026 143.355 60.1019L116.3 75.7288C114.916 76.5281 112.823 76.6145 111.625 75.9229Z" fill="#081D3D"/>
<path d="M156.002 36.5689L155.229 36.468C155.146 36.4075 155.056 36.3495 154.96 36.2938L95.2578 1.81082C93.7155 0.919652 91.0207 1.0315 89.2397 2.06052L54.4104 22.1772C53.9463 22.4456 53.5921 22.7497 53.3462 23.0684L52.937 22.948V24.153L52.94 24.1536C52.9443 24.7159 53.2839 25.2521 53.9783 25.653L113.681 60.136C115.223 61.0272 117.918 60.9153 119.699 59.8863L154.528 39.7697C155.524 39.1947 156.022 38.4553 156 37.7594H156.002V36.5689Z" fill="#A6FBE8"/>
<path d="M113.68 58.9271L53.9775 24.4441C52.4346 23.5529 52.6286 21.9967 54.4096 20.9677L89.2388 0.851045C91.0199 -0.177974 93.7147 -0.289215 95.257 0.601352L154.959 35.0844C156.502 35.9755 156.308 37.5318 154.527 38.5602L119.698 58.6768C117.917 59.7065 115.222 59.8183 113.68 58.9271Z" fill="#03FFCF"/>
<path d="M123.313 56.5901L58.0249 18.8803L64.955 14.8773L130.244 52.5871L123.313 56.5901Z" fill="#081D3D"/>
<g opacity="0.1">
<path d="M153.988 110.788C153.988 104.046 158.719 95.8478 164.555 92.4766C167.479 90.788 170.125 90.6314 172.039 91.7426V91.742L174.036 92.9113L173.456 92.9657C174.51 94.2559 175.123 96.1574 175.123 98.5794C175.123 105.321 170.392 113.519 164.555 116.891C162.55 118.049 160.675 118.487 159.078 118.289L159.122 118.824L157.094 117.637C157.086 117.632 157.078 117.627 157.069 117.622L156.987 117.574L156.992 117.573C155.134 116.447 153.988 114.104 153.988 110.788Z" fill="#A6FBE8"/>
<path d="M174.04 110.183C178.167 103.032 178.167 95.303 174.041 92.9194C169.914 90.5358 163.223 94.4003 159.096 101.551C154.969 108.702 154.969 116.431 159.096 118.815C163.222 121.198 169.913 117.334 174.04 110.183Z" fill="#03FFCF"/>
</g>
<path opacity="0.2" d="M165.892 126.209C156.641 126.209 147.39 124.176 140.347 120.108C133.504 116.156 129.735 110.895 129.735 105.293C129.735 99.6914 133.504 94.4296 140.347 90.4768C154.434 82.3407 177.353 82.342 191.439 90.4762C198.282 94.429 202.05 99.6902 202.05 105.292C202.05 110.893 198.281 116.154 191.438 120.107C184.396 124.176 175.143 126.209 165.892 126.209ZM165.894 84.582C156.679 84.582 147.467 86.6074 140.452 90.6593C133.676 94.5735 129.944 99.77 129.944 105.294C129.944 110.817 133.676 116.013 140.451 119.927C154.479 128.029 177.304 128.029 191.333 119.926C198.109 116.012 201.841 110.816 201.841 105.292C201.841 99.7694 198.11 94.5723 191.334 90.6587C184.322 86.6074 175.107 84.582 165.894 84.582Z" fill="#03FFCF"/>
<path d="M165.893 118.306C160.147 118.306 154.402 117.043 150.028 114.517C145.771 112.058 143.427 108.783 143.426 105.294C143.426 101.804 145.771 98.5288 150.029 96.0687C158.777 91.0173 173.01 91.0173 181.758 96.0687C186.015 98.5276 188.36 101.803 188.36 105.292C188.36 108.781 186.015 112.057 181.758 114.517C177.383 117.043 171.638 118.306 165.893 118.306ZM165.893 92.4865C160.185 92.4865 154.478 93.741 150.133 96.2513C145.943 98.6715 143.635 101.883 143.635 105.294C143.636 108.705 145.943 111.916 150.133 114.335C158.823 119.355 172.962 119.355 181.652 114.335C185.843 111.915 188.15 108.704 188.15 105.293C188.15 101.882 185.843 98.6709 181.653 96.2513C177.308 93.741 171.601 92.4865 165.893 92.4865Z" fill="#03FFCF"/>
<mask id="mask2_1_1910" style="mask-type:luminance" maskUnits="userSpaceOnUse" x="149" y="67" width="34" height="45">
<path d="M149.347 108.114L155.989 111.944L182.441 96.666V67.2852L149.347 86.4V108.114Z" fill="white"/>
</mask>
<g mask="url(#mask2_1_1910)">
<path d="M153.988 110.787C153.988 104.046 158.72 95.8473 164.556 92.4761C167.48 90.7875 170.126 90.6309 172.039 91.7421V91.7415L174.037 92.9108L173.457 92.9652C174.51 94.2554 175.124 96.1569 175.124 98.5789C175.124 105.321 170.392 113.519 164.556 116.89C162.55 118.049 160.675 118.486 159.078 118.288L159.123 118.824L157.095 117.636C157.086 117.631 157.078 117.627 157.07 117.622L156.988 117.574L156.993 117.573C155.134 116.446 153.988 114.103 153.988 110.787Z" fill="#A6FBE8"/>
<path d="M174.041 110.182C178.168 103.032 178.168 95.3025 174.041 92.9189C169.914 90.5353 163.223 94.3998 159.097 101.551C154.97 108.701 154.969 116.43 159.096 118.814C163.223 121.198 169.914 117.333 174.041 110.182Z" fill="#03FFCF"/>
</g>
<defs>
<linearGradient id="paint0_linear_1_1910" x1="37.5759" y1="-28.0245" x2="196.722" y2="36.843" gradientUnits="userSpaceOnUse">
<stop stop-color="#81F8DE"/>
<stop offset="1" stop-color="#2155DF"/>
</linearGradient>
<linearGradient id="paint1_linear_1_1910" x1="132.271" y1="84.1445" x2="83.2739" y2="19.1498" gradientUnits="userSpaceOnUse">
<stop stop-color="#03FFCF"/>
<stop offset="1" stop-color="#042D9A"/>
</linearGradient>
<radialGradient id="paint2_radial_1_1910" cx="0" cy="0" r="1" gradientUnits="userSpaceOnUse" gradientTransform="translate(99.0499 50.1242) scale(137.314 137.37)">
<stop stop-color="#03FFCF"/>
<stop offset="1" stop-color="#042D9A"/>
</radialGradient>
<linearGradient id="paint3_linear_1_1910" x1="3.79276" y1="112.885" x2="28.4611" y2="127.121" gradientUnits="userSpaceOnUse">
<stop stop-color="#81F8DE"/>
<stop offset="1" stop-color="#2155DF"/>
</linearGradient>
<linearGradient id="paint4_linear_1_1910" x1="3.79313" y1="102.405" x2="32.1877" y2="113.695" gradientUnits="userSpaceOnUse">
<stop stop-color="#81F8DE"/>
<stop offset="1" stop-color="#2155DF"/>
</linearGradient>
<linearGradient id="paint5_linear_1_1910" x1="3.79276" y1="93.4051" x2="28.4611" y2="107.642" gradientUnits="userSpaceOnUse">
<stop stop-color="#81F8DE"/>
<stop offset="1" stop-color="#2155DF"/>
</linearGradient>
<linearGradient id="paint6_linear_1_1910" x1="3.79362" y1="82.9237" x2="32.1886" y2="94.2127" gradientUnits="userSpaceOnUse">
<stop stop-color="#81F8DE"/>
<stop offset="1" stop-color="#2155DF"/>
</linearGradient>
<linearGradient id="paint7_linear_1_1910" x1="18.8587" y1="32.0723" x2="43.527" y2="46.3088" gradientUnits="userSpaceOnUse">
<stop stop-color="#81F8DE"/>
<stop offset="1" stop-color="#2155DF"/>
</linearGradient>
<linearGradient id="paint8_linear_1_1910" x1="15.766" y1="37.4562" x2="46.8511" y2="37.4562" gradientUnits="userSpaceOnUse">
<stop stop-color="#A6FBE8"/>
<stop offset="1" stop-color="#4879FD"/>
</linearGradient>
<linearGradient id="paint9_linear_1_1910" x1="18.8577" y1="13.9348" x2="43.526" y2="28.1713" gradientUnits="userSpaceOnUse">
<stop stop-color="#81F8DE"/>
<stop offset="1" stop-color="#2155DF"/>
</linearGradient>
<linearGradient id="paint10_linear_1_1910" x1="15.765" y1="19.3188" x2="46.8501" y2="19.3188" gradientUnits="userSpaceOnUse">
<stop stop-color="#A6FBE8"/>
<stop offset="1" stop-color="#4879FD"/>
</linearGradient>
</defs>
</svg>
