<svg width="197" height="130" viewBox="0 0 197 130" fill="none" xmlns="http://www.w3.org/2000/svg">
<path d="M29.1405 45.6235C28.4068 45.6235 27.6738 45.4339 27.0193 45.055L0.673632 29.8018C0.363486 29.6225 0.178711 29.3007 0.178711 28.9415C0.178711 28.5824 0.364081 28.2605 0.674227 28.0812L26.8027 12.9887C28.27 12.1404 30.0931 12.141 31.5599 12.9911L57.6481 28.0951C57.9583 28.2749 58.1437 28.5968 58.1437 28.9559C58.1437 29.3145 57.9583 29.6363 57.6487 29.8162L31.2617 45.055C30.6072 45.4339 29.8736 45.6229 29.1405 45.6235ZM29.1783 13.1024C28.4854 13.1024 27.7931 13.281 27.1746 13.6378L1.04676 28.7303C0.936983 28.7935 0.925588 28.8994 0.925588 28.9421C0.925588 28.9848 0.937587 29.0901 1.04737 29.1539L27.3936 44.407C28.4716 45.0309 29.8106 45.0309 30.8886 44.407L57.2756 29.1683C57.3848 29.1045 57.3968 28.9993 57.3968 28.9565C57.3968 28.9138 57.3848 28.8086 57.275 28.7448L31.1867 13.6408H31.1861C30.567 13.281 29.873 13.1024 29.1783 13.1024Z" fill="#03FFCF"/>
<g opacity="0.11">
<path d="M31.3723 5.00435C30.0159 4.21928 28.3452 4.21808 26.9883 5.00194L0.860404 20.0945C0.448876 20.3327 0.448876 20.9277 0.860404 21.1659L27.206 36.4191C28.4028 37.1121 29.878 37.1121 31.0748 36.4191L57.4606 21.1798C57.8721 20.9415 57.8721 20.3466 57.4606 20.1083L31.3723 5.00435Z" fill="url(#paint0_linear_1_1783)"/>
</g>
<g opacity="0.11">
<path d="M31.3723 0.589553C30.0159 -0.195515 28.3452 -0.196717 26.9883 0.587148L0.860404 15.6797C0.448876 15.9179 0.448876 16.5129 0.860404 16.7511L27.206 32.0043C28.4028 32.6973 29.878 32.6973 31.0748 32.0043L57.4606 16.765C57.8721 16.5267 57.8721 15.9318 57.4606 15.6935L31.3723 0.589553Z" fill="url(#paint1_linear_1_1783)"/>
</g>
<path opacity="0.5" d="M57.4608 15.6941L31.3725 0.589553C30.0161 -0.195515 28.3454 -0.196717 26.9885 0.587148L0.860597 15.6797C0.654833 15.7988 0.552246 16.007 0.552246 16.2157V25.0434C0.552246 25.2515 0.654833 25.4603 0.860597 25.5794L27.2062 40.8326C28.403 41.5256 29.8782 41.5256 31.075 40.8326L57.4608 25.5932C57.6665 25.4741 57.7691 25.266 57.7691 25.0572V16.2296C57.7691 16.022 57.6665 15.8133 57.4608 15.6941Z" fill="url(#paint2_linear_1_1783)"/>
<g opacity="0.4">
<path d="M31.3723 0.589553C30.0159 -0.195515 28.3452 -0.196717 26.9883 0.587148L0.860404 15.6797C0.448876 15.9179 0.448876 16.5129 0.860404 16.7511L27.206 32.0043C28.4028 32.6973 29.878 32.6973 31.0748 32.0043L57.4606 16.765C57.8721 16.5267 57.8721 15.9318 57.4606 15.6935L31.3723 0.589553Z" fill="url(#paint3_linear_1_1783)"/>
</g>
<g opacity="0.5">
<path d="M30.0985 9.24134C29.5238 8.90866 28.8153 8.90806 28.24 9.24014L16.5337 16.0026C16.3501 16.109 16.3501 16.3743 16.5337 16.4808L28.2886 23.2865C28.8225 23.5958 29.4806 23.5958 30.0145 23.2865L41.7875 16.4874C41.9711 16.3809 41.9711 16.1156 41.7875 16.0092L30.0985 9.24134Z" fill="#03FFCF"/>
</g>
<path d="M16.534 16.427L28.2403 9.66523C28.8156 9.33316 29.5235 9.33316 30.0988 9.66643L41.7878 16.4343C41.7998 16.4409 41.804 16.4529 41.8142 16.4613C41.9636 16.344 41.9594 16.1094 41.7878 16.0101L30.0988 9.24232C29.5241 8.90964 28.8156 8.90904 28.2403 9.24111L16.534 16.0035C16.3624 16.1028 16.3576 16.3374 16.5076 16.4547C16.5178 16.4457 16.5226 16.4337 16.534 16.427Z" fill="#03FFCF"/>
<path d="M57.4609 16.1562L31.075 31.3956C29.8783 32.0886 28.4031 32.0886 27.2063 31.3956L0.860688 16.1424C0.759305 16.0834 0.68312 16.0028 0.632129 15.9114C0.474957 16.1905 0.551141 16.5725 0.860688 16.7518L27.2063 32.005C28.4031 32.698 29.8783 32.698 31.075 32.005L57.4609 16.7656C57.771 16.5864 57.8466 16.2043 57.69 15.9252C57.6384 16.0167 57.5623 16.0979 57.4609 16.1562Z" fill="url(#paint4_linear_1_1783)"/>
<path d="M35.4415 75.4213C34.9951 75.4213 34.5086 75.2763 34.0119 74.9882L24.8599 69.6894C24.7441 69.6226 24.6733 69.4987 24.6733 69.3651C24.6733 69.231 24.7447 69.1071 24.8605 69.0403L92.4982 30.0227C92.6133 29.9565 92.7555 29.9559 92.8713 30.0233L102.024 35.3226C102.646 35.6824 103.212 35.7516 103.616 35.5176C104.021 35.2829 104.244 34.7572 104.244 34.0371V31.8232C104.244 30.8234 104.599 30.0672 105.245 29.6936C105.89 29.32 106.721 29.3892 107.584 29.8891L109.496 30.996C109.674 31.0995 109.736 31.3287 109.632 31.508C109.529 31.6867 109.3 31.7474 109.122 31.6452L107.211 30.5382C106.589 30.1773 106.023 30.1087 105.618 30.3427C105.214 30.5773 104.991 31.1031 104.991 31.8238V34.0377C104.991 35.0369 104.635 35.7931 103.99 36.1667C103.345 36.5403 102.514 36.4723 101.651 35.9718L92.6847 30.7807L25.7957 69.3669L34.3868 74.3408C35.0089 74.7018 35.5746 74.771 35.9796 74.5364C36.3845 74.3017 36.6071 73.776 36.6071 73.0553V70.842C36.6071 69.8428 36.9628 69.086 37.6083 68.7124C38.2538 68.3382 39.0846 68.408 39.9479 68.9079L41.8591 70.0148C42.0373 70.1183 42.0985 70.3475 41.9959 70.5268C41.8921 70.7055 41.663 70.7656 41.4854 70.664L39.5735 69.557C38.9515 69.1967 38.3857 69.1275 37.9808 69.3615C37.5759 69.5961 37.3533 70.1219 37.3533 70.8426V73.0559C37.3533 74.0557 36.9976 74.8119 36.3521 75.1855C36.0774 75.3425 35.7702 75.4213 35.4415 75.4213Z" fill="#03FFCF"/>
<path d="M99.519 38.4565C99.0727 38.4565 98.5862 38.3115 98.0895 38.0233L88.9375 32.724C88.7593 32.6205 88.6981 32.3913 88.8007 32.212C88.9033 32.0327 89.1318 31.9714 89.3112 32.0749L98.4632 37.3742C99.0847 37.7346 99.651 37.8043 100.056 37.5697C100.461 37.3351 100.683 36.8093 100.683 36.0886V33.8748C100.683 32.8756 101.039 32.1194 101.685 31.7458C102.33 31.3728 103.16 31.4402 104.024 31.9407L105.936 33.0476C106.114 33.1511 106.175 33.3803 106.072 33.5596C105.969 33.7382 105.74 33.799 105.562 33.6967L103.651 32.5898C103.028 32.2301 102.462 32.1609 102.058 32.3949C101.653 32.6295 101.431 33.1553 101.431 33.8754V36.0892C101.431 37.0885 101.075 37.8453 100.43 38.2188C100.155 38.3777 99.8478 38.4565 99.519 38.4565Z" fill="#03FFCF"/>
<path d="M95.9588 40.51C95.5124 40.51 95.0265 40.3656 94.5298 40.0775L85.3772 34.7781C85.1991 34.6746 85.1372 34.4454 85.2404 34.2662C85.3436 34.0869 85.5716 34.0261 85.7509 34.129L94.903 39.4284C95.5251 39.7881 96.0908 39.8573 96.4957 39.6233C96.9006 39.3887 97.1232 38.8629 97.1232 38.1428V35.929C97.1232 34.9291 97.4789 34.1729 98.1244 33.7993C98.7699 33.4252 99.6001 33.4949 100.464 33.9949L102.375 35.1018C102.553 35.2053 102.615 35.4345 102.512 35.6137C102.408 35.7924 102.18 35.8532 102.002 35.7509L100.09 34.644C99.4682 34.283 98.9025 34.2138 98.4981 34.4485C98.0932 34.6831 97.8706 35.2089 97.8706 35.9296V38.1434C97.8706 39.1426 97.5149 39.8988 96.87 40.2724C96.5953 40.4312 96.2881 40.51 95.9588 40.51Z" fill="#03FFCF"/>
<path d="M92.3989 42.5637C91.9526 42.5637 91.4661 42.4187 90.9694 42.1305L81.8174 36.8312C81.6392 36.7277 81.578 36.4985 81.6806 36.3192C81.7832 36.1399 82.0117 36.0792 82.1911 36.182L91.3431 41.4814C91.9652 41.8418 92.5309 41.9109 92.9358 41.6769C93.3408 41.4423 93.5633 40.9165 93.5633 40.1958V37.982C93.5633 36.9828 93.9191 36.2266 94.5646 35.853C95.2095 35.4794 96.0403 35.5474 96.9036 36.0479L98.8154 37.1548C98.9936 37.2583 99.0548 37.4875 98.9522 37.6668C98.849 37.8454 98.6199 37.9062 98.4417 37.8033L96.5298 36.6964C95.9077 36.3367 95.3414 36.2669 94.9377 36.5015C94.5328 36.7361 94.3102 37.2619 94.3102 37.982V40.1958C94.3102 41.1951 93.9545 41.9518 93.309 42.3254C93.0354 42.4848 92.7283 42.5637 92.3989 42.5637Z" fill="#03FFCF"/>
<path d="M88.8392 44.6165C88.3929 44.6165 87.9069 44.4721 87.4102 44.1839L78.2576 38.8846C78.0794 38.7811 78.0183 38.5519 78.1214 38.3726C78.2246 38.1933 78.4526 38.1326 78.6313 38.2361L87.7834 43.5354C88.4055 43.8946 88.9712 43.9638 89.3761 43.7303C89.781 43.4957 90.0036 42.9699 90.0036 42.2498V40.036C90.0036 39.0368 90.3593 38.2806 91.0042 37.907C91.6497 37.5328 92.4806 37.602 93.3438 38.1019L95.2557 39.2088C95.4338 39.3123 95.495 39.5415 95.3924 39.7208C95.2887 39.8994 95.0601 39.9596 94.8819 39.8573L92.9701 38.7504C92.348 38.3895 91.7823 38.3203 91.3773 38.5555C90.973 38.7901 90.7498 39.3159 90.7498 40.036V42.2498C90.7498 43.2491 90.3941 44.0053 89.7492 44.3788C89.4757 44.5377 89.1685 44.6165 88.8392 44.6165Z" fill="#03FFCF"/>
<path d="M85.2792 46.6703C84.8329 46.6703 84.3464 46.5253 83.8497 46.2371L74.6971 40.9378C74.5189 40.8343 74.4577 40.6051 74.5609 40.4258C74.6641 40.2466 74.8926 40.1858 75.0714 40.2893L84.224 45.5886C84.8461 45.949 85.4112 46.0188 85.8167 45.7842C86.2217 45.5495 86.4442 45.0237 86.4442 44.303V42.0892C86.4442 41.09 86.8 40.3338 87.4449 39.9602C88.0903 39.5866 88.9212 39.6552 89.7844 40.1551L91.6963 41.262C91.8745 41.3655 91.9357 41.5947 91.8331 41.774C91.7299 41.9533 91.5007 42.0134 91.3226 41.9111L89.4113 40.8042C88.7892 40.4439 88.2241 40.3753 87.8186 40.6093C87.4143 40.8439 87.1911 41.3697 87.1911 42.0898V44.3037C87.1911 45.3029 86.8354 46.0597 86.1899 46.4333C85.9157 46.5921 85.6086 46.6703 85.2792 46.6703Z" fill="#03FFCF"/>
<path d="M81.7197 48.724C81.2734 48.724 80.7875 48.5796 80.2908 48.2915L71.1382 42.9921C70.96 42.8886 70.8988 42.6594 71.0014 42.4802C71.1046 42.3009 71.3331 42.2395 71.5119 42.343L80.6645 47.6424C81.2866 48.0021 81.8523 48.0719 82.2572 47.8373C82.6616 47.6026 82.8847 47.0769 82.8847 46.3568V44.1429C82.8847 43.1437 83.2405 42.3875 83.8854 42.0139C84.5309 41.6397 85.3623 41.7089 86.225 42.2088L88.1368 43.3158C88.315 43.4192 88.3762 43.6484 88.2736 43.8277C88.1698 44.0064 87.9413 44.0671 87.7631 43.9649L85.8512 42.858C85.2279 42.497 84.6628 42.429 84.2585 42.663C83.8542 42.8977 83.631 43.4234 83.631 44.1435V46.3574C83.631 47.3566 83.2753 48.1128 82.6304 48.4864C82.3562 48.6452 82.0485 48.724 81.7197 48.724Z" fill="#03FFCF"/>
<path d="M78.1597 50.778C77.7134 50.778 77.2269 50.633 76.7302 50.3449L49.5711 34.2621C49.3935 34.1568 49.3341 33.927 49.4391 33.7489C49.5447 33.5703 49.7739 33.5125 49.9508 33.6166L77.1069 49.6982C77.726 50.0573 78.2917 50.1259 78.696 49.8919C79.101 49.6573 79.3235 49.1315 79.3235 48.4108V46.1975C79.3235 45.1983 79.6793 44.4415 80.3248 44.0679C80.9702 43.6943 81.8011 43.7629 82.6644 44.2628L84.5762 45.3698C84.7544 45.4732 84.8156 45.7024 84.7124 45.8817C84.6092 46.061 84.38 46.1211 84.2019 46.0189L82.2906 44.912C81.6679 44.5522 81.1028 44.483 80.6979 44.717C80.293 44.9517 80.0704 45.4774 80.0704 46.1981V48.4114C80.0704 49.4112 79.7147 50.1674 79.0692 50.541C78.7956 50.6992 78.4885 50.778 78.1597 50.778Z" fill="#03FFCF"/>
<path d="M74.5994 52.832C74.1531 52.832 73.6671 52.6876 73.1704 52.3994L46.0149 36.316C45.8374 36.2108 45.778 35.981 45.883 35.8029C45.9879 35.6248 46.2183 35.5665 46.3941 35.6705L73.5466 51.7521C74.1657 52.1101 74.7308 52.1792 75.1363 51.9452C75.5412 51.7106 75.7638 51.1848 75.7638 50.4647V48.2509C75.7638 47.2516 76.1195 46.4955 76.7644 46.1219C77.4099 45.7477 78.2414 45.8169 79.104 46.3168L81.0159 47.4237C81.194 47.5272 81.2552 47.7564 81.1526 47.9356C81.0489 48.1143 80.8203 48.1745 80.6427 48.0722L78.7309 46.9653C78.1082 46.6043 77.5425 46.537 77.1381 46.7704C76.7338 47.005 76.5107 47.5308 76.5107 48.2509V50.4647C76.5107 51.4639 76.1549 52.2201 75.5094 52.5937C75.2359 52.7531 74.9287 52.832 74.5994 52.832Z" fill="#03FFCF"/>
<path d="M71.0405 54.8859C70.5942 54.8859 70.1083 54.7409 69.611 54.4528L42.4021 38.4031C42.2245 38.2984 42.1645 38.0686 42.2695 37.8905C42.3745 37.7124 42.6031 37.6541 42.7806 37.757L69.9877 53.8048C70.6068 54.1646 71.1725 54.2332 71.5774 53.9992C71.9824 53.7645 72.2049 53.2388 72.2049 52.5181V50.3048C72.2049 49.3056 72.5607 48.5488 73.2062 48.1752C73.8516 47.8016 74.6825 47.8708 75.5457 48.3707L77.457 49.477C77.6358 49.5805 77.697 49.8097 77.5938 49.989C77.4912 50.1677 77.262 50.229 77.0839 50.1256L75.172 49.0192C74.5493 48.6589 73.9842 48.5891 73.5793 48.8237C73.1743 49.0583 72.9518 49.5841 72.9518 50.3048V52.5181C72.9518 53.5179 72.596 54.2741 71.9506 54.6477C71.6764 54.8071 71.3693 54.8859 71.0405 54.8859Z" fill="#03FFCF"/>
<path d="M67.4797 56.9391C67.0334 56.9391 66.5475 56.7947 66.0507 56.5066L38.8455 40.4569C38.6679 40.3522 38.6079 40.1224 38.7129 39.9443C38.8179 39.7663 39.047 39.7067 39.224 39.8114L66.4269 55.8593C67.0472 56.2172 67.6135 56.2864 68.0166 56.0524C68.4215 55.8178 68.6441 55.292 68.6441 54.5719V52.358C68.6441 51.3588 68.9992 50.6026 69.6447 50.229C70.2902 49.8554 71.1217 49.924 71.9843 50.4239L73.8962 51.5309C74.0744 51.6343 74.1361 51.8635 74.033 52.0428C73.9292 52.2215 73.7006 52.2816 73.5224 52.18L71.6112 51.0731C70.9885 50.7121 70.4234 50.6441 70.0184 50.8781C69.6141 51.1128 69.391 51.6385 69.391 52.3586V54.5725C69.391 55.5717 69.0352 56.3279 68.3897 56.7015C68.1162 56.8603 67.809 56.9391 67.4797 56.9391Z" fill="#03FFCF"/>
<path d="M63.92 58.9929C63.4737 58.9929 62.9878 58.8479 62.4905 58.5598L53.3379 53.261C53.1597 53.1576 53.0985 52.9284 53.2011 52.7491C53.3043 52.5698 53.5329 52.5091 53.7116 52.6119L62.8642 57.9113C63.4869 58.2722 64.052 58.3414 64.4563 58.1068C64.8613 57.8722 65.0838 57.3464 65.0838 56.6257V54.4125C65.0838 53.4126 65.4396 52.6564 66.0851 52.2828C66.7305 51.9093 67.5608 51.9785 68.4247 52.4784L70.3359 53.5847C70.5147 53.6882 70.5759 53.9174 70.4727 54.0966C70.3695 54.2753 70.1404 54.3373 69.9628 54.2338L68.0515 53.1275C67.4288 52.7665 66.8631 52.6973 66.4588 52.932C66.0539 53.1666 65.8313 53.6924 65.8313 54.4131V56.6263C65.8313 57.6261 65.4756 58.3823 64.8301 58.7559C64.5565 58.9141 64.2494 58.9929 63.92 58.9929Z" fill="#03FFCF"/>
<path d="M60.3601 61.0457C59.9138 61.0457 59.4279 60.9013 58.9312 60.6131L49.7786 55.3138C49.6004 55.2103 49.5386 54.9811 49.6418 54.8018C49.745 54.6225 49.9735 54.5612 50.1523 54.6646L59.3049 59.964C59.927 60.3238 60.4933 60.3929 60.897 60.1589C61.302 59.9243 61.5245 59.3985 61.5245 58.6784V56.4646C61.5245 55.4654 61.8803 54.7092 62.5252 54.3356C63.1706 53.962 64.0015 54.0306 64.8647 54.5305L66.7766 55.6374C66.9548 55.7409 67.016 55.9701 66.9128 56.1494C66.8096 56.328 66.5799 56.3888 66.4023 56.2859L64.491 55.179C63.8683 54.8174 63.3032 54.7495 62.8983 54.9841C62.494 55.2187 62.2708 55.7445 62.2708 56.4646V58.6784C62.2708 59.6776 61.9151 60.4338 61.2696 60.8074C60.9966 60.9668 60.6895 61.0457 60.3601 61.0457Z" fill="#03FFCF"/>
<path d="M56.8004 63.0997C56.3541 63.0997 55.8682 62.9548 55.3709 62.6666L46.2182 57.3672C46.0401 57.2638 45.9789 57.0346 46.0815 56.8553C46.1847 56.676 46.4132 56.6147 46.592 56.7181L55.7446 62.0175C56.3667 62.3778 56.9324 62.447 57.3367 62.213C57.7416 61.9784 57.9642 61.4526 57.9642 60.7319V58.5187C57.9642 57.5188 58.3199 56.7626 58.9654 56.3891C59.6109 56.0149 60.4418 56.0847 61.305 56.5846L63.2163 57.6909C63.3951 57.7944 63.4562 58.0236 63.3531 58.2022C63.2499 58.3809 63.0207 58.4429 62.8432 58.3394L60.9313 57.2331C60.308 56.8721 59.7435 56.8036 59.3386 57.0376C58.9336 57.2722 58.7111 57.798 58.7111 58.5187V60.7319C58.7111 61.7317 58.3553 62.4879 57.7098 62.8615C57.4369 63.0209 57.1297 63.0997 56.8004 63.0997Z" fill="#03FFCF"/>
<path d="M53.2407 65.1526C52.7944 65.1526 52.3085 65.0082 51.8118 64.72L42.6592 59.4207C42.481 59.3172 42.4198 59.088 42.5224 58.9087C42.6256 58.7295 42.8541 58.6681 43.0323 58.7716L52.1843 64.0709C52.8058 64.4307 53.3721 64.4999 53.777 64.2658C54.182 64.0312 54.4045 63.5054 54.4045 62.7853V60.5715C54.4045 59.5723 54.7603 58.8161 55.4052 58.4425C56.0506 58.0689 56.8815 58.1375 57.7448 58.6374L59.6566 59.7443C59.8348 59.8478 59.896 60.077 59.7934 60.2563C59.6902 60.435 59.4604 60.4957 59.2829 60.3934L57.3716 59.2865C56.7489 58.9256 56.1844 58.857 55.7789 59.0916C55.3746 59.3262 55.1514 59.852 55.1514 60.5721V62.786C55.1514 63.7852 54.7957 64.5414 54.1508 64.915C53.8772 65.0738 53.5695 65.1526 53.2407 65.1526Z" fill="#03FFCF"/>
<path d="M49.6811 67.2066C49.2347 67.2066 48.7482 67.0616 48.2515 66.7735L39.0995 61.4747C38.9207 61.3712 38.8595 61.142 38.9627 60.9628C39.0659 60.7835 39.2951 60.7227 39.4726 60.8256L48.6246 66.1244C49.2467 66.4853 49.8124 66.5545 50.2174 66.3199C50.6223 66.0853 50.8449 65.5595 50.8449 64.8388V62.6255C50.8449 61.6257 51.2006 60.8695 51.8461 60.4959C52.4916 60.1223 53.3218 60.1909 54.1857 60.6914L56.0969 61.7984C56.2751 61.9018 56.3369 62.131 56.2337 62.3103C56.1299 62.489 55.9008 62.5497 55.7232 62.4475L53.8119 61.3406C53.1893 60.9796 52.6242 60.9104 52.2198 61.145C51.8149 61.3797 51.5923 61.9054 51.5923 62.6261V64.8394C51.5923 65.8386 51.2366 66.5954 50.5911 66.969C50.3176 67.1278 50.0098 67.2066 49.6811 67.2066Z" fill="#03FFCF"/>
<path d="M46.1212 69.2603C45.6749 69.2603 45.1884 69.1153 44.6917 68.8272L35.539 63.5278C35.3609 63.4243 35.2997 63.1951 35.4023 63.0159C35.5055 62.8366 35.734 62.7758 35.9128 62.8787L45.0648 68.1781C45.6881 68.539 46.2526 68.607 46.6575 68.373C47.0618 68.1384 47.285 67.6126 47.285 66.8925V64.6786C47.285 63.6794 47.6407 62.9232 48.2862 62.5496C48.9311 62.176 49.7626 62.244 50.6258 62.7445L52.5377 63.8515C52.7159 63.9549 52.7771 64.1841 52.6739 64.3634C52.5707 64.5421 52.3409 64.6028 52.1634 64.5006L50.2521 63.3937C49.63 63.0333 49.0643 62.9647 48.66 63.1987C48.255 63.4334 48.0325 63.9591 48.0325 64.6792V66.8931C48.0325 67.8923 47.6773 68.6485 47.0318 69.0221C46.7577 69.1809 46.4499 69.2603 46.1212 69.2603Z" fill="#03FFCF"/>
<path d="M42.5614 71.3136C42.1151 71.3136 41.6286 71.1686 41.1319 70.8805L31.9799 65.5817C31.8011 65.4782 31.7399 65.249 31.8431 65.0698C31.9457 64.8905 32.1748 64.8297 32.353 64.9326L41.5056 70.2314C42.1283 70.5917 42.6934 70.6615 43.0983 70.4269C43.5033 70.1923 43.7258 69.6665 43.7258 68.9458V66.7325C43.7258 65.7327 44.0816 64.9765 44.7271 64.6029C45.3725 64.2287 46.2028 64.2985 47.0667 64.7984L48.9779 65.9054C49.1561 66.0088 49.2173 66.238 49.1147 66.4173C49.0109 66.596 48.7818 66.6567 48.6042 66.5545L46.6929 65.4476C46.0708 65.0872 45.5057 65.0174 45.1008 65.252C44.6959 65.4867 44.4733 66.0124 44.4733 66.7331V68.9464C44.4733 69.9456 44.1176 70.7024 43.4721 71.076C43.1973 71.2348 42.8902 71.3136 42.5614 71.3136Z" fill="#03FFCF"/>
<path d="M39.0016 73.3669C38.5553 73.3669 38.0687 73.222 37.572 72.9338L28.4194 67.6344C28.2413 67.531 28.1801 67.3018 28.2826 67.1225C28.3852 66.9432 28.6144 66.8825 28.7932 66.9853L37.9458 72.2847C38.5685 72.6456 39.1342 72.7136 39.5385 72.4796C39.9428 72.245 40.166 71.7192 40.166 70.9991V68.7853C40.166 67.786 40.5217 67.0298 41.1672 66.6563C41.8127 66.2827 42.6435 66.3512 43.5068 66.8512L45.4187 67.9581C45.5968 68.0616 45.658 68.2908 45.5554 68.47C45.4523 68.6493 45.2225 68.7095 45.0455 68.6066L43.1337 67.4997C42.5116 67.1399 41.9459 67.0707 41.541 67.3048C41.1366 67.5394 40.9134 68.0652 40.9134 68.7853V70.9991C40.9134 71.9983 40.5583 72.7545 39.9128 73.1281C39.6381 73.2881 39.3303 73.3669 39.0016 73.3669Z" fill="#03FFCF"/>
<path d="M121.225 38.6242C120.896 38.6242 120.588 38.5453 120.314 38.3865C119.669 38.0129 119.314 37.2567 119.314 36.2575V34.0437C119.314 33.323 119.09 32.7972 118.686 32.5626C118.282 32.328 117.716 32.3977 117.094 32.7581L115.183 33.865C115.004 33.9691 114.775 33.9065 114.672 33.7278C114.569 33.5486 114.63 33.3194 114.808 33.2159L116.72 32.109C117.584 31.6091 118.414 31.5399 119.06 31.9135C119.705 32.287 120.061 33.0432 120.061 34.0431V36.2569C120.061 36.977 120.284 37.5028 120.689 37.7374C121.092 37.9714 121.659 37.9016 122.281 37.5425L131.433 32.2431C131.612 32.1397 131.841 32.2016 131.944 32.3797C132.047 32.559 131.986 32.7882 131.808 32.8916L122.655 38.191C122.157 38.4792 121.671 38.6242 121.225 38.6242Z" fill="#03FFCF"/>
<path d="M124.785 40.6778C124.456 40.6778 124.149 40.5984 123.875 40.4396C123.229 40.066 122.874 39.3098 122.874 38.3105V36.0967C122.874 35.3766 122.651 34.8508 122.247 34.6162C121.842 34.3816 121.276 34.4514 120.654 34.8111L118.743 35.918C118.563 36.0215 118.335 35.9595 118.232 35.7809C118.129 35.6016 118.19 35.3724 118.369 35.2689L120.28 34.162C121.144 33.6615 121.974 33.5941 122.621 33.9671C123.266 34.3407 123.621 35.0969 123.621 36.0961V38.3099C123.621 39.03 123.844 39.5558 124.249 39.7904C124.653 40.0251 125.219 39.9559 125.841 39.5955L134.993 34.2962C135.173 34.1927 135.401 34.2547 135.504 34.4327C135.607 34.612 135.546 34.8412 135.367 34.9447L126.214 40.244C125.718 40.5322 125.231 40.6778 124.785 40.6778Z" fill="#03FFCF"/>
<path d="M128.345 42.7311C128.016 42.7311 127.709 42.6523 127.435 42.4935C126.789 42.1199 126.433 41.3637 126.433 40.3644V38.1506C126.433 37.4299 126.211 36.9041 125.806 36.6695C125.402 36.4349 124.835 36.5053 124.213 36.865L122.301 37.9719C122.123 38.0748 121.894 38.0134 121.791 37.8348C121.688 37.6555 121.749 37.4263 121.928 37.3228L123.839 36.2159C124.703 35.716 125.534 35.6468 126.179 36.0204C126.824 36.394 127.18 37.1508 127.18 38.15V40.3638C127.18 41.0839 127.403 41.6097 127.808 41.8443C128.212 42.079 128.778 42.0092 129.4 41.6494L138.552 36.3501C138.731 36.2466 138.96 36.3086 139.063 36.4872C139.166 36.6665 139.105 36.8957 138.926 36.9992L129.774 42.2985C129.277 42.5861 128.792 42.7311 128.345 42.7311Z" fill="#03FFCF"/>
<path d="M131.905 44.785C131.576 44.785 131.268 44.7062 130.995 44.5473C130.349 44.1738 129.993 43.4176 129.993 42.4177V40.2039C129.993 39.4838 129.77 38.958 129.366 38.7234C128.962 38.4888 128.395 38.5586 127.773 38.9183L125.862 40.0252C125.684 40.1287 125.455 40.0673 125.351 39.8881C125.248 39.7088 125.309 39.4796 125.488 39.3761L127.399 38.2692C128.263 37.7687 129.094 37.7007 129.74 38.0743C130.385 38.4479 130.74 39.2041 130.74 40.2033V42.4171C130.74 43.1378 130.963 43.6636 131.368 43.8982C131.772 44.1329 132.338 44.0625 132.96 43.7027L142.112 38.4034C142.291 38.3005 142.52 38.3618 142.622 38.5405C142.726 38.7198 142.664 38.949 142.486 39.0525L133.333 44.3518C132.837 44.64 132.35 44.785 131.905 44.785Z" fill="#03FFCF"/>
<path d="M135.464 46.8379C135.135 46.8379 134.828 46.7591 134.554 46.6003C133.908 46.2267 133.552 45.4705 133.552 44.4713V42.2574C133.552 41.5367 133.329 41.0109 132.925 40.7763C132.52 40.5417 131.954 40.6109 131.332 40.9718L129.421 42.0788C129.242 42.1822 129.014 42.1203 128.91 41.9422C128.807 41.7629 128.868 41.5337 129.047 41.4303L130.959 40.3233C131.822 39.8234 132.653 39.7542 133.298 40.1278C133.944 40.5014 134.299 41.2582 134.299 42.2574V44.4713C134.299 45.1914 134.523 45.7171 134.927 45.9518C135.331 46.1864 135.897 46.1166 136.52 45.7569L145.672 40.4575C145.85 40.354 146.079 40.416 146.182 40.594C146.285 40.7733 146.224 41.0025 146.045 41.106L136.893 46.4054C136.397 46.6935 135.911 46.8379 135.464 46.8379Z" fill="#03FFCF"/>
<path d="M139.024 48.8918C138.696 48.8918 138.388 48.813 138.114 48.6542C137.469 48.2806 137.113 47.5244 137.113 46.5246V44.3107C137.113 43.5906 136.89 43.0648 136.486 42.8302C136.081 42.595 135.514 42.666 134.893 43.0251L132.982 44.132C132.803 44.2355 132.574 44.1736 132.471 43.9949C132.368 43.8156 132.429 43.5864 132.608 43.4835L134.52 42.3766C135.384 41.8761 136.214 41.8081 136.86 42.1817C137.505 42.5553 137.861 43.3115 137.861 44.3107V46.5246C137.861 47.2453 138.084 47.771 138.488 48.0057C138.892 48.2397 139.459 48.1699 140.08 47.8101L149.233 42.5108C149.411 42.4067 149.639 42.4693 149.743 42.6473C149.846 42.8266 149.785 43.0558 149.606 43.1593L140.454 48.4586C139.957 48.7468 139.47 48.8918 139.024 48.8918Z" fill="#03FFCF"/>
<path d="M142.584 50.9453C142.255 50.9453 141.947 50.8665 141.673 50.7076C141.028 50.334 140.672 49.5779 140.672 48.5786V46.3648C140.672 45.6447 140.449 45.1189 140.045 44.8843C139.639 44.6497 139.074 44.7189 138.452 45.0792L136.541 46.1861C136.362 46.2896 136.133 46.2282 136.03 46.049C135.927 45.8697 135.988 45.6405 136.167 45.537L138.078 44.4301C138.942 43.9296 139.773 43.8616 140.418 44.2352C141.063 44.6088 141.419 45.365 141.419 46.3642V48.578C141.419 49.2981 141.642 49.8239 142.046 50.0585C142.451 50.2937 143.017 50.2228 143.639 49.8636L152.791 44.5642C152.971 44.4608 153.199 44.5227 153.302 44.7014C153.405 44.8807 153.344 45.1099 153.165 45.2134L144.012 50.5121C143.517 50.8009 143.03 50.9453 142.584 50.9453Z" fill="#03FFCF"/>
<path d="M146.144 52.9986C145.815 52.9986 145.507 52.9198 145.234 52.761C144.588 52.3874 144.233 51.6312 144.233 50.6314V48.4176C144.233 47.6975 144.009 47.1717 143.605 46.9371C143.201 46.7031 142.635 46.7728 142.012 47.132L140.101 48.2389C139.922 48.343 139.694 48.2804 139.591 48.1017C139.488 47.9225 139.549 47.6933 139.728 47.5898L141.639 46.4829C142.502 45.983 143.334 45.9144 143.979 46.288C144.624 46.6616 144.98 47.4177 144.98 48.417V50.6308C144.98 51.3515 145.203 51.8773 145.608 52.1119C146.012 52.3465 146.578 52.2767 147.2 51.9164L156.352 46.617C156.531 46.5136 156.76 46.5755 156.863 46.7542C156.966 46.9335 156.905 47.1627 156.726 47.2655L147.573 52.5649C147.076 52.8537 146.59 52.9986 146.144 52.9986Z" fill="#03FFCF"/>
<path d="M149.704 55.0525C149.375 55.0525 149.068 54.9737 148.793 54.8149C148.148 54.4413 147.792 53.6851 147.792 52.6859V50.472C147.792 49.7519 147.569 49.2261 147.165 48.9915C146.76 48.7563 146.194 48.8261 145.572 49.1864L143.661 50.2934C143.482 50.3968 143.253 50.3355 143.15 50.1562C143.047 49.9769 143.108 49.7477 143.287 49.6448L145.198 48.5379C146.062 48.038 146.893 47.9694 147.538 48.343C148.183 48.7166 148.538 49.4728 148.538 50.472V52.6859C148.538 53.406 148.762 53.9317 149.166 54.1664C149.571 54.401 150.137 54.3312 150.759 53.9714L159.911 48.6721C160.089 48.568 160.317 48.6306 160.421 48.8092C160.524 48.9885 160.463 49.2177 160.284 49.3212L151.132 54.6206C150.636 54.9081 150.15 55.0525 149.704 55.0525Z" fill="#03FFCF"/>
<path d="M153.264 57.1058C152.935 57.1058 152.627 57.027 152.354 56.8681C151.708 56.4946 151.352 55.7378 151.352 54.7385V52.5253C151.352 51.8046 151.129 51.2788 150.725 51.0442C150.319 50.8096 149.754 50.8794 149.132 51.2391L147.221 52.346C147.043 52.4501 146.813 52.3875 146.71 52.2089C146.607 52.0296 146.668 51.8004 146.847 51.6969L148.758 50.59C149.622 50.0895 150.452 50.0215 151.098 50.3951C151.743 50.7687 152.099 51.5255 152.099 52.5247V54.7379C152.099 55.4586 152.322 55.9844 152.727 56.219C153.132 56.453 153.697 56.3839 154.319 56.0235L163.471 50.7242C163.65 50.6207 163.879 50.682 163.982 50.8607C164.085 51.04 164.024 51.2692 163.845 51.3727L154.693 56.672C154.196 56.9608 153.71 57.1058 153.264 57.1058Z" fill="#03FFCF"/>
<path d="M156.824 59.1592C156.495 59.1592 156.188 59.0804 155.913 58.9215C155.268 58.548 154.913 57.7918 154.913 56.7925V54.5787C154.913 53.8586 154.69 53.3328 154.285 53.0982C153.88 52.8636 153.315 52.9328 152.693 53.2931L150.781 54.4C150.603 54.5035 150.374 54.4415 150.271 54.2635C150.168 54.0842 150.229 53.855 150.408 53.7515L152.319 52.6446C153.183 52.1447 154.014 52.0767 154.659 52.4497C155.305 52.8233 155.66 53.5795 155.66 54.5787V56.7925C155.66 57.5126 155.883 58.0384 156.287 58.273C156.691 58.5065 157.258 58.4373 157.88 58.0781L167.032 52.7788C167.211 52.6747 167.439 52.7373 167.542 52.9159C167.646 53.0952 167.584 53.3244 167.406 53.4273L158.254 58.7266C157.756 59.0148 157.27 59.1592 156.824 59.1592Z" fill="#03FFCF"/>
<path d="M160.383 61.2124C160.054 61.2124 159.747 61.1336 159.473 60.9748C158.828 60.6012 158.472 59.8444 158.472 58.8452V56.6319C158.472 55.9112 158.249 55.3855 157.844 55.1508C157.439 54.9156 156.874 54.9854 156.252 55.3457L154.34 56.4527C154.162 56.5561 153.933 56.4942 153.83 56.3161C153.727 56.1368 153.788 55.9076 153.967 55.8042L155.878 54.6972C156.741 54.1973 157.572 54.1287 158.218 54.5023C158.863 54.8759 159.219 55.6327 159.219 56.6319V58.8452C159.219 59.5659 159.442 60.0916 159.846 60.3263C160.251 60.5609 160.817 60.4905 161.439 60.1308L170.591 54.8314C170.769 54.7279 170.998 54.7893 171.102 54.968C171.205 55.1472 171.144 55.3764 170.965 55.4799L161.813 60.7793C161.316 61.0674 160.829 61.2124 160.383 61.2124Z" fill="#03FFCF"/>
<path d="M163.943 63.2666C163.614 63.2666 163.307 63.1878 163.033 63.029C162.387 62.6554 162.032 61.8992 162.032 60.9V58.6862C162.032 57.9661 161.809 57.4403 161.404 57.2057C161.001 56.9716 160.434 57.0408 159.812 57.4006L157.9 58.5075C157.722 58.6116 157.494 58.549 157.39 58.3703C157.287 58.1911 157.348 57.9618 157.527 57.859L159.438 56.7521C160.302 56.2521 161.132 56.183 161.778 56.5571C162.423 56.9307 162.778 57.6869 162.778 58.6862V60.9C162.778 61.6201 163.001 62.1459 163.406 62.3805C163.81 62.6145 164.376 62.5447 164.998 62.1856L174.15 56.8862C174.329 56.7827 174.558 56.8441 174.661 57.0234C174.764 57.2026 174.703 57.4319 174.524 57.5353L165.372 62.8347C164.875 63.1222 164.389 63.2666 163.943 63.2666Z" fill="#03FFCF"/>
<path d="M167.503 65.3197C167.174 65.3197 166.867 65.2409 166.593 65.0821C165.947 64.7085 165.592 63.9523 165.592 62.9525V60.7392C165.592 60.0185 165.368 59.4927 164.964 59.2581C164.56 59.0235 163.993 59.0939 163.371 59.4537L161.459 60.56C161.281 60.664 161.053 60.6015 160.95 60.4228C160.846 60.2435 160.908 60.0143 161.086 59.9109L162.998 58.8045C163.861 58.3046 164.692 58.2354 165.337 58.609C165.983 58.9826 166.338 59.7394 166.338 60.7386V62.9519C166.338 63.6726 166.562 64.1983 166.966 64.433C167.37 64.6676 167.936 64.5972 168.558 64.2375L177.711 58.9381C177.889 58.8346 178.118 58.8966 178.221 59.0752C178.324 59.2545 178.263 59.4837 178.084 59.5872L168.932 64.8866C168.436 65.1747 167.95 65.3197 167.503 65.3197Z" fill="#03FFCF"/>
<path d="M171.063 67.3733C170.734 67.3733 170.426 67.2945 170.152 67.1357C169.507 66.7621 169.152 66.0059 169.152 65.0067V62.7928C169.152 62.0727 168.929 61.5469 168.524 61.3123C168.12 61.0789 167.555 61.1475 166.931 61.5072L165.02 62.6142C164.84 62.717 164.612 62.6557 164.509 62.4776C164.406 62.2983 164.467 62.0691 164.646 61.9657L166.558 60.8587C167.421 60.3588 168.252 60.2902 168.898 60.6638C169.543 61.0374 169.899 61.7936 169.899 62.7928V65.0067C169.899 65.7268 170.122 66.2525 170.526 66.4872C170.931 66.7218 171.497 66.6514 172.119 66.2923L181.271 60.9929C181.45 60.8894 181.678 60.9508 181.781 61.1301C181.884 61.3093 181.823 61.5385 181.645 61.6414L172.492 66.9408C171.995 67.2289 171.509 67.3733 171.063 67.3733Z" fill="#03FFCF"/>
<path d="M174.622 69.4281C174.294 69.4281 173.987 69.3493 173.712 69.1905C173.067 68.8169 172.711 68.0607 172.711 67.0609V64.8476C172.711 64.1269 172.488 63.6012 172.084 63.3665C171.679 63.1319 171.113 63.2023 170.491 63.5621L168.579 64.6684C168.401 64.7724 168.172 64.7093 168.069 64.5318C167.966 64.3525 168.027 64.1233 168.206 64.0199L170.118 62.9136C170.98 62.4136 171.812 62.3444 172.457 62.718C173.103 63.0916 173.459 63.8484 173.459 64.8476V67.0609C173.459 67.7816 173.682 68.3074 174.086 68.542C174.49 68.776 175.056 68.7068 175.678 68.3465L184.831 63.0471C185.01 62.943 185.238 63.0056 185.341 63.1837C185.445 63.3629 185.383 63.5921 185.205 63.6956L176.053 68.995C175.555 69.2825 175.069 69.4281 174.622 69.4281Z" fill="#03FFCF"/>
<path d="M178.183 71.4808C177.854 71.4808 177.547 71.402 177.273 71.2432C176.627 70.8696 176.271 70.1134 176.271 69.1142V66.9004C176.271 66.1803 176.048 65.6545 175.644 65.4199C175.239 65.1858 174.674 65.2544 174.051 65.6148L172.139 66.7217C171.961 66.8252 171.732 66.7632 171.629 66.5845C171.526 66.4053 171.587 66.1761 171.765 66.0726L173.677 64.9657C174.54 64.4657 175.372 64.3972 176.017 64.7708C176.662 65.1443 177.018 65.9005 177.018 66.8998V69.1136C177.018 69.8337 177.241 70.3595 177.645 70.5941C178.049 70.8287 178.616 70.7589 179.238 70.3992L188.39 65.0998C188.569 64.9964 188.797 65.0583 188.9 65.2364C189.004 65.4157 188.942 65.6449 188.764 65.7483L179.612 71.0477C179.115 71.3358 178.629 71.4808 178.183 71.4808Z" fill="#03FFCF"/>
<path d="M181.742 73.535C181.413 73.535 181.106 73.4562 180.832 73.298C180.187 72.9244 179.831 72.1682 179.831 71.1684V68.9552C179.831 68.2345 179.608 67.7087 179.203 67.4741C178.798 67.2395 178.232 67.3092 177.611 67.6696L175.699 68.7759C175.521 68.8794 175.292 68.8174 175.189 68.6387C175.086 68.4595 175.147 68.2303 175.326 68.1268L177.237 67.0205C178.1 66.5206 178.932 66.4514 179.577 66.825C180.223 67.1986 180.578 67.9553 180.578 68.9546V71.1678C180.578 71.8885 180.801 72.4143 181.206 72.6489C181.61 72.8835 182.176 72.8137 182.798 72.4534L191.951 67.1546C192.129 67.0512 192.357 67.1125 192.46 67.2918C192.564 67.4711 192.502 67.7003 192.324 67.8037L183.171 73.1025C182.674 73.3895 182.188 73.535 181.742 73.535Z" fill="#03FFCF"/>
<path d="M117.665 36.5708C117.336 36.5708 117.028 36.4914 116.755 36.3326C116.109 35.959 115.754 35.2028 115.754 34.2036V31.9897C115.754 31.2696 115.53 30.7439 115.126 30.5092C114.722 30.2758 114.156 30.3444 113.533 30.7042L111.622 31.8111C111.443 31.9145 111.215 31.8526 111.112 31.6745C111.008 31.4952 111.07 31.266 111.248 31.1626L113.16 30.0556C114.023 29.5557 114.853 29.4865 115.499 29.8607C116.145 30.2343 116.5 30.9905 116.5 31.9897V34.2036C116.5 34.9237 116.723 35.4495 117.127 35.6841C117.532 35.9187 118.097 35.8501 118.721 35.4892L127.873 30.1898C128.052 30.0863 128.28 30.1483 128.383 30.327C128.486 30.5062 128.425 30.7354 128.247 30.8389L119.095 36.1383C118.597 36.4258 118.111 36.5708 117.665 36.5708Z" fill="#03FFCF"/>
<path d="M185.302 75.5882C184.973 75.5882 184.666 75.5088 184.391 75.35C183.746 74.9764 183.391 74.2202 183.391 73.221V71.0072C183.391 70.2871 183.168 69.7613 182.763 69.5267C182.36 69.2933 181.793 69.3624 181.171 69.7216L179.259 70.8285C179.081 70.932 178.852 70.87 178.749 70.6913C178.646 70.5121 178.707 70.2829 178.886 70.1794L180.797 69.0725C181.661 68.5726 182.492 68.504 183.137 68.8776C183.783 69.2512 184.138 70.0073 184.138 71.0066V73.2204C184.138 73.9405 184.361 74.4663 184.766 74.7009C185.171 74.9349 185.736 74.8657 186.359 74.506L195.511 69.2066C195.689 69.1038 195.918 69.1651 196.021 69.3438C196.124 69.5231 196.063 69.7523 195.884 69.8557L186.732 75.1551C186.235 75.4433 185.748 75.5882 185.302 75.5882Z" fill="#03FFCF"/>
<path d="M180.732 71.3003V79.4506L110.402 120.169L40.0703 79.4493V71.2991L180.732 71.3003Z" fill="url(#paint5_linear_1_1783)"/>
<path d="M110.402 112.019L40.0703 71.2993L110.4 30.5798L180.732 71.3005L110.402 112.019Z" fill="#81F8DE"/>
<path d="M110.402 111.067L40.8928 70.823L40.0703 71.2989L110.402 112.019L180.732 71.3001L179.91 70.8242L110.402 111.067Z" fill="white"/>
<path d="M110.402 102.627L56.3076 71.3075L110.4 39.989L164.495 71.3087L110.402 102.627Z" fill="#0F054C"/>
<path opacity="0.5" d="M110.402 102.628L56.3062 71.3081L110.4 39.989L164.496 71.3093L110.402 102.628Z" fill="url(#paint6_linear_1_1783)"/>
<path opacity="0.5" d="M110.4 32.092L164.496 63.4118V71.3094L110.4 39.989V32.092Z" fill="url(#paint7_linear_1_1783)"/>
<path opacity="0.5" d="M110.402 39.9893L56.3062 71.3084V63.4114L110.4 32.0923L110.402 39.9893Z" fill="url(#paint8_linear_1_1783)"/>
<path opacity="0.5" d="M110.402 94.7311L56.3062 63.4114L110.4 32.0923L164.496 63.412L110.402 94.7311Z" fill="url(#paint9_linear_1_1783)"/>
<path opacity="0.5" d="M110.402 75.9259L88.7861 63.4111L110.401 50.897L132.016 63.4117L110.402 75.9259Z" fill="#03FFCF"/>
<path opacity="0.5" d="M110.293 91.3499L109.045 90.628L110.293 89.9061L111.54 90.628L110.293 91.3499Z" fill="#03FFCF"/>
<path d="M112.86 89.863L111.613 89.1411L112.86 88.4192L114.108 89.1411L112.86 89.863Z" fill="#03FFCF"/>
<path opacity="0.5" d="M115.428 88.3761L114.181 87.6542L115.428 86.9323L116.675 87.6542L115.428 88.3761Z" fill="#03FFCF"/>
<path opacity="0.5" d="M117.995 86.8902L116.748 86.1683L117.995 85.4464L119.242 86.1683L117.995 86.8902Z" fill="#03FFCF"/>
<path opacity="0.8" d="M120.563 85.4038L119.316 84.6819L120.563 83.96L121.81 84.6819L120.563 85.4038Z" fill="#03FFCF"/>
<path opacity="0.5" d="M110.401 52.0484L131.022 63.9875L132.016 63.4117L110.401 50.897L88.7861 63.4111L89.7808 63.9869L110.401 52.0484Z" fill="#03FFCF"/>
<path opacity="0.5" d="M110.402 94.7305V102.628L164.496 71.309V63.4114L110.402 94.7305Z" fill="url(#paint10_linear_1_1783)"/>
<path opacity="0.5" d="M56.3062 63.4108V71.3078L110.402 102.628V94.7305L56.3062 63.4108Z" fill="url(#paint11_linear_1_1783)"/>
<path opacity="0.8" d="M110.402 93.8693L57.0506 62.9797L56.3062 63.4111L110.402 94.7308L164.496 63.4117L163.751 62.9809L110.402 93.8693Z" fill="#03FFCF"/>
<path d="M195.697 90.9141C195.633 90.9141 195.569 90.8979 195.51 90.8636L186.358 85.5642C184.694 84.6011 183.391 82.3373 183.391 80.411V78.1972C183.391 76.541 182.227 74.5203 180.797 73.6919L178.885 72.585C178.707 72.4815 178.645 72.2523 178.748 72.0731C178.851 71.8938 179.08 71.8324 179.258 71.9359L181.17 73.0428C182.834 74.0065 184.137 76.2703 184.137 78.1966V80.4104C184.137 82.0666 185.301 84.0873 186.731 84.9151L195.883 90.2144C196.062 90.3179 196.123 90.5471 196.02 90.7264C195.951 90.8467 195.826 90.9141 195.697 90.9141Z" fill="#03FFCF"/>
<path d="M128.059 130C127.996 130 127.931 129.984 127.873 129.949L118.721 124.65C117.057 123.687 115.754 121.424 115.754 119.497V117.283C115.754 115.627 114.59 113.606 113.16 112.778L111.248 111.671C111.07 111.567 111.008 111.338 111.112 111.159C111.215 110.98 111.443 110.919 111.622 111.022L113.534 112.129C115.197 113.093 116.501 115.357 116.501 117.283V119.497C116.501 121.153 117.665 123.174 119.095 124.001L128.248 129.301C128.426 129.404 128.487 129.633 128.384 129.813C128.314 129.932 128.188 130 128.059 130Z" fill="#03FFCF"/>
<path d="M131.62 127.942C131.556 127.942 131.492 127.926 131.433 127.892L122.281 122.593C120.617 121.629 119.314 119.366 119.314 117.439V115.226C119.314 113.569 118.15 111.549 116.72 110.721L114.808 109.614C114.63 109.51 114.569 109.281 114.672 109.102C114.775 108.923 115.004 108.861 115.183 108.965L117.094 110.072C118.758 111.034 120.061 113.298 120.061 115.225V117.439C120.061 119.095 121.225 121.116 122.655 121.943L131.808 127.243C131.986 127.346 132.047 127.575 131.944 127.755C131.874 127.875 131.749 127.942 131.62 127.942Z" fill="#03FFCF"/>
<path d="M135.179 125.886C135.116 125.886 135.051 125.87 134.993 125.836L125.84 120.536C124.177 119.572 122.873 117.309 122.873 115.382V113.169C122.873 111.512 121.709 109.492 120.279 108.664L118.367 107.557C118.189 107.453 118.128 107.224 118.23 107.045C118.334 106.866 118.562 106.805 118.741 106.908L120.652 108.015C122.316 108.979 123.619 111.242 123.619 113.169V115.382C123.619 117.039 124.782 119.059 126.213 119.888L135.366 125.187C135.544 125.29 135.606 125.52 135.503 125.699C135.434 125.819 135.308 125.886 135.179 125.886Z" fill="#03FFCF"/>
<path d="M138.739 123.828C138.676 123.828 138.611 123.812 138.553 123.778L129.4 118.478C127.736 117.515 126.433 115.251 126.433 113.325V111.111C126.433 109.455 125.269 107.434 123.839 106.606L121.928 105.5C121.749 105.396 121.688 105.167 121.791 104.988C121.893 104.809 122.123 104.748 122.301 104.851L124.212 105.957C125.876 106.921 127.18 109.184 127.18 111.111V113.325C127.18 114.981 128.343 117.001 129.773 117.829L138.926 123.129C139.104 123.232 139.165 123.461 139.062 123.64C138.993 123.761 138.868 123.828 138.739 123.828Z" fill="#03FFCF"/>
<path d="M142.299 121.771C142.235 121.771 142.171 121.755 142.112 121.721L132.96 116.422C131.296 115.458 129.993 113.195 129.993 111.268V109.054C129.993 107.398 128.829 105.378 127.399 104.55L125.487 103.443C125.309 103.339 125.247 103.11 125.35 102.932C125.453 102.752 125.682 102.691 125.861 102.794L127.772 103.901C129.435 104.864 130.739 107.128 130.739 109.054V111.268C130.739 112.925 131.903 114.945 133.332 115.773L142.485 121.072C142.663 121.176 142.724 121.405 142.622 121.584C142.553 121.704 142.428 121.771 142.299 121.771Z" fill="#03FFCF"/>
<path d="M145.859 119.714C145.795 119.714 145.731 119.697 145.673 119.663L136.52 114.364C134.856 113.4 133.553 111.136 133.553 109.21V106.997C133.553 105.341 132.389 103.32 130.959 102.491L129.048 101.385C128.869 101.281 128.808 101.052 128.911 100.873C129.014 100.693 129.243 100.633 129.421 100.735L131.333 101.842C132.996 102.806 134.3 105.07 134.3 106.996V109.209C134.3 110.866 135.463 112.886 136.894 113.715L146.046 119.014C146.224 119.117 146.286 119.347 146.183 119.526C146.114 119.646 145.988 119.714 145.859 119.714Z" fill="#03FFCF"/>
<path d="M149.419 117.656C149.355 117.656 149.291 117.64 149.232 117.606L140.079 112.307C138.416 111.343 137.112 109.08 137.112 107.153V104.939C137.112 103.283 135.948 101.263 134.518 100.435L132.606 99.3279C132.428 99.2244 132.367 98.9952 132.47 98.8159C132.573 98.6367 132.801 98.5759 132.98 98.6788L134.891 99.7857C136.555 100.749 137.859 103.012 137.859 104.939V107.153C137.859 108.809 139.022 110.83 140.452 111.657L149.604 116.957C149.783 117.06 149.844 117.289 149.741 117.469C149.673 117.589 149.548 117.656 149.419 117.656Z" fill="#03FFCF"/>
<path d="M152.978 115.6C152.915 115.6 152.851 115.583 152.792 115.549L143.64 110.25C141.976 109.287 140.673 107.023 140.673 105.097V102.883C140.673 101.227 139.509 99.2059 138.079 98.3782L136.167 97.2712C135.989 97.1678 135.928 96.9386 136.031 96.7593C136.133 96.58 136.362 96.5193 136.541 96.6221L138.452 97.7291C140.116 98.6922 141.42 100.956 141.42 102.882V105.096C141.42 106.752 142.583 108.773 144.014 109.601L153.166 114.9C153.344 115.004 153.405 115.233 153.302 115.412C153.233 115.532 153.107 115.6 152.978 115.6Z" fill="#03FFCF"/>
<path d="M156.539 113.543C156.475 113.543 156.411 113.527 156.352 113.493L147.199 108.194C145.536 107.23 144.232 104.967 144.232 103.04V100.827C144.232 99.1704 143.069 97.1497 141.638 96.3213L139.727 95.2144C139.549 95.1109 139.488 94.8817 139.59 94.7024C139.693 94.5232 139.921 94.4618 140.1 94.5653L142.012 95.6722C143.676 96.6359 144.979 98.8997 144.979 100.826V103.039C144.979 104.695 146.142 106.717 147.572 107.544L156.725 112.844C156.903 112.947 156.964 113.177 156.862 113.356C156.793 113.476 156.667 113.543 156.539 113.543Z" fill="#03FFCF"/>
<path d="M160.099 111.486C160.035 111.486 159.971 111.47 159.912 111.435L150.759 106.136C149.096 105.173 147.792 102.909 147.792 100.983V98.7691C147.792 97.1129 146.629 95.0922 145.199 94.2644L143.287 93.1575C143.109 93.054 143.048 92.8248 143.15 92.6455C143.253 92.4663 143.481 92.4055 143.661 92.5084L145.572 93.6153C147.236 94.5784 148.539 96.8422 148.539 98.7685V100.982C148.539 102.638 149.702 104.659 151.133 105.487L160.285 110.786C160.463 110.89 160.524 111.119 160.422 111.298C160.353 111.418 160.227 111.486 160.099 111.486Z" fill="#03FFCF"/>
<path d="M163.658 109.429C163.595 109.429 163.531 109.412 163.472 109.378L154.32 104.079C152.656 103.115 151.353 100.851 151.353 98.9249V96.7117C151.353 95.0555 150.189 93.0342 148.759 92.2064L146.847 91.0995C146.669 90.996 146.607 90.7669 146.711 90.5876C146.814 90.4083 147.042 90.3469 147.221 90.4504L149.132 91.5573C150.796 92.5205 152.1 94.7842 152.1 96.7111V98.9243C152.1 100.581 153.263 102.601 154.693 103.43L163.845 108.729C164.024 108.832 164.085 109.062 163.982 109.241C163.913 109.361 163.787 109.429 163.658 109.429Z" fill="#03FFCF"/>
<path d="M167.218 107.371C167.154 107.371 167.09 107.355 167.031 107.321L157.879 102.021C156.216 101.059 154.912 98.7951 154.912 96.8682V94.6543C154.912 92.9982 153.749 90.9775 152.318 90.1491L150.407 89.0428C150.228 88.9393 150.167 88.7101 150.27 88.5308C150.374 88.3521 150.603 88.2902 150.78 88.3936L152.692 89.5C154.356 90.4637 155.659 92.7275 155.659 94.6537V96.8676C155.659 98.5237 156.823 100.544 158.253 101.372L167.406 106.672C167.584 106.775 167.645 107.004 167.543 107.184C167.472 107.304 167.347 107.371 167.218 107.371Z" fill="#03FFCF"/>
<path d="M170.778 105.314C170.714 105.314 170.65 105.297 170.591 105.263L161.439 99.9638C159.776 99.0006 158.472 96.7374 158.472 94.8106V92.5967C158.472 90.9406 157.309 88.9199 155.879 88.0921L153.967 86.9852C153.789 86.8817 153.727 86.6525 153.83 86.4732C153.933 86.2939 154.161 86.2326 154.341 86.336L156.252 87.443C157.916 88.4061 159.219 90.6699 159.219 92.5961V94.81C159.219 96.4661 160.383 98.4869 161.813 99.3146L170.966 104.614C171.144 104.717 171.205 104.947 171.102 105.126C171.032 105.246 170.907 105.314 170.778 105.314Z" fill="#03FFCF"/>
<path d="M174.338 103.257C174.274 103.257 174.21 103.241 174.151 103.206L164.999 97.9069C163.335 96.9432 162.032 94.6794 162.032 92.7531V90.5399C162.032 88.8837 160.868 86.863 159.438 86.0346L157.526 84.9277C157.348 84.8242 157.287 84.595 157.39 84.4158C157.492 84.2359 157.721 84.1757 157.9 84.2792L159.811 85.3861C161.475 86.3499 162.778 88.6136 162.778 90.5399V92.7531C162.778 94.4093 163.942 96.43 165.372 97.2584L174.525 102.558C174.703 102.661 174.764 102.89 174.662 103.07C174.593 103.189 174.467 103.257 174.338 103.257Z" fill="#03FFCF"/>
<path d="M177.898 101.2C177.834 101.2 177.77 101.183 177.711 101.149L168.558 95.8498C166.895 94.8866 165.591 92.6235 165.591 90.6966V88.4828C165.591 86.8266 164.428 84.8059 162.997 83.9781L161.085 82.8712C160.907 82.7677 160.846 82.5385 160.949 82.3592C161.052 82.18 161.28 82.1186 161.459 82.2227L163.371 83.3296C165.035 84.2921 166.338 86.5559 166.338 88.4828V90.6966C166.338 92.3528 167.501 94.3735 168.931 95.2013L178.084 100.501C178.262 100.604 178.323 100.833 178.221 101.013C178.152 101.132 178.026 101.2 177.898 101.2Z" fill="#03FFCF"/>
<path d="M181.458 99.1426C181.394 99.1426 181.33 99.1264 181.271 99.0921L172.118 93.7933C170.454 92.8296 169.151 90.5658 169.151 88.6395V86.4257C169.151 84.7695 167.988 82.7488 166.557 81.921L164.645 80.8141C164.467 80.7106 164.406 80.4814 164.509 80.3022C164.611 80.1223 164.84 80.0621 165.019 80.165L166.93 81.2719C168.594 82.2351 169.898 84.4982 169.898 86.4251V88.6389C169.898 90.2951 171.061 92.3158 172.492 93.1442L181.644 98.443C181.822 98.5464 181.884 98.7756 181.78 98.9549C181.712 99.0752 181.586 99.1426 181.458 99.1426Z" fill="#03FFCF"/>
<path d="M185.017 97.0854C184.954 97.0854 184.89 97.0692 184.831 97.0349L175.678 91.7355C174.015 90.7724 172.711 88.5086 172.711 86.5818V84.3685C172.711 82.7124 171.547 80.6916 170.117 79.8632L168.206 78.7563C168.028 78.6529 167.966 78.4237 168.069 78.2444C168.172 78.0651 168.4 78.0037 168.58 78.1078L170.491 79.2147C172.155 80.1785 173.459 82.4422 173.459 84.3685V86.5818C173.459 88.2379 174.622 90.2592 176.052 91.087L185.204 96.3864C185.383 96.4899 185.444 96.719 185.341 96.8977C185.272 97.018 185.146 97.0854 185.017 97.0854Z" fill="#03FFCF"/>
<path d="M188.577 95.0282C188.513 95.0282 188.449 95.012 188.39 94.9777L179.238 89.6783C177.574 88.7152 176.271 86.4514 176.271 84.5252V82.3113C176.271 80.6552 175.107 78.6344 173.677 77.8067L171.765 76.6997C171.587 76.5963 171.526 76.3671 171.629 76.1878C171.731 76.0079 171.96 75.9478 172.139 76.0506L174.051 77.1575C175.714 78.1201 177.018 80.3838 177.018 82.3107V84.5246C177.018 86.1807 178.181 88.2014 179.611 89.0292L188.764 94.3286C188.942 94.4321 189.003 94.6613 188.9 94.8405C188.831 94.9609 188.706 95.0282 188.577 95.0282Z" fill="#03FFCF"/>
<path d="M192.137 92.9712C192.074 92.9712 192.009 92.9549 191.951 92.9206L182.798 87.6213C181.134 86.6575 179.831 84.3938 179.831 82.4675V80.2537C179.831 78.5975 178.667 76.5768 177.237 75.749L175.325 74.6421C175.147 74.5386 175.086 74.3094 175.189 74.1301C175.292 73.9508 175.52 73.8895 175.699 73.9936L177.611 75.1005C179.274 76.0636 180.578 78.3268 180.578 80.2537V82.4675C180.578 84.1237 181.741 86.1444 183.172 86.9728L192.324 92.2721C192.502 92.3756 192.564 92.6048 192.461 92.7841C192.391 92.9038 192.266 92.9712 192.137 92.9712Z" fill="#03FFCF"/>
<path d="M88.9331 127.942C88.8042 127.942 88.6788 127.875 88.6092 127.755C88.506 127.576 88.5672 127.346 88.746 127.243L97.8986 121.944C99.3287 121.116 100.493 119.095 100.493 117.439V115.225C100.493 113.298 101.796 111.034 103.46 110.072L105.371 108.965C105.55 108.861 105.779 108.923 105.881 109.102C105.985 109.281 105.923 109.511 105.745 109.614L103.833 110.721C102.403 111.549 101.239 113.569 101.239 115.226V117.439C101.239 119.366 99.9365 121.63 98.2723 122.593L89.1203 127.892C89.0609 127.926 88.9967 127.942 88.9331 127.942Z" fill="#03FFCF"/>
<path d="M85.3735 125.886C85.2445 125.886 85.1191 125.818 85.0501 125.699C84.947 125.519 85.0081 125.29 85.1869 125.187L94.3395 119.887C95.7697 119.059 96.9335 117.038 96.9335 115.382V113.169C96.9335 111.242 98.2371 108.978 99.9012 108.015L101.812 106.908C101.991 106.805 102.22 106.867 102.323 107.045C102.426 107.224 102.365 107.453 102.186 107.557L100.275 108.664C98.8441 109.491 97.6809 111.512 97.6809 113.169V115.382C97.6809 117.308 96.378 119.573 94.7139 120.536L85.5612 125.835C85.5012 125.87 85.4371 125.886 85.3735 125.886Z" fill="#03FFCF"/>
<path d="M81.8135 123.829C81.6846 123.829 81.5592 123.761 81.4896 123.641C81.3864 123.462 81.4476 123.232 81.6264 123.129L90.779 117.83C92.2091 117.002 93.3729 114.982 93.3729 113.325V111.112C93.3729 109.185 94.6765 106.921 96.34 105.958L98.2519 104.852C98.43 104.748 98.6586 104.81 98.7618 104.989C98.865 105.168 98.8038 105.397 98.625 105.501L96.7137 106.607C95.2836 107.435 94.1198 109.456 94.1198 111.112V113.326C94.1198 115.252 92.8168 117.517 91.1527 118.479L82.0007 123.779C81.9413 123.812 81.8771 123.829 81.8135 123.829Z" fill="#03FFCF"/>
<path d="M78.2544 121.771C78.1254 121.771 78 121.703 77.931 121.583C77.8278 121.404 77.889 121.175 78.0672 121.072L87.2198 115.772C88.65 114.944 89.8138 112.924 89.8138 111.267V109.054C89.8138 107.127 91.1173 104.863 92.7814 103.9L94.6927 102.794C94.8709 102.689 95.1 102.752 95.2032 102.931C95.3064 103.11 95.2452 103.339 95.0665 103.442L93.1546 104.549C91.7238 105.377 90.5606 107.397 90.5606 109.054V111.267C90.5606 113.194 89.2577 115.458 87.5935 116.421L78.4415 121.72C78.3821 121.754 78.3173 121.771 78.2544 121.771Z" fill="#03FFCF"/>
<path d="M74.6939 119.713C74.5649 119.713 74.4395 119.646 74.37 119.526C74.2668 119.347 74.328 119.118 74.5067 119.014L83.6594 113.715C85.0895 112.887 86.2533 110.866 86.2533 109.21V106.997C86.2533 105.07 87.5563 102.806 89.2204 101.843L91.1317 100.736C91.311 100.632 91.539 100.694 91.6422 100.873C91.7454 101.052 91.6841 101.281 91.5054 101.385L89.5941 102.492C88.164 103.32 87.0002 105.341 87.0002 106.997V109.21C87.0002 111.137 85.6972 113.401 84.0331 114.364L74.8805 119.664C74.8217 119.697 74.7569 119.713 74.6939 119.713Z" fill="#03FFCF"/>
<path d="M71.1343 117.656C71.0054 117.656 70.88 117.589 70.8104 117.469C70.7072 117.29 70.7684 117.06 70.9472 116.957L80.0998 111.658C81.5299 110.83 82.6937 108.809 82.6937 107.153V104.939C82.6937 103.013 83.9967 100.748 85.6608 99.7858L87.5721 98.6789C87.7509 98.5755 87.9794 98.6374 88.082 98.8161C88.1852 98.9954 88.124 99.2246 87.9452 99.328L86.034 100.435C84.6038 101.263 83.44 103.283 83.44 104.94V107.153C83.44 109.08 82.137 111.344 80.4729 112.307L71.3209 117.606C71.2621 117.64 71.1973 117.656 71.1343 117.656Z" fill="#03FFCF"/>
<path d="M67.5747 115.6C67.4458 115.6 67.3204 115.532 67.2508 115.412C67.1476 115.233 67.2088 115.003 67.3876 114.9L76.5402 109.601C77.9703 108.773 79.1335 106.752 79.1335 105.096V102.882C79.1335 100.956 80.4365 98.6915 82.1006 97.7289L84.0119 96.622C84.1901 96.5191 84.4192 96.5805 84.5224 96.7592C84.6256 96.9385 84.5644 97.1676 84.3856 97.2711L82.4744 98.378C81.0442 99.2058 79.8804 101.227 79.8804 102.883V105.097C79.8804 107.023 78.5774 109.287 76.9133 110.25L67.7607 115.549C67.7025 115.583 67.6377 115.6 67.5747 115.6Z" fill="#03FFCF"/>
<path d="M64.0146 113.543C63.8856 113.543 63.7603 113.476 63.6913 113.356C63.5881 113.177 63.6493 112.947 63.8275 112.844L72.9795 107.545C74.4096 106.717 75.5734 104.696 75.5734 103.039V100.826C75.5734 98.8998 76.8764 96.6355 78.5405 95.6723L80.4524 94.5654C80.6311 94.4614 80.8591 94.5239 80.9629 94.7026C81.0661 94.8819 81.0049 95.111 80.8261 95.2145L78.9148 96.3215C77.4847 97.1498 76.3209 99.1706 76.3209 100.827V103.04C76.3209 104.967 75.0173 107.231 73.3532 108.194L64.2012 113.493C64.1418 113.526 64.0776 113.543 64.0146 113.543Z" fill="#03FFCF"/>
<path d="M60.4545 111.486C60.3256 111.486 60.2002 111.418 60.1312 111.298C60.028 111.119 60.0892 110.89 60.268 110.786L69.42 105.487C70.8501 104.659 72.0139 102.639 72.0139 100.982V98.7686C72.0139 96.8423 73.3169 94.578 74.981 93.6154L76.8923 92.5085C77.0711 92.405 77.2996 92.467 77.4028 92.6457C77.506 92.8249 77.4448 93.0542 77.266 93.1576L75.3542 94.2645C73.924 95.0923 72.7602 97.1131 72.7602 98.7692V100.983C72.7602 102.91 71.4566 105.174 69.7925 106.136L60.6405 111.436C60.5823 111.469 60.5181 111.486 60.4545 111.486Z" fill="#03FFCF"/>
<path d="M56.8946 109.429C56.7656 109.429 56.6402 109.362 56.5706 109.242C56.4675 109.063 56.5286 108.833 56.7074 108.73L65.8594 103.431C67.2896 102.602 68.4534 100.581 68.4534 98.9253V96.7121C68.4534 94.7852 69.7564 92.5209 71.4205 91.5583L73.3317 90.4514C73.5111 90.3479 73.7391 90.4099 73.8422 90.5886C73.9454 90.7678 73.8842 90.997 73.7055 91.1005L71.7936 92.2074C70.3635 93.0352 69.1996 95.0565 69.1996 96.7127V98.9259C69.1996 100.852 67.8961 103.117 66.2326 104.08L57.0806 109.379C57.0224 109.412 56.9582 109.429 56.8946 109.429Z" fill="#03FFCF"/>
<path d="M53.3345 107.372C53.2055 107.372 53.0802 107.304 53.0106 107.184C52.9074 107.005 52.9686 106.775 53.1474 106.672L62.3 101.373C63.7301 100.545 64.8939 98.524 64.8939 96.8678V94.654C64.8939 92.7277 66.1969 90.4634 67.861 89.5002L69.7729 88.3939C69.951 88.2898 70.1802 88.3524 70.2828 88.5311C70.386 88.7103 70.3248 88.9396 70.146 89.043L68.2347 90.1493C66.8046 90.9777 65.6414 92.9984 65.6414 94.6546V96.8684C65.6414 98.7953 64.3378 101.059 62.6737 102.022L53.5217 107.321C53.4623 107.355 53.3975 107.372 53.3345 107.372Z" fill="#03FFCF"/>
<path d="M49.7754 105.314C49.6465 105.314 49.5211 105.247 49.4515 105.127C49.3483 104.948 49.4095 104.719 49.5883 104.615L58.7409 99.3157C60.1711 98.488 61.3349 96.4672 61.3349 94.8111V92.5972C61.3349 90.6704 62.6384 88.4066 64.3025 87.4441L66.2138 86.3371C66.392 86.2337 66.6211 86.295 66.7237 86.4743C66.8269 86.6536 66.7657 86.8828 66.5869 86.9863L64.6757 88.0932C63.2449 88.9209 62.0817 90.9417 62.0817 92.5978V94.8117C62.0817 96.7385 60.7787 99.0023 59.1146 99.9649L49.9626 105.264C49.9032 105.298 49.8384 105.314 49.7754 105.314Z" fill="#03FFCF"/>
<path d="M46.2153 103.257C46.0863 103.257 45.9609 103.19 45.892 103.069C45.7888 102.89 45.85 102.661 46.0281 102.557L55.1807 97.258C56.6109 96.4296 57.7747 94.4089 57.7747 92.7527V90.5395C57.7747 88.6132 59.0783 86.3489 60.7418 85.3857L62.653 84.2788C62.8318 84.1753 63.0604 84.2373 63.1635 84.4154C63.2667 84.5946 63.2055 84.8238 63.0268 84.9273L61.1149 86.0342C59.6848 86.8626 58.521 88.8833 58.521 90.5395V92.7527C58.521 94.679 57.218 96.9434 55.5539 97.9065L46.4013 103.206C46.3431 103.241 46.2783 103.257 46.2153 103.257Z" fill="#03FFCF"/>
<path d="M42.6557 101.199C42.5267 101.199 42.4013 101.132 42.3324 101.012C42.2292 100.833 42.2904 100.604 42.4691 100.5L51.6217 95.2008C53.0519 94.373 54.2157 92.3522 54.2157 90.6961V88.4823C54.2157 86.5554 55.5193 84.2916 57.1834 83.3291L59.0946 82.2222C59.2734 82.1187 59.502 82.1806 59.6052 82.3587C59.7083 82.538 59.6471 82.7672 59.4684 82.8707L57.5571 83.9776C56.1264 84.8054 54.9632 86.8261 54.9632 88.4823V90.6961C54.9632 92.6224 53.6602 94.8867 51.9961 95.8492L42.8441 101.149C42.7835 101.183 42.7187 101.199 42.6557 101.199Z" fill="#03FFCF"/>
<path d="M39.0958 99.1426C38.9668 99.1426 38.8414 99.0752 38.7718 98.9555C38.6686 98.7763 38.7298 98.5471 38.9086 98.4436L48.0612 93.1448C49.4914 92.3164 50.6546 90.2957 50.6546 88.6396V86.4257C50.6546 84.4988 51.9581 82.2351 53.6222 81.2726L55.5335 80.1656C55.7129 80.0622 55.9408 80.1235 56.044 80.3028C56.1472 80.4821 56.086 80.7113 55.9078 80.8147L53.996 81.9217C52.5652 82.7494 51.402 84.7702 51.402 86.4263V88.6402C51.402 90.5664 50.099 92.8308 48.4349 93.7939L39.2823 99.0927C39.2229 99.1264 39.1587 99.1426 39.0958 99.1426Z" fill="#03FFCF"/>
<path d="M35.5352 97.086C35.4062 97.086 35.2809 97.0186 35.2113 96.8983C35.1081 96.719 35.1693 96.4898 35.348 96.387L44.5007 91.0876C45.9308 90.2598 47.0946 88.2385 47.0946 86.5823V84.3691C47.0946 82.4428 48.3982 80.1785 50.0617 79.2153L51.973 78.1084C52.1517 78.0049 52.3803 78.0669 52.4835 78.245C52.5867 78.4242 52.5255 78.6534 52.3467 78.7569L50.4354 79.8638C49.0053 80.6922 47.8415 82.7129 47.8415 84.3691V86.5823C47.8415 88.5092 46.5385 90.7736 44.8744 91.7361L35.7224 97.0354C35.663 97.0697 35.5988 97.086 35.5352 97.086Z" fill="#03FFCF"/>
<path d="M31.9756 95.0276C31.8467 95.0276 31.7213 94.9603 31.6517 94.8405C31.5485 94.6613 31.6097 94.4321 31.7885 94.3286L40.9411 89.0292C42.3712 88.2014 43.535 86.1807 43.535 84.5246V82.3107C43.535 80.3844 44.838 78.1201 46.5021 77.1575L48.4134 76.0506C48.5922 75.9472 48.8207 76.0091 48.9233 76.1878C49.0265 76.3671 48.9653 76.5963 48.7865 76.6997L46.8753 77.8067C45.4451 78.6344 44.2813 80.6552 44.2813 82.3113V84.5252C44.2813 86.4514 42.9783 88.7158 41.3142 89.6783L32.1622 94.9777C32.1034 95.0114 32.0392 95.0276 31.9756 95.0276Z" fill="#03FFCF"/>
<path d="M28.4159 92.9708C28.287 92.9708 28.1616 92.9034 28.0926 92.7837C27.9894 92.6044 28.0506 92.3752 28.2294 92.2717L37.382 86.9724C38.8121 86.144 39.9759 84.1233 39.9759 82.4671V80.2533C39.9759 78.327 41.2789 76.0626 42.943 75.1001L44.8543 73.9932C45.0325 73.8897 45.2616 73.9511 45.3648 74.1297C45.468 74.309 45.4068 74.5382 45.228 74.6417L43.3168 75.7486C41.8866 76.5764 40.7228 78.5971 40.7228 80.2533V82.4671C40.7228 84.3934 39.4198 86.6577 37.7557 87.6209L28.6031 92.9202C28.5437 92.9545 28.4795 92.9708 28.4159 92.9708Z" fill="#03FFCF"/>
<path d="M92.4932 130C92.3642 130 92.2389 129.932 92.1693 129.812C92.0661 129.633 92.1273 129.403 92.306 129.3L101.459 124.001C102.889 123.173 104.053 121.152 104.053 119.496V117.282C104.053 115.356 105.356 113.091 107.02 112.128L108.931 111.021C109.11 110.918 109.338 110.98 109.441 111.158C109.545 111.337 109.483 111.566 109.305 111.67L107.393 112.777C105.963 113.605 104.799 115.626 104.799 117.282V119.496C104.799 121.423 103.497 123.687 101.832 124.649L92.6804 129.948C92.621 129.983 92.5568 130 92.4932 130Z" fill="#03FFCF"/>
<path d="M24.856 90.9138C24.727 90.9138 24.6016 90.8465 24.5321 90.7261C24.4289 90.5469 24.4901 90.3177 24.6689 90.2142L33.8215 84.9148C35.2516 84.0871 36.4154 82.0663 36.4154 80.4102V78.1963C36.4154 76.2701 37.7184 74.0057 39.3825 73.0426L41.2938 71.9356C41.4725 71.8322 41.7005 71.8941 41.8043 72.0728C41.9075 72.2521 41.8463 72.4813 41.6675 72.5847L39.7562 73.6917C38.3261 74.52 37.1623 76.5408 37.1623 78.1969V80.4108C37.1623 82.337 35.8593 84.6014 34.1952 85.5639L25.0432 90.8633C24.9838 90.8976 24.9196 90.9138 24.856 90.9138Z" fill="#03FFCF"/>
<defs>
<linearGradient id="paint0_linear_1_1783" x1="0.551758" y1="20.6769" x2="57.7692" y2="20.6769" gradientUnits="userSpaceOnUse">
<stop stop-color="#5761D7"/>
<stop offset="0.0726" stop-color="#5472D8"/>
<stop offset="0.2791" stop-color="#4E9CDB"/>
<stop offset="0.4801" stop-color="#49BDDD"/>
<stop offset="0.6715" stop-color="#45D5DF"/>
<stop offset="0.8493" stop-color="#43E3E0"/>
<stop offset="1" stop-color="#42E8E0"/>
</linearGradient>
<linearGradient id="paint1_linear_1_1783" x1="0.551758" y1="16.2626" x2="57.7692" y2="16.2626" gradientUnits="userSpaceOnUse">
<stop stop-color="#5783D7"/>
<stop offset="0.0726" stop-color="#5491D8"/>
<stop offset="0.2791" stop-color="#4E9CDB"/>
<stop offset="0.4801" stop-color="#49BDDD"/>
<stop offset="0.6715" stop-color="#45D5DF"/>
<stop offset="0.8493" stop-color="#43E3E0"/>
<stop offset="1" stop-color="#42E8E0"/>
</linearGradient>
<linearGradient id="paint2_linear_1_1783" x1="0.551946" y1="20.6765" x2="57.7693" y2="20.6765" gradientUnits="userSpaceOnUse">
<stop stop-color="#5761D7"/>
<stop offset="0.0726" stop-color="#5472D8"/>
<stop offset="0.2791" stop-color="#4E9CDB"/>
<stop offset="0.4801" stop-color="#49BDDD"/>
<stop offset="0.6715" stop-color="#45D5DF"/>
<stop offset="0.8493" stop-color="#43E3E0"/>
<stop offset="1" stop-color="#42E8E0"/>
</linearGradient>
<linearGradient id="paint3_linear_1_1783" x1="0.551758" y1="16.2626" x2="57.7692" y2="16.2626" gradientUnits="userSpaceOnUse">
<stop stop-color="#5783D7"/>
<stop offset="0.0726" stop-color="#5491D8"/>
<stop offset="0.2791" stop-color="#4E9CDB"/>
<stop offset="0.4801" stop-color="#49BDDD"/>
<stop offset="0.6715" stop-color="#45D5DF"/>
<stop offset="0.8493" stop-color="#43E3E0"/>
<stop offset="1" stop-color="#42E8E0"/>
</linearGradient>
<linearGradient id="paint4_linear_1_1783" x1="0.552403" y1="24.2181" x2="57.769" y2="24.2181" gradientUnits="userSpaceOnUse">
<stop stop-color="#5761D7"/>
<stop offset="0.0726" stop-color="#5472D8"/>
<stop offset="0.2791" stop-color="#4E9CDB"/>
<stop offset="0.4801" stop-color="#49BDDD"/>
<stop offset="0.6715" stop-color="#45D5DF"/>
<stop offset="0.8493" stop-color="#43E3E0"/>
<stop offset="1" stop-color="#42E8E0"/>
</linearGradient>
<linearGradient id="paint5_linear_1_1783" x1="5.29603" y1="95.7344" x2="185.544" y2="95.7344" gradientUnits="userSpaceOnUse">
<stop stop-color="#577BD7"/>
<stop offset="0.1645" stop-color="#5EA6DA"/>
<stop offset="0.4051" stop-color="#72CEE2"/>
<stop offset="0.6924" stop-color="#92EEE3"/>
<stop offset="1" stop-color="#BCFFFB"/>
</linearGradient>
<linearGradient id="paint6_linear_1_1783" x1="56.3062" y1="71.3086" x2="164.496" y2="71.3086" gradientUnits="userSpaceOnUse">
<stop stop-color="#42E8E0"/>
<stop offset="0.1507" stop-color="#43E3E0"/>
<stop offset="0.3285" stop-color="#45D5DF"/>
<stop offset="0.5199" stop-color="#49BDDD"/>
<stop offset="0.7209" stop-color="#4E9CDB"/>
<stop offset="0.9274" stop-color="#5472D8"/>
<stop offset="1" stop-color="#5761D7"/>
</linearGradient>
<linearGradient id="paint7_linear_1_1783" x1="110.4" y1="51.7006" x2="164.496" y2="51.7006" gradientUnits="userSpaceOnUse">
<stop stop-color="#42E8E0"/>
<stop offset="0.1507" stop-color="#43E3E0"/>
<stop offset="0.3285" stop-color="#45D5DF"/>
<stop offset="0.5199" stop-color="#49BDDD"/>
<stop offset="0.7209" stop-color="#4E9CDB"/>
<stop offset="0.9274" stop-color="#5472D8"/>
<stop offset="1" stop-color="#5761D7"/>
</linearGradient>
<linearGradient id="paint8_linear_1_1783" x1="56.3062" y1="51.7004" x2="110.402" y2="51.7004" gradientUnits="userSpaceOnUse">
<stop stop-color="#42E8E0"/>
<stop offset="0.1507" stop-color="#43E3E0"/>
<stop offset="0.3285" stop-color="#45D5DF"/>
<stop offset="0.5199" stop-color="#49BDDD"/>
<stop offset="0.7209" stop-color="#4E9CDB"/>
<stop offset="0.9274" stop-color="#5472D8"/>
<stop offset="1" stop-color="#5761D7"/>
</linearGradient>
<linearGradient id="paint9_linear_1_1783" x1="56.3062" y1="63.4117" x2="164.496" y2="63.4117" gradientUnits="userSpaceOnUse">
<stop stop-color="#42E8E0"/>
<stop offset="0.1507" stop-color="#43E3E0"/>
<stop offset="0.3285" stop-color="#45D5DF"/>
<stop offset="0.5199" stop-color="#49BDDD"/>
<stop offset="0.7209" stop-color="#4E9CDB"/>
<stop offset="0.9274" stop-color="#5472D8"/>
<stop offset="1" stop-color="#5761D7"/>
</linearGradient>
<linearGradient id="paint10_linear_1_1783" x1="110.402" y1="83.0197" x2="164.496" y2="83.0197" gradientUnits="userSpaceOnUse">
<stop stop-color="#42E8E0"/>
<stop offset="0.1507" stop-color="#43E3E0"/>
<stop offset="0.3285" stop-color="#45D5DF"/>
<stop offset="0.5199" stop-color="#49BDDD"/>
<stop offset="0.7209" stop-color="#4E9CDB"/>
<stop offset="0.9274" stop-color="#5472D8"/>
<stop offset="1" stop-color="#5761D7"/>
</linearGradient>
<linearGradient id="paint11_linear_1_1783" x1="56.3062" y1="83.0192" x2="110.402" y2="83.0192" gradientUnits="userSpaceOnUse">
<stop stop-color="#42E8E0"/>
<stop offset="0.1507" stop-color="#43E3E0"/>
<stop offset="0.3285" stop-color="#45D5DF"/>
<stop offset="0.5199" stop-color="#49BDDD"/>
<stop offset="0.7209" stop-color="#4E9CDB"/>
<stop offset="0.9274" stop-color="#5472D8"/>
<stop offset="1" stop-color="#5761D7"/>
</linearGradient>
</defs>
</svg>
