<svg width="119" height="130" viewBox="0 0 119 130" fill="none" xmlns="http://www.w3.org/2000/svg">
<path opacity="0.4" d="M63.8041 122.719C56.3011 122.719 48.7994 121.07 43.0876 117.772C37.5316 114.564 34.4717 110.292 34.4717 105.743C34.4717 101.194 37.5316 96.9214 43.0871 93.714C54.5104 87.1194 73.0966 87.1194 84.519 93.7144C90.0749 96.9223 93.1349 101.194 93.1349 105.744C93.1349 110.294 90.0749 114.565 84.5194 117.773C78.8089 121.07 71.3058 122.719 63.8041 122.719ZM63.8024 89.0037C56.3435 89.0037 48.8851 90.6426 43.2068 93.9211C37.7281 97.0844 34.7106 101.283 34.7106 105.744C34.711 110.204 37.7281 114.402 43.2073 117.566C54.5638 124.123 73.0427 124.124 84.3993 117.566C89.8779 114.403 92.8955 110.205 92.8955 105.745C92.8955 101.284 89.8779 97.0857 84.3988 93.9224C78.721 90.643 71.2617 89.0037 63.8024 89.0037Z" fill="#03FFCF"/>
<path opacity="0.2" d="M63.8036 127.267C54.2829 127.267 44.7648 125.175 37.5165 120.99C30.4724 116.923 26.5932 111.508 26.5928 105.745C26.5928 99.9797 30.4719 94.566 37.5157 90.4991C52.0099 82.131 75.5943 82.1305 90.0894 90.4996C97.1336 94.5664 101.013 99.981 101.013 105.745C101.013 111.51 97.134 116.924 90.0903 120.99C82.8438 125.174 73.3226 127.267 63.8036 127.267ZM63.8019 84.4583C54.3253 84.4583 44.8496 86.5409 37.6353 90.7058C30.6684 94.728 26.8317 100.069 26.8317 105.745C26.8317 111.42 30.6689 116.761 37.6362 120.783C52.0651 129.114 75.5422 129.113 89.9702 120.784C96.9371 116.761 100.774 111.421 100.774 105.745C100.774 100.07 96.9371 94.7289 89.9693 90.7062C82.7551 86.5414 73.278 84.4583 63.8019 84.4583Z" fill="#03FFCF"/>
<path d="M63.8042 119.138C57.8906 119.139 51.9787 117.839 47.4764 115.24C43.0925 112.709 40.6782 109.336 40.6782 105.744C40.6782 102.152 43.0921 98.7796 47.4756 96.2492C56.4788 91.0509 71.1271 91.0518 80.1298 96.2492C84.5138 98.7801 86.9276 102.152 86.9276 105.745C86.9276 109.337 84.5138 112.709 80.1303 115.24C75.6302 117.839 69.7166 119.138 63.8042 119.138ZM63.8025 92.5864C57.933 92.5864 52.0635 93.8764 47.5957 96.4563C43.289 98.9426 40.9176 102.241 40.9176 105.744C40.9176 109.248 43.2895 112.546 47.5966 115.033C56.5331 120.193 71.0745 120.193 80.011 115.033C84.3177 112.547 86.6891 109.248 86.6891 105.745C86.6891 102.242 84.3172 98.943 80.0102 96.4563C75.5419 93.8764 69.672 92.5864 63.8025 92.5864Z" fill="#03FFCF"/>
<path d="M89.5825 73.4668L89.4629 73.6741L90.2279 74.1156L90.3475 73.9083L89.5825 73.4668Z" fill="#03FFCF"/>
<path d="M88.0675 72.875L86.6702 72.0682L86.7899 71.8606L88.1872 72.6674L88.0675 72.875ZM85.273 71.2618L83.8757 70.455L83.9958 70.2474L85.3931 71.0542L85.273 71.2618ZM82.478 69.6481L81.0803 68.8413L81.2004 68.6337L82.5981 69.4406L82.478 69.6481ZM79.683 68.0345L78.2857 67.2276L78.4059 67.0201L79.8031 67.8269L79.683 68.0345ZM76.8885 66.4213L75.4912 65.6144L75.6109 65.4069L77.0082 66.2137L76.8885 66.4213Z" fill="#03FFCF"/>
<path d="M73.4395 64.1644L73.3198 64.3717L74.0842 64.8132L74.2039 64.6059L73.4395 64.1644Z" fill="#03FFCF"/>
<g opacity="0.3">
<path d="M118.531 95.5108V92.4182L117.675 91.9426C117.434 93.4021 115.716 94.364 114.28 94.5636L104.499 100.283L100.231 101.824L86.6068 94.7932L86.9216 94.6113C85.7571 94.0672 85.13 92.8232 84.5003 91.6882L83.583 92.2354L83.0381 92.3886V95.5603C83.0381 96.1662 83.4377 96.7721 84.2366 97.2336L97.886 105.114C99.4842 106.037 102.084 106.037 103.683 105.114L117.332 97.234C118.118 96.78 118.517 96.1865 118.53 95.5903C118.531 95.5638 118.529 95.5373 118.528 95.5104L118.531 95.5108Z" fill="url(#paint0_linear_1_1326)"/>
<path opacity="0.3" d="M114.279 94.564L104.499 100.283L100.783 101.625V105.807C101.833 105.807 102.883 105.576 103.682 105.115L117.331 97.2344C118.117 96.7804 118.517 96.1869 118.529 95.5907C118.53 95.5642 118.529 95.5377 118.528 95.5108L118.529 95.5117V92.419L117.748 91.9845H117.666C117.399 93.4202 115.701 94.3661 114.279 94.564Z" fill="#02122B"/>
<path d="M97.8862 101.973L84.2367 94.092C82.6385 93.1694 82.6385 91.6679 84.2367 90.7454L97.8862 82.8652C99.4844 81.9427 102.085 81.9427 103.683 82.8652L117.333 90.7458C118.931 91.6684 118.931 93.1699 117.333 94.0924L103.683 101.973C102.085 102.896 99.4844 102.896 97.8862 101.973Z" fill="url(#paint1_linear_1_1326)"/>
<g opacity="0.3">
<path d="M97.8862 101.973L84.2367 94.092C82.6385 93.1694 82.6385 91.6679 84.2367 90.7454L97.8862 82.8652C99.4844 81.9427 102.085 81.9427 103.683 82.8652L117.333 90.7458C118.931 91.6684 118.931 93.1699 117.333 94.0924L103.683 101.973C102.085 102.896 99.4844 102.896 97.8862 101.973Z" fill="#02122B"/>
</g>
</g>
<path d="M100.783 92.0125C99.852 92.0125 98.9202 91.8076 98.211 91.3978L84.5611 83.5168C83.8528 83.1074 83.4624 82.5554 83.4624 81.9623C83.4624 81.3692 83.8528 80.8172 84.5611 80.4078L98.2101 72.5276C99.629 71.7089 101.937 71.7089 103.356 72.5276L117.005 80.4082C117.714 80.8176 118.104 81.3696 118.104 81.9627C118.104 82.5558 117.714 83.1078 117.005 83.5172L103.356 91.3978C102.647 91.8076 101.715 92.0125 100.783 92.0125ZM100.783 72.1496C99.8944 72.1496 99.0063 72.3448 98.3298 72.7352L84.6808 80.6154C84.0489 80.9801 83.7013 81.4584 83.7013 81.9627C83.7013 82.467 84.0489 82.9453 84.6808 83.3101L98.3307 91.1911C99.6825 91.9719 101.884 91.9719 103.236 91.1911L116.885 83.3105C117.517 82.9458 117.865 82.4675 117.865 81.9632C117.865 81.4588 117.517 80.9806 116.885 80.6158L103.236 72.7352C102.56 72.3448 101.671 72.1496 100.783 72.1496Z" fill="#03FFCF"/>
<path opacity="0.4" d="M118.53 78.9377V74.2636L117.674 73.788C117.433 75.2476 115.715 76.2094 114.279 76.409L104.498 82.1283L100.23 83.6696L86.6058 76.6386L86.9207 76.4567C85.7561 75.9126 85.129 74.6686 84.4993 73.5332L83.5821 74.0804L83.0371 74.2336V78.9867C83.0371 79.5926 83.4368 80.1985 84.2356 80.66L97.8851 88.5406C99.4833 89.4631 102.083 89.4631 103.682 88.5406L117.331 80.6604C118.117 80.2064 118.516 79.6125 118.529 79.0167C118.53 78.9902 118.528 78.9637 118.527 78.9368L118.53 78.9377Z" fill="#03FFCF"/>
<path d="M118.53 74.7834V71.6908L117.674 71.2151C117.433 72.6747 115.715 73.6365 114.279 73.8361L104.498 79.5555L100.23 81.0967L86.6058 74.0658L86.9207 73.8838C85.7561 73.3397 85.129 72.0957 84.4993 70.9603L83.5821 71.5075L83.0371 71.6607V74.8324C83.0371 75.4383 83.4368 76.0442 84.2356 76.5057L97.8851 84.3863C99.4833 85.3088 102.083 85.3088 103.682 84.3863L117.331 76.5061C118.117 76.0521 118.516 75.4586 118.529 74.8624C118.53 74.8359 118.528 74.8094 118.527 74.7825L118.53 74.7834Z" fill="url(#paint2_linear_1_1326)"/>
<path opacity="0.3" d="M114.279 73.8365L104.499 79.5559L100.783 80.8975V85.0791C101.833 85.0791 102.883 84.8486 103.682 84.3871L117.331 76.5069C118.117 76.053 118.517 75.4594 118.529 74.8633C118.53 74.8368 118.529 74.8103 118.528 74.7833L118.529 74.7842V71.6916L117.748 71.2566H117.666C117.399 72.6927 115.701 73.6387 114.279 73.8365Z" fill="#02122B"/>
<path d="M97.8862 81.2449L84.2367 73.3643C82.6385 72.4417 82.6385 70.9402 84.2367 70.0173L97.8862 62.1371C99.4844 61.2146 102.085 61.2146 103.683 62.1371L117.332 70.0177C118.93 70.9402 118.93 72.4417 117.332 73.3643L103.683 81.2444C102.085 82.1674 99.4844 82.1674 97.8862 81.2449Z" fill="url(#paint3_linear_1_1326)"/>
<path d="M117.33 73.3646L103.681 81.2448C102.083 82.1673 99.4826 82.1673 97.8844 81.2448L84.235 73.3642C83.5205 72.9517 83.1265 72.4235 83.0506 71.8834C82.957 72.552 83.3509 73.2392 84.235 73.7497L97.8844 81.6303C99.4826 82.5528 102.083 82.5528 103.681 81.6303L117.33 73.7501C118.214 73.2396 118.608 72.5525 118.514 71.8843C118.438 72.4244 118.045 72.9526 117.33 73.3646Z" fill="white"/>
<path d="M37.9346 74.4342L37.8149 74.2271L54.7151 64.4696L54.8352 64.6763L37.9346 74.4342Z" fill="#03FFCF"/>
<g opacity="0.3">
<path d="M44.9784 95.5108V92.4182L44.123 91.9426C43.8814 93.4021 42.1635 94.364 40.7274 94.5636L30.947 100.283L26.6788 101.824L13.0545 94.7932L13.3694 94.6113C12.2048 94.0672 11.5778 92.8232 10.948 91.6882L10.0308 92.2354L9.48584 92.3886V95.5603C9.48584 96.1662 9.8855 96.7721 10.6844 97.2336L24.3338 105.114C25.932 106.037 28.5322 106.037 30.1304 105.114L43.7798 97.234C44.5659 96.78 44.9651 96.1865 44.9779 95.5903C44.9784 95.5638 44.9775 95.5373 44.9762 95.5104L44.9784 95.5108Z" fill="url(#paint4_linear_1_1326)"/>
<path opacity="0.3" d="M40.7282 94.564L30.9477 100.283L27.2324 101.625V105.807C28.2821 105.807 29.3319 105.576 30.1312 105.115L43.7806 97.2344C44.5667 96.7804 44.9659 96.1869 44.9787 95.5907C44.9791 95.5642 44.9783 95.5377 44.9769 95.5108L44.9787 95.5117V92.419L44.197 91.9845H44.1153C43.849 93.4202 42.1506 94.3661 40.7282 94.564Z" fill="#02122B"/>
<path d="M24.3339 101.973L10.6845 94.092C9.08629 93.1694 9.08629 91.6679 10.6845 90.7454L24.3339 82.8652C25.9321 81.9427 28.5323 81.9427 30.1305 82.8652L43.7804 90.7458C45.3786 91.6684 45.3786 93.1699 43.7804 94.0924L30.131 101.973C28.5323 102.896 25.9321 102.896 24.3339 101.973Z" fill="url(#paint5_linear_1_1326)"/>
<g opacity="0.3">
<path d="M24.3339 101.973L10.6845 94.092C9.08629 93.1694 9.08629 91.6679 10.6845 90.7454L24.3339 82.8652C25.9321 81.9427 28.5323 81.9427 30.1305 82.8652L43.7804 90.7458C45.3786 91.6684 45.3786 93.1699 43.7804 94.0924L30.131 101.973C28.5323 102.896 25.9321 102.896 24.3339 101.973Z" fill="#02122B"/>
</g>
</g>
<path d="M27.2326 92.0124C26.3012 92.0124 25.369 91.8075 24.6597 91.3977L11.0103 83.5166C10.3015 83.1073 9.91113 82.5553 9.91113 81.9622C9.91113 81.3691 10.3015 80.8171 11.0103 80.4077L24.6593 72.5275C26.0782 71.7088 28.3861 71.7088 29.805 72.5275L43.4544 80.4081C44.1628 80.8175 44.5531 81.3695 44.5531 81.9626C44.5531 82.5557 44.1628 83.1077 43.4544 83.5171L29.8054 91.3977C29.0957 91.8075 28.1639 92.0124 27.2326 92.0124ZM24.7794 91.191C26.1321 91.9718 28.3331 91.9718 29.6853 91.191L43.3343 83.3104C43.9662 82.9456 44.3138 82.4674 44.3138 81.963C44.3138 81.4587 43.9662 80.9805 43.3343 80.6157L29.6849 72.7351C28.3322 71.9543 26.1312 71.9543 24.779 72.7351L11.1295 80.6152C10.498 80.98 10.1501 81.4583 10.1501 81.9626C10.1501 82.4669 10.498 82.9452 11.1295 83.31L24.7794 91.191Z" fill="#03FFCF"/>
<path opacity="0.4" d="M44.9784 78.9376V74.2635L44.123 73.7879C43.8814 75.2474 42.1635 76.2093 40.7274 76.4089L30.947 82.1282L26.6788 83.6695L13.0545 76.6385L13.3694 76.4566C12.2048 75.9125 11.5778 74.6685 10.948 73.5331L10.0308 74.0802L9.48584 74.2335V78.9866C9.48584 79.5925 9.8855 80.1984 10.6844 80.6599L24.3338 88.5405C25.932 89.463 28.5322 89.463 30.1304 88.5405L43.7798 80.6603C44.5659 80.2063 44.9651 79.6123 44.9779 79.0166C44.9784 78.9901 44.9775 78.9636 44.9762 78.9367L44.9784 78.9376Z" fill="#03FFCF"/>
<path d="M44.9784 74.7833V71.6906L44.123 71.215C43.8814 72.6746 42.1635 73.6364 40.7274 73.836L30.947 79.5553L26.6788 81.0966L13.0545 74.0656L13.3694 73.8837C12.2048 73.3396 11.5778 72.0956 10.948 70.9602L10.0308 71.5074L9.48584 71.6606V74.8323C9.48584 75.4382 9.8855 76.0441 10.6844 76.5056L24.3338 84.3862C25.932 85.3087 28.5322 85.3087 30.1304 84.3862L43.7798 76.506C44.5659 76.052 44.9651 75.4585 44.9779 74.8623C44.9784 74.8358 44.9775 74.8093 44.9762 74.7824L44.9784 74.7833Z" fill="url(#paint6_linear_1_1326)"/>
<path opacity="0.3" d="M40.7282 73.8364L30.9477 79.5557L27.2324 80.8974V85.079C28.2821 85.079 29.3319 84.8485 30.1312 84.387L43.7806 76.5068C44.5667 76.0528 44.9659 75.4593 44.9787 74.8631C44.9791 74.8366 44.9783 74.8101 44.9769 74.7832L44.9787 74.7841V71.6915L44.197 71.2565H44.1153C43.849 72.6926 42.1506 73.6385 40.7282 73.8364Z" fill="#02122B"/>
<path d="M24.3339 81.2446L10.6845 73.364C9.08629 72.4415 9.08629 70.94 10.6845 70.017L24.3339 62.1368C25.9321 61.2143 28.5323 61.2143 30.1305 62.1368L43.7804 70.0175C45.3786 70.94 45.3786 72.4415 43.7804 73.364L30.131 81.2442C28.5323 82.1671 25.9321 82.1671 24.3339 81.2446Z" fill="url(#paint7_linear_1_1326)"/>
<path d="M24.3339 81.2446L10.6845 73.364C9.08629 72.4415 9.08629 70.94 10.6845 70.017L24.3339 62.1368C25.9321 61.2143 28.5323 61.2143 30.1305 62.1368L43.7804 70.0175C45.3786 70.94 45.3786 72.4415 43.7804 73.364L30.131 81.2442C28.5323 82.1671 25.9321 82.1671 24.3339 81.2446Z" fill="#08049A"/>
<g opacity="0.51">
<path d="M24.3339 81.2446L10.6845 73.364C9.08629 72.4415 9.08629 70.94 10.6845 70.017L24.3339 62.1368C25.9321 61.2143 28.5323 61.2143 30.1305 62.1368L43.7804 70.0175C45.3786 70.94 45.3786 72.4415 43.7804 73.364L30.131 81.2442C28.5323 82.1671 25.9321 82.1671 24.3339 81.2446Z" fill="#0439C7"/>
</g>
<path d="M43.7802 73.3645L30.1308 81.2446C28.5326 82.1672 25.9323 82.1672 24.3341 81.2446L10.6847 73.364C9.97018 72.9516 9.57626 72.4234 9.5003 71.8833C9.40668 72.5519 9.8006 73.2391 10.6847 73.7496L24.3341 81.6302C25.9323 82.5527 28.5326 82.5527 30.1308 81.6302L43.7802 73.75C44.6638 73.2395 45.0582 72.5523 44.9641 71.8842C44.8882 72.4243 44.4943 72.9525 43.7802 73.3645Z" fill="white"/>
<path d="M74.9214 97.4434L74.8018 97.2363L75.5666 96.7947L75.6868 97.0018L74.9214 97.4434Z" fill="#03FFCF"/>
<path d="M77.0845 96.1956L76.9644 95.9885L78.3616 95.1817L78.4817 95.3888L77.0845 96.1956ZM79.879 94.5824L79.7593 94.3753L81.1566 93.5684L81.2763 93.7756L79.879 94.5824ZM82.674 92.9683L82.5543 92.7612L83.9516 91.9548L84.0717 92.1619L82.674 92.9683ZM85.4685 91.3551L85.3488 91.1479L86.7461 90.3411L86.8658 90.5482L85.4685 91.3551ZM88.2631 89.7419L88.1434 89.5347L89.5406 88.7279L89.6608 88.935L88.2631 89.7419Z" fill="#03FFCF"/>
<path d="M91.0572 88.1278L90.9375 87.9211L91.7024 87.4795L91.8225 87.6862L91.0572 88.1278Z" fill="#03FFCF"/>
<g opacity="0.3">
<path d="M81.5497 119.705V116.612L80.6943 116.136C80.4527 117.596 78.7348 118.558 77.2987 118.757L67.5183 124.477L63.2501 126.018L49.6258 118.988L49.9407 118.806C48.7762 118.261 48.1491 117.017 47.5193 115.882L46.6021 116.429L46.0571 116.582V119.754C46.0571 120.36 46.4568 120.966 47.2557 121.427L60.9055 129.308C62.5037 130.231 65.104 130.231 66.7022 129.308L80.3516 121.428C81.1376 120.974 81.5369 120.38 81.5497 119.784C81.5501 119.758 81.5488 119.731 81.5479 119.704L81.5497 119.705Z" fill="url(#paint8_linear_1_1326)"/>
<path opacity="0.3" d="M77.3004 118.757L67.52 124.477L63.8047 125.818V130C64.8544 130 65.9041 129.769 66.7034 129.308L80.3529 121.428C81.1389 120.974 81.5382 120.38 81.551 119.784C81.5514 119.757 81.5501 119.731 81.5492 119.704L81.551 119.705V116.612L80.7693 116.178H80.6876C80.4209 117.613 78.7229 118.559 77.3004 118.757Z" fill="#02122B"/>
<path d="M60.9056 126.167L47.2558 118.286C45.6576 117.363 45.6576 115.862 47.2558 114.939L60.9047 107.059C62.5029 106.136 65.1032 106.136 66.7014 107.059L80.3512 114.94C81.9494 115.862 81.9494 117.364 80.3512 118.286L66.7018 126.167C65.1041 127.089 62.5038 127.089 60.9056 126.167Z" fill="url(#paint9_linear_1_1326)"/>
<g opacity="0.3">
<path d="M60.9056 126.167L47.2558 118.286C45.6576 117.363 45.6576 115.862 47.2558 114.939L60.9047 107.059C62.5029 106.136 65.1032 106.136 66.7014 107.059L80.3512 114.94C81.9494 115.862 81.9494 117.364 80.3512 118.286L66.7018 126.167C65.1041 127.089 62.5038 127.089 60.9056 126.167Z" fill="#02122B"/>
</g>
</g>
<path d="M63.8049 114.702C62.8735 114.702 61.9417 114.497 61.2325 114.087L47.5826 106.207C46.8743 105.797 46.4839 105.245 46.4839 104.652C46.4839 104.059 46.8743 103.507 47.5826 103.098L61.232 95.2172C62.6509 94.398 64.9588 94.398 66.3773 95.2172L80.0267 103.098C80.7351 103.507 81.1254 104.059 81.1254 104.652C81.1254 105.245 80.7351 105.797 80.0271 106.206L66.3777 114.087C65.6685 114.497 64.7367 114.702 63.8049 114.702ZM63.8044 94.8396C62.9159 94.8396 62.0283 95.0348 61.3517 95.4252L47.7023 103.306C47.0704 103.671 46.7228 104.149 46.7228 104.653C46.7228 105.157 47.0704 105.636 47.7023 106.001L61.3522 113.881C62.7039 114.662 64.9058 114.662 66.2576 113.881L79.907 106.001C80.5385 105.636 80.8865 105.158 80.8865 104.654C80.8865 104.149 80.5385 103.671 79.9066 103.306L66.2572 95.4252C65.5815 95.0348 64.693 94.8396 63.8044 94.8396Z" fill="#03FFCF"/>
<path opacity="0.4" d="M81.5506 101.628V96.9535L80.6952 96.4779C80.4537 97.9374 78.7358 98.8993 77.2997 99.0989L67.5192 104.818L63.251 106.359L49.6268 99.3285L49.9417 99.1466C48.7771 98.6029 48.15 97.3585 47.5203 96.2235L46.6031 96.7707L46.0581 96.9239V101.677C46.0581 102.283 46.4578 102.889 47.2566 103.35L60.9061 111.231C62.5043 112.153 65.1045 112.153 66.7027 111.231L80.3521 103.35C81.1382 102.896 81.5374 102.303 81.5502 101.707C81.5506 101.68 81.5498 101.654 81.5484 101.627L81.5506 101.628Z" fill="#03FFCF"/>
<path d="M81.5502 97.4737V94.3811L80.6948 93.9054C80.4532 95.365 78.7353 96.3268 77.2992 96.5264L67.5187 102.246L63.2505 103.787L49.6263 96.7561L49.9412 96.5741C48.7766 96.0301 48.1495 94.786 47.5198 93.6506L46.6026 94.1978L46.0576 94.351V97.5227C46.0576 98.1286 46.4573 98.7345 47.2562 99.196L60.9056 107.077C62.5038 107.999 65.104 107.999 66.7022 107.077L80.3516 99.1964C81.1377 98.7424 81.5369 98.1489 81.5497 97.5527C81.5502 97.5262 81.5493 97.4993 81.5479 97.4728L81.5502 97.4737Z" fill="url(#paint10_linear_1_1326)"/>
<path opacity="0.3" d="M77.2994 96.5262L67.519 102.246L63.8037 103.587V107.769C64.8534 107.769 65.9031 107.538 66.7025 107.077L80.3519 99.1966C81.138 98.7427 81.5372 98.1491 81.55 97.553C81.5504 97.5265 81.5495 97.4995 81.5482 97.473L81.55 97.4739V94.3813L80.7683 93.9463H80.6866C80.4199 95.3824 78.7219 96.3279 77.2994 96.5262Z" fill="#02122B"/>
<path d="M60.9057 103.935L47.2563 96.0547C45.6581 95.1321 45.6581 93.6307 47.2563 92.7077L60.9052 84.8275C62.5035 83.905 65.1037 83.905 66.7019 84.8275L80.3517 92.7081C81.9499 93.6307 81.9499 95.1321 80.3517 96.0547L66.7023 103.935C65.1041 104.858 62.5039 104.858 60.9057 103.935Z" fill="url(#paint11_linear_1_1326)"/>
<path d="M63.8034 102.504C62.9622 102.504 62.1205 102.319 61.4792 101.949L50.8151 95.7919C50.173 95.421 49.8193 94.9202 49.8188 94.3814C49.8188 93.8422 50.173 93.3414 50.8151 92.9704L61.4788 86.8139C62.7599 86.0742 64.8452 86.0733 66.1272 86.8139L76.7909 92.9709C77.4334 93.3414 77.7872 93.8426 77.7872 94.3814C77.7876 94.9206 77.4334 95.4214 76.7913 95.7924L66.1277 101.949C65.4873 102.319 64.6456 102.504 63.8034 102.504ZM61.5993 101.742C62.8142 102.444 64.7927 102.444 66.008 101.742L76.6721 95.5857C77.2374 95.2593 77.5487 94.8314 77.5487 94.3814C77.5487 93.9314 77.2369 93.5044 76.6716 93.1776L66.008 87.0206C64.7922 86.3193 62.8142 86.3197 61.5993 87.0206L50.9357 93.1771C50.3704 93.5035 50.0591 93.9314 50.0591 94.3814C50.0591 94.831 50.3704 95.2584 50.9357 95.5848L61.5993 101.742Z" fill="#2155DF"/>
<path d="M80.351 96.0554L66.7016 103.936C65.1034 104.858 62.5031 104.858 60.9049 103.936L47.2555 96.0549C46.541 95.6425 46.1471 95.1143 46.0711 94.5742C45.9775 95.2428 46.3714 95.93 47.2555 96.4405L60.9049 104.321C62.5031 105.244 65.1034 105.244 66.7016 104.321L80.351 96.4405C81.2346 95.9304 81.629 95.2428 81.5349 94.5747C81.4594 95.1152 81.0655 95.6429 80.351 96.0554Z" fill="white"/>
<g opacity="0.3">
<path d="M81.5497 71.995V68.9024L80.6943 68.4267C80.4527 69.8863 78.7348 70.8481 77.2987 71.0477L67.5183 76.7671L63.2501 78.3083L49.6258 71.2773L49.9407 71.0954C48.7762 70.5513 48.1491 69.3073 47.5193 68.1724L46.6021 68.7195L46.0571 68.8728V72.0444C46.0571 72.6503 46.4568 73.2562 47.2557 73.7177L60.9051 81.5983C62.5033 82.5208 65.1035 82.5208 66.7017 81.5983L80.3511 73.7182C81.1372 73.2642 81.5364 72.6706 81.5492 72.0745C81.5497 72.048 81.5488 72.0215 81.5475 71.9945L81.5497 71.995Z" fill="url(#paint12_linear_1_1326)"/>
<path opacity="0.3" d="M77.3004 71.047L67.52 76.7663L63.8047 78.108V82.2896C64.8544 82.2896 65.9041 82.0591 66.7034 81.5976L80.3529 73.7174C81.1389 73.2635 81.5382 72.6699 81.551 72.0738C81.5514 72.0473 81.5505 72.0208 81.5492 71.9938L81.551 71.9947V68.9021L80.7693 68.4675H80.6876C80.4209 69.9032 78.7229 70.8487 77.3004 71.047Z" fill="#02122B"/>
<path d="M60.9056 78.4549L47.2558 70.5743C45.6576 69.6518 45.6576 68.1503 47.2558 67.2273L60.9047 59.3472C62.5029 58.4246 65.1032 58.4246 66.7014 59.3472L80.3512 67.2278C81.9494 68.1503 81.9494 69.6518 80.3512 70.5743L66.7018 78.4545C65.1041 79.3775 62.5038 79.3775 60.9056 78.4549Z" fill="url(#paint13_linear_1_1326)"/>
<g opacity="0.3">
<path d="M60.9056 78.4549L47.2558 70.5743C45.6576 69.6518 45.6576 68.1503 47.2558 67.2273L60.9047 59.3472C62.5029 58.4246 65.1032 58.4246 66.7014 59.3472L80.3512 67.2278C81.9494 68.1503 81.9494 69.6518 80.3512 70.5743L66.7018 78.4545C65.1041 79.3775 62.5038 79.3775 60.9056 78.4549Z" fill="#02122B"/>
</g>
</g>
<path d="M63.8049 69.0134C62.8735 69.0134 61.9417 68.8089 61.2325 68.3991L47.5826 60.5185C46.8743 60.1095 46.4839 59.5575 46.4839 58.964C46.4839 58.3709 46.8743 57.8189 47.5826 57.4095L61.232 49.5289C62.6509 48.7102 64.9588 48.7097 66.3773 49.5289L80.0267 57.4095C80.7351 57.8184 81.1254 58.3709 81.1254 58.964C81.1254 59.5571 80.7351 60.1091 80.0271 60.518L66.3777 68.3986C65.6685 68.8085 64.7367 69.0134 63.8049 69.0134ZM63.8044 49.1509C62.9159 49.1509 62.0283 49.3461 61.3517 49.7365L47.7023 57.6171C47.0704 57.9818 46.7228 58.4601 46.7228 58.9644C46.7228 59.4688 47.0704 59.947 47.7023 60.3118L61.3522 68.1924C62.7039 68.9732 64.9058 68.9732 66.2576 68.1924L79.907 60.3118C80.5385 59.947 80.8865 59.4688 80.8865 58.9649C80.8865 58.461 80.5385 57.9818 79.9066 57.6175L66.2572 49.7369C65.5815 49.3461 64.693 49.1509 63.8044 49.1509Z" fill="#03FFCF"/>
<path opacity="0.4" d="M81.5506 55.9405V51.2665L80.6952 50.7909C80.4537 52.2504 78.7358 53.2122 77.2997 53.4119L67.5192 59.1312L63.251 60.6724L49.6268 53.6415L49.9417 53.4595C48.7771 52.9159 48.15 51.6714 47.5203 50.5365L46.6031 51.0837L46.0581 51.2369V55.99C46.0581 56.5959 46.4578 57.2018 47.2566 57.6633L60.9061 65.5439C62.5043 66.4664 65.1045 66.4664 66.7027 65.5439L80.3521 57.6637C81.1382 57.2097 81.5374 56.6162 81.5502 56.02C81.5506 55.9935 81.5498 55.967 81.5484 55.9401L81.5506 55.9405Z" fill="#03FFCF"/>
<path d="M81.5502 51.7862V48.6936L80.6948 48.218C80.4532 49.6775 78.7353 50.6394 77.2992 50.839L67.5187 56.5583L63.2505 58.0996L49.6263 51.0686L49.9412 50.8867C48.7766 50.3426 48.1495 49.0986 47.5198 47.9636L46.6026 48.5108L46.0576 48.664V51.8357C46.0576 52.4416 46.4573 53.0475 47.2562 53.509L60.9056 61.3896C62.5038 62.3121 65.104 62.3121 66.7022 61.3896L80.3516 53.5094C81.1377 53.0554 81.5369 52.4619 81.5497 51.8657C81.5502 51.8392 81.5493 51.8123 81.5479 51.7858L81.5502 51.7862Z" fill="url(#paint14_linear_1_1326)"/>
<path opacity="0.3" d="M77.2994 50.8383L67.519 56.5576L63.8037 57.8992V62.0809C64.8534 62.0809 65.9031 61.8503 66.7025 61.3889L80.3519 53.5087C81.138 53.0547 81.5372 52.4612 81.55 51.865C81.5504 51.8385 81.5495 51.8116 81.5482 51.7851L81.55 51.786V48.6933L80.7683 48.2588H80.6866C80.4199 49.6945 78.7219 50.6404 77.2994 50.8383Z" fill="#02122B"/>
<path d="M49.9404 50.887L62.8749 43.4193C63.3867 43.1239 64.2191 43.1239 64.731 43.4193L77.4397 50.7567L77.2989 50.8393C78.735 50.6393 80.4529 49.6779 80.6944 48.2183L66.4316 40.2856L62.2818 39.1891L58.9025 41.175L47.519 47.9644C48.1488 49.0989 48.7759 50.3429 49.9404 50.887Z" fill="url(#paint15_linear_1_1326)"/>
<path opacity="0.3" d="M63.8031 39.5903L62.2818 39.188L58.9025 41.1739L47.519 47.9633C48.1488 49.0983 48.7759 50.3427 49.9404 50.8864L62.8749 43.4187C63.131 43.2707 63.4671 43.197 63.8031 43.197V39.5903Z" fill="#02122B"/>
<path d="M60.9057 58.2478L47.2563 50.3672C45.6581 49.4446 45.6581 47.9432 47.2563 47.0206L60.9052 39.14C62.5035 38.2175 65.1037 38.2175 66.7019 39.14L80.3517 47.0206C81.9499 47.9432 81.9499 49.4446 80.3517 50.3672L66.7023 58.2473C65.1041 59.1708 62.5039 59.1708 60.9057 58.2478ZM64.7314 40.2776C64.2196 39.9822 63.3871 39.9822 62.8753 40.2776L49.2263 48.1578C48.7145 48.4532 48.7145 48.9341 49.2263 49.2296L62.8757 57.1102C63.3876 57.4056 64.22 57.4056 64.7318 57.1102L78.3813 49.2296C78.8931 48.9341 78.8931 48.4537 78.3813 48.1582L64.7314 40.2776Z" fill="url(#paint16_linear_1_1326)"/>
<path d="M78.3803 48.157L64.7305 40.2764C64.2186 39.9809 63.3862 39.9809 62.8744 40.2764L49.2254 48.1566C48.884 48.3535 48.7718 48.6331 48.8858 48.8852C48.9428 48.7594 49.0549 48.6406 49.2254 48.5421L62.8744 40.6619C63.3862 40.3665 64.2186 40.3665 64.7305 40.6619L78.3803 48.5425C78.5508 48.641 78.663 48.7598 78.7199 48.8857C78.8339 48.6335 78.7217 48.3544 78.3803 48.157Z" fill="white"/>
<path d="M80.351 50.3672L66.7016 58.2473C65.1034 59.1699 62.5031 59.1699 60.9049 58.2473L47.2555 50.3667C46.541 49.9543 46.1471 49.4261 46.0711 48.886C45.9775 49.5546 46.3714 50.2417 47.2555 50.7522L60.9049 58.6329C62.5031 59.5554 65.1034 59.5554 66.7016 58.6329L80.351 50.7522C81.2346 50.2422 81.629 49.5546 81.5349 48.8864C81.4594 49.4265 81.0655 49.9547 80.351 50.3672Z" fill="white"/>
<path d="M61.2908 58.0247L47.6414 50.144C46.2556 49.3438 46.2556 48.0424 47.6414 47.2422L61.2908 39.362C62.6761 38.5623 64.931 38.5623 66.3164 39.362L79.9662 47.2426C81.3516 48.0424 81.3516 49.3443 79.9662 50.144L66.3168 58.0242C64.9306 58.8249 62.6761 58.8249 61.2908 58.0247ZM65.1165 40.0545C64.3923 39.6363 63.2136 39.6363 62.4894 40.0545L48.8399 47.9351C48.1157 48.3533 48.1157 49.0338 48.8399 49.452L62.4898 57.3326C63.214 57.7509 64.3927 57.7509 65.1169 57.3326L78.7664 49.452C79.4906 49.0338 79.4906 48.3537 78.7664 47.9351L65.1165 40.0545Z" fill="url(#paint17_linear_1_1326)"/>
<path opacity="0.4" d="M64.7312 40.2765C64.2194 39.9811 63.387 39.9811 62.8751 40.2765L49.2262 48.1567C48.7143 48.4521 48.7143 48.933 49.2262 49.2285L62.8756 57.1091C63.3874 57.4045 64.2199 57.4045 64.7317 57.1091L78.3811 49.2285C78.8929 48.933 78.8929 48.4526 78.3811 48.1571L64.7312 40.2765Z" fill="#03FFCF"/>
<path opacity="0.5" d="M78.764 48.6822V0H48.8433L48.845 48.6818C48.8402 48.8792 48.9665 49.0779 49.227 49.2281L62.8764 57.1087C63.3883 57.4041 64.2207 57.4041 64.7325 57.1087L78.382 49.2281C78.6425 49.0779 78.7688 48.8796 78.764 48.6822Z" fill="url(#paint18_linear_1_1326)"/>
<g opacity="0.2">
<mask id="mask0_1_1326" style="mask-type:luminance" maskUnits="userSpaceOnUse" x="9" y="61" width="36" height="21">
<path d="M24.3344 81.2446L10.685 73.364C9.08678 72.4415 9.08678 70.94 10.685 70.017L24.3344 62.1368C25.9326 61.2143 28.5328 61.2143 30.131 62.1368L43.7809 70.0175C45.3791 70.94 45.3791 72.4415 43.7809 73.364L30.1315 81.2442C28.5328 82.1671 25.9326 82.1671 24.3344 81.2446Z" fill="white"/>
</mask>
<g mask="url(#mask0_1_1326)">
<path d="M17.2417 72.1536V88.4615L17.2426 88.4619C17.247 88.8152 17.4621 89.1526 17.8993 89.4048L31.4498 97.228C32.4248 97.791 34.1286 97.7204 35.2547 97.0703C35.8862 96.7056 36.202 96.2361 36.1852 95.7949V79.483L17.2417 72.1536Z" fill="url(#paint19_linear_1_1326)"/>
</g>
<mask id="mask1_1_1326" style="mask-type:luminance" maskUnits="userSpaceOnUse" x="9" y="61" width="36" height="21">
<path d="M24.3344 81.2446L10.685 73.364C9.08678 72.4415 9.08678 70.94 10.685 70.017L24.3344 62.1368C25.9326 61.2143 28.5328 61.2143 30.131 62.1368L43.7809 70.0175C45.3791 70.94 45.3791 72.4415 43.7809 73.364L30.1315 81.2442C28.5328 82.1671 25.9326 82.1671 24.3344 81.2446Z" fill="white"/>
</mask>
<g mask="url(#mask1_1_1326)">
<path opacity="0.3" d="M32.4653 97.5545C33.3772 97.6932 34.4583 97.5298 35.2541 97.07C35.8856 96.7053 36.2013 96.2358 36.1846 95.7947V79.4827L32.5315 78.0696H32.4648V97.5545H32.4653Z" fill="#08049A"/>
</g>
<mask id="mask2_1_1326" style="mask-type:luminance" maskUnits="userSpaceOnUse" x="9" y="61" width="36" height="21">
<path d="M24.3344 81.2446L10.685 73.364C9.08678 72.4415 9.08678 70.94 10.685 70.017L24.3344 62.1368C25.9326 61.2143 28.5328 61.2143 30.131 62.1368L43.7809 70.0175C45.3791 70.94 45.3791 72.4415 43.7809 73.364L30.1315 81.2442C28.5328 82.1671 25.9326 82.1671 24.3344 81.2446Z" fill="white"/>
</mask>
<g mask="url(#mask2_1_1326)">
<path d="M31.4488 80.9204L17.8983 73.0972C16.9228 72.5342 17.0451 71.5507 18.1717 70.9002C19.2978 70.2501 21.0015 70.1795 21.9766 70.7425L35.5271 78.5657C36.5026 79.1288 36.3803 80.1123 35.2538 80.7628C34.1277 81.4128 32.4239 81.4835 31.4488 80.9204Z" fill="url(#paint20_linear_1_1326)"/>
</g>
</g>
<path opacity="0.5" d="M31.4483 76.7229L17.8978 68.8997C16.9223 68.3367 17.0446 67.3532 18.1712 66.7027C19.2973 66.0526 21.0011 65.982 21.9761 66.545L35.5266 74.3682C36.5022 74.9313 36.3798 75.9148 35.2533 76.5653C34.1272 77.2153 32.4234 77.286 31.4483 76.7229Z" fill="#08049A"/>
<path d="M17.2412 47.4336V63.7415L17.2421 63.742C17.2465 64.0953 17.4616 64.4327 17.8988 64.6848L31.4493 72.508C32.4244 73.0711 34.1281 73.0004 35.2542 72.3504C35.8857 71.9856 36.2015 71.5161 36.1847 71.075V54.7631L17.2412 47.4336Z" fill="url(#paint21_linear_1_1326)"/>
<path opacity="0.3" d="M32.4648 72.8344C33.3767 72.9731 34.4578 72.8097 35.2536 72.3499C35.8851 71.9852 36.2009 71.5157 36.1841 71.0746V54.7627L32.531 53.3495H32.4644V72.8344H32.4648Z" fill="#08049A"/>
<path d="M31.4483 56.2005L17.8978 48.3773C16.9223 47.8142 17.0446 46.8307 18.1712 46.1802C19.2973 45.5302 21.0011 45.4595 21.9761 46.0226L35.5266 53.8458C36.5022 54.4088 36.3798 55.3923 35.2533 56.0428C34.1272 56.6929 32.4234 56.7635 31.4483 56.2005Z" fill="url(#paint22_linear_1_1326)"/>
<path d="M32.8018 55.1518C32.1553 55.1518 31.6306 54.6276 31.6306 53.9807V46.7351C31.6306 44.2638 29.8227 41.1323 27.6822 39.8967L24.5728 38.1015C23.7514 37.6272 23.0095 37.5115 22.5378 37.784C22.0662 38.0565 21.7955 38.7565 21.7955 39.705V46.9506C21.7955 47.5976 21.2713 48.1218 20.6243 48.1218C19.9773 48.1218 19.4531 47.5976 19.4531 46.9506V39.7046C19.4531 37.8701 20.1328 36.468 21.3666 35.7557C22.6005 35.0434 24.155 35.156 25.7435 36.0732L28.8529 37.8684C31.7234 39.5257 33.9721 43.4203 33.9721 46.7351V53.9807C33.973 54.6276 33.4488 55.1518 32.8018 55.1518Z" fill="url(#paint23_linear_1_1326)"/>
<path d="M17.6235 87.1829L0.719238 96.9366L0.838647 97.1436L17.7429 87.3898L17.6235 87.1829Z" fill="#03FFCF"/>
<defs>
<linearGradient id="paint0_linear_1_1326" x1="86.5687" y1="86.273" x2="114.729" y2="102.531" gradientUnits="userSpaceOnUse">
<stop stop-color="#81F8DE"/>
<stop offset="1" stop-color="#2155DF"/>
</linearGradient>
<linearGradient id="paint1_linear_1_1326" x1="83.0381" y1="92.4191" x2="118.531" y2="92.4191" gradientUnits="userSpaceOnUse">
<stop stop-color="#A6FBE8"/>
<stop offset="1" stop-color="#4879FD"/>
</linearGradient>
<linearGradient id="paint2_linear_1_1326" x1="86.5678" y1="65.5451" x2="114.728" y2="81.8036" gradientUnits="userSpaceOnUse">
<stop stop-color="#81F8DE"/>
<stop offset="1" stop-color="#2155DF"/>
</linearGradient>
<linearGradient id="paint3_linear_1_1326" x1="83.0381" y1="71.691" x2="118.531" y2="71.691" gradientUnits="userSpaceOnUse">
<stop stop-color="#A6FBE8"/>
<stop offset="1" stop-color="#4879FD"/>
</linearGradient>
<linearGradient id="paint4_linear_1_1326" x1="13.0165" y1="86.273" x2="41.177" y2="102.531" gradientUnits="userSpaceOnUse">
<stop stop-color="#81F8DE"/>
<stop offset="1" stop-color="#2155DF"/>
</linearGradient>
<linearGradient id="paint5_linear_1_1326" x1="9.48586" y1="92.4191" x2="44.9791" y2="92.4191" gradientUnits="userSpaceOnUse">
<stop stop-color="#A6FBE8"/>
<stop offset="1" stop-color="#4879FD"/>
</linearGradient>
<linearGradient id="paint6_linear_1_1326" x1="13.0165" y1="65.545" x2="41.177" y2="81.8035" gradientUnits="userSpaceOnUse">
<stop stop-color="#81F8DE"/>
<stop offset="1" stop-color="#2155DF"/>
</linearGradient>
<linearGradient id="paint7_linear_1_1326" x1="9.48586" y1="71.6907" x2="44.9791" y2="71.6907" gradientUnits="userSpaceOnUse">
<stop stop-color="#A6FBE8"/>
<stop offset="1" stop-color="#4879FD"/>
</linearGradient>
<linearGradient id="paint8_linear_1_1326" x1="49.5878" y1="110.467" x2="77.7483" y2="126.725" gradientUnits="userSpaceOnUse">
<stop stop-color="#81F8DE"/>
<stop offset="1" stop-color="#2155DF"/>
</linearGradient>
<linearGradient id="paint9_linear_1_1326" x1="46.0572" y1="116.613" x2="81.55" y2="116.613" gradientUnits="userSpaceOnUse">
<stop stop-color="#A6FBE8"/>
<stop offset="1" stop-color="#4879FD"/>
</linearGradient>
<linearGradient id="paint10_linear_1_1326" x1="49.5883" y1="88.2354" x2="77.7488" y2="104.494" gradientUnits="userSpaceOnUse">
<stop stop-color="#81F8DE"/>
<stop offset="1" stop-color="#2155DF"/>
</linearGradient>
<linearGradient id="paint11_linear_1_1326" x1="46.0576" y1="94.3814" x2="81.5505" y2="94.3814" gradientUnits="userSpaceOnUse">
<stop stop-color="#A6FBE8"/>
<stop offset="1" stop-color="#4879FD"/>
</linearGradient>
<linearGradient id="paint12_linear_1_1326" x1="49.5878" y1="62.7572" x2="77.7483" y2="79.0156" gradientUnits="userSpaceOnUse">
<stop stop-color="#81F8DE"/>
<stop offset="1" stop-color="#2155DF"/>
</linearGradient>
<linearGradient id="paint13_linear_1_1326" x1="46.0572" y1="68.9011" x2="81.55" y2="68.9011" gradientUnits="userSpaceOnUse">
<stop stop-color="#A6FBE8"/>
<stop offset="1" stop-color="#4879FD"/>
</linearGradient>
<linearGradient id="paint14_linear_1_1326" x1="49.5883" y1="42.5484" x2="77.7488" y2="58.8069" gradientUnits="userSpaceOnUse">
<stop stop-color="#81F8DE"/>
<stop offset="1" stop-color="#2155DF"/>
</linearGradient>
<linearGradient id="paint15_linear_1_1326" x1="51.2779" y1="41.4531" x2="76.3915" y2="55.9524" gradientUnits="userSpaceOnUse">
<stop offset="0.2421" stop-color="#0439C7"/>
<stop offset="1" stop-color="#81F8DE"/>
</linearGradient>
<linearGradient id="paint16_linear_1_1326" x1="46.0576" y1="48.6941" x2="81.5505" y2="48.6941" gradientUnits="userSpaceOnUse">
<stop stop-color="#A6FBE8"/>
<stop offset="1" stop-color="#4879FD"/>
</linearGradient>
<linearGradient id="paint17_linear_1_1326" x1="46.6021" y1="48.6935" x2="81.0053" y2="48.6935" gradientUnits="userSpaceOnUse">
<stop stop-color="#A6FBE8"/>
<stop offset="1" stop-color="#4879FD"/>
</linearGradient>
<linearGradient id="paint18_linear_1_1326" x1="63.8036" y1="57.3304" x2="63.8036" y2="0" gradientUnits="userSpaceOnUse">
<stop stop-color="#03FFCF"/>
<stop offset="0.26" stop-color="#235F87"/>
<stop offset="0.4587" stop-color="#1C3F72"/>
<stop offset="0.715" stop-color="#162561"/>
<stop offset="1" stop-color="#02122A"/>
</linearGradient>
<linearGradient id="paint19_linear_1_1326" x1="19.1262" y1="62.3899" x2="38.5982" y2="65.718" gradientUnits="userSpaceOnUse">
<stop stop-color="#81F8DE"/>
<stop offset="1" stop-color="#2155DF"/>
</linearGradient>
<linearGradient id="paint20_linear_1_1326" x1="17.2398" y1="75.8315" x2="36.1857" y2="75.8315" gradientUnits="userSpaceOnUse">
<stop stop-color="#A6FBE8"/>
<stop offset="1" stop-color="#4879FD"/>
</linearGradient>
<linearGradient id="paint21_linear_1_1326" x1="19.1257" y1="37.67" x2="38.5978" y2="40.998" gradientUnits="userSpaceOnUse">
<stop stop-color="#81F8DE"/>
<stop offset="1" stop-color="#2155DF"/>
</linearGradient>
<linearGradient id="paint22_linear_1_1326" x1="17.2393" y1="51.1115" x2="36.1852" y2="51.1115" gradientUnits="userSpaceOnUse">
<stop stop-color="#A6FBE8"/>
<stop offset="1" stop-color="#4879FD"/>
</linearGradient>
<linearGradient id="paint23_linear_1_1326" x1="12.5677" y1="42.5563" x2="46.4248" y2="48.3709" gradientUnits="userSpaceOnUse">
<stop stop-color="#33E6BF"/>
<stop offset="0.873" stop-color="#0439C7"/>
</linearGradient>
</defs>
</svg>
