<svg width="202" height="130" viewBox="0 0 202 130" fill="none" xmlns="http://www.w3.org/2000/svg">
<g opacity="0.3">
<path d="M201.168 105.057V102.651L200.502 102.281C200.314 103.416 198.977 104.165 197.86 104.32L190.249 108.769L186.928 109.968L176.326 104.499L176.571 104.357C175.665 103.934 175.177 102.966 174.687 102.083L173.974 102.509L173.549 102.628V105.095C173.549 105.566 173.86 106.037 174.482 106.397L185.103 112.527C186.347 113.244 188.37 113.244 189.614 112.527L200.234 106.397C200.846 106.043 201.157 105.582 201.167 105.118C201.167 105.097 201.166 105.077 201.166 105.056L201.168 105.057Z" fill="url(#paint0_linear_1_1462)"/>
<path opacity="0.3" d="M197.861 104.32L190.25 108.769L187.359 109.813V113.065C188.176 113.065 188.993 112.886 189.615 112.527L200.236 106.397C200.847 106.044 201.158 105.582 201.168 105.118C201.169 105.097 201.167 105.077 201.167 105.056L201.169 105.057V102.651L200.56 102.313H200.496C200.289 103.431 198.968 104.166 197.861 104.32Z" fill="#02122B"/>
<path d="M185.104 110.084L174.482 103.953C173.239 103.236 173.239 102.068 174.482 101.35L185.103 95.2199C186.347 94.5022 188.37 94.5022 189.614 95.2199L200.236 101.35C201.479 102.068 201.479 103.236 200.236 103.954L189.615 110.084C188.371 110.802 186.347 110.802 185.104 110.084Z" fill="url(#paint1_linear_1_1462)"/>
<g opacity="0.3">
<path d="M185.104 110.084L174.482 103.953C173.239 103.236 173.239 102.068 174.482 101.35L185.103 95.2199C186.347 94.5022 188.37 94.5022 189.614 95.2199L200.236 101.35C201.479 102.068 201.479 103.236 200.236 103.954L189.615 110.084C188.371 110.802 186.347 110.802 185.104 110.084Z" fill="#02122B"/>
</g>
</g>
<path d="M187.36 102.336C186.635 102.336 185.91 102.176 185.358 101.858L174.737 95.7281C174.185 95.4098 173.881 94.9798 173.881 94.5187C173.881 94.0576 174.185 93.6277 174.737 93.3094L185.357 87.1793C186.461 86.5416 188.257 86.5416 189.362 87.1793L199.982 93.3094C200.534 93.6277 200.838 94.0576 200.838 94.5187C200.838 94.9798 200.534 95.4098 199.982 95.7281L189.362 101.858C188.81 102.176 188.085 102.336 187.36 102.336ZM187.359 86.8846C186.668 86.8846 185.977 87.0365 185.45 87.3409L174.829 93.4709C174.338 93.7543 174.067 94.1269 174.067 94.5187C174.067 94.9106 174.338 95.2831 174.829 95.5665L185.45 101.697C186.503 102.305 188.215 102.305 189.268 101.697L199.889 95.5665C200.38 95.2831 200.651 94.9106 200.651 94.5187C200.651 94.1269 200.38 93.7543 199.889 93.4709L189.268 87.3409C188.742 87.0365 188.05 86.8846 187.359 86.8846Z" fill="#03FFCF"/>
<path opacity="0.4" d="M201.168 92.1667V88.5306L200.502 88.1607C200.314 89.296 198.977 90.0443 197.86 90.2L190.249 94.6488L186.928 95.848L176.326 90.3787L176.571 90.2375C175.665 89.8146 175.177 88.8467 174.687 87.9637L173.974 88.3894L173.549 88.5086V92.2059C173.549 92.6772 173.86 93.1485 174.482 93.5076L185.103 99.6376C186.347 100.355 188.37 100.355 189.614 99.6376L200.234 93.5076C200.846 93.1544 201.157 92.6928 201.167 92.229C201.167 92.2086 201.166 92.1877 201.166 92.1667H201.168Z" fill="#03FFCF"/>
<path d="M201.168 88.9343V86.5284L200.502 86.1586C200.314 87.2939 198.977 88.0422 197.86 88.1973L190.249 92.6461L186.928 93.8453L176.326 88.376L176.571 88.2349C175.665 87.8119 175.177 86.8441 174.687 85.9611L173.974 86.3867L173.549 86.5059V88.9729C173.549 89.4442 173.86 89.9155 174.482 90.2746L185.103 96.4047C186.347 97.1223 188.37 97.1223 189.614 96.4047L200.234 90.2746C200.846 89.9214 201.157 89.4598 201.167 88.996C201.167 88.9756 201.166 88.9547 201.166 88.9338L201.168 88.9343Z" fill="url(#paint2_linear_1_1462)"/>
<path opacity="0.3" d="M197.861 88.1976L190.25 92.6465L187.359 93.69V96.9428C188.176 96.9428 188.993 96.7636 189.615 96.4045L200.236 90.2744C200.847 89.9212 201.158 89.4596 201.168 88.9958C201.169 88.9754 201.167 88.9545 201.167 88.9335L201.169 88.9341V86.5282L200.56 86.1901H200.496C200.289 87.3082 198.968 88.0436 197.861 88.1976Z" fill="#02122B"/>
<path d="M185.104 93.9603L174.482 87.8303C173.239 87.1126 173.239 85.9446 174.482 85.2269L185.103 79.0969C186.347 78.3792 188.37 78.3792 189.614 79.0969L200.236 85.2269C201.479 85.9446 201.479 87.1126 200.236 87.8303L189.615 93.9603C188.371 94.678 186.347 94.678 185.104 93.9603Z" fill="url(#paint3_linear_1_1462)"/>
<path d="M200.236 87.8297L189.615 93.9597C188.371 94.6774 186.348 94.6774 185.105 93.9597L174.483 87.8297C173.927 87.5087 173.621 87.098 173.562 86.6777C173.489 87.1979 173.795 87.7325 174.483 88.1292L185.105 94.2592C186.348 94.9769 188.371 94.9769 189.615 94.2592L200.236 88.1292C200.924 87.7325 201.23 87.1979 201.157 86.6777C201.098 87.098 200.791 87.5092 200.236 87.8297Z" fill="white"/>
<g opacity="0.3">
<path d="M46.5163 119.09V116.684L45.8505 116.314C45.6626 117.45 44.3261 118.198 43.2082 118.354L35.5975 122.802L32.276 124.002L21.6745 118.532L21.9194 118.391C21.0136 117.968 20.5255 117 20.0353 116.117L19.3216 116.543L18.8975 116.662V119.129C18.8975 119.6 19.2084 120.072 19.8301 120.431L30.4515 126.561C31.695 127.279 33.7188 127.279 34.9623 126.561L45.5831 120.431C46.1947 120.078 46.5056 119.617 46.5153 119.153C46.5158 119.132 46.5147 119.111 46.5142 119.091L46.5163 119.09Z" fill="url(#paint4_linear_1_1462)"/>
<path opacity="0.3" d="M43.2086 118.353L35.5979 122.802L32.707 123.846V127.099C33.5237 127.099 34.341 126.919 34.9627 126.56L45.5835 120.43C46.1951 120.077 46.506 119.615 46.5157 119.152C46.5162 119.131 46.5151 119.11 46.5146 119.089L46.5162 119.09V116.684L45.9078 116.346H45.8445C45.6372 117.463 44.3158 118.199 43.2086 118.353Z" fill="#02122B"/>
<path d="M30.4515 124.116L19.8301 117.985C18.5866 117.267 18.5866 116.099 19.8301 115.382L30.4509 109.252C31.6945 108.534 33.7177 108.534 34.9618 109.252L45.5831 115.382C46.8267 116.1 46.8267 117.268 45.5831 117.986L34.9624 124.116C33.7182 124.833 31.695 124.833 30.4515 124.116Z" fill="url(#paint5_linear_1_1462)"/>
<g opacity="0.3">
<path d="M30.4515 124.116L19.8301 117.985C18.5866 117.267 18.5866 116.099 19.8301 115.382L30.4509 109.252C31.6945 108.534 33.7177 108.534 34.9618 109.252L45.5831 115.382C46.8267 116.1 46.8267 117.268 45.5831 117.986L34.9624 124.116C33.7182 124.833 31.695 124.833 30.4515 124.116Z" fill="#02122B"/>
</g>
</g>
<path opacity="0.4" d="M32.7076 126.074C26.2304 126.074 19.7532 124.651 14.8219 121.805C10.0264 119.038 7.38574 115.352 7.38574 111.428C7.38574 107.504 10.0264 103.819 14.8214 101.052C24.6829 95.3604 40.7301 95.3599 50.5922 101.052C55.3876 103.82 58.0283 107.505 58.0283 111.429C58.0283 115.353 55.3876 119.038 50.5927 121.805C45.6625 124.651 39.1853 126.074 32.7076 126.074ZM32.707 96.9659C26.2632 96.9659 19.8198 98.3819 14.9143 101.213C10.18 103.946 7.57206 107.573 7.57206 111.427C7.57206 115.282 10.18 118.911 14.9148 121.643C24.7264 127.306 40.6893 127.306 50.4998 121.643C55.2341 118.911 57.842 115.283 57.842 111.429C57.842 107.574 55.2346 103.946 50.4993 101.213C45.5943 98.3819 39.1504 96.9659 32.707 96.9659Z" fill="#03FFCF"/>
<path opacity="0.2" d="M32.7086 130C24.4879 130 16.2694 128.195 10.0113 124.582C3.93097 121.073 0.582031 116.401 0.582031 111.428C0.582031 106.455 3.93043 101.783 10.0103 98.2744C22.5254 91.0509 42.8891 91.0515 55.4031 98.2749C61.4835 101.784 64.8325 106.455 64.8325 111.429C64.8325 116.402 61.4841 121.074 55.4042 124.583C49.1477 128.193 40.9271 130 32.7086 130ZM32.7064 93.0408C24.5207 93.0408 16.3355 94.839 10.1032 98.436C4.08346 101.911 0.768352 106.524 0.768352 111.428C0.768352 116.332 4.084 120.946 10.1042 124.42C22.5684 131.615 42.8477 131.615 55.3119 124.421C61.3316 120.946 64.6467 116.333 64.6467 111.429C64.6467 106.525 61.331 101.911 55.3108 98.4365C49.0785 94.8395 40.8922 93.0408 32.7064 93.0408Z" fill="#03FFCF"/>
<path d="M32.7076 122.981C27.6034 122.981 22.4986 121.86 18.6122 119.617C14.8294 117.434 12.7461 114.525 12.7461 111.427C12.7456 108.329 14.8289 105.421 18.6117 103.238C26.3834 98.7532 39.0301 98.7532 46.8019 103.238C50.5847 105.421 52.6675 108.329 52.668 111.428C52.668 114.525 50.5847 117.434 46.8024 119.617C42.9171 121.86 37.8123 122.981 32.7076 122.981ZM32.7071 100.058C27.6361 100.058 22.5652 101.171 18.7046 103.4C14.9819 105.548 12.9324 108.4 12.9324 111.428C12.9324 114.457 14.9825 117.308 18.7051 119.456C26.4264 123.913 38.9888 123.913 46.7095 119.456C50.4322 117.308 52.4817 114.456 52.4817 111.428C52.4817 108.399 50.4316 105.548 46.709 103.4C42.8489 101.171 37.778 100.058 32.7071 100.058Z" fill="#03FFCF"/>
<path d="M32.7079 115.196C31.9825 115.196 31.2582 115.037 30.7056 114.718L20.0848 108.588C19.5334 108.27 19.2295 107.84 19.2295 107.379C19.2295 106.917 19.5329 106.487 20.0848 106.169L30.7056 100.039C31.8091 99.4025 33.6051 99.4025 34.7096 100.039L45.331 106.169C45.8824 106.488 46.1863 106.917 46.1863 107.379C46.1863 107.84 45.8824 108.27 45.331 108.588L34.7102 114.718C34.1582 115.037 33.4328 115.196 32.7079 115.196ZM32.7079 99.7455C32.0163 99.7455 31.3253 99.8969 30.7985 100.201L20.1777 106.331C19.6864 106.615 19.4158 106.987 19.4158 107.379C19.4158 107.771 19.6864 108.143 20.1777 108.427L30.7991 114.557C31.8515 115.165 33.5638 115.165 34.6162 114.557L45.2375 108.427C45.7289 108.143 45.9995 107.771 45.9995 107.38C45.9995 106.988 45.7289 106.615 45.2375 106.331L34.6168 100.201C34.09 99.8969 33.399 99.7455 32.7079 99.7455Z" fill="#03FFCF"/>
<path opacity="0.4" d="M46.5173 105.027V101.391L45.8515 101.021C45.6635 102.156 44.3265 102.904 43.2092 103.059L35.5985 107.509L32.2769 108.708L21.676 103.238L21.9209 103.097C21.0145 102.674 20.5269 101.706 20.0367 100.823L19.3231 101.249L18.8989 101.368V105.065C18.8989 105.537 19.2098 106.008 19.8316 106.367L30.4529 112.498C31.6965 113.215 33.7202 113.215 34.9638 112.498L45.5846 106.368C46.1962 106.014 46.5071 105.553 46.5167 105.089C46.5173 105.068 46.5162 105.048 46.5157 105.027H46.5173Z" fill="#03FFCF"/>
<path d="M46.5173 101.794V99.388L45.8515 99.0181C45.6636 100.153 44.3266 100.902 43.2092 101.057L35.5985 105.506L32.277 106.705L21.6755 101.236L21.9204 101.094C21.014 100.671 20.5265 99.7031 20.0362 98.8201L19.3226 99.2457L18.8984 99.3649V101.832C18.8984 102.303 19.2093 102.775 19.8311 103.134L30.4524 109.264C31.696 109.982 33.7198 109.982 34.9633 109.264L45.5841 103.134C46.1957 102.781 46.5066 102.319 46.5162 101.856C46.5168 101.835 46.5157 101.814 46.5152 101.793L46.5173 101.794Z" fill="url(#paint6_linear_1_1462)"/>
<path opacity="0.3" d="M43.2096 101.057L35.5989 105.506L32.708 106.55V109.802C33.5247 109.802 34.3419 109.623 34.9637 109.264L45.5845 103.134C46.1961 102.781 46.507 102.319 46.5166 101.855C46.5172 101.835 46.5161 101.814 46.5156 101.793L46.5172 101.794V99.3879L45.9088 99.0497H45.8455C45.6382 100.168 44.3168 100.903 43.2096 101.057Z" fill="#02122B"/>
<path d="M30.4529 106.819L19.8316 100.689C18.588 99.9717 18.588 98.8037 19.8316 98.086L30.4524 91.956C31.696 91.2383 33.7192 91.2383 34.9633 91.956L45.5846 98.086C46.8282 98.8037 46.8282 99.9717 45.5846 100.689L34.9638 106.819C33.7197 107.538 31.6965 107.538 30.4529 106.819Z" fill="url(#paint7_linear_1_1462)"/>
<path d="M32.7079 105.708C32.0528 105.708 31.3983 105.564 30.8995 105.276L22.6015 100.487C22.1011 100.198 21.8262 99.8076 21.8262 99.3884C21.8262 98.9697 22.1016 98.5794 22.6015 98.2912L30.8995 93.5015C31.8961 92.9266 33.5187 92.9261 34.5163 93.502L42.8143 98.2912C43.3142 98.58 43.5897 98.9697 43.5897 99.3889C43.5897 99.8081 43.3142 100.198 42.8143 100.487L34.5163 105.276C34.0181 105.563 33.363 105.708 32.7079 105.708ZM30.9924 105.115C31.939 105.662 33.4779 105.662 34.4235 105.115L42.7214 100.325C43.1612 100.071 43.4039 99.7383 43.4039 99.3889C43.4039 99.0395 43.1612 98.7066 42.7214 98.4528L34.4235 93.6636C33.4779 93.1177 31.9385 93.1172 30.9924 93.6631L22.6944 98.4528C22.2546 98.7066 22.0125 99.0389 22.012 99.3884C22.012 99.7383 22.2541 100.071 22.6944 100.325L30.9924 105.115Z" fill="#0439C7"/>
<path d="M45.5843 100.69L34.9636 106.82C33.72 107.538 31.6962 107.538 30.4527 106.82L19.8313 100.69C19.2756 100.369 18.969 99.9588 18.9099 99.5385C18.8369 100.059 19.1435 100.593 19.8313 100.99L30.4527 107.12C31.6962 107.838 33.72 107.838 34.9636 107.12L45.5843 100.99C46.2722 100.594 46.5788 100.059 46.5057 99.539C46.4467 99.9587 46.1401 100.37 45.5843 100.69Z" fill="white"/>
<g opacity="0.3">
<path d="M66.152 58.551V56.1451L65.4868 55.7753C65.2988 56.9106 63.9618 57.6589 62.8445 57.814L55.2338 62.2634L51.9122 63.4625L41.3108 57.9933L41.5556 57.8516C40.6493 57.4286 40.1617 56.4608 39.6715 55.5778L38.9579 56.0034L38.5337 56.1226V58.5896C38.5337 59.0609 38.8446 59.5322 39.4664 59.8913L50.0877 66.0219C51.3313 66.7396 53.3545 66.7396 54.598 66.0219L65.2188 59.8919C65.8304 59.5387 66.1413 59.077 66.151 58.6133C66.1515 58.5923 66.1504 58.5719 66.1499 58.551H66.152Z" fill="url(#paint8_linear_1_1462)"/>
<path opacity="0.3" d="M62.8439 57.8143L55.2332 62.2636L52.3423 63.3071V66.56C53.159 66.56 53.9762 66.3808 54.598 66.0216L65.2188 59.8916C65.8304 59.5384 66.1412 59.0768 66.1509 58.613C66.1514 58.5921 66.1504 58.5717 66.1498 58.5507L66.1515 58.5513V56.1454L65.5431 55.8073H65.4797C65.2719 56.9248 63.9505 57.6602 62.8439 57.8143Z" fill="#02122B"/>
<path d="M50.0877 63.5773L39.4664 57.4467C38.2228 56.729 38.2228 55.561 39.4664 54.8433L50.0872 48.7133C51.3307 47.9956 53.3539 47.9956 54.5975 48.7133L65.2188 54.8439C66.4624 55.5616 66.4624 56.7296 65.2188 57.4473L54.598 63.5773C53.3545 64.295 51.3307 64.295 50.0877 63.5773Z" fill="url(#paint9_linear_1_1462)"/>
<g opacity="0.3">
<path d="M50.0877 63.5773L39.4664 57.4467C38.2228 56.729 38.2228 55.561 39.4664 54.8433L50.0872 48.7133C51.3307 47.9956 53.3539 47.9956 54.5975 48.7133L65.2188 54.8439C66.4624 55.5616 66.4624 56.7296 65.2188 57.4473L54.598 63.5773C53.3545 64.295 51.3307 64.295 50.0877 63.5773Z" fill="#02122B"/>
</g>
</g>
<path d="M52.3427 55.8496C51.6178 55.8496 50.8929 55.6902 50.341 55.3719L39.7196 49.2419C39.1682 48.923 38.8643 48.4941 38.8643 48.032C38.8643 47.5709 39.1682 47.1414 39.7196 46.8231L50.3404 40.6926C51.4444 40.0554 53.2405 40.0559 54.3439 40.6931L64.9647 46.8231C65.5161 47.142 65.82 47.5709 65.82 48.0325C65.82 48.4941 65.5166 48.9236 64.9647 49.2419L54.3439 55.3719C53.793 55.6902 53.0681 55.8496 52.3427 55.8496ZM50.4338 55.2109C51.4868 55.819 53.1991 55.819 54.2521 55.2109L64.8729 49.0808C65.3642 48.7974 65.6348 48.4249 65.6348 48.033C65.6353 47.6412 65.3642 47.2687 64.8729 46.9852L54.2515 40.8552C53.1991 40.247 51.4868 40.2465 50.4338 40.8547L39.813 46.9852C39.3217 47.2687 39.0511 47.6407 39.0511 48.0325C39.0511 48.4244 39.3217 48.7974 39.813 49.0808L50.4338 55.2109Z" fill="#03FFCF"/>
<path opacity="0.4" d="M66.1516 45.6804V42.0447L65.4863 41.6749C65.2984 42.8102 63.9614 43.5585 62.844 43.7141L55.2333 48.163L51.9118 49.3621L41.3103 43.8929L41.5551 43.7517C40.6488 43.3287 40.1612 42.3609 39.671 41.4779L38.9574 41.9036L38.5332 42.0227V45.7201C38.5332 46.1914 38.8441 46.6627 39.4659 47.0218L50.0872 53.1518C51.3308 53.8695 53.354 53.8695 54.5976 53.1518L65.2183 47.0218C65.8299 46.6686 66.1408 46.2069 66.1505 45.7432C66.151 45.7222 66.1499 45.7018 66.1494 45.6809L66.1516 45.6804Z" fill="#03FFCF"/>
<path d="M66.1516 42.4489V40.0431L65.4863 39.6732C65.2984 40.8085 63.9614 41.5568 62.844 41.7119L55.2333 46.1613L51.9118 47.3605L41.3103 41.8912L41.5551 41.7495C40.6488 41.3265 40.1612 40.3587 39.671 39.4757L38.9574 39.9014L38.5332 40.0205V42.4876C38.5332 42.9589 38.8441 43.4302 39.4659 43.7893L50.0872 49.9198C51.3308 50.6375 53.354 50.6375 54.5976 49.9198L65.2183 43.7898C65.8299 43.4366 66.1408 42.975 66.1505 42.5112C66.151 42.4903 66.1499 42.4699 66.1494 42.4489H66.1516Z" fill="url(#paint10_linear_1_1462)"/>
<path opacity="0.3" d="M62.8439 41.7112L55.2332 46.1606L52.3423 47.2041V50.457C53.159 50.457 53.9762 50.2777 54.598 49.9186L65.2188 43.7886C65.8304 43.4354 66.1412 42.9738 66.1509 42.51C66.1514 42.489 66.1504 42.4686 66.1498 42.4477L66.1515 42.4482V40.0424L65.5431 39.7042H65.4797C65.2719 40.8218 63.9505 41.5572 62.8439 41.7112Z" fill="#02122B"/>
<path d="M50.0877 47.4752L39.4664 41.3447C38.2228 40.627 38.2228 39.459 39.4664 38.7413L50.0872 32.6113C51.3307 31.8936 53.3539 31.8936 54.5975 32.6113L65.2188 38.7413C66.4624 39.459 66.4624 40.627 65.2188 41.3447L54.598 47.4747C53.3545 48.1929 51.3307 48.1929 50.0877 47.4752Z" fill="url(#paint11_linear_1_1462)"/>
<path d="M52.3427 46.3611C51.6876 46.3611 51.0331 46.2172 50.5343 45.9295L42.2363 41.1403C41.7364 40.8515 41.4609 40.4613 41.4609 40.0421C41.4609 39.6234 41.7364 39.2331 42.2358 38.9444L50.5337 34.1552C51.5308 33.5798 53.153 33.5798 54.1506 34.1552L62.4485 38.9449C62.9484 39.2337 63.2239 39.6234 63.2239 40.0426C63.2239 40.4618 62.9484 40.8515 62.4485 41.1403L54.1506 45.9295C53.6528 46.2177 52.9978 46.3611 52.3427 46.3611ZM52.3427 33.9072C51.7214 33.9072 51.1002 34.0441 50.6277 34.3173L42.3292 39.1065C41.8894 39.3604 41.6473 39.6932 41.6473 40.0426C41.6473 40.3926 41.89 40.7259 42.3297 40.9793L50.6277 45.7684C51.5733 46.3149 53.1121 46.3149 54.0588 45.7684L62.3567 40.9793C62.7965 40.7254 63.0392 40.3926 63.0392 40.0431C63.0392 39.6937 62.7965 39.3609 62.3567 39.107L54.0588 34.3173C53.5852 34.0441 52.9639 33.9072 52.3427 33.9072Z" fill="#0439C7"/>
<path d="M65.2191 41.3444L54.5983 47.4744C53.3547 48.1921 51.331 48.1921 50.0879 47.4744L39.4666 41.3438C38.9109 41.0228 38.6043 40.6122 38.5452 40.1919C38.4722 40.712 38.7788 41.2467 39.4666 41.6434L50.0879 47.7734C51.3315 48.4911 53.3547 48.4911 54.5983 47.7734L65.2191 41.6434C65.9069 41.2461 66.2135 40.712 66.1405 40.1919C66.0814 40.6127 65.7748 41.0234 65.2191 41.3444Z" fill="white"/>
<path d="M116.599 129.702C116.105 129.702 115.586 129.583 115.181 129.35L50.0697 91.7685C49.6595 91.5318 49.4243 91.2103 49.4248 90.8866C49.4248 90.6112 49.5923 90.3627 49.8968 90.1872L88.7513 67.7616C89.3978 67.389 90.528 67.4336 91.2695 67.8614L156.381 105.442C156.791 105.679 157.026 106 157.026 106.324C157.026 106.6 156.859 106.848 156.554 107.024L117.7 129.45C117.405 129.619 117.011 129.702 116.599 129.702ZM50.1803 91.5764L115.292 129.157C115.973 129.551 117.004 129.595 117.59 129.257L156.444 106.832C156.677 106.697 156.805 106.517 156.805 106.324C156.805 106.081 156.61 105.829 156.271 105.634L91.1595 68.053C90.4792 67.6601 89.4482 67.6161 88.8624 67.9532L50.0079 90.3788C49.7749 90.513 49.6466 90.6933 49.6466 90.8861C49.646 91.1287 49.8404 91.3804 50.1803 91.5764Z" fill="#03FFCF"/>
<path d="M156.915 99.8269L153.329 99.311L91.2135 63.4595C90.501 63.0483 89.4228 63.0032 88.8053 63.3596L51.8108 84.7117L49.5342 84.3842V87.4058L49.5412 87.4068C49.5455 87.6774 49.7377 87.9613 50.1237 88.1841L115.235 125.765C115.948 126.176 117.026 126.221 117.644 125.864L156.498 103.439C156.782 103.275 156.912 103.055 156.908 102.824L156.915 102.825V99.8269Z" fill="url(#paint12_linear_1_1462)"/>
<path d="M50.1245 85.1796L115.236 122.76C115.949 123.171 117.027 123.216 117.644 122.86L156.499 100.434C157.116 100.078 157.038 99.4558 156.326 99.0446L91.2143 61.4641C90.5017 61.0529 89.4236 61.0078 88.8061 61.3643L49.9516 83.7899C49.3341 84.1458 49.4114 84.7684 50.1245 85.1796Z" fill="url(#paint13_linear_1_1462)"/>
<path opacity="0.3" d="M55.7623 85.9161L113.96 119.506C114.597 119.874 115.561 119.914 116.112 119.595L150.841 99.5508C151.393 99.2325 151.324 98.6764 150.687 98.3087L92.4889 64.7186C91.8521 64.3509 90.8882 64.3112 90.3363 64.6295L55.6071 84.674C55.0562 84.9923 55.1255 85.5484 55.7623 85.9161Z" fill="#001B62"/>
<path d="M156.498 100.108L117.644 122.533C117.026 122.89 115.949 122.845 115.236 122.434L50.1238 84.853C49.8113 84.6727 49.6282 84.4515 49.5654 84.2303C49.4671 84.5476 49.6545 84.9088 50.1238 85.1799L115.236 122.76C115.948 123.172 117.026 123.217 117.644 122.86L156.498 100.435C156.845 100.234 156.964 99.951 156.884 99.6676C156.833 99.8324 156.709 99.9859 156.498 100.108Z" fill="white"/>
<path d="M91.0968 49.7477L99.3276 0.930696L98.6656 0.652107L99.66 0.0820479L99.6584 0.0879513C99.8511 -0.0403392 100.124 -0.0328245 100.425 0.140556L166.205 38.1076C166.745 38.4194 167.155 39.2192 167.06 39.778L158.763 88.9831C158.72 89.2397 158.593 89.4093 158.416 89.4839L158.417 89.4844L157.445 90.0464L157.278 89.1382L157.333 89.1548L91.9505 51.4181C91.4109 51.1062 91.0017 50.307 91.0968 49.7477Z" fill="url(#paint14_linear_1_1462)"/>
<path d="M165.839 39.4423L166.921 38.964C167.042 39.241 167.102 39.5319 167.06 39.7778L158.763 88.9828C158.72 89.2394 158.593 89.409 158.417 89.4836L158.418 89.4841L157.445 90.0462L157.278 89.1379L157.334 89.1546L154.025 87.2452L165.839 39.4423Z" fill="url(#paint15_linear_1_1462)"/>
<path d="M90.9193 52.0097L156.7 89.9762C157.208 90.2693 157.643 90.1002 157.732 89.5742L166.028 40.3691C166.123 39.8098 165.714 39.0105 165.174 38.6986L99.3934 0.732176C98.8854 0.439094 98.4505 0.60818 98.3614 1.13422L90.065 50.3393C89.97 50.8981 90.3792 51.6979 90.9193 52.0097Z" fill="#001B62"/>
<g opacity="0.51">
<path d="M99.172 1.64771L165.261 39.7757L156.915 89.1058L90.8682 51.003L99.172 1.64771Z" fill="#0B40CE"/>
</g>
<path d="M49.5698 75.3053L53.1598 77.1797L89.1567 56.4037C89.7591 56.0558 90.811 56.0998 91.5064 56.5008L153.591 92.3341C154.185 92.0019 156.894 90.6996 156.894 90.6996L155.58 92.8349C155.58 92.8349 155.575 92.8312 155.574 92.8306C155.52 92.9831 155.403 93.1248 155.207 93.2381L117.295 115.119C116.693 115.467 115.641 115.424 114.946 115.022L51.4137 78.3532C51.128 78.1884 50.953 77.9887 50.8805 77.7868L50.8757 77.7901L49.5698 75.3053Z" fill="url(#paint16_linear_1_1462)"/>
<path d="M50.125 75.8957L115.237 113.476C115.949 113.887 117.027 113.932 117.645 113.576L156.499 91.1504C157.117 90.794 157.039 90.1719 156.326 89.7607L91.2147 52.1802C90.5022 51.769 89.424 51.7239 88.8066 52.0803L49.9521 74.5059C49.3346 74.8618 49.4119 75.484 50.125 75.8957Z" fill="url(#paint17_linear_1_1462)"/>
<path d="M50.125 75.8957L115.237 113.476C115.949 113.887 117.027 113.932 117.645 113.576L156.499 91.1504C157.117 90.794 157.039 90.1719 156.326 89.7607L91.2147 52.1802C90.5022 51.769 89.424 51.7239 88.8066 52.0803L49.9521 74.5059C49.3346 74.8618 49.4119 75.484 50.125 75.8957Z" fill="#001B62"/>
<path opacity="0.51" d="M50.125 75.8957L115.237 113.476C115.949 113.887 117.027 113.932 117.645 113.576L156.499 91.1504C157.117 90.794 157.039 90.1719 156.326 89.7607L91.2147 52.1802C90.5022 51.769 89.424 51.7239 88.8066 52.0803L49.9521 74.5059C49.3346 74.8618 49.4119 75.484 50.125 75.8957Z" fill="#0B40CE"/>
<g opacity="0.3">
<path opacity="0.5" d="M50.125 74.5119L115.237 112.092C115.949 112.504 117.027 112.549 117.645 112.192L156.499 89.7666C157.117 89.4102 157.039 88.7881 156.326 88.3769L91.2147 50.7964C90.5022 50.3852 89.424 50.3401 88.8066 50.6965L49.9521 73.1222C49.3346 73.4786 49.4119 74.1007 50.125 74.5119Z" fill="url(#paint18_radial_1_1462)"/>
<mask id="mask0_1_1462" style="mask-type:luminance" maskUnits="userSpaceOnUse" x="49" y="50" width="108" height="63">
<path d="M50.125 74.5119L115.237 112.092C115.949 112.504 117.027 112.549 117.645 112.192L156.499 89.7666C157.117 89.4102 157.039 88.7881 156.326 88.3769L91.2147 50.7964C90.5022 50.3852 89.424 50.3401 88.8066 50.6965L49.9521 73.1222C49.3346 73.4786 49.4119 74.1007 50.125 74.5119Z" fill="white"/>
</mask>
<g mask="url(#mask0_1_1462)">
<path d="M129.53 113.567V109.335L128.358 108.684C128.028 110.682 125.676 111.997 123.71 112.271L110.319 120.099L104.476 122.209L85.8227 112.586L86.2539 112.337C84.6597 111.592 83.8011 109.889 82.9387 108.335L81.6828 109.084L80.937 109.294V113.635C80.937 114.464 81.4842 115.294 82.5779 115.926L101.265 126.712C103.453 127.975 107.013 127.975 109.201 126.712L127.888 115.926C128.964 115.305 129.511 114.492 129.528 113.676C129.529 113.64 129.527 113.603 129.526 113.567H129.53Z" fill="url(#paint19_linear_1_1462)"/>
<path opacity="0.3" d="M123.709 112.271L110.319 120.099L105.232 121.935V127.658C106.67 127.658 108.107 127.343 109.201 126.711L127.888 115.926C128.964 115.305 129.511 114.492 129.528 113.676C129.529 113.64 129.527 113.603 129.526 113.567L129.529 113.568V109.336L128.459 108.741H128.347C127.982 110.705 125.657 112 123.709 112.271Z" fill="#02122B"/>
<path d="M86.254 112.336L103.962 102.115C104.663 101.711 105.803 101.711 106.504 102.115L123.903 112.158L123.71 112.271C125.677 111.997 128.028 110.681 128.359 108.683L108.832 97.8265L103.151 96.3257L98.5243 99.0439L82.9395 108.336C83.8007 109.889 84.6598 111.592 86.254 112.336Z" fill="url(#paint20_linear_1_1462)"/>
<path opacity="0.3" d="M105.233 96.8759L103.15 96.3257L98.5238 99.0439L82.939 108.336C83.8013 109.89 84.6599 111.593 86.2541 112.337L103.963 102.116C104.313 101.914 104.773 101.813 105.233 101.813V96.8759Z" fill="#02122B"/>
<path d="M101.265 122.411L82.5781 111.625C80.39 110.362 80.39 108.307 82.5781 107.044L101.265 96.2583C103.453 94.9953 107.013 94.9953 109.201 96.2583L127.888 107.044C130.076 108.307 130.076 110.362 127.888 111.625L109.201 122.41C107.014 123.673 103.453 123.673 101.265 122.411ZM106.504 97.8155C105.803 97.4113 104.663 97.4108 103.962 97.8155L85.2757 108.601C84.5749 109.005 84.5749 109.663 85.2757 110.068L103.963 120.854C104.664 121.258 105.804 121.258 106.504 120.854L125.191 110.068C125.892 109.664 125.892 109.006 125.191 108.602L106.504 97.8155Z" fill="#0439C7"/>
<path d="M125.191 108.601L106.504 97.8148C105.803 97.4106 104.663 97.4101 103.962 97.8148L85.2754 108.6C84.8083 108.87 84.6542 109.253 84.8104 109.597C84.8883 109.425 85.0424 109.262 85.2754 109.127L103.962 98.3419C104.663 97.9377 105.803 97.9377 106.504 98.3419L125.191 109.128C125.424 109.263 125.578 109.425 125.656 109.598C125.812 109.253 125.658 108.871 125.191 108.601Z" fill="white"/>
<path d="M127.889 111.625L109.202 122.41C107.014 123.673 103.453 123.673 101.266 122.41L82.5786 111.624C81.6008 111.06 81.0611 110.337 80.957 109.597C80.8286 110.513 81.3683 111.453 82.5786 112.151L101.266 122.937C103.454 124.201 107.014 124.201 109.202 122.937L127.889 112.152C129.099 111.454 129.638 110.513 129.51 109.598C129.406 110.338 128.867 111.061 127.889 111.625Z" fill="white"/>
<path d="M101.793 122.106L83.1054 111.32C81.2084 110.225 81.2084 108.444 83.1054 107.349L101.792 96.563C103.689 95.4679 106.776 95.4679 108.673 96.563L127.36 107.349C129.257 108.444 129.257 110.226 127.36 111.32L108.674 122.106C106.777 123.201 103.69 123.201 101.793 122.106ZM107.031 97.5109C106.039 96.9387 104.426 96.9387 103.434 97.5109L84.7474 108.296C83.7556 108.869 83.7556 109.8 84.7474 110.372L103.435 121.158C104.426 121.73 106.04 121.73 107.032 121.158L125.718 110.373C126.71 109.801 126.71 108.869 125.718 108.297L107.031 97.5109Z" fill="url(#paint21_linear_1_1462)"/>
<path opacity="0.4" d="M106.504 97.8149C105.803 97.4107 104.663 97.4102 103.962 97.8149L85.2755 108.6C84.5748 109.005 84.5748 109.663 85.2755 110.067L103.963 120.853C104.664 121.257 105.804 121.257 106.504 120.853L125.191 110.068C125.892 109.663 125.892 109.005 125.191 108.601L106.504 97.8149Z" fill="#03FFCF"/>
<path opacity="0.4" d="M129.53 109.794V103.396L128.358 102.745C128.028 104.743 125.676 106.059 123.71 106.333L110.319 114.161L104.476 116.27L85.8227 106.647L86.2539 106.398C84.6597 105.654 83.8011 103.951 82.9387 102.397L81.6828 103.146L80.937 103.355V109.86C80.937 110.69 81.4842 111.519 82.5779 112.15L101.265 122.936C103.453 124.199 107.013 124.199 109.201 122.936L127.888 112.151C128.964 111.53 129.511 110.717 129.528 109.901C129.529 109.865 129.527 109.828 129.526 109.792L129.53 109.794Z" fill="#03FFCF"/>
<path d="M129.53 104.107V99.874L128.358 99.2229C128.028 101.221 125.676 102.536 123.71 102.81L110.319 110.638L104.476 112.748L85.8227 103.125L86.2539 102.876C84.6597 102.131 83.8011 100.428 82.9387 98.8745L81.6828 99.6233L80.937 99.8332V104.174C80.937 105.003 81.4842 105.833 82.5779 106.465L101.265 117.251C103.453 118.514 107.013 118.514 109.201 117.251L127.888 106.465C128.964 105.844 129.511 105.031 129.528 104.215C129.529 104.179 129.527 104.142 129.526 104.106L129.53 104.107Z" fill="url(#paint22_linear_1_1462)"/>
<path opacity="0.3" d="M123.709 102.81L110.319 110.638L105.232 112.474V118.197C106.67 118.197 108.107 117.882 109.201 117.251L127.888 106.465C128.964 105.844 129.511 105.031 129.528 104.215C129.529 104.179 129.527 104.142 129.526 104.106L129.529 104.107V99.8745L128.459 99.2792H128.347C127.982 101.245 125.657 102.539 123.709 102.81Z" fill="#02122B"/>
<path d="M86.2535 102.876L103.962 92.6551C104.663 92.2509 105.803 92.2509 106.503 92.6551L123.903 102.698L123.71 102.81C125.676 102.537 128.028 101.22 128.359 99.2231L108.832 88.3662L103.15 86.8654L98.5238 89.5836L82.939 98.8758C83.8002 100.428 84.6593 102.131 86.2535 102.876Z" fill="url(#paint23_linear_1_1462)"/>
<path opacity="0.3" d="M105.233 87.415L103.15 86.8647L98.5238 89.583L82.939 98.8752C83.8013 100.429 84.6599 102.132 86.2541 102.876L103.963 92.6555C104.313 92.4532 104.773 92.3523 105.233 92.3523V87.415Z" fill="#02122B"/>
<path d="M101.265 112.95L82.5781 102.164C80.39 100.901 80.39 98.8465 82.5781 97.5834L101.265 86.7979C103.453 85.5349 107.013 85.5354 109.201 86.7979L127.888 97.584C130.076 98.847 130.076 100.902 127.888 102.164L109.201 112.95C107.014 114.213 103.453 114.213 101.265 112.95ZM106.504 88.3551C105.803 87.9509 104.663 87.9504 103.962 88.3551L85.2757 99.1406C84.5749 99.5448 84.5749 100.203 85.2757 100.608L103.963 111.394C104.664 111.798 105.804 111.798 106.504 111.394L125.191 100.608C125.892 100.204 125.892 99.5459 125.191 99.1417L106.504 88.3551Z" fill="#0439C7"/>
<path d="M125.191 99.1404L106.504 88.3544C105.803 87.9502 104.663 87.9496 103.962 88.3544L85.2754 99.1399C84.8083 99.4094 84.6542 99.7921 84.8104 100.137C84.8883 99.9644 85.0424 99.8017 85.2754 99.667L103.962 88.8815C104.663 88.4773 105.803 88.4773 106.504 88.8815L125.191 99.6675C125.424 99.8023 125.578 99.9649 125.656 100.137C125.812 99.7926 125.658 99.4104 125.191 99.1404Z" fill="white"/>
<path d="M127.889 102.164L109.202 112.95C107.014 114.213 103.453 114.213 101.266 112.95L82.5786 102.164C81.6008 101.599 81.0611 100.877 80.957 100.137C80.8286 101.052 81.3683 101.993 82.5786 102.691L101.266 113.477C103.454 114.74 107.014 114.74 109.202 113.477L127.889 102.692C129.099 101.993 129.638 101.053 129.51 100.137C129.406 100.877 128.867 101.6 127.889 102.164Z" fill="white"/>
<path d="M101.793 112.645L83.1054 101.859C81.2084 100.764 81.2084 98.9826 83.1054 97.8876L101.792 87.102C103.689 86.007 106.776 86.007 108.673 87.102L127.36 97.8881C129.257 98.9831 129.257 100.765 127.36 101.859L108.674 112.645C106.777 113.74 103.69 113.74 101.793 112.645ZM107.031 88.05C106.039 87.4778 104.426 87.4778 103.434 88.05L84.7474 98.8355C83.7556 99.4077 83.7556 100.339 84.7474 100.911L103.435 111.697C104.426 112.27 106.04 112.27 107.032 111.697L125.718 100.912C126.71 100.34 126.71 99.4083 125.718 98.8361L107.031 88.05Z" fill="url(#paint24_linear_1_1462)"/>
<path opacity="0.4" d="M106.504 88.3546C105.803 87.9504 104.663 87.9499 103.962 88.3546L85.2755 99.1401C84.5748 99.5443 84.5748 100.202 85.2755 100.607L103.963 111.393C104.664 111.797 105.804 111.797 106.504 111.393L125.191 100.608C125.892 100.204 125.892 99.5454 125.191 99.1412L106.504 88.3546Z" fill="#03FFCF"/>
<path opacity="0.4" d="M129.53 100.335V93.9374L128.358 93.2862C128.028 95.2836 125.676 96.6003 123.71 96.8735L110.319 104.701L104.476 106.811L85.8227 97.1881L86.2539 96.939C84.6597 96.1945 83.8011 94.4918 82.9387 92.9379L81.6828 93.6867L80.937 93.8966V100.402C80.937 101.231 81.4842 102.06 82.5779 102.692L101.265 113.478C103.453 114.741 107.013 114.741 109.201 113.478L127.888 102.693C128.964 102.072 129.511 101.259 129.528 100.443C129.529 100.407 129.527 100.37 129.526 100.334L129.53 100.335Z" fill="#03FFCF"/>
<path d="M129.53 94.6475V90.415L128.358 89.7639C128.028 91.7618 125.676 93.0774 123.71 93.3512L110.319 101.179L104.476 103.289L85.8227 93.6658L86.2539 93.4167C84.6597 92.6722 83.8011 90.9695 82.9387 89.4155L81.6828 90.1643L80.937 90.3742V94.7152C80.937 95.5445 81.4842 96.3738 82.5779 97.0051L101.265 107.791C103.453 109.054 107.013 109.054 109.201 107.791L127.888 97.0056C128.964 96.3845 129.511 95.5719 129.528 94.7559C129.529 94.7194 129.527 94.683 129.526 94.6464L129.53 94.6475Z" fill="url(#paint25_linear_1_1462)"/>
<path opacity="0.3" d="M123.709 93.3511L110.319 101.179L105.232 103.015V108.738C106.67 108.738 108.107 108.423 109.201 107.792L127.888 97.0061C128.964 96.385 129.511 95.5723 129.528 94.7564C129.529 94.7199 129.527 94.6834 129.526 94.6469L129.529 94.648V90.4155L128.459 89.8202H128.347C127.982 91.7859 125.657 93.0801 123.709 93.3511Z" fill="#02122B"/>
<path d="M86.2535 93.4168L103.962 83.196C104.663 82.7918 105.803 82.7918 106.503 83.196L123.903 93.2381L123.71 93.3508C125.676 93.0771 128.028 91.7609 128.359 89.7635L108.832 78.9066L103.15 77.4058L98.5238 80.124L82.939 89.4162C83.8002 90.9697 84.6593 92.6729 86.2535 93.4168Z" fill="url(#paint26_linear_1_1462)"/>
<path opacity="0.3" d="M105.233 77.956L103.15 77.4058L98.5238 80.124L82.939 89.4162C83.8013 90.9697 84.6599 92.6729 86.2541 93.4174L103.963 83.1966C104.313 82.9942 104.773 82.8933 105.233 82.8933V77.956Z" fill="#02122B"/>
<path d="M101.265 103.491L82.5781 92.7053C80.39 91.4423 80.39 89.3875 82.5781 88.1245L101.265 77.3389C103.453 76.0759 107.013 76.0764 109.201 77.3389L127.888 88.125C130.076 89.388 130.076 91.4428 127.888 92.7053L109.201 103.491C107.014 104.754 103.453 104.754 101.265 103.491ZM106.504 78.8961C105.803 78.4919 104.663 78.4919 103.962 78.8961L85.2757 89.6817C84.5749 90.0859 84.5749 90.7439 85.2757 91.1487L103.963 101.935C104.664 102.339 105.804 102.339 106.504 101.935L125.191 91.1492C125.892 90.745 125.892 90.0869 125.191 89.6827L106.504 78.8961Z" fill="#0439C7"/>
<path d="M125.191 89.6824L106.504 78.8964C105.803 78.4922 104.663 78.4916 103.962 78.8964L85.2754 89.6819C84.8083 89.9514 84.6542 90.3341 84.8104 90.6787C84.8883 90.5064 85.0424 90.3437 85.2754 90.209L103.962 79.4235C104.663 79.0193 105.803 79.0193 106.504 79.4235L125.191 90.2095C125.424 90.3443 125.578 90.5069 125.656 90.6792C125.812 90.3346 125.658 89.9519 125.191 89.6824Z" fill="white"/>
<path d="M127.889 92.7064L109.202 103.492C107.014 104.755 103.453 104.755 101.266 103.492L82.5786 92.7058C81.6008 92.1411 81.0611 91.4186 80.957 90.679C80.8286 91.5942 81.3683 92.5346 82.5786 93.233L101.266 104.019C103.454 105.282 107.014 105.282 109.202 104.019L127.889 93.2335C129.099 92.5351 129.638 91.5947 129.51 90.6795C129.406 91.4192 128.867 92.1417 127.889 92.7064Z" fill="white"/>
<path d="M101.793 103.186L83.1054 92.4002C81.2084 91.3052 81.2084 89.5236 83.1054 88.4286L101.792 77.6431C103.689 76.548 106.776 76.548 108.673 77.6431L127.36 88.4291C129.257 89.5241 129.257 91.3057 127.36 92.4002L108.674 103.186C106.777 104.281 103.69 104.281 101.793 103.186ZM107.031 78.5915C106.039 78.0193 104.426 78.0188 103.434 78.5915L84.7474 89.3771C83.7556 89.9493 83.7556 90.8806 84.7474 91.4528L103.435 102.239C104.426 102.811 106.04 102.811 107.032 102.239L125.718 91.4533C126.71 90.8811 126.71 89.9498 125.718 89.3776L107.031 78.5915Z" fill="url(#paint27_linear_1_1462)"/>
<path opacity="0.4" d="M106.504 78.8959C105.803 78.4917 104.663 78.4917 103.962 78.8959L85.2755 89.6814C84.5748 90.0856 84.5748 90.7437 85.2755 91.1485L103.963 101.935C104.664 102.339 105.804 102.339 106.504 101.935L125.191 91.149C125.892 90.7448 125.892 90.0867 125.191 89.6825L106.504 78.8959Z" fill="#03FFCF"/>
<path opacity="0.4" d="M129.53 90.8753V84.4779L128.358 83.8268C128.028 85.8242 125.676 87.1409 123.71 87.4141L110.319 95.2425L104.476 97.3521L85.8227 87.7292L86.2539 87.4802C84.6597 86.7356 83.8011 85.0324 82.9387 83.479L81.6828 84.2278L80.937 84.4377V90.9429C80.937 91.7723 81.4842 92.6016 82.5779 93.2328L101.265 104.019C103.453 105.282 107.013 105.282 109.201 104.019L127.888 93.2334C128.964 92.6123 129.511 91.7996 129.528 90.9837C129.529 90.9472 129.527 90.9107 129.526 90.8742L129.53 90.8753Z" fill="#03FFCF"/>
<path d="M129.53 85.189V80.9565L128.358 80.3054C128.028 82.3033 125.676 83.6189 123.71 83.8927L110.319 91.7206L104.476 93.8301L85.8227 84.2073L86.2539 83.9582C84.6597 83.2137 83.8011 81.511 82.9387 79.957L81.6828 80.7058L80.937 80.9152V85.2561C80.937 86.0855 81.4842 86.9148 82.5779 87.546L101.265 98.3321C103.453 99.5951 107.013 99.5951 109.201 98.3321L127.888 87.5466C128.964 86.9255 129.511 86.1128 129.528 85.2969C129.529 85.2604 129.527 85.2239 129.526 85.1874L129.53 85.189Z" fill="url(#paint28_linear_1_1462)"/>
<path opacity="0.3" d="M123.709 83.8932L110.319 91.7211L105.232 93.5574V99.2806C106.67 99.2806 108.107 98.965 109.201 98.3337L127.888 87.5482C128.964 86.9271 129.511 86.1144 129.528 85.2985C129.529 85.262 129.527 85.2255 129.526 85.189L129.529 85.1901V80.9576L128.459 80.3623H128.347C127.982 82.3275 125.657 83.6222 123.709 83.8932Z" fill="#02122B"/>
<path d="M86.254 83.9584L103.962 73.7375C104.663 73.3333 105.803 73.3333 106.504 73.7375L123.903 83.7796L123.71 83.8923C125.677 83.6186 128.028 82.3024 128.359 80.305L108.832 69.4481L103.151 67.9473L98.5243 70.6655L82.9395 79.9577C83.8007 81.5112 84.6598 83.2138 86.254 83.9584Z" fill="url(#paint29_linear_1_1462)"/>
<path opacity="0.3" d="M105.233 68.4975L103.15 67.9473L98.5238 70.6655L82.939 79.9577C83.8013 81.5112 84.6599 83.2144 86.2541 83.9589L103.963 73.738C104.313 73.5357 104.773 73.4348 105.233 73.4348V68.4975Z" fill="#02122B"/>
<path d="M101.265 94.0335L82.5781 83.2475C80.39 81.9844 80.39 79.9296 82.5781 78.6666L101.265 67.881C103.453 66.618 107.013 66.6185 109.201 67.881L127.888 78.6671C130.076 79.9301 130.076 81.9849 127.888 83.2475L109.201 94.033C107.014 95.296 103.453 95.296 101.265 94.0335ZM106.504 69.4382C105.803 69.034 104.663 69.034 103.962 69.4382L85.2757 80.2238C84.5749 80.628 84.5749 81.2861 85.2757 81.6908L103.963 92.4769C104.664 92.881 105.804 92.881 106.504 92.4769L125.191 81.6913C125.892 81.2871 125.892 80.629 125.191 80.2248L106.504 69.4382Z" fill="url(#paint30_linear_1_1462)"/>
<path d="M125.191 80.2236L106.504 69.4375C105.803 69.0334 104.663 69.0334 103.962 69.4375L85.2754 80.2231C84.8083 80.4931 84.6542 80.8753 84.8104 81.2204C84.8883 81.0481 85.0424 80.8855 85.2754 80.7507L103.962 69.9652C104.663 69.561 105.803 69.561 106.504 69.9652L125.191 80.7513C125.424 80.886 125.578 81.0486 125.656 81.2209C125.812 80.8758 125.658 80.4931 125.191 80.2236Z" fill="white"/>
<path d="M127.889 83.2462L109.202 94.0317C107.014 95.2947 103.453 95.2947 101.266 94.0317L82.5786 83.2456C81.6008 82.6809 81.0611 81.9584 80.957 81.2188C80.8286 82.134 81.3683 83.0744 82.5786 83.7728L101.266 94.5588C103.454 95.8219 107.014 95.8219 109.202 94.5588L127.889 83.7733C129.099 83.0749 129.638 82.1345 129.51 81.2193C129.406 81.9595 128.867 82.682 127.889 83.2462Z" fill="white"/>
<path d="M101.793 93.7278L83.1054 82.9417C81.2084 81.8467 81.2084 80.0651 83.1054 78.9701L101.792 68.1846C103.689 67.0895 106.776 67.0895 108.673 68.1846L127.36 78.9706C129.257 80.0656 129.257 81.8472 127.36 82.9417L108.674 93.7272C106.777 94.8228 103.69 94.8228 101.793 93.7278ZM107.031 69.1325C106.039 68.5603 104.426 68.5598 103.434 69.1325L84.7474 79.918C83.7556 80.4902 83.7556 81.4216 84.7474 81.9943L103.435 92.7804C104.426 93.3526 106.04 93.3526 107.032 92.7804L125.718 81.9948C126.71 81.4226 126.71 80.4913 125.718 79.9191L107.031 69.1325Z" fill="url(#paint31_linear_1_1462)"/>
<path opacity="0.4" d="M106.504 69.4374C105.803 69.0332 104.663 69.0332 103.962 69.4374L85.2755 80.223C84.5748 80.6271 84.5748 81.2852 85.2755 81.69L103.963 92.476C104.664 92.8802 105.804 92.8802 106.504 92.476L125.191 81.6905C125.892 81.2863 125.892 80.6282 125.191 80.224L106.504 69.4374Z" fill="#03FFCF"/>
</g>
</g>
<path opacity="0.8" d="M116.596 112.589C116.098 112.589 115.576 112.466 115.159 112.226L50.0477 74.6454C49.624 74.4006 49.3813 74.0657 49.3813 73.7259C49.3813 73.4344 49.5569 73.173 49.8748 72.9894L88.7293 50.5638C89.3989 50.1773 90.5243 50.2208 91.2905 50.6636L156.402 88.2442C156.826 88.489 157.069 88.8239 157.069 89.1637C157.069 89.4552 156.893 89.7166 156.575 89.9007L117.721 112.326C117.415 112.502 117.015 112.589 116.596 112.589ZM50.2018 74.3791L115.313 111.96C115.983 112.346 116.994 112.391 117.568 112.06L156.423 89.6339C156.578 89.5443 156.762 89.3902 156.762 89.1632C156.762 88.9361 156.576 88.6983 156.25 88.5099L91.138 50.9294C90.469 50.5423 89.4579 50.4978 88.8839 50.8295L50.0294 73.2551C49.8743 73.3442 49.6896 73.4983 49.6896 73.7253C49.689 73.9529 49.8759 74.1913 50.2018 74.3791Z" fill="url(#paint32_linear_1_1462)"/>
<path d="M50.1253 75.6042L115.237 113.185C115.949 113.596 117.028 113.641 117.645 113.285L156.5 90.859C156.717 90.7334 156.843 90.5745 156.891 90.4038C156.96 90.6803 156.838 90.9551 156.5 91.1505L117.645 113.576C117.028 113.933 115.95 113.887 115.237 113.476L50.1253 75.8963C49.6635 75.6295 49.4729 75.2752 49.5609 74.9612C49.6179 75.1893 49.8026 75.4185 50.1253 75.6042Z" fill="white"/>
<g opacity="0.15">
<mask id="mask1_1_1462" style="mask-type:luminance" maskUnits="userSpaceOnUse" x="90" y="1" width="76" height="89">
<path d="M165.262 39.7745L99.1725 1.64648L90.8687 51.0018L156.916 89.1046L165.262 39.7745Z" fill="white"/>
</mask>
<g mask="url(#mask1_1_1462)">
<path d="M90.8394 51.6927L94.4294 53.5671L130.426 32.791C131.029 32.4437 132.081 32.4872 132.776 32.8882L194.86 68.7215C195.455 68.3892 198.163 67.087 198.163 67.087L196.849 69.2223C196.849 69.2223 196.845 69.2185 196.844 69.218C196.79 69.3705 196.672 69.5122 196.476 69.6254L158.565 91.5067C157.962 91.8546 156.911 91.8106 156.215 91.4096L92.6827 54.7405C92.397 54.5757 92.222 54.376 92.1495 54.1742L92.1447 54.1774L90.8394 51.6927Z" fill="url(#paint33_linear_1_1462)"/>
<path d="M91.3945 52.2823L156.506 89.8628C157.219 90.274 158.297 90.319 158.914 89.9626L197.769 67.537C198.386 67.1806 198.308 66.5585 197.596 66.1473L132.484 28.5668C131.772 28.1556 130.694 28.1105 130.076 28.4669L91.2216 50.8925C90.6041 51.2484 90.6814 51.8706 91.3945 52.2823Z" fill="url(#paint34_linear_1_1462)"/>
<path d="M91.3945 52.2823L156.506 89.8628C157.219 90.274 158.297 90.319 158.914 89.9626L197.769 67.537C198.386 67.1806 198.308 66.5585 197.596 66.1473L132.484 28.5668C131.772 28.1556 130.694 28.1105 130.076 28.4669L91.2216 50.8925C90.6041 51.2484 90.6814 51.8706 91.3945 52.2823Z" fill="#001B62"/>
<path opacity="0.51" d="M91.3945 52.2823L156.506 89.8628C157.219 90.274 158.297 90.319 158.914 89.9626L197.769 67.537C198.386 67.1806 198.308 66.5585 197.596 66.1473L132.484 28.5668C131.772 28.1556 130.694 28.1105 130.076 28.4669L91.2216 50.8925C90.6041 51.2484 90.6814 51.8706 91.3945 52.2823Z" fill="#0B40CE"/>
<path d="M197.595 66.147L132.484 28.5664C132.025 28.3018 131.416 28.1912 130.875 28.2395C131.275 28.2707 131.678 28.3786 132.004 28.5664L197.116 66.147C197.828 66.5581 197.906 67.1803 197.289 67.5367L158.434 89.9623C158.214 90.089 157.935 90.1631 157.635 90.1899C158.109 90.2269 158.579 90.1555 158.914 89.9623L197.769 67.5367C198.386 67.1808 198.308 66.5587 197.595 66.147Z" fill="white"/>
</g>
<mask id="mask2_1_1462" style="mask-type:luminance" maskUnits="userSpaceOnUse" x="90" y="1" width="76" height="89">
<path d="M165.262 39.7745L99.1725 1.64648L90.8687 51.0018L156.916 89.1046L165.262 39.7745Z" fill="white"/>
</mask>
<g mask="url(#mask2_1_1462)">
<path opacity="0.4" d="M139.38 73.5577L120.692 62.7717C118.795 61.6766 118.795 59.8951 120.692 58.8L139.379 48.0145C141.276 46.9195 144.362 46.9195 146.26 48.0145L164.947 58.8006C166.844 59.8956 166.844 61.6772 164.947 62.7717L146.261 73.5572C144.364 74.6528 141.277 74.6528 139.38 73.5577Z" fill="#001B62"/>
</g>
<mask id="mask3_1_1462" style="mask-type:luminance" maskUnits="userSpaceOnUse" x="90" y="1" width="76" height="89">
<path d="M165.262 39.7745L99.1725 1.64648L90.8687 51.0018L156.916 89.1046L165.262 39.7745Z" fill="white"/>
</mask>
<g mask="url(#mask3_1_1462)">
<path d="M167.074 57.7481V53.5156L165.903 52.8645C165.572 54.8618 163.22 56.1786 161.254 56.4518L147.864 64.2796L142.02 66.3892L123.367 56.7663L123.798 56.5173C122.204 55.7728 121.346 54.0701 120.483 52.5161L119.227 53.2649L118.481 53.4748V57.8157C118.481 58.6451 119.029 59.4744 120.122 60.1062L138.81 70.8922C140.998 72.1553 144.558 72.1553 146.746 70.8922L165.433 60.1067C166.509 59.4857 167.056 58.673 167.073 57.8571C167.073 57.8206 167.072 57.7841 167.071 57.7476L167.074 57.7481Z" fill="url(#paint35_linear_1_1462)"/>
<path opacity="0.3" d="M161.254 56.4523L147.864 64.2801L142.777 66.1165V71.8396C144.215 71.8396 145.652 71.524 146.746 70.8922L165.433 60.1067C166.509 59.4856 167.056 58.6729 167.073 57.857C167.074 57.8205 167.072 57.784 167.071 57.7475L167.074 57.7486V53.5161L166.003 52.9208H165.892C165.527 54.887 163.202 56.1812 161.254 56.4523Z" fill="#02122B"/>
<path d="M123.798 56.5174L141.507 46.2966C142.207 45.8924 143.347 45.8924 144.048 46.2966L161.447 56.3387L161.254 56.4514C163.221 56.1777 165.572 54.8615 165.903 52.8641L146.376 42.0072L140.695 40.5063L136.068 43.2246L120.483 52.5168C121.345 54.0703 122.204 55.7729 123.798 56.5174Z" fill="url(#paint36_linear_1_1462)"/>
<path opacity="0.3" d="M142.777 41.0565L140.694 40.5063L136.068 43.2246L120.482 52.5168C121.345 54.0703 122.203 55.7735 123.798 56.518L141.506 46.2971C141.856 46.0948 142.317 45.9939 142.777 45.9939L142.777 41.0565Z" fill="#02122B"/>
<path d="M138.809 66.5918L120.122 55.8057C117.934 54.5427 117.934 52.4879 120.122 51.2248L138.809 40.4393C140.997 39.1768 144.557 39.1768 146.745 40.4393L165.432 51.2254C167.62 52.4884 167.62 54.5432 165.432 55.8057L146.745 66.5912C144.558 67.8543 140.997 67.8543 138.809 66.5918ZM144.048 41.9965C143.347 41.5923 142.207 41.5923 141.506 41.9965L122.82 52.782C122.119 53.1862 122.119 53.8443 122.82 54.2491L141.507 65.0351C142.208 65.4393 143.348 65.4393 144.048 65.0351L162.735 54.2496C163.436 53.8454 163.436 53.1873 162.735 52.7831L144.048 41.9965Z" fill="#0439C7"/>
<path d="M162.735 52.7828L144.048 41.9968C143.347 41.5926 142.207 41.5926 141.507 41.9968L122.82 52.7823C122.353 53.0523 122.199 53.4345 122.355 53.7791C122.433 53.6068 122.587 53.4441 122.82 53.3094L141.507 42.5239C142.207 42.1197 143.347 42.1197 144.048 42.5239L162.735 53.3099C162.968 53.4447 163.122 53.6073 163.2 53.7796C163.357 53.435 163.203 53.0523 162.735 52.7828Z" fill="white"/>
<path d="M165.433 55.8064L146.746 66.5919C144.558 67.8549 140.997 67.8549 138.81 66.5919L120.122 55.8058C119.144 55.2411 118.605 54.5186 118.501 53.7789C118.373 54.6941 118.912 55.6346 120.122 56.3329L138.81 67.119C140.998 68.382 144.558 68.382 146.746 67.119L165.433 56.3335C166.643 55.6351 167.182 54.6947 167.054 53.7795C166.95 54.5192 166.41 55.2417 165.433 55.8064Z" fill="white"/>
<path d="M139.338 66.2869L120.65 55.5008C118.753 54.4058 118.753 52.6242 120.65 51.5292L139.337 40.7436C141.234 39.6486 144.321 39.6486 146.218 40.7436L164.905 51.5297C166.802 52.6247 166.802 54.4063 164.905 55.5008L146.219 66.2863C144.322 67.3819 141.235 67.3819 139.338 66.2869ZM144.576 41.6916C143.584 41.1194 141.971 41.1194 140.98 41.6916L122.293 52.4771C121.301 53.0493 121.301 53.9806 122.293 54.5534L140.98 65.3394C141.972 65.9117 143.585 65.9117 144.577 65.3394L163.263 54.5539C164.255 53.9817 164.255 53.0504 163.263 52.4782L144.576 41.6916Z" fill="url(#paint37_linear_1_1462)"/>
<path opacity="0.4" d="M144.048 41.9965C143.347 41.5923 142.207 41.5923 141.507 41.9965L122.82 52.782C122.119 53.1862 122.119 53.8443 122.82 54.2491L141.507 65.0351C142.208 65.4393 143.348 65.4393 144.049 65.0351L162.735 54.2496C163.436 53.8454 163.436 53.1873 162.735 52.7831L144.048 41.9965Z" fill="#03FFCF"/>
<path opacity="0.4" d="M167.074 53.9756V47.5782L165.903 46.9271C165.572 48.925 163.22 50.2407 161.254 50.5144L147.864 58.3423L142.02 60.4518L123.367 50.829L123.798 50.5799C122.204 49.8354 121.346 48.1322 120.483 46.5787L119.227 47.3275L118.481 47.5374V54.0427C118.481 54.872 119.029 55.7013 120.122 56.3326L138.81 67.1186C140.998 68.3817 144.558 68.3817 146.746 67.1186L165.433 56.3331C166.509 55.7121 167.056 54.8994 167.073 54.0835C167.073 54.047 167.072 54.0105 167.071 53.974L167.074 53.9756Z" fill="#03FFCF"/>
<path d="M167.074 48.2899V44.0573L165.903 43.4062C165.573 45.4036 163.221 46.7203 161.255 46.9935L147.864 54.8214L142.021 56.9309L123.368 47.3081L123.799 47.059C122.205 46.3145 121.346 44.6118 120.484 43.0579L119.228 43.8067L118.482 44.0165V48.3575C118.482 49.1868 119.029 50.0161 120.123 50.6479L138.81 61.434C140.998 62.697 144.558 62.697 146.746 61.434L165.433 50.6485C166.509 50.0274 167.056 49.2147 167.073 48.3988C167.074 48.3623 167.072 48.3258 167.071 48.2899H167.074Z" fill="url(#paint38_linear_1_1462)"/>
<path opacity="0.3" d="M161.254 46.9935L147.864 54.8219L142.777 56.6583V62.3814C144.215 62.3814 145.652 62.0658 146.746 61.434L165.433 50.6485C166.509 50.0274 167.056 49.2147 167.073 48.3988C167.074 48.3623 167.072 48.3258 167.071 48.2899L167.074 48.2909V44.0584L166.003 43.4631H165.892C165.527 45.4283 163.202 46.723 161.254 46.9935Z" fill="#02122B"/>
<path d="M123.799 47.0587L141.507 36.8379C142.208 36.4337 143.348 36.4337 144.048 36.8379L161.448 46.8799L161.255 46.9927C163.221 46.7189 165.573 45.4027 165.904 43.4054L146.377 32.5484L140.695 31.0476L136.069 33.7659L120.483 43.0581C121.345 44.611 122.204 46.3142 123.799 47.0587Z" fill="url(#paint39_linear_1_1462)"/>
<path opacity="0.3" d="M142.778 31.5978L140.695 31.0476L136.068 33.7659L120.483 43.0581C121.345 44.6115 122.204 46.3147 123.798 47.0592L141.506 36.8384C141.857 36.636 142.317 36.5351 142.777 36.5351L142.778 31.5978Z" fill="#02122B"/>
<path d="M138.81 57.1326L120.122 46.3465C117.934 45.0835 117.934 43.0287 120.122 41.7656L138.809 30.9801C140.997 29.7171 144.557 29.7171 146.745 30.9801L165.433 41.7662C167.621 43.0292 167.621 45.084 165.433 46.3465L146.746 57.1321C144.558 58.3956 140.998 58.3956 138.81 57.1326ZM144.048 32.5379C143.348 32.1337 142.208 32.1331 141.507 32.5379L122.82 43.3234C122.119 43.7276 122.119 44.3857 122.82 44.7899L141.507 55.5759C142.208 55.9801 143.348 55.9801 144.049 55.5759L162.736 44.7904C163.436 44.3862 163.436 43.7281 162.736 43.3239L144.048 32.5379Z" fill="#0439C7"/>
<path d="M162.736 43.3241L144.048 32.5381C143.348 32.1339 142.208 32.1334 141.507 32.5381L122.82 43.3236C122.353 43.5936 122.199 43.9758 122.355 44.3204C122.433 44.1481 122.587 43.9855 122.82 43.8507L141.507 33.0652C142.208 32.661 143.348 32.661 144.048 33.0652L162.736 43.8513C162.969 43.986 163.123 44.1486 163.201 44.321C163.357 43.9763 163.203 43.5941 162.736 43.3241Z" fill="white"/>
<path d="M165.433 46.3476L146.746 57.1331C144.558 58.3962 140.998 58.3962 138.81 57.1331L120.123 46.3471C119.145 45.7824 118.606 45.0599 118.501 44.3202C118.373 45.2354 118.913 46.1758 120.123 46.8742L138.81 57.6603C140.998 58.9233 144.558 58.9233 146.746 57.6603L165.433 46.8747C166.643 46.1764 167.183 45.2359 167.054 44.3207C166.951 45.0604 166.411 45.7835 165.433 46.3476Z" fill="white"/>
<path d="M139.338 56.8292L120.65 46.0432C118.753 44.9481 118.753 43.1665 120.65 42.0715L139.337 31.286C141.234 30.191 144.321 30.191 146.218 31.286L164.905 42.0721C166.802 43.1671 166.802 44.9487 164.905 46.0432L146.219 56.8287C144.322 57.9242 141.235 57.9243 139.338 56.8292ZM144.576 32.2339C143.584 31.6617 141.971 31.6617 140.98 32.2339L122.293 43.0195C121.301 43.5917 121.301 44.523 122.293 45.0957L140.98 55.8818C141.972 56.454 143.585 56.454 144.577 55.8818L163.263 45.0963C164.255 44.5241 164.255 43.5928 163.263 43.0205L144.576 32.2339Z" fill="url(#paint40_linear_1_1462)"/>
<path opacity="0.4" d="M144.048 32.5375C143.347 32.1333 142.207 32.1327 141.507 32.5375L122.82 43.323C122.119 43.7272 122.119 44.3853 122.82 44.7895L141.507 55.5756C142.208 55.9797 143.348 55.9797 144.049 55.5756L162.735 44.79C163.436 44.3858 163.436 43.7277 162.735 43.3235L144.048 32.5375Z" fill="#03FFCF"/>
<path opacity="0.4" d="M167.074 44.5163V38.119L165.903 37.4679C165.572 39.4658 163.22 40.7814 161.254 41.0552L147.864 48.883L142.02 50.9926L123.367 41.3697L123.798 41.1207C122.204 40.3762 121.346 38.6735 120.483 37.1195L119.227 37.8683L118.481 38.0782V44.5834C118.481 45.4128 119.029 46.2421 120.122 46.8733L138.81 57.6594C140.998 58.9224 144.558 58.9224 146.746 57.6594L165.433 46.8739C166.509 46.2528 167.056 45.4401 167.073 44.6242C167.073 44.5877 167.072 44.5512 167.071 44.5147L167.074 44.5163Z" fill="#03FFCF"/>
<path d="M167.074 38.8297V34.5971L165.903 33.946C165.572 35.9434 163.22 37.2601 161.254 37.5333L147.864 45.3612L142.02 47.4707L123.367 37.8479L123.798 37.5988C122.204 36.8543 121.346 35.1511 120.483 33.5977L119.227 34.3465L118.481 34.5558V38.8968C118.481 39.7261 119.029 40.5554 120.122 41.1872L138.81 51.9733C140.998 53.2363 144.558 53.2363 146.746 51.9733L165.433 41.1877C166.509 40.5667 167.056 39.754 167.073 38.9381C167.073 38.9016 167.072 38.8651 167.071 38.8291L167.074 38.8297Z" fill="url(#paint41_linear_1_1462)"/>
<path opacity="0.3" d="M161.254 37.5332L147.864 45.3611L142.777 47.1974V52.9206C144.215 52.9206 145.652 52.6049 146.746 51.9731L165.433 41.1876C166.509 40.5666 167.056 39.7539 167.073 38.938C167.074 38.9015 167.072 38.865 167.071 38.829L167.074 38.8301V34.5976L166.003 34.0028H165.892C165.527 35.968 163.202 37.2621 161.254 37.5332Z" fill="#02122B"/>
<path d="M123.798 37.599L141.507 27.3781C142.207 26.9739 143.347 26.9739 144.048 27.3781L161.447 37.4202L161.254 37.5329C163.221 37.2592 165.572 35.943 165.903 33.9456L146.376 23.0887L140.695 21.5879L136.068 24.3061L120.483 33.5983C121.345 35.1513 122.204 36.8545 123.798 37.599Z" fill="url(#paint42_linear_1_1462)"/>
<path opacity="0.3" d="M142.777 22.1381L140.694 21.5879L136.068 24.3061L120.482 33.5983C121.345 35.1518 122.203 36.855 123.798 37.5995L141.506 27.3787C141.856 27.1763 142.317 27.0754 142.777 27.0754L142.777 22.1381Z" fill="#02122B"/>
<path d="M138.809 47.673L120.122 36.8869C117.934 35.6239 117.934 33.5691 120.122 32.306L138.809 21.5205C140.997 20.2575 144.557 20.2575 146.745 21.5205L165.432 32.3066C167.62 33.5696 167.62 35.6244 165.432 36.8869L146.745 47.6725C144.558 48.936 140.997 48.936 138.809 47.673ZM144.048 23.0777C143.347 22.6735 142.207 22.673 141.506 23.0777L122.82 33.8632C122.119 34.2674 122.119 34.9255 122.82 35.3297L141.507 46.1158C142.208 46.52 143.348 46.52 144.048 46.1158L162.735 35.3303C163.436 34.9261 163.436 34.268 162.735 33.8638L144.048 23.0777Z" fill="#0439C7"/>
<path d="M162.735 33.8638L144.048 23.0778C143.347 22.6736 142.207 22.673 141.507 23.0778L122.82 33.8633C122.353 34.1328 122.199 34.5155 122.355 34.8601C122.433 34.6878 122.587 34.5251 122.82 34.3904L141.507 23.6049C142.207 23.2007 143.347 23.2007 144.048 23.6049L162.735 34.3909C162.968 34.5257 163.122 34.6883 163.2 34.8606C163.357 34.516 163.203 34.1338 162.735 33.8638Z" fill="white"/>
<path d="M165.433 36.8878L146.746 47.6733C144.558 48.9363 140.997 48.9363 138.81 47.6733L120.122 36.8872C119.144 36.3225 118.605 35.6 118.501 34.8604C118.373 35.7756 118.912 36.716 120.122 37.4143L138.81 48.2004C140.998 49.4635 144.558 49.4635 146.746 48.2004L165.433 37.4149C166.643 36.7165 167.182 35.7761 167.054 34.8609C166.95 35.6006 166.41 36.3231 165.433 36.8878Z" fill="white"/>
<path d="M139.338 47.3684L120.65 36.5823C118.753 35.4873 118.753 33.7057 120.65 32.6107L139.337 21.8252C141.234 20.7301 144.321 20.7301 146.218 21.8252L164.905 32.6112C166.802 33.7063 166.802 35.4879 164.905 36.5823L146.219 47.3679C144.322 48.4629 141.235 48.4629 139.338 47.3684ZM144.576 22.7731C143.584 22.2009 141.971 22.2009 140.98 22.7731L122.293 33.5587C121.301 34.1309 121.301 35.0622 122.293 35.6349L140.98 46.421C141.972 46.9932 143.585 46.9932 144.577 46.421L163.263 35.6355C164.255 35.0633 164.255 34.1319 163.263 33.5597L144.576 22.7731Z" fill="url(#paint43_linear_1_1462)"/>
<path opacity="0.4" d="M144.048 23.0778C143.347 22.6736 142.207 22.673 141.507 23.0778L122.82 33.8633C122.119 34.2675 122.119 34.9256 122.82 35.3298L141.507 46.1158C142.208 46.52 143.348 46.52 144.049 46.1158L162.735 35.3303C163.436 34.9261 163.436 34.268 162.735 33.8638L144.048 23.0778Z" fill="#03FFCF"/>
<path opacity="0.4" d="M167.074 35.0561V28.6588L165.903 28.0077C165.572 30.0056 163.22 31.3218 161.254 31.595L147.864 39.4228L142.02 41.5324L123.367 31.9095L123.798 31.6605C122.204 30.9159 121.346 29.2127 120.483 27.6593L119.227 28.4081L118.481 28.618V35.1232C118.481 35.9526 119.029 36.7819 120.122 37.4131L138.81 48.1992C140.998 49.4622 144.558 49.4622 146.746 48.1992L165.433 37.4137C166.509 36.7926 167.056 35.9799 167.073 35.164C167.073 35.1275 167.072 35.091 167.071 35.0551L167.074 35.0561Z" fill="#03FFCF"/>
<path d="M167.074 29.3694V25.1369L165.903 24.4858C165.573 26.4837 163.221 27.7999 161.255 28.0731L147.864 35.901L142.021 38.0105L123.368 28.3877L123.799 28.1386C122.205 27.3941 121.346 25.6909 120.484 24.1375L119.228 24.8863L118.482 25.0956V29.4365C118.482 30.2659 119.029 31.0952 120.123 31.7265L138.81 42.5125C140.998 43.7756 144.558 43.7756 146.746 42.5125L165.433 31.727C166.509 31.1059 167.056 30.2932 167.073 29.4773C167.074 29.4408 167.072 29.4043 167.071 29.3678L167.074 29.3694Z" fill="url(#paint44_linear_1_1462)"/>
<path opacity="0.3" d="M161.254 28.073L147.864 35.9009L142.777 37.7372V43.4604C144.215 43.4604 145.652 43.1447 146.746 42.5135L165.433 31.7279C166.509 31.1069 167.056 30.2942 167.073 29.4783C167.074 29.4418 167.072 29.4053 167.071 29.3688L167.074 29.3699V25.1374L166.003 24.5426H165.892C165.527 26.5078 163.202 27.8019 161.254 28.073Z" fill="#02122B"/>
<path d="M123.799 28.1388L141.507 17.9179C142.208 17.5137 143.348 17.5137 144.048 17.9179L161.448 27.96L161.255 28.0727C163.221 27.799 165.573 26.4828 165.904 24.4854L146.377 13.6285L140.695 12.1277L136.069 14.8459L120.483 24.1381C121.345 25.6916 122.204 27.3948 123.799 28.1388Z" fill="url(#paint45_linear_1_1462)"/>
<path opacity="0.3" d="M142.778 12.6779L140.695 12.1277L136.068 14.8459L120.483 24.1381C121.345 25.6916 122.204 27.3948 123.798 28.1393L141.506 17.9185C141.857 17.7161 142.317 17.6152 142.777 17.6152L142.778 12.6779Z" fill="#02122B"/>
<path d="M138.81 38.2129L120.122 27.4269C117.934 26.1638 117.934 24.109 120.122 22.846L138.809 12.0604C140.997 10.7974 144.557 10.7974 146.745 12.0604L165.433 22.8465C167.621 24.1096 167.621 26.1643 165.433 27.4269L146.746 38.2124C144.558 39.4754 140.998 39.4754 138.81 38.2129ZM144.048 13.6176C143.348 13.2134 142.208 13.2129 141.507 13.6176L122.82 24.4032C122.119 24.8074 122.119 25.4655 122.82 25.8702L141.507 36.6562C142.208 37.0604 143.348 37.0604 144.049 36.6562L162.736 25.8707C163.436 25.4665 163.436 24.8084 162.736 24.4042L144.048 13.6176Z" fill="url(#paint46_linear_1_1462)"/>
<path d="M162.736 24.404L144.048 13.6179C143.348 13.2137 142.208 13.2132 141.507 13.6179L122.82 24.4034C122.353 24.6734 122.199 25.0556 122.355 25.4008C122.433 25.2285 122.587 25.0658 122.82 24.9311L141.507 14.1456C142.208 13.7414 143.348 13.7414 144.048 14.1456L162.736 24.9316C162.969 25.0664 163.123 25.229 163.201 25.4013C163.357 25.0562 163.203 24.6734 162.736 24.404Z" fill="white"/>
<path d="M165.433 27.4268L146.746 38.2124C144.558 39.4754 140.998 39.4754 138.81 38.2124L120.123 27.4263C119.145 26.8616 118.606 26.1391 118.501 25.3994C118.373 26.3146 118.913 27.2551 120.123 27.9534L138.81 38.7395C140.998 40.0025 144.558 40.0025 146.746 38.7395L165.433 27.954C166.643 27.2556 167.183 26.3152 167.054 25.4C166.951 26.1396 166.411 26.8621 165.433 27.4268Z" fill="white"/>
<path d="M139.338 37.9082L120.65 27.1221C118.753 26.0271 118.753 24.2455 120.65 23.1505L139.337 12.365C141.234 11.2699 144.321 11.2699 146.218 12.365L164.905 23.151C166.802 24.2461 166.802 26.0276 164.905 27.1221L146.219 37.9077C144.322 39.0032 141.235 39.0032 139.338 37.9082ZM144.576 13.3135C143.584 12.7413 141.971 12.7413 140.98 13.3135L122.293 24.099C121.301 24.6712 121.301 25.6025 122.293 26.1753L140.98 36.9613C141.972 37.5335 143.585 37.5335 144.577 36.9613L163.263 26.1758C164.255 25.6036 164.255 24.6723 163.263 24.1001L144.576 13.3135Z" fill="url(#paint47_linear_1_1462)"/>
<path opacity="0.4" d="M144.048 13.618C143.347 13.2138 142.207 13.2133 141.507 13.618L122.82 24.4036C122.119 24.8078 122.119 25.4659 122.82 25.8706L141.507 36.6566C142.208 37.0608 143.348 37.0608 144.049 36.6566L162.735 25.8711C163.436 25.4669 163.436 24.8088 162.735 24.4046L144.048 13.618Z" fill="#03FFCF"/>
</g>
</g>
<path d="M154.102 42.1712C153.945 42.1712 153.779 42.1245 153.62 42.0327C153.132 41.7509 152.829 41.1121 152.945 40.6092C153.001 40.3665 153.145 40.184 153.35 40.0949C153.577 39.9961 153.857 40.0262 154.116 40.176C154.605 40.4572 154.907 41.0965 154.791 41.599C154.735 41.8416 154.591 42.0246 154.386 42.1137C154.298 42.1519 154.202 42.1712 154.102 42.1712ZM153.635 40.2586C153.565 40.2586 153.499 40.2715 153.439 40.2973C153.3 40.3574 153.201 40.4862 153.161 40.6591C153.065 41.074 153.321 41.6043 153.731 41.8405C153.93 41.9554 154.136 41.9801 154.298 41.9103C154.438 41.8502 154.536 41.7219 154.576 41.5496V41.5491C154.672 41.1341 154.417 40.6038 154.006 40.3676C153.881 40.2951 153.753 40.2586 153.635 40.2586Z" fill="#03FFCF"/>
<path d="M156.734 43.6901C156.577 43.6901 156.412 43.6434 156.253 43.5516C155.764 43.2703 155.462 42.631 155.578 42.1281C155.634 41.886 155.778 41.703 155.982 41.6138C156.209 41.5156 156.489 41.5451 156.748 41.6949C157.237 41.9762 157.54 42.6149 157.423 43.1179V43.1184C157.367 43.3605 157.223 43.5436 157.018 43.6327C156.93 43.6708 156.834 43.6901 156.734 43.6901ZM156.267 41.7776C156.197 41.7776 156.131 41.7904 156.071 41.8162C155.932 41.8769 155.833 42.0052 155.793 42.1775C155.697 42.5929 155.953 43.1233 156.363 43.3595C156.561 43.4743 156.768 43.4996 156.93 43.4292C157.069 43.3691 157.167 43.2408 157.207 43.068C157.303 42.6531 157.047 42.1227 156.637 41.8865C156.513 41.8141 156.385 41.7776 156.267 41.7776Z" fill="#03FFCF"/>
<path d="M159.947 44.6127C159.841 45.0727 159.39 45.2348 158.94 44.975C158.49 44.7152 158.211 44.1317 158.318 43.6722C158.424 43.2122 158.875 43.0501 159.325 43.3099C159.775 43.5697 160.053 44.1532 159.947 44.6127Z" fill="#03FFCF"/>
<path d="M109.482 15.5799L108.074 14.7678L108.183 14.1172L109.591 14.9299L109.482 15.5799Z" fill="#03FFCF"/>
<path d="M111.527 16.7611L110.12 15.9484L110.229 15.2979L111.636 16.1105L111.527 16.7611Z" fill="#03FFCF"/>
<path d="M107.457 14.4118L104.369 12.6302L104.479 11.9796L107.566 13.7612L107.457 14.4118Z" fill="#03FFCF"/>
<path opacity="0.8" d="M101.676 94.4142L82.3529 83.2615C80.3915 82.1294 80.3915 80.2872 82.3529 79.1551L101.675 68.003C103.637 66.8709 106.829 66.8709 108.79 68.003L128.113 79.1557C130.075 80.2877 130.075 82.13 128.113 83.262L108.791 94.4142C106.829 95.5463 103.637 95.5463 101.676 94.4142Z" fill="#001B62"/>
<path d="M129.53 78.611V74.3785L128.358 73.7274C128.028 75.7253 125.676 77.0409 123.71 77.3147L110.319 85.1426L104.476 87.2521L85.8227 77.6293L86.2539 77.3802C84.6597 76.6357 83.8011 74.933 82.9387 73.379L81.6828 74.1278L80.937 74.3377V78.6787C80.937 79.508 81.4842 80.3373 82.5779 80.9686L101.265 91.7546C103.453 93.0177 107.013 93.0177 109.201 91.7546L127.888 80.9691C128.964 80.348 129.511 79.5354 129.528 78.7194C129.529 78.6829 129.527 78.6465 129.526 78.6105L129.53 78.611Z" fill="url(#paint48_linear_1_1462)"/>
<path opacity="0.3" d="M123.709 77.3152L110.319 85.1431L105.232 86.9794V92.7025C106.67 92.7025 108.107 92.3869 109.201 91.7557L127.888 80.9701C128.964 80.3491 129.511 79.5364 129.528 78.7205C129.529 78.684 129.527 78.6475 129.526 78.6115L129.529 78.6126V74.3801L128.459 73.7848H128.347C127.982 75.7499 125.657 77.0441 123.709 77.3152Z" fill="#02122B"/>
<path d="M86.254 77.3809L103.962 67.1601C104.663 66.7559 105.803 66.7559 106.504 67.1601L123.903 77.2027L123.71 77.3154C125.677 77.0417 128.028 75.7255 128.359 73.7281L108.832 62.8712L103.151 61.3704L98.5243 64.0886L82.9395 73.3808C83.8007 74.9337 84.6598 76.6369 86.254 77.3809Z" fill="url(#paint49_linear_1_1462)"/>
<path opacity="0.3" d="M105.233 61.9195L103.15 61.3693L98.5238 64.0875L82.939 73.3797C83.8013 74.9332 84.6599 76.6364 86.2541 77.3809L103.963 67.1601C104.313 66.9577 104.773 66.8568 105.233 66.8568V61.9195Z" fill="#02122B"/>
<path d="M101.265 87.4552L82.5781 76.6691C80.39 75.406 80.39 73.3512 82.5781 72.0882L101.265 61.3027C103.453 60.0396 107.013 60.0402 109.201 61.3027L127.888 72.0887C130.076 73.3518 130.076 75.4066 127.888 76.6691L109.201 87.4546C107.014 88.7182 103.453 88.7177 101.265 87.4552ZM106.504 62.8599C105.803 62.4557 104.663 62.4551 103.962 62.8599L85.2757 73.6454C84.5749 74.0496 84.5749 74.7077 85.2757 75.1119L103.963 85.898C104.664 86.3021 105.804 86.3021 106.504 85.898L125.191 75.1124C125.892 74.7082 125.892 74.0501 125.191 73.6459L106.504 62.8599Z" fill="#0439C7"/>
<path d="M125.191 73.6457L106.504 62.8596C105.803 62.4554 104.663 62.4549 103.962 62.8596L85.2754 73.6452C84.8083 73.9146 84.6542 74.2973 84.8104 74.6419C84.8883 74.4696 85.0424 74.307 85.2754 74.1723L103.962 63.3867C104.663 62.9826 105.803 62.9826 106.504 63.3867L125.191 74.1728C125.424 74.3075 125.578 74.4702 125.656 74.6425C125.812 74.2979 125.658 73.9152 125.191 73.6457Z" fill="white"/>
<path d="M127.889 76.6696L109.202 87.4552C107.014 88.7182 103.453 88.7182 101.266 87.4552L82.5786 76.6691C81.6008 76.1044 81.0611 75.3819 80.957 74.6422C80.8286 75.5574 81.3683 76.4979 82.5786 77.1962L101.266 87.9823C103.454 89.2453 107.014 89.2453 109.202 87.9823L127.889 77.1968C129.099 76.4984 129.638 75.558 129.51 74.6428C129.406 75.3824 128.867 76.1049 127.889 76.6696Z" fill="white"/>
<path d="M101.794 87.1498L83.1064 76.3637C81.2093 75.2687 81.2093 73.4871 83.1064 72.3921L101.793 61.6066C103.69 60.5115 106.777 60.5115 108.674 61.6066L127.361 72.3926C129.258 73.4877 129.258 75.2692 127.361 76.3637L108.675 87.1492C106.778 88.2448 103.691 88.2448 101.794 87.1498ZM107.032 62.555C106.04 61.9828 104.427 61.9828 103.435 62.555L84.7483 73.3406C83.7566 73.9128 83.7566 74.8441 84.7483 75.4163L103.436 86.2024C104.427 86.7746 106.041 86.7746 107.033 86.2024L125.719 75.4168C126.711 74.8446 126.711 73.9133 125.719 73.3411L107.032 62.555Z" fill="url(#paint50_linear_1_1462)"/>
<path opacity="0.4" d="M106.504 62.8596C105.803 62.4554 104.663 62.4549 103.962 62.8596L85.2755 73.6451C84.5748 74.0493 84.5748 74.7074 85.2755 75.1116L103.963 85.8977C104.664 86.3019 105.804 86.3019 106.504 85.8977L125.191 75.1122C125.892 74.708 125.892 74.0499 125.191 73.6457L106.504 62.8596Z" fill="#03FFCF"/>
<path opacity="0.4" d="M129.53 74.8379V68.4405L128.358 67.7894C128.028 69.7868 125.676 71.1035 123.71 71.3767L110.319 79.2046L104.476 81.3141L85.8227 71.6913L86.2539 71.4422C84.6597 70.6977 83.8011 68.995 82.9387 67.441L81.6828 68.1899L80.937 68.3992V74.9044C80.937 75.7338 81.4842 76.5631 82.5779 77.1943L101.265 87.9804C103.453 89.2435 107.013 89.2435 109.201 87.9804L127.888 77.1949C128.964 76.5738 129.511 75.7611 129.528 74.9452C129.529 74.9087 129.527 74.8722 129.526 74.8357L129.53 74.8379Z" fill="#03FFCF"/>
<path d="M129.53 69.1512V64.9187L128.358 64.2676C128.028 66.2655 125.676 67.5811 123.71 67.8549L110.319 75.6827L104.476 77.7923L85.8227 68.1694L86.2539 67.9204C84.6597 67.1758 83.8011 65.4732 82.9387 63.9192L81.6828 64.668L80.937 64.8779V69.2188C80.937 70.0481 81.4842 70.8775 82.5779 71.5087L101.265 82.2948C103.453 83.5578 107.013 83.5578 109.201 82.2948L127.888 71.5093C128.964 70.8882 129.511 70.0755 129.528 69.2596C129.529 69.2231 129.527 69.1866 129.526 69.1501L129.53 69.1512Z" fill="url(#paint51_linear_1_1462)"/>
<path opacity="0.3" d="M123.709 67.8548L110.319 75.6827L105.232 77.519V83.2421C106.67 83.2421 108.107 82.9265 109.201 82.2953L127.888 71.5097C128.964 70.8887 129.511 70.076 129.528 69.2601C129.529 69.2236 129.527 69.1871 129.526 69.1506L129.529 69.1517V64.9191L128.459 64.3239H128.347C127.982 66.289 125.657 67.5837 123.709 67.8548Z" fill="#02122B"/>
<path d="M86.254 67.92L103.962 57.6991C104.663 57.2949 105.803 57.2949 106.504 57.6991L123.903 67.7418L123.71 67.8545C125.677 67.5807 128.028 66.2645 128.359 64.2672L108.832 53.4103L103.151 51.9094L98.5243 54.6277L82.9395 63.9199C83.8007 65.4728 84.6598 67.1755 86.254 67.92Z" fill="url(#paint52_linear_1_1462)"/>
<path opacity="0.3" d="M105.233 52.4596L103.15 51.9094L98.5238 54.6277L82.939 63.9199C83.8013 65.4733 84.6599 67.1765 86.2541 67.921L103.963 57.7002C104.313 57.4978 104.773 57.3969 105.233 57.3969V52.4596Z" fill="#02122B"/>
<path d="M101.265 77.994L82.5781 67.2079C80.39 65.9449 80.39 63.8901 82.5781 62.627L101.265 51.8415C103.453 50.5784 107.013 50.579 109.201 51.8415L127.888 62.6276C130.076 63.8906 130.076 65.9454 127.888 67.2079L109.201 77.9934C107.014 79.2565 103.453 79.2565 101.265 77.994ZM106.504 53.3987C105.803 52.9945 104.663 52.994 103.962 53.3987L85.2757 64.1842C84.5749 64.5884 84.5749 65.2465 85.2757 65.6512L103.963 76.4373C104.664 76.8415 105.804 76.8415 106.504 76.4373L125.191 65.6518C125.892 65.2476 125.892 64.5895 125.191 64.1853L106.504 53.3987Z" fill="#0439C7"/>
<path d="M125.191 64.1852L106.504 53.3992C105.803 52.995 104.663 52.9944 103.962 53.3992L85.2754 64.1847C84.8083 64.4542 84.6542 64.8369 84.8104 65.1815C84.8883 65.0092 85.0424 64.8465 85.2754 64.7118L103.962 53.9263C104.663 53.5221 105.803 53.5221 106.504 53.9263L125.191 64.7124C125.424 64.8471 125.578 65.0097 125.656 65.182C125.812 64.838 125.658 64.4552 125.191 64.1852Z" fill="white"/>
<path d="M127.889 67.2081L109.202 77.9936C107.014 79.2567 103.453 79.2567 101.266 77.9936L82.5786 67.2075C81.6008 66.6429 81.0611 65.9203 80.957 65.1807C80.8286 66.0959 81.3683 67.0363 82.5786 67.7347L101.266 78.5207C103.454 79.7838 107.014 79.7838 109.202 78.5207L127.889 67.7352C129.099 67.0369 129.638 66.0964 129.51 65.1812C129.406 65.9214 128.867 66.6439 127.889 67.2081Z" fill="white"/>
<path d="M101.794 77.6895L83.1064 66.9034C81.2093 65.8084 81.2093 64.0268 83.1064 62.9318L101.793 52.1462C103.69 51.0512 106.777 51.0512 108.674 52.1462L127.361 62.9323C129.258 64.0273 129.258 65.8089 127.361 66.9034L108.675 77.6889C106.778 78.7845 103.691 78.7845 101.794 77.6895ZM107.032 53.0942C106.04 52.522 104.427 52.522 103.435 53.0942L84.7483 63.8797C83.7566 64.4519 83.7566 65.3832 84.7483 65.9554L103.436 76.7415C104.427 77.3137 106.041 77.3137 107.033 76.7415L125.719 65.956C126.711 65.3838 126.711 64.4525 125.719 63.8802L107.032 53.0942Z" fill="url(#paint53_linear_1_1462)"/>
<path opacity="0.4" d="M106.504 53.3993C105.803 52.9951 104.663 52.9946 103.962 53.3993L85.2755 64.1848C84.5748 64.589 84.5748 65.2471 85.2755 65.6518L103.963 76.4379C104.664 76.8421 105.804 76.8421 106.504 76.4379L125.191 65.6524C125.892 65.2482 125.892 64.5901 125.191 64.1859L106.504 53.3993Z" fill="#03FFCF"/>
<path opacity="0.4" d="M129.53 65.379V58.9817L128.358 58.3305C128.028 60.3279 125.676 61.6446 123.71 61.9179L110.319 69.7457L104.476 71.8553L85.8227 62.2324L86.2539 61.9833C84.6597 61.2388 83.8011 59.5356 82.9387 57.9822L81.6828 58.731L80.937 58.9409V65.4461C80.937 66.2754 81.4842 67.1048 82.5779 67.7365L101.265 78.5226C103.453 79.7857 107.013 79.7857 109.201 78.5226L127.888 67.7371C128.964 67.116 129.511 66.3033 129.528 65.4874C129.529 65.4509 129.527 65.4144 129.526 65.3779L129.53 65.379Z" fill="#03FFCF"/>
<path d="M129.53 59.6933V55.4608L128.358 54.8097C128.028 56.8076 125.676 58.1232 123.71 58.397L110.319 66.2248L104.476 68.3344L85.8227 58.7115L86.2539 58.4625C84.6597 57.718 83.8011 56.0153 82.9387 54.4613L81.6828 55.2101L80.937 55.42V59.7609C80.937 60.5903 81.4842 61.4196 82.5779 62.0508L101.265 72.8369C103.453 74.0999 107.013 74.0999 109.201 72.8369L127.888 62.0514C128.964 61.4303 129.511 60.6176 129.528 59.8017C129.529 59.7652 129.527 59.7287 129.526 59.6922L129.53 59.6933Z" fill="url(#paint54_linear_1_1462)"/>
<path opacity="0.3" d="M123.709 58.3969L110.319 66.2248L105.232 68.0611V73.7842C106.67 73.7842 108.107 73.4686 109.201 72.8374L127.888 62.0518C128.964 61.4308 129.511 60.6181 129.528 59.8022C129.529 59.7657 129.527 59.7292 129.526 59.6927L129.529 59.6938V55.4613L128.459 54.866H128.347C127.982 56.8317 125.657 58.1258 123.709 58.3969Z" fill="#02122B"/>
<path d="M86.254 58.4626L103.962 48.2418C104.663 47.8376 105.803 47.8376 106.504 48.2418L123.903 58.2839L123.71 58.3966C125.677 58.1228 128.028 56.8067 128.359 54.8093L108.832 43.9524L103.151 42.4515L98.5243 45.1698L82.9395 54.462C83.8007 56.0149 84.6598 57.7181 86.254 58.4626Z" fill="url(#paint55_linear_1_1462)"/>
<path opacity="0.3" d="M105.233 43.0017L103.15 42.4515L98.5238 45.1698L82.939 54.462C83.8013 56.0154 84.6599 57.7186 86.2541 58.4632L103.963 48.2423C104.313 48.04 104.773 47.939 105.233 47.939V43.0017Z" fill="#02122B"/>
<path d="M101.265 68.5366L82.5781 57.7505C80.39 56.4875 80.39 54.4327 82.5781 53.1696L101.265 42.3841C103.453 41.121 107.013 41.1216 109.201 42.3841L127.888 53.1702C130.076 54.4332 130.076 56.488 127.888 57.7505L109.201 68.536C107.014 69.7996 103.453 69.7996 101.265 68.5366ZM106.504 43.9418C105.803 43.5376 104.663 43.5371 103.962 43.9418L85.2757 54.7274C84.5749 55.1315 84.5749 55.7896 85.2757 56.1944L103.963 66.9804C104.664 67.3846 105.804 67.3846 106.504 66.9804L125.191 56.1949C125.892 55.7907 125.892 55.1326 125.191 54.7284L106.504 43.9418Z" fill="#0439C7"/>
<path d="M125.191 54.7266L106.504 43.9406C105.803 43.5364 104.663 43.5358 103.962 43.9406L85.2754 54.7261C84.8083 54.9961 84.6542 55.3783 84.8104 55.7234C84.8883 55.5511 85.0424 55.3885 85.2754 55.2537L103.962 44.4682C104.663 44.064 105.803 44.064 106.504 44.4682L125.191 55.2543C125.424 55.389 125.578 55.5516 125.656 55.724C125.812 55.3788 125.658 54.9966 125.191 54.7266Z" fill="white"/>
<path d="M127.889 57.7506L109.202 68.5361C107.014 69.7991 103.453 69.7991 101.266 68.5361L82.5786 57.75C81.6008 57.1853 81.0611 56.4628 80.957 55.7231C80.8286 56.6384 81.3683 57.5788 82.5786 58.2771L101.266 69.0632C103.454 70.3263 107.014 70.3263 109.202 69.0632L127.889 58.2777C129.099 57.5793 129.638 56.6389 129.51 55.7237C129.406 56.4634 128.867 57.1864 127.889 57.7506Z" fill="white"/>
<path d="M101.794 68.2321L83.1064 57.446C81.2093 56.351 81.2093 54.5694 83.1064 53.4744L101.793 42.6888C103.69 41.5938 106.777 41.5938 108.674 42.6888L127.361 53.4749C129.258 54.5699 129.258 56.3515 127.361 57.446L108.675 68.2315C106.778 69.3266 103.691 69.3265 101.794 68.2321ZM107.032 43.6368C106.04 43.0646 104.427 43.0646 103.435 43.6368L84.7483 54.4223C83.7566 54.9945 83.7566 55.9258 84.7483 56.498L103.436 67.2841C104.427 67.8563 106.041 67.8563 107.033 67.2841L125.719 56.4986C126.711 55.9264 126.711 54.9951 125.719 54.4228L107.032 43.6368Z" fill="url(#paint56_linear_1_1462)"/>
<path opacity="0.4" d="M106.504 43.9414C105.803 43.5372 104.663 43.5367 103.962 43.9414L85.2755 54.7269C84.5748 55.1311 84.5748 55.7892 85.2755 56.194L103.963 66.98C104.664 67.3842 105.804 67.3842 106.504 66.98L125.191 56.1945C125.892 55.7903 125.892 55.1322 125.191 54.728L106.504 43.9414Z" fill="#03FFCF"/>
<path opacity="0.4" d="M129.53 55.9203V49.5229L128.358 48.8718C128.028 50.8692 125.676 52.1859 123.71 52.4591L110.319 60.287L104.476 62.3965L85.8227 52.7737L86.2539 52.5246C84.6597 51.7801 83.8011 50.0769 82.9387 48.5234L81.6828 49.2722L80.937 49.4821V55.9874C80.937 56.8167 81.4842 57.646 82.5779 58.2773L101.265 69.0633C103.453 70.3264 107.013 70.3264 109.201 69.0633L127.888 58.2778C128.964 57.6568 129.511 56.8441 129.528 56.0282C129.529 55.9917 129.527 55.9552 129.526 55.9187L129.53 55.9203Z" fill="#03FFCF"/>
<path d="M129.53 50.2331V46.0006L128.358 45.3495C128.028 47.3474 125.676 48.663 123.71 48.9368L110.319 56.7646L104.476 58.8742L85.8227 49.2513L86.2539 49.0023C84.6597 48.2577 83.8011 46.5551 82.9387 45.0011L81.6828 45.7499L80.937 45.9593V50.3002C80.937 51.1295 81.4842 51.9588 82.5779 52.5906L101.265 63.3767C103.453 64.6397 107.013 64.6397 109.201 63.3767L127.888 52.5912C128.964 51.9701 129.511 51.1574 129.528 50.3415C129.529 50.305 129.527 50.2685 129.526 50.232L129.53 50.2331Z" fill="url(#paint57_linear_1_1462)"/>
<path opacity="0.3" d="M123.709 48.9367L110.319 56.7646L105.232 58.6009V64.324C106.67 64.324 108.107 64.0084 109.201 63.3772L127.888 52.5916C128.964 51.9706 129.511 51.1579 129.528 50.342C129.529 50.3055 129.527 50.269 129.526 50.2325L129.529 50.2336V46.0011L128.459 45.4058H128.347C127.982 47.3715 125.657 48.6656 123.709 48.9367Z" fill="#02122B"/>
<path d="M86.2535 49.0024L103.962 38.7816C104.663 38.3774 105.803 38.3774 106.503 38.7816L123.903 48.8237L123.71 48.9364C125.676 48.6626 128.028 47.3464 128.359 45.3491L108.832 34.4922L103.15 32.9913L98.5238 35.7096L82.939 45.0018C83.8002 46.5552 84.6593 48.2584 86.2535 49.0024Z" fill="url(#paint58_linear_1_1462)"/>
<path opacity="0.3" d="M105.233 33.5415L103.15 32.9913L98.5238 35.7096L82.939 45.0018C83.8013 46.5552 84.6599 48.2584 86.2541 49.003L103.963 38.7821C104.313 38.5798 104.773 38.4788 105.233 38.4788V33.5415Z" fill="#02122B"/>
<path d="M101.265 59.0772L82.5781 48.2911C80.39 47.0281 80.39 44.9733 82.5781 43.7102L101.265 32.9247C103.453 31.6617 107.013 31.6617 109.201 32.9247L127.888 43.7108C130.076 44.9738 130.076 47.0286 127.888 48.2911L109.201 59.0766C107.014 60.3402 103.453 60.3402 101.265 59.0772ZM106.504 34.4819C105.803 34.0777 104.663 34.0777 103.962 34.4819L85.2757 45.2674C84.5749 45.6716 84.5749 46.3297 85.2757 46.7344L103.963 57.5205C104.664 57.9247 105.804 57.9247 106.504 57.5205L125.191 46.735C125.892 46.3308 125.892 45.6727 125.191 45.2685L106.504 34.4819Z" fill="url(#paint59_linear_1_1462)"/>
<path d="M125.191 45.2678L106.504 34.4817C105.803 34.0775 104.663 34.0775 103.962 34.4817L85.2754 45.2673C84.8083 45.5373 84.6542 45.9194 84.8104 46.2646C84.8883 46.0923 85.0424 45.9296 85.2754 45.7949L103.962 35.0094C104.663 34.6052 105.803 34.6052 106.504 35.0094L125.191 45.7955C125.424 45.9302 125.578 46.0928 125.656 46.2651C125.812 45.92 125.658 45.5378 125.191 45.2678Z" fill="white"/>
<path d="M127.889 48.2913L109.202 59.0769C107.014 60.3399 103.453 60.3399 101.266 59.0769L82.5786 48.2908C81.6008 47.7261 81.0611 47.0036 80.957 46.2639C80.8286 47.1791 81.3683 48.1196 82.5786 48.8179L101.266 59.604C103.454 60.867 107.014 60.867 109.202 59.604L127.889 48.8185C129.099 48.1201 129.638 47.1797 129.51 46.2644C129.406 47.0041 128.867 47.7266 127.889 48.2913Z" fill="white"/>
<path d="M101.793 58.7718L83.1059 47.9858C81.2088 46.8908 81.2088 45.1092 83.1059 44.0141L101.793 33.2286C103.69 32.1336 106.776 32.1336 108.674 33.2286L127.361 44.0147C129.258 45.1097 129.258 46.8913 127.361 47.9858L108.674 58.7713C106.777 59.8669 103.69 59.8669 101.793 58.7718ZM107.032 34.1771C106.04 33.6049 104.426 33.6049 103.435 34.1771L84.7478 44.9626C83.7561 45.5348 83.7561 46.4662 84.7478 47.0389L103.435 57.825C104.427 58.3972 106.04 58.3972 107.032 57.825L125.719 47.0394C126.711 46.4672 126.711 45.5359 125.719 44.9637L107.032 34.1771Z" fill="url(#paint60_linear_1_1462)"/>
<path opacity="0.4" d="M106.504 34.4815C105.803 34.0773 104.663 34.0773 103.962 34.4815L85.2755 45.267C84.5748 45.6712 84.5748 46.3293 85.2755 46.734L103.963 57.5201C104.664 57.9243 105.804 57.9243 106.504 57.5201L125.191 46.7346C125.892 46.3304 125.892 45.6723 125.191 45.2681L106.504 34.4815Z" fill="#03FFCF"/>
<path opacity="0.5" d="M125.716 10.9751H84.7513V45.9818C84.7427 46.2534 84.9166 46.5266 85.2753 46.7338L103.963 57.5199C104.663 57.9241 105.803 57.9241 106.504 57.5199L125.191 46.7343C125.541 46.532 125.716 46.2663 125.716 46.0005V10.9751Z" fill="url(#paint61_linear_1_1462)"/>
<defs>
<linearGradient id="paint0_linear_1_1462" x1="201.168" y1="107.574" x2="173.549" y2="107.574" gradientUnits="userSpaceOnUse">
<stop offset="0.21" stop-color="#2155DF"/>
<stop offset="1" stop-color="#33E6BF"/>
</linearGradient>
<linearGradient id="paint1_linear_1_1462" x1="173.55" y1="102.652" x2="201.168" y2="102.652" gradientUnits="userSpaceOnUse">
<stop stop-color="#A6FBE8"/>
<stop offset="1" stop-color="#4879FD"/>
</linearGradient>
<linearGradient id="paint2_linear_1_1462" x1="201.168" y1="91.4519" x2="173.549" y2="91.4519" gradientUnits="userSpaceOnUse">
<stop offset="0.21" stop-color="#2155DF"/>
<stop offset="1" stop-color="#33E6BF"/>
</linearGradient>
<linearGradient id="paint3_linear_1_1462" x1="173.55" y1="86.5287" x2="201.168" y2="86.5287" gradientUnits="userSpaceOnUse">
<stop stop-color="#A6FBE8"/>
<stop offset="1" stop-color="#4879FD"/>
</linearGradient>
<linearGradient id="paint4_linear_1_1462" x1="46.5162" y1="121.608" x2="18.8974" y2="121.608" gradientUnits="userSpaceOnUse">
<stop offset="0.21" stop-color="#2155DF"/>
<stop offset="1" stop-color="#33E6BF"/>
</linearGradient>
<linearGradient id="paint5_linear_1_1462" x1="18.8974" y1="116.684" x2="46.5157" y2="116.684" gradientUnits="userSpaceOnUse">
<stop stop-color="#A6FBE8"/>
<stop offset="1" stop-color="#4879FD"/>
</linearGradient>
<linearGradient id="paint6_linear_1_1462" x1="46.5172" y1="104.311" x2="18.8984" y2="104.311" gradientUnits="userSpaceOnUse">
<stop offset="0.21" stop-color="#2155DF"/>
<stop offset="1" stop-color="#33E6BF"/>
</linearGradient>
<linearGradient id="paint7_linear_1_1462" x1="18.8988" y1="99.3881" x2="46.5172" y2="99.3881" gradientUnits="userSpaceOnUse">
<stop stop-color="#A6FBE8"/>
<stop offset="1" stop-color="#4879FD"/>
</linearGradient>
<linearGradient id="paint8_linear_1_1462" x1="41.2816" y1="51.3647" x2="63.1908" y2="64.0179" gradientUnits="userSpaceOnUse">
<stop stop-color="#33E6BF"/>
<stop offset="1" stop-color="#2155DF"/>
</linearGradient>
<linearGradient id="paint9_linear_1_1462" x1="38.5336" y1="56.1454" x2="66.1514" y2="56.1454" gradientUnits="userSpaceOnUse">
<stop stop-color="#A6FBE8"/>
<stop offset="1" stop-color="#4879FD"/>
</linearGradient>
<linearGradient id="paint10_linear_1_1462" x1="41.2811" y1="35.2626" x2="63.1904" y2="47.9158" gradientUnits="userSpaceOnUse">
<stop stop-color="#33E6BF"/>
<stop offset="1" stop-color="#2155DF"/>
</linearGradient>
<linearGradient id="paint11_linear_1_1462" x1="38.5336" y1="40.0434" x2="66.1514" y2="40.0434" gradientUnits="userSpaceOnUse">
<stop stop-color="#A6FBE8"/>
<stop offset="1" stop-color="#4879FD"/>
</linearGradient>
<linearGradient id="paint12_linear_1_1462" x1="156.914" y1="94.6115" x2="49.5341" y2="94.6115" gradientUnits="userSpaceOnUse">
<stop offset="0.21" stop-color="#2155DF"/>
<stop offset="1" stop-color="#33E6BF"/>
</linearGradient>
<linearGradient id="paint13_linear_1_1462" x1="49.5342" y1="92.1127" x2="156.915" y2="92.1127" gradientUnits="userSpaceOnUse">
<stop stop-color="#A6FBE8"/>
<stop offset="1" stop-color="#4879FD"/>
</linearGradient>
<linearGradient id="paint14_linear_1_1462" x1="167.074" y1="45.0232" x2="91.0831" y2="45.0232" gradientUnits="userSpaceOnUse">
<stop stop-color="#4879FD"/>
<stop offset="1" stop-color="#A6FBE8"/>
</linearGradient>
<linearGradient id="paint15_linear_1_1462" x1="167.073" y1="64.5047" x2="154.025" y2="64.5047" gradientUnits="userSpaceOnUse">
<stop offset="0.21" stop-color="#2155DF"/>
<stop offset="1" stop-color="#33E6BF"/>
</linearGradient>
<linearGradient id="paint16_linear_1_1462" x1="156.893" y1="85.7611" x2="49.5698" y2="85.7611" gradientUnits="userSpaceOnUse">
<stop offset="0.21" stop-color="#2155DF"/>
<stop offset="1" stop-color="#33E6BF"/>
</linearGradient>
<linearGradient id="paint17_linear_1_1462" x1="49.5347" y1="82.8288" x2="156.916" y2="82.8288" gradientUnits="userSpaceOnUse">
<stop stop-color="#A6FBE8"/>
<stop offset="1" stop-color="#4879FD"/>
</linearGradient>
<radialGradient id="paint18_radial_1_1462" cx="0" cy="0" r="1" gradientUnits="userSpaceOnUse" gradientTransform="translate(104.568 78.4922) scale(67.98 67.9591)">
<stop stop-color="#42E8E0"/>
<stop offset="0.1055" stop-color="#37B6BF"/>
<stop offset="0.2197" stop-color="#2C87A1"/>
<stop offset="0.338" stop-color="#235F87"/>
<stop offset="0.4587" stop-color="#1C3F72"/>
<stop offset="0.5824" stop-color="#162561"/>
<stop offset="0.7105" stop-color="#121355"/>
<stop offset="0.8458" stop-color="#10084E"/>
<stop offset="1" stop-color="#0F054C"/>
</radialGradient>
<linearGradient id="paint19_linear_1_1462" x1="129.529" y1="117.997" x2="80.937" y2="117.997" gradientUnits="userSpaceOnUse">
<stop offset="0.21" stop-color="#2155DF"/>
<stop offset="1" stop-color="#33E6BF"/>
</linearGradient>
<linearGradient id="paint20_linear_1_1462" x1="88.085" y1="99.4243" x2="122.462" y2="119.278" gradientUnits="userSpaceOnUse">
<stop offset="0.2421" stop-color="#2155DF"/>
<stop offset="1" stop-color="#33E6BF"/>
</linearGradient>
<linearGradient id="paint21_linear_1_1462" x1="81.6824" y1="109.335" x2="128.783" y2="109.335" gradientUnits="userSpaceOnUse">
<stop stop-color="#A6FBE8"/>
<stop offset="1" stop-color="#4879FD"/>
</linearGradient>
<linearGradient id="paint22_linear_1_1462" x1="129.529" y1="108.536" x2="80.937" y2="108.536" gradientUnits="userSpaceOnUse">
<stop offset="0.21" stop-color="#2155DF"/>
<stop offset="1" stop-color="#33E6BF"/>
</linearGradient>
<linearGradient id="paint23_linear_1_1462" x1="88.0845" y1="89.964" x2="122.462" y2="109.818" gradientUnits="userSpaceOnUse">
<stop offset="0.2421" stop-color="#2155DF"/>
<stop offset="1" stop-color="#33E6BF"/>
</linearGradient>
<linearGradient id="paint24_linear_1_1462" x1="81.6824" y1="99.8737" x2="128.783" y2="99.8737" gradientUnits="userSpaceOnUse">
<stop stop-color="#A6FBE8"/>
<stop offset="1" stop-color="#4879FD"/>
</linearGradient>
<linearGradient id="paint25_linear_1_1462" x1="129.529" y1="99.0768" x2="80.937" y2="99.0768" gradientUnits="userSpaceOnUse">
<stop offset="0.21" stop-color="#2155DF"/>
<stop offset="1" stop-color="#33E6BF"/>
</linearGradient>
<linearGradient id="paint26_linear_1_1462" x1="88.0845" y1="80.5045" x2="122.463" y2="100.358" gradientUnits="userSpaceOnUse">
<stop offset="0.2421" stop-color="#2155DF"/>
<stop offset="1" stop-color="#33E6BF"/>
</linearGradient>
<linearGradient id="paint27_linear_1_1462" x1="81.6824" y1="90.4149" x2="128.783" y2="90.4149" gradientUnits="userSpaceOnUse">
<stop stop-color="#A6FBE8"/>
<stop offset="1" stop-color="#4879FD"/>
</linearGradient>
<linearGradient id="paint28_linear_1_1462" x1="129.529" y1="89.618" x2="80.937" y2="89.618" gradientUnits="userSpaceOnUse">
<stop offset="0.21" stop-color="#2155DF"/>
<stop offset="1" stop-color="#33E6BF"/>
</linearGradient>
<linearGradient id="paint29_linear_1_1462" x1="88.085" y1="71.046" x2="122.463" y2="90.8996" gradientUnits="userSpaceOnUse">
<stop offset="0.2421" stop-color="#2155DF"/>
<stop offset="1" stop-color="#33E6BF"/>
</linearGradient>
<linearGradient id="paint30_linear_1_1462" x1="80.9368" y1="80.9574" x2="129.529" y2="80.9574" gradientUnits="userSpaceOnUse">
<stop stop-color="#A6FBE8"/>
<stop offset="1" stop-color="#4879FD"/>
</linearGradient>
<linearGradient id="paint31_linear_1_1462" x1="81.6824" y1="80.9564" x2="128.783" y2="80.9564" gradientUnits="userSpaceOnUse">
<stop stop-color="#A6FBE8"/>
<stop offset="1" stop-color="#4879FD"/>
</linearGradient>
<linearGradient id="paint32_linear_1_1462" x1="49.3816" y1="81.445" x2="157.069" y2="81.445" gradientUnits="userSpaceOnUse">
<stop stop-color="#42E8E0"/>
<stop offset="0.1055" stop-color="#37B6BF"/>
<stop offset="0.2197" stop-color="#2C87A1"/>
<stop offset="0.338" stop-color="#235F87"/>
<stop offset="0.4587" stop-color="#1C3F72"/>
<stop offset="0.5824" stop-color="#162561"/>
<stop offset="0.7105" stop-color="#121355"/>
<stop offset="0.8458" stop-color="#10084E"/>
<stop offset="1" stop-color="#0F054C"/>
</linearGradient>
<linearGradient id="paint33_linear_1_1462" x1="198.163" y1="62.1485" x2="90.8393" y2="62.1485" gradientUnits="userSpaceOnUse">
<stop offset="0.21" stop-color="#2155DF"/>
<stop offset="1" stop-color="#33E6BF"/>
</linearGradient>
<linearGradient id="paint34_linear_1_1462" x1="90.8043" y1="59.2153" x2="198.185" y2="59.2153" gradientUnits="userSpaceOnUse">
<stop stop-color="#A6FBE8"/>
<stop offset="1" stop-color="#4879FD"/>
</linearGradient>
<linearGradient id="paint35_linear_1_1462" x1="167.074" y1="62.1777" x2="118.481" y2="62.1777" gradientUnits="userSpaceOnUse">
<stop offset="0.21" stop-color="#2155DF"/>
<stop offset="1" stop-color="#33E6BF"/>
</linearGradient>
<linearGradient id="paint36_linear_1_1462" x1="125.629" y1="43.6051" x2="160.007" y2="63.459" gradientUnits="userSpaceOnUse">
<stop offset="0.2421" stop-color="#2155DF"/>
<stop offset="1" stop-color="#33E6BF"/>
</linearGradient>
<linearGradient id="paint37_linear_1_1462" x1="119.227" y1="53.5155" x2="166.328" y2="53.5155" gradientUnits="userSpaceOnUse">
<stop stop-color="#A6FBE8"/>
<stop offset="1" stop-color="#4879FD"/>
</linearGradient>
<linearGradient id="paint38_linear_1_1462" x1="167.074" y1="52.7194" x2="118.482" y2="52.7194" gradientUnits="userSpaceOnUse">
<stop offset="0.21" stop-color="#2155DF"/>
<stop offset="1" stop-color="#33E6BF"/>
</linearGradient>
<linearGradient id="paint39_linear_1_1462" x1="125.629" y1="34.1463" x2="160.007" y2="54.0003" gradientUnits="userSpaceOnUse">
<stop offset="0.2421" stop-color="#2155DF"/>
<stop offset="1" stop-color="#33E6BF"/>
</linearGradient>
<linearGradient id="paint40_linear_1_1462" x1="119.227" y1="44.0578" x2="166.328" y2="44.0578" gradientUnits="userSpaceOnUse">
<stop stop-color="#A6FBE8"/>
<stop offset="1" stop-color="#4879FD"/>
</linearGradient>
<linearGradient id="paint41_linear_1_1462" x1="167.074" y1="43.2589" x2="118.481" y2="43.2589" gradientUnits="userSpaceOnUse">
<stop offset="0.21" stop-color="#2155DF"/>
<stop offset="1" stop-color="#33E6BF"/>
</linearGradient>
<linearGradient id="paint42_linear_1_1462" x1="125.629" y1="24.6866" x2="160.007" y2="44.5406" gradientUnits="userSpaceOnUse">
<stop offset="0.2421" stop-color="#2155DF"/>
<stop offset="1" stop-color="#33E6BF"/>
</linearGradient>
<linearGradient id="paint43_linear_1_1462" x1="119.227" y1="34.5968" x2="166.328" y2="34.5968" gradientUnits="userSpaceOnUse">
<stop stop-color="#A6FBE8"/>
<stop offset="1" stop-color="#4879FD"/>
</linearGradient>
<linearGradient id="paint44_linear_1_1462" x1="167.074" y1="33.7985" x2="118.482" y2="33.7985" gradientUnits="userSpaceOnUse">
<stop offset="0.21" stop-color="#2155DF"/>
<stop offset="1" stop-color="#33E6BF"/>
</linearGradient>
<linearGradient id="paint45_linear_1_1462" x1="125.629" y1="15.2264" x2="160.007" y2="35.0804" gradientUnits="userSpaceOnUse">
<stop offset="0.2421" stop-color="#2155DF"/>
<stop offset="1" stop-color="#33E6BF"/>
</linearGradient>
<linearGradient id="paint46_linear_1_1462" x1="118.481" y1="25.1367" x2="167.074" y2="25.1367" gradientUnits="userSpaceOnUse">
<stop stop-color="#A6FBE8"/>
<stop offset="1" stop-color="#4879FD"/>
</linearGradient>
<linearGradient id="paint47_linear_1_1462" x1="119.227" y1="25.1368" x2="166.328" y2="25.1368" gradientUnits="userSpaceOnUse">
<stop stop-color="#A6FBE8"/>
<stop offset="1" stop-color="#4879FD"/>
</linearGradient>
<linearGradient id="paint48_linear_1_1462" x1="129.529" y1="83.0403" x2="80.937" y2="83.0403" gradientUnits="userSpaceOnUse">
<stop offset="0.21" stop-color="#2155DF"/>
<stop offset="1" stop-color="#33E6BF"/>
</linearGradient>
<linearGradient id="paint49_linear_1_1462" x1="88.085" y1="64.469" x2="122.462" y2="84.3229" gradientUnits="userSpaceOnUse">
<stop offset="0.2421" stop-color="#2155DF"/>
<stop offset="1" stop-color="#33E6BF"/>
</linearGradient>
<linearGradient id="paint50_linear_1_1462" x1="81.6834" y1="74.3784" x2="128.784" y2="74.3784" gradientUnits="userSpaceOnUse">
<stop stop-color="#A6FBE8"/>
<stop offset="1" stop-color="#4879FD"/>
</linearGradient>
<linearGradient id="paint51_linear_1_1462" x1="129.529" y1="73.5805" x2="80.937" y2="73.5805" gradientUnits="userSpaceOnUse">
<stop offset="0.21" stop-color="#2155DF"/>
<stop offset="1" stop-color="#33E6BF"/>
</linearGradient>
<linearGradient id="paint52_linear_1_1462" x1="88.085" y1="55.008" x2="122.462" y2="74.862" gradientUnits="userSpaceOnUse">
<stop offset="0.2421" stop-color="#2155DF"/>
<stop offset="1" stop-color="#33E6BF"/>
</linearGradient>
<linearGradient id="paint53_linear_1_1462" x1="81.6834" y1="64.9181" x2="128.784" y2="64.9181" gradientUnits="userSpaceOnUse">
<stop stop-color="#A6FBE8"/>
<stop offset="1" stop-color="#4879FD"/>
</linearGradient>
<linearGradient id="paint54_linear_1_1462" x1="129.529" y1="64.1226" x2="80.937" y2="64.1226" gradientUnits="userSpaceOnUse">
<stop offset="0.21" stop-color="#2155DF"/>
<stop offset="1" stop-color="#33E6BF"/>
</linearGradient>
<linearGradient id="paint55_linear_1_1462" x1="88.085" y1="45.5503" x2="122.463" y2="65.4039" gradientUnits="userSpaceOnUse">
<stop offset="0.2421" stop-color="#2155DF"/>
<stop offset="1" stop-color="#33E6BF"/>
</linearGradient>
<linearGradient id="paint56_linear_1_1462" x1="81.6834" y1="55.4605" x2="128.784" y2="55.4605" gradientUnits="userSpaceOnUse">
<stop stop-color="#A6FBE8"/>
<stop offset="1" stop-color="#4879FD"/>
</linearGradient>
<linearGradient id="paint57_linear_1_1462" x1="129.529" y1="54.6624" x2="80.937" y2="54.6624" gradientUnits="userSpaceOnUse">
<stop offset="0.21" stop-color="#2155DF"/>
<stop offset="1" stop-color="#33E6BF"/>
</linearGradient>
<linearGradient id="paint58_linear_1_1462" x1="88.0845" y1="36.0901" x2="122.463" y2="55.9437" gradientUnits="userSpaceOnUse">
<stop offset="0.2421" stop-color="#2155DF"/>
<stop offset="1" stop-color="#33E6BF"/>
</linearGradient>
<linearGradient id="paint59_linear_1_1462" x1="80.9368" y1="46.0012" x2="129.529" y2="46.0012" gradientUnits="userSpaceOnUse">
<stop stop-color="#A6FBE8"/>
<stop offset="1" stop-color="#4879FD"/>
</linearGradient>
<linearGradient id="paint60_linear_1_1462" x1="81.6829" y1="46.0004" x2="128.784" y2="46.0004" gradientUnits="userSpaceOnUse">
<stop stop-color="#A6FBE8"/>
<stop offset="1" stop-color="#4879FD"/>
</linearGradient>
<linearGradient id="paint61_linear_1_1462" x1="105.234" y1="57.8228" x2="105.234" y2="10.9753" gradientUnits="userSpaceOnUse">
<stop stop-color="#42E8E0"/>
<stop offset="0.1055" stop-color="#37B6BF"/>
<stop offset="0.2197" stop-color="#2C87A1"/>
<stop offset="0.338" stop-color="#235F87"/>
<stop offset="0.4587" stop-color="#1C3F72"/>
<stop offset="0.5824" stop-color="#162561"/>
<stop offset="0.7105" stop-color="#121355"/>
<stop offset="1" stop-color="#0F054C" stop-opacity="0"/>
</linearGradient>
</defs>
</svg>
