<svg width="56" height="56" viewBox="0 0 56 56" fill="none" xmlns="http://www.w3.org/2000/svg">
<g clip-path="url(#clip0_2486_709)">
<path d="M1.07447 52.3286H22.8436C23.4371 52.3286 23.9181 51.8389 23.9181 51.2348C23.9181 50.6308 23.4371 50.1411 22.8436 50.1411H2.14895V23.4335H8.59064H8.59107H19.4312V25.4045C19.4332 25.9905 19.4914 26.5805 19.6126 27.1539H8.27119C7.18469 27.1539 6.30072 28.0537 6.30072 29.1597V44.7363C6.30072 45.8423 7.18469 46.7422 8.27119 46.7422H47.0071C48.0936 46.7422 48.9775 45.8423 48.9775 44.7363V29.1597C48.9775 28.0537 48.0936 27.1539 47.0071 27.1539H35.5309C35.6519 26.5813 35.7125 25.9907 35.7125 25.405V23.4335H46.422H46.4224H52.8641V50.1411H32.3253C31.732 50.1411 31.2509 50.6308 31.2509 51.2348C31.2509 51.8389 31.732 52.3286 32.3253 52.3286H53.9386C54.5319 52.3286 55.0131 51.8389 55.0131 51.2348V22.3397C55.0131 22.3289 55.0118 22.3185 55.0115 22.3078C55.0111 22.2974 55.0119 22.287 55.0112 22.2765C55.0047 22.1618 54.8345 19.4244 53.3537 15.7857C51.9942 12.4455 49.218 7.66531 43.7118 3.86015C43.5337 3.73711 43.3234 3.67126 43.1082 3.67126H36.836C36.3653 3.67126 35.9499 3.98342 35.8103 4.44105C35.7413 4.66734 35.7482 4.90315 35.8193 5.11665H19.1942C19.2653 4.90348 19.2723 4.66789 19.2035 4.44181C19.0643 3.98375 18.6481 3.67137 18.1771 3.67137H11.9049C11.6896 3.67137 11.4795 3.73722 11.3013 3.86026C5.79507 7.66542 3.01884 12.4457 1.65942 15.7859C0.17847 19.4244 0.00827345 22.1619 0.00182661 22.2765C0.00128937 22.2869 0.00193405 22.2973 0.00161171 22.3077C0.00128937 22.3184 0 22.3289 0 22.3397V51.2348C0 51.8389 0.481042 52.3286 1.07447 52.3286ZM38.1907 7.30426C39.4337 8.45719 41.0575 10.1802 42.4198 12.349H12.5933C13.9556 10.1802 15.5793 8.45708 16.8223 7.30426H38.1907ZM21.5808 25.4308C21.5808 25.422 21.5802 25.4133 21.5802 25.4045V20.4637C21.5802 19.8253 22.0905 19.3059 22.7177 19.3059H32.4261C33.0452 19.3059 33.5632 19.8332 33.5632 20.4634V25.4045C33.5632 28.724 30.8324 31.5042 27.5719 31.5042C24.2766 31.5041 21.5946 28.782 21.5808 25.4308ZM8.44967 44.5547V38.099H46.8286V44.5547H8.44967ZM46.8286 29.3414V35.9116H8.44967V29.3414H20.4101C21.7886 31.9298 24.4819 33.6916 27.572 33.6916C30.6621 33.6916 33.3552 31.9298 34.7338 29.3414H46.8286ZM35.7125 21.246V20.4636C35.7125 19.5412 35.3439 18.7048 34.7487 18.099C34.1536 17.4932 33.3319 17.1179 32.4258 17.1179H22.7177C20.9055 17.1179 19.4312 18.6187 19.4312 20.4633V20.4636V21.246H9.75365C9.98541 18.9565 10.4315 16.6286 11.4029 14.5365H43.6102C44.5808 16.6274 45.0277 18.9571 45.2592 21.246H35.7125ZM42.7744 5.85887C47.6289 9.30419 50.1063 13.5547 51.3339 16.5387C52.1424 18.5042 52.5303 20.1924 52.7123 21.246H47.4212C47.1881 18.7265 46.6959 16.135 45.6562 13.8195C44.2982 10.7949 42.2226 8.1097 39.8337 5.85898L42.7744 5.85887ZM12.2387 5.85887H15.1795C12.6511 8.24095 10.4057 11.1477 9.10391 14.4189C8.24358 16.5806 7.80616 18.9312 7.59213 21.2459H2.30099C2.78622 18.4531 4.73381 11.1835 12.2387 5.85887Z" fill="#0439C7"/>
<path d="M26.4323 27.2507V28.6966C26.4323 29.3006 26.9133 29.7903 27.5067 29.7903C28.1001 29.7903 28.5812 29.3006 28.5812 28.6966V27.2507C29.856 26.7973 30.7733 25.5617 30.7733 24.1112C30.7733 22.2778 29.3079 20.7861 27.5067 20.7861C25.7056 20.7861 24.2402 22.2778 24.2402 24.1112C24.2402 25.5617 25.1575 26.7974 26.4323 27.2507ZM27.5067 22.9736C28.123 22.9736 28.6243 23.484 28.6243 24.1112C28.6243 24.7385 28.123 25.2489 27.5067 25.2489C26.8905 25.2489 26.3892 24.7385 26.3892 24.1112C26.3892 23.484 26.8905 22.9736 27.5067 22.9736Z" fill="#33E6BF"/>
<path d="M27.2281 52.2451C27.6505 52.4243 28.1543 52.3018 28.4526 51.9487C28.7454 51.6022 28.794 51.0937 28.5734 50.696C28.0807 49.8074 26.7266 50.0723 26.5763 51.0742C26.5026 51.5648 26.7796 52.0548 27.2281 52.2451Z" fill="#0439C7"/>
</g>
<defs>
<clipPath id="clip0_2486_709">
<rect width="55.0131" height="56" fill="white"/>
</clipPath>
</defs>
</svg>
