<svg width="56" height="56" viewBox="0 0 56 56" fill="none" xmlns="http://www.w3.org/2000/svg">
<g clip-path="url(#clip0_2388_14322)">
<path d="M42 55.9999C41.7667 55.9999 41.5333 55.9533 41.314 55.86C40.7727 55.6289 28 50.0663 28 38.6259V29.2506C28 28.5016 28.476 27.8366 29.1877 27.5939L41.4377 23.4266C41.8017 23.3029 42.1983 23.3029 42.5623 23.4266L54.8123 27.5939C55.524 27.8366 56 28.5016 56 29.2506V38.6259C56 50.0663 43.2273 55.6289 42.686 55.8623C42.4667 55.9533 42.2333 55.9999 42 55.9999ZM31.5 30.5036V38.6236C31.5 46.4006 39.564 51.0766 42 52.3086C44.436 51.0766 52.5 46.4006 52.5 38.6236V30.5036L42 26.9313L31.5 30.5036Z" fill="#33E6BF"/>
<path d="M41.4166 45.5C40.9546 45.5 40.5066 45.318 40.1799 44.9867L35.5132 40.32C34.8296 39.6364 34.8296 38.528 35.5132 37.8444C36.1969 37.1607 37.3052 37.1607 37.9889 37.8444L41.2299 41.0854L47.0166 33.3667C47.5906 32.5944 48.6919 32.4357 49.4666 33.019C50.2389 33.5977 50.3952 34.6944 49.8142 35.469L42.8142 44.8024C42.5109 45.2084 42.0466 45.4604 41.5379 45.4977C41.4982 45.4977 41.4586 45.5 41.4166 45.5Z" fill="#33E6BF"/>
<path d="M24.71 49H6.41667C2.877 49 0 46.123 0 42.5833V6.41667C0 2.877 2.877 0 6.41667 0H33.25C36.7897 0 39.6667 2.877 39.6667 6.41667V19.0867C39.6667 20.0527 38.8827 20.8367 37.9167 20.8367C36.9507 20.8367 36.1667 20.0527 36.1667 19.0867V6.41667C36.1667 4.809 34.8577 3.5 33.25 3.5H6.41667C4.809 3.5 3.5 4.809 3.5 6.41667V42.5833C3.5 44.191 4.809 45.5 6.41667 45.5H24.71C25.676 45.5 26.46 46.284 26.46 47.25C26.46 48.216 25.676 49 24.71 49Z" fill="#0439C7"/>
<path d="M30.9167 22.1666H8.75C7.784 22.1666 7 21.3826 7 20.4166C7 19.4506 7.784 18.6666 8.75 18.6666H30.9167C31.8827 18.6666 32.6667 19.4506 32.6667 20.4166C32.6667 21.3826 31.8827 22.1666 30.9167 22.1666Z" fill="#0439C7"/>
<path d="M21.5833 31.5H8.75C7.784 31.5 7 30.716 7 29.75C7 28.784 7.784 28 8.75 28H21.5833C22.5493 28 23.3333 28.784 23.3333 29.75C23.3333 30.716 22.5493 31.5 21.5833 31.5Z" fill="#0439C7"/>
<path d="M19.25 12.8334H8.75C7.784 12.8334 7 12.0494 7 11.0834C7 10.1174 7.784 9.33337 8.75 9.33337H19.25C20.216 9.33337 21 10.1174 21 11.0834C21 12.0494 20.216 12.8334 19.25 12.8334Z" fill="#0439C7"/>
</g>
<defs>
<clipPath id="clip0_2388_14322">
<rect width="56" height="56" fill="white"/>
</clipPath>
</defs>
</svg>
