<svg width="578" height="578" viewBox="0 0 578 578" fill="none" xmlns="http://www.w3.org/2000/svg">
<path d="M175.092 535V526.934H178.599C179.508 526.934 180.294 527.1 180.957 527.431C181.629 527.762 182.145 528.231 182.504 528.837C182.874 529.443 183.058 530.153 183.058 530.967C183.058 531.781 182.874 532.491 182.504 533.097C182.145 533.703 181.629 534.172 180.957 534.503C180.294 534.834 179.508 535 178.599 535H175.092ZM176.469 533.85H178.542C179.205 533.85 179.768 533.736 180.232 533.509C180.696 533.272 181.051 532.936 181.297 532.501C181.544 532.065 181.667 531.554 181.667 530.967C181.667 530.37 181.544 529.859 181.297 529.433C181.051 528.998 180.696 528.662 180.232 528.425C179.768 528.188 179.205 528.07 178.542 528.07H176.469V533.85ZM186.213 530.342H190.459V531.464H186.213V530.342ZM186.44 533.85H191.112V535H185.063V526.934H190.956V528.07H186.44V533.85ZM198.8 532.699C198.8 533.192 198.667 533.618 198.402 533.978C198.146 534.337 197.772 534.617 197.28 534.815C196.797 535.014 196.21 535.114 195.519 535.114C194.894 535.114 194.284 535.028 193.687 534.858C193.1 534.678 192.641 534.441 192.31 534.148L192.849 533.069C193.171 533.324 193.574 533.537 194.056 533.708C194.539 533.869 195.046 533.949 195.576 533.949C196.258 533.949 196.736 533.84 197.01 533.623C197.285 533.395 197.422 533.13 197.422 532.827C197.422 532.562 197.332 532.354 197.152 532.202C196.982 532.041 196.75 531.918 196.456 531.833C196.163 531.739 195.841 531.653 195.491 531.578C195.15 531.502 194.804 531.417 194.454 531.322C194.113 531.227 193.796 531.099 193.503 530.939C193.219 530.778 192.987 530.56 192.807 530.285C192.627 530.001 192.537 529.646 192.537 529.22C192.537 528.737 192.669 528.316 192.935 527.956C193.2 527.597 193.574 527.317 194.056 527.118C194.539 526.92 195.117 526.82 195.789 526.82C196.281 526.82 196.769 526.877 197.252 526.991C197.734 527.095 198.151 527.27 198.501 527.516L198.004 528.624C197.663 528.387 197.294 528.221 196.897 528.127C196.508 528.032 196.125 527.985 195.746 527.985C195.103 527.985 194.634 528.098 194.34 528.326C194.056 528.543 193.914 528.813 193.914 529.135C193.914 529.4 194.004 529.613 194.184 529.774C194.364 529.926 194.596 530.049 194.88 530.143C195.174 530.228 195.495 530.309 195.846 530.385C196.196 530.46 196.542 530.546 196.882 530.64C197.223 530.735 197.54 530.863 197.834 531.024C198.127 531.185 198.359 531.402 198.53 531.677C198.71 531.942 198.8 532.283 198.8 532.699ZM201.927 533.069L201.856 531.436L206.301 526.934H207.835L204.27 530.683L203.504 531.478L201.927 533.069ZM200.706 535V526.934H202.084V535H200.706ZM206.429 535L203.22 531.251L204.114 530.243L208.062 535H206.429ZM210.336 535V528.07H207.581V526.934H214.469V528.07H211.714V535H210.336ZM219.402 535.114C218.569 535.114 217.821 534.934 217.159 534.574C216.496 534.214 215.97 533.722 215.582 533.097C215.204 532.463 215.014 531.748 215.014 530.953C215.014 530.167 215.204 529.462 215.582 528.837C215.97 528.212 216.496 527.72 217.159 527.36C217.821 527 218.569 526.82 219.402 526.82C220.245 526.82 220.993 527 221.646 527.36C222.309 527.72 222.829 528.212 223.208 528.837C223.596 529.462 223.79 530.167 223.79 530.953C223.79 531.748 223.596 532.463 223.208 533.097C222.829 533.722 222.309 534.214 221.646 534.574C220.993 534.934 220.245 535.114 219.402 535.114ZM219.402 533.921C219.98 533.921 220.491 533.793 220.936 533.537C221.39 533.282 221.745 532.931 222.001 532.486C222.266 532.032 222.399 531.525 222.399 530.967C222.399 530.389 222.266 529.883 222.001 529.447C221.745 529.002 221.39 528.652 220.936 528.397C220.491 528.141 219.98 528.013 219.402 528.013C218.834 528.013 218.323 528.141 217.869 528.397C217.414 528.643 217.054 528.988 216.789 529.433C216.534 529.878 216.406 530.389 216.406 530.967C216.406 531.525 216.534 532.032 216.789 532.486C217.054 532.931 217.414 533.282 217.869 533.537C218.323 533.793 218.834 533.921 219.402 533.921ZM225.794 535V526.934H229.088C229.798 526.934 230.409 527.047 230.92 527.275C231.431 527.492 231.829 527.814 232.113 528.24C232.397 528.657 232.539 529.168 232.539 529.774C232.539 530.37 232.397 530.882 232.113 531.308C231.829 531.734 231.431 532.06 230.92 532.288C230.409 532.515 229.798 532.628 229.088 532.628H226.56L227.171 531.975V535H225.794ZM227.171 532.131L226.646 531.478H229.003C229.704 531.478 230.234 531.331 230.593 531.038C230.963 530.744 231.147 530.323 231.147 529.774C231.147 529.225 230.963 528.804 230.593 528.51C230.234 528.217 229.704 528.07 229.003 528.07H226.646L227.171 527.417V532.131Z" fill="white"/>
<path d="M354.355 62V55.0699H351.6V53.9338H358.487V55.0699H355.732V62H354.355ZM358.033 62L361.725 53.9338H363.088L366.795 62H365.403L362.18 54.6581H362.648L359.382 62H358.033ZM359.723 60.0829L360.092 58.9894H364.523L364.892 60.0829H359.723ZM368.162 62V53.9338H371.896C372.872 53.9338 373.615 54.1232 374.126 54.5019C374.647 54.8711 374.907 55.3776 374.907 56.0214C374.907 56.6652 374.689 57.1669 374.254 57.5267C373.828 57.8864 373.269 58.0663 372.578 58.0663L372.791 57.6829C373.577 57.6829 374.197 57.8628 374.651 58.2225C375.106 58.5823 375.333 59.1125 375.333 59.813C375.333 60.4947 375.063 61.0296 374.524 61.4178C373.984 61.8059 373.189 62 372.138 62H368.162ZM369.539 60.9491H372.067C372.673 60.9491 373.137 60.8497 373.459 60.6509C373.78 60.4426 373.941 60.1255 373.941 59.6994C373.941 59.2639 373.78 58.9468 373.459 58.748C373.137 58.5492 372.673 58.4498 372.067 58.4498H369.312V57.3989H371.769C372.337 57.3989 372.772 57.2947 373.075 57.0865C373.378 56.8782 373.53 56.5752 373.53 56.1776C373.53 55.78 373.378 55.4817 373.075 55.2829C372.772 55.0841 372.337 54.9847 371.769 54.9847H369.539V60.9491ZM377.301 62V53.9338H378.678V60.8497H383.009V62H377.301ZM385.649 57.3421H389.895V58.464H385.649V57.3421ZM385.876 60.8497H390.548V62H384.498V53.9338H390.392V55.0699H385.876V60.8497ZM394.032 62V55.0699H391.277V53.9338H398.164V55.0699H395.409V62H394.032Z" fill="white"/>
<path d="M123.844 275V266.934H127.139C127.849 266.934 128.459 267.047 128.971 267.275C129.482 267.492 129.88 267.814 130.164 268.24C130.448 268.657 130.59 269.168 130.59 269.774C130.59 270.37 130.448 270.882 130.164 271.308C129.88 271.734 129.482 272.06 128.971 272.288C128.459 272.515 127.849 272.628 127.139 272.628H124.611L125.222 271.975V275H123.844ZM125.222 272.131L124.696 271.478H127.054C127.754 271.478 128.284 271.331 128.644 271.038C129.013 270.744 129.198 270.323 129.198 269.774C129.198 269.225 129.013 268.804 128.644 268.51C128.284 268.217 127.754 268.07 127.054 268.07H124.696L125.222 267.417V272.131ZM132.692 275V266.934H134.07V270.342H138.486V266.934H139.864V275H138.486V271.478H134.07V275H132.692ZM146.257 275.114C145.424 275.114 144.676 274.934 144.013 274.574C143.351 274.214 142.825 273.722 142.437 273.097C142.058 272.463 141.869 271.748 141.869 270.953C141.869 270.167 142.058 269.462 142.437 268.837C142.825 268.212 143.351 267.72 144.013 267.36C144.676 267 145.424 266.82 146.257 266.82C147.1 266.82 147.848 267 148.501 267.36C149.164 267.72 149.684 268.212 150.063 268.837C150.451 269.462 150.645 270.167 150.645 270.953C150.645 271.748 150.451 272.463 150.063 273.097C149.684 273.722 149.164 274.214 148.501 274.574C147.848 274.934 147.1 275.114 146.257 275.114ZM146.257 273.921C146.835 273.921 147.346 273.793 147.791 273.537C148.245 273.282 148.6 272.931 148.856 272.486C149.121 272.032 149.254 271.525 149.254 270.967C149.254 270.389 149.121 269.883 148.856 269.447C148.6 269.002 148.245 268.652 147.791 268.397C147.346 268.141 146.835 268.013 146.257 268.013C145.689 268.013 145.178 268.141 144.723 268.397C144.269 268.643 143.909 268.988 143.644 269.433C143.389 269.878 143.261 270.389 143.261 270.967C143.261 271.525 143.389 272.032 143.644 272.486C143.909 272.931 144.269 273.282 144.723 273.537C145.178 273.793 145.689 273.921 146.257 273.921ZM152.648 275V266.934H153.784L158.968 273.296H158.442V266.934H159.82V275H158.684L153.486 268.638H154.026V275H152.648ZM163.728 270.342H167.974V271.464H163.728V270.342ZM163.955 273.85H168.628V275H162.578V266.934H168.471V268.07H163.955V273.85Z" fill="white"/>
<g filter="url(#filter0_f_1_1004)">
<circle cx="206" cy="230" r="104" fill="url(#paint0_radial_1_1004)"/>
</g>
<g filter="url(#filter1_f_1_1004)">
<circle cx="289" cy="289" r="276" fill="url(#paint1_radial_1_1004)"/>
</g>
<rect x="322.764" y="87.5" width="105.347" height="137.113" rx="7.5" fill="white" fill-opacity="0.1"/>
<rect x="322.764" y="87.5" width="105.347" height="137.113" rx="7.5" fill="#0439C7" fill-opacity="0.38"/>
<rect x="322.764" y="87.5" width="105.347" height="137.113" rx="7.5" stroke="url(#paint2_linear_1_1004)"/>
<rect x="354.029" y="207.158" width="44.1961" height="8.28677" rx="4.14338" fill="#D9D9D9" fill-opacity="0.25"/>
<rect x="191.057" y="295.551" width="29.0037" height="5.52451" rx="2.76226" fill="#D9D9D9" fill-opacity="0.25"/>
<rect x="186.913" y="487.527" width="37.2905" height="6.90564" rx="3.45282" fill="#D9D9D9" fill-opacity="0.25"/>
<rect x="184.151" y="230.637" width="42.815" height="77.3432" rx="8" fill="white" fill-opacity="0.1"/>
<rect x="184.151" y="230.637" width="42.815" height="77.3432" rx="8" fill="#0439C7" fill-opacity="0.24"/>
<path d="M135.812 375.369C135.812 370.951 139.393 367.369 143.812 367.369H267.305C271.724 367.369 275.305 370.951 275.305 375.369V473.716H135.812V375.369Z" fill="white" fill-opacity="0.1"/>
<path d="M135.812 375.369C135.812 370.951 139.393 367.369 143.812 367.369H267.305C271.724 367.369 275.305 370.951 275.305 375.369V473.716H135.812V375.369Z" fill="#0439C7" fill-opacity="0.38"/>
<path d="M125.086 494.094C123.684 496.758 125.615 499.957 128.625 499.957H282.491C285.501 499.957 287.433 496.758 286.031 494.094L275.305 473.716H135.811L125.086 494.094Z" fill="white" fill-opacity="0.14"/>
<path d="M125.086 494.094C123.684 496.758 125.615 499.957 128.625 499.957H282.491C285.501 499.957 287.433 496.758 286.031 494.094L275.305 473.716H135.811L125.086 494.094Z" fill="#001E6D" fill-opacity="0.38"/>
<rect x="391.32" y="370.131" width="53.864" height="55.2451" rx="8" fill="white" fill-opacity="0.1"/>
<rect x="391.32" y="370.131" width="53.864" height="55.2451" rx="8" fill="#0439C7" fill-opacity="0.23"/>
<rect x="392.32" y="371.131" width="51.864" height="53.2451" rx="7" stroke="white" stroke-opacity="0.05" stroke-width="2"/>
<line x1="207.13" y1="367.369" x2="207.13" y2="307.98" stroke="#262E3A" stroke-dasharray="2 2"/>
<path d="M275.305 415.018L389.939 401.897" stroke="#262E3A" stroke-dasharray="2 2"/>
<path d="M206.249 227.875L322.264 147.77" stroke="#262E3A" stroke-dasharray="2 2"/>
<path d="M417.562 370.822L376.818 225.113" stroke="#262E3A" stroke-dasharray="2 2"/>
<circle cx="207.63" cy="309.362" r="4.14338" fill="#253040"/>
<circle cx="207.63" cy="365.987" r="4.14338" fill="#253040"/>
<circle cx="275.305" cy="415.708" r="4.14338" fill="#253040"/>
<circle cx="416.18" cy="371.512" r="4.14338" fill="#41EBE5"/>
<circle cx="391.32" cy="401.897" r="4.14338" fill="#253040"/>
<circle cx="322.263" cy="147.77" r="4.14338" fill="#4FEFE7"/>
<circle cx="376.128" cy="223.731" r="4.14338" fill="#56EBE1"/>
<g filter="url(#filter2_f_1_1004)">
<rect x="230.563" y="152.658" width="75.4283" height="96.1151" rx="37.7141" transform="rotate(-35 230.563 152.658)" fill="url(#paint3_linear_1_1004)" fill-opacity="0.15"/>
</g>
<rect x="226.357" y="213.096" width="113.539" height="1.9223" transform="rotate(-35 226.357 213.096)" fill="url(#paint4_linear_1_1004)"/>
<g filter="url(#filter3_f_1_1004)">
<path d="M266.78 183.617L318.811 147.184L321.016 150.334L268.985 186.767L266.78 183.617Z" fill="url(#paint5_linear_1_1004)" fill-opacity="0.5"/>
</g>
<g filter="url(#filter4_f_1_1004)">
<rect x="224.152" y="209.945" width="113.539" height="9.61151" transform="rotate(-35 224.152 209.945)" fill="url(#paint6_linear_1_1004)" fill-opacity="0.8"/>
</g>
<g style="mix-blend-mode:overlay">
<rect x="226.357" y="213.096" width="113.539" height="1.9223" transform="rotate(-35 226.357 213.096)" fill="url(#paint7_linear_1_1004)" fill-opacity="0.7"/>
</g>
<g style="mix-blend-mode:overlay" filter="url(#filter5_f_1_1004)">
<rect x="285.717" y="138.678" width="22.2315" height="53.8245" rx="11.1157" transform="rotate(-35 285.717 138.678)" fill="white" fill-opacity="0.5"/>
</g>
<g filter="url(#filter6_f_1_1004)">
<rect width="96.3739" height="96.1151" rx="48.0576" transform="matrix(0.257156 0.96637 0.96637 -0.257156 343.072 287.221)" fill="url(#paint8_linear_1_1004)" fill-opacity="0.15"/>
</g>
<rect width="145.068" height="1.9223" transform="matrix(0.257156 0.96637 0.96637 -0.257156 376.064 228.051)" fill="url(#paint9_linear_1_1004)"/>
<g filter="url(#filter7_f_1_1004)">
<path d="M391.569 290.061L412.439 368.488L416.155 367.5L395.285 289.072L391.569 290.061Z" fill="url(#paint10_linear_1_1004)" fill-opacity="0.5"/>
</g>
<g filter="url(#filter8_f_1_1004)">
<rect width="145.068" height="9.61151" transform="matrix(0.257156 0.96637 0.96637 -0.257156 372.348 229.041)" fill="url(#paint11_linear_1_1004)" fill-opacity="0.8"/>
</g>
<g style="mix-blend-mode:overlay">
<rect width="145.068" height="1.9223" transform="matrix(0.257156 0.96637 0.96637 -0.257156 376.064 228.051)" fill="url(#paint12_linear_1_1004)" fill-opacity="0.7"/>
</g>
<g style="mix-blend-mode:overlay" filter="url(#filter9_f_1_1004)">
<rect width="28.405" height="53.8245" rx="14.2025" transform="matrix(0.257156 0.96637 0.96637 -0.257156 380.058 347.713)" fill="white" fill-opacity="0.5"/>
</g>
<path d="M458.5 397.5C458.5 420.149 440.362 438.5 418 438.5C395.638 438.5 377.5 420.149 377.5 397.5C377.5 374.851 395.638 356.5 418 356.5C440.362 356.5 458.5 374.851 458.5 397.5Z" stroke="#33E6BF" stroke-opacity="0.27"/>
<path d="M490.5 397.5C490.5 437.82 458.037 470.5 418 470.5C377.963 470.5 345.5 437.82 345.5 397.5C345.5 357.18 377.963 324.5 418 324.5C458.037 324.5 490.5 357.18 490.5 397.5Z" stroke="#33E6BF" stroke-opacity="0.07"/>
<path d="M475.5 397.5C475.5 429.537 449.752 455.5 418 455.5C386.248 455.5 360.5 429.537 360.5 397.5C360.5 365.463 386.248 339.5 418 339.5C449.752 339.5 475.5 365.463 475.5 397.5Z" stroke="#33E6BF" stroke-opacity="0.17"/>
<path fill-rule="evenodd" clip-rule="evenodd" d="M209.011 230.636H218.966C223.384 230.636 226.966 234.218 226.966 238.636V301.361C226.966 305.779 223.384 309.361 218.966 309.361H192.151C187.733 309.361 184.151 305.779 184.151 301.361V238.636C184.151 234.218 187.733 230.636 192.151 230.636H200.724C200.725 228.349 202.58 226.494 204.868 226.494C207.156 226.494 209.011 228.349 209.011 230.636ZM204.868 234.781C206.812 234.781 208.443 233.442 208.89 231.636H218.966C222.832 231.636 225.966 234.77 225.966 238.636V301.361C225.966 305.227 222.832 308.361 218.966 308.361H192.151C188.285 308.361 185.151 305.227 185.151 301.361V238.636C185.151 234.77 188.285 231.636 192.151 231.636H200.846C201.293 233.442 202.924 234.781 204.868 234.781Z" fill="url(#paint13_linear_1_1004)"/>
<defs>
<filter id="filter0_f_1_1004" x="89.3" y="113.3" width="233.4" height="233.4" filterUnits="userSpaceOnUse" color-interpolation-filters="sRGB">
<feFlood flood-opacity="0" result="BackgroundImageFix"/>
<feBlend mode="normal" in="SourceGraphic" in2="BackgroundImageFix" result="shape"/>
<feGaussianBlur stdDeviation="6.35" result="effect1_foregroundBlur_1_1004"/>
</filter>
<filter id="filter1_f_1_1004" x="0.3" y="0.3" width="577.4" height="577.4" filterUnits="userSpaceOnUse" color-interpolation-filters="sRGB">
<feFlood flood-opacity="0" result="BackgroundImageFix"/>
<feBlend mode="normal" in="SourceGraphic" in2="BackgroundImageFix" result="shape"/>
<feGaussianBlur stdDeviation="6.35" result="effect1_foregroundBlur_1_1004"/>
</filter>
<filter id="filter2_f_1_1004" x="211.967" y="90.7985" width="154.108" height="159.189" filterUnits="userSpaceOnUse" color-interpolation-filters="sRGB">
<feFlood flood-opacity="0" result="BackgroundImageFix"/>
<feBlend mode="normal" in="SourceGraphic" in2="BackgroundImageFix" result="shape"/>
<feGaussianBlur stdDeviation="16.702" result="effect1_foregroundBlur_1_1004"/>
</filter>
<filter id="filter3_f_1_1004" x="263.3" y="143.705" width="61.1955" height="46.5412" filterUnits="userSpaceOnUse" color-interpolation-filters="sRGB">
<feFlood flood-opacity="0" result="BackgroundImageFix"/>
<feBlend mode="normal" in="SourceGraphic" in2="BackgroundImageFix" result="shape"/>
<feGaussianBlur stdDeviation="1.73979" result="effect1_foregroundBlur_1_1004"/>
</filter>
<filter id="filter4_f_1_1004" x="218.585" y="139.255" width="109.654" height="84.1315" filterUnits="userSpaceOnUse" color-interpolation-filters="sRGB">
<feFlood flood-opacity="0" result="BackgroundImageFix"/>
<feBlend mode="normal" in="SourceGraphic" in2="BackgroundImageFix" result="shape"/>
<feGaussianBlur stdDeviation="2.78367" result="effect1_foregroundBlur_1_1004"/>
</filter>
<filter id="filter5_f_1_1004" x="256.678" y="96.8868" width="107.162" height="114.921" filterUnits="userSpaceOnUse" color-interpolation-filters="sRGB">
<feFlood flood-opacity="0" result="BackgroundImageFix"/>
<feBlend mode="normal" in="SourceGraphic" in2="BackgroundImageFix" result="shape"/>
<feGaussianBlur stdDeviation="16.702" result="effect1_foregroundBlur_1_1004"/>
</filter>
<filter id="filter6_f_1_1004" x="320.429" y="239.839" width="162.952" height="163.18" filterUnits="userSpaceOnUse" color-interpolation-filters="sRGB">
<feFlood flood-opacity="0" result="BackgroundImageFix"/>
<feBlend mode="normal" in="SourceGraphic" in2="BackgroundImageFix" result="shape"/>
<feGaussianBlur stdDeviation="16.702" result="effect1_foregroundBlur_1_1004"/>
</filter>
<filter id="filter7_f_1_1004" x="388.09" y="285.592" width="31.5446" height="86.3755" filterUnits="userSpaceOnUse" color-interpolation-filters="sRGB">
<feFlood flood-opacity="0" result="BackgroundImageFix"/>
<feBlend mode="normal" in="SourceGraphic" in2="BackgroundImageFix" result="shape"/>
<feGaussianBlur stdDeviation="1.73979" result="effect1_foregroundBlur_1_1004"/>
</filter>
<filter id="filter8_f_1_1004" x="366.781" y="221.002" width="57.7279" height="153.796" filterUnits="userSpaceOnUse" color-interpolation-filters="sRGB">
<feFlood flood-opacity="0" result="BackgroundImageFix"/>
<feBlend mode="normal" in="SourceGraphic" in2="BackgroundImageFix" result="shape"/>
<feGaussianBlur stdDeviation="2.78367" result="effect1_foregroundBlur_1_1004"/>
</filter>
<filter id="filter9_f_1_1004" x="349.825" y="303.639" width="119.785" height="101.757" filterUnits="userSpaceOnUse" color-interpolation-filters="sRGB">
<feFlood flood-opacity="0" result="BackgroundImageFix"/>
<feBlend mode="normal" in="SourceGraphic" in2="BackgroundImageFix" result="shape"/>
<feGaussianBlur stdDeviation="16.702" result="effect1_foregroundBlur_1_1004"/>
</filter>
<radialGradient id="paint0_radial_1_1004" cx="0" cy="0" r="1" gradientUnits="userSpaceOnUse" gradientTransform="translate(206 230) rotate(90) scale(85.7355)">
<stop stop-color="#03FFCF" stop-opacity="0.81"/>
<stop offset="1" stop-color="#02122A" stop-opacity="0"/>
</radialGradient>
<radialGradient id="paint1_radial_1_1004" cx="0" cy="0" r="1" gradientUnits="userSpaceOnUse" gradientTransform="translate(289 289) rotate(90) scale(227.529)">
<stop stop-color="#0439C7" stop-opacity="0.21"/>
<stop offset="1" stop-color="#02122A" stop-opacity="0.38"/>
</radialGradient>
<linearGradient id="paint2_linear_1_1004" x1="428.664" y1="90.5262" x2="263.28" y2="211.514" gradientUnits="userSpaceOnUse">
<stop stop-color="#34E6BF"/>
<stop offset="0.333333" stop-color="#377CDD"/>
<stop offset="0.666667" stop-color="#294772"/>
<stop offset="1" stop-color="#191A1A"/>
</linearGradient>
<linearGradient id="paint3_linear_1_1004" x1="305.991" y1="248.722" x2="230.563" y2="248.722" gradientUnits="userSpaceOnUse">
<stop stop-color="#34E6BF"/>
<stop offset="1" stop-opacity="0"/>
</linearGradient>
<linearGradient id="paint4_linear_1_1004" x1="339.897" y1="215.019" x2="226.357" y2="215.019" gradientUnits="userSpaceOnUse">
<stop stop-color="#34E6BF"/>
<stop offset="0.333333" stop-color="#377CDD"/>
<stop offset="0.666667" stop-color="#294772"/>
<stop offset="1" stop-color="#191A1A"/>
</linearGradient>
<linearGradient id="paint5_linear_1_1004" x1="319.37" y1="149.14" x2="267.882" y2="185.192" gradientUnits="userSpaceOnUse">
<stop stop-color="#6CE9ED"/>
<stop offset="1" stop-opacity="0"/>
</linearGradient>
<linearGradient id="paint6_linear_1_1004" x1="337.692" y1="219.552" x2="224.152" y2="219.552" gradientUnits="userSpaceOnUse">
<stop stop-color="#008366"/>
<stop offset="1" stop-opacity="0"/>
</linearGradient>
<linearGradient id="paint7_linear_1_1004" x1="339.897" y1="215.019" x2="226.357" y2="215.019" gradientUnits="userSpaceOnUse">
<stop stop-color="white"/>
<stop offset="0.604167" stop-color="white" stop-opacity="0.739583"/>
<stop offset="1" stop-color="white" stop-opacity="0"/>
</linearGradient>
<linearGradient id="paint8_linear_1_1004" x1="96.3739" y1="96.0634" x2="0" y2="96.0634" gradientUnits="userSpaceOnUse">
<stop stop-color="#34E6BF"/>
<stop offset="1" stop-opacity="0"/>
</linearGradient>
<linearGradient id="paint9_linear_1_1004" x1="145.068" y1="1.92346" x2="-42.7227" y2="-1.42855" gradientUnits="userSpaceOnUse">
<stop stop-color="#34E6BF"/>
<stop offset="0.333333" stop-color="#377CDD"/>
<stop offset="0.666667" stop-color="#294772"/>
<stop offset="1" stop-color="#191A1A"/>
</linearGradient>
<linearGradient id="paint10_linear_1_1004" x1="414.079" y1="367.174" x2="393.427" y2="289.566" gradientUnits="userSpaceOnUse">
<stop stop-color="#6CE9ED"/>
<stop offset="1" stop-opacity="0"/>
</linearGradient>
<linearGradient id="paint11_linear_1_1004" x1="145.068" y1="9.60634" x2="0" y2="9.60634" gradientUnits="userSpaceOnUse">
<stop stop-color="#008366"/>
<stop offset="1" stop-opacity="0"/>
</linearGradient>
<linearGradient id="paint12_linear_1_1004" x1="145.068" y1="1.92361" x2="0" y2="1.92361" gradientUnits="userSpaceOnUse">
<stop stop-color="white"/>
<stop offset="0.604167" stop-color="white" stop-opacity="0.739583"/>
<stop offset="1" stop-color="white" stop-opacity="0"/>
</linearGradient>
<linearGradient id="paint13_linear_1_1004" x1="222.121" y1="234.088" x2="176.473" y2="333.492" gradientUnits="userSpaceOnUse">
<stop stop-color="#34E6BF"/>
<stop offset="0.333333" stop-color="#377CDD"/>
<stop offset="0.666667" stop-color="#294772"/>
<stop offset="1" stop-color="#191A1A"/>
</linearGradient>
</defs>
</svg>
