<svg width="417" height="360" viewBox="0 0 417 360" fill="none" xmlns="http://www.w3.org/2000/svg">
<line x1="346.413" y1="51.4554" x2="173.303" y2="159.451" stroke="#F7F8FB" stroke-width="3.34782" stroke-linecap="round" stroke-dasharray="6.7 6.7"/>
<line x1="1.67391" y1="-1.67391" x2="205.709" y2="-1.67391" transform="matrix(0.848434 0.529301 0.529301 -0.848434 176.855 170.507)" stroke="#F7F8FB" stroke-width="3.34782" stroke-linecap="round" stroke-dasharray="6.7 6.7"/>
<path d="M16.9931 207.643C16.9186 206.75 16.9008 205.797 16.9423 204.776C18.0381 177.991 17.0641 137.529 17.0689 110.591C17.0701 102.733 23.1398 97.6809 30.6308 97.6963C63.1949 97.765 95.7601 97.9283 128.324 97.9283C148.24 97.9283 168.156 97.9283 188.081 97.9283C195.075 97.9283 200.744 103.597 200.746 110.59C200.753 138.6 200.746 179.655 200.746 207.626C200.746 214.621 195.075 220.291 188.081 220.291C156.002 220.291 123.925 219.967 91.8465 219.944C76.0456 219.932 60.2446 219.992 44.4448 220.2C32.632 220.355 18.1375 221.454 16.9931 207.643Z" fill="#36537D"/>
<path d="M0.0888922 242.192C0.00131947 242.117 -0.0199856 242.038 0.0297178 241.954C1.32792 239.727 0.17291 236.362 0.18001 234.122C0.181194 233.469 7.36808 233.049 16.2378 233.05C54.7946 233.056 93.3539 233.069 131.912 233.069C155.494 233.069 179.075 233.069 202.667 233.069C210.947 233.069 217.661 233.54 217.663 234.122C217.672 236.451 217.663 239.865 217.663 242.192C217.663 242.774 210.95 243.245 202.667 243.245C164.684 243.245 126.703 243.218 88.7208 243.217C70.011 243.216 51.3012 243.22 32.5938 243.238C18.6058 243.249 1.4439 243.341 0.0888922 242.192Z" fill="#162A48"/>
<path d="M0.0721213 233.365C-0.00125044 233.27 -0.0201758 233.17 0.0224271 233.062C1.11827 230.231 17.0648 224.166 17.0695 221.319C17.0707 220.488 23.1405 219.955 30.6315 219.956C63.1943 219.963 95.7607 219.981 128.325 219.981C148.24 219.981 168.156 219.981 188.081 219.981C195.075 219.981 200.745 220.579 200.746 221.319C200.753 224.28 217.667 230.408 217.667 233.364C217.667 234.104 211.997 234.702 205.002 234.702C172.923 234.702 123.925 234.668 91.8472 234.666C76.0462 234.664 43.3236 234.67 27.5238 234.693C15.711 234.708 1.21648 234.824 0.0721213 233.365Z" fill="#162A48"/>
<path d="M205 232.165C188.176 232.165 166.697 232.156 145.446 232.147C126.18 232.138 107.1 232.13 91.8458 232.13H86.8447C69.9029 232.13 41.7991 232.137 27.5189 232.157L21.1971 232.165C18.1155 232.165 10.5948 232.165 5.7168 231.868C6.95347 231.16 8.30967 230.43 9.42089 229.831C14.7711 226.95 17.9592 225.155 19.1131 223.138C20.7272 222.833 24.7189 222.498 30.5969 222.498L66.1822 222.508C86.8967 222.516 107.61 222.523 128.323 222.523H188.079C193.353 222.523 197.131 222.862 198.712 223.165C199.847 225.124 202.905 226.842 208.006 229.582C209.217 230.231 210.826 231.096 212.233 231.921C210.354 232.061 207.905 232.165 205 232.165Z" fill="#36537D"/>
<path d="M197.658 229.141C182.121 229.141 162.284 229.133 142.658 229.125C124.865 229.116 107.244 229.109 93.1556 229.108H88.5367C72.8908 229.108 46.9361 229.115 33.7481 229.133L27.9091 229.14C25.063 229.14 18.1176 229.14 13.6123 228.874C14.7543 228.238 16.0063 227.584 17.0335 227.048C21.9743 224.463 24.9187 222.852 25.9849 221.044C27.476 220.77 31.1623 220.47 36.5907 220.47L69.4553 220.48C88.5852 220.486 107.715 220.493 126.845 220.493H182.031C186.902 220.493 190.391 220.797 191.851 221.069C192.9 222.825 195.723 224.366 200.436 226.824C201.554 227.407 203.04 228.183 204.34 228.922C202.603 229.049 200.34 229.141 197.658 229.141Z" fill="#162A48"/>
<path d="M117.537 110.773C91.5812 110.285 55.6633 109.673 29.7004 109.953C29.6992 109.994 27.1608 110.034 27.1596 110.074C26.8057 124.444 27.2543 121.894 27.4424 136.263C27.5383 143.626 27.5809 181.385 27.4105 188.747C27.2708 194.778 25.7833 200.887 26.7407 206.909C33.4222 208.314 54.1426 207.525 61.0609 207.735C65.9437 207.883 70.8276 208.009 75.7116 208.084C93.8912 174.774 113.174 142.082 134.508 110.862C128.842 110.889 123.182 110.88 117.537 110.773Z" fill="#81F8DE"/>
<path d="M134.507 110.862C113.173 142.083 93.8901 174.773 75.7104 208.084C78.5518 208.129 81.392 208.161 84.2334 208.161C96.3835 208.161 108.532 208.161 120.683 208.161C143.507 208.161 166.33 208.161 189.155 208.161C189.257 208.161 191.235 208.161 191.235 208.161C191.235 201.135 191.815 111.077 191.499 111.063C172.662 110.218 153.553 110.773 134.507 110.862Z" fill="#33E6BF"/>
<path d="M200.74 225.885H17.0342V227.05H200.74V225.885Z" fill="#36537D"/>
<path d="M196.367 222.651H23.2144V223.815H196.367V222.651Z" fill="#36537D"/>
<path d="M84.7999 81.3787H83.4792L83.465 75.7835L80.6816 80.413H80.0425L77.2591 75.9113V81.3787H75.9385V73.3125H77.1171L80.3834 78.7373L83.5928 73.3125H84.7857L84.7999 81.3787ZM93.5386 81.3787L92.7007 79.4615H88.3694L87.5174 81.3787H86.1683L89.8605 73.3125H91.2238L94.9303 81.3787H93.5386ZM88.8523 78.3681H92.2179L90.5422 74.5622L88.8523 78.3681ZM99.7795 81.4923C97.2801 81.4923 95.4056 79.7313 95.4056 77.3456C95.4056 74.9598 97.2801 73.1989 99.7795 73.1989C101.157 73.1989 102.222 73.6107 102.96 74.4628L102.08 75.3574C101.455 74.69 100.703 74.3918 99.8221 74.3918C98.0754 74.3918 96.7973 75.6273 96.7973 77.3456C96.7973 79.0497 98.0754 80.2994 99.8221 80.2994C100.703 80.2994 101.455 79.987 102.08 79.3195L102.96 80.2142C102.208 81.0804 101.143 81.4923 99.7795 81.4923ZM110.478 77.1894C111.43 77.4592 111.983 78.1408 111.983 79.1917C111.983 80.5692 110.904 81.3787 108.788 81.3787H104.812V73.3125H108.561C110.492 73.3125 111.557 74.122 111.557 75.4C111.557 76.2521 111.146 76.8627 110.478 77.1894ZM108.419 74.3634H106.189V76.7775H108.419C109.541 76.7775 110.18 76.3515 110.18 75.5705C110.18 74.761 109.541 74.3634 108.419 74.3634ZM108.717 80.3278C109.939 80.3278 110.592 79.9302 110.592 79.0781C110.592 78.2118 109.939 77.8284 108.717 77.8284H106.189V80.3278H108.717ZM117.587 81.4923C115.073 81.4923 113.198 79.7313 113.198 77.3456C113.198 74.9598 115.073 73.1989 117.587 73.1989C120.114 73.1989 121.975 74.9598 121.975 77.3456C121.975 79.7313 120.114 81.4923 117.587 81.4923ZM117.587 80.2994C119.305 80.2994 120.583 79.0639 120.583 77.3456C120.583 75.6273 119.305 74.3918 117.587 74.3918C115.868 74.3918 114.59 75.6273 114.59 77.3456C114.59 79.0639 115.868 80.2994 117.587 80.2994ZM127.613 81.4923C125.1 81.4923 123.225 79.7313 123.225 77.3456C123.225 74.9598 125.1 73.1989 127.613 73.1989C130.141 73.1989 132.001 74.9598 132.001 77.3456C132.001 79.7313 130.141 81.4923 127.613 81.4923ZM127.613 80.2994C129.331 80.2994 130.61 79.0639 130.61 77.3456C130.61 75.6273 129.331 74.3918 127.613 74.3918C125.895 74.3918 124.617 75.6273 124.617 77.3456C124.617 79.0639 125.895 80.2994 127.613 80.2994ZM139.727 81.3787L136.759 77.8994L135.382 79.2911V81.3787H134.004V73.3125H135.382V77.587L139.6 73.3125H141.133L137.682 76.948L141.361 81.3787H139.727Z" fill="white"/>
<path d="M406.924 322.11C406.254 322.166 405.537 322.179 404.77 322.148C384.646 321.324 341.533 322.057 321.293 322.053C315.389 322.052 311.594 317.492 311.605 311.864C311.658 287.398 311.779 262.932 311.779 238.466C311.779 223.503 311.779 208.54 311.779 193.57C311.779 188.315 316.039 184.055 321.293 184.054C342.338 184.048 385.896 184.054 406.911 184.054C412.166 184.054 416.426 188.314 416.426 193.57C416.426 217.671 416.183 241.771 416.166 265.872C416.158 277.744 416.202 289.616 416.358 301.485C416.475 310.361 417.301 321.251 406.924 322.11Z" fill="#324E77"/>
<path d="M321.649 196.239C320.824 213.058 321.779 230.19 321.43 247.132C321.062 264.992 320.603 289.707 320.815 307.571C320.844 307.573 320.875 307.573 320.905 307.574C324.163 307.647 327.421 307.661 330.679 307.654C347.067 270.048 365.309 233.078 383.952 196.33C358.515 196.229 321.656 196.092 321.649 196.239Z" fill="#81F8DE"/>
<path d="M330.679 307.656C338.217 307.64 345.757 307.472 353.295 307.382C358.827 307.315 387.196 307.286 392.728 307.404C397.259 307.5 401.848 308.524 406.373 307.864C407.429 303.267 406.836 290.756 406.994 285.996C407.17 280.683 407.314 275.367 407.314 270.05C407.314 261.69 407.314 253.329 407.314 244.969C407.314 229.264 407.314 213.559 407.314 197.854C407.314 197.784 407.314 196.423 407.314 196.423C405.61 196.423 396.078 196.382 383.953 196.332C365.309 233.08 347.067 270.05 330.679 307.656Z" fill="#33E6BF"/>
<path d="M369.98 191.215C365.972 191.215 362.069 191.223 358.053 191.215C357.336 191.214 356.754 190.632 356.754 189.913C356.754 189.194 357.337 188.612 358.056 188.612H369.979C370.698 188.612 371.28 189.194 371.28 189.913C371.28 190.633 370.698 191.215 369.98 191.215Z" fill="#162A48"/>
<path d="M368.964 314.979C368.964 317.712 366.749 319.927 364.016 319.927C361.284 319.927 359.068 317.712 359.068 314.979C359.068 312.247 361.284 310.031 364.016 310.031C366.749 310.031 368.964 312.247 368.964 314.979Z" fill="#162A48"/>
<path d="M348.44 350.973V342.907H349.818V350.973H348.44ZM355.854 342.907C357.97 342.907 359.304 343.944 359.304 345.747C359.304 347.551 357.97 348.602 355.854 348.602H353.936V350.973H352.559V342.907H355.854ZM355.768 347.451C357.174 347.451 357.913 346.841 357.913 345.747C357.913 344.654 357.174 344.043 355.768 344.043H353.936V347.451H355.768ZM366.747 350.973L365.91 349.056H361.578L360.726 350.973H359.377L363.069 342.907H364.433L368.139 350.973H366.747ZM362.061 347.963H365.427L363.751 344.157L362.061 347.963ZM369.506 350.973V342.907H373.013C375.74 342.907 377.473 344.498 377.473 346.94C377.473 349.383 375.74 350.973 373.013 350.973H369.506ZM370.883 349.823H372.957C374.931 349.823 376.081 348.715 376.081 346.94C376.081 345.151 374.931 344.043 372.957 344.043H370.883V349.823Z" fill="white"/>
<path d="M391.913 121.083C391.325 121.132 390.697 121.144 390.025 121.116C372.374 120.393 354.591 121.036 336.841 121.034C331.663 121.032 328.334 117.034 328.344 112.096C328.389 90.6387 328.496 69.181 328.496 47.7233C328.496 34.6005 328.496 21.4764 328.496 8.34755C328.496 3.73933 332.231 0.00328727 336.839 0.00210385C355.296 -0.00262981 373.471 0.00210385 391.901 0.00210385C396.511 0.00210385 400.247 3.73815 400.247 8.34755C400.247 29.4857 400.034 50.6227 400.018 71.7597C400.011 82.1714 400.05 92.5842 400.187 102.995C400.289 110.778 401.014 120.329 391.913 121.083Z" fill="#324E77"/>
<path d="M337.152 10.6883C336.429 25.4384 337.265 40.4642 336.96 55.3244C336.638 70.9881 336.235 86.6553 336.421 102.324C336.447 102.324 336.474 102.325 336.5 102.325C339.858 102.401 343.216 102.404 346.574 102.386C358.604 71.8425 368.798 40.3814 382.752 10.8008C366.822 10.7132 337.159 10.5416 337.152 10.6883Z" fill="#81F8DE"/>
<path d="M346.573 102.388C352.684 102.356 358.795 102.23 364.905 102.156C369.757 102.098 374.61 102.074 379.461 102.177C383.435 102.261 387.46 103.159 391.429 102.58C392.354 98.5471 391.835 93.5838 391.973 89.4087C392.127 84.7484 392.254 80.0858 392.254 75.4231C392.254 68.0907 392.254 60.7582 392.254 53.427C392.254 39.6532 392.254 25.8794 392.254 12.1045C392.254 12.0429 392.254 10.8489 392.254 10.8489C391.173 10.8489 387.597 10.83 382.75 10.8027C368.796 40.3834 358.602 71.8445 346.573 102.388Z" fill="#33E6BF"/>
<path d="M370.743 115.705H358.001C356.22 115.705 354.776 114.267 354.766 112.486C354.743 108.478 360.957 109.404 363.451 109.49C365.522 109.559 370.066 108.791 371.899 109.443C375.209 110.622 374.219 115.705 370.743 115.705Z" fill="#162A48"/>
<path d="M369.6 6.28105C366.086 6.28105 362.662 6.28815 359.14 6.28105C358.511 6.27987 358 5.76864 358 5.13906C358 4.5083 358.512 3.99707 359.143 3.99707H369.599C370.23 3.99707 370.741 4.5083 370.741 5.13906C370.741 5.76982 370.231 6.28105 369.6 6.28105Z" fill="#162A48"/>
<path d="M339.451 153.041V144.975H340.828V153.041H339.451ZM346.864 144.975C348.98 144.975 350.315 146.011 350.315 147.815C350.315 149.618 348.98 150.669 346.864 150.669H344.947V153.041H343.569V144.975H346.864ZM346.779 149.519C348.185 149.519 348.923 148.908 348.923 147.815C348.923 146.721 348.185 146.111 346.779 146.111H344.947V149.519H346.779ZM352.417 153.041V144.975H353.795V148.383H358.211V144.975H359.589V153.041H358.211V149.519H353.795V153.041H352.417ZM365.982 153.154C363.469 153.154 361.594 151.393 361.594 149.008C361.594 146.622 363.469 144.861 365.982 144.861C368.51 144.861 370.37 146.622 370.37 149.008C370.37 151.393 368.51 153.154 365.982 153.154ZM365.982 151.961C367.701 151.961 368.979 150.726 368.979 149.008C368.979 147.289 367.701 146.054 365.982 146.054C364.264 146.054 362.986 147.289 362.986 149.008C362.986 150.726 364.264 151.961 365.982 151.961ZM378.168 144.975H379.545V153.041H378.409L373.751 147.346V153.041H372.374V144.975H373.51L378.168 150.698V144.975ZM383.681 151.89H388.353V153.041H382.303V144.975H388.197V146.111H383.681V148.383H387.699V149.505H383.681V151.89Z" fill="white"/>
</svg>
