<svg width="56" height="56" viewBox="0 0 56 56" fill="none" xmlns="http://www.w3.org/2000/svg">
<g clip-path="url(#clip0_2486_684)">
<path d="M45.844 9.33333C45.844 4.17858 41.7391 0 36.6752 0C31.6113 0 27.5063 4.17858 27.5063 9.33333C27.5063 14.4881 31.6113 18.6667 36.6752 18.6667C41.7369 18.6612 45.8387 14.4858 45.844 9.33333ZM36.6752 16.8C32.624 16.8 29.3401 13.4572 29.3401 9.33333C29.3401 5.20944 32.624 1.86667 36.6752 1.86667C40.7264 1.86667 44.0103 5.20944 44.0103 9.33333C44.0058 13.4549 40.7242 16.7954 36.6752 16.8Z" fill="#33E6BF"/>
<path d="M39.426 4.83842V3.73328H37.5922V4.66661H35.7585V3.73328H33.9247V4.66661C33.4184 4.66661 33.0078 5.08451 33.0078 5.59994V13.0666C33.0078 13.582 33.4184 13.9999 33.9247 13.9999V14.9333H35.7585V13.9999H37.5922V14.9333H39.426V13.8281C40.2932 13.5228 40.9513 12.7936 41.1765 11.8881C41.4021 10.9826 41.1644 10.0223 40.5448 9.33328C41.1644 8.64421 41.4021 7.68399 41.1765 6.77846C40.9513 5.87292 40.2932 5.14376 39.426 4.83842ZM34.8416 6.53328H38.5091C39.0155 6.53328 39.426 6.95118 39.426 7.46661C39.426 7.98204 39.0155 8.39994 38.5091 8.39994H34.8416V6.53328ZM38.5091 12.1333H34.8416V10.2666H38.5091C39.0155 10.2666 39.426 10.6845 39.426 11.1999C39.426 11.7154 39.0155 12.1333 38.5091 12.1333Z" fill="#33E6BF"/>
<path d="M6.41819 32.6666H7.35791C7.86336 45.6882 18.3722 55.984 31.1741 55.9999H36.6754C36.7519 55.9995 36.8285 55.9895 36.9028 55.9699C42.7023 55.7662 48.0823 52.8413 51.474 48.0488C54.8662 43.2559 55.8888 37.1355 54.243 31.4712C54.1284 31.0734 53.7698 30.8 53.3629 30.8H35.4411C31.7333 30.8647 28.0944 31.8313 24.8284 33.6186C21.926 35.1266 18.4223 34.747 15.8968 32.6507C19.3141 32.4825 22.0008 29.6155 22.0052 26.1333C22.0052 25.6179 21.5947 25.2 21.0883 25.2H16.5039C14.2475 25.2036 12.159 26.4131 11.0026 28.3855C9.84621 26.4131 7.7577 25.2036 5.50131 25.2H0.916885C0.410539 25.2 0 25.6179 0 26.1333C0.00402927 29.7399 2.87511 32.6625 6.41819 32.6666ZM53.1793 36.8666C53.2272 46.2469 45.8657 53.9273 36.6525 54.11C36.5908 54.1114 36.5294 54.1192 36.469 54.1333H31.1741C22.0984 54.1219 13.9579 48.449 10.6642 39.8403C14.4459 45.2762 20.5762 48.5146 27.1197 48.5333H31.6813L32.5503 48.511C40.7664 48.3464 47.3306 41.4982 47.2912 33.1333C47.2912 32.9783 47.2728 32.8225 47.2684 32.6666H49.3139C50.0208 37.0407 48.8214 41.5119 46.0287 44.9134C43.2359 48.3145 39.1265 50.3097 34.7718 50.3776L33.8791 50.4L33.9247 52.2666L34.8188 52.2443C39.6521 52.1682 44.2191 49.9748 47.3498 46.2255C50.481 42.4762 51.8716 37.5347 51.1669 32.6666H52.6631C53.0043 34.0397 53.1775 35.4502 53.1793 36.8666ZM25.6647 35.2798C28.6723 33.6282 32.0243 32.7322 35.4411 32.6666H45.4355C45.4409 32.8225 45.4583 32.9783 45.4583 33.1333C45.4946 40.4847 39.7242 46.503 32.5037 46.6443L27.1197 46.6666C18.7697 46.6406 11.4852 40.8916 9.37971 32.6666H13.3221C16.3235 36.3799 21.4586 37.4673 25.6656 35.2798H25.6647ZM16.5039 27.0666H20.0797C19.6414 29.2382 17.7646 30.7977 15.587 30.8H12.0113C12.4496 28.6284 14.3263 27.0689 16.5039 27.0666ZM5.50131 27.0666C7.67891 27.0689 9.55566 28.6284 9.99395 30.8H6.41819C4.24059 30.7977 2.36384 29.2382 1.92555 27.0666H5.50131Z" fill="#0439C7"/>
<path d="M35.7583 26.1333H37.5921V28.9333H35.7583V26.1333Z" fill="#33E6BF"/>
<path d="M40.3428 22.4H41.2597V20.5333H40.3428C38.894 20.5374 37.5335 21.2406 36.6752 22.4287C35.817 21.2406 34.4565 20.5374 33.0077 20.5333H32.0908V22.4H33.0077C34.5267 22.4 35.7584 23.6537 35.7584 25.2H37.5921C37.5921 23.6537 38.8237 22.4 40.3428 22.4Z" fill="#33E6BF"/>
<path d="M37.5925 39.6666C37.5925 40.44 36.9769 41.0666 36.2171 41.0666C35.4574 41.0666 34.8418 40.44 34.8418 39.6666C34.8418 38.8932 35.4574 38.2666 36.2171 38.2666C36.9769 38.2666 37.5925 38.8932 37.5925 39.6666Z" fill="black"/>
</g>
<defs>
<clipPath id="clip0_2486_684">
<rect width="55.0131" height="56" fill="white"/>
</clipPath>
</defs>
</svg>
