<svg width="66" height="66" viewBox="0 0 66 66" fill="none" xmlns="http://www.w3.org/2000/svg">
<g clip-path="url(#clip0_75_1433)">
<path d="M33 65.4023C49.5685 65.4023 63 51.9709 63 35.4023C63 18.8338 49.5685 5.40234 33 5.40234C16.4315 5.40234 3 18.8338 3 35.4023C3 51.9709 16.4315 65.4023 33 65.4023Z" fill="#E7EFFF" fill-opacity="0.1"/>
<path d="M2.4001 9.6C3.39421 9.6 4.2001 8.79411 4.2001 7.8C4.2001 6.80589 3.39421 6 2.4001 6C1.40599 6 0.600098 6.80589 0.600098 7.8C0.600098 8.79411 1.40599 9.6 2.4001 9.6Z" fill="#33E6BF"/>
<path d="M61.1999 4.20156C62.194 4.20156 62.9999 3.39567 62.9999 2.40156C62.9999 1.40745 62.194 0.601562 61.1999 0.601562C60.2058 0.601562 59.3999 1.40745 59.3999 2.40156C59.3999 3.39567 60.2058 4.20156 61.1999 4.20156Z" fill="#00C99F"/>
<path d="M63.6003 61.2016C64.5944 61.2016 65.4003 60.3957 65.4003 59.4016C65.4003 58.4074 64.5944 57.6016 63.6003 57.6016C62.6062 57.6016 61.8003 58.4074 61.8003 59.4016C61.8003 60.3957 62.6062 61.2016 63.6003 61.2016Z" fill="#81F8DE"/>
<path d="M5.4001 58.2016C6.39421 58.2016 7.2001 57.3957 7.2001 56.4016C7.2001 55.4074 6.39421 54.6016 5.4001 54.6016C4.40599 54.6016 3.6001 55.4074 3.6001 56.4016C3.6001 57.3957 4.40599 58.2016 5.4001 58.2016Z" fill="#00C99F"/>
<path d="M47.4 10.8008H17.4C16.0745 10.8008 15 11.8753 15 13.2008V55.2008C15 56.5263 16.0745 57.6008 17.4 57.6008H47.4C48.7255 57.6008 49.8 56.5263 49.8 55.2008V13.2008C49.8 11.8753 48.7255 10.8008 47.4 10.8008Z" fill="#7F96D1"/>
<path d="M45.0002 10.8008V49.2008C45.0002 49.8373 44.7473 50.4478 44.2973 50.8978C43.8472 51.3479 43.2367 51.6008 42.6002 51.6008H12.6002C11.9637 51.6008 11.3532 51.3479 10.9031 50.8978C10.4531 50.4478 10.2002 49.8373 10.2002 49.2008V7.20078C10.2002 6.56426 10.4531 5.95381 10.9031 5.50372C11.3532 5.05364 11.9637 4.80078 12.6002 4.80078H39.0002L45.0002 10.8008Z" fill="#A5BCED"/>
<path d="M29.4002 47.4C31.7198 47.4 33.6002 45.5196 33.6002 43.2C33.6002 40.8804 31.7198 39 29.4002 39C27.0806 39 25.2002 40.8804 25.2002 43.2C25.2002 45.5196 27.0806 47.4 29.4002 47.4Z" fill="#0439C7"/>
<path d="M25.8002 46.2026C25.6888 46.2026 25.5795 46.1716 25.4848 46.113C25.39 46.0545 25.3134 45.9706 25.2635 45.871C25.2137 45.7713 25.1926 45.6597 25.2026 45.5488C25.2126 45.4378 25.2533 45.3318 25.3202 45.2426C25.9586 44.4405 26.8422 43.8696 27.8358 43.6172C28.8294 43.3647 29.8783 43.4446 30.8222 43.8446C33.1635 44.8698 35.7808 45.081 38.2562 44.4446C38.3352 44.4158 38.4195 44.4039 38.5034 44.4098C38.5874 44.4156 38.6691 44.4391 38.7434 44.4786C38.8177 44.5181 38.8829 44.5728 38.9347 44.6391C38.9864 44.7054 39.0237 44.7819 39.044 44.8635C39.0643 44.9452 39.0672 45.0302 39.0525 45.113C39.0379 45.1959 39.0059 45.2747 38.9588 45.3444C38.9116 45.4141 38.8504 45.4731 38.7789 45.5176C38.7075 45.5621 38.6275 45.5911 38.5442 45.6026C35.8313 46.3173 32.9575 46.1062 30.3782 45.0026C29.6828 44.7002 28.9084 44.6302 28.17 44.8032C27.4317 44.9761 26.7689 45.3828 26.2802 45.9626C26.2243 46.0372 26.1518 46.0976 26.0685 46.1393C25.9852 46.181 25.8933 46.2026 25.8002 46.2026Z" fill="white"/>
<path d="M42 51V64.02C40.0476 64.6292 38.0365 65.0314 36 65.22V51H42Z" fill="#0439C7"/>
<path d="M42 51.0008H36L39 43.8008L42 51.0008Z" fill="white"/>
<path d="M42 51.0008H36C38.1 45.9608 37.428 47.5808 39 43.8008C40.572 47.5748 39.894 45.9608 42 51.0008Z" fill="white"/>
<path d="M40.1998 51V64.524C39.4138 64.722 38.6098 64.89 37.7998 65.016V51H40.1998Z" fill="#4450D9"/>
<path d="M40.248 46.8008H37.752L39 43.8008L40.248 46.8008Z" fill="#0439C7"/>
<path d="M45 10.8008H40.2C39.8817 10.8008 39.5765 10.6744 39.3515 10.4493C39.1264 10.2243 39 9.91904 39 9.60078V4.80078L45 10.8008Z" fill="#0439C7"/>
<path d="M38.4001 12.6016H16.8001C16.1374 12.6016 15.6001 13.1388 15.6001 13.8016V21.0016C15.6001 21.6643 16.1374 22.2016 16.8001 22.2016H38.4001C39.0628 22.2016 39.6001 21.6643 39.6001 21.0016V13.8016C39.6001 13.1388 39.0628 12.6016 38.4001 12.6016Z" fill="white"/>
<path d="M24.6001 25.8016H16.2001C16.041 25.8016 15.8884 25.7383 15.7758 25.6258C15.6633 25.5133 15.6001 25.3607 15.6001 25.2016C15.6001 25.0424 15.6633 24.8898 15.7758 24.7773C15.8884 24.6648 16.041 24.6016 16.2001 24.6016H24.6001C24.7592 24.6016 24.9118 24.6648 25.0244 24.7773C25.1369 24.8898 25.2001 25.0424 25.2001 25.2016C25.2001 25.3607 25.1369 25.5133 25.0244 25.6258C24.9118 25.7383 24.7592 25.8016 24.6001 25.8016Z" fill="white"/>
<path d="M39.0001 29.4031H16.2001C16.041 29.4031 15.8884 29.3399 15.7758 29.2274C15.6633 29.1149 15.6001 28.9623 15.6001 28.8031C15.6001 28.644 15.6633 28.4914 15.7758 28.3789C15.8884 28.2663 16.041 28.2031 16.2001 28.2031H39.0001C39.1592 28.2031 39.3118 28.2663 39.4244 28.3789C39.5369 28.4914 39.6001 28.644 39.6001 28.8031C39.6001 28.9623 39.5369 29.1149 39.4244 29.2274C39.3118 29.3399 39.1592 29.4031 39.0001 29.4031Z" fill="white"/>
<path d="M39.0001 33.0008H16.2001C16.041 33.0008 15.8884 32.9376 15.7758 32.825C15.6633 32.7125 15.6001 32.5599 15.6001 32.4008C15.6001 32.2417 15.6633 32.089 15.7758 31.9765C15.8884 31.864 16.041 31.8008 16.2001 31.8008H39.0001C39.1592 31.8008 39.3118 31.864 39.4244 31.9765C39.5369 32.089 39.6001 32.2417 39.6001 32.4008C39.6001 32.5599 39.5369 32.7125 39.4244 32.825C39.3118 32.9376 39.1592 33.0008 39.0001 33.0008Z" fill="white"/>
<path d="M39.0001 36.6023H16.2001C16.041 36.6023 15.8884 36.5391 15.7758 36.4266C15.6633 36.3141 15.6001 36.1615 15.6001 36.0023C15.6001 35.8432 15.6633 35.6906 15.7758 35.5781C15.8884 35.4656 16.041 35.4023 16.2001 35.4023H39.0001C39.1592 35.4023 39.3118 35.4656 39.4244 35.5781C39.5369 35.6906 39.6001 35.8432 39.6001 36.0023C39.6001 36.1615 39.5369 36.3141 39.4244 36.4266C39.3118 36.5391 39.1592 36.6023 39.0001 36.6023Z" fill="white"/>
<path d="M49.8004 40.8C54.4396 40.8 58.2004 37.0392 58.2004 32.4C58.2004 27.7608 54.4396 24 49.8004 24C45.1612 24 41.4004 27.7608 41.4004 32.4C41.4004 37.0392 45.1612 40.8 49.8004 40.8Z" fill="#00C99F"/>
<path d="M48.3541 35.0475L45.9541 32.6475C45.7575 32.4179 45.6548 32.1226 45.6664 31.8206C45.6781 31.5186 45.8033 31.2321 46.017 31.0184C46.2307 30.8047 46.5172 30.6795 46.8192 30.6678C47.1212 30.6562 47.4165 30.7589 47.6461 30.9555L49.2001 32.5035L52.5541 29.1555C52.7836 28.9589 53.0789 28.8562 53.3809 28.8678C53.683 28.8795 53.9694 29.0047 54.1832 29.2184C54.3969 29.4321 54.5221 29.7186 54.5337 30.0206C54.5454 30.3226 54.4427 30.6179 54.2461 30.8475L50.0461 35.0475C49.8212 35.271 49.5171 35.3964 49.2001 35.3964C48.8831 35.3964 48.5789 35.271 48.3541 35.0475Z" fill="white"/>
</g>
<defs>
<clipPath id="clip0_75_1433">
<rect width="66" height="66" fill="white"/>
</clipPath>
</defs>
</svg>
