<svg width="67" height="66" viewBox="0 0 67 66" fill="none" xmlns="http://www.w3.org/2000/svg">
<g clip-path="url(#clip0_75_1407)">
<path d="M31.2666 65.4023C47.8351 65.4023 61.2666 51.9709 61.2666 35.4023C61.2666 18.8338 47.8351 5.40234 31.2666 5.40234C14.6981 5.40234 1.2666 18.8338 1.2666 35.4023C1.2666 51.9709 14.6981 65.4023 31.2666 65.4023Z" fill="#CEE1FF" fill-opacity="0.1"/>
<path d="M3.0666 10.2016C4.06071 10.2016 4.8666 9.39567 4.8666 8.40156C4.8666 7.40745 4.06071 6.60156 3.0666 6.60156C2.07249 6.60156 1.2666 7.40745 1.2666 8.40156C1.2666 9.39567 2.07249 10.2016 3.0666 10.2016Z" fill="#00C99F"/>
<path d="M60.6657 4.20156C61.6598 4.20156 62.4657 3.39567 62.4657 2.40156C62.4657 1.40745 61.6598 0.601562 60.6657 0.601562C59.6716 0.601562 58.8657 1.40745 58.8657 2.40156C58.8657 3.39567 59.6716 4.20156 60.6657 4.20156Z" fill="#15D7AC"/>
<path d="M64.2668 60.0023C65.2609 60.0023 66.0668 59.1965 66.0668 58.2023C66.0668 57.2082 65.2609 56.4023 64.2668 56.4023C63.2727 56.4023 62.4668 57.2082 62.4668 58.2023C62.4668 59.1965 63.2727 60.0023 64.2668 60.0023Z" fill="#00C99F"/>
<path d="M3.66621 65.4008C4.66032 65.4008 5.46621 64.5949 5.46621 63.6008C5.46621 62.6067 4.66032 61.8008 3.66621 61.8008C2.6721 61.8008 1.86621 62.6067 1.86621 63.6008C1.86621 64.5949 2.6721 65.4008 3.66621 65.4008Z" fill="#33E6BF"/>
<path d="M42.6666 13.2011V28.8011C42.6665 28.9188 42.6317 29.034 42.5667 29.1322C42.5016 29.2303 42.409 29.3071 42.3006 29.3531C28.8666 35.1191 29.6466 34.8011 29.4666 34.8011C29.2866 34.8011 30.1206 35.1371 16.6326 29.3531C16.5242 29.3071 16.4316 29.2303 16.3665 29.1322C16.3015 29.034 16.2667 28.9188 16.2666 28.8011V13.2011C16.2667 13.102 16.2913 13.0046 16.3382 12.9174C16.3851 12.8301 16.4529 12.7559 16.5354 12.7012C16.618 12.6466 16.7129 12.6132 16.8115 12.6041C16.9101 12.595 17.0094 12.6105 17.1006 12.6491L29.4666 17.9471L41.8326 12.6491C41.9238 12.6105 42.0231 12.595 42.1217 12.6041C42.2203 12.6132 42.3152 12.6466 42.3978 12.7012C42.4803 12.7559 42.5481 12.8301 42.595 12.9174C42.6419 13.0046 42.6665 13.102 42.6666 13.2011Z" fill="#2155DF"/>
<path d="M42.6663 13.2011V28.8011C42.6662 28.9188 42.6315 29.034 42.5664 29.1321C42.5013 29.2303 42.4088 29.3071 42.3003 29.3531C28.8663 35.1191 29.6463 34.8011 29.4663 34.8011V17.9471L41.8323 12.6491C41.9235 12.6105 42.0228 12.595 42.1214 12.6041C42.2201 12.6132 42.3149 12.6466 42.3975 12.7012C42.48 12.7559 42.5478 12.8301 42.5947 12.9174C42.6416 13.0046 42.6662 13.102 42.6663 13.2011Z" fill="#0439C7"/>
<path d="M29.4666 17.9471V34.8011C29.2866 34.8011 30.1206 35.1371 16.6326 29.3531C16.5242 29.3071 16.4316 29.2303 16.3665 29.1322C16.3015 29.034 16.2667 28.9188 16.2666 28.8011V13.2011C16.2667 13.102 16.2913 13.0046 16.3382 12.9174C16.3851 12.8301 16.4529 12.7559 16.5354 12.7012C16.618 12.6466 16.7129 12.6132 16.8115 12.6041C16.9101 12.595 17.0094 12.6105 17.1006 12.6491L29.4666 17.9471Z" fill="#2155DF"/>
<path d="M42.3004 13.7546L29.7004 19.1546C29.6264 19.186 29.5468 19.2021 29.4664 19.2021C29.386 19.2021 29.3065 19.186 29.2324 19.1546L16.6324 13.7546C16.5242 13.7085 16.4319 13.6316 16.367 13.5335C16.3022 13.4353 16.2676 13.3203 16.2676 13.2026C16.2676 13.085 16.3022 12.9699 16.367 12.8718C16.4319 12.7737 16.5242 12.6967 16.6324 12.6506L29.2324 7.25064C29.3065 7.21928 29.386 7.20312 29.4664 7.20312C29.5468 7.20312 29.6264 7.21928 29.7004 7.25064L42.3004 12.6506C42.4087 12.6967 42.5009 12.7737 42.5658 12.8718C42.6307 12.9699 42.6653 13.085 42.6653 13.2026C42.6653 13.3203 42.6307 13.4353 42.5658 13.5335C42.5009 13.6316 42.4087 13.7085 42.3004 13.7546Z" fill="#4879FD"/>
<path d="M29.4666 33.6034V49.2034C29.4665 49.3212 29.4317 49.4363 29.3667 49.5345C29.3016 49.6327 29.209 49.7095 29.1006 49.7554C15.6666 55.5214 16.4466 55.2034 16.2666 55.2034V38.3494L28.6326 33.0514C28.7238 33.0128 28.8231 32.9973 28.9217 33.0064C29.0203 33.0155 29.1152 33.0489 29.1978 33.1036C29.2803 33.1582 29.3481 33.2325 29.395 33.3197C29.4419 33.4069 29.4665 33.5044 29.4666 33.6034Z" fill="#0439C7"/>
<path d="M16.2674 38.3494V55.2034C16.0874 55.2034 16.8014 55.4854 5.40138 50.6014C4.47351 49.0263 3.69223 47.3694 3.06738 45.6514V33.6034C3.06746 33.5044 3.09206 33.4069 3.13897 33.3197C3.18588 33.2325 3.25364 33.1582 3.33623 33.1036C3.41881 33.0489 3.51363 33.0155 3.61225 33.0064C3.71086 32.9973 3.81019 33.0128 3.90138 33.0514L16.2674 38.3494Z" fill="#2155DF"/>
<path d="M29.1012 34.1531L16.5012 39.5531C16.4272 39.5844 16.3476 39.6006 16.2672 39.6006C16.1868 39.6006 16.1072 39.5844 16.0332 39.5531L3.43321 34.1531C3.32497 34.107 3.23268 34.0301 3.16781 33.9319C3.10294 33.8338 3.06836 33.7187 3.06836 33.6011C3.06836 33.4834 3.10294 33.3684 3.16781 33.2702C3.23268 33.1721 3.32497 33.0952 3.43321 33.0491L16.0332 27.6491C16.1072 27.6177 16.1868 27.6016 16.2672 27.6016C16.3476 27.6016 16.4272 27.6177 16.5012 27.6491L29.1012 33.0491C29.2094 33.0952 29.3017 33.1721 29.3666 33.2702C29.4315 33.3684 29.4661 33.4834 29.4661 33.6011C29.4661 33.7187 29.4315 33.8338 29.3666 33.9319C29.3017 34.0301 29.2094 34.107 29.1012 34.1531Z" fill="#4879FD"/>
<path d="M55.867 33.6034V49.2034C55.8669 49.3212 55.8321 49.4363 55.7671 49.5345C55.702 49.6327 55.6094 49.7095 55.501 49.7554C42.067 55.5214 42.847 55.2034 42.667 55.2034V38.3494L55.033 33.0514C55.1242 33.0128 55.2235 32.9973 55.3221 33.0064C55.4207 33.0155 55.5156 33.0489 55.5981 33.1036C55.6807 33.1582 55.7485 33.2325 55.7954 33.3197C55.8423 33.4069 55.8669 33.5044 55.867 33.6034Z" fill="#0439C7"/>
<path d="M42.6663 38.3494V55.2034C42.4863 55.2034 43.3203 55.5334 29.8323 49.7554C29.7239 49.7095 29.6313 49.6327 29.5662 49.5345C29.5012 49.4363 29.4664 49.3212 29.4663 49.2034V33.6034C29.4664 33.5044 29.491 33.4069 29.5379 33.3197C29.5848 33.2325 29.6526 33.1582 29.7352 33.1036C29.8177 33.0489 29.9126 33.0155 30.0112 33.0064C30.1098 32.9973 30.2091 33.0128 30.3003 33.0514L42.6663 38.3494Z" fill="#2155DF"/>
<path d="M55.5011 34.1531L42.9011 39.5531C42.8271 39.5844 42.7475 39.6006 42.6671 39.6006C42.5867 39.6006 42.5071 39.5844 42.4331 39.5531L29.8331 34.1531C29.7249 34.107 29.6326 34.0301 29.5677 33.9319C29.5028 33.8338 29.4683 33.7187 29.4683 33.6011C29.4683 33.4834 29.5028 33.3684 29.5677 33.2702C29.6326 33.1721 29.7249 33.0952 29.8331 33.0491L42.4331 27.6491C42.5071 27.6177 42.5867 27.6016 42.6671 27.6016C42.7475 27.6016 42.8271 27.6177 42.9011 27.6491L55.5011 33.0491C55.6093 33.0952 55.7016 33.1721 55.7665 33.2702C55.8314 33.3684 55.866 33.4834 55.866 33.6011C55.866 33.7187 55.8314 33.8338 55.7665 33.9319C55.7016 34.0301 55.6093 34.107 55.5011 34.1531Z" fill="#4879FD"/>
<path d="M48.6665 65.4023C55.2939 65.4023 60.6665 60.0298 60.6665 53.4023C60.6665 46.7749 55.2939 41.4023 48.6665 41.4023C42.0391 41.4023 36.6665 46.7749 36.6665 53.4023C36.6665 60.0298 42.0391 65.4023 48.6665 65.4023Z" fill="#15D7AC"/>
<path d="M48.4916 53.8847L41.9367 57.6788L40.9736 56.7157L46.7199 52.8545L48.4916 53.8847Z" fill="white"/>
<path d="M48.6398 54.1413L42.0765 57.921L42.429 59.2365L48.646 56.1907L48.6398 54.1413Z" fill="white"/>
<path d="M48.9004 54.1413L55.4636 57.921L55.1111 59.2365L48.8941 56.1907L48.9004 54.1413Z" fill="white"/>
<path d="M49.0485 53.8847L55.6034 57.6788L56.5665 56.7157L50.8202 52.8545L49.0485 53.8847Z" fill="white"/>
<path d="M48.9004 53.6043L48.892 46.0305L50.2076 45.678L50.6783 52.585L48.9004 53.6043Z" fill="white"/>
<path d="M48.604 53.6043L48.6124 46.0305L47.2968 45.678L46.8261 52.585L48.604 53.6043Z" fill="white"/>
<path d="M48.4916 53.8847L41.9367 57.6788L40.9736 56.7157L46.7199 52.8545L48.4916 53.8847Z" stroke="white" stroke-width="0.173792"/>
<path d="M48.6398 54.1413L42.0765 57.921L42.429 59.2365L48.646 56.1907L48.6398 54.1413Z" stroke="white" stroke-width="0.173792"/>
<path d="M48.9004 54.1413L55.4636 57.921L55.1111 59.2365L48.8941 56.1907L48.9004 54.1413Z" stroke="white" stroke-width="0.173792"/>
<path d="M49.0485 53.8847L55.6034 57.6788L56.5665 56.7157L50.8202 52.8545L49.0485 53.8847Z" stroke="white" stroke-width="0.173792"/>
<path d="M48.9004 53.6043L48.892 46.0305L50.2076 45.678L50.6783 52.585L48.9004 53.6043Z" stroke="white" stroke-width="0.173792"/>
<path d="M48.604 53.6043L48.6124 46.0305L47.2968 45.678L46.8261 52.585L48.604 53.6043Z" stroke="white" stroke-width="0.173792"/>
<path d="M47.4668 26.4016H46.8668V13.8016H47.4668C47.6259 13.8016 47.7785 13.7383 47.8911 13.6258C48.0036 13.5133 48.0668 13.3607 48.0668 13.2016C48.0668 13.0424 48.0036 12.8898 47.8911 12.7773C47.7785 12.6648 47.6259 12.6016 47.4668 12.6016H45.0668C44.9077 12.6016 44.7551 12.6648 44.6425 12.7773C44.53 12.8898 44.4668 13.0424 44.4668 13.2016C44.4668 13.3607 44.53 13.5133 44.6425 13.6258C44.7551 13.7383 44.9077 13.8016 45.0668 13.8016H45.6668V26.4016H45.0668C44.9077 26.4016 44.7551 26.4648 44.6425 26.5773C44.53 26.6898 44.4668 26.8424 44.4668 27.0016C44.4668 27.1607 44.53 27.3133 44.6425 27.4258C44.7551 27.5383 44.9077 27.6016 45.0668 27.6016H47.4668C47.6259 27.6016 47.7785 27.5383 47.8911 27.4258C48.0036 27.3133 48.0668 27.1607 48.0668 27.0016C48.0668 26.8424 48.0036 26.6898 47.8911 26.5773C47.7785 26.4648 47.6259 26.4016 47.4668 26.4016Z" fill="#8DACFF"/>
<path d="M16.2661 58.8004C16.0621 58.8004 16.2661 58.8844 12.3961 56.9344C12.2663 56.8563 12.1709 56.732 12.1289 56.5864C12.087 56.4408 12.1017 56.2848 12.17 56.1496C12.2384 56.0144 12.3554 55.91 12.4975 55.8575C12.6396 55.805 12.7963 55.8082 12.9361 55.8664L16.2661 57.5284L19.5961 55.8664C19.736 55.8082 19.8927 55.805 20.0348 55.8575C20.1769 55.91 20.2939 56.0144 20.3622 56.1496C20.4306 56.2848 20.4453 56.4408 20.4033 56.5864C20.3614 56.732 20.2659 56.8563 20.1361 56.9344C16.2661 58.8904 16.4701 58.8004 16.2661 58.8004Z" fill="#8DACFF"/>
<path d="M11.4666 28.2023C11.3322 28.2015 11.202 28.1557 11.0968 28.0721C10.9916 27.9885 10.9176 27.872 10.8864 27.7413C10.8553 27.6106 10.869 27.4733 10.9252 27.3512C10.9814 27.2292 11.077 27.1296 11.1966 27.0683L13.2666 26.0303V24.0023C13.2666 23.8432 13.3298 23.6906 13.4423 23.5781C13.5548 23.4656 13.7074 23.4023 13.8666 23.4023C14.0257 23.4023 14.1783 23.4656 14.2908 23.5781C14.4033 23.6906 14.4666 23.8432 14.4666 24.0023V26.4023C14.4662 26.5131 14.4352 26.6217 14.377 26.7159C14.3187 26.8102 14.2355 26.8865 14.1366 26.9363C11.5446 28.2323 11.6646 28.2023 11.4666 28.2023Z" fill="#8DACFF"/>
</g>
<defs>
<clipPath id="clip0_75_1407">
<rect width="66" height="66" fill="white" transform="translate(0.666504)"/>
</clipPath>
</defs>
</svg>
