<svg width="56" height="56" viewBox="0 0 56 56" fill="none" xmlns="http://www.w3.org/2000/svg">
<path d="M16.004 45.0644C15.7528 44.8775 15.5845 44.5997 15.5352 44.2905C15.4859 43.9812 15.5594 43.6649 15.74 43.409C15.9206 43.1532 16.194 42.978 16.502 42.921C16.8099 42.8639 17.128 42.9294 17.3883 43.1036C29.4571 51.6007 46.4531 43.0222 46.4531 28.0019C46.4525 25.1026 45.7687 22.2441 44.4571 19.6584C43.1455 17.0726 41.2431 14.8323 38.904 13.1191C36.5649 11.4058 33.8551 10.2679 30.9941 9.79746C28.1331 9.32706 25.2016 9.53744 22.4371 10.4115C19.6726 11.2857 17.153 12.7989 15.0825 14.8286C13.0121 16.8583 11.449 19.3473 10.5201 22.0938C9.59117 24.8404 9.32252 27.7672 9.73592 30.6369C10.1493 33.5067 11.2331 36.2386 12.8995 38.6113C13.0678 38.8718 13.1286 39.1873 13.0693 39.4917C13.01 39.796 12.8351 40.0656 12.5814 40.2438C12.3277 40.4221 12.0148 40.4951 11.7083 40.4477C11.4019 40.4003 11.1257 40.2361 10.9378 39.9895C9.05332 37.3082 7.82736 34.2205 7.35929 30.9768C6.89123 27.7331 7.19425 24.4248 8.24376 21.3201C9.29328 18.2155 11.0598 15.4018 13.3999 13.1075C15.7401 10.8131 18.5881 9.1026 21.7129 8.11465C24.8377 7.1267 28.1513 6.88913 31.3851 7.42122C34.6189 7.9533 37.6818 9.24005 40.3253 11.1771C42.9688 13.1142 45.1186 15.647 46.6003 18.5702C48.082 21.4934 48.8538 24.7247 48.8533 28.0019C48.8533 44.9341 29.689 54.7017 16.004 45.0644Z" fill="#33E6BF"/>
<path d="M28 56C22.4621 56 17.0486 54.3578 12.444 51.2812C7.83947 48.2045 4.25064 43.8315 2.13139 38.7151C0.0121319 33.5988 -0.542361 27.969 0.538025 22.5375C1.61841 17.106 4.28515 12.1169 8.20102 8.20102C12.1169 4.28515 17.106 1.61841 22.5375 0.538025C27.969 -0.542361 33.5988 0.0121319 38.7151 2.13139C43.8315 4.25064 48.2045 7.83947 51.2812 12.444C54.3578 17.0486 56 22.4621 56 28C55.9917 35.4235 53.039 42.5406 47.7898 47.7898C42.5406 53.039 35.4235 55.9917 28 56ZM28 2.40014C22.9368 2.40014 17.9874 3.90154 13.7775 6.71449C9.56761 9.52744 6.28641 13.5256 4.34881 18.2034C2.41122 22.8811 1.90426 28.0284 2.89203 32.9943C3.87981 37.9602 6.31796 42.5217 9.89817 46.1019C13.4784 49.6821 18.0398 52.1202 23.0057 53.108C27.9716 54.0958 33.1189 53.5888 37.7967 51.6512C42.4744 49.7136 46.4726 46.4324 49.2855 42.2225C52.0985 38.0127 53.5999 33.0632 53.5999 28C53.592 21.2129 50.8924 14.7061 46.0932 9.90686C41.294 5.10766 34.7871 2.40801 28 2.40014Z" fill="#33E6BF"/>
<path d="M30.6801 41.704C30.3618 41.7035 30.0567 41.5769 29.8317 41.3518C29.6067 41.1268 29.48 40.8217 29.4796 40.5035V38.7167C29.4796 38.5612 29.4178 38.4121 29.3079 38.3022C29.1979 38.1922 29.0488 38.1305 28.8933 38.1305H25.3198C25.1643 38.1305 25.0152 38.1922 24.9053 38.3022C24.7953 38.4121 24.7336 38.5612 24.7336 38.7167V40.5035C24.7379 40.6638 24.7101 40.8234 24.6517 40.9727C24.5933 41.1221 24.5056 41.2583 24.3938 41.3732C24.2819 41.4882 24.1481 41.5795 24.0004 41.6419C23.8526 41.7042 23.6939 41.7364 23.5335 41.7364C23.3731 41.7364 23.2144 41.7042 23.0666 41.6419C22.9189 41.5795 22.7851 41.4882 22.6732 41.3732C22.5614 41.2583 22.4737 41.1221 22.4153 40.9727C22.357 40.8234 22.3291 40.6638 22.3334 40.5035V38.7167C22.3332 38.5612 22.2713 38.412 22.1612 38.3021C22.0511 38.1922 21.9019 38.1305 21.7463 38.1305H19.9604C19.8001 38.1348 19.6406 38.107 19.4912 38.0486C19.3418 37.9902 19.2056 37.9025 19.0907 37.7907C18.9758 37.6788 18.8844 37.545 18.822 37.3973C18.7597 37.2495 18.7275 37.0908 18.7275 36.9304C18.7275 36.77 18.7597 36.6113 18.822 36.4635C18.8844 36.3158 18.9758 36.182 19.0907 36.0701C19.2056 35.9583 19.3418 35.8706 19.4912 35.8122C19.6406 35.7539 19.8001 35.726 19.9604 35.7303H21.7463C21.9019 35.7303 22.0511 35.6686 22.1612 35.5587C22.2713 35.4488 22.3332 35.2997 22.3334 35.1441V20.8501C22.3332 20.6945 22.2713 20.5454 22.1612 20.4355C22.0511 20.3256 21.9019 20.2638 21.7463 20.2638H19.9604C19.8001 20.2682 19.6406 20.2403 19.4912 20.182C19.3418 20.1236 19.2056 20.0359 19.0907 19.924C18.9758 19.8122 18.8844 19.6784 18.822 19.5307C18.7597 19.3829 18.7275 19.2242 18.7275 19.0638C18.7275 18.9034 18.7597 18.7446 18.822 18.5969C18.8844 18.4491 18.9758 18.3154 19.0907 18.2035C19.2056 18.0917 19.3418 18.004 19.4912 17.9456C19.6406 17.8872 19.8001 17.8594 19.9604 17.8637H21.7463C21.9019 17.8637 22.0511 17.802 22.1612 17.6921C22.2713 17.5821 22.3332 17.433 22.3334 17.2775V15.4907C22.3291 15.3304 22.357 15.1708 22.4153 15.0215C22.4737 14.8721 22.5614 14.7359 22.6732 14.621C22.7851 14.506 22.9189 14.4147 23.0666 14.3523C23.2144 14.2899 23.3731 14.2578 23.5335 14.2578C23.6939 14.2578 23.8526 14.2899 24.0004 14.3523C24.1481 14.4147 24.2819 14.506 24.3938 14.621C24.5056 14.7359 24.5933 14.8721 24.6517 15.0215C24.7101 15.1708 24.7379 15.3304 24.7336 15.4907V17.2775C24.7336 17.433 24.7953 17.5821 24.9053 17.692C25.0152 17.802 25.1643 17.8637 25.3198 17.8637H28.8933C29.0488 17.8637 29.1979 17.802 29.3079 17.692C29.4178 17.5821 29.4796 17.433 29.4796 17.2775V15.4907C29.4796 15.1723 29.6061 14.867 29.8312 14.6418C30.0563 14.4167 30.3617 14.2902 30.6801 14.2902C30.9985 14.2902 31.3038 14.4167 31.529 14.6418C31.7541 14.867 31.8806 15.1723 31.8806 15.4907V17.904C31.8806 18.0145 31.9118 18.1229 31.9706 18.2165C32.0295 18.3101 32.1135 18.3853 32.2131 18.4333C32.9636 18.7834 33.6273 19.2952 34.1567 19.932C34.6861 20.5688 35.068 21.3149 35.275 22.1167C35.482 22.9186 35.509 23.7563 35.354 24.5698C35.199 25.3833 34.866 26.1524 34.3787 26.822C34.3317 26.8871 34.2986 26.9612 34.2815 27.0397C34.2644 27.1182 34.2636 27.1993 34.2792 27.2781C34.2948 27.3569 34.3264 27.4317 34.3721 27.4977C34.4179 27.5637 34.4767 27.6196 34.5449 27.662C35.5322 28.2701 36.3079 29.1678 36.7666 30.2328C37.2252 31.2977 37.3444 32.4782 37.108 33.6133C36.8715 34.7485 36.2909 35.7832 35.4452 36.5765C34.5995 37.3697 33.5299 37.883 32.3819 38.0465C32.2426 38.0667 32.1151 38.1365 32.0231 38.243C31.931 38.3496 31.8804 38.4858 31.8806 38.6266V40.5035C31.8801 40.8217 31.7535 41.1268 31.5284 41.3518C31.3034 41.5769 30.9983 41.7035 30.6801 41.704ZM25.3198 29.1976C25.1643 29.1976 25.0152 29.2594 24.9053 29.3693C24.7953 29.4792 24.7336 29.6284 24.7336 29.7838V35.1441C24.7336 35.2996 24.7953 35.4487 24.9053 35.5586C25.0152 35.6686 25.1643 35.7303 25.3198 35.7303H31.5734C32.4397 35.7303 33.2706 35.3862 33.8831 34.7736C34.4957 34.1611 34.8398 33.3303 34.8398 32.464C34.8398 31.5977 34.4957 30.7669 33.8831 30.1543C33.2706 29.5417 32.4397 29.1976 31.5734 29.1976H25.3198ZM25.3198 20.2638C25.1643 20.2638 25.0152 20.3256 24.9053 20.4356C24.7953 20.5455 24.7336 20.6946 24.7336 20.8501V26.2103C24.7336 26.3658 24.7953 26.5149 24.9053 26.6249C25.0152 26.7348 25.1643 26.7966 25.3198 26.7966H29.7867C30.653 26.7966 31.4838 26.4525 32.0964 25.8399C32.7089 25.2273 33.0531 24.3965 33.0531 23.5302C33.0531 22.6639 32.7089 21.8331 32.0964 21.2205C31.4838 20.608 30.653 20.2638 29.7867 20.2638H25.3198Z" fill="#33E6BF"/>
</svg>
