<svg width="66" height="66" viewBox="0 0 66 66" fill="none" xmlns="http://www.w3.org/2000/svg">
<path d="M33.333 65.4023C49.9015 65.4023 63.333 51.9709 63.333 35.4023C63.333 18.8338 49.9015 5.40234 33.333 5.40234C16.7645 5.40234 3.33301 18.8338 3.33301 35.4023C3.33301 51.9709 16.7645 65.4023 33.333 65.4023Z" fill="#E7EFFF" fill-opacity="0.12"/>
<path d="M5.13301 4.20156C6.12712 4.20156 6.93301 3.39567 6.93301 2.40156C6.93301 1.40745 6.12712 0.601562 5.13301 0.601562C4.1389 0.601562 3.33301 1.40745 3.33301 2.40156C3.33301 3.39567 4.1389 4.20156 5.13301 4.20156Z" fill="#00C99F"/>
<path d="M63.9333 7.20156C64.9274 7.20156 65.7333 6.39567 65.7333 5.40156C65.7333 4.40745 64.9274 3.60156 63.9333 3.60156C62.9392 3.60156 62.1333 4.40745 62.1333 5.40156C62.1333 6.39567 62.9392 7.20156 63.9333 7.20156Z" fill="#81F8DE"/>
<path d="M61.5334 65.4008C62.5275 65.4008 63.3334 64.5949 63.3334 63.6008C63.3334 62.6067 62.5275 61.8008 61.5334 61.8008C60.5393 61.8008 59.7334 62.6067 59.7334 63.6008C59.7334 64.5949 60.5393 65.4008 61.5334 65.4008Z" fill="#00C99F"/>
<path d="M2.73311 60.0023C3.72722 60.0023 4.53311 59.1965 4.53311 58.2023C4.53311 57.2082 3.72722 56.4023 2.73311 56.4023C1.73899 56.4023 0.933105 57.2082 0.933105 58.2023C0.933105 59.1965 1.73899 60.0023 2.73311 60.0023Z" fill="#03FFCF"/>
<path d="M58.5331 36.0019C58.5331 38.8662 57.3952 41.6133 55.3699 43.6387C53.3445 45.664 50.5974 46.8019 47.7331 46.8019H18.9331C16.4722 46.8005 14.0855 45.9587 12.1683 44.4159C10.2511 42.8731 8.91823 40.7217 8.39046 38.3181C7.86269 35.9144 8.17164 33.4026 9.26616 31.1985C10.3607 28.9944 12.1751 27.2301 14.4091 26.1979C14.1384 25.4306 14.0672 24.607 14.2022 23.8046C14.3373 23.0021 14.674 22.2472 15.181 21.6107C15.6879 20.9742 16.3483 20.477 17.1002 20.1659C17.852 19.8547 18.6706 19.7398 19.4791 19.8319C25.2811 8.61191 41.3731 8.59391 47.1871 19.8319C47.9956 19.7398 48.8142 19.8547 49.566 20.1659C50.3179 20.477 50.9783 20.9742 51.4852 21.6107C51.9921 22.2472 52.3289 23.0021 52.464 23.8046C52.599 24.607 52.5278 25.4306 52.2571 26.1979C54.1303 27.062 55.7168 28.4446 56.829 30.182C57.9412 31.9194 58.5326 33.939 58.5331 36.0019Z" fill="#4E6AFF"/>
<path d="M45.9334 43.8008V62.6288C41.9843 64.4564 37.6849 65.4031 33.3334 65.4031C28.9819 65.4031 24.6825 64.4564 20.7334 62.6288V40.2008C20.7334 39.5643 20.9863 38.9538 21.4363 38.5037C21.8864 38.0536 22.4969 37.8008 23.1334 37.8008H39.9334L45.9334 43.8008Z" fill="#A5BCED"/>
<path d="M45.9331 43.8008H41.1331C40.8148 43.8008 40.5096 43.6744 40.2846 43.4493C40.0595 43.2243 39.9331 42.919 39.9331 42.6008V37.8008L45.9331 43.8008Z" fill="#7F96D1"/>
<path d="M43.5333 5.40164V10.9156C43.5349 13.9307 42.5869 16.8697 40.8239 19.3156C39.0608 21.7615 36.5722 23.59 33.7113 24.5416C33.4654 24.6198 33.2012 24.6198 32.9553 24.5416C30.0944 23.59 27.6058 21.7615 25.8427 19.3156C24.0797 16.8697 23.1317 13.9307 23.1333 10.9156V5.40164C23.1333 5.08338 23.2597 4.77816 23.4848 4.55311C23.7098 4.32807 24.015 4.20164 24.3333 4.20164C27.1443 4.20128 29.8623 3.19453 31.9953 1.36364L32.5533 0.889641C32.7707 0.703726 33.0473 0.601563 33.3333 0.601562C33.6193 0.601562 33.8959 0.703726 34.1133 0.889641L34.6713 1.36364C36.8043 3.19453 39.5223 4.20128 42.3333 4.20164C42.6516 4.20164 42.9568 4.32807 43.1818 4.55311C43.4069 4.77816 43.5333 5.08338 43.5333 5.40164Z" fill="#00C99F"/>
<path d="M17.9788 47.7568L15.5788 45.3568C15.354 45.1333 15.0498 45.0078 14.7328 45.0078C14.4158 45.0078 14.1116 45.1333 13.8868 45.3568L11.4868 47.7568C11.2902 47.9863 11.1875 48.2816 11.1991 48.5836C11.2108 48.8856 11.336 49.1721 11.5497 49.3858C11.7634 49.5996 12.0499 49.7248 12.3519 49.7364C12.6539 49.7481 12.9492 49.6454 13.1788 49.4488L13.5328 49.1008V51.6028C13.5328 51.921 13.6592 52.2262 13.8843 52.4513C14.1093 52.6763 14.4145 52.8028 14.7328 52.8028C15.0511 52.8028 15.3563 52.6763 15.5813 52.4513C15.8064 52.2262 15.9328 51.921 15.9328 51.6028V49.1008C16.3708 49.5328 16.5808 49.8028 17.1328 49.8028C17.3694 49.8018 17.6004 49.7309 17.7968 49.5989C17.9933 49.467 18.1463 49.28 18.2367 49.0613C18.3271 48.8427 18.3509 48.6022 18.305 48.37C18.2591 48.1379 18.1456 47.9246 17.9788 47.7568Z" fill="#00C99F"/>
<path d="M55.179 51.3544L52.779 48.9544C52.5542 48.7309 52.25 48.6055 51.933 48.6055C51.616 48.6055 51.3118 48.7309 51.087 48.9544L48.687 51.3544C48.4904 51.584 48.3877 51.8793 48.3993 52.1813C48.411 52.4833 48.5362 52.7698 48.7499 52.9835C48.9636 53.1972 49.2501 53.3224 49.5521 53.3341C49.8541 53.3457 50.1494 53.243 50.379 53.0464L50.733 52.6984V55.2004C50.733 55.5187 50.8594 55.8239 51.0845 56.0489C51.3095 56.274 51.6147 56.4004 51.933 56.4004C52.2512 56.4004 52.5565 56.274 52.7815 56.0489C53.0066 55.8239 53.133 55.5187 53.133 55.2004V52.6984C53.571 53.1304 53.781 53.4004 54.333 53.4004C54.5696 53.3994 54.8006 53.3285 54.997 53.1966C55.1934 53.0647 55.3465 52.8776 55.4369 52.659C55.5273 52.4403 55.551 52.1998 55.5052 51.9677C55.4593 51.7356 55.3458 51.5222 55.179 51.3544Z" fill="#00C99F"/>
<path d="M35.7334 49.8023H24.9334C24.6151 49.8023 24.3099 49.6759 24.0849 49.4509C23.8598 49.2258 23.7334 48.9206 23.7334 48.6023C23.7334 48.2841 23.8598 47.9789 24.0849 47.7538C24.3099 47.5288 24.6151 47.4023 24.9334 47.4023H35.7334C36.0517 47.4023 36.3569 47.5288 36.5819 47.7538C36.807 47.9789 36.9334 48.2841 36.9334 48.6023C36.9334 48.9206 36.807 49.2258 36.5819 49.4509C36.3569 49.6759 36.0517 49.8023 35.7334 49.8023Z" fill="white"/>
<path d="M42.3334 54.6031H24.9334C24.6151 54.6031 24.3099 54.4767 24.0849 54.2517C23.8598 54.0266 23.7334 53.7214 23.7334 53.4031C23.7334 53.0849 23.8598 52.7796 24.0849 52.5546C24.3099 52.3296 24.6151 52.2031 24.9334 52.2031H42.3334C42.6517 52.2031 42.9569 52.3296 43.1819 52.5546C43.407 52.7796 43.5334 53.0849 43.5334 53.4031C43.5334 53.7214 43.407 54.0266 43.1819 54.2517C42.9569 54.4767 42.6517 54.6031 42.3334 54.6031Z" fill="white"/>
<path d="M42.3334 59.4039H24.9334C24.6151 59.4039 24.3099 59.2775 24.0849 59.0524C23.8598 58.8274 23.7334 58.5222 23.7334 58.2039C23.7334 57.8856 23.8598 57.5804 24.0849 57.3554C24.3099 57.1303 24.6151 57.0039 24.9334 57.0039H42.3334C42.6517 57.0039 42.9569 57.1303 43.1819 57.3554C43.407 57.5804 43.5334 57.8856 43.5334 58.2039C43.5334 58.5222 43.407 58.8274 43.1819 59.0524C42.9569 59.2775 42.6517 59.4039 42.3334 59.4039Z" fill="white"/>
<path d="M30.8615 16.5755L27.8615 13.5755C27.5436 13.2343 27.3705 12.783 27.3787 12.3167C27.3869 11.8504 27.5758 11.4054 27.9056 11.0756C28.2354 10.7459 28.6803 10.5569 29.1467 10.5487C29.613 10.5405 30.0643 10.7136 30.4055 11.0315L32.1335 12.7595L36.2615 8.63154C36.6027 8.31359 37.054 8.14049 37.5204 8.14872C37.9867 8.15695 38.4316 8.34585 38.7614 8.67565C39.0912 9.00544 39.2801 9.45036 39.2883 9.91668C39.2966 10.383 39.1235 10.8343 38.8055 11.1755L33.4055 16.5755C33.068 16.9126 32.6105 17.102 32.1335 17.102C31.6565 17.102 31.199 16.9126 30.8615 16.5755Z" fill="white"/>
</svg>
