<svg width="56" height="56" viewBox="0 0 56 56" fill="none" xmlns="http://www.w3.org/2000/svg">
<g clip-path="url(#clip0_75_1522)">
<path d="M42.8099 24.0053C42.8086 23.9949 42.8079 23.9844 42.8063 23.9741C42.799 23.9229 42.7892 23.8718 42.7754 23.8214C42.7753 23.8209 42.775 23.8204 42.7749 23.8198C42.762 23.7726 42.7455 23.7261 42.7269 23.6802C42.7216 23.667 42.7158 23.6543 42.71 23.6414C42.6954 23.6082 42.679 23.5755 42.6613 23.5433C42.6535 23.5293 42.6461 23.5152 42.6377 23.5014C42.6333 23.4939 42.6297 23.4862 42.625 23.4787C42.6063 23.4489 42.5858 23.4209 42.565 23.3932C42.5611 23.388 42.5579 23.3825 42.554 23.3775C42.5223 23.3364 42.4881 23.2983 42.4522 23.2622C42.4455 23.2553 42.4382 23.249 42.4312 23.2424C42.4 23.2124 42.3677 23.1843 42.334 23.1578C42.3254 23.1511 42.317 23.1444 42.3082 23.1379C42.2631 23.1045 42.2166 23.0733 42.168 23.0463L23.5026 12.4364L34.2495 5.66906L52.2666 15.9101L44.6786 20.6882C44.0865 21.061 43.9087 21.8433 44.2816 22.4354C44.6543 23.0275 45.4365 23.2053 46.0287 22.8324L55.4075 16.9268C55.7846 16.6895 56.0092 16.2715 55.9991 15.826C55.9891 15.3806 55.7459 14.9734 55.3585 14.7532L34.8422 3.0913C34.4364 2.86046 33.9364 2.87186 33.5411 3.12057L20.3703 11.4142C20.3676 11.4159 20.3648 11.4176 20.3621 11.4193L13.7807 15.5636C13.7776 15.5655 13.7746 15.5674 13.7717 15.5693L0.591872 23.8687C0.214825 24.106 -0.00980665 24.524 0.000329026 24.9694C0.010338 25.4149 0.253468 25.8221 0.640904 26.0423L21.1573 37.7041C21.3516 37.8147 21.5675 37.8697 21.7833 37.8697C22.0181 37.8697 22.2525 37.8045 22.4583 37.6749L31.8371 31.7691C32.4293 31.3963 32.6071 30.614 32.2342 30.0219C31.8616 29.4297 31.0791 29.2519 30.4871 29.6249L21.75 35.1265L3.73292 24.8852L14.48 18.1177L33.696 29.0404V43.5068C33.696 43.9682 33.9467 44.393 34.3506 44.616C34.5416 44.7214 34.7524 44.7738 34.963 44.7738C35.1979 44.7738 35.4323 44.7085 35.638 44.5789L42.228 40.4292C42.5964 40.1973 42.8199 39.7925 42.8199 39.3571V24.1536C42.8199 24.1461 42.8186 24.139 42.8184 24.1316C42.8176 24.0895 42.8148 24.0474 42.8099 24.0053ZM36.2299 41.212V28.3034C36.2299 27.8477 35.9852 27.4272 35.589 27.202L16.9126 16.5861L21.0699 13.9681L39.0868 24.2094L37.5093 25.2027C36.9171 25.5754 36.7394 26.3577 37.1122 26.9498C37.353 27.3324 37.7646 27.5418 38.1856 27.5418C38.4162 27.5418 38.6498 27.4789 38.8594 27.3469L40.2858 26.4487V38.6579L36.2299 41.212Z" fill="#33E6BF"/>
<path d="M54.0588 19.8513L44.68 25.757C44.0878 26.1297 43.91 26.9121 44.2829 27.5041C44.5236 27.8868 44.9353 28.0962 45.3563 28.0962C45.5869 28.0962 45.8205 28.0332 46.03 27.9012L55.4088 21.9955C56.001 21.6228 56.1788 20.8404 55.8059 20.2484C55.4332 19.6562 54.6508 19.4783 54.0588 19.8513Z" fill="#33E6BF"/>
<path d="M30.4872 34.6932L21.7502 40.1949L1.89323 28.9079C1.28534 28.5623 0.511485 28.7746 0.165731 29.3833C-0.180022 29.9915 0.0327004 30.765 0.641095 31.1108L21.1575 42.7726C21.3518 42.8832 21.5677 42.9382 21.7835 42.9382C22.0183 42.9382 22.2526 42.873 22.4585 42.7434L31.8373 36.8376C32.4295 36.4648 32.6073 35.6825 32.2344 35.0904C31.8618 34.4981 31.0793 34.3202 30.4872 34.6932Z" fill="#33E6BF"/>
<path d="M54.0588 24.9178L44.68 30.8234C44.0878 31.1962 43.91 31.9785 44.2829 32.5706C44.5236 32.9532 44.9353 33.1626 45.3563 33.1626C45.5869 33.1626 45.8205 33.0997 46.03 32.9676L55.4088 27.062C56.001 26.6892 56.1788 25.9069 55.8059 25.3148C55.4332 24.7225 54.6508 24.5448 54.0588 24.9178Z" fill="#33E6BF"/>
<path d="M30.4872 39.7596L21.7502 45.2613L1.89323 33.9743C1.28534 33.6287 0.511485 33.841 0.165731 34.4497C-0.180022 35.058 0.0327004 35.8314 0.641095 36.1772L21.1575 47.839C21.3518 47.9497 21.5677 48.0046 21.7835 48.0046C22.0183 48.0046 22.2526 47.9394 22.4585 47.8098L31.8373 41.904C32.4295 41.5312 32.6073 40.7489 32.2344 40.1568C31.8618 39.5644 31.0793 39.3866 30.4872 39.7596Z" fill="#33E6BF"/>
<path d="M54.0588 29.9841L44.68 35.8898C44.0878 36.2625 43.91 37.0449 44.2829 37.6369C44.5236 38.0195 44.9353 38.2289 45.3563 38.2289C45.5869 38.2289 45.8205 38.166 46.03 38.034L55.4088 32.1283C56.001 31.7555 56.1788 30.9732 55.8059 30.3811C55.4332 29.789 54.6508 29.6112 54.0588 29.9841Z" fill="#33E6BF"/>
<path d="M30.4872 44.826L21.7502 50.3277L1.89323 39.0407C1.28534 38.6951 0.511485 38.9074 0.165731 39.5161C-0.180022 40.1244 0.0327004 40.8978 0.641095 41.2436L21.1575 52.9055C21.3518 53.0161 21.5677 53.071 21.7835 53.071C22.0183 53.071 22.2526 53.0058 22.4585 52.8762L31.8373 46.9704C32.4295 46.5976 32.6073 45.8153 32.2344 45.2232C31.8618 44.6309 31.0793 44.4531 30.4872 44.826Z" fill="#33E6BF"/>
<g clip-path="url(#clip1_75_1522)">
<path d="M42.0554 24.0053C42.0542 23.9949 42.0534 23.9844 42.0519 23.9741C42.0447 23.9229 42.0351 23.8718 42.0216 23.8214C42.0214 23.8209 42.0212 23.8204 42.0211 23.8198C42.0084 23.7726 41.9922 23.7261 41.9739 23.6802C41.9687 23.667 41.9629 23.6543 41.9573 23.6414C41.9429 23.6082 41.9268 23.5755 41.9094 23.5433C41.9018 23.5293 41.8945 23.5152 41.8863 23.5014C41.8819 23.4939 41.8784 23.4862 41.8738 23.4787C41.8554 23.4489 41.8352 23.4209 41.8148 23.3932C41.811 23.388 41.8079 23.3825 41.804 23.3775C41.7729 23.3364 41.7393 23.2983 41.7041 23.2622C41.6975 23.2553 41.6902 23.249 41.6834 23.2424C41.6528 23.2124 41.621 23.1843 41.5879 23.1578C41.5795 23.1511 41.5713 23.1444 41.5625 23.1379C41.5182 23.1045 41.4726 23.0733 41.4249 23.0463L23.0884 12.4364L33.6459 5.66906L51.3455 15.9101L43.8913 20.6882C43.3095 21.061 43.1349 21.8433 43.5012 22.4354C43.8674 23.0275 44.6358 23.2053 45.2175 22.8324L54.431 16.9268C54.8014 16.6895 55.0221 16.2715 55.0122 15.826C55.0023 15.3806 54.7635 14.9734 54.3829 14.7532L34.2282 3.0913C33.8295 2.86046 33.3383 2.87186 32.9499 3.12057L20.0113 11.4142C20.0086 11.4159 20.0059 11.4176 20.0033 11.4193L13.5378 15.5636C13.5348 15.5655 13.5318 15.5674 13.529 15.5693L0.581442 23.8687C0.211039 24.106 -0.00963382 24.524 0.000323227 24.9694C0.0101558 25.4149 0.249001 25.8221 0.629609 26.0423L20.7844 37.7041C20.9753 37.8147 21.1874 37.8697 21.3994 37.8697C21.63 37.8697 21.8603 37.8045 22.0625 37.6749L31.276 31.7691C31.8578 31.3963 32.0324 30.614 31.6661 30.0219C31.3001 29.4297 30.5314 29.2519 29.9498 29.6249L21.3667 35.1265L3.66713 24.8852L14.2248 18.1177L33.1022 29.0404V43.5068C33.1022 43.9682 33.3485 44.393 33.7453 44.616C33.9328 44.7214 34.1399 44.7738 34.3468 44.7738C34.5775 44.7738 34.8078 44.7085 35.0099 44.5789L41.4838 40.4292C41.8457 40.1973 42.0653 39.7925 42.0653 39.3571V24.1536C42.0653 24.1461 42.064 24.139 42.0638 24.1316C42.063 24.0895 42.0603 24.0474 42.0554 24.0053ZM35.5914 41.212V28.3034C35.5914 27.8477 35.351 27.4272 34.9618 27.202L16.6145 16.5861L20.6985 13.9681L38.3979 24.2094L36.8483 25.2027C36.2665 25.5754 36.0919 26.3577 36.4582 26.9498C36.6947 27.3324 37.099 27.5418 37.5126 27.5418C37.7392 27.5418 37.9687 27.4789 38.1745 27.3469L39.5759 26.4487V38.6579L35.5914 41.212Z" fill="#33E6BF"/>
<path d="M53.1057 19.8513L43.8922 25.757C43.3105 26.1297 43.1358 26.9121 43.5021 27.5041C43.7386 27.8868 44.143 28.0962 44.5566 28.0962C44.7831 28.0962 45.0126 28.0332 45.2185 27.9012L54.432 21.9955C55.0137 21.6228 55.1883 20.8404 54.8221 20.2484C54.4559 19.6562 53.6873 19.4783 53.1057 19.8513Z" fill="#33E6BF"/>
<path d="M29.9499 34.6932L21.3668 40.1949L1.85987 28.9079C1.26269 28.5623 0.50247 28.7746 0.16281 29.3833C-0.176849 29.9915 0.0321241 30.765 0.629796 31.1108L20.7846 42.7726C20.9755 42.8832 21.1876 42.9382 21.3996 42.9382C21.6302 42.9382 21.8605 42.873 22.0627 42.7434L31.2762 36.8376C31.858 36.4648 32.0326 35.6825 31.6663 35.0904C31.3003 34.4981 30.5316 34.3202 29.9499 34.6932Z" fill="#33E6BF"/>
<path d="M53.1057 24.9178L43.8922 30.8234C43.3105 31.1962 43.1358 31.9785 43.5021 32.5706C43.7386 32.9532 44.143 33.1626 44.5566 33.1626C44.7831 33.1626 45.0126 33.0997 45.2185 32.9676L54.432 27.062C55.0137 26.6892 55.1883 25.9069 54.8221 25.3148C54.4559 24.7225 53.6873 24.5448 53.1057 24.9178Z" fill="#33E6BF"/>
<path d="M29.9499 39.7596L21.3668 45.2613L1.85987 33.9743C1.26269 33.6287 0.50247 33.841 0.16281 34.4497C-0.176849 35.058 0.0321241 35.8314 0.629796 36.1772L20.7846 47.839C20.9755 47.9497 21.1876 48.0046 21.3996 48.0046C21.6302 48.0046 21.8605 47.9394 22.0627 47.8098L31.2762 41.904C31.858 41.5312 32.0326 40.7489 31.6663 40.1568C31.3003 39.5644 30.5316 39.3866 29.9499 39.7596Z" fill="#33E6BF"/>
<path d="M53.1057 29.9841L43.8922 35.8898C43.3105 36.2625 43.1358 37.0449 43.5021 37.6369C43.7386 38.0195 44.143 38.2289 44.5566 38.2289C44.7831 38.2289 45.0126 38.166 45.2185 38.034L54.432 32.1283C55.0137 31.7555 55.1883 30.9732 54.8221 30.3811C54.4559 29.789 53.6873 29.6112 53.1057 29.9841Z" fill="#33E6BF"/>
<path d="M29.9499 44.826L21.3668 50.3277L1.85987 39.0407C1.26269 38.6951 0.50247 38.9074 0.16281 39.5161C-0.176849 40.1244 0.0321241 40.8978 0.629796 41.2436L20.7846 52.9055C20.9755 53.0161 21.1876 53.071 21.3996 53.071C21.6302 53.071 21.8605 53.0058 22.0627 52.8762L31.2762 46.9704C31.858 46.5976 32.0326 45.8153 31.6663 45.2232C31.3003 44.6309 30.5316 44.4531 29.9499 44.826Z" fill="#33E6BF"/>
</g>
</g>
<defs>
<clipPath id="clip0_75_1522">
<rect width="56" height="56" fill="white"/>
</clipPath>
<clipPath id="clip1_75_1522">
<rect width="55.0131" height="56" fill="white"/>
</clipPath>
</defs>
</svg>
