<svg width="56" height="56" viewBox="0 0 56 56" fill="none" xmlns="http://www.w3.org/2000/svg">
<g clip-path="url(#clip0_75_1505)">
<path d="M46.6662 9.33333C46.6662 4.17858 42.4876 0 37.3328 0C32.1781 0 27.9995 4.17858 27.9995 9.33333C27.9995 14.4881 32.1781 18.6667 37.3328 18.6667C42.4853 18.6612 46.6607 14.4858 46.6662 9.33333ZM37.3328 16.8C33.209 16.8 29.8662 13.4572 29.8662 9.33333C29.8662 5.20944 33.209 1.86667 37.3328 1.86667C41.4567 1.86667 44.7995 5.20944 44.7995 9.33333C44.795 13.4549 41.4545 16.7954 37.3328 16.8Z" fill="#33E6BF"/>
<path d="M40.1334 4.83952V3.73438H38.2668V4.66771H36.4001V3.73438H34.5334V4.66771C34.018 4.66771 33.6001 5.08561 33.6001 5.60104V13.0677C33.6001 13.5831 34.018 14.001 34.5334 14.001V14.9344H36.4001V14.001H38.2668V14.9344H40.1334V13.8292C41.0162 13.5239 41.6861 12.7947 41.9153 11.8892C42.145 10.9837 41.903 10.0234 41.2723 9.33437C41.903 8.64531 42.145 7.68509 41.9153 6.77956C41.6861 5.87402 41.0162 5.14486 40.1334 4.83952ZM35.4668 6.53437H39.2001C39.7155 6.53437 40.1334 6.95228 40.1334 7.46771C40.1334 7.98314 39.7155 8.40104 39.2001 8.40104H35.4668V6.53437ZM39.2001 12.1344H35.4668V10.2677H39.2001C39.7155 10.2677 40.1334 10.6856 40.1334 11.201C40.1334 11.7165 39.7155 12.1344 39.2001 12.1344Z" fill="#33E6BF"/>
<path d="M36.3994 26.1328H38.2661V28.9328H36.3994V26.1328Z" fill="#33E6BF"/>
<path d="M41.0675 22.4018H42.0008V20.5352H41.0675C39.5927 20.5393 38.2078 21.2424 37.3341 22.4305C36.4605 21.2424 35.0756 20.5393 33.6008 20.5352H32.6675V22.4018H33.6008C35.1471 22.4018 36.4008 23.6555 36.4008 25.2018H38.2675C38.2675 23.6555 39.5212 22.4018 41.0675 22.4018Z" fill="#33E6BF"/>
<path d="M38.2668 39.6656C38.2668 40.439 37.6402 41.0656 36.8668 41.0656C36.0934 41.0656 35.4668 40.439 35.4668 39.6656C35.4668 38.8923 36.0934 38.2656 36.8668 38.2656C37.6402 38.2656 38.2668 38.8923 38.2668 39.6656Z" fill="#33E6BF"/>
<g clip-path="url(#clip1_75_1505)">
<path d="M45.8436 9.33333C45.8436 4.17858 41.7386 0 36.6747 0C31.6108 0 27.5059 4.17858 27.5059 9.33333C27.5059 14.4881 31.6108 18.6667 36.6747 18.6667C41.7364 18.6612 45.8382 14.4858 45.8436 9.33333ZM36.6747 16.8C32.6235 16.8 29.3396 13.4572 29.3396 9.33333C29.3396 5.20944 32.6235 1.86667 36.6747 1.86667C40.7259 1.86667 44.0098 5.20944 44.0098 9.33333C44.0053 13.4549 40.7237 16.7954 36.6747 16.8Z" fill="#33E6BF"/>
<path d="M39.426 4.83952V3.73438H37.5922V4.66771H35.7585V3.73438H33.9247V4.66771C33.4184 4.66771 33.0078 5.08561 33.0078 5.60104V13.0677C33.0078 13.5831 33.4184 14.001 33.9247 14.001V14.9344H35.7585V14.001H37.5922V14.9344H39.426V13.8292C40.2932 13.5239 40.9513 12.7947 41.1765 11.8892C41.4021 10.9837 41.1644 10.0234 40.5448 9.33437C41.1644 8.64531 41.4021 7.68509 41.1765 6.77956C40.9513 5.87402 40.2932 5.14486 39.426 4.83952ZM34.8416 6.53437H38.5091C39.0155 6.53437 39.426 6.95228 39.426 7.46771C39.426 7.98314 39.0155 8.40104 38.5091 8.40104H34.8416V6.53437ZM38.5091 12.1344H34.8416V10.2677H38.5091C39.0155 10.2677 39.426 10.6856 39.426 11.201C39.426 11.7165 39.0155 12.1344 38.5091 12.1344Z" fill="#33E6BF"/>
<path d="M6.41819 32.6659H7.35791C7.86336 45.6874 18.3722 55.9833 31.1741 55.9992H36.6754C36.7519 55.9988 36.8285 55.9887 36.9028 55.9691C42.7023 55.7654 48.0823 52.8406 51.474 48.0481C54.8662 43.2552 55.8888 37.1348 54.243 31.4705C54.1284 31.0727 53.7698 30.7992 53.3629 30.7992H35.4411C31.7333 30.8639 28.0944 31.8305 24.8284 33.6179C21.926 35.1259 18.4223 34.7463 15.8968 32.6499C19.3141 32.4818 22.0008 29.6148 22.0052 26.1326C22.0052 25.6171 21.5947 25.1992 21.0883 25.1992H16.5039C14.2475 25.2029 12.159 26.4124 11.0026 28.3848C9.84621 26.4124 7.7577 25.2029 5.50131 25.1992H0.916885C0.410539 25.1992 0 25.6171 0 26.1326C0.00402927 29.7392 2.87511 32.6618 6.41819 32.6659ZM53.1793 36.8659C53.2272 46.2462 45.8657 53.9266 36.6525 54.1093C36.5908 54.1107 36.5294 54.1184 36.469 54.1326H31.1741C22.0984 54.1212 13.9579 48.4482 10.6642 39.8395C14.4459 45.2755 20.5762 48.5139 27.1197 48.5326H31.6813L32.5503 48.5102C40.7664 48.3457 47.3306 41.4975 47.2912 33.1326C47.2912 32.9776 47.2728 32.8217 47.2684 32.6659H49.3139C50.0208 37.04 48.8214 41.5111 46.0287 44.9127C43.2359 48.3138 39.1265 50.309 34.7718 50.3769L33.8791 50.3992L33.9247 52.2659L34.8188 52.2436C39.6521 52.1674 44.2191 49.974 47.3498 46.2247C50.481 42.4755 51.8716 37.534 51.1669 32.6659H52.6631C53.0043 34.039 53.1775 35.4495 53.1793 36.8659ZM25.6647 35.279C28.6723 33.6275 32.0243 32.7315 35.4411 32.6659H45.4355C45.4409 32.8217 45.4583 32.9776 45.4583 33.1326C45.4946 40.4839 39.7242 46.5023 32.5037 46.6436L27.1197 46.6659C18.7697 46.6399 11.4852 40.8909 9.37971 32.6659H13.3221C16.3235 36.3792 21.4586 37.4665 25.6656 35.279H25.6647ZM16.5039 27.0659H20.0797C19.6414 29.2374 17.7646 30.7969 15.587 30.7992H12.0113C12.4496 28.6277 14.3263 27.0682 16.5039 27.0659ZM5.50131 27.0659C7.67891 27.0682 9.55566 28.6277 9.99395 30.7992H6.41819C4.24059 30.7969 2.36384 29.2374 1.92555 27.0659H5.50131Z" fill="#33E6BF"/>
<path d="M35.7578 26.1328H37.5916V28.9328H35.7578V26.1328Z" fill="#33E6BF"/>
<path d="M40.3438 22.4018H41.2606V20.5352H40.3438C38.895 20.5393 37.5345 21.2424 36.6762 22.4305C35.818 21.2424 34.4574 20.5393 33.0087 20.5352H32.0918V22.4018H33.0087C34.5277 22.4018 35.7593 23.6555 35.7593 25.2018H37.5931C37.5931 23.6555 38.8247 22.4018 40.3438 22.4018Z" fill="#33E6BF"/>
<path d="M37.5925 39.6656C37.5925 40.439 36.9769 41.0656 36.2171 41.0656C35.4574 41.0656 34.8418 40.439 34.8418 39.6656C34.8418 38.8923 35.4574 38.2656 36.2171 38.2656C36.9769 38.2656 37.5925 38.8923 37.5925 39.6656Z" fill="black"/>
</g>
</g>
<defs>
<clipPath id="clip0_75_1505">
<rect width="56" height="56" fill="white"/>
</clipPath>
<clipPath id="clip1_75_1505">
<rect width="55.0131" height="56" fill="white"/>
</clipPath>
</defs>
</svg>
