<svg width="56" height="56" viewBox="0 0 56 56" fill="none" xmlns="http://www.w3.org/2000/svg">
<g clip-path="url(#clip0_75_1544)">
<path d="M1.09375 52.3292H23.2535C23.8575 52.3292 24.3472 51.8395 24.3472 51.2355C24.3472 50.6314 23.8575 50.1417 23.2535 50.1417H2.1875V23.4341H8.74475H8.74519H19.7798V25.4051C19.7818 25.9912 19.8411 26.5811 19.9644 27.1545H8.41958C7.31358 27.1545 6.41375 28.0543 6.41375 29.1603V44.7369C6.41375 45.8429 7.31358 46.7428 8.41958 46.7428H47.8504C48.9564 46.7428 49.8562 45.8429 49.8562 44.7369V29.1603C49.8562 28.0543 48.9564 27.1545 47.8504 27.1545H36.1683C36.2915 26.5819 36.3532 25.9913 36.3532 25.4056V23.4341H47.2548H47.2552H53.8125V50.1417H32.9053C32.3013 50.1417 31.8115 50.6314 31.8115 51.2355C31.8115 51.8395 32.3013 52.3292 32.9053 52.3292H54.9062C55.5102 52.3292 56 51.8395 56 51.2355V22.3403C56 22.3295 55.9987 22.3191 55.9984 22.3084C55.998 22.298 55.9988 22.2876 55.9981 22.2771C55.9915 22.1624 55.8182 19.425 54.3108 15.7864C52.927 12.4462 50.101 7.66592 44.4959 3.86077C44.3147 3.73772 44.1007 3.67188 43.8816 3.67188H37.4968C37.0176 3.67188 36.5948 3.98403 36.4527 4.44166C36.3825 4.66795 36.3895 4.90377 36.4619 5.11727H19.5385C19.6109 4.90409 19.618 4.6685 19.548 4.44242C19.4063 3.98436 18.9827 3.67198 18.5032 3.67198H12.1184C11.8993 3.67198 11.6854 3.73783 11.5041 3.86087C5.89903 7.66603 3.073 12.4463 1.68919 15.7865C0.181672 19.425 0.00842187 22.1625 0.00185938 22.2771C0.0013125 22.2875 0.00196875 22.2979 0.00164062 22.3083C0.0013125 22.319 0 22.3295 0 22.3403V51.2355C0 51.8395 0.489672 52.3292 1.09375 52.3292ZM38.8758 7.30487C40.1412 8.4578 41.794 10.1808 43.1808 12.3496H12.8192C14.206 10.1808 15.8588 8.45769 17.1241 7.30487H38.8758ZM21.968 25.4314C21.968 25.4226 21.9673 25.4139 21.9673 25.4051V20.4643C21.9673 19.8259 22.4868 19.3065 23.1253 19.3065H33.0078C33.6381 19.3065 34.1654 19.8338 34.1654 20.464V25.4051C34.1654 28.7247 31.3855 31.5049 28.0665 31.5049C24.7121 31.5047 21.982 28.7826 21.968 25.4314ZM8.60125 44.5553V38.0996H47.6687V44.5553H8.60125ZM47.6687 29.342V35.9122H8.60125V29.342H20.7762C22.1795 31.9304 24.9211 33.6922 28.0666 33.6922C31.2121 33.6922 33.9536 31.9304 35.3569 29.342H47.6687ZM36.3532 21.2466V20.4642C36.3532 19.5419 35.9779 18.7054 35.3721 18.0996C34.7663 17.4938 33.9299 17.1185 33.0075 17.1185H23.1253C21.2805 17.1185 19.7798 18.6193 19.7798 20.4639V20.4642V21.2466H9.92863C10.1645 18.9571 10.6187 16.6292 11.6074 14.5371H44.3926C45.3806 16.628 45.8355 18.9577 46.0712 21.2466H36.3532ZM43.5418 5.85948C48.4833 9.3048 51.0052 13.5553 52.2548 16.5393C53.0778 18.5048 53.4727 20.193 53.658 21.2466H48.2719C48.0347 18.7271 47.5336 16.1356 46.4753 13.8201C45.0929 10.7955 42.9801 8.11031 40.5483 5.85959L43.5418 5.85948ZM12.4583 5.85948H15.4518C12.878 8.24156 10.5924 11.1483 9.26723 14.4195C8.39147 16.5812 7.9462 18.9318 7.72833 21.2465H2.34227C2.8362 18.4537 4.81873 11.1841 12.4583 5.85948Z" fill="#33E6BF"/>
<path d="M26.9062 27.2537V28.6995C26.9062 29.3036 27.3958 29.7932 27.9999 29.7932C28.6039 29.7932 29.0937 29.3036 29.0937 28.6995V27.2537C30.3913 26.8002 31.325 25.5646 31.325 24.1142C31.325 22.2807 29.8334 20.7891 27.9999 20.7891C26.1665 20.7891 24.6748 22.2807 24.6748 24.1142C24.6748 25.5646 25.6085 26.8003 26.9062 27.2537ZM27.9999 22.9766C28.6272 22.9766 29.1375 23.4869 29.1375 24.1142C29.1375 24.7414 28.6272 25.2518 27.9999 25.2518C27.3726 25.2518 26.8623 24.7414 26.8623 24.1142C26.8623 23.4869 27.3726 22.9766 27.9999 22.9766Z" fill="#33E6BF"/>
<path d="M27.7165 52.2455C28.1466 52.4247 28.6593 52.3022 28.9631 51.9491C29.2611 51.6026 29.3106 51.0941 29.086 50.6963C28.5844 49.8078 27.2061 50.0727 27.0531 51.0745C26.978 51.5652 27.26 52.0552 27.7165 52.2455Z" fill="#33E6BF"/>
<g clip-path="url(#clip1_75_1544)">
<path d="M1.07447 52.3292H22.8436C23.4371 52.3292 23.9181 51.8395 23.9181 51.2355C23.9181 50.6314 23.4371 50.1417 22.8436 50.1417H2.14895V23.4341H8.59064H8.59107H19.4312V25.4051C19.4332 25.9912 19.4914 26.5811 19.6126 27.1545H8.27119C7.18469 27.1545 6.30072 28.0543 6.30072 29.1603V44.7369C6.30072 45.8429 7.18469 46.7428 8.27119 46.7428H47.0071C48.0936 46.7428 48.9775 45.8429 48.9775 44.7369V29.1603C48.9775 28.0543 48.0936 27.1545 47.0071 27.1545H35.5309C35.6519 26.5819 35.7125 25.9913 35.7125 25.4056V23.4341H46.422H46.4224H52.8641V50.1417H32.3253C31.732 50.1417 31.2509 50.6314 31.2509 51.2355C31.2509 51.8395 31.732 52.3292 32.3253 52.3292H53.9386C54.5319 52.3292 55.0131 51.8395 55.0131 51.2355V22.3403C55.0131 22.3295 55.0118 22.3191 55.0115 22.3084C55.0111 22.298 55.0119 22.2876 55.0112 22.2771C55.0047 22.1624 54.8345 19.425 53.3537 15.7864C51.9942 12.4462 49.218 7.66592 43.7118 3.86077C43.5337 3.73772 43.3234 3.67188 43.1082 3.67188H36.836C36.3653 3.67188 35.9499 3.98403 35.8103 4.44166C35.7413 4.66795 35.7482 4.90377 35.8193 5.11727H19.1942C19.2653 4.90409 19.2723 4.6685 19.2035 4.44242C19.0643 3.98436 18.6481 3.67198 18.1771 3.67198H11.9049C11.6896 3.67198 11.4795 3.73783 11.3013 3.86087C5.79507 7.66603 3.01884 12.4463 1.65942 15.7865C0.17847 19.425 0.00827345 22.1625 0.00182661 22.2771C0.00128937 22.2875 0.00193405 22.2979 0.00161171 22.3083C0.00128937 22.319 0 22.3295 0 22.3403V51.2355C0 51.8395 0.481042 52.3292 1.07447 52.3292ZM38.1907 7.30487C39.4337 8.4578 41.0575 10.1808 42.4198 12.3496H12.5933C13.9556 10.1808 15.5793 8.45769 16.8223 7.30487H38.1907ZM21.5808 25.4314C21.5808 25.4226 21.5802 25.4139 21.5802 25.4051V20.4643C21.5802 19.8259 22.0905 19.3065 22.7177 19.3065H32.4261C33.0452 19.3065 33.5632 19.8338 33.5632 20.464V25.4051C33.5632 28.7247 30.8324 31.5049 27.5719 31.5049C24.2766 31.5047 21.5946 28.7826 21.5808 25.4314ZM8.44967 44.5553V38.0996H46.8286V44.5553H8.44967ZM46.8286 29.342V35.9122H8.44967V29.342H20.4101C21.7886 31.9304 24.4819 33.6922 27.572 33.6922C30.6621 33.6922 33.3552 31.9304 34.7338 29.342H46.8286ZM35.7125 21.2466V20.4642C35.7125 19.5419 35.3439 18.7054 34.7487 18.0996C34.1536 17.4938 33.3319 17.1185 32.4258 17.1185H22.7177C20.9055 17.1185 19.4312 18.6193 19.4312 20.4639V20.4642V21.2466H9.75365C9.98541 18.9571 10.4315 16.6292 11.4029 14.5371H43.6102C44.5808 16.628 45.0277 18.9577 45.2592 21.2466H35.7125ZM42.7744 5.85948C47.6289 9.3048 50.1063 13.5553 51.3339 16.5393C52.1424 18.5048 52.5303 20.193 52.7123 21.2466H47.4212C47.1881 18.7271 46.6959 16.1356 45.6562 13.8201C44.2982 10.7955 42.2226 8.11031 39.8337 5.85959L42.7744 5.85948ZM12.2387 5.85948H15.1795C12.6511 8.24156 10.4057 11.1483 9.10391 14.4195C8.24358 16.5812 7.80616 18.9318 7.59213 21.2465H2.30099C2.78622 18.4537 4.73381 11.1841 12.2387 5.85948Z" fill="#33E6BF"/>
<path d="M26.4323 27.2537V28.6995C26.4323 29.3036 26.9133 29.7932 27.5067 29.7932C28.1001 29.7932 28.5812 29.3036 28.5812 28.6995V27.2537C29.856 26.8002 30.7733 25.5646 30.7733 24.1142C30.7733 22.2807 29.3079 20.7891 27.5067 20.7891C25.7056 20.7891 24.2402 22.2807 24.2402 24.1142C24.2402 25.5646 25.1575 26.8003 26.4323 27.2537ZM27.5067 22.9766C28.123 22.9766 28.6243 23.4869 28.6243 24.1142C28.6243 24.7414 28.123 25.2518 27.5067 25.2518C26.8905 25.2518 26.3892 24.7414 26.3892 24.1142C26.3892 23.4869 26.8905 22.9766 27.5067 22.9766Z" fill="#33E6BF"/>
<path d="M27.2281 52.2455C27.6505 52.4247 28.1543 52.3022 28.4526 51.9491C28.7454 51.6026 28.794 51.0941 28.5734 50.6963C28.0807 49.8078 26.7266 50.0727 26.5763 51.0745C26.5026 51.5652 26.7796 52.0552 27.2281 52.2455Z" fill="#33E6BF"/>
</g>
</g>
<defs>
<clipPath id="clip0_75_1544">
<rect width="56" height="56" fill="white"/>
</clipPath>
<clipPath id="clip1_75_1544">
<rect width="55.0131" height="56" fill="white"/>
</clipPath>
</defs>
</svg>
