<svg width="119" height="130" viewBox="0 0 119 130" fill="none" xmlns="http://www.w3.org/2000/svg" >
<path opacity="0.4" d="M63.8032 122.718C56.3001 122.718 48.7984 121.07 43.0866 117.772C37.5307 114.564 34.4707 110.292 34.4707 105.743C34.4707 101.193 37.5307 96.9209 43.0862 93.7135C54.5094 87.1189 73.0956 87.1189 84.518 93.7139C90.0739 96.9218 93.1339 101.194 93.1339 105.744C93.1339 110.293 90.0739 114.565 84.5184 117.772C78.8079 121.069 71.3049 122.718 63.8032 122.718ZM63.8014 89.0032C56.3425 89.0032 48.8841 90.6421 43.2058 93.9206C37.7272 97.0839 34.7096 101.282 34.7096 105.743C34.7101 110.204 37.7272 114.402 43.2063 117.566C54.5628 124.123 73.0417 124.123 84.3983 117.566C89.877 114.403 92.8945 110.204 92.8945 105.744C92.8945 101.284 89.877 97.0852 84.3979 93.9219C78.72 90.6425 71.2607 89.0032 63.8014 89.0032Z" fill="#03FFCF"/>
<path opacity="0.2" d="M63.8027 127.266C54.2819 127.266 44.7638 125.175 37.5156 120.99C30.4714 116.923 26.5922 111.508 26.5918 105.744C26.5918 99.9795 30.4709 94.5657 37.5147 90.4989C52.0089 82.1307 75.5933 82.1303 90.0884 90.4993C97.1326 94.5661 101.012 99.9808 101.012 105.745C101.012 111.51 97.1331 116.923 90.0893 120.99C82.8429 125.174 73.3217 127.266 63.8027 127.266ZM63.8009 84.458C54.3243 84.458 44.8486 86.5407 37.6344 90.7056C30.6675 94.7278 26.8307 100.069 26.8307 105.744C26.8307 111.42 30.6679 116.76 37.6352 120.783C52.0641 129.114 75.5412 129.113 89.9692 120.783C96.9361 116.761 100.773 111.42 100.773 105.745C100.773 100.07 96.9361 94.7287 89.9683 90.706C82.7541 86.5411 73.2771 84.458 63.8009 84.458Z" fill="#03FFCF"/>
<path d="M63.8038 119.138C57.8901 119.139 51.9782 117.839 47.476 115.24C43.092 112.709 40.6777 109.336 40.6777 105.744C40.6777 102.152 43.0916 98.7794 47.4751 96.2489C56.4783 91.0507 71.1266 91.0516 80.1294 96.2489C84.5133 98.7798 86.9271 102.152 86.9271 105.745C86.9271 109.337 84.5133 112.709 80.1298 115.24C75.6298 117.839 69.7161 119.138 63.8038 119.138ZM63.802 92.5862C57.9325 92.5862 52.063 93.8761 47.5952 96.4561C43.2886 98.9423 40.9171 102.241 40.9171 105.744C40.9171 109.247 43.289 112.546 47.5961 115.033C56.5326 120.192 71.0741 120.193 80.0106 115.033C84.3172 112.546 86.6887 109.247 86.6887 105.745C86.6887 102.242 84.3167 98.9428 80.0097 96.4561C75.5414 93.8761 69.6715 92.5862 63.802 92.5862Z" fill="#03FFCF"/>
<path d="M89.5806 73.4665L89.4609 73.6738L90.2259 74.1154L90.3456 73.9081L89.5806 73.4665Z" fill="#03FFCF"/>
<path d="M88.0665 72.8744L86.6693 72.0676L86.7889 71.86L88.1862 72.6668L88.0665 72.8744ZM85.272 71.2612L83.8747 70.4543L83.9949 70.2468L85.3921 71.0536L85.272 71.2612ZM82.477 69.6475L81.0793 68.8407L81.1994 68.6331L82.5971 69.44L82.477 69.6475ZM79.682 68.0339L78.2848 67.227L78.4049 67.0195L79.8022 67.8263L79.682 68.0339ZM76.8875 66.4206L75.4902 65.6138L75.6099 65.4062L77.0072 66.2131L76.8875 66.4206Z" fill="#03FFCF"/>
<path d="M73.4381 64.1638L73.3184 64.3711L74.0828 64.8126L74.2025 64.6053L73.4381 64.1638Z" fill="#03FFCF"/>
<g opacity="0.3">
<path d="M118.53 95.5111V92.4185L117.674 91.9428C117.433 93.4024 115.715 94.3642 114.279 94.5638L104.498 100.283L100.23 101.824L86.6058 94.7935L86.9207 94.6115C85.7561 94.0675 85.129 92.8234 84.4993 91.6885L83.5821 92.2356L83.0371 92.3889V95.5606C83.0371 96.1664 83.4368 96.7723 84.2356 97.2338L97.8851 105.114C99.4833 106.037 102.083 106.037 103.682 105.114L117.331 97.2343C118.117 96.7803 118.516 96.1868 118.529 95.5906C118.53 95.5641 118.528 95.5376 118.527 95.5106L118.53 95.5111Z" fill="url(#paint0_linear_255_1325)"/>
<path opacity="0.3" d="M114.277 94.5648L104.497 100.284L100.781 101.626V105.807C101.831 105.807 102.881 105.577 103.68 105.115L117.329 97.2353C118.116 96.7813 118.515 96.1878 118.528 95.5916C118.528 95.5651 118.527 95.5386 118.526 95.5116L118.528 95.5125V92.4199L117.746 91.9854H117.664C117.397 93.421 115.699 94.367 114.277 94.5648Z" fill="#02122B"/>
<path d="M97.8852 101.973L84.2358 94.0924C82.6376 93.1699 82.6376 91.6684 84.2358 90.7459L97.8852 82.8657C99.4834 81.9432 102.084 81.9432 103.682 82.8657L117.332 90.7463C118.93 91.6689 118.93 93.1704 117.332 94.0929L103.682 101.973C102.084 102.896 99.4834 102.896 97.8852 101.973Z" fill="url(#paint1_linear_255_1325)"/>
<g opacity="0.3">
<path d="M97.8852 101.973L84.2358 94.0924C82.6376 93.1699 82.6376 91.6684 84.2358 90.7459L97.8852 82.8657C99.4834 81.9432 102.084 81.9432 103.682 82.8657L117.332 90.7463C118.93 91.6689 118.93 93.1704 117.332 94.0929L103.682 101.973C102.084 102.896 99.4834 102.896 97.8852 101.973Z" fill="#02122B"/>
</g>
</g>
<path d="M100.784 92.013C99.8525 92.013 98.9207 91.8081 98.2115 91.3983L84.5616 83.5173C83.8533 83.1079 83.4629 82.5559 83.4629 81.9628C83.4629 81.3697 83.8533 80.8177 84.5616 80.4083L98.2106 72.5281C99.6295 71.7094 101.937 71.7094 103.356 72.5281L117.006 80.4087C117.715 80.8181 118.104 81.3701 118.104 81.9632C118.104 82.5563 117.714 83.1083 117.006 83.5177L103.357 91.3983C102.647 91.8081 101.715 92.013 100.784 92.013ZM100.783 72.1501C99.8949 72.1501 99.0068 72.3453 98.3303 72.7357L84.6813 80.6158C84.0494 80.9806 83.7018 81.4589 83.7018 81.9632C83.7018 82.4675 84.0494 82.9458 84.6813 83.3106L98.3312 91.1916C99.6829 91.9724 101.884 91.9724 103.237 91.1916L116.886 83.311C117.518 82.9462 117.865 82.468 117.865 81.9637C117.865 81.4593 117.518 80.9811 116.886 80.6163L103.236 72.7357C102.56 72.3453 101.672 72.1501 100.783 72.1501Z" fill="#03FFCF"/>
<path opacity="0.4" d="M118.53 78.9377V74.2636L117.674 73.788C117.433 75.2476 115.715 76.2094 114.279 76.409L104.498 82.1283L100.23 83.6696L86.6058 76.6386L86.9207 76.4567C85.7561 75.9126 85.129 74.6686 84.4993 73.5332L83.5821 74.0804L83.0371 74.2336V78.9867C83.0371 79.5926 83.4368 80.1985 84.2356 80.66L97.8851 88.5406C99.4833 89.4631 102.083 89.4631 103.682 88.5406L117.331 80.6604C118.117 80.2064 118.516 79.6125 118.529 79.0167C118.53 78.9902 118.528 78.9637 118.527 78.9368L118.53 78.9377Z" fill="#03FFCF"/>
<path d="M118.53 74.784V71.6914L117.674 71.2157C117.433 72.6753 115.715 73.6371 114.279 73.8367L104.498 79.5561L100.23 81.0973L86.6058 74.0664L86.9207 73.8844C85.7561 73.3404 85.129 72.0963 84.4993 70.9609L83.5821 71.5081L83.0371 71.6613V74.833C83.0371 75.4389 83.4368 76.0448 84.2356 76.5063L97.8851 84.3869C99.4833 85.3094 102.083 85.3094 103.682 84.3869L117.331 76.5067C118.117 76.0528 118.516 75.4592 118.529 74.863C118.53 74.8365 118.528 74.81 118.527 74.7831L118.53 74.784Z" fill="url(#paint2_linear_255_1325)"/>
<path opacity="0.3" d="M114.279 73.8368L104.499 79.5561L100.783 80.8977V85.0794C101.833 85.0794 102.883 84.8488 103.682 84.3874L117.331 76.5072C118.117 76.0532 118.517 75.4597 118.529 74.8635C118.53 74.837 118.529 74.8105 118.528 74.7836L118.529 74.7845V71.6918L117.748 71.2568H117.666C117.399 72.693 115.701 73.6389 114.279 73.8368Z" fill="#02122B"/>
<path d="M97.8852 81.245L84.2358 73.3644C82.6376 72.4418 82.6376 70.9403 84.2358 70.0174L97.8852 62.1372C99.4834 61.2147 102.084 61.2147 103.682 62.1372L117.331 70.0178C118.929 70.9404 118.929 72.4418 117.331 73.3644L103.682 81.2445C102.084 82.1675 99.4834 82.1675 97.8852 81.245Z" fill="url(#paint3_linear_255_1325)"/>
<path d="M117.33 73.365L103.681 81.2451C102.083 82.1677 99.4826 82.1677 97.8844 81.2451L84.235 73.3645C83.5205 72.9521 83.1265 72.4239 83.0506 71.8838C82.957 72.5524 83.3509 73.2395 84.235 73.7501L97.8844 81.6307C99.4826 82.5532 102.083 82.5532 103.681 81.6307L117.33 73.7505C118.214 73.24 118.608 72.5528 118.514 71.8847C118.438 72.4248 118.045 72.9529 117.33 73.365Z" fill="white"/>
<path d="M37.9341 74.4343L37.8145 74.2272L54.7146 64.4697L54.8347 64.6764L37.9341 74.4343Z" fill="#03FFCF"/>
<g opacity="0.3">
<path d="M44.9769 95.5111V92.4185L44.1215 91.9428C43.8799 93.4024 42.1621 94.3642 40.7259 94.5638L30.9455 100.283L26.6773 101.824L13.0531 94.7935L13.3679 94.6115C12.2034 94.0675 11.5763 92.8234 10.9465 91.6885L10.0293 92.2356L9.48438 92.3889V95.5606C9.48438 96.1664 9.88403 96.7723 10.6829 97.2338L24.3323 105.114C25.9305 106.037 28.5308 106.037 30.129 105.114L43.7784 97.2343C44.5644 96.7803 44.9637 96.1868 44.9765 95.5906C44.9769 95.5641 44.976 95.5376 44.9747 95.5106L44.9769 95.5111Z" fill="url(#paint4_linear_255_1325)"/>
<path opacity="0.3" d="M40.7262 94.5648L30.9458 100.284L27.2305 101.626V105.807C28.2802 105.807 29.3299 105.577 30.1292 105.115L43.7786 97.2353C44.5647 96.7813 44.9639 96.1878 44.9767 95.5916C44.9772 95.5651 44.9763 95.5386 44.975 95.5116L44.9767 95.5125V92.4199L44.1951 91.9854H44.1134C43.8471 93.421 42.1486 94.367 40.7262 94.5648Z" fill="#02122B"/>
<path d="M24.3324 101.973L10.683 94.0924C9.08482 93.1699 9.08482 91.6684 10.683 90.7459L24.3324 82.8657C25.9306 81.9432 28.5309 81.9432 30.1291 82.8657L43.7789 90.7463C45.3771 91.6689 45.3771 93.1704 43.7789 94.0929L30.1295 101.973C28.5309 102.896 25.9306 102.896 24.3324 101.973Z" fill="url(#paint5_linear_255_1325)"/>
<g opacity="0.3">
<path d="M24.3324 101.973L10.683 94.0924C9.08482 93.1699 9.08482 91.6684 10.683 90.7459L24.3324 82.8657C25.9306 81.9432 28.5309 81.9432 30.1291 82.8657L43.7789 90.7463C45.3771 91.6689 45.3771 93.1704 43.7789 94.0929L30.1295 101.973C28.5309 102.896 25.9306 102.896 24.3324 101.973Z" fill="#02122B"/>
</g>
</g>
<path d="M27.2316 92.013C26.3002 92.013 25.368 91.8081 24.6588 91.3983L11.0093 83.5173C10.3005 83.1079 9.91016 82.5559 9.91016 81.9628C9.91016 81.3697 10.3005 80.8177 11.0093 80.4083L24.6583 72.5281C26.0772 71.7094 28.3851 71.7094 29.804 72.5281L43.4534 80.4087C44.1618 80.8181 44.5522 81.3701 44.5522 81.9632C44.5522 82.5563 44.1618 83.1083 43.4534 83.5177L29.8044 91.3983C29.0948 91.8081 28.163 92.013 27.2316 92.013ZM24.7784 91.1916C26.1311 91.9724 28.3321 91.9724 29.6843 91.1916L43.3333 83.311C43.9653 82.9462 44.3128 82.468 44.3128 81.9637C44.3128 81.4593 43.9653 80.9811 43.3333 80.6163L29.6839 72.7357C28.3312 71.9549 26.1302 71.9549 24.778 72.7357L11.1286 80.6158C10.4971 80.9806 10.1491 81.4589 10.1491 81.9632C10.1491 82.4675 10.4971 82.9458 11.1286 83.3106L24.7784 91.1916Z" fill="#03FFCF"/>
<path opacity="0.4" d="M44.9769 78.9377V74.2636L44.1215 73.788C43.8799 75.2476 42.1621 76.2094 40.7259 76.409L30.9455 82.1283L26.6773 83.6696L13.0531 76.6386L13.3679 76.4567C12.2034 75.9126 11.5763 74.6686 10.9465 73.5332L10.0293 74.0804L9.48438 74.2336V78.9867C9.48438 79.5926 9.88403 80.1985 10.6829 80.66L24.3323 88.5406C25.9305 89.4631 28.5308 89.4631 30.129 88.5406L43.7784 80.6604C44.5644 80.2064 44.9637 79.6125 44.9765 79.0167C44.9769 78.9902 44.976 78.9637 44.9747 78.9368L44.9769 78.9377Z" fill="#03FFCF"/>
<path d="M44.9769 74.784V71.6914L44.1215 71.2157C43.8799 72.6753 42.1621 73.6371 40.7259 73.8367L30.9455 79.5561L26.6773 81.0973L13.0531 74.0664L13.3679 73.8844C12.2034 73.3404 11.5763 72.0963 10.9465 70.9609L10.0293 71.5081L9.48438 71.6613V74.833C9.48438 75.4389 9.88403 76.0448 10.6829 76.5063L24.3323 84.3869C25.9305 85.3094 28.5308 85.3094 30.129 84.3869L43.7784 76.5067C44.5644 76.0528 44.9637 75.4592 44.9765 74.863C44.9769 74.8365 44.976 74.81 44.9747 74.7831L44.9769 74.784Z" fill="url(#paint6_linear_255_1325)"/>
<path opacity="0.3" d="M40.7262 73.8368L30.9458 79.5561L27.2305 80.8977V85.0794C28.2802 85.0794 29.3299 84.8488 30.1292 84.3874L43.7786 76.5072C44.5647 76.0532 44.9639 75.4597 44.9767 74.8635C44.9772 74.837 44.9763 74.8105 44.975 74.7836L44.9767 74.7845V71.6918L44.1951 71.2568H44.1134C43.8471 72.693 42.1486 73.6389 40.7262 73.8368Z" fill="#02122B"/>
<path d="M24.3324 81.245L10.683 73.3644C9.08482 72.4418 9.08482 70.9403 10.683 70.0174L24.3324 62.1372C25.9306 61.2147 28.5309 61.2147 30.1291 62.1372L43.7789 70.0178C45.3771 70.9404 45.3771 72.4418 43.7789 73.3644L30.1295 81.2445C28.5309 82.1675 25.9306 82.1675 24.3324 81.245Z" fill="url(#paint7_linear_255_1325)"/>
<path d="M24.3324 81.245L10.683 73.3644C9.08482 72.4418 9.08482 70.9403 10.683 70.0174L24.3324 62.1372C25.9306 61.2147 28.5309 61.2147 30.1291 62.1372L43.7789 70.0178C45.3771 70.9404 45.3771 72.4418 43.7789 73.3644L30.1295 81.2445C28.5309 82.1675 25.9306 82.1675 24.3324 81.245Z" fill="#08049A"/>
<g opacity="0.51">
<path d="M24.3324 81.245L10.683 73.3644C9.08482 72.4418 9.08482 70.9403 10.683 70.0174L24.3324 62.1372C25.9306 61.2147 28.5309 61.2147 30.1291 62.1372L43.7789 70.0178C45.3771 70.9404 45.3771 72.4418 43.7789 73.3644L30.1295 81.2445C28.5309 82.1675 25.9306 82.1675 24.3324 81.245Z" fill="#0439C7"/>
</g>
<path d="M43.7797 73.365L30.1303 81.2451C28.5321 82.1677 25.9318 82.1677 24.3336 81.2451L10.6842 73.3645C9.96969 72.9521 9.57577 72.4239 9.49981 71.8838C9.40619 72.5524 9.80011 73.2395 10.6842 73.7501L24.3336 81.6307C25.9318 82.5532 28.5321 82.5532 30.1303 81.6307L43.7797 73.7505C44.6633 73.24 45.0577 72.5528 44.9636 71.8847C44.8877 72.4248 44.4938 72.9529 43.7797 73.365Z" fill="white"/>
<path d="M74.9205 97.4427L74.8008 97.2356L75.5657 96.7939L75.6858 97.0011L74.9205 97.4427Z" fill="#03FFCF"/>
<path d="M77.083 96.1952L76.9629 95.9881L78.3602 95.1813L78.4803 95.3884L77.083 96.1952ZM79.8775 94.582L79.7579 94.3749L81.1551 93.5681L81.2748 93.7752L79.8775 94.582ZM82.6725 92.9679L82.5528 92.7608L83.9501 91.9544L84.0702 92.1615L82.6725 92.9679ZM85.4671 91.3547L85.3474 91.1476L86.7446 90.3408L86.8643 90.5479L85.4671 91.3547ZM88.2616 89.7415L88.1419 89.5344L89.5392 88.7275L89.6593 88.9347L88.2616 89.7415Z" fill="#03FFCF"/>
<path d="M91.0552 88.1278L90.9355 87.9211L91.7004 87.4795L91.8205 87.6862L91.0552 88.1278Z" fill="#03FFCF"/>
<g opacity="0.3">
<path d="M81.5492 119.704V116.612L80.6938 116.136C80.4522 117.596 78.7343 118.558 77.2982 118.757L67.5178 124.477L63.2496 126.018L49.6253 118.987L49.9402 118.805C48.7757 118.261 48.1486 117.017 47.5188 115.882L46.6016 116.429L46.0566 116.582V119.754C46.0566 120.36 46.4563 120.966 47.2552 121.427L60.905 129.308C62.5032 130.23 65.1035 130.23 66.7017 129.308L80.3511 121.428C81.1372 120.974 81.5364 120.38 81.5492 119.784C81.5496 119.757 81.5483 119.731 81.5474 119.704L81.5492 119.704Z" fill="url(#paint8_linear_255_1325)"/>
<path opacity="0.3" d="M77.3004 118.757L67.52 124.477L63.8047 125.818V130C64.8544 130 65.9041 129.769 66.7034 129.308L80.3529 121.428C81.1389 120.974 81.5382 120.38 81.551 119.784C81.5514 119.757 81.5501 119.731 81.5492 119.704L81.551 119.705V116.612L80.7693 116.178H80.6876C80.4209 117.613 78.7229 118.559 77.3004 118.757Z" fill="#02122B"/>
<path d="M60.9051 126.167L47.2553 118.286C45.6571 117.363 45.6571 115.862 47.2553 114.939L60.9043 107.059C62.5025 106.137 65.1027 106.137 66.7009 107.059L80.3507 114.94C81.949 115.862 81.949 117.364 80.3507 118.286L66.7013 126.167C65.1036 127.089 62.5034 127.089 60.9051 126.167Z" fill="url(#paint9_linear_255_1325)"/>
<g opacity="0.3">
<path d="M60.9051 126.167L47.2553 118.286C45.6571 117.363 45.6571 115.862 47.2553 114.939L60.9043 107.059C62.5025 106.137 65.1027 106.137 66.7009 107.059L80.3507 114.94C81.949 115.862 81.949 117.364 80.3507 118.286L66.7013 126.167C65.1036 127.089 62.5034 127.089 60.9051 126.167Z" fill="#02122B"/>
</g>
</g>
<path d="M63.8034 114.702C62.872 114.702 61.9403 114.497 61.231 114.087L47.5812 106.207C46.8728 105.797 46.4824 105.245 46.4824 104.652C46.4824 104.059 46.8728 103.507 47.5812 103.098L61.2306 95.2169C62.6495 94.3977 64.9574 94.3977 66.3758 95.2169L80.0252 103.098C80.7336 103.507 81.124 104.059 81.124 104.652C81.124 105.245 80.7336 105.797 80.0257 106.206L66.3763 114.087C65.667 114.497 64.7352 114.702 63.8034 114.702ZM63.803 94.8394C62.9145 94.8394 62.0268 95.0346 61.3502 95.4249L47.7008 103.306C47.0689 103.67 46.7213 104.149 46.7213 104.653C46.7213 105.157 47.0689 105.635 47.7008 106L61.3507 113.881C62.7025 114.662 64.9044 114.662 66.2561 113.881L79.9056 106C80.5371 105.636 80.8851 105.158 80.8851 104.653C80.8851 104.149 80.5371 103.67 79.9051 103.306L66.2557 95.4249C65.58 95.0346 64.6915 94.8394 63.803 94.8394Z" fill="#03FFCF"/>
<path opacity="0.4" d="M81.5492 101.628V96.9536L80.6938 96.478C80.4522 97.9375 78.7343 98.8994 77.2982 99.099L67.5178 104.818L63.2496 106.36L49.6253 99.3286L49.9402 99.1467C48.7757 98.6031 48.1486 97.3586 47.5188 96.2236L46.6016 96.7708L46.0566 96.924V101.677C46.0566 102.283 46.4563 102.889 47.2552 103.35L60.9046 111.231C62.5028 112.154 65.103 112.154 66.7012 111.231L80.3506 103.35C81.1367 102.896 81.5359 102.303 81.5487 101.707C81.5492 101.68 81.5483 101.654 81.547 101.627L81.5492 101.628Z" fill="#03FFCF"/>
<path d="M81.5492 97.4734V94.3808L80.6938 93.9052C80.4522 95.3647 78.7343 96.3266 77.2982 96.5262L67.5178 102.246L63.2496 103.787L49.6253 96.7558L49.9402 96.5739C48.7757 96.0298 48.1486 94.7858 47.5188 93.6504L46.6016 94.1975L46.0566 94.3508V97.5225C46.0566 98.1284 46.4563 98.7343 47.2552 99.1957L60.9046 107.076C62.5028 107.999 65.103 107.999 66.7012 107.076L80.3506 99.1962C81.1367 98.7422 81.5359 98.1487 81.5487 97.5525C81.5492 97.526 81.5483 97.4991 81.547 97.4726L81.5492 97.4734Z" fill="url(#paint10_linear_255_1325)"/>
<path opacity="0.3" d="M77.2985 96.5262L67.518 102.246L63.8027 103.587V107.769C64.8525 107.769 65.9022 107.538 66.7015 107.077L80.3509 99.1966C81.137 98.7427 81.5362 98.1491 81.549 97.553C81.5494 97.5265 81.5486 97.4995 81.5472 97.473L81.549 97.4739V94.3813L80.7674 93.9463H80.6857C80.4189 95.3824 78.7209 96.3279 77.2985 96.5262Z" fill="#02122B"/>
<path d="M60.9047 103.935L47.2553 96.0548C45.6571 95.1323 45.6571 93.6308 47.2553 92.7078L60.9043 84.8276C62.5025 83.9051 65.1027 83.9051 66.7009 84.8276L80.3508 92.7082C81.949 93.6308 81.949 95.1323 80.3508 96.0548L66.7013 103.935C65.1031 104.858 62.5029 104.858 60.9047 103.935Z" fill="url(#paint11_linear_255_1325)"/>
<path d="M63.803 102.504C62.9617 102.504 62.12 102.319 61.4787 101.949L50.8146 95.7919C50.1725 95.421 49.8188 94.9202 49.8184 94.3814C49.8184 93.8422 50.1725 93.3414 50.8146 92.9704L61.4783 86.8139C62.7594 86.0742 64.8447 86.0733 66.1267 86.8139L76.7904 92.9709C77.4329 93.3414 77.7867 93.8426 77.7867 94.3814C77.7871 94.9206 77.4329 95.4214 76.7908 95.7924L66.1272 101.949C65.4868 102.319 64.6451 102.504 63.803 102.504ZM61.5989 101.742C62.8137 102.444 64.7922 102.444 66.0075 101.742L76.6716 95.5857C77.2369 95.2593 77.5482 94.8314 77.5482 94.3814C77.5482 93.9314 77.2364 93.5044 76.6712 93.1776L66.0075 87.0206C64.7917 86.3193 62.8137 86.3197 61.5989 87.0206L50.9352 93.1771C50.3699 93.5035 50.0586 93.9314 50.0586 94.3814C50.0586 94.831 50.3699 95.2584 50.9352 95.5848L61.5989 101.742Z" fill="#2155DF"/>
<path d="M80.35 96.0554L66.7006 103.936C65.1024 104.858 62.5021 104.858 60.9039 103.936L47.2545 96.0549C46.54 95.6425 46.1461 95.1143 46.0701 94.5742C45.9765 95.2428 46.3704 95.93 47.2545 96.4405L60.9039 104.321C62.5021 105.244 65.1024 105.244 66.7006 104.321L80.35 96.4405C81.2337 95.9304 81.628 95.2428 81.534 94.5747C81.4584 95.1152 81.0645 95.6429 80.35 96.0554Z" fill="white"/>
<g opacity="0.3">
<path d="M81.5492 71.9955V68.9028L80.6938 68.4272C80.4522 69.8868 78.7343 70.8486 77.2982 71.0482L67.5178 76.7675L63.2496 78.3088L49.6253 71.2778L49.9402 71.0959C48.7757 70.5518 48.1486 69.3078 47.5188 68.1729L46.6016 68.72L46.0566 68.8733V72.0449C46.0566 72.6508 46.4563 73.2567 47.2552 73.7182L60.9046 81.5988C62.5028 82.5213 65.103 82.5213 66.7012 81.5988L80.3506 73.7186C81.1367 73.2647 81.5359 72.6711 81.5487 72.075C81.5492 72.0485 81.5483 72.022 81.547 71.995L81.5492 71.9955Z" fill="url(#paint12_linear_255_1325)"/>
<path opacity="0.3" d="M77.3004 71.0472L67.52 76.7666L63.8047 78.1082V82.2899C64.8544 82.2899 65.9041 82.0593 66.7034 81.5978L80.3529 73.7177C81.1389 73.2637 81.5382 72.6702 81.551 72.074C81.5514 72.0475 81.5505 72.021 81.5492 71.9941L81.551 71.9949V68.9023L80.7693 68.4678H80.6876C80.4209 69.9035 78.7229 70.849 77.3004 71.0472Z" fill="#02122B"/>
<path d="M60.9051 78.4549L47.2553 70.5743C45.6571 69.6518 45.6571 68.1503 47.2553 67.2273L60.9043 59.3472C62.5025 58.4246 65.1027 58.4246 66.7009 59.3472L80.3507 67.2278C81.949 68.1503 81.949 69.6518 80.3507 70.5743L66.7013 78.4545C65.1036 79.3775 62.5034 79.3775 60.9051 78.4549Z" fill="url(#paint13_linear_255_1325)"/>
<g opacity="0.3">
<path d="M60.9051 78.4549L47.2553 70.5743C45.6571 69.6518 45.6571 68.1503 47.2553 67.2273L60.9043 59.3472C62.5025 58.4246 65.1027 58.4246 66.7009 59.3472L80.3507 67.2278C81.949 68.1503 81.949 69.6518 80.3507 70.5743L66.7013 78.4545C65.1036 79.3775 62.5034 79.3775 60.9051 78.4549Z" fill="#02122B"/>
</g>
</g>
<path d="M63.8034 69.0137C62.872 69.0137 61.9403 68.8093 61.231 68.3995L47.5812 60.5188C46.8728 60.1099 46.4824 59.5579 46.4824 58.9644C46.4824 58.3713 46.8728 57.8193 47.5812 57.4099L61.2306 49.5293C62.6495 48.7105 64.9574 48.7101 66.3758 49.5293L80.0252 57.4099C80.7336 57.8188 81.124 58.3713 81.124 58.9644C81.124 59.5574 80.7336 60.1095 80.0257 60.5184L66.3763 68.399C65.667 68.8088 64.7352 69.0137 63.8034 69.0137ZM63.803 49.1512C62.9145 49.1512 62.0268 49.3464 61.3502 49.7368L47.7008 57.6174C47.0689 57.9822 46.7213 58.4605 46.7213 58.9648C46.7213 59.4691 47.0689 59.9474 47.7008 60.3122L61.3507 68.1928C62.7025 68.9735 64.9044 68.9735 66.2561 68.1928L79.9056 60.3122C80.5371 59.9474 80.8851 59.4691 80.8851 58.9652C80.8851 58.4614 80.5371 57.9822 79.9051 57.6179L66.2557 49.7373C65.58 49.3464 64.6915 49.1512 63.803 49.1512Z" fill="#03FFCF"/>
<path opacity="0.4" d="M81.5492 55.9402V51.2661L80.6938 50.7905C80.4522 52.25 78.7343 53.2119 77.2982 53.4115L67.5178 59.1308L63.2496 60.6721L49.6253 53.6411L49.9402 53.4592C48.7757 52.9156 48.1486 51.6711 47.5188 50.5361L46.6016 51.0833L46.0566 51.2365V55.9896C46.0566 56.5955 46.4563 57.2014 47.2552 57.6629L60.9046 65.5435C62.5028 66.466 65.103 66.466 66.7012 65.5435L80.3506 57.6633C81.1367 57.2094 81.5359 56.6158 81.5487 56.0197C81.5492 55.9932 81.5483 55.9667 81.547 55.9397L81.5492 55.9402Z" fill="#03FFCF"/>
<path d="M81.5492 51.7865V48.6939L80.6938 48.2182C80.4522 49.6778 78.7343 50.6396 77.2982 50.8392L67.5178 56.5586L63.2496 58.0998L49.6253 51.0689L49.9402 50.8869C48.7757 50.3428 48.1486 49.0988 47.5188 47.9639L46.6016 48.511L46.0566 48.6643V51.8359C46.0566 52.4418 46.4563 53.0477 47.2552 53.5092L60.9046 61.3898C62.5028 62.3124 65.103 62.3124 66.7012 61.3898L80.3506 53.5097C81.1367 53.0557 81.5359 52.4621 81.5487 51.866C81.5492 51.8395 81.5483 51.8125 81.547 51.786L81.5492 51.7865Z" fill="url(#paint14_linear_255_1325)"/>
<path opacity="0.3" d="M77.2985 50.8383L67.518 56.5576L63.8027 57.8992V62.0809C64.8525 62.0809 65.9022 61.8503 66.7015 61.3889L80.3509 53.5087C81.137 53.0547 81.5362 52.4612 81.549 51.865C81.5494 51.8385 81.5486 51.8116 81.5472 51.7851L81.549 51.786V48.6933L80.7674 48.2588H80.6857C80.4189 49.6945 78.7209 50.6404 77.2985 50.8383Z" fill="#02122B"/>
<path d="M49.939 50.8874L62.8734 43.4197C63.3852 43.1242 64.2177 43.1242 64.7295 43.4197L77.4383 50.7571L77.2974 50.8397C78.7335 50.6396 80.4514 49.6782 80.693 48.2187L66.4301 40.286L62.2803 39.1895L58.9011 41.1754L47.5176 47.9648C48.1473 49.0993 48.7744 50.3433 49.939 50.8874Z" fill="url(#paint15_linear_255_1325)"/>
<path opacity="0.3" d="M63.8017 39.5908L62.2803 39.1885L58.9011 41.1744L47.5176 47.9638C48.1473 49.0987 48.7744 50.3432 49.939 50.8868L62.8734 43.4191C63.1295 43.2712 63.4656 43.1975 63.8017 43.1975V39.5908Z" fill="#02122B"/>
<path d="M60.9047 58.2479L47.2553 50.3673C45.6571 49.4448 45.6571 47.9433 47.2553 47.0207L60.9043 39.1401C62.5025 38.2176 65.1027 38.2176 66.7009 39.1401L80.3508 47.0207C81.949 47.9433 81.949 49.4448 80.3508 50.3673L66.7013 58.2475C65.1031 59.1709 62.5029 59.1709 60.9047 58.2479ZM64.7304 40.2777C64.2186 39.9823 63.3861 39.9823 62.8743 40.2777L49.2253 48.1579C48.7135 48.4533 48.7135 48.9343 49.2253 49.2297L62.8748 57.1103C63.3866 57.4058 64.219 57.4058 64.7309 57.1103L78.3803 49.2297C78.8921 48.9343 78.8921 48.4538 78.3803 48.1583L64.7304 40.2777Z" fill="url(#paint16_linear_255_1325)"/>
<path d="M78.3793 48.1569L64.7295 40.2763C64.2177 39.9808 63.3852 39.9808 62.8734 40.2763L49.2244 48.1564C48.883 48.3534 48.7709 48.6329 48.8848 48.8851C48.9418 48.7592 49.0539 48.6404 49.2244 48.542L62.8734 40.6618C63.3852 40.3664 64.2177 40.3664 64.7295 40.6618L78.3793 48.5424C78.5498 48.6409 78.662 48.7597 78.719 48.8855C78.8329 48.6334 78.7207 48.3543 78.3793 48.1569Z" fill="white"/>
<path d="M80.35 50.3669L66.7006 58.2471C65.1024 59.1696 62.5021 59.1696 60.9039 58.2471L47.2545 50.3665C46.54 49.954 46.1461 49.4258 46.0701 48.8857C45.9765 49.5543 46.3704 50.2415 47.2545 50.752L60.9039 58.6326C62.5021 59.5551 65.1024 59.5551 66.7006 58.6326L80.35 50.752C81.2337 50.2419 81.628 49.5543 81.534 48.8862C81.4584 49.4263 81.0645 49.9545 80.35 50.3669Z" fill="white"/>
<path d="M61.2903 58.0251L47.6409 50.1445C46.2551 49.3443 46.2551 48.0429 47.6409 47.2427L61.2903 39.3625C62.6757 38.5628 64.9305 38.5628 66.3159 39.3625L79.9657 47.2431C81.3511 48.0429 81.3511 49.3448 79.9657 50.1445L66.3163 58.0247C64.9301 58.8253 62.6757 58.8253 61.2903 58.0251ZM65.116 40.055C64.3918 39.6368 63.2131 39.6368 62.4889 40.055L48.8394 47.9356C48.1152 48.3538 48.1152 49.0343 48.8394 49.4525L62.4893 57.3331C63.2135 57.7513 64.3922 57.7513 65.1165 57.3331L78.7659 49.4525C79.4901 49.0343 79.4901 48.3542 78.7659 47.9356L65.116 40.055Z" fill="url(#paint17_linear_255_1325)"/>
<path opacity="0.4" d="M64.7308 40.2763C64.2189 39.9808 63.3865 39.9808 62.8747 40.2763L49.2257 48.1564C48.7138 48.4519 48.7138 48.9328 49.2257 49.2282L62.8751 57.1088C63.3869 57.4043 64.2194 57.4043 64.7312 57.1088L78.3806 49.2282C78.8924 48.9328 78.8924 48.4523 78.3806 48.1569L64.7308 40.2763Z" fill="#03FFCF"/>
<path opacity="0.5" d="M78.7625 48.6822V0H48.8418L48.8436 48.6818C48.8387 48.8792 48.965 49.0779 49.2256 49.2281L62.875 57.1087C63.3868 57.4041 64.2193 57.4041 64.7311 57.1087L78.3805 49.2281C78.641 49.0779 78.7673 48.8796 78.7625 48.6822Z" fill="url(#paint18_linear_255_1325)"/>
<g opacity="0.2">
<mask id="mask0_255_1325" style="mask-type:luminance" maskUnits="userSpaceOnUse" x="9" y="61" width="36" height="21">
<path d="M24.3344 81.245L10.685 73.3644C9.08678 72.4418 9.08678 70.9403 10.685 70.0174L24.3344 62.1372C25.9326 61.2147 28.5328 61.2147 30.131 62.1372L43.7809 70.0178C45.3791 70.9404 45.3791 72.4418 43.7809 73.3644L30.1315 81.2445C28.5328 82.1675 25.9326 82.1675 24.3344 81.245Z" fill="white"/>
</mask>
<g mask="url(#mask0_255_1325)">
<path d="M17.2422 72.1543V88.4622L17.2431 88.4627C17.2475 88.816 17.4625 89.1534 17.8997 89.4055L31.4502 97.2287C32.4253 97.7918 34.1291 97.7211 35.2552 97.0711C35.8867 96.7063 36.2025 96.2368 36.1857 95.7957V79.4838L17.2422 72.1543Z" fill="url(#paint19_linear_255_1325)"/>
</g>
<mask id="mask1_255_1325" style="mask-type:luminance" maskUnits="userSpaceOnUse" x="9" y="61" width="36" height="21">
<path d="M24.3344 81.245L10.685 73.3644C9.08678 72.4418 9.08678 70.9403 10.685 70.0174L24.3344 62.1372C25.9326 61.2147 28.5328 61.2147 30.131 62.1372L43.7809 70.0178C45.3791 70.9404 45.3791 72.4418 43.7809 73.3644L30.1315 81.2445C28.5328 82.1675 25.9326 82.1675 24.3344 81.245Z" fill="white"/>
</mask>
<g mask="url(#mask1_255_1325)">
<path opacity="0.3" d="M32.4653 97.5552C33.3772 97.6939 34.4583 97.5305 35.2541 97.0708C35.8856 96.706 36.2013 96.2366 36.1846 95.7954V79.4835L32.5315 78.0703H32.4648V97.5552H32.4653Z" fill="#08049A"/>
</g>
<mask id="mask2_255_1325" style="mask-type:luminance" maskUnits="userSpaceOnUse" x="9" y="61" width="36" height="21">
<path d="M24.3344 81.245L10.685 73.3644C9.08678 72.4418 9.08678 70.9403 10.685 70.0174L24.3344 62.1372C25.9326 61.2147 28.5328 61.2147 30.131 62.1372L43.7809 70.0178C45.3791 70.9404 45.3791 72.4418 43.7809 73.3644L30.1315 81.2445C28.5328 82.1675 25.9326 82.1675 24.3344 81.245Z" fill="white"/>
</mask>
<g mask="url(#mask2_255_1325)">
<path d="M31.4493 80.9213L17.8988 73.0981C16.9233 72.535 17.0456 71.5515 18.1722 70.901C19.2983 70.251 21.002 70.1803 21.9771 70.7434L35.5276 78.5666C36.5031 79.1296 36.3808 80.1131 35.2543 80.7636C34.1281 81.4137 32.4244 81.4843 31.4493 80.9213Z" fill="url(#paint20_linear_255_1325)"/>
</g>
</g>
<path opacity="0.5" d="M31.4474 76.723L17.8969 68.8998C16.9213 68.3368 17.0437 67.3533 18.1702 66.7028C19.2963 66.0528 21.0001 65.9821 21.9752 66.5452L35.5257 74.3683C36.5012 74.9314 36.3789 75.9149 35.2523 76.5654C34.1262 77.2154 32.4224 77.2861 31.4474 76.723Z" fill="#08049A"/>
<path d="M17.2402 47.4336V63.7415L17.2411 63.742C17.2455 64.0953 17.4606 64.4327 17.8978 64.6848L31.4483 72.508C32.4234 73.0711 34.1271 73.0004 35.2532 72.3504C35.8848 71.9856 36.2005 71.5161 36.1837 71.075V54.7631L17.2402 47.4336Z" fill="url(#paint21_linear_255_1325)"/>
<path opacity="0.3" d="M32.4633 72.8345C33.3753 72.9732 34.4563 72.8098 35.2521 72.3501C35.8836 71.9853 36.1994 71.5159 36.1826 71.0747V54.7628L32.5296 53.3496H32.4629V72.8345H32.4633Z" fill="#08049A"/>
<path d="M31.4474 56.2006L17.8969 48.3774C16.9213 47.8143 17.0437 46.8308 18.1702 46.1803C19.2963 45.5303 21.0001 45.4596 21.9752 46.0227L35.5257 53.8459C36.5012 54.4089 36.3789 55.3924 35.2523 56.0429C34.1262 56.693 32.4224 56.7636 31.4474 56.2006Z" fill="url(#paint22_linear_255_1325)"/>
<path d="M32.8018 55.1521C32.1553 55.1521 31.6306 54.6279 31.6306 53.9809V46.7353C31.6306 44.2641 29.8227 41.1326 27.6822 39.897L24.5728 38.1018C23.7514 37.6275 23.0095 37.5118 22.5378 37.7843C22.0662 38.0567 21.7955 38.7567 21.7955 39.7053V46.9509C21.7955 47.5978 21.2713 48.122 20.6243 48.122C19.9773 48.122 19.4531 47.5978 19.4531 46.9509V39.7048C19.4531 37.8704 20.1328 36.4683 21.3666 35.7559C22.6005 35.0436 24.155 35.1562 25.7435 36.0735L28.8529 37.8686C31.7234 39.526 33.9721 43.4206 33.9721 46.7353V53.9809C33.973 54.6279 33.4488 55.1521 32.8018 55.1521Z" fill="url(#paint23_linear_255_1325)"/>
<path d="M17.623 87.1827L0.71875 96.9365L0.838159 97.1435L17.7424 87.3897L17.623 87.1827Z" fill="#03FFCF"/>
<defs>
<linearGradient id="paint0_linear_255_1325" x1="86.5678" y1="86.2733" x2="114.728" y2="102.532" gradientUnits="userSpaceOnUse">
<stop stop-color="#81F8DE"/>
<stop offset="1" stop-color="#2155DF"/>
</linearGradient>
<linearGradient id="paint1_linear_255_1325" x1="83.0371" y1="92.4196" x2="118.53" y2="92.4196" gradientUnits="userSpaceOnUse">
<stop stop-color="#A6FBE8"/>
<stop offset="1" stop-color="#4879FD"/>
</linearGradient>
<linearGradient id="paint2_linear_255_1325" x1="86.5678" y1="65.5457" x2="114.728" y2="81.8042" gradientUnits="userSpaceOnUse">
<stop stop-color="#81F8DE"/>
<stop offset="1" stop-color="#2155DF"/>
</linearGradient>
<linearGradient id="paint3_linear_255_1325" x1="83.0371" y1="71.6911" x2="118.53" y2="71.6911" gradientUnits="userSpaceOnUse">
<stop stop-color="#A6FBE8"/>
<stop offset="1" stop-color="#4879FD"/>
</linearGradient>
<linearGradient id="paint4_linear_255_1325" x1="13.015" y1="86.2733" x2="41.1755" y2="102.532" gradientUnits="userSpaceOnUse">
<stop stop-color="#81F8DE"/>
<stop offset="1" stop-color="#2155DF"/>
</linearGradient>
<linearGradient id="paint5_linear_255_1325" x1="9.4844" y1="92.4196" x2="44.9776" y2="92.4196" gradientUnits="userSpaceOnUse">
<stop stop-color="#A6FBE8"/>
<stop offset="1" stop-color="#4879FD"/>
</linearGradient>
<linearGradient id="paint6_linear_255_1325" x1="13.015" y1="65.5457" x2="41.1755" y2="81.8042" gradientUnits="userSpaceOnUse">
<stop stop-color="#81F8DE"/>
<stop offset="1" stop-color="#2155DF"/>
</linearGradient>
<linearGradient id="paint7_linear_255_1325" x1="9.4844" y1="71.6911" x2="44.9776" y2="71.6911" gradientUnits="userSpaceOnUse">
<stop stop-color="#A6FBE8"/>
<stop offset="1" stop-color="#4879FD"/>
</linearGradient>
<linearGradient id="paint8_linear_255_1325" x1="49.5873" y1="110.467" x2="77.7479" y2="126.725" gradientUnits="userSpaceOnUse">
<stop stop-color="#81F8DE"/>
<stop offset="1" stop-color="#2155DF"/>
</linearGradient>
<linearGradient id="paint9_linear_255_1325" x1="46.0567" y1="116.613" x2="81.5495" y2="116.613" gradientUnits="userSpaceOnUse">
<stop stop-color="#A6FBE8"/>
<stop offset="1" stop-color="#4879FD"/>
</linearGradient>
<linearGradient id="paint10_linear_255_1325" x1="49.5873" y1="88.2352" x2="77.7478" y2="104.494" gradientUnits="userSpaceOnUse">
<stop stop-color="#81F8DE"/>
<stop offset="1" stop-color="#2155DF"/>
</linearGradient>
<linearGradient id="paint11_linear_255_1325" x1="46.0567" y1="94.3815" x2="81.5495" y2="94.3815" gradientUnits="userSpaceOnUse">
<stop stop-color="#A6FBE8"/>
<stop offset="1" stop-color="#4879FD"/>
</linearGradient>
<linearGradient id="paint12_linear_255_1325" x1="49.5873" y1="62.7576" x2="77.7478" y2="79.0161" gradientUnits="userSpaceOnUse">
<stop stop-color="#81F8DE"/>
<stop offset="1" stop-color="#2155DF"/>
</linearGradient>
<linearGradient id="paint13_linear_255_1325" x1="46.0567" y1="68.9011" x2="81.5495" y2="68.9011" gradientUnits="userSpaceOnUse">
<stop stop-color="#A6FBE8"/>
<stop offset="1" stop-color="#4879FD"/>
</linearGradient>
<linearGradient id="paint14_linear_255_1325" x1="49.5873" y1="42.5487" x2="77.7478" y2="58.8071" gradientUnits="userSpaceOnUse">
<stop stop-color="#81F8DE"/>
<stop offset="1" stop-color="#2155DF"/>
</linearGradient>
<linearGradient id="paint15_linear_255_1325" x1="51.2764" y1="41.4535" x2="76.39" y2="55.9528" gradientUnits="userSpaceOnUse">
<stop offset="0.2421" stop-color="#0439C7"/>
<stop offset="1" stop-color="#81F8DE"/>
</linearGradient>
<linearGradient id="paint16_linear_255_1325" x1="46.0567" y1="48.6942" x2="81.5495" y2="48.6942" gradientUnits="userSpaceOnUse">
<stop stop-color="#A6FBE8"/>
<stop offset="1" stop-color="#4879FD"/>
</linearGradient>
<linearGradient id="paint17_linear_255_1325" x1="46.6016" y1="48.694" x2="81.0048" y2="48.694" gradientUnits="userSpaceOnUse">
<stop stop-color="#A6FBE8"/>
<stop offset="1" stop-color="#4879FD"/>
</linearGradient>
<linearGradient id="paint18_linear_255_1325" x1="63.8021" y1="57.3304" x2="63.8021" y2="0" gradientUnits="userSpaceOnUse">
<stop stop-color="#03FFCF"/>
<stop offset="0.26" stop-color="#235F87"/>
<stop offset="0.4587" stop-color="#1C3F72"/>
<stop offset="0.715" stop-color="#162561"/>
<stop offset="1" stop-color="#02122A"/>
</linearGradient>
<linearGradient id="paint19_linear_255_1325" x1="19.1267" y1="62.3907" x2="38.5987" y2="65.7187" gradientUnits="userSpaceOnUse">
<stop stop-color="#81F8DE"/>
<stop offset="1" stop-color="#2155DF"/>
</linearGradient>
<linearGradient id="paint20_linear_255_1325" x1="17.2402" y1="75.8324" x2="36.1862" y2="75.8324" gradientUnits="userSpaceOnUse">
<stop stop-color="#A6FBE8"/>
<stop offset="1" stop-color="#4879FD"/>
</linearGradient>
<linearGradient id="paint21_linear_255_1325" x1="19.1247" y1="37.67" x2="38.5968" y2="40.998" gradientUnits="userSpaceOnUse">
<stop stop-color="#81F8DE"/>
<stop offset="1" stop-color="#2155DF"/>
</linearGradient>
<linearGradient id="paint22_linear_255_1325" x1="17.2383" y1="51.1117" x2="36.1843" y2="51.1117" gradientUnits="userSpaceOnUse">
<stop stop-color="#A6FBE8"/>
<stop offset="1" stop-color="#4879FD"/>
</linearGradient>
<linearGradient id="paint23_linear_255_1325" x1="12.5677" y1="42.5566" x2="46.4248" y2="48.3711" gradientUnits="userSpaceOnUse">
<stop stop-color="#33E6BF"/>
<stop offset="0.873" stop-color="#0439C7"/>
</linearGradient>
</defs>
</svg>
