<svg width="329" height="280" viewBox="0 0 329 280" fill="none" xmlns="http://www.w3.org/2000/svg">
<path d="M160.558 153.949L61.3826 211.354L46.8115 196.783L133.752 138.364L160.558 153.949Z" fill="url(#paint0_linear_20468_3126)"/>
<path d="M162.799 157.832L63.4981 215.018L68.8313 234.922L162.894 188.839L162.799 157.832Z" fill="url(#paint1_linear_20468_3126)"/>
<path d="M166.742 157.832L266.043 215.018L260.71 234.922L166.647 188.839L166.742 157.832Z" fill="url(#paint2_linear_20468_3126)"/>
<path d="M168.983 153.949L268.158 211.354L282.73 196.783L195.789 138.364L168.983 153.949Z" fill="url(#paint3_linear_20468_3126)"/>
<path d="M166.742 149.707L166.616 35.1167L186.52 29.7832L193.642 134.286L166.742 149.707Z" fill="url(#paint4_linear_20468_3126)"/>
<path d="M162.258 149.707L162.385 35.1167L142.48 29.7832L135.358 134.286L162.258 149.707Z" fill="url(#paint5_linear_20468_3126)"/>
<path d="M160.558 153.949L61.3826 211.354L46.8115 196.783L133.752 138.364L160.558 153.949Z" stroke="url(#paint6_linear_20468_3126)"/>
<path d="M162.799 157.832L63.4981 215.018L68.8313 234.922L162.894 188.839L162.799 157.832Z" stroke="url(#paint7_linear_20468_3126)"/>
<path d="M166.742 157.832L266.043 215.018L260.71 234.922L166.647 188.839L166.742 157.832Z" stroke="url(#paint8_linear_20468_3126)"/>
<path d="M168.983 153.949L268.158 211.354L282.73 196.783L195.789 138.364L168.983 153.949Z" stroke="url(#paint9_linear_20468_3126)"/>
<path d="M166.742 149.707L166.616 35.1167L186.52 29.7832L193.642 134.286L166.742 149.707Z" stroke="url(#paint10_linear_20468_3126)"/>
<path d="M162.258 149.707L162.385 35.1167L142.48 29.7832L135.358 134.286L162.258 149.707Z" stroke="url(#paint11_linear_20468_3126)"/>
<g opacity="0.6">
<path d="M68.1377 248.553L164.5 201.951L260.863 248.553" stroke="#0439C7"/>
<path d="M68.1377 248.553L164.5 201.951L260.863 248.553" stroke="url(#paint12_linear_20468_3126)"/>
</g>
<g opacity="0.6">
<path d="M32.5938 190.102L121.058 130.073L128.956 22.6523" stroke="#0439C7"/>
<path d="M32.5938 190.102L121.058 130.073L128.956 22.6523" stroke="url(#paint13_linear_20468_3126)"/>
</g>
<g opacity="0.6">
<path d="M200.043 21.8633L207.942 129.284L296.406 190.103" stroke="#0439C7"/>
<path d="M200.043 21.8633L207.942 129.284L296.406 190.103" stroke="url(#paint14_linear_20468_3126)"/>
</g>
<path opacity="0.4" d="M68.1367 264.35L164.499 217.748L260.862 264.35" stroke="url(#paint15_linear_20468_3126)"/>
<g opacity="0.4">
<path d="M16.7959 180.625L105.26 120.596L113.158 13.1758" stroke="#0439C7"/>
<path d="M16.7959 180.625L105.26 120.596L113.158 13.1758" stroke="url(#paint16_linear_20468_3126)"/>
</g>
<g opacity="0.4">
<path d="M215.05 20.2832L223.738 119.805L312.202 180.624" stroke="#0439C7"/>
<path d="M215.05 20.2832L223.738 119.805L312.202 180.624" stroke="url(#paint17_linear_20468_3126)"/>
</g>
<path opacity="0.2" d="M68.1367 279.357L164.499 232.756L260.862 279.357" stroke="url(#paint18_linear_20468_3126)"/>
<g opacity="0.2">
<path d="M0.999023 167.987L89.463 107.958L97.3616 0.537109" stroke="#0439C7"/>
<path d="M0.999023 167.987L89.463 107.958L97.3616 0.537109" stroke="url(#paint19_linear_20468_3126)"/>
</g>
<g opacity="0.2">
<path d="M231.637 0.537109L239.535 107.958L327.999 168.777" stroke="#0439C7"/>
<path d="M231.637 0.537109L239.535 107.958L327.999 168.777" stroke="url(#paint20_linear_20468_3126)"/>
</g>
<defs>
<linearGradient id="paint0_linear_20468_3126" x1="164.771" y1="29.7832" x2="164.771" y2="234.922" gradientUnits="userSpaceOnUse">
<stop stop-color="#33E6BF"/>
<stop offset="1" stop-color="#0439C7"/>
</linearGradient>
<linearGradient id="paint1_linear_20468_3126" x1="164.771" y1="29.7832" x2="164.771" y2="234.922" gradientUnits="userSpaceOnUse">
<stop stop-color="#33E6BF"/>
<stop offset="1" stop-color="#0439C7"/>
</linearGradient>
<linearGradient id="paint2_linear_20468_3126" x1="164.771" y1="29.7832" x2="164.771" y2="234.922" gradientUnits="userSpaceOnUse">
<stop stop-color="#33E6BF"/>
<stop offset="1" stop-color="#0439C7"/>
</linearGradient>
<linearGradient id="paint3_linear_20468_3126" x1="164.771" y1="29.7832" x2="164.771" y2="234.922" gradientUnits="userSpaceOnUse">
<stop stop-color="#33E6BF"/>
<stop offset="1" stop-color="#0439C7"/>
</linearGradient>
<linearGradient id="paint4_linear_20468_3126" x1="164.771" y1="29.7832" x2="164.771" y2="234.922" gradientUnits="userSpaceOnUse">
<stop stop-color="#33E6BF"/>
<stop offset="1" stop-color="#0439C7"/>
</linearGradient>
<linearGradient id="paint5_linear_20468_3126" x1="164.771" y1="29.7832" x2="164.771" y2="234.922" gradientUnits="userSpaceOnUse">
<stop stop-color="#33E6BF"/>
<stop offset="1" stop-color="#0439C7"/>
</linearGradient>
<linearGradient id="paint6_linear_20468_3126" x1="164.771" y1="29.7832" x2="164.771" y2="234.922" gradientUnits="userSpaceOnUse">
<stop stop-color="#33E6BF"/>
<stop offset="1" stop-color="#0439C7"/>
</linearGradient>
<linearGradient id="paint7_linear_20468_3126" x1="164.771" y1="29.7832" x2="164.771" y2="234.922" gradientUnits="userSpaceOnUse">
<stop stop-color="#33E6BF"/>
<stop offset="1" stop-color="#0439C7"/>
</linearGradient>
<linearGradient id="paint8_linear_20468_3126" x1="164.771" y1="29.7832" x2="164.771" y2="234.922" gradientUnits="userSpaceOnUse">
<stop stop-color="#33E6BF"/>
<stop offset="1" stop-color="#0439C7"/>
</linearGradient>
<linearGradient id="paint9_linear_20468_3126" x1="164.771" y1="29.7832" x2="164.771" y2="234.922" gradientUnits="userSpaceOnUse">
<stop stop-color="#33E6BF"/>
<stop offset="1" stop-color="#0439C7"/>
</linearGradient>
<linearGradient id="paint10_linear_20468_3126" x1="164.771" y1="29.7832" x2="164.771" y2="234.922" gradientUnits="userSpaceOnUse">
<stop stop-color="#33E6BF"/>
<stop offset="1" stop-color="#0439C7"/>
</linearGradient>
<linearGradient id="paint11_linear_20468_3126" x1="164.771" y1="29.7832" x2="164.771" y2="234.922" gradientUnits="userSpaceOnUse">
<stop stop-color="#33E6BF"/>
<stop offset="1" stop-color="#0439C7"/>
</linearGradient>
<linearGradient id="paint12_linear_20468_3126" x1="165.29" y1="227.227" x2="161.341" y2="30.5522" gradientUnits="userSpaceOnUse">
<stop stop-color="#0439C7"/>
<stop offset="1" stop-color="#33E6BF"/>
</linearGradient>
<linearGradient id="paint13_linear_20468_3126" x1="-3.73967" y1="205.039" x2="-16.0781" y2="24.4433" gradientUnits="userSpaceOnUse">
<stop stop-color="#0439C7"/>
<stop offset="1" stop-color="#33E6BF"/>
</linearGradient>
<linearGradient id="paint14_linear_20468_3126" x1="163.71" y1="205.11" x2="151.255" y2="23.6707" gradientUnits="userSpaceOnUse">
<stop stop-color="#0439C7"/>
<stop offset="1" stop-color="#33E6BF"/>
</linearGradient>
<linearGradient id="paint15_linear_20468_3126" x1="162.92" y1="218.538" x2="160.55" y2="13.1751" gradientUnits="userSpaceOnUse">
<stop stop-color="#0439C7"/>
<stop offset="1" stop-color="#33E6BF"/>
</linearGradient>
<linearGradient id="paint16_linear_20468_3126" x1="-19.5375" y1="195.562" x2="-31.8759" y2="14.9668" gradientUnits="userSpaceOnUse">
<stop stop-color="#0439C7"/>
<stop offset="1" stop-color="#33E6BF"/>
</linearGradient>
<linearGradient id="paint17_linear_20468_3126" x1="178.419" y1="194.927" x2="167.192" y2="21.9194" gradientUnits="userSpaceOnUse">
<stop stop-color="#0439C7"/>
<stop offset="1" stop-color="#33E6BF"/>
</linearGradient>
<linearGradient id="paint18_linear_20468_3126" x1="162.92" y1="233.546" x2="160.55" y2="28.1829" gradientUnits="userSpaceOnUse">
<stop stop-color="#0439C7"/>
<stop offset="1" stop-color="#33E6BF"/>
</linearGradient>
<linearGradient id="paint19_linear_20468_3126" x1="-35.3344" y1="182.924" x2="-47.6728" y2="2.32811" gradientUnits="userSpaceOnUse">
<stop stop-color="#0439C7"/>
<stop offset="1" stop-color="#33E6BF"/>
</linearGradient>
<linearGradient id="paint20_linear_20468_3126" x1="195.303" y1="183.784" x2="182.849" y2="2.34453" gradientUnits="userSpaceOnUse">
<stop stop-color="#0439C7"/>
<stop offset="1" stop-color="#33E6BF"/>
</linearGradient>
</defs>
</svg>
