<svg width="28" height="34" viewBox="0 0 28 34" fill="none" xmlns="http://www.w3.org/2000/svg">
<path d="M23.1714 17.7191C23.1328 13.5292 26.6901 11.4908 26.8528 11.3959C24.8381 8.53203 21.7154 8.14073 20.6181 8.10953C17.9954 7.84043 15.4514 9.63963 14.1154 9.63963C12.7528 9.63963 10.6954 8.13553 8.4781 8.17973C5.62477 8.22263 2.95543 9.83333 1.49143 12.3345C-1.5299 17.4344 0.723435 24.9289 3.6181 29.0512C5.0661 31.0701 6.7581 33.3243 8.97277 33.245C11.1394 33.1579 11.9488 31.8982 14.5634 31.8982C17.1541 31.8982 17.9141 33.245 20.1728 33.1943C22.4981 33.1579 23.9621 31.1663 25.3594 29.1292C27.0328 26.8152 27.7048 24.5363 27.7314 24.4193C27.6768 24.4011 23.2154 22.741 23.1714 17.7191Z" fill="white"/>
<path d="M18.9048 5.39773C20.0701 3.97683 20.8674 2.04373 20.6461 0.0820312C18.9594 0.154831 16.8501 1.21953 15.6354 2.60923C14.5608 3.83383 13.6008 5.84103 13.8488 7.72863C15.7434 7.86643 17.6888 6.79653 18.9048 5.39773Z" fill="white"/>
</svg>
