<svg width="201" height="130" viewBox="0 0 201 130" fill="none" xmlns="http://www.w3.org/2000/svg">
<g opacity="0.3">
<path d="M200.96 105.056V102.65L200.294 102.28C200.106 103.415 198.769 104.164 197.652 104.319L190.041 108.768L186.719 109.967L176.118 104.498L176.363 104.356C175.456 103.933 174.969 102.965 174.479 102.082L173.765 102.508L173.341 102.627V105.094C173.341 105.565 173.652 106.036 174.274 106.396L184.895 112.526C186.138 113.243 188.162 113.243 189.405 112.526L200.026 106.396C200.638 106.042 200.948 105.581 200.958 105.117C200.959 105.096 200.958 105.076 200.957 105.055L200.96 105.056Z" fill="url(#paint0_linear_23266_40344)"/>
<path opacity="0.3" d="M197.652 104.32L190.042 108.769L187.151 109.812V113.065C187.968 113.065 188.784 112.886 189.407 112.527L200.027 106.397C200.639 106.044 200.95 105.582 200.96 105.118C200.96 105.097 200.959 105.077 200.958 105.056L200.96 105.057V102.651L200.352 102.312H200.288C200.081 103.431 198.759 104.166 197.652 104.32Z" fill="#02122B"/>
<path d="M184.895 110.084L174.274 103.953C173.03 103.236 173.03 102.068 174.274 101.35L184.895 95.2199C186.138 94.5022 188.162 94.5022 189.406 95.2199L200.027 101.35C201.271 102.068 201.271 103.236 200.027 103.954L189.406 110.084C188.163 110.802 186.139 110.802 184.895 110.084Z" fill="url(#paint1_linear_23266_40344)"/>
<g opacity="0.3">
<path d="M184.895 110.084L174.274 103.953C173.03 103.236 173.03 102.068 174.274 101.35L184.895 95.2199C186.138 94.5022 188.162 94.5022 189.406 95.2199L200.027 101.35C201.271 102.068 201.271 103.236 200.027 103.954L189.406 110.084C188.163 110.802 186.139 110.802 184.895 110.084Z" fill="#02122B"/>
</g>
</g>
<path d="M187.151 102.336C186.426 102.336 185.702 102.177 185.15 101.858L174.528 95.7282C173.977 95.4099 173.673 94.9799 173.673 94.5188C173.673 94.0577 173.977 93.6278 174.528 93.3095L185.149 87.1794C186.252 86.5417 188.049 86.5417 189.153 87.1794L199.774 93.3095C200.325 93.6278 200.629 94.0577 200.629 94.5188C200.629 94.9799 200.326 95.4099 199.774 95.7282L189.153 101.858C188.601 102.177 187.876 102.336 187.151 102.336ZM187.151 86.8848C186.46 86.8848 185.768 87.0367 185.242 87.341L174.621 93.471C174.129 93.7545 173.859 94.127 173.859 94.5188C173.859 94.9107 174.129 95.2832 174.621 95.5666L185.242 101.697C186.295 102.305 188.007 102.305 189.06 101.697L199.68 95.5666C200.172 95.2832 200.442 94.9107 200.442 94.5188C200.442 94.127 200.172 93.7545 199.68 93.471L189.059 87.341C188.533 87.0367 187.842 86.8848 187.151 86.8848Z" fill="#03FFCF"/>
<path opacity="0.4" d="M200.96 92.1659V88.5297L200.294 88.1599C200.106 89.2952 198.769 90.0435 197.652 90.1991L190.041 94.6479L186.719 95.8471L176.118 90.3779L176.363 90.2367C175.457 89.8137 174.969 88.8459 174.479 87.9629L173.765 88.3886L173.341 88.5077V92.2051C173.341 92.6764 173.652 93.1477 174.274 93.5068L184.895 99.6368C186.138 100.354 188.162 100.354 189.405 99.6368L200.026 93.5068C200.638 93.1536 200.948 92.6919 200.958 92.2281C200.959 92.2077 200.958 92.1868 200.957 92.1659H200.96Z" fill="#03FFCF"/>
<path d="M200.96 88.9342V86.5283L200.294 86.1585C200.106 87.2938 198.769 88.042 197.652 88.1972L190.041 92.646L186.719 93.8452L176.118 88.3759L176.363 88.2347C175.457 87.8118 174.969 86.8439 174.479 85.9609L173.765 86.3866L173.341 86.5058V88.9728C173.341 89.4441 173.652 89.9154 174.274 90.2745L184.895 96.4045C186.138 97.1222 188.162 97.1222 189.405 96.4045L200.026 90.2745C200.638 89.9213 200.948 89.4597 200.958 88.9959C200.959 88.9755 200.958 88.9546 200.957 88.9336L200.96 88.9342Z" fill="url(#paint2_linear_23266_40344)"/>
<path opacity="0.3" d="M197.652 88.197L190.042 92.6458L187.151 93.6893V96.9422C187.968 96.9422 188.784 96.7629 189.407 96.4038L200.027 90.2738C200.639 89.9206 200.95 89.459 200.96 88.9952C200.96 88.9748 200.959 88.9539 200.958 88.9329L200.96 88.9335V86.5276L200.352 86.1895H200.288C200.081 87.3076 198.759 88.043 197.652 88.197Z" fill="#02122B"/>
<path d="M184.895 93.9603L174.274 87.8303C173.03 87.1126 173.03 85.9446 174.274 85.2269L184.895 79.0969C186.138 78.3792 188.162 78.3792 189.406 79.0969L200.027 85.2269C201.271 85.9446 201.271 87.1126 200.027 87.8303L189.406 93.9603C188.163 94.678 186.139 94.678 184.895 93.9603Z" fill="url(#paint3_linear_23266_40344)"/>
<path d="M200.027 87.8297L189.406 93.9597C188.163 94.6774 186.14 94.6774 184.896 93.9597L174.275 87.8297C173.719 87.5087 173.412 87.098 173.353 86.6777C173.28 87.1979 173.587 87.7325 174.275 88.1292L184.896 94.2592C186.14 94.9769 188.163 94.9769 189.406 94.2592L200.027 88.1292C200.715 87.7325 201.022 87.1979 200.949 86.6777C200.889 87.098 200.583 87.5092 200.027 87.8297Z" fill="white"/>
<g opacity="0.3">
<path d="M46.3079 119.09V116.684L45.642 116.314C45.4541 117.449 44.1176 118.198 42.9997 118.353L35.3891 122.802L32.0675 124.001L21.466 118.532L21.7109 118.391C20.8051 117.968 20.317 117 19.8268 116.117L19.1131 116.543L18.689 116.662V119.129C18.689 119.6 18.9999 120.072 19.6216 120.431L30.243 126.561C31.4865 127.279 33.5103 127.279 34.7538 126.561L45.3746 120.431C45.9862 120.078 46.2971 119.616 46.3068 119.153C46.3073 119.132 46.3062 119.111 46.3057 119.09L46.3079 119.09Z" fill="url(#paint4_linear_23266_40344)"/>
<path opacity="0.3" d="M42.9996 118.353L35.389 122.802L32.498 123.846V127.098C33.3147 127.098 34.132 126.919 34.7538 126.56L45.3745 120.43C45.9861 120.077 46.297 119.615 46.3067 119.151C46.3072 119.131 46.3061 119.11 46.3056 119.089L46.3072 119.09V116.684L45.6989 116.346H45.6355C45.4282 117.463 44.1068 118.199 42.9996 118.353Z" fill="#02122B"/>
<path d="M30.243 124.115L19.6216 117.985C18.3781 117.267 18.3781 116.099 19.6216 115.381L30.2424 109.251C31.486 108.533 33.5092 108.533 34.7533 109.251L45.3746 115.382C46.6182 116.099 46.6182 117.267 45.3746 117.985L34.7539 124.115C33.5098 124.833 31.4865 124.833 30.243 124.115Z" fill="url(#paint5_linear_23266_40344)"/>
<g opacity="0.3">
<path d="M30.243 124.115L19.6216 117.985C18.3781 117.267 18.3781 116.099 19.6216 115.381L30.2424 109.251C31.486 108.533 33.5092 108.533 34.7533 109.251L45.3746 115.382C46.6182 116.099 46.6182 117.267 45.3746 117.985L34.7539 124.115C33.5098 124.833 31.4865 124.833 30.243 124.115Z" fill="#02122B"/>
</g>
</g>
<path opacity="0.4" d="M32.4991 126.075C26.0219 126.075 19.5447 124.652 14.6134 121.806C9.81795 119.038 7.17725 115.352 7.17725 111.428C7.17725 107.504 9.81794 103.819 14.6129 101.052C24.4744 95.3605 40.5216 95.36 50.3837 101.052C55.1791 103.82 57.8198 107.505 57.8198 111.43C57.8198 115.353 55.1791 119.038 50.3842 121.806C45.454 124.652 38.9768 126.075 32.4991 126.075ZM32.4985 96.966C26.0547 96.966 19.6113 98.3821 14.7058 101.213C9.97151 103.946 7.36357 107.573 7.36357 111.427C7.36357 115.283 9.97151 118.911 14.7063 121.643C24.5179 127.306 40.4808 127.306 50.2913 121.643C55.0256 118.911 57.6335 115.283 57.6335 111.429C57.6335 107.574 55.0261 103.946 50.2908 101.213C45.3858 98.3821 38.9419 96.966 32.4985 96.966Z" fill="#03FFCF"/>
<path opacity="0.2" d="M32.5001 130C24.2794 130 16.061 128.195 9.80285 124.582C3.72247 121.073 0.373535 116.402 0.373535 111.429C0.373535 106.455 3.72193 101.784 9.80177 98.2747C22.3169 91.0513 42.6806 91.0518 55.1946 98.2753C61.275 101.785 64.624 106.456 64.624 111.429C64.624 116.402 61.2756 121.074 55.1957 124.583C48.9392 128.194 40.7186 130 32.5001 130ZM32.4979 93.0411C24.3122 93.0411 16.127 94.8394 9.89467 98.4363C3.87497 101.911 0.559855 106.525 0.559855 111.429C0.559855 116.333 3.8755 120.947 9.89574 124.421C22.3599 131.615 42.6392 131.616 55.1034 124.421C61.1231 120.947 64.4382 116.333 64.4382 111.429C64.4382 106.525 61.1225 101.911 55.1023 98.4369C48.87 94.8399 40.6837 93.0411 32.4979 93.0411Z" fill="#03FFCF"/>
<path d="M32.4991 122.982C27.3949 122.982 22.2901 121.861 18.4037 119.617C14.6209 117.434 12.5376 114.526 12.5376 111.428C12.5371 108.33 14.6204 105.422 18.4032 103.239C26.1749 98.7538 38.8216 98.7538 46.5934 103.239C50.3762 105.422 52.459 108.33 52.4595 111.428C52.4595 114.526 50.3762 117.434 46.5939 119.617C42.7086 121.861 37.6038 122.982 32.4991 122.982ZM32.4986 100.058C27.4276 100.058 22.3567 101.172 18.4961 103.401C14.7734 105.549 12.7239 108.4 12.7239 111.428C12.7239 114.457 14.774 117.308 18.4966 119.456C26.2179 123.913 38.7803 123.913 46.501 119.456C50.2237 117.308 52.2732 114.457 52.2732 111.429C52.2732 108.4 50.2231 105.549 46.5005 103.401C42.6404 101.172 37.5695 100.058 32.4986 100.058Z" fill="#03FFCF"/>
<path d="M32.4989 115.197C31.7735 115.197 31.0492 115.038 30.4967 114.719L19.8759 108.589C19.3244 108.27 19.0205 107.841 19.0205 107.379C19.0205 106.918 19.3239 106.488 19.8759 106.17L30.4967 100.04C31.6001 99.4033 33.3962 99.4033 34.5007 100.04L45.122 106.17C45.6734 106.489 45.9773 106.918 45.9773 107.38C45.9773 107.841 45.6734 108.27 45.122 108.589L34.5012 114.719C33.9492 115.038 33.2238 115.197 32.4989 115.197ZM32.4989 99.7463C31.8073 99.7463 31.1163 99.8977 30.5895 100.202L19.9688 106.332C19.4775 106.616 19.2068 106.988 19.2068 107.38C19.2068 107.772 19.4775 108.144 19.9688 108.428L30.5901 114.558C31.6425 115.166 33.3548 115.166 34.4072 114.558L45.0286 108.428C45.5199 108.144 45.7905 107.772 45.7905 107.38C45.7905 106.989 45.5199 106.616 45.0286 106.332L34.4078 100.202C33.881 99.8977 33.19 99.7463 32.4989 99.7463Z" fill="#03FFCF"/>
<path opacity="0.4" d="M46.3083 105.028V101.392L45.6425 101.022C45.4546 102.157 44.1175 102.905 43.0002 103.06L35.3895 107.51L32.068 108.709L21.467 103.239L21.7119 103.098C20.8055 102.675 20.318 101.707 19.8277 100.824L19.1141 101.25L18.6899 101.369V105.066C18.6899 105.538 19.0008 106.009 19.6226 106.368L30.2439 112.499C31.4875 113.216 33.5113 113.216 34.7548 112.499L45.3756 106.369C45.9872 106.015 46.2981 105.554 46.3078 105.09C46.3083 105.069 46.3072 105.049 46.3067 105.028H46.3083Z" fill="#03FFCF"/>
<path d="M46.3083 101.794V99.3882L45.6425 99.0184C45.4546 100.154 44.1176 100.902 43.0002 101.057L35.3895 105.506L32.068 106.705L21.4665 101.236L21.7114 101.094C20.805 100.671 20.3175 99.7033 19.8272 98.8203L19.1136 99.246L18.6895 99.3651V101.832C18.6895 102.303 19.0003 102.775 19.6221 103.134L30.2435 109.264C31.487 109.982 33.5108 109.982 34.7543 109.264L45.3751 103.134C45.9867 102.781 46.2976 102.32 46.3073 101.856C46.3078 101.835 46.3067 101.814 46.3062 101.794L46.3083 101.794Z" fill="url(#paint6_linear_23266_40344)"/>
<path opacity="0.3" d="M43.0006 101.058L35.3899 105.507L32.499 106.551V109.804C33.3157 109.804 34.1329 109.624 34.7547 109.265L45.3755 103.135C45.9871 102.782 46.298 102.32 46.3076 101.857C46.3082 101.836 46.3071 101.815 46.3066 101.794L46.3082 101.795V99.389L45.6998 99.0508H45.6365C45.4292 100.169 44.1078 100.904 43.0006 101.058Z" fill="#02122B"/>
<path d="M30.2439 106.82L19.6226 100.69C18.379 99.972 18.379 98.8039 19.6226 98.0863L30.2434 91.9562C31.487 91.2385 33.5102 91.2385 34.7543 91.9562L45.3756 98.0863C46.6192 98.8039 46.6192 99.972 45.3756 100.69L34.7548 106.82C33.5107 107.538 31.4875 107.538 30.2439 106.82Z" fill="url(#paint7_linear_23266_40344)"/>
<path d="M32.4989 105.708C31.8439 105.708 31.1893 105.564 30.6905 105.276L22.3925 100.487C21.8921 100.198 21.6172 99.8077 21.6172 99.3885C21.6172 98.9698 21.8926 98.5796 22.3925 98.2913L30.6905 93.5016C31.6871 92.9267 33.3097 92.9262 34.3074 93.5022L42.6053 98.2913C43.1052 98.5801 43.3807 98.9698 43.3807 99.389C43.3807 99.8082 43.1052 100.198 42.6053 100.487L34.3074 105.276C33.8091 105.564 33.154 105.708 32.4989 105.708ZM30.7834 105.115C31.73 105.662 33.2689 105.662 34.2145 105.115L42.5124 100.325C42.9522 100.071 43.1949 99.7385 43.1949 99.389C43.1949 99.0396 42.9522 98.7068 42.5124 98.4529L34.2145 93.6637C33.2689 93.1178 31.7295 93.1173 30.7834 93.6632L22.4854 98.4529C22.0457 98.7068 21.8035 99.039 21.803 99.3885C21.803 99.7385 22.0451 100.071 22.4854 100.325L30.7834 105.115Z" fill="#0439C7"/>
<path d="M45.3754 100.691L34.7546 106.821C33.511 107.539 31.4873 107.539 30.2437 106.821L19.6224 100.691C19.0666 100.37 18.76 99.9594 18.701 99.5391C18.6279 100.059 18.9345 100.594 19.6224 100.991L30.2437 107.121C31.4873 107.839 33.511 107.839 34.7546 107.121L45.3754 100.991C46.0632 100.594 46.3698 100.06 46.2968 99.5396C46.2377 99.9594 45.9311 100.371 45.3754 100.691Z" fill="white"/>
<g opacity="0.3">
<path d="M65.9435 58.5514V56.1455L65.2783 55.7757C65.0904 56.911 63.7533 57.6592 62.636 57.8144L55.0253 62.2637L51.7037 63.4629L41.1023 57.9936L41.3471 57.8519C40.4408 57.4289 39.9532 56.4611 39.463 55.5781L38.7494 56.0038L38.3252 56.123V58.59C38.3252 59.0613 38.6361 59.5326 39.2579 59.8917L49.8792 66.0223C51.1228 66.7399 53.146 66.7399 54.3895 66.0223L65.0103 59.8922C65.6219 59.539 65.9328 59.0774 65.9425 58.6136C65.943 58.5927 65.9419 58.5723 65.9414 58.5514H65.9435Z" fill="url(#paint8_linear_23266_40344)"/>
<path opacity="0.3" d="M62.6354 57.8156L55.0247 62.265L52.1338 63.3085V66.5614C52.9505 66.5614 53.7677 66.3821 54.3895 66.023L65.0103 59.893C65.6219 59.5398 65.9328 59.0781 65.9424 58.6143C65.943 58.5934 65.9419 58.573 65.9413 58.5521L65.943 58.5526V56.1468L65.3346 55.8086H65.2712C65.0634 56.9262 63.742 57.6616 62.6354 57.8156Z" fill="#02122B"/>
<path d="M49.8792 63.578L39.2579 57.4475C38.0143 56.7298 38.0143 55.5617 39.2579 54.8441L49.8787 48.714C51.1222 47.9964 53.1454 47.9964 54.389 48.714L65.0103 54.8446C66.2539 55.5623 66.2539 56.7303 65.0103 57.448L54.3895 63.578C53.146 64.2957 51.1222 64.2957 49.8792 63.578Z" fill="url(#paint9_linear_23266_40344)"/>
<g opacity="0.3">
<path d="M49.8792 63.578L39.2579 57.4475C38.0143 56.7298 38.0143 55.5617 39.2579 54.8441L49.8787 48.714C51.1222 47.9964 53.1454 47.9964 54.389 48.714L65.0103 54.8446C66.2539 55.5623 66.2539 56.7303 65.0103 57.448L54.3895 63.578C53.146 64.2957 51.1222 64.2957 49.8792 63.578Z" fill="#02122B"/>
</g>
</g>
<path d="M52.1342 55.8495C51.4093 55.8495 50.6844 55.6901 50.1325 55.3718L39.5111 49.2417C38.9597 48.9229 38.6558 48.494 38.6558 48.0318C38.6558 47.5707 38.9597 47.1413 39.5111 46.823L50.1319 40.6924C51.2359 40.0553 53.032 40.0558 54.1354 40.693L64.7562 46.823C65.3076 47.1419 65.6115 47.5708 65.6115 48.0324C65.6115 48.494 65.3082 48.9234 64.7562 49.2417L54.1354 55.3718C53.5845 55.6901 52.8596 55.8495 52.1342 55.8495ZM50.2254 55.2107C51.2783 55.8189 52.9906 55.8189 54.0436 55.2107L64.6644 49.0807C65.1557 48.7973 65.4263 48.4248 65.4263 48.0329C65.4268 47.6411 65.1557 47.2685 64.6644 46.9851L54.043 40.8551C52.9906 40.2469 51.2783 40.2464 50.2254 40.8546L39.6045 46.9851C39.1132 47.2685 38.8426 47.6405 38.8426 48.0324C38.8426 48.4242 39.1132 48.7973 39.6045 49.0807L50.2254 55.2107Z" fill="#03FFCF"/>
<path opacity="0.4" d="M65.9431 45.679V42.0434L65.2778 41.6736C65.0899 42.8089 63.7529 43.5571 62.6355 43.7128L55.0248 48.1616L51.7033 49.3608L41.1018 43.8915L41.3467 43.7504C40.4403 43.3274 39.9527 42.3596 39.4625 41.4766L38.7489 41.9022L38.3247 42.0214V45.7187C38.3247 46.19 38.6356 46.6613 39.2574 47.0204L49.8787 53.1505C51.1223 53.8681 53.1455 53.8681 54.3891 53.1505L65.0098 47.0204C65.6214 46.6672 65.9323 46.2056 65.942 45.7418C65.9425 45.7209 65.9415 45.7005 65.9409 45.6796L65.9431 45.679Z" fill="#03FFCF"/>
<path d="M65.9431 42.4478V40.042L65.2778 39.6722C65.0899 40.8074 63.7529 41.5557 62.6355 41.7108L55.0248 46.1602L51.7033 47.3594L41.1018 41.8901L41.3467 41.7484C40.4403 41.3254 39.9527 40.3576 39.4625 39.4746L38.7489 39.9003L38.3247 40.0194V42.4865C38.3247 42.9578 38.6356 43.4291 39.2574 43.7882L49.8787 49.9187C51.1223 50.6364 53.1455 50.6364 54.3891 49.9187L65.0098 43.7887C65.6214 43.4355 65.9323 42.9739 65.942 42.5101C65.9425 42.4892 65.9415 42.4688 65.9409 42.4478H65.9431Z" fill="url(#paint10_linear_23266_40344)"/>
<path opacity="0.3" d="M62.6354 41.7101L55.0247 46.1595L52.1338 47.203V50.4559C52.9505 50.4559 53.7677 50.2766 54.3895 49.9175L65.0103 43.7875C65.6219 43.4343 65.9328 42.9727 65.9424 42.5089C65.943 42.4879 65.9419 42.4675 65.9413 42.4466L65.943 42.4471V40.0413L65.3346 39.7031H65.2712C65.0634 40.8207 63.742 41.5561 62.6354 41.7101Z" fill="#02122B"/>
<path d="M49.8792 47.4745L39.2579 41.3439C38.0143 40.6263 38.0143 39.4582 39.2579 38.7406L49.8787 32.6105C51.1222 31.8928 53.1454 31.8928 54.389 32.6105L65.0103 38.7406C66.2539 39.4582 66.2539 40.6263 65.0103 41.3439L54.3895 47.474C53.146 48.1922 51.1222 48.1922 49.8792 47.4745Z" fill="url(#paint11_linear_23266_40344)"/>
<path d="M52.1342 46.3601C51.4791 46.3601 50.8246 46.2162 50.3258 45.9285L42.0278 41.1393C41.5279 40.8506 41.2524 40.4603 41.2524 40.0411C41.2524 39.6224 41.5279 39.2322 42.0273 38.9434L50.3252 34.1542C51.3223 33.5788 52.9445 33.5788 53.9421 34.1542L62.2401 38.9439C62.74 39.2327 63.0154 39.6224 63.0154 40.0416C63.0154 40.4609 62.74 40.8506 62.2401 41.1393L53.9421 45.9285C53.4444 46.2168 52.7893 46.3601 52.1342 46.3601ZM52.1342 33.9062C51.513 33.9062 50.8917 34.0431 50.4192 34.3163L42.1207 39.1055C41.6809 39.3594 41.4388 39.6922 41.4388 40.0416C41.4388 40.3916 41.6815 40.725 42.1212 40.9783L50.4192 45.7675C51.3648 46.3139 52.9036 46.3139 53.8503 45.7675L62.1482 40.9783C62.588 40.7244 62.8307 40.3916 62.8307 40.0422C62.8307 39.6927 62.588 39.3599 62.1482 39.106L53.8503 34.3163C53.3767 34.0431 52.7554 33.9062 52.1342 33.9062Z" fill="#0439C7"/>
<path d="M65.0106 41.3439L54.3898 47.4739C53.1462 48.1916 51.1225 48.1916 49.8794 47.4739L39.2581 41.3433C38.7024 41.0223 38.3958 40.6117 38.3367 40.1914C38.2637 40.7115 38.5703 41.2462 39.2581 41.6429L49.8794 47.7729C51.123 48.4906 53.1462 48.4906 54.3898 47.7729L65.0106 41.6429C65.6984 41.2456 66.005 40.7115 65.932 40.1914C65.8729 40.6122 65.5663 41.0229 65.0106 41.3439Z" fill="white"/>
<path d="M116.39 129.703C115.896 129.703 115.377 129.583 114.972 129.35L49.8612 91.7694C49.451 91.5326 49.2158 91.2111 49.2163 90.8874C49.2163 90.6121 49.3839 90.3635 49.6883 90.188L88.5428 67.7624C89.1893 67.3899 90.3195 67.4344 91.061 67.8623L156.173 105.443C156.582 105.679 156.818 106.001 156.818 106.325C156.818 106.601 156.65 106.849 156.346 107.025L117.491 129.451C117.197 129.62 116.803 129.703 116.39 129.703ZM49.9718 91.5772L115.083 129.158C115.765 129.552 116.796 129.596 117.381 129.258L156.236 106.833C156.469 106.698 156.597 106.517 156.597 106.325C156.597 106.082 156.402 105.83 156.063 105.635L90.951 68.0539C90.2707 67.661 89.2397 67.6169 88.6539 67.954L49.7994 90.3797C49.5664 90.5138 49.4381 90.6942 49.4381 90.8869C49.4375 91.1295 49.6319 91.3813 49.9718 91.5772Z" fill="#03FFCF"/>
<path d="M156.706 99.8269L153.121 99.311L91.005 63.4595C90.2925 63.0483 89.2143 63.0032 88.5968 63.3596L51.6023 84.7117L49.3257 84.3842V87.4058L49.3327 87.4068C49.337 87.6774 49.5292 87.9613 49.9152 88.1841L115.027 125.765C115.739 126.176 116.818 126.221 117.435 125.864L156.29 103.439C156.574 103.275 156.704 103.055 156.699 102.824L156.706 102.825V99.8269Z" fill="url(#paint12_linear_23266_40344)"/>
<path d="M49.916 85.1789L115.028 122.759C115.74 123.171 116.818 123.216 117.436 122.859L156.29 100.434C156.908 100.077 156.83 99.4551 156.117 99.0439L91.0058 61.4634C90.2932 61.0522 89.2151 61.0071 88.5976 61.3635L49.7431 83.7891C49.1256 84.145 49.2029 84.7677 49.916 85.1789Z" fill="url(#paint13_linear_23266_40344)"/>
<path opacity="0.3" d="M55.5538 85.9156L113.752 119.506C114.389 119.873 115.352 119.913 115.904 119.595L150.633 99.5503C151.184 99.232 151.115 98.6759 150.478 98.3082L92.2804 64.7181C91.6436 64.3504 90.6797 64.3107 90.1278 64.629L55.3986 84.6735C54.8477 84.9918 54.917 85.5479 55.5538 85.9156Z" fill="#001B62"/>
<path d="M156.29 100.108L117.435 122.533C116.818 122.89 115.74 122.845 115.027 122.434L49.9153 84.8531C49.6028 84.6728 49.4197 84.4516 49.3569 84.2305C49.2587 84.5477 49.446 84.909 49.9153 85.18L115.027 122.761C115.74 123.172 116.818 123.217 117.435 122.86L156.29 100.435C156.636 100.235 156.756 99.9512 156.675 99.6677C156.624 99.8325 156.501 99.986 156.29 100.108Z" fill="white"/>
<path d="M90.8883 49.7477L99.1191 0.930696L98.4571 0.652107L99.4515 0.0820479L99.4499 0.0879513C99.6426 -0.0403392 99.916 -0.0328245 100.216 0.140556L165.997 38.1076C166.537 38.4194 166.946 39.2192 166.851 39.778L158.555 88.9831C158.511 89.2397 158.385 89.4093 158.208 89.4839L158.209 89.4844L157.236 90.0464L157.069 89.1382L157.124 89.1548L91.742 51.4181C91.2024 51.1062 90.7932 50.307 90.8883 49.7477Z" fill="url(#paint14_linear_23266_40344)"/>
<path d="M165.631 39.4431L166.712 38.9648C166.834 39.2418 166.893 39.5328 166.851 39.7786L158.555 88.9836C158.511 89.2402 158.385 89.4098 158.209 89.4845L158.21 89.485L157.237 90.047L157.07 89.1388L157.125 89.1554L153.816 87.2461L165.631 39.4431Z" fill="url(#paint15_linear_23266_40344)"/>
<path d="M90.7108 52.0103L156.492 89.9768C156.999 90.2699 157.434 90.1008 157.524 89.5748L165.82 40.3697C165.915 39.8104 165.506 39.0111 164.966 38.6993L99.1849 0.732786C98.6769 0.439704 98.242 0.60879 98.1529 1.13483L89.8565 50.3399C89.7615 50.8987 90.1707 51.6985 90.7108 52.0103Z" fill="#001B62"/>
<g opacity="0.51">
<path d="M98.9635 1.64844L165.053 39.7765L156.707 89.1066L90.6597 51.0038L98.9635 1.64844Z" fill="#0B40CE"/>
</g>
<path d="M49.3613 75.3063L52.9514 77.1807L88.9482 56.4046C89.5506 56.0568 90.6025 56.1008 91.2979 56.5018L153.382 92.3351C153.977 92.0028 156.685 90.7006 156.685 90.7006L155.371 92.8359C155.371 92.8359 155.367 92.8322 155.366 92.8316C155.311 92.9841 155.194 93.1258 154.998 93.239L117.087 115.12C116.484 115.468 115.433 115.425 114.737 115.023L51.2052 78.3541C50.9195 78.1893 50.7445 77.9896 50.672 77.7878L50.6672 77.791L49.3613 75.3063Z" fill="url(#paint16_linear_23266_40344)"/>
<path d="M49.9165 75.8957L115.028 113.476C115.741 113.887 116.819 113.932 117.436 113.576L156.291 91.1504C156.908 90.794 156.83 90.1719 156.118 89.7607L91.0063 52.1802C90.2937 51.769 89.2155 51.7239 88.5981 52.0803L49.7436 74.5059C49.1261 74.8618 49.2034 75.484 49.9165 75.8957Z" fill="url(#paint17_linear_23266_40344)"/>
<path d="M49.9165 75.8957L115.028 113.476C115.741 113.887 116.819 113.932 117.436 113.576L156.291 91.1504C156.908 90.794 156.83 90.1719 156.118 89.7607L91.0063 52.1802C90.2937 51.769 89.2155 51.7239 88.5981 52.0803L49.7436 74.5059C49.1261 74.8618 49.2034 75.484 49.9165 75.8957Z" fill="#001B62"/>
<path opacity="0.51" d="M49.9165 75.8957L115.028 113.476C115.741 113.887 116.819 113.932 117.436 113.576L156.291 91.1504C156.908 90.794 156.83 90.1719 156.118 89.7607L91.0063 52.1802C90.2937 51.769 89.2155 51.7239 88.5981 52.0803L49.7436 74.5059C49.1261 74.8618 49.2034 75.484 49.9165 75.8957Z" fill="#0B40CE"/>
<g opacity="0.3">
<path opacity="0.5" d="M49.9165 74.5129L115.028 112.093C115.741 112.505 116.819 112.55 117.436 112.193L156.291 89.7676C156.908 89.4112 156.83 88.7891 156.118 88.3779L91.0063 50.7974C90.2937 50.3862 89.2155 50.3411 88.5981 50.6975L49.7436 73.1231C49.1261 73.4795 49.2034 74.1017 49.9165 74.5129Z" fill="url(#paint18_radial_23266_40344)"/>
<mask id="mask0_23266_40344" style="mask-type:luminance" maskUnits="userSpaceOnUse" x="49" y="50" width="108" height="63">
<path d="M49.9165 74.5129L115.028 112.093C115.741 112.505 116.819 112.55 117.436 112.193L156.291 89.7676C156.908 89.4112 156.83 88.7891 156.118 88.3779L91.0063 50.7974C90.2937 50.3862 89.2155 50.3411 88.5981 50.6975L49.7436 73.1231C49.1261 73.4795 49.2034 74.1017 49.9165 74.5129Z" fill="white"/>
</mask>
<g mask="url(#mask0_23266_40344)">
<path d="M129.321 113.568V109.335L128.15 108.684C127.819 110.682 125.467 111.998 123.501 112.272L110.111 120.099L104.267 122.209L85.6142 112.586L86.0454 112.337C84.4512 111.593 83.5926 109.889 82.7302 108.336L81.4743 109.085L80.7285 109.295V113.636C80.7285 114.465 81.2757 115.294 82.3694 115.926L101.057 126.712C103.245 127.975 106.805 127.975 108.993 126.712L127.68 115.927C128.756 115.306 129.303 114.493 129.32 113.677C129.321 113.64 129.319 113.604 129.318 113.568H129.321Z" fill="url(#paint19_linear_23266_40344)"/>
<path opacity="0.3" d="M123.501 112.273L110.11 120.1L105.024 121.937V127.66C106.461 127.66 107.898 127.344 108.993 126.713L127.679 115.928C128.755 115.306 129.302 114.494 129.32 113.678C129.32 113.641 129.319 113.605 129.318 113.569L129.32 113.57V109.337L128.25 108.742H128.138C127.773 110.707 125.448 112.002 123.501 112.273Z" fill="#02122B"/>
<path d="M86.0455 112.339L103.754 102.118C104.455 101.714 105.595 101.714 106.295 102.118L123.695 112.16L123.502 112.273C125.468 111.999 127.82 110.683 128.151 108.686L108.624 97.829L102.942 96.3281L98.3158 99.0464L82.731 108.339C83.5922 109.891 84.4513 111.594 86.0455 112.339Z" fill="url(#paint20_linear_23266_40344)"/>
<path opacity="0.3" d="M105.025 96.8783L102.942 96.3281L98.3153 99.0464L82.7305 108.339C83.5928 109.892 84.4514 111.595 86.0456 112.34L103.754 102.119C104.104 101.917 104.565 101.816 105.025 101.816V96.8783Z" fill="#02122B"/>
<path d="M101.057 122.412L82.3696 111.626C80.1815 110.363 80.1815 108.308 82.3696 107.045L101.056 96.2598C103.244 94.9967 106.804 94.9967 108.992 96.2598L127.68 107.046C129.868 108.309 129.868 110.364 127.68 111.626L108.993 122.412C106.805 123.675 103.245 123.675 101.057 122.412ZM106.295 97.817C105.595 97.4128 104.455 97.4122 103.754 97.817L85.0672 108.603C84.3665 109.007 84.3665 109.665 85.0672 110.069L103.755 120.855C104.455 121.259 105.595 121.259 106.296 120.855L124.983 110.07C125.683 109.665 125.683 109.007 124.983 108.603L106.295 97.817Z" fill="#0439C7"/>
<path d="M124.982 108.603L106.295 97.817C105.594 97.4128 104.454 97.4123 103.754 97.817L85.0669 108.603C84.5998 108.873 84.4457 109.255 84.6019 109.599C84.6798 109.427 84.8339 109.264 85.0669 109.13L103.754 98.3441C104.454 97.9399 105.594 97.9399 106.295 98.3441L124.982 109.13C125.215 109.265 125.37 109.428 125.447 109.6C125.604 109.255 125.45 108.873 124.982 108.603Z" fill="white"/>
<path d="M127.68 111.627L108.993 122.413C106.805 123.676 103.245 123.676 101.057 122.413L82.3701 111.626C81.3923 111.062 80.8526 110.339 80.7485 109.6C80.6201 110.515 81.1598 111.455 82.3701 112.154L101.057 122.94C103.245 124.203 106.805 124.203 108.993 122.94L127.68 112.154C128.891 111.456 129.43 110.515 129.301 109.6C129.198 110.34 128.658 111.063 127.68 111.627Z" fill="white"/>
<path d="M101.584 122.107L82.8969 111.321C80.9999 110.226 80.9999 108.444 82.8969 107.349L101.584 96.5635C103.481 95.4684 106.567 95.4684 108.465 96.5635L127.152 107.35C129.049 108.445 129.049 110.226 127.152 111.321L108.465 122.106C106.568 123.202 103.481 123.202 101.584 122.107ZM106.823 97.5114C105.831 96.9392 104.217 96.9392 103.226 97.5114L84.5389 108.297C83.5471 108.869 83.5471 109.8 84.5389 110.373L103.226 121.159C104.218 121.731 105.831 121.731 106.823 121.159L125.51 110.373C126.502 109.801 126.502 108.87 125.51 108.297L106.823 97.5114Z" fill="url(#paint21_linear_23266_40344)"/>
<path opacity="0.4" d="M106.295 97.817C105.594 97.4128 104.455 97.4123 103.754 97.817L85.067 108.603C84.3663 109.007 84.3663 109.665 85.067 110.069L103.754 120.855C104.455 121.259 105.595 121.259 106.296 120.855L124.983 110.07C125.683 109.665 125.683 109.007 124.983 108.603L106.295 97.817Z" fill="#03FFCF"/>
<path opacity="0.4" d="M129.321 109.795V103.398L128.15 102.747C127.819 104.745 125.467 106.061 123.501 106.334L110.111 114.162L104.267 116.272L85.6142 106.649L86.0454 106.4C84.4512 105.655 83.5926 103.952 82.7302 102.398L81.4743 103.147L80.7285 103.357V109.862C80.7285 110.691 81.2757 111.52 82.3694 112.152L101.057 122.938C103.245 124.201 106.805 124.201 108.993 122.938L127.68 112.152C128.756 111.531 129.303 110.719 129.32 109.903C129.321 109.866 129.319 109.83 129.318 109.794L129.321 109.795Z" fill="#03FFCF"/>
<path d="M129.321 104.107V99.8745L128.15 99.2234C127.819 101.221 125.467 102.537 123.501 102.811L110.111 110.639L104.267 112.748L85.6142 103.125L86.0454 102.876C84.4512 102.132 83.5926 100.429 82.7302 98.875L81.4743 99.6238L80.7285 99.8337V104.175C80.7285 105.004 81.2757 105.833 82.3694 106.465L101.057 117.251C103.245 118.514 106.805 118.514 108.993 117.251L127.68 106.466C128.756 105.845 129.303 105.032 129.32 104.216C129.321 104.179 129.319 104.143 129.318 104.106L129.321 104.107Z" fill="url(#paint22_linear_23266_40344)"/>
<path opacity="0.3" d="M123.501 102.81L110.11 110.638L105.024 112.474V118.198C106.461 118.198 107.898 117.882 108.993 117.251L127.679 106.465C128.755 105.844 129.302 105.031 129.32 104.216C129.32 104.179 129.319 104.143 129.318 104.106L129.32 104.107V99.8746L128.25 99.2793H128.138C127.773 101.245 125.448 102.539 123.501 102.81Z" fill="#02122B"/>
<path d="M86.045 102.876L103.754 92.6549C104.454 92.2507 105.594 92.2507 106.295 92.6549L123.694 102.698L123.501 102.81C125.468 102.537 127.819 101.22 128.15 99.223L108.623 88.3661L102.942 86.8652L98.3153 89.5835L82.7305 98.8757C83.5917 100.428 84.4508 102.131 86.045 102.876Z" fill="url(#paint23_linear_23266_40344)"/>
<path opacity="0.3" d="M105.025 87.4154L102.942 86.8652L98.3153 89.5835L82.7305 98.8757C83.5928 100.429 84.4514 102.132 86.0456 102.877L103.754 92.656C104.104 92.4537 104.565 92.3527 105.025 92.3527V87.4154Z" fill="#02122B"/>
<path d="M101.057 112.951L82.3696 102.165C80.1815 100.902 80.1815 98.8472 82.3696 97.5842L101.056 86.7986C103.244 85.5356 106.804 85.5361 108.992 86.7986L127.68 97.5847C129.868 98.8477 129.868 100.903 127.68 102.165L108.993 112.951C106.805 114.214 103.245 114.214 101.057 112.951ZM106.295 88.3558C105.595 87.9516 104.455 87.9511 103.754 88.3558L85.0672 99.1414C84.3665 99.5456 84.3665 100.204 85.0672 100.608L103.755 111.394C104.455 111.799 105.595 111.799 106.296 111.394L124.983 100.609C125.683 100.205 125.683 99.5466 124.983 99.1424L106.295 88.3558Z" fill="#0439C7"/>
<path d="M124.982 99.1402L106.295 88.3541C105.594 87.9499 104.454 87.9494 103.754 88.3541L85.0669 99.1396C84.5998 99.4091 84.4457 99.7918 84.6019 100.136C84.6798 99.9641 84.8339 99.8015 85.0669 99.6668L103.754 88.8812C104.454 88.477 105.594 88.477 106.295 88.8812L124.982 99.6673C125.215 99.802 125.37 99.9647 125.447 100.137C125.604 99.7924 125.45 99.4102 124.982 99.1402Z" fill="white"/>
<path d="M127.68 102.164L108.993 112.95C106.805 114.213 103.245 114.213 101.057 112.95L82.3701 102.164C81.3923 101.599 80.8526 100.876 80.7485 100.137C80.6201 101.052 81.1598 101.992 82.3701 102.691L101.057 113.477C103.245 114.74 106.805 114.74 108.993 113.477L127.68 102.691C128.891 101.993 129.43 101.052 129.301 100.137C129.198 100.877 128.658 101.599 127.68 102.164Z" fill="white"/>
<path d="M101.584 112.646L82.8969 101.86C80.9999 100.765 80.9999 98.9831 82.8969 97.8881L101.584 87.1025C103.481 86.0075 106.567 86.0075 108.465 87.1025L127.152 97.8886C129.049 98.9836 129.049 100.765 127.152 101.86L108.465 112.645C106.568 113.74 103.481 113.74 101.584 112.646ZM106.823 88.0505C105.831 87.4783 104.217 87.4783 103.226 88.0505L84.5389 98.836C83.5471 99.4082 83.5471 100.34 84.5389 100.912L103.226 111.698C104.218 112.27 105.831 112.27 106.823 111.698L125.51 100.912C126.502 100.34 126.502 99.4087 125.51 98.8365L106.823 88.0505Z" fill="url(#paint24_linear_23266_40344)"/>
<path opacity="0.4" d="M106.295 88.3561C105.594 87.9519 104.455 87.9514 103.754 88.3561L85.067 99.1416C84.3663 99.5458 84.3663 100.204 85.067 100.609L103.754 111.395C104.455 111.799 105.595 111.799 106.296 111.395L124.983 100.609C125.683 100.205 125.683 99.5469 124.983 99.1427L106.295 88.3561Z" fill="#03FFCF"/>
<path opacity="0.4" d="M129.321 100.336V93.9389L128.15 93.2878C127.819 95.2852 125.467 96.6019 123.501 96.8751L110.111 104.703L104.267 106.813L85.6142 97.1897L86.0454 96.9406C84.4512 96.1961 83.5926 94.4934 82.7302 92.9395L81.4743 93.6883L80.7285 93.8981V100.403C80.7285 101.233 81.2757 102.062 82.3694 102.694L101.057 113.48C103.245 114.743 106.805 114.743 108.993 113.48L127.68 102.694C128.756 102.073 129.303 101.261 129.32 100.445C129.321 100.408 129.319 100.372 129.318 100.335L129.321 100.336Z" fill="#03FFCF"/>
<path d="M129.321 94.648V90.4155L128.15 89.7644C127.819 91.7623 125.467 93.0779 123.501 93.3517L110.111 101.18L104.267 103.289L85.6142 93.6662L86.0454 93.4172C84.4512 92.6727 83.5926 90.97 82.7302 89.416L81.4743 90.1648L80.7285 90.3747V94.7156C80.7285 95.545 81.2757 96.3743 82.3694 97.0055L101.057 107.792C103.245 109.055 106.805 109.055 108.993 107.792L127.68 97.0061C128.756 96.385 129.303 95.5723 129.32 94.7564C129.321 94.7199 129.319 94.6834 129.318 94.6469L129.321 94.648Z" fill="url(#paint25_linear_23266_40344)"/>
<path opacity="0.3" d="M123.501 93.3513L110.11 101.179L105.024 103.015V108.739C106.461 108.739 107.898 108.423 108.993 107.792L127.679 97.0062C128.755 96.3851 129.302 95.5724 129.32 94.7565C129.32 94.72 129.319 94.6835 129.318 94.647L129.32 94.6481V90.4156L128.25 89.8203H128.138C127.773 91.786 125.448 93.0802 123.501 93.3513Z" fill="#02122B"/>
<path d="M86.045 93.4173L103.754 83.1965C104.454 82.7923 105.594 82.7923 106.295 83.1965L123.694 93.2386L123.501 93.3513C125.468 93.0776 127.819 91.7614 128.15 89.764L108.623 78.9071L102.942 77.4062L98.3153 80.1245L82.7305 89.4167C83.5917 90.9702 84.4508 92.6734 86.045 93.4173Z" fill="url(#paint26_linear_23266_40344)"/>
<path opacity="0.3" d="M105.025 77.9565L102.942 77.4062L98.3153 80.1245L82.7305 89.4167C83.5928 90.9702 84.4514 92.6734 86.0456 93.4179L103.754 83.197C104.104 82.9947 104.565 82.8938 105.025 82.8938V77.9565Z" fill="#02122B"/>
<path d="M101.057 103.492L82.3696 92.7061C80.1815 91.443 80.1815 89.3882 82.3696 88.1252L101.056 77.3397C103.244 76.0766 106.804 76.0772 108.992 77.3397L127.68 88.1257C129.868 89.3888 129.868 91.4436 127.68 92.7061L108.993 103.492C106.805 104.755 103.245 104.755 101.057 103.492ZM106.295 78.8969C105.595 78.4927 104.455 78.4927 103.754 78.8969L85.0672 89.6824C84.3665 90.0866 84.3665 90.7447 85.0672 91.1494L103.755 101.935C104.455 102.34 105.595 102.34 106.296 101.935L124.983 91.1499C125.683 90.7457 125.683 90.0877 124.983 89.6835L106.295 78.8969Z" fill="#0439C7"/>
<path d="M124.982 89.6832L106.295 78.8971C105.594 78.4929 104.454 78.4924 103.754 78.8971L85.0669 89.6826C84.5998 89.9521 84.4457 90.3348 84.6019 90.6794C84.6798 90.5071 84.8339 90.3445 85.0669 90.2097L103.754 79.4242C104.454 79.02 105.594 79.02 106.295 79.4242L124.982 90.2103C125.215 90.345 125.37 90.5077 125.447 90.68C125.604 90.3354 125.45 89.9526 124.982 89.6832Z" fill="white"/>
<path d="M127.68 92.7071L108.993 103.493C106.805 104.756 103.245 104.756 101.057 103.493L82.3701 92.7066C81.3923 92.1419 80.8526 91.4194 80.7485 90.6797C80.6201 91.5949 81.1598 92.5353 82.3701 93.2337L101.057 104.02C103.245 105.283 106.805 105.283 108.993 104.02L127.68 93.2342C128.891 92.5359 129.43 91.5954 129.301 90.6802C129.198 91.4199 128.658 92.1424 127.68 92.7071Z" fill="white"/>
<path d="M101.584 103.187L82.8969 92.4007C80.9999 91.3057 80.9999 89.5241 82.8969 88.4291L101.584 77.6435C103.481 76.5485 106.567 76.5485 108.465 77.6435L127.152 88.4296C129.049 89.5246 129.049 91.3062 127.152 92.4007L108.465 103.187C106.568 104.282 103.481 104.282 101.584 103.187ZM106.823 78.592C105.831 78.0198 104.217 78.0193 103.226 78.592L84.5389 89.3776C83.5471 89.9498 83.5471 90.8811 84.5389 91.4533L103.226 102.239C104.218 102.812 105.831 102.812 106.823 102.239L125.51 91.4538C126.502 90.8816 126.502 89.9503 125.51 89.3781L106.823 78.592Z" fill="url(#paint27_linear_23266_40344)"/>
<path opacity="0.4" d="M106.295 78.8969C105.594 78.4927 104.455 78.4927 103.754 78.8969L85.067 89.6824C84.3663 90.0866 84.3663 90.7447 85.067 91.1494L103.754 101.936C104.455 102.34 105.595 102.34 106.296 101.936L124.983 91.15C125.683 90.7458 125.683 90.0877 124.983 89.6835L106.295 78.8969Z" fill="#03FFCF"/>
<path opacity="0.4" d="M129.321 90.8768V84.4794L128.15 83.8283C127.819 85.8257 125.467 87.1424 123.501 87.4156L110.111 95.244L104.267 97.3536L85.6142 87.7307L86.0454 87.4816C84.4512 86.7371 83.5926 85.0339 82.7302 83.4805L81.4743 84.2293L80.7285 84.4392V90.9444C80.7285 91.7737 81.2757 92.6031 82.3694 93.2343L101.057 104.02C103.245 105.283 106.805 105.283 108.993 104.02L127.68 93.2348C128.756 92.6138 129.303 91.8011 129.32 90.9852C129.321 90.9487 129.319 90.9122 129.318 90.8757L129.321 90.8768Z" fill="#03FFCF"/>
<path d="M129.321 85.191V80.9585L128.15 80.3074C127.819 82.3053 125.467 83.6209 123.501 83.8947L110.111 91.7225L104.267 93.8321L85.6142 84.2092L86.0454 83.9602C84.4512 83.2156 83.5926 81.513 82.7302 79.959L81.4743 80.7078L80.7285 80.9171V85.2581C80.7285 86.0874 81.2757 86.9167 82.3694 87.548L101.057 98.3341C103.245 99.5971 106.805 99.5971 108.993 98.3341L127.68 87.5485C128.756 86.9275 129.303 86.1148 129.32 85.2989C129.321 85.2624 129.319 85.2259 129.318 85.1894L129.321 85.191Z" fill="url(#paint28_linear_23266_40344)"/>
<path opacity="0.3" d="M123.501 83.8942L110.11 91.7221L105.024 93.5584V99.2816C106.461 99.2816 107.898 98.9659 108.993 98.3347L127.679 87.5492C128.755 86.9281 129.302 86.1154 129.32 85.2995C129.32 85.263 129.319 85.2265 129.318 85.19L129.32 85.1911V80.9586L128.25 80.3633H128.138C127.773 82.3284 125.448 83.6231 123.501 83.8942Z" fill="#02122B"/>
<path d="M86.0455 83.9603L103.754 73.7395C104.455 73.3353 105.595 73.3353 106.295 73.7395L123.695 83.7816L123.502 83.8943C125.468 83.6205 127.82 82.3043 128.151 80.307L108.624 69.4501L102.942 67.9492L98.3158 70.6675L82.731 79.9597C83.5922 81.5131 84.4513 83.2158 86.0455 83.9603Z" fill="url(#paint29_linear_23266_40344)"/>
<path opacity="0.3" d="M105.025 68.4994L102.942 67.9492L98.3153 70.6675L82.7305 79.9597C83.5928 81.5131 84.4514 83.2163 86.0456 83.9608L103.754 73.74C104.104 73.5376 104.565 73.4367 105.025 73.4367V68.4994Z" fill="#02122B"/>
<path d="M101.057 94.0351L82.3696 83.249C80.1815 81.986 80.1815 79.9312 82.3696 78.6682L101.056 67.8826C103.244 66.6196 106.804 66.6201 108.992 67.8826L127.68 78.6687C129.868 79.9317 129.868 81.9865 127.68 83.249L108.993 94.0346C106.805 95.2976 103.245 95.2976 101.057 94.0351ZM106.295 69.4398C105.595 69.0356 104.455 69.0356 103.754 69.4398L85.0672 80.2254C84.3665 80.6296 84.3665 81.2876 85.0672 81.6924L103.755 92.4784C104.455 92.8826 105.595 92.8826 106.296 92.4784L124.983 81.6929C125.683 81.2887 125.683 80.6306 124.983 80.2264L106.295 69.4398Z" fill="url(#paint30_linear_23266_40344)"/>
<path d="M124.982 80.2259L106.295 69.4399C105.594 69.0357 104.454 69.0357 103.754 69.4399L85.0669 80.2254C84.5998 80.4954 84.4457 80.8776 84.6019 81.2227C84.6798 81.0504 84.8339 80.8878 85.0669 80.753L103.754 69.9675C104.454 69.5633 105.594 69.5633 106.295 69.9675L124.982 80.7536C125.215 80.8883 125.37 81.051 125.447 81.2233C125.604 80.8781 125.45 80.4954 124.982 80.2259Z" fill="white"/>
<path d="M127.68 83.2481L108.993 94.0337C106.805 95.2967 103.245 95.2967 101.057 94.0337L82.3701 83.2476C81.3923 82.6829 80.8526 81.9604 80.7485 81.2207C80.6201 82.1359 81.1598 83.0764 82.3701 83.7747L101.057 94.5608C103.245 95.8238 106.805 95.8238 108.993 94.5608L127.68 83.7752C128.891 83.0769 129.43 82.1365 129.301 81.2212C129.198 81.9615 128.658 82.684 127.68 83.2481Z" fill="white"/>
<path d="M101.584 93.7297L82.8969 82.9437C80.9999 81.8486 80.9999 80.0671 82.8969 78.972L101.584 68.1865C103.481 67.0915 106.567 67.0915 108.465 68.1865L127.152 78.9726C129.049 80.0676 129.049 81.8492 127.152 82.9437L108.465 93.7292C106.568 94.8248 103.481 94.8248 101.584 93.7297ZM106.823 69.1345C105.831 68.5622 104.217 68.5617 103.226 69.1345L84.5389 79.92C83.5471 80.4922 83.5471 81.4235 84.5389 81.9963L103.226 92.7823C104.218 93.3545 105.831 93.3545 106.823 92.7823L125.51 81.9968C126.502 81.4246 126.502 80.4933 125.51 79.9211L106.823 69.1345Z" fill="url(#paint31_linear_23266_40344)"/>
<path opacity="0.4" d="M106.295 69.4399C105.594 69.0357 104.455 69.0357 103.754 69.4399L85.067 80.2254C84.3663 80.6296 84.3663 81.2877 85.067 81.6924L103.754 92.4785C104.455 92.8827 105.595 92.8827 106.296 92.4785L124.983 81.6929C125.683 81.2888 125.683 80.6307 124.983 80.2265L106.295 69.4399Z" fill="#03FFCF"/>
</g>
</g>
<path opacity="0.8" d="M116.388 112.59C115.89 112.59 115.368 112.467 114.951 112.226L49.8392 74.6458C49.4155 74.401 49.1729 74.066 49.1729 73.7262C49.1729 73.4348 49.3484 73.1734 49.6663 72.9898L88.5208 50.5642C89.1904 50.1777 90.3158 50.2212 91.082 50.664L156.194 88.2445C156.617 88.4893 156.86 88.8243 156.86 89.164C156.86 89.4555 156.684 89.7169 156.367 89.901L117.512 112.327C117.207 112.503 116.806 112.59 116.388 112.59ZM49.9933 74.3795L115.105 111.96C115.774 112.347 116.785 112.391 117.36 112.06L156.214 89.6343C156.369 89.5446 156.554 89.3906 156.554 89.1635C156.554 88.9365 156.367 88.6987 156.041 88.5103L90.9295 50.9297C90.2605 50.5427 89.2494 50.4982 88.6754 50.8299L49.8209 73.2555C49.6658 73.3446 49.4811 73.4986 49.4811 73.7257C49.4805 73.9533 49.6674 74.1916 49.9933 74.3795Z" fill="url(#paint32_linear_23266_40344)"/>
<path d="M49.9168 75.604L115.028 113.185C115.741 113.596 116.819 113.641 117.437 113.284L156.291 90.8588C156.509 90.7332 156.635 90.5743 156.683 90.4036C156.752 90.68 156.629 90.9548 156.291 91.1502L117.437 113.576C116.819 113.932 115.742 113.887 115.028 113.476L49.9168 75.896C49.455 75.6292 49.2644 75.275 49.3524 74.9609C49.4094 75.1891 49.5941 75.4183 49.9168 75.604Z" fill="white"/>
<g opacity="0.15">
<mask id="mask1_23266_40344" style="mask-type:luminance" maskUnits="userSpaceOnUse" x="90" y="1" width="76" height="89">
<path d="M165.053 39.7745L98.964 1.64648L90.6602 51.0018L156.707 89.1046L165.053 39.7745Z" fill="white"/>
</mask>
<g mask="url(#mask1_23266_40344)">
<path d="M90.6309 51.6928L94.2209 53.5672L130.218 32.7911C130.82 32.4438 131.872 32.4873 132.567 32.8883L194.652 68.7216C195.246 68.3893 197.955 67.0871 197.955 67.0871L196.641 69.2224C196.641 69.2224 196.636 69.2187 196.635 69.2181C196.581 69.3706 196.464 69.5123 196.268 69.6255L158.356 91.5069C157.754 91.8547 156.702 91.8107 156.007 91.4097L92.4742 54.7406C92.1885 54.5758 92.0135 54.3762 91.941 54.1743L91.9362 54.1775L90.6309 51.6928Z" fill="url(#paint33_linear_23266_40344)"/>
<path d="M91.186 52.2824L156.298 89.8629C157.01 90.2741 158.088 90.3192 158.706 89.9627L197.56 67.5371C198.177 67.1807 198.1 66.5586 197.387 66.1474L132.276 28.5669C131.563 28.1557 130.485 28.1106 129.868 28.4671L91.0131 50.8927C90.3956 51.2485 90.4729 51.8707 91.186 52.2824Z" fill="url(#paint34_linear_23266_40344)"/>
<path d="M91.186 52.2824L156.298 89.8629C157.01 90.2741 158.088 90.3192 158.706 89.9627L197.56 67.5371C198.177 67.1807 198.1 66.5586 197.387 66.1474L132.276 28.5669C131.563 28.1557 130.485 28.1106 129.868 28.4671L91.0131 50.8927C90.3956 51.2485 90.4729 51.8707 91.186 52.2824Z" fill="#001B62"/>
<path opacity="0.51" d="M91.186 52.2824L156.298 89.8629C157.01 90.2741 158.088 90.3192 158.706 89.9627L197.56 67.5371C198.177 67.1807 198.1 66.5586 197.387 66.1474L132.276 28.5669C131.563 28.1557 130.485 28.1106 129.868 28.4671L91.0131 50.8927C90.3956 51.2485 90.4729 51.8707 91.186 52.2824Z" fill="#0B40CE"/>
<path d="M197.387 66.147L132.275 28.5664C131.817 28.3018 131.207 28.1912 130.667 28.2395C131.067 28.2707 131.469 28.3786 131.796 28.5664L196.907 66.147C197.62 66.5581 197.697 67.1803 197.08 67.5367L158.226 89.9623C158.006 90.089 157.726 90.1631 157.427 90.1899C157.901 90.2269 158.371 90.1555 158.706 89.9623L197.56 67.5367C198.177 67.1808 198.1 66.5587 197.387 66.147Z" fill="white"/>
</g>
<mask id="mask2_23266_40344" style="mask-type:luminance" maskUnits="userSpaceOnUse" x="90" y="1" width="76" height="89">
<path d="M165.053 39.7745L98.964 1.64648L90.6602 51.0018L156.707 89.1046L165.053 39.7745Z" fill="white"/>
</mask>
<g mask="url(#mask2_23266_40344)">
<path opacity="0.4" d="M139.171 73.5579L120.484 62.7718C118.587 61.6768 118.587 59.8952 120.484 58.8002L139.171 48.0146C141.068 46.9196 144.154 46.9196 146.052 48.0146L164.739 58.8007C166.636 59.8957 166.636 61.6773 164.739 62.7718L146.052 73.5573C144.155 74.6529 141.068 74.6529 139.171 73.5579Z" fill="#001B62"/>
</g>
<mask id="mask3_23266_40344" style="mask-type:luminance" maskUnits="userSpaceOnUse" x="90" y="1" width="76" height="89">
<path d="M165.053 39.7745L98.964 1.64648L90.6602 51.0018L156.707 89.1046L165.053 39.7745Z" fill="white"/>
</mask>
<g mask="url(#mask3_23266_40344)">
<path d="M166.865 57.7476V53.5151L165.694 52.864C165.364 54.8613 163.012 56.1781 161.046 56.4513L147.655 64.2792L141.812 66.3887L123.159 56.7659L123.59 56.5168C121.996 55.7723 121.137 54.0696 120.275 52.5156L119.019 53.2644L118.273 53.4743V57.8152C118.273 58.6446 118.82 59.4739 119.914 60.1057L138.601 70.8918C140.789 72.1548 144.349 72.1548 146.537 70.8918L165.224 60.1062C166.3 59.4852 166.847 58.6725 166.864 57.8566C166.865 57.8201 166.863 57.7836 166.862 57.7471L166.865 57.7476Z" fill="url(#paint35_linear_23266_40344)"/>
<path opacity="0.3" d="M161.046 56.4514L147.655 64.2793L142.569 66.1156V71.8387C144.006 71.8387 145.443 71.5231 146.537 70.8913L165.224 60.1058C166.3 59.4847 166.847 58.6721 166.865 57.8562C166.865 57.8197 166.863 57.7832 166.862 57.7467L166.865 57.7477V53.5152L165.795 52.9199H165.683C165.318 54.8861 162.994 56.1803 161.046 56.4514Z" fill="#02122B"/>
<path d="M123.59 56.5169L141.298 46.2961C141.999 45.8919 143.139 45.8919 143.839 46.2961L161.239 56.3382L161.046 56.4509C163.012 56.1772 165.364 54.861 165.695 52.8636L146.168 42.0067L140.486 40.5059L135.86 43.2241L120.274 52.5163C121.136 54.0698 121.995 55.7724 123.59 56.5169Z" fill="url(#paint36_linear_23266_40344)"/>
<path opacity="0.3" d="M142.569 41.0561L140.486 40.5059L135.859 43.2241L120.274 52.5163C121.136 54.0698 121.995 55.773 123.589 56.5175L141.298 46.2966C141.648 46.0943 142.108 45.9934 142.568 45.9934L142.569 41.0561Z" fill="#02122B"/>
<path d="M138.601 66.5915L119.914 55.8055C117.725 54.5424 117.725 52.4876 119.914 51.2246L138.6 40.4391C140.788 39.1766 144.348 39.1766 146.536 40.4391L165.224 51.2251C167.412 52.4882 167.412 54.543 165.224 55.8055L146.537 66.591C144.349 67.854 140.789 67.8541 138.601 66.5915ZM143.839 41.9963C143.139 41.5921 141.999 41.5921 141.298 41.9963L122.611 52.7818C121.91 53.186 121.91 53.8441 122.611 54.2488L141.298 65.0349C141.999 65.4391 143.139 65.4391 143.84 65.0349L162.527 54.2493C163.227 53.8452 163.227 53.1871 162.527 52.7829L143.839 41.9963Z" fill="#0439C7"/>
<path d="M162.527 52.7826L143.839 41.9965C143.139 41.5923 141.999 41.5923 141.298 41.9965L122.611 52.782C122.144 53.052 121.99 53.4342 122.146 53.7788C122.224 53.6065 122.378 53.4439 122.611 53.3091L141.298 42.5236C141.999 42.1194 143.139 42.1194 143.839 42.5236L162.527 53.3097C162.76 53.4444 162.914 53.6071 162.992 53.7794C163.148 53.4348 162.995 53.052 162.527 52.7826Z" fill="white"/>
<path d="M165.224 55.8067L146.537 66.5922C144.349 67.8553 140.789 67.8553 138.601 66.5922L119.914 55.8062C118.936 55.2415 118.397 54.519 118.292 53.7793C118.164 54.6945 118.704 55.635 119.914 56.3333L138.601 67.1194C140.789 68.3824 144.349 68.3824 146.537 67.1194L165.224 56.3338C166.434 55.6355 166.974 54.695 166.845 53.7798C166.742 54.5195 166.202 55.242 165.224 55.8067Z" fill="white"/>
<path d="M139.129 66.2864L120.442 55.5003C118.545 54.4053 118.545 52.6237 120.442 51.5287L139.129 40.7431C141.026 39.6481 144.112 39.6481 146.01 40.7431L164.697 51.5292C166.594 52.6242 166.594 54.4058 164.697 55.5003L146.01 66.2858C144.113 67.3814 141.026 67.3814 139.129 66.2864ZM144.368 41.6911C143.376 41.1189 141.762 41.1189 140.771 41.6911L122.084 52.4766C121.093 53.0488 121.093 53.9802 122.084 54.5529L140.772 65.339C141.763 65.9112 143.377 65.9112 144.368 65.339L163.055 54.5534C164.047 53.9812 164.047 53.0499 163.055 52.4777L144.368 41.6911Z" fill="url(#paint37_linear_23266_40344)"/>
<path opacity="0.4" d="M143.84 41.9965C143.139 41.5923 141.999 41.5923 141.298 41.9965L122.611 52.782C121.911 53.1862 121.911 53.8443 122.611 54.2491L141.299 65.0351C142 65.4393 143.139 65.4393 143.84 65.0351L162.527 54.2496C163.228 53.8454 163.228 53.1873 162.527 52.7831L143.84 41.9965Z" fill="#03FFCF"/>
<path opacity="0.4" d="M166.865 53.975V47.5776L165.694 46.9265C165.364 48.9244 163.012 50.24 161.046 50.5138L147.655 58.3417L141.812 60.4512L123.159 50.8284L123.59 50.5793C121.996 49.8348 121.137 48.1316 120.275 46.5781L119.019 47.3269L118.273 47.5368V54.0421C118.273 54.8714 118.82 55.7007 119.914 56.332L138.601 67.118C140.789 68.3811 144.349 68.3811 146.537 67.118L165.224 56.3325C166.3 55.7114 166.847 54.8988 166.864 54.0829C166.865 54.0464 166.863 54.0099 166.862 53.9734L166.865 53.975Z" fill="#03FFCF"/>
<path d="M166.866 48.2906V44.0581L165.695 43.407C165.364 45.4043 163.012 46.721 161.046 46.9943L147.656 54.8221L141.812 56.9317L123.159 47.3088L123.59 47.0598C121.996 46.3152 121.138 44.6126 120.275 43.0586L119.019 43.8074L118.273 44.0173V48.3582C118.273 49.1876 118.821 50.0169 119.914 50.6487L138.602 61.4347C140.79 62.6978 144.35 62.6978 146.538 61.4347L165.225 50.6492C166.301 50.0282 166.848 49.2155 166.865 48.3996C166.865 48.3631 166.864 48.3266 166.863 48.2906H166.866Z" fill="url(#paint38_linear_23266_40344)"/>
<path opacity="0.3" d="M161.046 46.9933L147.655 54.8217L142.569 56.658V62.3812C144.006 62.3812 145.443 62.0655 146.537 61.4338L165.224 50.6482C166.3 50.0272 166.847 49.2145 166.865 48.3986C166.865 48.3621 166.863 48.3256 166.862 48.2896L166.865 48.2907V44.0582L165.795 43.4629H165.683C165.318 45.428 162.994 46.7228 161.046 46.9933Z" fill="#02122B"/>
<path d="M123.59 47.0599L141.298 36.8391C141.999 36.4349 143.139 36.4349 143.84 36.8391L161.239 46.8812L161.046 46.9939C163.013 46.7201 165.364 45.4039 165.695 43.4066L146.168 32.5497L140.487 31.0488L135.86 33.7671L120.275 43.0593C121.137 44.6122 121.996 46.3154 123.59 47.0599Z" fill="url(#paint39_linear_23266_40344)"/>
<path opacity="0.3" d="M142.569 31.599L140.486 31.0488L135.86 33.7671L120.274 43.0593C121.137 44.6127 121.995 46.3159 123.59 47.0604L141.298 36.8396C141.648 36.6372 142.109 36.5363 142.569 36.5363L142.569 31.599Z" fill="#02122B"/>
<path d="M138.601 57.133L119.914 46.3469C117.726 45.0839 117.726 43.0291 119.914 41.766L138.601 30.9805C140.789 29.7174 144.349 29.7174 146.537 30.9805L165.224 41.7666C167.412 43.0296 167.412 45.0844 165.224 46.3469L146.537 57.1324C144.35 58.396 140.789 58.396 138.601 57.133ZM143.84 32.5382C143.139 32.134 141.999 32.1335 141.298 32.5382L122.612 43.3237C121.911 43.7279 121.911 44.386 122.612 44.7902L141.299 55.5763C142 55.9805 143.14 55.9805 143.84 55.5763L162.527 44.7908C163.228 44.3866 163.228 43.7285 162.527 43.3243L143.84 32.5382Z" fill="#0439C7"/>
<path d="M162.527 43.3238L143.84 32.5377C143.139 32.1335 141.999 32.133 141.299 32.5377L122.612 43.3233C122.145 43.5933 121.991 43.9754 122.147 44.32C122.225 44.1477 122.379 43.9851 122.612 43.8504L141.299 33.0648C141.999 32.6606 143.139 32.6606 143.84 33.0648L162.527 43.8509C162.76 43.9856 162.914 44.1483 162.992 44.3206C163.149 43.976 162.995 43.5938 162.527 43.3238Z" fill="white"/>
<path d="M165.225 46.3477L146.538 57.1333C144.35 58.3963 140.789 58.3963 138.602 57.1333L119.914 46.3472C118.936 45.7825 118.397 45.06 118.293 44.3203C118.165 45.2355 118.704 46.176 119.914 46.8743L138.602 57.6604C140.79 58.9234 144.35 58.9234 146.538 57.6604L165.225 46.8749C166.435 46.1765 166.974 45.2361 166.846 44.3209C166.742 45.0605 166.202 45.7836 165.225 46.3477Z" fill="white"/>
<path d="M139.129 56.8293L120.442 46.0433C118.545 44.9482 118.545 43.1667 120.442 42.0716L139.129 31.2861C141.026 30.1911 144.112 30.1911 146.01 31.2861L164.697 42.0722C166.594 43.1672 166.594 44.9488 164.697 46.0433L146.01 56.8288C144.113 57.9244 141.026 57.9244 139.129 56.8293ZM144.368 32.2341C143.376 31.6619 141.762 31.6619 140.771 32.2341L122.084 43.0196C121.093 43.5918 121.093 44.5231 122.084 45.0959L140.772 55.8819C141.763 56.4541 143.377 56.4541 144.368 55.8819L163.055 45.0964C164.047 44.5242 164.047 43.5929 163.055 43.0207L144.368 32.2341Z" fill="url(#paint40_linear_23266_40344)"/>
<path opacity="0.4" d="M143.84 32.5377C143.139 32.1335 141.999 32.133 141.298 32.5377L122.611 43.3232C121.911 43.7274 121.911 44.3855 122.611 44.7897L141.299 55.5758C142 55.98 143.139 55.98 143.84 55.5758L162.527 44.7903C163.228 44.3861 163.228 43.728 162.527 43.3238L143.84 32.5377Z" fill="#03FFCF"/>
<path opacity="0.4" d="M166.865 44.5179V38.1206L165.694 37.4695C165.364 39.4674 163.012 40.783 161.046 41.0568L147.655 48.8846L141.812 50.9942L123.159 41.3713L123.59 41.1223C121.996 40.3777 121.137 38.6751 120.275 37.1211L119.019 37.8699L118.273 38.0798V44.585C118.273 45.4143 118.82 46.2437 119.914 46.8749L138.601 57.661C140.789 58.924 144.349 58.924 146.537 57.661L165.224 46.8755C166.3 46.2544 166.847 45.4417 166.864 44.6258C166.865 44.5893 166.863 44.5528 166.862 44.5163L166.865 44.5179Z" fill="#03FFCF"/>
<path d="M166.865 38.8297V34.5971L165.694 33.946C165.364 35.9434 163.012 37.2601 161.046 37.5333L147.655 45.3612L141.812 47.4707L123.159 37.8479L123.59 37.5988C121.996 36.8543 121.137 35.1511 120.275 33.5977L119.019 34.3465L118.273 34.5558V38.8968C118.273 39.7261 118.82 40.5554 119.914 41.1872L138.601 51.9733C140.789 53.2363 144.349 53.2363 146.537 51.9733L165.224 41.1877C166.3 40.5667 166.847 39.754 166.864 38.9381C166.865 38.9016 166.863 38.8651 166.862 38.8291L166.865 38.8297Z" fill="url(#paint41_linear_23266_40344)"/>
<path opacity="0.3" d="M161.046 37.5343L147.655 45.3622L142.569 47.1985V52.9217C144.006 52.9217 145.443 52.606 146.537 51.9742L165.224 41.1887C166.3 40.5677 166.847 39.755 166.865 38.9391C166.865 38.9026 166.863 38.8661 166.862 38.8301L166.865 38.8312V34.5987L165.795 34.0039H165.683C165.318 35.9691 162.994 37.2632 161.046 37.5343Z" fill="#02122B"/>
<path d="M123.59 37.6009L141.298 27.3801C141.999 26.9759 143.139 26.9759 143.839 27.3801L161.239 37.4222L161.046 37.5349C163.012 37.2611 165.364 35.945 165.695 33.9476L146.168 23.0907L140.486 21.5898L135.86 24.3081L120.274 33.6003C121.136 35.1532 121.995 36.8564 123.59 37.6009Z" fill="url(#paint42_linear_23266_40344)"/>
<path opacity="0.3" d="M142.569 22.14L140.486 21.5898L135.859 24.3081L120.274 33.6003C121.136 35.1537 121.995 36.8569 123.589 37.6015L141.298 27.3806C141.648 27.1783 142.108 27.0773 142.568 27.0773L142.569 22.14Z" fill="#02122B"/>
<path d="M138.601 47.674L119.914 36.8879C117.725 35.6249 117.725 33.5701 119.914 32.307L138.6 21.5215C140.788 20.2585 144.348 20.2585 146.536 21.5215L165.224 32.3076C167.412 33.5706 167.412 35.6254 165.224 36.8879L146.537 47.6734C144.349 48.937 140.789 48.937 138.601 47.674ZM143.839 23.0787C143.139 22.6745 141.999 22.674 141.298 23.0787L122.611 33.8642C121.91 34.2684 121.91 34.9265 122.611 35.3307L141.298 46.1168C141.999 46.521 143.139 46.521 143.84 46.1168L162.527 35.3312C163.227 34.9271 163.227 34.269 162.527 33.8648L143.839 23.0787Z" fill="#0439C7"/>
<path d="M162.527 33.8648L143.839 23.0787C143.139 22.6745 141.999 22.674 141.298 23.0787L122.611 33.8643C122.144 34.1337 121.99 34.5165 122.146 34.8611C122.224 34.6888 122.378 34.5261 122.611 34.3914L141.298 23.6059C141.999 23.2017 143.139 23.2017 143.839 23.6059L162.527 34.3919C162.76 34.5267 162.914 34.6893 162.992 34.8616C163.148 34.517 162.995 34.1348 162.527 33.8648Z" fill="white"/>
<path d="M165.224 36.8887L146.537 47.6743C144.349 48.9373 140.789 48.9373 138.601 47.6743L119.914 36.8882C118.936 36.3235 118.397 35.601 118.292 34.8613C118.164 35.7765 118.704 36.717 119.914 37.4153L138.601 48.2014C140.789 49.4644 144.349 49.4644 146.537 48.2014L165.224 37.4159C166.434 36.7175 166.974 35.7771 166.845 34.8619C166.742 35.6015 166.202 36.3241 165.224 36.8887Z" fill="white"/>
<path d="M139.129 47.3684L120.442 36.5823C118.545 35.4873 118.545 33.7057 120.442 32.6107L139.129 21.8252C141.026 20.7301 144.112 20.7301 146.01 21.8252L164.697 32.6112C166.594 33.7063 166.594 35.4879 164.697 36.5823L146.01 47.3679C144.113 48.4629 141.026 48.4629 139.129 47.3684ZM144.368 22.7731C143.376 22.2009 141.762 22.2009 140.771 22.7731L122.084 33.5587C121.093 34.1309 121.093 35.0622 122.084 35.6349L140.772 46.421C141.763 46.9932 143.377 46.9932 144.368 46.421L163.055 35.6355C164.047 35.0633 164.047 34.1319 163.055 33.5597L144.368 22.7731Z" fill="url(#paint43_linear_23266_40344)"/>
<path opacity="0.4" d="M143.84 23.0787C143.139 22.6745 141.999 22.674 141.298 23.0787L122.611 33.8643C121.911 34.2685 121.911 34.9266 122.611 35.3308L141.299 46.1168C142 46.521 143.139 46.521 143.84 46.1168L162.527 35.3313C163.228 34.9271 163.228 34.269 162.527 33.8648L143.84 23.0787Z" fill="#03FFCF"/>
<path opacity="0.4" d="M166.865 35.057V28.6596L165.694 28.0085C165.364 30.0064 163.012 31.3226 161.046 31.5958L147.655 39.4237L141.812 41.5332L123.159 31.9104L123.59 31.6613C121.996 30.9168 121.137 29.2136 120.275 27.6602L119.019 28.409L118.273 28.6188V35.1241C118.273 35.9534 118.82 36.7827 119.914 37.414L138.601 48.2001C140.789 49.4631 144.349 49.4631 146.537 48.2001L165.224 37.4145C166.3 36.7935 166.847 35.9808 166.864 35.1649C166.865 35.1284 166.863 35.0919 166.862 35.0559L166.865 35.057Z" fill="#03FFCF"/>
<path d="M166.866 29.3687V25.1362L165.695 24.4851C165.364 26.483 163.012 27.7992 161.046 28.0724L147.656 35.9003L141.812 38.0098L123.159 28.3869L123.59 28.1379C121.996 27.3934 121.138 25.6902 120.275 24.1367L119.019 24.8855L118.273 25.0949V29.4358C118.273 30.2651 118.821 31.0945 119.914 31.7257L138.602 42.5118C140.79 43.7748 144.35 43.7748 146.538 42.5118L165.225 31.7263C166.301 31.1052 166.848 30.2925 166.865 29.4766C166.865 29.4401 166.864 29.4036 166.863 29.3671L166.866 29.3687Z" fill="url(#paint44_linear_23266_40344)"/>
<path opacity="0.3" d="M161.046 28.0734L147.655 35.9012L142.569 37.7376V43.4607C144.006 43.4607 145.443 43.1451 146.537 42.5138L165.224 31.7283C166.3 31.1073 166.847 30.2946 166.865 29.4787C166.865 29.4422 166.863 29.4057 166.862 29.3692L166.865 29.3702V25.1377L165.795 24.543H165.683C165.318 26.5081 162.994 27.8023 161.046 28.0734Z" fill="#02122B"/>
<path d="M123.59 28.138L141.298 17.9172C141.999 17.513 143.139 17.513 143.84 17.9172L161.239 27.9593L161.046 28.072C163.013 27.7983 165.364 26.4821 165.695 24.4847L146.168 13.6278L140.487 12.127L135.86 14.8452L120.275 24.1374C121.137 25.6909 121.996 27.3941 123.59 28.138Z" fill="url(#paint45_linear_23266_40344)"/>
<path opacity="0.3" d="M142.569 12.6772L140.486 12.127L135.86 14.8452L120.274 24.1374C121.137 25.6909 121.995 27.3941 123.59 28.1386L141.298 17.9177C141.648 17.7154 142.109 17.6145 142.569 17.6145L142.569 12.6772Z" fill="#02122B"/>
<path d="M138.601 38.213L119.914 27.427C117.726 26.1639 117.726 24.1091 119.914 22.8461L138.601 12.0606C140.789 10.7975 144.349 10.7975 146.537 12.0606L165.224 22.8466C167.412 24.1097 167.412 26.1645 165.224 27.427L146.537 38.2125C144.35 39.4755 140.789 39.4755 138.601 38.213ZM143.84 13.6178C143.139 13.2136 141.999 13.213 141.298 13.6178L122.612 24.4033C121.911 24.8075 121.911 25.4656 122.612 25.8703L141.299 36.6564C142 37.0606 143.14 37.0606 143.84 36.6564L162.527 25.8708C163.228 25.4667 163.228 24.8086 162.527 24.4044L143.84 13.6178Z" fill="url(#paint46_linear_23266_40344)"/>
<path d="M162.527 24.4039L143.84 13.6178C143.139 13.2136 141.999 13.2131 141.299 13.6178L122.612 24.4033C122.145 24.6733 121.991 25.0555 122.147 25.4007C122.225 25.2284 122.379 25.0657 122.612 24.931L141.299 14.1455C141.999 13.7413 143.139 13.7413 143.84 14.1455L162.527 24.9315C162.76 25.0662 162.914 25.2289 162.992 25.4012C163.149 25.0561 162.995 24.6733 162.527 24.4039Z" fill="white"/>
<path d="M165.225 27.4259L146.538 38.2114C144.35 39.4744 140.789 39.4744 138.602 38.2114L119.914 27.4253C118.936 26.8606 118.397 26.1381 118.293 25.3984C118.165 26.3136 118.704 27.2541 119.914 27.9524L138.602 38.7385C140.79 40.0015 144.35 40.0015 146.538 38.7385L165.225 27.953C166.435 27.2546 166.974 26.3142 166.846 25.399C166.742 26.1387 166.202 26.8612 165.225 27.4259Z" fill="white"/>
<path d="M139.129 37.9075L120.442 27.1214C118.545 26.0264 118.545 24.2448 120.442 23.1498L139.129 12.3642C141.026 11.2692 144.112 11.2692 146.01 12.3642L164.697 23.1503C166.594 24.2453 166.594 26.0269 164.697 27.1214L146.01 37.9069C144.113 39.0025 141.026 39.0025 139.129 37.9075ZM144.368 13.3127C143.376 12.7405 141.762 12.7405 140.771 13.3127L122.084 24.0983C121.093 24.6705 121.093 25.6018 122.084 26.1745L140.772 36.9606C141.763 37.5328 143.377 37.5328 144.368 36.9606L163.055 26.1751C164.047 25.6029 164.047 24.6715 163.055 24.0993L144.368 13.3127Z" fill="url(#paint47_linear_23266_40344)"/>
<path opacity="0.4" d="M143.84 13.6178C143.139 13.2136 141.999 13.2131 141.298 13.6178L122.611 24.4033C121.911 24.8075 121.911 25.4656 122.611 25.8703L141.299 36.6564C142 37.0606 143.139 37.0606 143.84 36.6564L162.527 25.8709C163.228 25.4667 163.228 24.8086 162.527 24.4044L143.84 13.6178Z" fill="#03FFCF"/>
</g>
</g>
<path d="M153.893 42.1707C153.737 42.1707 153.571 42.124 153.412 42.0322C152.923 41.7504 152.62 41.1116 152.737 40.6087C152.793 40.366 152.937 40.1835 153.142 40.0944C153.369 39.9957 153.648 40.0257 153.907 40.1755C154.396 40.4568 154.699 41.0961 154.582 41.5985C154.527 41.8411 154.383 42.0242 154.177 42.1133C154.089 42.1514 153.993 42.1707 153.893 42.1707ZM153.426 40.2581C153.356 40.2581 153.29 40.271 153.23 40.2968C153.091 40.3569 152.993 40.4857 152.953 40.6586C152.857 41.0735 153.112 41.6039 153.523 41.84C153.721 41.9549 153.927 41.9796 154.09 41.9098C154.229 41.8497 154.327 41.7214 154.368 41.5491V41.5486C154.464 41.1336 154.208 40.6033 153.797 40.3671C153.672 40.2947 153.544 40.2581 153.426 40.2581Z" fill="#03FFCF"/>
<path d="M156.526 43.69C156.369 43.69 156.203 43.6433 156.045 43.5515C155.556 43.2702 155.253 42.6309 155.37 42.128C155.426 41.8859 155.569 41.7028 155.774 41.6137C156 41.5155 156.28 41.545 156.54 41.6948C157.028 41.976 157.331 42.6148 157.215 43.1178V43.1183C157.159 43.3604 157.015 43.5434 156.81 43.6326C156.722 43.6707 156.626 43.69 156.526 43.69ZM156.059 41.7774C155.989 41.7774 155.923 41.7903 155.862 41.8161C155.724 41.8767 155.625 42.005 155.585 42.1773C155.489 42.5928 155.744 43.1231 156.155 43.3593C156.353 43.4742 156.56 43.4994 156.721 43.4291C156.86 43.369 156.958 43.2407 156.999 43.0679C157.094 42.6529 156.839 42.1226 156.429 41.8864C156.304 41.8139 156.177 41.7774 156.059 41.7774Z" fill="#03FFCF"/>
<path d="M159.739 44.6122C159.632 45.0722 159.181 45.2343 158.731 44.9745C158.281 44.7147 158.003 44.1312 158.109 43.6717C158.215 43.2117 158.666 43.0496 159.116 43.3094C159.566 43.5692 159.845 44.1527 159.739 44.6122Z" fill="#03FFCF"/>
<path d="M109.273 15.5799L107.865 14.7678L107.975 14.1172L109.382 14.9299L109.273 15.5799Z" fill="#03FFCF"/>
<path d="M111.319 16.7601L109.911 15.9475L110.021 15.2969L111.428 16.1096L111.319 16.7601Z" fill="#03FFCF"/>
<path d="M107.249 14.4126L104.161 12.631L104.271 11.9805L107.358 13.762L107.249 14.4126Z" fill="#03FFCF"/>
<path opacity="0.8" d="M101.468 94.4146L82.1444 83.2619C80.183 82.1298 80.183 80.2876 82.1444 79.1555L101.467 68.0033C103.428 66.8713 106.62 66.8713 108.582 68.0033L127.905 79.156C129.866 80.2881 129.866 82.1303 127.905 83.2624L108.582 94.4146C106.621 95.5466 103.429 95.5466 101.468 94.4146Z" fill="#001B62"/>
<path d="M129.321 78.6109V74.3784L128.15 73.7273C127.819 75.7252 125.467 77.0408 123.501 77.3146L110.111 85.1424L104.267 87.252L85.6142 77.6291L86.0454 77.3801C84.4512 76.6355 83.5926 74.9329 82.7302 73.3789L81.4743 74.1277L80.7285 74.3376V78.6785C80.7285 79.5079 81.2757 80.3372 82.3694 80.9684L101.057 91.7545C103.245 93.0176 106.805 93.0176 108.993 91.7545L127.68 80.969C128.756 80.3479 129.303 79.5352 129.32 78.7193C129.321 78.6828 129.319 78.6463 129.318 78.6104L129.321 78.6109Z" fill="url(#paint48_linear_23266_40344)"/>
<path opacity="0.3" d="M123.501 77.3156L110.11 85.1434L105.024 86.9798V92.7029C106.461 92.7029 107.898 92.3873 108.993 91.756L127.679 80.9705C128.755 80.3494 129.302 79.5368 129.32 78.7209C129.32 78.6844 129.319 78.6479 129.318 78.6119L129.32 78.613V74.3805L128.25 73.7852H128.138C127.773 75.7503 125.448 77.0445 123.501 77.3156Z" fill="#02122B"/>
<path d="M86.0455 77.3816L103.754 67.1608C104.455 66.7566 105.595 66.7566 106.295 67.1608L123.695 77.2034L123.502 77.3162C125.468 77.0424 127.82 75.7262 128.151 73.7289L108.624 62.8719L102.942 61.3711L98.3158 64.0893L82.731 73.3816C83.5922 74.9345 84.4513 76.6377 86.0455 77.3816Z" fill="url(#paint49_linear_23266_40344)"/>
<path opacity="0.3" d="M105.025 61.9193L102.942 61.3691L98.3153 64.0874L82.7305 73.3796C83.5928 74.933 84.4514 76.6363 86.0456 77.3808L103.754 67.1599C104.104 66.9576 104.565 66.8566 105.025 66.8566V61.9193Z" fill="#02122B"/>
<path d="M101.057 87.455L82.3696 76.669C80.1815 75.4059 80.1815 73.3511 82.3696 72.0881L101.056 61.3026C103.244 60.0395 106.804 60.04 108.992 61.3026L127.68 72.0886C129.868 73.3517 129.868 75.4065 127.68 76.669L108.993 87.4545C106.805 88.7181 103.245 88.7175 101.057 87.455ZM106.295 62.8598C105.595 62.4556 104.455 62.455 103.754 62.8598L85.0672 73.6453C84.3665 74.0495 84.3665 74.7076 85.0672 75.1118L103.755 85.8978C104.455 86.302 105.595 86.302 106.296 85.8978L124.983 75.1123C125.683 74.7081 125.683 74.05 124.983 73.6458L106.295 62.8598Z" fill="#C71004"/>
<path d="M124.982 73.6461L106.295 62.86C105.594 62.4558 104.454 62.4553 103.754 62.86L85.0669 73.6455C84.5998 73.915 84.4457 74.2977 84.6019 74.6423C84.6798 74.47 84.8339 74.3074 85.0669 74.1726L103.754 63.3871C104.454 62.9829 105.594 62.9829 106.295 63.3871L124.982 74.1732C125.215 74.3079 125.37 74.4705 125.447 74.6429C125.604 74.2982 125.45 73.9155 124.982 73.6461Z" fill="white"/>
<path d="M127.68 76.67L108.993 87.4555C106.805 88.7186 103.245 88.7186 101.057 87.4555L82.3701 76.6695C81.3923 76.1048 80.8526 75.3823 80.7485 74.6426C80.6201 75.5578 81.1598 76.4982 82.3701 77.1966L101.057 87.9826C103.245 89.2457 106.805 89.2457 108.993 87.9826L127.68 77.1971C128.891 76.4988 129.43 75.5583 129.301 74.6431C129.198 75.3828 128.658 76.1053 127.68 76.67Z" fill="white"/>
<path d="M101.585 87.1497L82.8979 76.3636C81.0008 75.2686 81.0008 73.487 82.8979 72.392L101.585 61.6064C103.482 60.5114 106.568 60.5114 108.466 61.6064L127.153 72.3925C129.05 73.4875 129.05 75.2691 127.153 76.3636L108.466 87.1491C106.569 88.2447 103.482 88.2447 101.585 87.1497ZM106.824 62.5549C105.832 61.9827 104.218 61.9827 103.227 62.5549L84.5398 73.3404C83.5481 73.9127 83.5481 74.844 84.5398 75.4162L103.227 86.2022C104.219 86.7744 105.832 86.7744 106.824 86.2022L125.511 75.4167C126.503 74.8445 126.503 73.9132 125.511 73.341L106.824 62.5549Z" fill="url(#paint50_linear_23266_40344)"/>
<path opacity="0.4" d="M106.295 62.86C105.594 62.4558 104.455 62.4553 103.754 62.86L85.067 73.6455C84.3663 74.0497 84.3663 74.7078 85.067 75.112L103.754 85.8981C104.455 86.3023 105.595 86.3023 106.296 85.8981L124.983 75.1125C125.683 74.7083 125.683 74.0503 124.983 73.6461L106.295 62.86Z" fill="#FF0303"/>
<path opacity="0.4" d="M129.321 74.8382V68.4409L128.15 67.7898C127.819 69.7871 125.467 71.1039 123.501 71.3771L110.111 79.205L104.267 81.3145L85.6142 71.6916L86.0454 71.4426C84.4512 70.6981 83.5926 68.9954 82.7302 67.4414L81.4743 68.1902L80.7285 68.3996V74.9048C80.7285 75.7341 81.2757 76.5635 82.3694 77.1947L101.057 87.9808C103.245 89.2438 106.805 89.2438 108.993 87.9808L127.68 77.1952C128.756 76.5742 129.303 75.7615 129.32 74.9456C129.321 74.9091 129.319 74.8726 129.318 74.8361L129.321 74.8382Z" fill="#FF0303"/>
<path d="M129.321 69.1519V64.9194L128.15 64.2683C127.819 66.2662 125.467 67.5818 123.501 67.8556L110.111 75.6835L104.267 77.793L85.6142 68.1701L86.0454 67.9211C84.4512 67.1766 83.5926 65.4739 82.7302 63.9199L81.4743 64.6687L80.7285 64.8786V69.2196C80.7285 70.0489 81.2757 70.8782 82.3694 71.5095L101.057 82.2955C103.245 83.5586 106.805 83.5586 108.993 82.2955L127.68 71.51C128.756 70.8889 129.303 70.0763 129.32 69.2604C129.321 69.2239 129.319 69.1874 129.318 69.1509L129.321 69.1519Z" fill="url(#paint51_linear_23266_40344)"/>
<path opacity="0.3" d="M123.501 67.8552L110.11 75.683L105.024 77.5194V83.2425C106.461 83.2425 107.898 82.9269 108.993 82.2956L127.679 71.5101C128.755 70.889 129.302 70.0764 129.32 69.2605C129.32 69.224 129.319 69.1875 129.318 69.1509L129.32 69.152V64.9195L128.25 64.3242H128.138C127.773 66.2894 125.448 67.5841 123.501 67.8552Z" fill="#02122B"/>
<path d="M86.0455 67.9207L103.754 57.6999C104.455 57.2957 105.595 57.2957 106.295 57.6999L123.695 67.7425L123.502 67.8552C125.468 67.5815 127.82 66.2653 128.151 64.2679L108.624 53.411L102.942 51.9102L98.3158 54.6284L82.731 63.9206C83.5922 65.4735 84.4513 67.1762 86.0455 67.9207Z" fill="url(#paint52_linear_23266_40344)"/>
<path opacity="0.3" d="M105.025 52.4604L102.942 51.9102L98.3153 54.6284L82.7305 63.9206C83.5928 65.4741 84.4514 67.1773 86.0456 67.9218L103.754 57.7009C104.104 57.4986 104.565 57.3977 105.025 57.3977V52.4604Z" fill="#02122B"/>
<path d="M101.057 77.9941L82.3696 67.208C80.1815 65.945 80.1815 63.8902 82.3696 62.6271L101.056 51.8416C103.244 50.5786 106.804 50.5791 108.992 51.8416L127.68 62.6277C129.868 63.8907 129.868 65.9455 127.68 67.208L108.993 77.9936C106.805 79.2566 103.245 79.2566 101.057 77.9941ZM106.295 53.3988C105.595 52.9946 104.455 52.9941 103.754 53.3988L85.0672 64.1843C84.3665 64.5885 84.3665 65.2466 85.0672 65.6514L103.755 76.4374C104.455 76.8416 105.595 76.8416 106.296 76.4374L124.983 65.6519C125.683 65.2477 125.683 64.5896 124.983 64.1854L106.295 53.3988Z" fill="#C71004"/>
<path d="M124.982 64.1851L106.295 53.3991C105.594 52.9949 104.454 52.9943 103.754 53.3991L85.0669 64.1846C84.5998 64.454 84.4457 64.8368 84.6019 65.1814C84.6798 65.0091 84.8339 64.8464 85.0669 64.7117L103.754 53.9262C104.454 53.522 105.594 53.522 106.295 53.9262L124.982 64.7122C125.215 64.847 125.37 65.0096 125.447 65.1819C125.604 64.8378 125.45 64.4551 124.982 64.1851Z" fill="white"/>
<path d="M127.68 67.2071L108.993 77.9926C106.805 79.2557 103.245 79.2557 101.057 77.9926L82.3701 67.2066C81.3923 66.6419 80.8526 65.9194 80.7485 65.1797C80.6201 66.0949 81.1598 67.0353 82.3701 67.7337L101.057 78.5198C103.245 79.7828 106.805 79.7828 108.993 78.5198L127.68 67.7342C128.891 67.0359 129.43 66.0954 129.301 65.1802C129.198 65.9204 128.658 66.643 127.68 67.2071Z" fill="white"/>
<path d="M101.585 77.6887L82.8979 66.9027C81.0008 65.8076 81.0008 64.0261 82.8979 62.931L101.585 52.1455C103.482 51.0505 106.568 51.0505 108.466 52.1455L127.153 62.9316C129.05 64.0266 129.05 65.8082 127.153 66.9027L108.466 77.6882C106.569 78.7837 103.482 78.7838 101.585 77.6887ZM106.824 53.0934C105.832 52.5212 104.218 52.5212 103.227 53.0934L84.5398 63.879C83.5481 64.4512 83.5481 65.3825 84.5398 65.9547L103.227 76.7408C104.219 77.313 105.832 77.313 106.824 76.7408L125.511 65.9552C126.503 65.383 126.503 64.4517 125.511 63.8795L106.824 53.0934Z" fill="url(#paint53_linear_23266_40344)"/>
<path opacity="0.4" d="M106.295 53.3991C105.594 52.9949 104.455 52.9943 103.754 53.3991L85.067 64.1846C84.3663 64.5888 84.3663 65.2469 85.067 65.6516L103.754 76.4377C104.455 76.8419 105.595 76.8419 106.296 76.4377L124.983 65.6521C125.683 65.2479 125.683 64.5898 124.983 64.1857L106.295 53.3991Z" fill="#FF0303"/>
<path opacity="0.4" d="M129.321 65.3773V58.98L128.15 58.3288C127.819 60.3262 125.467 61.6429 123.501 61.9161L110.111 69.744L104.267 71.8536L85.6142 62.2307L86.0454 61.9816C84.4512 61.2371 83.5926 59.5339 82.7302 57.9805L81.4743 58.7293L80.7285 58.9392V65.4444C80.7285 66.2737 81.2757 67.103 82.3694 67.7348L101.057 78.5209C103.245 79.784 106.805 79.784 108.993 78.5209L127.68 67.7354C128.756 67.1143 129.303 66.3016 129.32 65.4857C129.321 65.4492 129.319 65.4127 129.318 65.3762L129.321 65.3773Z" fill="#FF0303"/>
<path d="M129.321 59.691V55.4585L128.15 54.8074C127.819 56.8053 125.467 58.1209 123.501 58.3947L110.111 66.2225L104.267 68.3321L85.6142 58.7092L86.0454 58.4602C84.4512 57.7156 83.5926 56.013 82.7302 54.459L81.4743 55.2078L80.7285 55.4177V59.7586C80.7285 60.5879 81.2757 61.4173 82.3694 62.0485L101.057 72.8346C103.245 74.0976 106.805 74.0976 108.993 72.8346L127.68 62.0491C128.756 61.428 129.303 60.6153 129.32 59.7994C129.321 59.7629 129.319 59.7264 129.318 59.6899L129.321 59.691Z" fill="url(#paint54_linear_23266_40344)"/>
<path opacity="0.3" d="M123.501 58.3962L110.11 66.224L105.024 68.0604V73.7835C106.461 73.7835 107.898 73.4679 108.993 72.8366L127.679 62.0511C128.755 61.4301 129.302 60.6174 129.32 59.8015C129.32 59.765 129.319 59.7285 129.318 59.692L129.32 59.693V55.4605L128.25 54.8652H128.138C127.773 56.8309 125.448 58.1251 123.501 58.3962Z" fill="#02122B"/>
<path d="M86.0455 58.4603L103.754 48.2395C104.455 47.8353 105.595 47.8353 106.295 48.2395L123.695 58.2816L123.502 58.3943C125.468 58.1205 127.82 56.8043 128.151 54.807L108.624 43.9501L102.942 42.4492L98.3158 45.1675L82.731 54.4597C83.5922 56.0126 84.4513 57.7158 86.0455 58.4603Z" fill="url(#paint55_linear_23266_40344)"/>
<path opacity="0.3" d="M105.025 42.9994L102.942 42.4492L98.3153 45.1675L82.7305 54.4597C83.5928 56.0131 84.4514 57.7163 86.0456 58.4608L103.754 48.24C104.104 48.0376 104.565 47.9367 105.025 47.9367V42.9994Z" fill="#02122B"/>
<path d="M101.057 68.5351L82.3696 57.749C80.1815 56.486 80.1815 54.4312 82.3696 53.1682L101.056 42.3826C103.244 41.1196 106.804 41.1201 108.992 42.3826L127.68 53.1687C129.868 54.4317 129.868 56.4865 127.68 57.749L108.993 68.5346C106.805 69.7981 103.245 69.7981 101.057 68.5351ZM106.295 43.9404C105.595 43.5362 104.455 43.5356 103.754 43.9404L85.0672 54.7259C84.3665 55.1301 84.3665 55.7882 85.0672 56.1929L103.755 66.979C104.455 67.3832 105.595 67.3832 106.296 66.979L124.983 56.1935C125.683 55.7893 125.683 55.1312 124.983 54.727L106.295 43.9404Z" fill="#C71004"/>
<path d="M124.982 54.7261L106.295 43.9401C105.594 43.5359 104.454 43.5353 103.754 43.9401L85.0669 54.7256C84.5998 54.9956 84.4457 55.3778 84.6019 55.7229C84.6798 55.5506 84.8339 55.388 85.0669 55.2533L103.754 44.4677C104.454 44.0635 105.594 44.0635 106.295 44.4677L124.982 55.2538C125.215 55.3885 125.37 55.5512 125.447 55.7235C125.604 55.3783 125.45 54.9961 124.982 54.7261Z" fill="white"/>
<path d="M127.68 57.7501L108.993 68.5356C106.805 69.7986 103.245 69.7986 101.057 68.5356L82.3701 57.7495C81.3923 57.1848 80.8526 56.4623 80.7485 55.7227C80.6201 56.6379 81.1598 57.5783 82.3701 58.2767L101.057 69.0627C103.245 70.3258 106.805 70.3258 108.993 69.0627L127.68 58.2772C128.891 57.5788 129.43 56.6384 129.301 55.7232C129.198 56.4629 128.658 57.1859 127.68 57.7501Z" fill="white"/>
<path d="M101.585 68.2297L82.8979 57.4437C81.0008 56.3486 81.0008 54.5671 82.8979 53.472L101.585 42.6865C103.482 41.5915 106.568 41.5915 108.466 42.6865L127.153 53.4726C129.05 54.5676 129.05 56.3492 127.153 57.4437L108.466 68.2292C106.569 69.3242 103.482 69.3242 101.585 68.2297ZM106.824 43.6345C105.832 43.0623 104.218 43.0623 103.227 43.6345L84.5398 54.42C83.5481 54.9922 83.5481 55.9235 84.5398 56.4957L103.227 67.2818C104.219 67.854 105.832 67.854 106.824 67.2818L125.511 56.4963C126.503 55.9241 126.503 54.9927 125.511 54.4205L106.824 43.6345Z" fill="url(#paint56_linear_23266_40344)"/>
<path opacity="0.4" d="M106.295 43.9401C105.594 43.5359 104.455 43.5353 103.754 43.9401L85.067 54.7256C84.3663 55.1298 84.3663 55.7879 85.067 56.1926L103.754 66.9787C104.455 67.3829 105.595 67.3829 106.296 66.9787L124.983 56.1932C125.683 55.789 125.683 55.1309 124.983 54.7267L106.295 43.9401Z" fill="#FF0303"/>
<path opacity="0.4" d="M129.321 55.9203V49.5229L128.15 48.8718C127.819 50.8692 125.467 52.1859 123.501 52.4591L110.111 60.287L104.267 62.3965L85.6142 52.7737L86.0454 52.5246C84.4512 51.7801 83.5926 50.0769 82.7302 48.5234L81.4743 49.2722L80.7285 49.4821V55.9874C80.7285 56.8167 81.2757 57.646 82.3694 58.2773L101.057 69.0633C103.245 70.3264 106.805 70.3264 108.993 69.0633L127.68 58.2778C128.756 57.6568 129.303 56.8441 129.32 56.0282C129.321 55.9917 129.319 55.9552 129.318 55.9187L129.321 55.9203Z" fill="#FF0303"/>
<path d="M129.321 50.232V45.9995L128.15 45.3484C127.819 47.3463 125.467 48.6619 123.501 48.9357L110.111 56.7635L104.267 58.8731L85.6142 49.2502L86.0454 49.0012C84.4512 48.2566 83.5926 46.554 82.7302 45L81.4743 45.7488L80.7285 45.9582V50.2991C80.7285 51.1284 81.2757 51.9578 82.3694 52.5895L101.057 63.3756C103.245 64.6386 106.805 64.6386 108.993 63.3756L127.68 52.5901C128.756 51.969 129.303 51.1563 129.32 50.3404C129.321 50.3039 129.319 50.2674 129.318 50.2309L129.321 50.232Z" fill="url(#paint57_linear_23266_40344)"/>
<path opacity="0.3" d="M123.501 48.9352L110.11 56.7631L105.024 58.5994V64.3226C106.461 64.3226 107.898 64.007 108.993 63.3757L127.679 52.5902C128.755 51.9691 129.302 51.1564 129.32 50.3405C129.32 50.304 129.319 50.2675 129.318 50.231L129.32 50.2321V45.9996L128.25 45.4043H128.138C127.773 47.37 125.448 48.6642 123.501 48.9352Z" fill="#02122B"/>
<path d="M86.045 49.0013L103.754 38.7805C104.454 38.3763 105.594 38.3763 106.295 38.7805L123.694 48.8226L123.501 48.9353C125.468 48.6615 127.819 47.3453 128.15 45.348L108.623 34.4911L102.942 32.9902L98.3153 35.7085L82.7305 45.0007C83.5917 46.5541 84.4508 48.2573 86.045 49.0013Z" fill="url(#paint58_linear_23266_40344)"/>
<path opacity="0.3" d="M105.025 33.5404L102.942 32.9902L98.3153 35.7085L82.7305 45.0007C83.5928 46.5541 84.4514 48.2573 86.0456 49.0019L103.754 38.781C104.104 38.5787 104.565 38.4777 105.025 38.4777V33.5404Z" fill="#02122B"/>
<path d="M101.057 59.0763L82.3696 48.2903C80.1815 47.0272 80.1815 44.9724 82.3696 43.7094L101.056 32.9238C103.244 31.6608 106.804 31.6608 108.992 32.9238L127.68 43.7099C129.868 44.973 129.868 47.0278 127.68 48.2903L108.993 59.0758C106.805 60.3394 103.245 60.3394 101.057 59.0763ZM106.295 34.481C105.595 34.0769 104.455 34.0769 103.754 34.481L85.0672 45.2666C84.3665 45.6708 84.3665 46.3289 85.0672 46.7336L103.755 57.5197C104.455 57.9239 105.595 57.9239 106.296 57.5197L124.983 46.7341C125.683 46.3299 125.683 45.6718 124.983 45.2676L106.295 34.481Z" fill="url(#paint59_linear_23266_40344)"/>
<path d="M124.982 45.2669L106.295 34.4809C105.594 34.0767 104.454 34.0767 103.754 34.4809L85.0669 45.2664C84.5998 45.5364 84.4457 45.9186 84.6019 46.2637C84.6798 46.0914 84.8339 45.9288 85.0669 45.7941L103.754 35.0085C104.454 34.6043 105.594 34.6043 106.295 35.0085L124.982 45.7946C125.215 45.9293 125.37 46.092 125.447 46.2643C125.604 45.9191 125.45 45.5369 124.982 45.2669Z" fill="white"/>
<path d="M127.68 48.2911L108.993 59.0766C106.805 60.3397 103.245 60.3397 101.057 59.0766L82.3701 48.2906C81.3923 47.7259 80.8526 47.0034 80.7485 46.2637C80.6201 47.1789 81.1598 48.1193 82.3701 48.8177L101.057 59.6037C103.245 60.8668 106.805 60.8668 108.993 59.6037L127.68 48.8182C128.891 48.1199 129.43 47.1794 129.301 46.2642C129.198 47.0039 128.658 47.7264 127.68 48.2911Z" fill="white"/>
<path d="M101.585 58.7708L82.8974 47.9847C81.0004 46.8897 81.0004 45.1081 82.8974 44.013L101.584 33.2275C103.481 32.1325 106.568 32.1325 108.465 33.2275L127.152 44.0136C129.049 45.1086 129.049 46.8902 127.152 47.9847L108.466 58.7702C106.569 59.8658 103.482 59.8658 101.585 58.7708ZM106.823 34.176C105.831 33.6038 104.218 33.6038 103.226 34.176L84.5394 44.9615C83.5476 45.5337 83.5476 46.4651 84.5394 47.0378L103.227 57.8239C104.218 58.3961 105.832 58.3961 106.824 57.8239L125.51 47.0383C126.502 46.4661 126.502 45.5348 125.51 44.9626L106.823 34.176Z" fill="url(#paint60_linear_23266_40344)"/>
<path opacity="0.4" d="M106.295 34.4809C105.594 34.0767 104.455 34.0767 103.754 34.4809L85.067 45.2664C84.3663 45.6706 84.3663 46.3287 85.067 46.7334L103.754 57.5195C104.455 57.9237 105.595 57.9237 106.296 57.5195L124.983 46.734C125.683 46.3298 125.683 45.6717 124.983 45.2675L106.295 34.4809Z" fill="#FF0303"/>
<path opacity="0.5" d="M125.508 10.9746H84.5428V45.9813C84.5342 46.2529 84.7082 46.5261 85.0668 46.7333L103.754 57.5194C104.455 57.9236 105.595 57.9236 106.296 57.5194L124.982 46.7338C125.332 46.5315 125.508 46.2658 125.508 46.0001V10.9746Z" fill="url(#paint61_linear_23266_40344)"/>
<defs>
<linearGradient id="paint0_linear_23266_40344" x1="200.96" y1="107.573" x2="173.341" y2="107.573" gradientUnits="userSpaceOnUse">
<stop offset="0.21" stop-color="#2155DF"/>
<stop offset="1" stop-color="#33E6BF"/>
</linearGradient>
<linearGradient id="paint1_linear_23266_40344" x1="173.341" y1="102.652" x2="200.96" y2="102.652" gradientUnits="userSpaceOnUse">
<stop stop-color="#A6FBE8"/>
<stop offset="1" stop-color="#4879FD"/>
</linearGradient>
<linearGradient id="paint2_linear_23266_40344" x1="200.96" y1="91.4518" x2="173.341" y2="91.4518" gradientUnits="userSpaceOnUse">
<stop offset="0.21" stop-color="#2155DF"/>
<stop offset="1" stop-color="#33E6BF"/>
</linearGradient>
<linearGradient id="paint3_linear_23266_40344" x1="173.341" y1="86.5287" x2="200.96" y2="86.5287" gradientUnits="userSpaceOnUse">
<stop stop-color="#A6FBE8"/>
<stop offset="1" stop-color="#4879FD"/>
</linearGradient>
<linearGradient id="paint4_linear_23266_40344" x1="46.3077" y1="121.608" x2="18.689" y2="121.608" gradientUnits="userSpaceOnUse">
<stop offset="0.21" stop-color="#2155DF"/>
<stop offset="1" stop-color="#33E6BF"/>
</linearGradient>
<linearGradient id="paint5_linear_23266_40344" x1="18.6889" y1="116.683" x2="46.3072" y2="116.683" gradientUnits="userSpaceOnUse">
<stop stop-color="#A6FBE8"/>
<stop offset="1" stop-color="#4879FD"/>
</linearGradient>
<linearGradient id="paint6_linear_23266_40344" x1="46.3082" y1="104.311" x2="18.6894" y2="104.311" gradientUnits="userSpaceOnUse">
<stop offset="0.21" stop-color="#2155DF"/>
<stop offset="1" stop-color="#33E6BF"/>
</linearGradient>
<linearGradient id="paint7_linear_23266_40344" x1="18.6898" y1="99.3883" x2="46.3082" y2="99.3883" gradientUnits="userSpaceOnUse">
<stop stop-color="#A6FBE8"/>
<stop offset="1" stop-color="#4879FD"/>
</linearGradient>
<linearGradient id="paint8_linear_23266_40344" x1="41.0731" y1="51.365" x2="62.9823" y2="64.0182" gradientUnits="userSpaceOnUse">
<stop stop-color="#33E6BF"/>
<stop offset="1" stop-color="#2155DF"/>
</linearGradient>
<linearGradient id="paint9_linear_23266_40344" x1="38.3251" y1="56.1462" x2="65.9429" y2="56.1462" gradientUnits="userSpaceOnUse">
<stop stop-color="#A6FBE8"/>
<stop offset="1" stop-color="#4879FD"/>
</linearGradient>
<linearGradient id="paint10_linear_23266_40344" x1="41.0726" y1="35.2615" x2="62.9819" y2="47.9147" gradientUnits="userSpaceOnUse">
<stop stop-color="#33E6BF"/>
<stop offset="1" stop-color="#2155DF"/>
</linearGradient>
<linearGradient id="paint11_linear_23266_40344" x1="38.3251" y1="40.0426" x2="65.9429" y2="40.0426" gradientUnits="userSpaceOnUse">
<stop stop-color="#A6FBE8"/>
<stop offset="1" stop-color="#4879FD"/>
</linearGradient>
<linearGradient id="paint12_linear_23266_40344" x1="156.706" y1="94.6115" x2="49.3256" y2="94.6115" gradientUnits="userSpaceOnUse">
<stop offset="0.21" stop-color="#2155DF"/>
<stop offset="1" stop-color="#33E6BF"/>
</linearGradient>
<linearGradient id="paint13_linear_23266_40344" x1="49.3257" y1="92.1119" x2="156.707" y2="92.1119" gradientUnits="userSpaceOnUse">
<stop stop-color="#A6FBE8"/>
<stop offset="1" stop-color="#4879FD"/>
</linearGradient>
<linearGradient id="paint14_linear_23266_40344" x1="166.865" y1="45.0232" x2="90.8746" y2="45.0232" gradientUnits="userSpaceOnUse">
<stop stop-color="#4879FD"/>
<stop offset="1" stop-color="#A6FBE8"/>
</linearGradient>
<linearGradient id="paint15_linear_23266_40344" x1="166.865" y1="64.5055" x2="153.816" y2="64.5055" gradientUnits="userSpaceOnUse">
<stop offset="0.21" stop-color="#2155DF"/>
<stop offset="1" stop-color="#33E6BF"/>
</linearGradient>
<linearGradient id="paint16_linear_23266_40344" x1="156.685" y1="85.7621" x2="49.3613" y2="85.7621" gradientUnits="userSpaceOnUse">
<stop offset="0.21" stop-color="#2155DF"/>
<stop offset="1" stop-color="#33E6BF"/>
</linearGradient>
<linearGradient id="paint17_linear_23266_40344" x1="49.3262" y1="82.8288" x2="156.707" y2="82.8288" gradientUnits="userSpaceOnUse">
<stop stop-color="#A6FBE8"/>
<stop offset="1" stop-color="#4879FD"/>
</linearGradient>
<radialGradient id="paint18_radial_23266_40344" cx="0" cy="0" r="1" gradientUnits="userSpaceOnUse" gradientTransform="translate(104.359 78.4932) scale(67.98 67.9591)">
<stop stop-color="#42E8E0"/>
<stop offset="0.1055" stop-color="#37B6BF"/>
<stop offset="0.2197" stop-color="#2C87A1"/>
<stop offset="0.338" stop-color="#235F87"/>
<stop offset="0.4587" stop-color="#1C3F72"/>
<stop offset="0.5824" stop-color="#162561"/>
<stop offset="0.7105" stop-color="#121355"/>
<stop offset="0.8458" stop-color="#10084E"/>
<stop offset="1" stop-color="#0F054C"/>
</radialGradient>
<linearGradient id="paint19_linear_23266_40344" x1="129.321" y1="117.997" x2="80.7285" y2="117.997" gradientUnits="userSpaceOnUse">
<stop offset="0.21" stop-color="#2155DF"/>
<stop offset="1" stop-color="#33E6BF"/>
</linearGradient>
<linearGradient id="paint20_linear_23266_40344" x1="87.8765" y1="99.4267" x2="122.254" y2="119.281" gradientUnits="userSpaceOnUse">
<stop offset="0.2421" stop-color="#2155DF"/>
<stop offset="1" stop-color="#33E6BF"/>
</linearGradient>
<linearGradient id="paint21_linear_23266_40344" x1="81.4739" y1="109.335" x2="128.575" y2="109.335" gradientUnits="userSpaceOnUse">
<stop stop-color="#A6FBE8"/>
<stop offset="1" stop-color="#4879FD"/>
</linearGradient>
<linearGradient id="paint22_linear_23266_40344" x1="129.321" y1="108.537" x2="80.7285" y2="108.537" gradientUnits="userSpaceOnUse">
<stop offset="0.21" stop-color="#2155DF"/>
<stop offset="1" stop-color="#33E6BF"/>
</linearGradient>
<linearGradient id="paint23_linear_23266_40344" x1="87.876" y1="89.9639" x2="122.253" y2="109.818" gradientUnits="userSpaceOnUse">
<stop offset="0.2421" stop-color="#2155DF"/>
<stop offset="1" stop-color="#33E6BF"/>
</linearGradient>
<linearGradient id="paint24_linear_23266_40344" x1="81.4739" y1="99.8741" x2="128.575" y2="99.8741" gradientUnits="userSpaceOnUse">
<stop stop-color="#A6FBE8"/>
<stop offset="1" stop-color="#4879FD"/>
</linearGradient>
<linearGradient id="paint25_linear_23266_40344" x1="129.321" y1="99.0773" x2="80.7285" y2="99.0773" gradientUnits="userSpaceOnUse">
<stop offset="0.21" stop-color="#2155DF"/>
<stop offset="1" stop-color="#33E6BF"/>
</linearGradient>
<linearGradient id="paint26_linear_23266_40344" x1="87.876" y1="80.505" x2="122.254" y2="100.359" gradientUnits="userSpaceOnUse">
<stop offset="0.2421" stop-color="#2155DF"/>
<stop offset="1" stop-color="#33E6BF"/>
</linearGradient>
<linearGradient id="paint27_linear_23266_40344" x1="81.4739" y1="90.4154" x2="128.575" y2="90.4154" gradientUnits="userSpaceOnUse">
<stop stop-color="#A6FBE8"/>
<stop offset="1" stop-color="#4879FD"/>
</linearGradient>
<linearGradient id="paint28_linear_23266_40344" x1="129.321" y1="89.62" x2="80.7285" y2="89.62" gradientUnits="userSpaceOnUse">
<stop offset="0.21" stop-color="#2155DF"/>
<stop offset="1" stop-color="#33E6BF"/>
</linearGradient>
<linearGradient id="paint29_linear_23266_40344" x1="87.8765" y1="71.0479" x2="122.255" y2="90.9016" gradientUnits="userSpaceOnUse">
<stop offset="0.2421" stop-color="#2155DF"/>
<stop offset="1" stop-color="#33E6BF"/>
</linearGradient>
<linearGradient id="paint30_linear_23266_40344" x1="80.7283" y1="80.959" x2="129.321" y2="80.959" gradientUnits="userSpaceOnUse">
<stop stop-color="#A6FBE8"/>
<stop offset="1" stop-color="#4879FD"/>
</linearGradient>
<linearGradient id="paint31_linear_23266_40344" x1="81.4739" y1="80.9583" x2="128.575" y2="80.9583" gradientUnits="userSpaceOnUse">
<stop stop-color="#A6FBE8"/>
<stop offset="1" stop-color="#4879FD"/>
</linearGradient>
<linearGradient id="paint32_linear_23266_40344" x1="49.1731" y1="81.4454" x2="156.861" y2="81.4454" gradientUnits="userSpaceOnUse">
<stop stop-color="#42E8E0"/>
<stop offset="0.1055" stop-color="#37B6BF"/>
<stop offset="0.2197" stop-color="#2C87A1"/>
<stop offset="0.338" stop-color="#235F87"/>
<stop offset="0.4587" stop-color="#1C3F72"/>
<stop offset="0.5824" stop-color="#162561"/>
<stop offset="0.7105" stop-color="#121355"/>
<stop offset="0.8458" stop-color="#10084E"/>
<stop offset="1" stop-color="#0F054C"/>
</linearGradient>
<linearGradient id="paint33_linear_23266_40344" x1="197.954" y1="62.1486" x2="90.6308" y2="62.1486" gradientUnits="userSpaceOnUse">
<stop offset="0.21" stop-color="#2155DF"/>
<stop offset="1" stop-color="#33E6BF"/>
</linearGradient>
<linearGradient id="paint34_linear_23266_40344" x1="90.5958" y1="59.2155" x2="197.977" y2="59.2155" gradientUnits="userSpaceOnUse">
<stop stop-color="#A6FBE8"/>
<stop offset="1" stop-color="#4879FD"/>
</linearGradient>
<linearGradient id="paint35_linear_23266_40344" x1="166.865" y1="62.1772" x2="118.273" y2="62.1772" gradientUnits="userSpaceOnUse">
<stop offset="0.21" stop-color="#2155DF"/>
<stop offset="1" stop-color="#33E6BF"/>
</linearGradient>
<linearGradient id="paint36_linear_23266_40344" x1="125.42" y1="43.6046" x2="159.798" y2="63.4586" gradientUnits="userSpaceOnUse">
<stop offset="0.2421" stop-color="#2155DF"/>
<stop offset="1" stop-color="#33E6BF"/>
</linearGradient>
<linearGradient id="paint37_linear_23266_40344" x1="119.019" y1="53.515" x2="166.12" y2="53.515" gradientUnits="userSpaceOnUse">
<stop stop-color="#A6FBE8"/>
<stop offset="1" stop-color="#4879FD"/>
</linearGradient>
<linearGradient id="paint38_linear_23266_40344" x1="166.866" y1="52.7201" x2="118.273" y2="52.7201" gradientUnits="userSpaceOnUse">
<stop offset="0.21" stop-color="#2155DF"/>
<stop offset="1" stop-color="#33E6BF"/>
</linearGradient>
<linearGradient id="paint39_linear_23266_40344" x1="125.421" y1="34.1476" x2="159.799" y2="54.0015" gradientUnits="userSpaceOnUse">
<stop offset="0.2421" stop-color="#2155DF"/>
<stop offset="1" stop-color="#33E6BF"/>
</linearGradient>
<linearGradient id="paint40_linear_23266_40344" x1="119.019" y1="44.0579" x2="166.12" y2="44.0579" gradientUnits="userSpaceOnUse">
<stop stop-color="#A6FBE8"/>
<stop offset="1" stop-color="#4879FD"/>
</linearGradient>
<linearGradient id="paint41_linear_23266_40344" x1="166.865" y1="43.2589" x2="118.273" y2="43.2589" gradientUnits="userSpaceOnUse">
<stop offset="0.21" stop-color="#2155DF"/>
<stop offset="1" stop-color="#33E6BF"/>
</linearGradient>
<linearGradient id="paint42_linear_23266_40344" x1="125.42" y1="24.6886" x2="159.798" y2="44.5425" gradientUnits="userSpaceOnUse">
<stop offset="0.2421" stop-color="#2155DF"/>
<stop offset="1" stop-color="#33E6BF"/>
</linearGradient>
<linearGradient id="paint43_linear_23266_40344" x1="119.019" y1="34.5968" x2="166.12" y2="34.5968" gradientUnits="userSpaceOnUse">
<stop stop-color="#A6FBE8"/>
<stop offset="1" stop-color="#4879FD"/>
</linearGradient>
<linearGradient id="paint44_linear_23266_40344" x1="166.866" y1="33.7977" x2="118.273" y2="33.7977" gradientUnits="userSpaceOnUse">
<stop offset="0.21" stop-color="#2155DF"/>
<stop offset="1" stop-color="#33E6BF"/>
</linearGradient>
<linearGradient id="paint45_linear_23266_40344" x1="125.421" y1="15.2257" x2="159.799" y2="35.0797" gradientUnits="userSpaceOnUse">
<stop offset="0.2421" stop-color="#2155DF"/>
<stop offset="1" stop-color="#33E6BF"/>
</linearGradient>
<linearGradient id="paint46_linear_23266_40344" x1="118.273" y1="25.1368" x2="166.865" y2="25.1368" gradientUnits="userSpaceOnUse">
<stop stop-color="#A6FBE8"/>
<stop offset="1" stop-color="#4879FD"/>
</linearGradient>
<linearGradient id="paint47_linear_23266_40344" x1="119.019" y1="25.1361" x2="166.12" y2="25.1361" gradientUnits="userSpaceOnUse">
<stop stop-color="#A6FBE8"/>
<stop offset="1" stop-color="#4879FD"/>
</linearGradient>
<linearGradient id="paint48_linear_23266_40344" x1="129.321" y1="83.0402" x2="80.7285" y2="83.0402" gradientUnits="userSpaceOnUse">
<stop offset="0.21" stop-color="#DF2D21"/>
<stop offset="1" stop-color="#E63389"/>
</linearGradient>
<linearGradient id="paint49_linear_23266_40344" x1="87.8765" y1="64.4697" x2="122.254" y2="84.3237" gradientUnits="userSpaceOnUse">
<stop offset="0.2421" stop-color="#DF3821"/>
<stop offset="1" stop-color="#E6339E"/>
</linearGradient>
<linearGradient id="paint50_linear_23266_40344" x1="81.4749" y1="74.3783" x2="128.576" y2="74.3783" gradientUnits="userSpaceOnUse">
<stop stop-color="#FBB0A6"/>
<stop offset="1" stop-color="#FD5348"/>
</linearGradient>
<linearGradient id="paint51_linear_23266_40344" x1="129.321" y1="73.5812" x2="80.7285" y2="73.5812" gradientUnits="userSpaceOnUse">
<stop offset="0.21" stop-color="#DF2D21"/>
<stop offset="1" stop-color="#E63389"/>
</linearGradient>
<linearGradient id="paint52_linear_23266_40344" x1="87.8765" y1="55.0088" x2="122.254" y2="74.8627" gradientUnits="userSpaceOnUse">
<stop offset="0.2421" stop-color="#DF3821"/>
<stop offset="1" stop-color="#E6339E"/>
</linearGradient>
<linearGradient id="paint53_linear_23266_40344" x1="81.4749" y1="64.9173" x2="128.576" y2="64.9173" gradientUnits="userSpaceOnUse">
<stop stop-color="#FBB0A6"/>
<stop offset="1" stop-color="#FD5348"/>
</linearGradient>
<linearGradient id="paint54_linear_23266_40344" x1="129.321" y1="64.1203" x2="80.7285" y2="64.1203" gradientUnits="userSpaceOnUse">
<stop offset="0.21" stop-color="#DF2D21"/>
<stop offset="1" stop-color="#E63389"/>
</linearGradient>
<linearGradient id="paint55_linear_23266_40344" x1="87.8765" y1="45.5479" x2="122.255" y2="65.4016" gradientUnits="userSpaceOnUse">
<stop offset="0.2421" stop-color="#DF3821"/>
<stop offset="1" stop-color="#E6339E"/>
</linearGradient>
<linearGradient id="paint56_linear_23266_40344" x1="81.4749" y1="55.4581" x2="128.576" y2="55.4581" gradientUnits="userSpaceOnUse">
<stop stop-color="#FBB0A6"/>
<stop offset="1" stop-color="#FD5348"/>
</linearGradient>
<linearGradient id="paint57_linear_23266_40344" x1="129.321" y1="54.6613" x2="80.7285" y2="54.6613" gradientUnits="userSpaceOnUse">
<stop offset="0.21" stop-color="#DF2D21"/>
<stop offset="1" stop-color="#E63389"/>
</linearGradient>
<linearGradient id="paint58_linear_23266_40344" x1="87.876" y1="36.089" x2="122.254" y2="55.9426" gradientUnits="userSpaceOnUse">
<stop offset="0.2421" stop-color="#DF3821"/>
<stop offset="1" stop-color="#E6339E"/>
</linearGradient>
<linearGradient id="paint59_linear_23266_40344" x1="80.7283" y1="46.0003" x2="129.321" y2="46.0003" gradientUnits="userSpaceOnUse">
<stop stop-color="#FBB0A6"/>
<stop offset="1" stop-color="#FD5348"/>
</linearGradient>
<linearGradient id="paint60_linear_23266_40344" x1="81.4744" y1="45.9994" x2="128.575" y2="45.9994" gradientUnits="userSpaceOnUse">
<stop stop-color="#FBB0A6"/>
<stop offset="1" stop-color="#FD5348"/>
</linearGradient>
<linearGradient id="paint61_linear_23266_40344" x1="105.025" y1="57.8223" x2="105.025" y2="10.9748" gradientUnits="userSpaceOnUse">
<stop stop-color="#E86042"/>
<stop offset="0.1055" stop-color="#BF3F37"/>
<stop offset="0.2197" stop-color="#A12C3A"/>
<stop offset="0.338" stop-color="#872365"/>
<stop offset="0.4587" stop-color="#721C55"/>
<stop offset="0.5824" stop-color="#611624"/>
<stop offset="0.7105" stop-color="#55123E"/>
<stop offset="1" stop-color="#0F054C" stop-opacity="0"/>
</linearGradient>
</defs>
</svg>
