<svg width="196" height="130" viewBox="0 0 196 130" fill="none" xmlns="http://www.w3.org/2000/svg">
<path d="M29.016 45.6239C28.2823 45.6239 27.5492 45.4344 26.8948 45.0554L0.549121 29.8023C0.238974 29.623 0.0541992 29.3011 0.0541992 28.942C0.0541992 28.5829 0.239569 28.261 0.549716 28.0817L26.6782 12.9892C28.1455 12.1409 29.9686 12.1415 31.4354 12.9916L57.5236 28.0956C57.8338 28.2754 58.0192 28.5973 58.0192 28.9564C58.0192 29.315 57.8338 29.6368 57.5242 29.8167L31.1372 45.0554C30.4827 45.4344 29.749 45.6233 29.016 45.6239ZM29.0538 13.1029C28.3609 13.1029 27.6686 13.2815 27.0501 13.6383L0.922252 28.7308C0.812471 28.794 0.801076 28.8999 0.801076 28.9426C0.801076 28.9853 0.813076 29.0906 0.922857 29.1544L27.2691 44.4075C28.3471 45.0314 29.6861 45.0314 30.7641 44.4075L57.1511 29.1688C57.2603 29.105 57.2723 28.9997 57.2723 28.957C57.2723 28.9143 57.2603 28.809 57.1505 28.7453L31.0622 13.6413H31.0616C30.4425 13.2815 29.7485 13.1029 29.0538 13.1029Z" fill="#FF0303"/>
<g opacity="0.11">
<path d="M31.2478 5.00362C29.8914 4.21855 28.2207 4.21735 26.8637 5.00121L0.735893 20.0938C0.324364 20.332 0.324364 20.927 0.735893 21.1652L27.0815 36.4184C28.2783 37.1114 29.7535 37.1114 30.9502 36.4184L57.3361 21.179C57.7476 20.9408 57.7476 20.3458 57.3361 20.1076L31.2478 5.00362Z" fill="url(#paint0_linear_23266_40665)"/>
</g>
<g opacity="0.11">
<path d="M31.2478 0.589553C29.8914 -0.195515 28.2207 -0.196717 26.8637 0.587148L0.735893 15.6797C0.324364 15.9179 0.324364 16.5129 0.735893 16.7511L27.0815 32.0043C28.2783 32.6973 29.7535 32.6973 30.9502 32.0043L57.3361 16.765C57.7476 16.5267 57.7476 15.9318 57.3361 15.6935L31.2478 0.589553Z" fill="url(#paint1_linear_23266_40665)"/>
</g>
<path opacity="0.5" d="M57.3363 15.6941L31.248 0.589553C29.8916 -0.195515 28.2209 -0.196717 26.8639 0.587148L0.736085 15.6797C0.530321 15.7988 0.427734 16.007 0.427734 16.2157V25.0434C0.427734 25.2515 0.530321 25.4603 0.736085 25.5794L27.0817 40.8326C28.2785 41.5256 29.7536 41.5256 30.9504 40.8326L57.3363 25.5932C57.542 25.4741 57.6446 25.266 57.6446 25.0572V16.2296C57.6446 16.022 57.542 15.8133 57.3363 15.6941Z" fill="url(#paint2_linear_23266_40665)"/>
<g opacity="0.4">
<path d="M31.2478 0.589553C29.8914 -0.195515 28.2207 -0.196717 26.8637 0.587148L0.735893 15.6797C0.324364 15.9179 0.324364 16.5129 0.735893 16.7511L27.0815 32.0043C28.2783 32.6973 29.7535 32.6973 30.9502 32.0043L57.3361 16.765C57.7476 16.5267 57.7476 15.9318 57.3361 15.6935L31.2478 0.589553Z" fill="url(#paint3_linear_23266_40665)"/>
</g>
<g opacity="0.5">
<path d="M29.974 9.24207C29.3993 8.90939 28.6908 8.90879 28.1155 9.24087L16.4092 16.0033C16.2256 16.1098 16.2256 16.3751 16.4092 16.4815L28.1641 23.2873C28.698 23.5965 29.3561 23.5965 29.89 23.2873L41.663 16.4882C41.8465 16.3817 41.8465 16.1164 41.663 16.0099L29.974 9.24207Z" fill="#FF0303"/>
</g>
<path d="M16.4094 16.4268L28.1158 9.66499C28.6911 9.33291 29.399 9.33291 29.9743 9.66619L41.6633 16.434C41.6753 16.4406 41.6795 16.4527 41.6897 16.4611C41.839 16.3438 41.8348 16.1092 41.6633 16.0099L29.9743 9.24207C29.3996 8.90939 28.6911 8.90879 28.1158 9.24087L16.4094 16.0033C16.2379 16.1025 16.2331 16.3372 16.3831 16.4545C16.3933 16.4454 16.3981 16.4334 16.4094 16.4268Z" fill="#FF0303"/>
<path d="M57.3364 16.157L30.9505 31.3963C29.7537 32.0893 28.2786 32.0893 27.0818 31.3963L0.736176 16.1431C0.634794 16.0842 0.558609 16.0036 0.507618 15.9121C0.350445 16.1912 0.42663 16.5733 0.736176 16.7525L27.0818 32.0057C28.2786 32.6987 29.7537 32.6987 30.9505 32.0057L57.3364 16.7664C57.6465 16.5871 57.7221 16.2051 57.5655 15.9259C57.5139 16.0174 57.4377 16.0986 57.3364 16.157Z" fill="url(#paint4_linear_23266_40665)"/>
<path d="M35.3169 75.422C34.8706 75.422 34.3841 75.277 33.8874 74.9889L24.7354 69.6901C24.6196 69.6233 24.5488 69.4994 24.5488 69.3659C24.5488 69.2317 24.6202 69.1078 24.736 69.041L92.3737 30.0234C92.4888 29.9572 92.631 29.9566 92.7468 30.024L101.899 35.3234C102.521 35.6831 103.088 35.7523 103.492 35.5183C103.896 35.2837 104.119 34.7579 104.119 34.0378V31.824C104.119 30.8241 104.475 30.0679 105.12 29.6944C105.766 29.3208 106.597 29.3899 107.46 29.8899L109.372 30.9968C109.55 31.1003 109.611 31.3295 109.508 31.5087C109.404 31.6874 109.176 31.7482 108.997 31.6459L107.086 30.539C106.464 30.178 105.898 30.1094 105.494 30.3435C105.089 30.5781 104.866 31.1039 104.866 31.8246V34.0384C104.866 35.0376 104.511 35.7938 103.865 36.1674C103.22 36.541 102.39 36.473 101.526 35.9725L92.5602 30.7814L25.6712 69.3677L34.2623 74.3416C34.8844 74.7025 35.4501 74.7717 35.8551 74.5371C36.26 74.3025 36.4826 73.7767 36.4826 73.056V70.8428C36.4826 69.8435 36.8383 69.0867 37.4838 68.7132C38.1293 68.339 38.9601 68.4087 39.8234 68.9087L41.7346 70.0156C41.9128 70.119 41.974 70.3483 41.8714 70.5275C41.7676 70.7062 41.5385 70.7664 41.3609 70.6647L39.449 69.5578C38.8269 69.1974 38.2612 69.1282 37.8563 69.3623C37.4514 69.5969 37.2288 70.1227 37.2288 70.8434V73.0566C37.2288 74.0564 36.8731 74.8126 36.2276 75.1862C35.9528 75.3432 35.6457 75.422 35.3169 75.422Z" fill="#03FFCF"/>
<path d="M99.3945 38.4579C98.9482 38.4579 98.4617 38.3129 97.965 38.0248L88.813 32.7254C88.6348 32.622 88.5736 32.3927 88.6762 32.2135C88.7788 32.0342 89.0073 31.9728 89.1867 32.0763L98.3387 37.3757C98.9602 37.736 99.5265 37.8058 99.9314 37.5712C100.336 37.3366 100.559 36.8108 100.559 36.0901V33.8763C100.559 32.877 100.915 32.1208 101.56 31.7473C102.205 31.3743 103.036 31.4416 103.899 31.9422L105.811 33.0491C105.989 33.1526 106.05 33.3818 105.948 33.561C105.845 33.7397 105.615 33.8005 105.437 33.6982L103.526 32.5913C102.904 32.2315 102.338 32.1623 101.934 32.3964C101.529 32.631 101.306 33.1568 101.306 33.8769V36.0907C101.306 37.0899 100.951 37.8467 100.305 38.2203C100.03 38.3791 99.7233 38.4579 99.3945 38.4579Z" fill="#03FFCF"/>
<path d="M95.8343 40.5108C95.3879 40.5108 94.902 40.3664 94.4053 40.0782L85.2527 34.7789C85.0745 34.6754 85.0127 34.4462 85.1159 34.2669C85.2191 34.0876 85.4471 34.0269 85.6264 34.1297L94.7785 39.4291C95.4005 39.7889 95.9662 39.858 96.3712 39.624C96.7761 39.3894 96.9987 38.8636 96.9987 38.1435V35.9297C96.9987 34.9299 97.3544 34.1737 97.9999 33.8001C98.6454 33.4259 99.4756 33.4957 100.339 33.9956L102.251 35.1025C102.429 35.206 102.49 35.4352 102.388 35.6145C102.284 35.7931 102.055 35.8539 101.878 35.7516L99.9658 34.6447C99.3437 34.2838 98.7779 34.2146 98.3736 34.4492C97.9687 34.6838 97.7461 35.2096 97.7461 35.9303V38.1441C97.7461 39.1434 97.3904 39.8995 96.7455 40.2731C96.4708 40.432 96.1636 40.5108 95.8343 40.5108Z" fill="#03FFCF"/>
<path d="M92.2744 42.5637C91.8281 42.5637 91.3416 42.4187 90.8449 42.1305L81.6929 36.8312C81.5147 36.7277 81.4535 36.4985 81.5561 36.3192C81.6587 36.1399 81.8872 36.0792 82.0666 36.182L91.2186 41.4814C91.8407 41.8418 92.4064 41.9109 92.8113 41.6769C93.2163 41.4423 93.4388 40.9165 93.4388 40.1958V37.982C93.4388 36.9828 93.7946 36.2266 94.4401 35.853C95.0849 35.4794 95.9158 35.5474 96.779 36.0479L98.6909 37.1548C98.8691 37.2583 98.9303 37.4875 98.8277 37.6668C98.7245 37.8454 98.4953 37.9062 98.3172 37.8033L96.4053 36.6964C95.7832 36.3367 95.2169 36.2669 94.8132 36.5015C94.4083 36.7361 94.1857 37.2619 94.1857 37.982V40.1958C94.1857 41.1951 93.83 41.9518 93.1845 42.3254C92.9109 42.4848 92.6038 42.5637 92.2744 42.5637Z" fill="#03FFCF"/>
<path d="M88.7147 44.6172C88.2683 44.6172 87.7824 44.4728 87.2857 44.1847L78.1331 38.8853C77.9549 38.7818 77.8938 38.5526 77.9969 38.3733C78.1001 38.1941 78.3281 38.1333 78.5068 38.2368L87.6588 43.5362C88.2809 43.8953 88.8466 43.9645 89.2516 43.7311C89.6565 43.4965 89.8791 42.9707 89.8791 42.2506V40.0367C89.8791 39.0375 90.2348 38.2813 90.8797 37.9077C91.5252 37.5335 92.356 37.6027 93.2193 38.1026L95.1311 39.2096C95.3093 39.313 95.3705 39.5422 95.2679 39.7215C95.1641 39.9002 94.9356 39.9603 94.7574 39.8581L92.8455 38.7511C92.2235 38.3902 91.6578 38.321 91.2528 38.5562C90.8485 38.7909 90.6253 39.3166 90.6253 40.0367V42.2506C90.6253 43.2498 90.2696 44.006 89.6247 44.3796C89.3512 44.5384 89.044 44.6172 88.7147 44.6172Z" fill="#03FFCF"/>
<path d="M85.1547 46.6703C84.7084 46.6703 84.2219 46.5253 83.7252 46.2371L74.5726 40.9378C74.3944 40.8343 74.3332 40.6051 74.4364 40.4258C74.5396 40.2466 74.7681 40.1858 74.9469 40.2893L84.0995 45.5886C84.7216 45.949 85.2867 46.0188 85.6922 45.7842C86.0972 45.5495 86.3197 45.0237 86.3197 44.303V42.0892C86.3197 41.09 86.6755 40.3338 87.3203 39.9602C87.9658 39.5866 88.7967 39.6552 89.6599 40.1551L91.5718 41.262C91.75 41.3655 91.8112 41.5947 91.7086 41.774C91.6054 41.9533 91.3762 42.0134 91.1981 41.9111L89.2868 40.8042C88.6647 40.4439 88.0996 40.3753 87.6941 40.6093C87.2897 40.8439 87.0666 41.3697 87.0666 42.0898V44.3037C87.0666 45.3029 86.7108 46.0597 86.0654 46.4333C85.7912 46.5921 85.4841 46.6703 85.1547 46.6703Z" fill="#03FFCF"/>
<path d="M81.5952 48.7252C81.1489 48.7252 80.663 48.5808 80.1663 48.2927L71.0137 42.9933C70.8355 42.8898 70.7743 42.6606 70.8769 42.4814C70.9801 42.3021 71.2086 42.2407 71.3874 42.3442L80.54 47.6436C81.1621 48.0033 81.7278 48.0731 82.1327 47.8385C82.5371 47.6039 82.7602 47.0781 82.7602 46.358V44.1442C82.7602 43.1449 83.116 42.3887 83.7609 42.0151C84.4063 41.641 85.2378 41.7101 86.1005 42.2101L88.0123 43.317C88.1905 43.4205 88.2517 43.6497 88.1491 43.8289C88.0453 44.0076 87.8168 44.0684 87.6386 43.9661L85.7267 42.8592C85.1034 42.4982 84.5383 42.4302 84.134 42.6643C83.7297 42.8989 83.5065 43.4247 83.5065 44.1448V46.3586C83.5065 47.3578 83.1508 48.114 82.5059 48.4876C82.2317 48.6464 81.924 48.7252 81.5952 48.7252Z" fill="#03FFCF"/>
<path d="M78.0352 50.7795C77.5889 50.7795 77.1024 50.6345 76.6057 50.3463L49.4466 34.2636C49.269 34.1583 49.2096 33.9285 49.3146 33.7504C49.4202 33.5717 49.6493 33.514 49.8263 33.6181L76.9824 49.6996C77.6015 50.0588 78.1672 50.1274 78.5715 49.8933C78.9764 49.6587 79.199 49.1329 79.199 48.4122V46.199C79.199 45.1998 79.5548 44.443 80.2002 44.0694C80.8457 43.6958 81.6766 43.7644 82.5398 44.2643L84.4517 45.3712C84.6299 45.4747 84.6911 45.7039 84.5879 45.8832C84.4847 46.0624 84.2555 46.1226 84.0774 46.0203L82.1661 44.9134C81.5434 44.5537 80.9783 44.4845 80.5734 44.7185C80.1684 44.9531 79.9459 45.4789 79.9459 46.1996V48.4128C79.9459 49.4127 79.5901 50.1689 78.9447 50.5424C78.6711 50.7007 78.364 50.7795 78.0352 50.7795Z" fill="#FF3003"/>
<path d="M74.4749 52.8321C74.0286 52.8321 73.5426 52.6877 73.0459 52.3995L45.8904 36.3162C45.7129 36.2109 45.6535 35.9811 45.7584 35.803C45.8634 35.6249 46.0938 35.5666 46.2696 35.6707L73.4221 51.7522C74.0411 52.1102 74.6062 52.1794 75.0118 51.9453C75.4167 51.7107 75.6393 51.1849 75.6393 50.4648V48.251C75.6393 47.2518 75.995 46.4956 76.6399 46.122C77.2854 45.7478 78.1168 45.817 78.9795 46.3169L80.8914 47.4238C81.0695 47.5273 81.1307 47.7565 81.0281 47.9358C80.9243 48.1144 80.6958 48.1746 80.5182 48.0723L78.6064 46.9654C77.9837 46.6045 77.418 46.5371 77.0136 46.7705C76.6093 47.0051 76.3861 47.5309 76.3861 48.251V50.4648C76.3861 51.4641 76.0304 52.2203 75.3849 52.5938C75.1114 52.7533 74.8042 52.8321 74.4749 52.8321Z" fill="#FF3003"/>
<path d="M70.916 54.8866C70.4697 54.8866 69.9838 54.7416 69.4865 54.4535L42.2776 38.4038C42.1 38.2991 42.04 38.0693 42.145 37.8912C42.25 37.7132 42.4785 37.6548 42.6561 37.7577L69.8632 53.8056C70.4823 54.1653 71.048 54.2339 71.4529 53.9999C71.8579 53.7653 72.0804 53.2395 72.0804 52.5188V50.3056C72.0804 49.3063 72.4362 48.5495 73.0816 48.176C73.7271 47.8024 74.558 47.8715 75.4212 48.3715L77.3325 49.4778C77.5113 49.5812 77.5725 49.8105 77.4693 49.9897C77.3667 50.1684 77.1375 50.2298 76.9594 50.1263L75.0475 49.02C74.4248 48.6596 73.8597 48.5898 73.4548 48.8245C73.0498 49.0591 72.8273 49.5849 72.8273 50.3056V52.5188C72.8273 53.5186 72.4715 54.2748 71.826 54.6484C71.5519 54.8078 71.2447 54.8866 70.916 54.8866Z" fill="#FF3003"/>
<path d="M67.3552 56.9391C66.9089 56.9391 66.4229 56.7947 65.9262 56.5066L38.7209 40.4569C38.5434 40.3522 38.4834 40.1224 38.5884 39.9443C38.6933 39.7663 38.9225 39.7067 39.0995 39.8114L66.3024 55.8593C66.9227 56.2172 67.4889 56.2864 67.8921 56.0524C68.297 55.8178 68.5196 55.292 68.5196 54.5719V52.358C68.5196 51.3588 68.8747 50.6026 69.5202 50.229C70.1657 49.8554 70.9972 49.924 71.8598 50.4239L73.7717 51.5309C73.9498 51.6343 74.0116 51.8635 73.9085 52.0428C73.8047 52.2215 73.5761 52.2816 73.3979 52.18L71.4867 51.0731C70.864 50.7121 70.2989 50.6441 69.8939 50.8781C69.4896 51.1128 69.2665 51.6385 69.2665 52.3586V54.5725C69.2665 55.5717 68.9107 56.3279 68.2652 56.7015C67.9917 56.8603 67.6845 56.9391 67.3552 56.9391Z" fill="#FF3003"/>
<path d="M63.7955 58.9943C63.3492 58.9943 62.8633 58.8493 62.366 58.5611L53.2134 53.2624C53.0352 53.1589 52.974 52.9297 53.0766 52.7504C53.1798 52.5712 53.4083 52.5104 53.5871 52.6133L62.7397 57.9126C63.3624 58.2736 63.9275 58.3428 64.3318 58.1081C64.7368 57.8735 64.9593 57.3477 64.9593 56.627V54.4138C64.9593 53.414 65.3151 52.6578 65.9605 52.2842C66.606 51.9106 67.4363 51.9798 68.3002 52.4797L70.2114 53.586C70.3902 53.6895 70.4514 53.9187 70.3482 54.098C70.245 54.2766 70.0159 54.3386 69.8383 54.2351L67.927 53.1288C67.3043 52.7679 66.7386 52.6987 66.3343 52.9333C65.9294 53.1679 65.7068 53.6937 65.7068 54.4144V56.6276C65.7068 57.6275 65.3511 58.3837 64.7056 58.7573C64.432 58.9155 64.1249 58.9943 63.7955 58.9943Z" fill="#03FFCF"/>
<path d="M60.2356 61.0472C59.7893 61.0472 59.3034 60.9029 58.8067 60.6147L49.6541 55.3153C49.4759 55.2119 49.4141 54.9827 49.5173 54.8034C49.6205 54.6241 49.849 54.5628 50.0278 54.6662L59.1804 59.9656C59.8025 60.3253 60.3688 60.3945 60.7725 60.1605C61.1775 59.9259 61.4 59.4001 61.4 58.68V56.4662C61.4 55.4669 61.7558 54.7107 62.4006 54.3372C63.0461 53.9636 63.877 54.0322 64.7402 54.5321L66.6521 55.639C66.8303 55.7425 66.8915 55.9717 66.7883 56.1509C66.6851 56.3296 66.4553 56.3904 66.2778 56.2875L64.3665 55.1806C63.7438 54.819 63.1787 54.751 62.7738 54.9857C62.3695 55.2203 62.1463 55.7461 62.1463 56.4662V58.68C62.1463 59.6792 61.7906 60.4354 61.1451 60.809C60.8721 60.9684 60.565 61.0472 60.2356 61.0472Z" fill="#03FFCF"/>
<path d="M56.6759 63.1006C56.2296 63.1006 55.7437 62.9556 55.2463 62.6675L46.0937 57.3681C45.9156 57.2646 45.8544 57.0354 45.957 56.8561C46.0601 56.6769 46.2887 56.6155 46.4675 56.719L55.6201 62.0183C56.2422 62.3787 56.8079 62.4479 57.2122 62.2139C57.6171 61.9792 57.8397 61.4535 57.8397 60.7328V58.5195C57.8397 57.5197 58.1954 56.7635 58.8409 56.3899C59.4864 56.0157 60.3173 56.0855 61.1805 56.5854L63.0918 57.6917C63.2705 57.7952 63.3317 58.0244 63.2286 58.2031C63.1254 58.3818 62.8962 58.4437 62.7186 58.3403L60.8068 57.2339C60.1835 56.873 59.619 56.8044 59.2141 57.0384C58.8091 57.273 58.5866 57.7988 58.5866 58.5195V60.7328C58.5866 61.7326 58.2308 62.4888 57.5853 62.8624C57.3124 63.0218 57.0052 63.1006 56.6759 63.1006Z" fill="#03FFCF"/>
<path d="M53.1162 65.1527C52.6699 65.1527 52.184 65.0083 51.6873 64.7202L42.5347 59.4208C42.3565 59.3173 42.2953 59.0881 42.3979 58.9089C42.5011 58.7296 42.7296 58.6682 42.9078 58.7717L52.0598 64.0711C52.6813 64.4308 53.2476 64.5 53.6525 64.266C54.0574 64.0313 54.28 63.5056 54.28 62.7855V60.5716C54.28 59.5724 54.6358 58.8162 55.2806 58.4426C55.9261 58.069 56.757 58.1376 57.6202 58.6375L59.5321 59.7445C59.7103 59.8479 59.7715 60.0771 59.6689 60.2564C59.5657 60.4351 59.3359 60.4958 59.1584 60.3936L57.2471 59.2867C56.6244 58.9257 56.0599 58.8571 55.6544 59.0917C55.25 59.3264 55.0269 59.8521 55.0269 60.5722V62.7861C55.0269 63.7853 54.6712 64.5415 54.0263 64.9151C53.7527 65.0739 53.445 65.1527 53.1162 65.1527Z" fill="#03FFCF"/>
<path d="M49.5566 67.2079C49.1102 67.2079 48.6237 67.063 48.127 66.7748L38.975 61.476C38.7962 61.3726 38.735 61.1434 38.8382 60.9641C38.9414 60.7848 39.1705 60.7241 39.3481 60.8269L48.5001 66.1257C49.1222 66.4866 49.6879 66.5558 50.0929 66.3212C50.4978 66.0866 50.7203 65.5608 50.7203 64.8401V62.6269C50.7203 61.6271 51.0761 60.8709 51.7216 60.4973C52.3671 60.1237 53.1973 60.1923 54.0612 60.6928L55.9724 61.7997C56.1506 61.9032 56.2124 62.1324 56.1092 62.3117C56.0054 62.4903 55.7763 62.5511 55.5987 62.4488L53.6874 61.3419C53.0647 60.9809 52.4996 60.9118 52.0953 61.1464C51.6904 61.381 51.4678 61.9068 51.4678 62.6275V64.8407C51.4678 65.8399 51.1121 66.5967 50.4666 66.9703C50.193 67.1291 49.8853 67.2079 49.5566 67.2079Z" fill="#03FFCF"/>
<path d="M45.9967 69.2609C45.5504 69.2609 45.0639 69.1159 44.5671 68.8278L35.4145 63.5284C35.2364 63.4249 35.1752 63.1957 35.2778 63.0165C35.3809 62.8372 35.6095 62.7764 35.7883 62.8793L44.9403 68.1787C45.5636 68.5396 46.1281 68.6076 46.533 68.3736C46.9373 68.139 47.1605 67.6132 47.1605 66.8931V64.6792C47.1605 63.68 47.5162 62.9238 48.1617 62.5502C48.8066 62.1767 49.6381 62.2446 50.5013 62.7452L52.4132 63.8521C52.5914 63.9555 52.6525 64.1847 52.5494 64.364C52.4462 64.5427 52.2164 64.6034 52.0389 64.5012L50.1276 63.3943C49.5055 63.0339 48.9398 62.9653 48.5354 63.1994C48.1305 63.434 47.908 63.9598 47.908 64.6799V66.8937C47.908 67.8929 47.5528 68.6491 46.9073 69.0227C46.6332 69.1815 46.3254 69.2609 45.9967 69.2609Z" fill="#03FFCF"/>
<path d="M42.4369 71.3135C41.9906 71.3135 41.5041 71.1685 41.0074 70.8803L31.8554 65.5816C31.6766 65.4781 31.6154 65.2489 31.7186 65.0696C31.8212 64.8904 32.0503 64.8296 32.2285 64.9325L41.3811 70.2312C42.0038 70.5916 42.5689 70.6614 42.9738 70.4268C43.3788 70.1921 43.6013 69.6663 43.6013 68.9456V66.7324C43.6013 65.7326 43.9571 64.9764 44.6025 64.6028C45.248 64.2286 46.0783 64.2984 46.9422 64.7983L48.8534 65.9052C49.0316 66.0087 49.0928 66.2379 48.9902 66.4172C48.8864 66.5959 48.6573 66.6566 48.4797 66.5543L46.5684 65.4474C45.9463 65.0871 45.3812 65.0173 44.9763 65.2519C44.5714 65.4865 44.3488 66.0123 44.3488 66.733V68.9463C44.3488 69.9455 43.9931 70.7023 43.3476 71.0759C43.0728 71.2347 42.7657 71.3135 42.4369 71.3135Z" fill="#03FFCF"/>
<path d="M38.8771 73.3682C38.4308 73.3682 37.9442 73.2232 37.4475 72.935L28.2949 67.6356C28.1167 67.5322 28.0556 67.303 28.1581 67.1237C28.2607 66.9444 28.4899 66.8837 28.6687 66.9865L37.8213 72.2859C38.4439 72.6468 39.0097 72.7148 39.414 72.4808C39.8183 72.2462 40.0415 71.7204 40.0415 71.0003V68.7865C40.0415 67.7872 40.3972 67.0311 41.0427 66.6575C41.6882 66.2839 42.519 66.3525 43.3823 66.8524L45.2942 67.9593C45.4723 68.0628 45.5335 68.292 45.4309 68.4713C45.3278 68.6505 45.098 68.7107 44.921 68.6078L43.0092 67.5009C42.3871 67.1411 41.8214 67.072 41.4164 67.306C41.0121 67.5406 40.7889 68.0664 40.7889 68.7865V71.0003C40.7889 71.9995 40.4338 72.7557 39.7883 73.1293C39.5136 73.2893 39.2058 73.3682 38.8771 73.3682Z" fill="#03FFCF"/>
<path d="M121.1 38.6238C120.771 38.6238 120.464 38.545 120.19 38.3862C119.544 38.0126 119.189 37.2564 119.189 36.2571V34.0433C119.189 33.3226 118.966 32.7968 118.562 32.5622C118.157 32.3276 117.591 32.3974 116.969 32.7577L115.058 33.8646C114.879 33.9687 114.651 33.9062 114.548 33.7275C114.445 33.5482 114.506 33.319 114.684 33.2155L116.596 32.1086C117.459 31.6087 118.29 31.5395 118.935 31.9131C119.581 32.2867 119.937 33.0429 119.937 34.0427V36.2565C119.937 36.9766 120.16 37.5024 120.564 37.737C120.968 37.9711 121.535 37.9013 122.157 37.5421L131.309 32.2428C131.488 32.1393 131.716 32.2013 131.819 32.3793C131.923 32.5586 131.861 32.7878 131.683 32.8913L122.531 38.1906C122.033 38.4788 121.547 38.6238 121.1 38.6238Z" fill="#03FFCF"/>
<path d="M124.66 40.6786C124.332 40.6786 124.025 40.5992 123.75 40.4404C123.105 40.0668 122.75 39.3106 122.75 38.3114V36.0976C122.75 35.3775 122.527 34.8517 122.122 34.6171C121.718 34.3825 121.152 34.4522 120.53 34.812L118.618 35.9189C118.439 36.0224 118.211 35.9604 118.108 35.7817C118.005 35.6025 118.066 35.3733 118.245 35.2698L120.156 34.1629C121.02 33.6624 121.85 33.595 122.496 33.968C123.141 34.3415 123.497 35.0977 123.497 36.097V38.3108C123.497 39.0309 123.72 39.5567 124.124 39.7913C124.528 40.0259 125.094 39.9567 125.717 39.5964L134.869 34.297C135.048 34.1936 135.276 34.2555 135.379 34.4336C135.483 34.6129 135.421 34.8421 135.243 34.9455L126.09 40.2449C125.593 40.5331 125.107 40.6786 124.66 40.6786Z" fill="#03FFCF"/>
<path d="M128.221 42.7312C127.891 42.7312 127.584 42.6524 127.31 42.4936C126.665 42.12 126.309 41.3638 126.309 40.3646V38.1507C126.309 37.43 126.086 36.9042 125.681 36.6696C125.277 36.435 124.711 36.5054 124.089 36.8651L122.177 37.9721C121.998 38.0749 121.769 38.0136 121.667 37.8349C121.564 37.6556 121.625 37.4264 121.803 37.323L123.715 36.216C124.578 35.7161 125.409 35.6469 126.054 36.0205C126.7 36.3941 127.056 37.1509 127.056 38.1501V40.364C127.056 41.0841 127.278 41.6098 127.683 41.8445C128.088 42.0791 128.654 42.0093 129.276 41.6495L138.428 36.3502C138.607 36.2467 138.835 36.3087 138.938 36.4874C139.042 36.6666 138.98 36.8958 138.802 36.9993L129.649 42.2987C129.153 42.5862 128.667 42.7312 128.221 42.7312Z" fill="#03FFCF"/>
<path d="M131.78 44.7844C131.451 44.7844 131.144 44.7055 130.87 44.5467C130.225 44.1731 129.869 43.417 129.869 42.4171V40.2033C129.869 39.4832 129.646 38.9574 129.241 38.7228C128.837 38.4882 128.27 38.558 127.649 38.9177L125.737 40.0246C125.559 40.1281 125.33 40.0667 125.227 39.8875C125.124 39.7082 125.185 39.479 125.364 39.3755L127.275 38.2686C128.139 37.7681 128.97 37.7001 129.615 38.0737C130.261 38.4473 130.616 39.2035 130.616 40.2027V42.4165C130.616 43.1372 130.839 43.663 131.243 43.8976C131.648 44.1322 132.213 44.0618 132.835 43.7021L141.988 38.4027C142.167 38.2999 142.395 38.3612 142.498 38.5399C142.601 38.7192 142.54 38.9484 142.361 39.0519L133.209 44.3512C132.712 44.6394 132.226 44.7844 131.78 44.7844Z" fill="#03FFCF"/>
<path d="M135.34 46.838C135.01 46.838 134.703 46.7592 134.429 46.6004C133.784 46.2268 133.428 45.4706 133.428 44.4714V42.2576C133.428 41.5369 133.205 41.0111 132.8 40.7764C132.396 40.5418 131.83 40.611 131.208 40.972L129.296 42.0789C129.118 42.1824 128.89 42.1204 128.786 41.9423C128.683 41.763 128.744 41.5338 128.923 41.4304L130.834 40.3235C131.697 39.8235 132.528 39.7544 133.174 40.1279C133.819 40.5015 134.175 41.2583 134.175 42.2576V44.4714C134.175 45.1915 134.398 45.7173 134.802 45.9519C135.207 46.1865 135.772 46.1167 136.395 45.757L145.547 40.4576C145.725 40.3541 145.954 40.4161 146.058 40.5942C146.161 40.7734 146.1 41.0026 145.921 41.1061L136.768 46.4055C136.272 46.6936 135.786 46.838 135.34 46.838Z" fill="#03FFCF"/>
<path d="M138.9 48.8912C138.571 48.8912 138.263 48.8124 137.99 48.6536C137.344 48.28 136.989 47.5238 136.989 46.5239V44.3101C136.989 43.59 136.765 43.0642 136.361 42.8296C135.956 42.5944 135.39 42.6654 134.768 43.0245L132.857 44.1314C132.678 44.2349 132.45 44.173 132.347 43.9943C132.243 43.815 132.305 43.5858 132.483 43.4829L134.395 42.376C135.259 41.8755 136.09 41.8075 136.735 42.1811C137.381 42.5547 137.736 43.3109 137.736 44.3101V46.5239C137.736 47.2446 137.959 47.7704 138.363 48.005C138.768 48.2391 139.334 48.1693 139.956 47.8095L149.108 42.5102C149.287 42.4061 149.515 42.4687 149.619 42.6467C149.722 42.826 149.661 43.0552 149.482 43.1587L140.329 48.458C139.832 48.7462 139.346 48.8912 138.9 48.8912Z" fill="#03FFCF"/>
<path d="M142.459 50.9459C142.13 50.9459 141.823 50.8671 141.549 50.7082C140.903 50.3347 140.548 49.5785 140.548 48.5792V46.3654C140.548 45.6453 140.324 45.1195 139.92 44.8849C139.515 44.6503 138.949 44.7195 138.327 45.0798L136.416 46.1867C136.237 46.2902 136.009 46.2288 135.906 46.0496C135.802 45.8703 135.864 45.6411 136.042 45.5376L137.954 44.4307C138.817 43.9302 139.648 43.8622 140.293 44.2358C140.939 44.6094 141.294 45.3656 141.294 46.3648V48.5786C141.294 49.2987 141.518 49.8245 141.922 50.0591C142.326 50.2943 142.893 50.2234 143.515 49.8642L152.667 44.5649C152.846 44.4614 153.074 44.5233 153.177 44.702C153.28 44.8813 153.219 45.1105 153.04 45.214L143.888 50.5127C143.392 50.8015 142.906 50.9459 142.459 50.9459Z" fill="#03FFCF"/>
<path d="M146.019 52.999C145.691 52.999 145.383 52.9202 145.109 52.7614C144.464 52.3878 144.108 51.6316 144.108 50.6318V48.4179C144.108 47.6979 143.885 47.1721 143.481 46.9374C143.077 46.7034 142.511 46.7732 141.888 47.1324L139.977 48.2393C139.798 48.3433 139.569 48.2808 139.467 48.1021C139.363 47.9228 139.425 47.6936 139.603 47.5902L141.515 46.4832C142.378 45.9833 143.209 45.9147 143.854 46.2883C144.5 46.6619 144.856 47.4181 144.856 48.4173V50.6312C144.856 51.3519 145.079 51.8777 145.483 52.1123C145.888 52.3469 146.453 52.2771 147.075 51.9168L156.228 46.6174C156.406 46.5139 156.635 46.5759 156.738 46.7546C156.841 46.9338 156.78 47.163 156.601 47.2659L147.449 52.5653C146.952 52.854 146.465 52.999 146.019 52.999Z" fill="#03FFCF"/>
<path d="M149.58 55.0525C149.25 55.0525 148.943 54.9737 148.669 54.8149C148.023 54.4413 147.668 53.6851 147.668 52.6859V50.472C147.668 49.7519 147.445 49.2261 147.04 48.9915C146.635 48.7563 146.07 48.8261 145.447 49.1864L143.536 50.2934C143.357 50.3968 143.129 50.3355 143.026 50.1562C142.923 49.9769 142.984 49.7477 143.162 49.6448L145.074 48.5379C145.938 48.038 146.768 47.9694 147.413 48.343C148.059 48.7166 148.414 49.4728 148.414 50.472V52.6859C148.414 53.406 148.637 53.9317 149.041 54.1664C149.446 54.401 150.012 54.3312 150.634 53.9714L159.786 48.6721C159.965 48.568 160.193 48.6306 160.297 48.8092C160.4 48.9885 160.339 49.2177 160.16 49.3212L151.007 54.6206C150.512 54.9081 150.025 55.0525 149.58 55.0525Z" fill="#03FFCF"/>
<path d="M153.139 57.1066C152.81 57.1066 152.503 57.0278 152.229 56.869C151.584 56.4954 151.228 55.7386 151.228 54.7394V52.5262C151.228 51.8055 151.005 51.2797 150.6 51.0451C150.195 50.8104 149.63 50.8802 149.008 51.24L147.096 52.3469C146.918 52.451 146.689 52.3884 146.586 52.2097C146.483 52.0304 146.544 51.8012 146.723 51.6978L148.634 50.5909C149.497 50.0903 150.328 50.0224 150.973 50.3959C151.619 50.7695 151.975 51.5263 151.975 52.5256V54.7388C151.975 55.4595 152.198 55.9853 152.602 56.2199C153.007 56.4539 153.573 56.3847 154.195 56.0244L163.347 50.725C163.526 50.6215 163.754 50.6829 163.857 50.8616C163.961 51.0408 163.899 51.27 163.721 51.3735L154.569 56.6729C154.072 56.9616 153.585 57.1066 153.139 57.1066Z" fill="#03FFCF"/>
<path d="M156.7 59.1597C156.37 59.1597 156.063 59.0809 155.789 58.922C155.143 58.5485 154.788 57.7923 154.788 56.793V54.5792C154.788 53.8591 154.565 53.3333 154.161 53.0987C153.756 52.8641 153.19 52.9333 152.568 53.2936L150.657 54.4005C150.478 54.504 150.25 54.442 150.146 54.264C150.043 54.0847 150.104 53.8555 150.283 53.752L152.195 52.6451C153.059 52.1452 153.89 52.0772 154.535 52.4502C155.18 52.8238 155.535 53.58 155.535 54.5792V56.793C155.535 57.5131 155.758 58.0389 156.163 58.2735C156.566 58.5069 157.133 58.4378 157.755 58.0786L166.907 52.7793C167.086 52.6752 167.315 52.7377 167.418 52.9164C167.521 53.0957 167.46 53.3249 167.281 53.4278L158.129 58.7271C157.632 59.0153 157.145 59.1597 156.7 59.1597Z" fill="#03FFCF"/>
<path d="M160.259 61.2133C159.93 61.2133 159.622 61.1344 159.349 60.9756C158.703 60.602 158.347 59.8453 158.347 58.846V56.6328C158.347 55.9121 158.124 55.3863 157.72 55.1517C157.314 54.9165 156.749 54.9863 156.127 55.3466L154.216 56.4535C154.037 56.557 153.809 56.495 153.705 56.317C153.602 56.1377 153.663 55.9085 153.842 55.805L155.753 54.6981C156.617 54.1982 157.448 54.1296 158.093 54.5032C158.739 54.8768 159.094 55.6336 159.094 56.6328V58.846C159.094 59.5667 159.317 60.0925 159.722 60.3271C160.126 60.5617 160.692 60.4914 161.314 60.1316L170.466 54.8322C170.645 54.7288 170.874 54.7901 170.977 54.9688C171.08 55.1481 171.019 55.3773 170.841 55.4808L161.689 60.7801C161.191 61.0683 160.705 61.2133 160.259 61.2133Z" fill="#03FFCF"/>
<path d="M163.819 63.2676C163.489 63.2676 163.182 63.1888 162.908 63.03C162.263 62.6564 161.907 61.9002 161.907 60.901V58.6871C161.907 57.967 161.684 57.4412 161.28 57.2066C160.876 56.9726 160.31 57.0418 159.687 57.4015L157.776 58.5085C157.597 58.6125 157.369 58.55 157.265 58.3713C157.162 58.192 157.223 57.9628 157.402 57.8599L159.314 56.753C160.177 56.2531 161.008 56.1839 161.653 56.5581C162.299 56.9317 162.654 57.6879 162.654 58.6871V60.901C162.654 61.6211 162.877 62.1468 163.281 62.3815C163.686 62.6155 164.252 62.5457 164.874 62.1865L174.026 56.8872C174.204 56.7837 174.433 56.8451 174.536 57.0244C174.64 57.2036 174.578 57.4328 174.4 57.5363L165.247 62.8357C164.751 63.1232 164.264 63.2676 163.819 63.2676Z" fill="#03FFCF"/>
<path d="M167.378 65.3191C167.05 65.3191 166.742 65.2403 166.468 65.0815C165.823 64.7079 165.467 63.9517 165.467 62.9519V60.7386C165.467 60.0179 165.244 59.4921 164.84 59.2575C164.435 59.0229 163.869 59.0933 163.247 59.453L161.335 60.5594C161.157 60.6634 160.928 60.6009 160.825 60.4222C160.722 60.2429 160.783 60.0137 160.962 59.9102L162.873 58.8039C163.736 58.304 164.567 58.2348 165.213 58.6084C165.858 58.982 166.214 59.7388 166.214 60.738V62.9513C166.214 63.672 166.437 64.1977 166.841 64.4324C167.246 64.667 167.811 64.5966 168.434 64.2368L177.586 58.9375C177.765 58.834 177.993 58.896 178.097 59.0746C178.2 59.2539 178.139 59.4831 177.96 59.5866L168.807 64.886C168.311 65.1741 167.825 65.3191 167.378 65.3191Z" fill="#03FFCF"/>
<path d="M170.938 67.3728C170.61 67.3728 170.302 67.294 170.028 67.1352C169.382 66.7616 169.027 66.0054 169.027 65.0062V62.7923C169.027 62.0722 168.804 61.5465 168.4 61.3118C167.995 61.0784 167.43 61.147 166.806 61.5068L164.895 62.6137C164.716 62.7165 164.488 62.6552 164.385 62.4771C164.281 62.2978 164.343 62.0686 164.521 61.9652L166.433 60.8582C167.296 60.3583 168.128 60.2897 168.773 60.6633C169.419 61.0369 169.774 61.7931 169.774 62.7923V65.0062C169.774 65.7263 169.997 66.2521 170.402 66.4867C170.806 66.7213 171.372 66.6509 171.994 66.2918L181.146 60.9924C181.326 60.8889 181.554 60.9503 181.657 61.1296C181.76 61.3088 181.699 61.538 181.52 61.6409L172.367 66.9403C171.871 67.2284 171.385 67.3728 170.938 67.3728Z" fill="#03FFCF"/>
<path d="M174.498 69.4279C174.169 69.4279 173.862 69.3491 173.588 69.1902C172.942 68.8167 172.587 68.0605 172.587 67.0606V64.8474C172.587 64.1267 172.363 63.6009 171.959 63.3663C171.554 63.1317 170.989 63.2021 170.366 63.5618L168.455 64.6681C168.276 64.7722 168.047 64.709 167.945 64.5316C167.841 64.3523 167.903 64.1231 168.081 64.0196L169.993 62.9133C170.856 62.4134 171.687 62.3442 172.333 62.7178C172.978 63.0914 173.334 63.8482 173.334 64.8474V67.0606C173.334 67.7813 173.557 68.3071 173.962 68.5417C174.366 68.7757 174.932 68.7066 175.554 68.3462L184.706 63.0469C184.885 62.9428 185.114 63.0053 185.217 63.1834C185.32 63.3627 185.259 63.5919 185.081 63.6954L175.928 68.9947C175.43 69.2823 174.944 69.4279 174.498 69.4279Z" fill="#03FFCF"/>
<path d="M178.059 71.4808C177.729 71.4808 177.422 71.402 177.148 71.2432C176.503 70.8696 176.147 70.1134 176.147 69.1142V66.9004C176.147 66.1803 175.924 65.6545 175.519 65.4199C175.114 65.1858 174.549 65.2544 173.926 65.6148L172.015 66.7217C171.837 66.8252 171.607 66.7632 171.504 66.5845C171.401 66.4053 171.462 66.1761 171.64 66.0726L173.552 64.9657C174.416 64.4657 175.247 64.3972 175.892 64.7708C176.538 65.1443 176.893 65.9005 176.893 66.8998V69.1136C176.893 69.8337 177.116 70.3595 177.521 70.5941C177.925 70.8287 178.491 70.7589 179.113 70.3992L188.265 65.0998C188.444 64.9964 188.672 65.0583 188.776 65.2364C188.879 65.4157 188.818 65.6449 188.64 65.7483L179.487 71.0477C178.991 71.3358 178.504 71.4808 178.059 71.4808Z" fill="#03FFCF"/>
<path d="M181.618 73.5353C181.289 73.5353 180.982 73.4565 180.708 73.2983C180.062 72.9247 179.707 72.1685 179.707 71.1687V68.9554C179.707 68.2347 179.484 67.7089 179.079 67.4743C178.674 67.2397 178.108 67.3095 177.487 67.6698L175.575 68.7761C175.397 68.8796 175.168 68.8177 175.065 68.639C174.962 68.4597 175.023 68.2305 175.202 68.127L177.113 67.0207C177.976 66.5208 178.808 66.4516 179.453 66.8252C180.099 67.1988 180.454 67.9556 180.454 68.9548V71.168C180.454 71.8887 180.677 72.4145 181.082 72.6492C181.486 72.8838 182.052 72.814 182.674 72.4536L191.826 67.1549C192.005 67.0514 192.233 67.1128 192.336 67.292C192.44 67.4713 192.378 67.7005 192.2 67.804L183.047 73.1027C182.55 73.3897 182.064 73.5353 181.618 73.5353Z" fill="#03FFCF"/>
<path d="M117.54 36.5709C117.211 36.5709 116.904 36.4915 116.63 36.3327C115.985 35.9591 115.629 35.2029 115.629 34.2037V31.9899C115.629 31.2698 115.406 30.744 115.002 30.5094C114.597 30.2759 114.032 30.3445 113.409 30.7043L111.498 31.8112C111.319 31.9147 111.09 31.8527 110.987 31.6746C110.884 31.4954 110.945 31.2662 111.124 31.1627L113.035 30.0558C113.898 29.5559 114.729 29.4867 115.375 29.8609C116.02 30.2344 116.375 30.9906 116.375 31.9899V34.2037C116.375 34.9238 116.599 35.4496 117.003 35.6842C117.408 35.9188 117.973 35.8502 118.596 35.4893L127.748 30.1899C127.927 30.0864 128.156 30.1484 128.259 30.3271C128.362 30.5063 128.301 30.7356 128.123 30.839L118.971 36.1384C118.473 36.4259 117.987 36.5709 117.54 36.5709Z" fill="#03FFCF"/>
<path d="M185.178 75.5889C184.849 75.5889 184.541 75.5094 184.267 75.3506C183.621 74.977 183.266 74.2209 183.266 73.2216V71.0078C183.266 70.2877 183.043 69.7619 182.639 69.5273C182.235 69.2939 181.669 69.3631 181.046 69.7222L179.135 70.8291C178.956 70.9326 178.728 70.8706 178.624 70.692C178.521 70.5127 178.582 70.2835 178.761 70.18L180.673 69.0731C181.537 68.5732 182.368 68.5046 183.013 68.8782C183.658 69.2518 184.014 70.008 184.014 71.0072V73.221C184.014 73.9411 184.237 74.4669 184.641 74.7015C185.046 74.9355 185.611 74.8664 186.234 74.5066L195.386 69.2072C195.565 69.1044 195.793 69.1657 195.897 69.3444C196 69.5237 195.939 69.7529 195.76 69.8563L186.607 75.1557C186.11 75.4439 185.624 75.5889 185.178 75.5889Z" fill="#03FFCF"/>
<path d="M180.608 71.3V79.4503L110.278 120.169L39.9458 79.4491V71.2988L180.608 71.3Z" fill="url(#paint5_linear_23266_40665)"/>
<path d="M110.278 112.02L39.9458 71.2995L110.276 30.5801L180.608 71.3008L110.278 112.02Z" fill="#81F8DE"/>
<path d="M110.278 111.066L40.7683 70.8223L39.9458 71.2981L110.278 112.018L180.608 71.2993L179.785 70.8235L110.278 111.066Z" fill="white"/>
<path d="M110.278 102.626L56.1831 71.3068L110.276 39.9883L164.37 71.308L110.278 102.626Z" fill="#0F054C"/>
<path opacity="0.5" d="M110.277 102.628L56.1816 71.3074L110.275 39.9883L164.371 71.3086L110.277 102.628Z" fill="url(#paint6_linear_23266_40665)"/>
<path opacity="0.5" d="M110.275 32.0918L164.371 63.4115V71.3091L110.275 39.9888V32.0918Z" fill="url(#paint7_linear_23266_40665)"/>
<path opacity="0.5" d="M110.277 39.9888L56.1816 71.3079V63.4109L110.275 32.0918L110.277 39.9888Z" fill="url(#paint8_linear_23266_40665)"/>
<path opacity="0.5" d="M110.277 94.7306L56.1816 63.4109L110.275 32.0918L164.371 63.4115L110.277 94.7306Z" fill="url(#paint9_linear_23266_40665)"/>
<path opacity="0.5" d="M110.277 75.9254L88.6616 63.4107L110.276 50.8965L131.892 63.4113L110.277 75.9254Z" fill="#03FFCF"/>
<path opacity="0.5" d="M110.168 91.3481L108.921 90.6262L110.168 89.9043L111.415 90.6262L110.168 91.3481Z" fill="#03FFCF"/>
<path d="M112.736 89.8618L111.489 89.1399L112.736 88.418L113.983 89.1399L112.736 89.8618Z" fill="#03FFCF"/>
<path opacity="0.5" d="M115.303 88.3754L114.056 87.6535L115.303 86.9316L116.551 87.6535L115.303 88.3754Z" fill="#03FFCF"/>
<path opacity="0.5" d="M117.871 86.8891L116.624 86.1672L117.871 85.4453L119.118 86.1672L117.871 86.8891Z" fill="#03FFCF"/>
<path opacity="0.8" d="M120.439 85.4028L119.191 84.6809L120.439 83.959L121.686 84.6809L120.439 85.4028Z" fill="#03FFCF"/>
<path opacity="0.5" d="M110.276 52.0479L130.897 63.987L131.892 63.4113L110.276 50.8965L88.6616 63.4107L89.6563 63.9864L110.276 52.0479Z" fill="#03FFCF"/>
<path opacity="0.5" d="M110.277 94.7293V102.627L164.371 71.3078V63.4102L110.277 94.7293Z" fill="url(#paint10_linear_23266_40665)"/>
<path opacity="0.5" d="M56.1816 63.4102V71.3072L110.277 102.627V94.7299L56.1816 63.4102Z" fill="url(#paint11_linear_23266_40665)"/>
<path opacity="0.8" d="M110.277 93.8681L56.9261 62.9785L56.1816 63.4099L110.277 94.7296L164.371 63.4105L163.627 62.9797L110.277 93.8681Z" fill="#03FFCF"/>
<path d="M195.572 90.9152C195.509 90.9152 195.445 90.899 195.386 90.8647L186.233 85.5653C184.57 84.6022 183.266 82.3384 183.266 80.4121V78.1983C183.266 76.5421 182.103 74.5214 180.672 73.693L178.76 72.5861C178.582 72.4826 178.521 72.2534 178.623 72.0742C178.727 71.8949 178.955 71.8335 179.134 71.937L181.046 73.0439C182.709 74.0076 184.013 76.2714 184.013 78.1977V80.4115C184.013 82.0677 185.176 84.0884 186.606 84.9162L195.759 90.2155C195.937 90.319 195.998 90.5482 195.896 90.7275C195.827 90.8478 195.701 90.9152 195.572 90.9152Z" fill="#03FFCF"/>
<path d="M127.935 130.001C127.871 130.001 127.807 129.984 127.748 129.95L118.596 124.651C116.933 123.688 115.629 121.424 115.629 119.498V117.284C115.629 115.628 114.466 113.607 113.035 112.779L111.124 111.672C110.946 111.568 110.884 111.339 110.987 111.16C111.09 110.98 111.319 110.92 111.498 111.023L113.409 112.13C115.073 113.094 116.376 115.358 116.376 117.284V119.498C116.376 121.154 117.54 123.174 118.97 124.002L128.123 129.302C128.301 129.405 128.362 129.634 128.259 129.814C128.19 129.933 128.064 130.001 127.935 130.001Z" fill="#03FFCF"/>
<path d="M131.495 127.944C131.432 127.944 131.368 127.928 131.309 127.893L122.156 122.594C120.493 121.631 119.189 119.368 119.189 117.441V115.227C119.189 113.571 118.025 111.55 116.596 110.722L114.684 109.615C114.506 109.512 114.445 109.283 114.548 109.103C114.651 108.924 114.879 108.863 115.058 108.966L116.969 110.073C118.633 111.036 119.937 113.299 119.937 115.226V117.44C119.937 119.096 121.1 121.117 122.531 121.945L131.683 127.244C131.861 127.348 131.923 127.577 131.819 127.756C131.75 127.876 131.624 127.944 131.495 127.944Z" fill="#03FFCF"/>
<path d="M135.055 125.887C134.991 125.887 134.927 125.871 134.868 125.837L125.716 120.537C124.052 119.574 122.748 117.31 122.748 115.384V113.17C122.748 111.514 121.585 109.493 120.155 108.665L118.243 107.558C118.064 107.455 118.003 107.226 118.106 107.046C118.209 106.867 118.438 106.806 118.616 106.91L120.528 108.017C122.191 108.98 123.495 111.244 123.495 113.17V115.384C123.495 117.04 124.658 119.061 126.089 119.889L135.241 125.188C135.419 125.292 135.481 125.521 135.378 125.7C135.309 125.82 135.184 125.887 135.055 125.887Z" fill="#03FFCF"/>
<path d="M138.615 123.83C138.551 123.83 138.487 123.814 138.428 123.78L129.275 118.48C127.612 117.517 126.308 115.253 126.308 113.327V111.113C126.308 109.457 125.145 107.436 123.714 106.608L121.803 105.502C121.624 105.398 121.563 105.169 121.666 104.99C121.769 104.811 121.998 104.75 122.176 104.853L124.088 105.959C125.752 106.923 127.055 109.186 127.055 111.113V113.327C127.055 114.983 128.218 117.003 129.649 117.831L138.801 123.131C138.979 123.234 139.041 123.463 138.938 123.642C138.869 123.763 138.744 123.83 138.615 123.83Z" fill="#03FFCF"/>
<path d="M142.174 121.773C142.111 121.773 142.047 121.757 141.988 121.723L132.835 116.423C131.172 115.46 129.868 113.197 129.868 111.27V109.056C129.868 107.4 128.705 105.38 127.274 104.552L125.362 103.445C125.184 103.341 125.123 103.112 125.226 102.934C125.329 102.754 125.557 102.693 125.736 102.796L127.647 103.903C129.311 104.866 130.614 107.13 130.614 109.056V111.27C130.614 112.926 131.778 114.947 133.208 115.775L142.36 121.074C142.539 121.178 142.6 121.407 142.497 121.586C142.429 121.706 142.303 121.773 142.174 121.773Z" fill="#03FFCF"/>
<path d="M145.735 119.716C145.671 119.716 145.607 119.699 145.548 119.665L136.395 114.366C134.732 113.402 133.428 111.138 133.428 109.212V106.999C133.428 105.343 132.265 103.322 130.834 102.494L128.923 101.387C128.745 101.283 128.683 101.054 128.786 100.875C128.89 100.695 129.118 100.635 129.297 100.738L131.208 101.844C132.872 102.808 134.175 105.072 134.175 106.998V109.211C134.175 110.868 135.338 112.888 136.769 113.717L145.922 119.016C146.1 119.12 146.161 119.349 146.059 119.528C145.99 119.648 145.864 119.716 145.735 119.716Z" fill="#03FFCF"/>
<path d="M149.294 117.658C149.23 117.658 149.166 117.642 149.107 117.608L139.955 112.309C138.291 111.345 136.988 109.082 136.988 107.155V104.942C136.988 103.285 135.824 101.265 134.394 100.437L132.482 99.33C132.304 99.2265 132.243 98.9973 132.345 98.818C132.448 98.6388 132.677 98.578 132.856 98.6809L134.767 99.7878C136.43 100.751 137.734 103.014 137.734 104.941V107.155C137.734 108.811 138.898 110.832 140.327 111.659L149.48 116.959C149.658 117.062 149.719 117.292 149.617 117.471C149.549 117.591 149.423 117.658 149.294 117.658Z" fill="#03FFCF"/>
<path d="M152.854 115.602C152.79 115.602 152.726 115.586 152.668 115.551L143.515 110.253C141.851 109.289 140.548 107.025 140.548 105.099V102.885C140.548 101.229 139.385 99.208 137.955 98.3802L136.043 97.2733C135.865 97.1699 135.804 96.9407 135.906 96.7614C136.009 96.5821 136.237 96.5214 136.417 96.6242L138.328 97.7311C139.991 98.6943 141.295 100.958 141.295 102.884V105.098C141.295 106.754 142.458 108.775 143.889 109.603L153.041 114.902C153.22 115.006 153.281 115.235 153.178 115.414C153.109 115.534 152.983 115.602 152.854 115.602Z" fill="#03FFCF"/>
<path d="M156.414 113.544C156.35 113.544 156.286 113.528 156.227 113.494L147.075 108.194C145.411 107.231 144.108 104.967 144.108 103.04V100.827C144.108 99.171 142.945 97.1503 141.514 96.3219L139.603 95.215C139.424 95.1115 139.363 94.8823 139.466 94.7031C139.569 94.5238 139.797 94.4624 139.976 94.5659L141.888 95.6728C143.551 96.6366 144.855 98.9003 144.855 100.827V103.04C144.855 104.696 146.018 106.717 147.448 107.545L156.601 112.844C156.779 112.948 156.84 113.177 156.737 113.356C156.668 113.476 156.542 113.544 156.414 113.544Z" fill="#03FFCF"/>
<path d="M159.974 111.487C159.91 111.487 159.846 111.47 159.788 111.436L150.635 106.137C148.971 105.174 147.668 102.91 147.668 100.984V98.7697C147.668 97.1135 146.505 95.0928 145.074 94.265L143.163 93.1581C142.984 93.0546 142.923 92.8254 143.026 92.6461C143.128 92.4669 143.357 92.4061 143.536 92.509L145.448 93.6159C147.111 94.579 148.415 96.8428 148.415 98.7691V100.983C148.415 102.639 149.578 104.66 151.008 105.488L160.161 110.787C160.339 110.89 160.4 111.12 160.297 111.299C160.228 111.419 160.102 111.487 159.974 111.487Z" fill="#03FFCF"/>
<path d="M163.534 109.429C163.47 109.429 163.406 109.413 163.347 109.378L154.195 104.079C152.532 103.115 151.228 100.851 151.228 98.9252V96.712C151.228 95.0558 150.065 93.0345 148.635 92.2067L146.723 91.0998C146.545 90.9963 146.483 90.7671 146.586 90.5878C146.689 90.4086 146.917 90.3472 147.097 90.4507L149.008 91.5576C150.671 92.5207 151.975 94.7845 151.975 96.7113V98.9246C151.975 100.581 153.139 102.601 154.569 103.43L163.721 108.729C163.899 108.833 163.96 109.062 163.858 109.241C163.788 109.361 163.662 109.429 163.534 109.429Z" fill="#03FFCF"/>
<path d="M167.093 107.371C167.03 107.371 166.966 107.355 166.907 107.321L157.755 102.022C156.091 101.059 154.788 98.7953 154.788 96.8684V94.6546C154.788 92.9984 153.624 90.9777 152.194 90.1493L150.283 89.043C150.104 88.9395 150.043 88.7103 150.146 88.5311C150.249 88.3524 150.478 88.2904 150.656 88.3939L152.568 89.5002C154.232 90.4639 155.535 92.7277 155.535 94.654V96.8678C155.535 98.524 156.699 100.545 158.129 101.372L167.281 106.672C167.459 106.775 167.521 107.005 167.418 107.184C167.348 107.304 167.222 107.371 167.093 107.371Z" fill="#03FFCF"/>
<path d="M170.653 105.315C170.59 105.315 170.525 105.299 170.467 105.264L161.315 99.9651C159.651 99.002 158.347 96.7388 158.347 94.8119V92.5981C158.347 90.9419 157.184 88.9212 155.754 88.0934L153.842 86.9865C153.664 86.883 153.603 86.6538 153.705 86.4745C153.809 86.2953 154.037 86.2339 154.216 86.3374L156.128 87.4443C157.791 88.4074 159.095 90.6712 159.095 92.5975V94.8113C159.095 96.4675 160.259 98.4882 161.689 99.316L170.842 104.615C171.02 104.719 171.081 104.948 170.978 105.127C170.908 105.248 170.782 105.315 170.653 105.315Z" fill="#03FFCF"/>
<path d="M174.213 103.259C174.15 103.259 174.086 103.242 174.027 103.208L164.874 97.9087C163.211 96.945 161.907 94.6812 161.907 92.755V90.5417C161.907 88.8856 160.743 86.8648 159.313 86.0365L157.402 84.9295C157.224 84.8261 157.162 84.5969 157.265 84.4176C157.368 84.2377 157.596 84.1776 157.776 84.281L159.687 85.3879C161.35 86.3517 162.654 88.6154 162.654 90.5417V92.755C162.654 94.4111 163.818 96.4318 165.248 97.2602L174.4 102.56C174.579 102.663 174.64 102.892 174.537 103.072C174.468 103.191 174.342 103.259 174.213 103.259Z" fill="#03FFCF"/>
<path d="M177.773 101.202C177.709 101.202 177.645 101.185 177.586 101.151L168.434 95.8516C166.77 94.8885 165.467 92.6253 165.467 90.6984V88.4846C165.467 86.8285 164.304 84.8077 162.873 83.9799L160.961 82.873C160.783 82.7696 160.722 82.5403 160.824 82.3611C160.927 82.1818 161.155 82.1204 161.335 82.2245L163.247 83.3314C164.91 84.294 166.214 86.5577 166.214 88.4846V90.6984C166.214 92.3546 167.377 94.3753 168.807 95.2031L177.96 100.502C178.138 100.606 178.199 100.835 178.096 101.014C178.028 101.134 177.902 101.202 177.773 101.202Z" fill="#03FFCF"/>
<path d="M181.333 99.143C181.269 99.143 181.205 99.1267 181.147 99.0924L171.994 93.7937C170.33 92.8299 169.027 90.5662 169.027 88.6399V86.4261C169.027 84.7699 167.864 82.7492 166.433 81.9214L164.521 80.8145C164.343 80.711 164.282 80.4818 164.384 80.3025C164.487 80.1227 164.715 80.0625 164.895 80.1654L166.806 81.2723C168.469 82.2354 169.773 84.4986 169.773 86.4255V88.6393C169.773 90.2954 170.937 92.3162 172.367 93.1446L181.519 98.4433C181.698 98.5468 181.759 98.776 181.656 98.9553C181.587 99.0756 181.461 99.143 181.333 99.143Z" fill="#03FFCF"/>
<path d="M184.893 97.0869C184.829 97.0869 184.765 97.0706 184.706 97.0363L175.554 91.737C173.89 90.7739 172.587 88.5101 172.587 86.5832V84.37C172.587 82.7138 171.423 80.6931 169.993 79.8647L168.081 78.7578C167.903 78.6543 167.841 78.4251 167.945 78.2458C168.048 78.0666 168.276 78.0052 168.455 78.1093L170.367 79.2162C172.03 80.1799 173.334 82.4437 173.334 84.37V86.5832C173.334 88.2394 174.498 90.2607 175.927 91.0885L185.08 96.3879C185.258 96.4913 185.319 96.7205 185.216 96.8992C185.147 97.0195 185.021 97.0869 184.893 97.0869Z" fill="#03FFCF"/>
<path d="M188.453 95.0297C188.389 95.0297 188.325 95.0134 188.266 94.9792L179.113 89.6798C177.45 88.7167 176.146 86.4529 176.146 84.5266V82.3128C176.146 80.6566 174.982 78.6359 173.552 77.8081L171.64 76.7012C171.462 76.5977 171.401 76.3685 171.504 76.1893C171.607 76.0094 171.835 75.9492 172.015 76.0521L173.926 77.159C175.59 78.1215 176.893 80.3853 176.893 82.3122V84.526C176.893 86.1822 178.056 88.2029 179.486 89.0307L188.639 94.33C188.817 94.4335 188.878 94.6627 188.775 94.842C188.707 94.9623 188.581 95.0297 188.453 95.0297Z" fill="#03FFCF"/>
<path d="M192.013 92.9717C191.949 92.9717 191.885 92.9554 191.826 92.9211L182.673 87.6218C181.01 86.658 179.706 84.3943 179.706 82.468V80.2541C179.706 78.598 178.543 76.5773 177.112 75.7495L175.2 74.6426C175.022 74.5391 174.961 74.3099 175.064 74.1306C175.167 73.9513 175.395 73.89 175.575 73.9941L177.486 75.101C179.15 76.0641 180.453 78.3273 180.453 80.2541V82.468C180.453 84.1241 181.616 86.1449 183.047 86.9732L192.2 92.2726C192.378 92.3761 192.439 92.6053 192.337 92.7846C192.267 92.9043 192.142 92.9717 192.013 92.9717Z" fill="#03FFCF"/>
<path d="M88.8086 127.943C88.6797 127.943 88.5543 127.876 88.4847 127.756C88.3815 127.577 88.4427 127.348 88.6215 127.244L97.7741 121.945C99.2042 121.117 100.368 119.097 100.368 117.44V115.227C100.368 113.3 101.672 111.036 103.336 110.073L105.247 108.966C105.426 108.862 105.654 108.925 105.757 109.104C105.86 109.283 105.799 109.512 105.62 109.616L103.709 110.722C102.278 111.55 101.115 113.571 101.115 115.227V117.441C101.115 119.368 99.8119 121.632 98.1478 122.594L88.9958 127.893C88.9364 127.927 88.8722 127.943 88.8086 127.943Z" fill="#03FFCF"/>
<path d="M85.249 125.887C85.12 125.887 84.9946 125.82 84.9256 125.7C84.8224 125.521 84.8836 125.292 85.0624 125.188L94.215 119.889C95.6452 119.06 96.809 117.04 96.809 115.383V113.17C96.809 111.243 98.1125 108.979 99.7767 108.016L101.688 106.91C101.867 106.806 102.095 106.868 102.198 107.046C102.302 107.225 102.24 107.455 102.062 107.558L100.15 108.665C98.7196 109.493 97.5564 111.513 97.5564 113.17V115.383C97.5564 117.31 96.2535 119.574 94.5893 120.537L85.4367 125.837C85.3767 125.871 85.3126 125.887 85.249 125.887Z" fill="#03FFCF"/>
<path d="M81.689 123.83C81.56 123.83 81.4347 123.762 81.3651 123.642C81.2619 123.463 81.3231 123.234 81.5018 123.131L90.6545 117.831C92.0846 117.004 93.2484 114.983 93.2484 113.327V111.113C93.2484 109.187 94.552 106.922 96.2155 105.959L98.1274 104.853C98.3055 104.749 98.5341 104.811 98.6373 104.99C98.7405 105.169 98.6793 105.399 98.5005 105.502L96.5892 106.608C95.1591 107.437 93.9953 109.457 93.9953 111.114V113.327C93.9953 115.254 92.6923 117.518 91.0282 118.481L81.8762 123.78C81.8168 123.814 81.7526 123.83 81.689 123.83Z" fill="#03FFCF"/>
<path d="M78.1298 121.772C78.0009 121.772 77.8755 121.704 77.8065 121.584C77.7033 121.405 77.7645 121.176 77.9427 121.073L87.0953 115.773C88.5254 114.945 89.6892 112.925 89.6892 111.268V109.055C89.6892 107.128 90.9928 104.864 92.6569 103.901L94.5682 102.795C94.7464 102.69 94.9755 102.753 95.0787 102.932C95.1819 103.111 95.1207 103.34 94.9419 103.443L93.0301 104.55C91.5993 105.378 90.4361 107.398 90.4361 109.055V111.268C90.4361 113.195 89.1331 115.459 87.469 116.422L78.317 121.721C78.2576 121.755 78.1928 121.772 78.1298 121.772Z" fill="#03FFCF"/>
<path d="M74.5694 119.716C74.4404 119.716 74.315 119.648 74.2454 119.528C74.1423 119.349 74.2035 119.12 74.3822 119.016L83.5348 113.717C84.965 112.889 86.1288 110.868 86.1288 109.212V106.999C86.1288 105.072 87.4318 102.808 89.0959 101.845L91.0071 100.738C91.1865 100.634 91.4145 100.696 91.5177 100.875C91.6208 101.054 91.5596 101.284 91.3809 101.387L89.4696 102.494C88.0395 103.322 86.8757 105.343 86.8757 106.999V109.212C86.8757 111.139 85.5727 113.403 83.9086 114.366L74.756 119.666C74.6972 119.699 74.6324 119.716 74.5694 119.716Z" fill="#03FFCF"/>
<path d="M71.0098 117.658C70.8808 117.658 70.7555 117.591 70.6859 117.471C70.5827 117.292 70.6439 117.062 70.8226 116.959L79.9753 111.66C81.4054 110.832 82.5692 108.811 82.5692 107.155V104.941C82.5692 103.015 83.8722 100.75 85.5363 99.7879L87.4476 98.681C87.6263 98.5775 87.8549 98.6395 87.9575 98.8182C88.0607 98.9974 87.9995 99.2266 87.8207 99.3301L85.9094 100.437C84.4793 101.265 83.3155 103.286 83.3155 104.942V107.156C83.3155 109.082 82.0125 111.346 80.3484 112.309L71.1964 117.608C71.1376 117.642 71.0728 117.658 71.0098 117.658Z" fill="#03FFCF"/>
<path d="M67.4502 115.602C67.3213 115.602 67.1959 115.534 67.1263 115.414C67.0231 115.235 67.0843 115.006 67.2631 114.902L76.4157 109.603C77.8458 108.775 79.009 106.754 79.009 105.098V102.884C79.009 100.958 80.312 98.6935 81.9761 97.731L83.8874 96.6241C84.0656 96.5212 84.2947 96.5826 84.3979 96.7613C84.5011 96.9405 84.4399 97.1697 84.2611 97.2732L82.3499 98.3801C80.9197 99.2079 79.7559 101.229 79.7559 102.885V105.099C79.7559 107.025 78.4529 109.289 76.7888 110.252L67.6362 115.551C67.578 115.585 67.5132 115.602 67.4502 115.602Z" fill="#03FFCF"/>
<path d="M63.8901 113.544C63.7611 113.544 63.6357 113.476 63.5668 113.357C63.4636 113.177 63.5248 112.948 63.7029 112.845L72.8549 107.545C74.2851 106.717 75.4489 104.697 75.4489 103.04V100.827C75.4489 98.9004 76.7519 96.6361 78.416 95.6729L80.3278 94.566C80.5066 94.462 80.7346 94.5245 80.8384 94.7032C80.9415 94.8825 80.8804 95.1117 80.7016 95.2151L78.7903 96.3221C77.3602 97.1504 76.1964 99.1712 76.1964 100.827V103.041C76.1964 104.967 74.8928 107.232 73.2287 108.194L64.0767 113.494C64.0173 113.527 63.9531 113.544 63.8901 113.544Z" fill="#03FFCF"/>
<path d="M60.33 111.486C60.201 111.486 60.0757 111.419 60.0067 111.299C59.9035 111.12 59.9647 110.891 60.1434 110.787L69.2955 105.488C70.7256 104.66 71.8894 102.639 71.8894 100.983V98.7692C71.8894 96.8429 73.1924 94.5786 74.8565 93.616L76.7678 92.5091C76.9465 92.4057 77.1751 92.4676 77.2783 92.6463C77.3815 92.8256 77.3203 93.0548 77.1415 93.1582L75.2296 94.2652C73.7995 95.0929 72.6357 97.1137 72.6357 98.7698V100.984C72.6357 102.911 71.3321 105.174 69.668 106.137L60.516 111.436C60.4578 111.469 60.3936 111.486 60.33 111.486Z" fill="#03FFCF"/>
<path d="M56.7701 109.43C56.6411 109.43 56.5157 109.363 56.4461 109.243C56.3429 109.064 56.4041 108.835 56.5829 108.731L65.7349 103.432C67.1651 102.603 68.3289 100.583 68.3289 98.9264V96.7132C68.3289 94.7863 69.6318 92.5219 71.2959 91.5594L73.2072 90.4525C73.3866 90.349 73.6145 90.411 73.7177 90.5897C73.8209 90.7689 73.7597 90.9981 73.5809 91.1016L71.6691 92.2085C70.2389 93.0363 69.0751 95.0576 69.0751 96.7138V98.927C69.0751 100.853 67.7716 103.118 66.108 104.081L56.956 109.38C56.8979 109.413 56.8337 109.43 56.7701 109.43Z" fill="#03FFCF"/>
<path d="M53.21 107.372C53.081 107.372 52.9557 107.304 52.8861 107.184C52.7829 107.005 52.8441 106.776 53.0228 106.672L62.1754 101.373C63.6056 100.545 64.7694 98.5242 64.7694 96.8681V94.6543C64.7694 92.728 66.0724 90.4636 67.7365 89.5005L69.6484 88.3942C69.8265 88.2901 70.0557 88.3526 70.1583 88.5313C70.2614 88.7106 70.2003 88.9398 70.0215 89.0433L68.1102 90.1496C66.6801 90.978 65.5169 92.9987 65.5169 94.6548V96.8687C65.5169 98.7956 64.2133 101.059 62.5492 102.022L53.3972 107.321C53.3378 107.355 53.273 107.372 53.21 107.372Z" fill="#03FFCF"/>
<path d="M49.6509 105.316C49.522 105.316 49.3966 105.249 49.327 105.129C49.2238 104.95 49.285 104.721 49.4638 104.617L58.6164 99.3179C60.0465 98.4902 61.2103 96.4694 61.2103 94.8133V92.5994C61.2103 90.6726 62.5139 88.4088 64.178 87.4463L66.0893 86.3393C66.2675 86.2359 66.4966 86.2972 66.5992 86.4765C66.7024 86.6558 66.6412 86.885 66.4624 86.9885L64.5512 88.0954C63.1204 88.9231 61.9572 90.9439 61.9572 92.6V94.8139C61.9572 96.7407 60.6542 99.0045 58.9901 99.967L49.8381 105.266C49.7787 105.3 49.7139 105.316 49.6509 105.316Z" fill="#03FFCF"/>
<path d="M46.0908 103.259C45.9618 103.259 45.8364 103.191 45.7674 103.071C45.6643 102.892 45.7254 102.663 45.9036 102.559L55.0562 97.2598C56.4864 96.4314 57.6502 94.4107 57.6502 92.7546V90.5413C57.6502 88.615 58.9538 86.3507 60.6173 85.3875L62.5285 84.2806C62.7073 84.1772 62.9359 84.2391 63.039 84.4172C63.1422 84.5965 63.081 84.8257 62.9023 84.9291L60.9904 86.0361C59.5603 86.8644 58.3965 88.8852 58.3965 90.5413V92.7546C58.3965 94.6808 57.0935 96.9452 55.4294 97.9083L46.2768 103.208C46.2186 103.243 46.1538 103.259 46.0908 103.259Z" fill="#03FFCF"/>
<path d="M42.5312 101.201C42.4022 101.201 42.2768 101.134 42.2078 101.014C42.1047 100.835 42.1659 100.605 42.3446 100.502L51.4972 95.2026C52.9274 94.3748 54.0912 92.3541 54.0912 90.6979V88.4841C54.0912 86.5572 55.3947 84.2934 57.0589 83.3309L58.9701 82.224C59.1489 82.1205 59.3775 82.1825 59.4807 82.3605C59.5838 82.5398 59.5226 82.769 59.3439 82.8725L57.4326 83.9794C56.0019 84.8072 54.8387 86.8279 54.8387 88.4841V90.6979C54.8387 92.6242 53.5357 94.8885 51.8716 95.8511L42.7196 101.15C42.659 101.185 42.5942 101.201 42.5312 101.201Z" fill="#03FFCF"/>
<path d="M38.9712 99.1445C38.8423 99.1445 38.7169 99.0771 38.6473 98.9574C38.5441 98.7781 38.6053 98.5489 38.7841 98.4454L47.9367 93.1467C49.3668 92.3183 50.53 90.2975 50.53 88.6414V86.4276C50.53 84.5007 51.8336 82.2369 53.4977 81.2744L55.409 80.1675C55.5884 80.064 55.8163 80.1254 55.9195 80.3046C56.0227 80.4839 55.9615 80.7131 55.7833 80.8166L53.8715 81.9235C52.4407 82.7513 51.2775 84.772 51.2775 86.4282V88.642C51.2775 90.5683 49.9745 92.8326 48.3104 93.7958L39.1578 99.0945C39.0984 99.1282 39.0342 99.1445 38.9712 99.1445Z" fill="#03FFCF"/>
<path d="M35.4107 97.0864C35.2817 97.0864 35.1563 97.019 35.0868 96.8987C34.9836 96.7194 35.0448 96.4902 35.2235 96.3873L44.3762 91.0879C45.8063 90.2602 46.9701 88.2389 46.9701 86.5827V84.3694C46.9701 82.4432 48.2737 80.1788 49.9372 79.2157L51.8485 78.1088C52.0272 78.0053 52.2558 78.0672 52.359 78.2453C52.4622 78.4246 52.401 78.6538 52.2222 78.7573L50.3109 79.8642C48.8808 80.6926 47.717 82.7133 47.717 84.3694V86.5827C47.717 88.5096 46.414 90.7739 44.7499 91.7365L35.5979 97.0358C35.5385 97.0701 35.4743 97.0864 35.4107 97.0864Z" fill="#03FFCF"/>
<path d="M31.8511 95.0291C31.7222 95.0291 31.5968 94.9617 31.5272 94.842C31.424 94.6627 31.4852 94.4335 31.664 94.33L40.8166 89.0307C42.2467 88.2029 43.4105 86.1822 43.4105 84.526V82.3122C43.4105 80.3859 44.7135 78.1215 46.3776 77.159L48.2889 76.0521C48.4677 75.9486 48.6962 76.0106 48.7988 76.1893C48.902 76.3685 48.8408 76.5977 48.662 76.7012L46.7508 77.8081C45.3206 78.6359 44.1568 80.6566 44.1568 82.3128V84.5266C44.1568 86.4529 42.8538 88.7173 41.1897 89.6798L32.0377 94.9792C31.9789 95.0129 31.9147 95.0291 31.8511 95.0291Z" fill="#03FFCF"/>
<path d="M28.2914 92.9713C28.1624 92.9713 28.0371 92.9039 27.9681 92.7842C27.8649 92.6049 27.9261 92.3757 28.1049 92.2722L37.2575 86.9728C38.6876 86.1445 39.8514 84.1237 39.8514 82.4676V80.2537C39.8514 78.3275 41.1544 76.0631 42.8185 75.1006L44.7298 73.9937C44.9079 73.8902 45.1371 73.9515 45.2403 74.1302C45.3435 74.3095 45.2823 74.5387 45.1035 74.6422L43.1923 75.7491C41.7621 76.5769 40.5983 78.5976 40.5983 80.2537V82.4676C40.5983 84.3939 39.2953 86.6582 37.6312 87.6214L28.4786 92.9207C28.4192 92.955 28.355 92.9713 28.2914 92.9713Z" fill="#03FFCF"/>
<path d="M92.3687 130.001C92.2397 130.001 92.1143 129.934 92.0448 129.813C91.9416 129.634 92.0028 129.405 92.1815 129.301L101.334 124.002C102.764 123.174 103.928 121.154 103.928 119.497V117.284C103.928 115.357 105.232 113.093 106.895 112.13L108.806 111.023C108.985 110.919 109.213 110.981 109.317 111.159C109.42 111.339 109.359 111.568 109.18 111.671L107.269 112.778C105.839 113.607 104.675 115.627 104.675 117.284V119.497C104.675 121.424 103.372 123.688 101.708 124.651L92.5559 129.95C92.4965 129.985 92.4323 130.001 92.3687 130.001Z" fill="#03FFCF"/>
<path d="M24.7315 90.9151C24.6025 90.9151 24.4771 90.8477 24.4075 90.7274C24.3044 90.5481 24.3656 90.3189 24.5443 90.2154L33.6969 84.9161C35.1271 84.0883 36.2909 82.0676 36.2909 80.4114V78.1976C36.2909 76.2713 37.5939 74.0069 39.258 73.0438L41.1692 71.9369C41.348 71.8334 41.576 71.8953 41.6798 72.074C41.7829 72.2533 41.7218 72.4825 41.543 72.586L39.6317 73.6929C38.2016 74.5213 37.0378 76.542 37.0378 78.1982V80.412C37.0378 82.3383 35.7348 84.6026 34.0707 85.5652L24.9187 90.8645C24.8593 90.8988 24.7951 90.9151 24.7315 90.9151Z" fill="#03FFCF"/>
<defs>
<linearGradient id="paint0_linear_23266_40665" x1="0.427246" y1="20.6762" x2="57.6447" y2="20.6762" gradientUnits="userSpaceOnUse">
<stop stop-color="#5761D7"/>
<stop offset="0.0726" stop-color="#5472D8"/>
<stop offset="0.2791" stop-color="#4E9CDB"/>
<stop offset="0.4801" stop-color="#49BDDD"/>
<stop offset="0.6715" stop-color="#45D5DF"/>
<stop offset="0.8493" stop-color="#43E3E0"/>
<stop offset="1" stop-color="#42E8E0"/>
</linearGradient>
<linearGradient id="paint1_linear_23266_40665" x1="0.427246" y1="16.2626" x2="57.6447" y2="16.2626" gradientUnits="userSpaceOnUse">
<stop stop-color="#D75757"/>
<stop offset="0.0726" stop-color="#D85454"/>
<stop offset="0.2791" stop-color="#DB4E4E"/>
<stop offset="0.4801" stop-color="#DD4949"/>
<stop offset="0.6715" stop-color="#DF4545"/>
<stop offset="0.8493" stop-color="#E34343"/>
<stop offset="1" stop-color="#E84242"/>
</linearGradient>
<linearGradient id="paint2_linear_23266_40665" x1="0.427434" y1="20.6765" x2="57.6448" y2="20.6765" gradientUnits="userSpaceOnUse">
<stop stop-color="#D7578D"/>
<stop offset="0.0726" stop-color="#D8549B"/>
<stop offset="0.2791" stop-color="#DB4E5F"/>
<stop offset="0.4801" stop-color="#DD4949"/>
<stop offset="0.6715" stop-color="#DF4E45"/>
<stop offset="0.8493" stop-color="#E35643"/>
<stop offset="1" stop-color="#E88842"/>
</linearGradient>
<linearGradient id="paint3_linear_23266_40665" x1="0.427246" y1="16.2626" x2="57.6447" y2="16.2626" gradientUnits="userSpaceOnUse">
<stop stop-color="#D75757"/>
<stop offset="0.0726" stop-color="#D85454"/>
<stop offset="0.2791" stop-color="#DB4E4E"/>
<stop offset="0.4801" stop-color="#DD4949"/>
<stop offset="0.6715" stop-color="#DF4545"/>
<stop offset="0.8493" stop-color="#E34343"/>
<stop offset="1" stop-color="#E84242"/>
</linearGradient>
<linearGradient id="paint4_linear_23266_40665" x1="0.427891" y1="24.2188" x2="57.6445" y2="24.2188" gradientUnits="userSpaceOnUse">
<stop stop-color="#D757BB"/>
<stop offset="0.0726" stop-color="#D85484"/>
<stop offset="0.2791" stop-color="#DB4E4E"/>
<stop offset="0.4801" stop-color="#DD4949"/>
<stop offset="0.6715" stop-color="#DF4E45"/>
<stop offset="0.8493" stop-color="#E37D43"/>
<stop offset="1" stop-color="#E85642"/>
</linearGradient>
<linearGradient id="paint5_linear_23266_40665" x1="5.17151" y1="95.7341" x2="185.419" y2="95.7341" gradientUnits="userSpaceOnUse">
<stop stop-color="#577BD7"/>
<stop offset="0.1645" stop-color="#5EA6DA"/>
<stop offset="0.4051" stop-color="#72CEE2"/>
<stop offset="0.6924" stop-color="#92EEE3"/>
<stop offset="1" stop-color="#BCFFFB"/>
</linearGradient>
<linearGradient id="paint6_linear_23266_40665" x1="56.1817" y1="71.3079" x2="164.371" y2="71.3079" gradientUnits="userSpaceOnUse">
<stop stop-color="#42E8E0"/>
<stop offset="0.1507" stop-color="#43E3E0"/>
<stop offset="0.3285" stop-color="#45D5DF"/>
<stop offset="0.5199" stop-color="#49BDDD"/>
<stop offset="0.7209" stop-color="#4E9CDB"/>
<stop offset="0.9274" stop-color="#5472D8"/>
<stop offset="1" stop-color="#5761D7"/>
</linearGradient>
<linearGradient id="paint7_linear_23266_40665" x1="110.276" y1="51.7003" x2="164.371" y2="51.7003" gradientUnits="userSpaceOnUse">
<stop stop-color="#42E8E0"/>
<stop offset="0.1507" stop-color="#43E3E0"/>
<stop offset="0.3285" stop-color="#45D5DF"/>
<stop offset="0.5199" stop-color="#49BDDD"/>
<stop offset="0.7209" stop-color="#4E9CDB"/>
<stop offset="0.9274" stop-color="#5472D8"/>
<stop offset="1" stop-color="#5761D7"/>
</linearGradient>
<linearGradient id="paint8_linear_23266_40665" x1="56.1817" y1="51.6999" x2="110.277" y2="51.6999" gradientUnits="userSpaceOnUse">
<stop stop-color="#42E8E0"/>
<stop offset="0.1507" stop-color="#43E3E0"/>
<stop offset="0.3285" stop-color="#45D5DF"/>
<stop offset="0.5199" stop-color="#49BDDD"/>
<stop offset="0.7209" stop-color="#4E9CDB"/>
<stop offset="0.9274" stop-color="#5472D8"/>
<stop offset="1" stop-color="#5761D7"/>
</linearGradient>
<linearGradient id="paint9_linear_23266_40665" x1="56.1817" y1="63.4112" x2="164.371" y2="63.4112" gradientUnits="userSpaceOnUse">
<stop stop-color="#42E8E0"/>
<stop offset="0.1507" stop-color="#43E3E0"/>
<stop offset="0.3285" stop-color="#45D5DF"/>
<stop offset="0.5199" stop-color="#49BDDD"/>
<stop offset="0.7209" stop-color="#4E9CDB"/>
<stop offset="0.9274" stop-color="#5472D8"/>
<stop offset="1" stop-color="#5761D7"/>
</linearGradient>
<linearGradient id="paint10_linear_23266_40665" x1="110.277" y1="83.0185" x2="164.371" y2="83.0185" gradientUnits="userSpaceOnUse">
<stop stop-color="#42E8E0"/>
<stop offset="0.1507" stop-color="#43E3E0"/>
<stop offset="0.3285" stop-color="#45D5DF"/>
<stop offset="0.5199" stop-color="#49BDDD"/>
<stop offset="0.7209" stop-color="#4E9CDB"/>
<stop offset="0.9274" stop-color="#5472D8"/>
<stop offset="1" stop-color="#5761D7"/>
</linearGradient>
<linearGradient id="paint11_linear_23266_40665" x1="56.1817" y1="83.0186" x2="110.277" y2="83.0186" gradientUnits="userSpaceOnUse">
<stop stop-color="#42E8E0"/>
<stop offset="0.1507" stop-color="#43E3E0"/>
<stop offset="0.3285" stop-color="#45D5DF"/>
<stop offset="0.5199" stop-color="#49BDDD"/>
<stop offset="0.7209" stop-color="#4E9CDB"/>
<stop offset="0.9274" stop-color="#5472D8"/>
<stop offset="1" stop-color="#5761D7"/>
</linearGradient>
</defs>
</svg>
