<svg width="182" height="52" viewBox="0 0 182 52" fill="none" xmlns="http://www.w3.org/2000/svg">
<path d="M174.848 52H8.40994C4.74998 52 1.75244 49.0734 1.75244 45.5V6.5C1.75244 2.92663 4.74998 2.74817e-06 8.40994 2.74817e-06H174.848C178.507 2.74817e-06 181.505 2.92663 181.505 6.5V45.5C181.505 49.0734 178.507 52 174.848 52Z" fill="black"/>
<path d="M173.848 1.04162C176.93 1.04162 179.438 3.4905 179.438 6.5V45.5C179.438 48.5095 176.93 50.9584 173.848 50.9584H7.40994C4.32752 50.9584 1.81931 48.5095 1.81931 45.5V6.5C1.81931 3.4905 4.32752 1.04162 7.40994 1.04162H173.848ZM173.848 2.74817e-06H7.40994C3.74998 2.74817e-06 0.752441 2.92663 0.752441 6.5V45.5C0.752441 49.0734 3.74998 52 7.40994 52H173.848C177.507 52 180.505 49.0734 180.505 45.5V6.5C180.505 2.92663 177.507 2.74817e-06 173.848 2.74817e-06Z" fill="#A6A6A6"/>
<path d="M67.3579 16H65.9224L62.9048 7.54492H64.3286L66.6313 14.5234H66.6665L68.9751 7.54492H70.3755L67.3579 16ZM71.8893 16V9.83594H73.1549V16H71.8893ZM72.5221 8.93359C72.1178 8.93359 71.7897 8.61133 71.7897 8.21289C71.7897 7.80859 72.1178 7.48633 72.5221 7.48633C72.9323 7.48633 73.2604 7.80859 73.2604 8.21289C73.2604 8.61133 72.9323 8.93359 72.5221 8.93359ZM77.868 10.7441C76.9832 10.7441 76.3621 11.418 76.2977 12.3496H79.3797C79.3504 11.4062 78.7528 10.7441 77.868 10.7441ZM79.3738 14.1895H80.575C80.3992 15.3145 79.3328 16.1172 77.9207 16.1172C76.1102 16.1172 75.0145 14.8926 75.0145 12.9473C75.0145 11.0137 76.1278 9.72461 77.868 9.72461C79.5789 9.72461 80.6453 10.9316 80.6453 12.8008V13.2344H76.2918V13.3105C76.2918 14.3828 76.9363 15.0918 77.95 15.0918C78.6707 15.0918 79.2039 14.7285 79.3738 14.1895ZM90.6025 9.83594L88.915 16H87.5967L86.3017 11.3828H86.2724L84.9892 16H83.6826L81.9892 9.83594H83.2549L84.3799 14.6875H84.4033L85.6865 9.83594H86.9053L88.1943 14.6875H88.2236L89.3486 9.83594H90.6025ZM95.5345 16V9.83594H96.8001V16H95.5345ZM96.1673 8.93359C95.763 8.93359 95.4349 8.61133 95.4349 8.21289C95.4349 7.80859 95.763 7.48633 96.1673 7.48633C96.5774 7.48633 96.9056 7.80859 96.9056 8.21289C96.9056 8.61133 96.5774 8.93359 96.1673 8.93359ZM99.3042 8.37695H100.576V9.83594H101.748V10.8379H100.576V14.2363C100.576 14.7695 100.81 15.0098 101.326 15.0098C101.455 15.0098 101.66 14.998 101.742 14.9805V15.9824C101.601 16.0176 101.32 16.041 101.039 16.041C99.7905 16.041 99.3042 15.5664 99.3042 14.377V10.8379H98.4077V9.83594H99.3042V8.37695ZM109.556 16.1172C107.793 16.1172 106.633 14.9043 106.633 12.918C106.633 10.9375 107.799 9.72461 109.556 9.72461C111.314 9.72461 112.48 10.9375 112.48 12.918C112.48 14.9043 111.32 16.1172 109.556 16.1172ZM109.556 15.0742C110.553 15.0742 111.191 14.2891 111.191 12.918C111.191 11.5527 110.547 10.7676 109.556 10.7676C108.566 10.7676 107.922 11.5527 107.922 12.918C107.922 14.2891 108.566 15.0742 109.556 15.0742ZM114.299 16V9.83594H115.506V10.8672H115.535C115.869 10.1641 116.525 9.73047 117.475 9.73047C118.834 9.73047 119.613 10.5977 119.613 12.0098V16H118.342V12.2559C118.342 11.3301 117.908 10.8203 117.029 10.8203C116.139 10.8203 115.564 11.4531 115.564 12.4082V16H114.299Z" fill="white"/>
<path d="M73.0298 42H68.7642L63.0806 25.0898H67.0415L70.9087 38.3555H70.9907L74.8579 25.0898H78.7134L73.0298 42ZM91.656 29.4375V42H88.3513V39.7383H88.281C87.6599 41.3203 86.4178 42.2344 84.5193 42.2344C81.8006 42.2344 79.9959 40.4648 79.9959 37.5352V29.4375H83.4178V36.8203C83.4178 38.4961 84.2498 39.3867 85.7615 39.3867C87.2849 39.3867 88.2342 38.2969 88.2342 36.6328V29.4375H91.656ZM94.6846 42V25.0898H98.1065V42H94.6846ZM102.049 26.543H105.471V29.4375H107.791V32.0156H105.471V38.0273C105.471 38.9883 105.94 39.4453 106.948 39.4453C107.252 39.4453 107.569 39.4219 107.78 39.3867V41.9062C107.428 41.9883 106.842 42.0469 106.151 42.0469C103.198 42.0469 102.049 41.0625 102.049 38.6133V32.0156H100.28V29.4375H102.049V26.543ZM110.445 42V29.4375H113.867V42H110.445ZM112.156 28.0547C111.125 28.0547 110.328 27.2695 110.328 26.2852C110.328 25.2891 111.125 24.5156 112.156 24.5156C113.187 24.5156 113.984 25.2891 113.984 26.2852C113.984 27.2695 113.187 28.0547 112.156 28.0547ZM127.29 30.4453L124.079 42H120.739L116.263 25.0898H119.931L122.591 37.3359H122.684L125.849 25.0898H128.837L132.001 37.3359H132.095L134.767 25.0898H138.434L133.946 42H130.606L127.395 30.4453H127.29ZM145.002 31.6992C143.502 31.6992 142.424 32.8359 142.307 34.4062H147.639C147.569 32.8008 146.526 31.6992 145.002 31.6992ZM147.686 38.1562H150.826C150.451 40.6172 148.201 42.2695 145.096 42.2695C141.229 42.2695 138.908 39.7969 138.908 35.7773C138.908 31.7695 141.252 29.168 144.967 29.168C148.623 29.168 150.932 31.6406 150.932 35.4609V36.5039H142.272V36.7148C142.272 38.5078 143.408 39.7383 145.154 39.7383C146.408 39.7383 147.369 39.1172 147.686 38.1562ZM160.886 42.1992C159.046 42.1992 157.64 41.3086 156.949 39.8438H156.878V42H153.503V25.0898H156.925V31.6172H156.996C157.687 30.1289 159.082 29.2383 160.874 29.2383C164.039 29.2383 165.984 31.6641 165.984 35.7188C165.984 39.7617 164.05 42.1992 160.886 42.1992ZM159.703 31.9805C158.05 31.9805 156.914 33.4688 156.914 35.7188C156.914 37.9922 158.039 39.4453 159.703 39.4453C161.414 39.4453 162.48 38.0156 162.48 35.7188C162.48 33.4336 161.402 31.9805 159.703 31.9805Z" fill="white"/>
<path d="M52.8385 8H14.152C13.3817 8 12.7573 8.62456 12.7573 9.39466V32.4098C12.7573 33.1801 13.3817 33.8045 14.152 33.8045H52.8383C53.6086 33.8045 54.2329 33.1801 54.2329 32.4098V9.39466C54.2332 8.62456 53.6086 8 52.8385 8Z" fill="#CBF0FF"/>
<path d="M51.5533 9.52856H15.4372C14.9321 9.52856 14.5225 9.93802 14.5225 10.4433V31.3614C14.5225 31.8667 14.9319 32.2761 15.4372 32.2761H51.5533C52.0584 32.2761 52.4681 31.8667 52.4681 31.3614V10.4433C52.4678 9.93825 52.0584 9.52856 51.5533 9.52856Z" fill="#02247F"/>
<path d="M56.238 38.5105H10.7524V38.9273C10.7524 40.6242 12.1282 41.9999 13.8251 41.9999H53.1654C54.8623 41.9999 56.2378 40.6242 56.2378 38.9273V38.5105H56.238Z" fill="#92BFF8"/>
<path opacity="0.53" d="M56.238 38.5105H10.7524V38.9273C10.7524 40.6242 12.1282 41.9999 13.8251 41.9999H53.1654C54.8623 41.9999 56.2378 40.6242 56.2378 38.9273V38.5105H56.238Z" fill="#02247F"/>
<path d="M53.0666 33.8044H13.9239L10.7524 38.4697H56.238L53.0666 33.8044Z" fill="#92BFF8"/>
<path d="M51.9212 34.8752H15.0692L13.4653 37.1162H53.5248L51.9212 34.8752Z" fill="white"/>
<path d="M38.1871 40.2387H28.8038C27.8494 40.2387 27.0757 39.4649 27.0757 38.5105H39.9151C39.9153 39.4649 39.1415 40.2387 38.1871 40.2387Z" fill="#02247F"/>
<path d="M34.7407 8.58813H30.5736C30.4534 8.58813 30.356 8.68554 30.356 8.80575C30.356 8.92596 30.4534 9.02337 30.5736 9.02337H34.7407C34.8609 9.02337 34.9583 8.92596 34.9583 8.80575C34.9585 8.68554 34.8609 8.58813 34.7407 8.58813Z" fill="#02247F"/>
<path d="M36.635 8.80575C36.635 8.60114 36.4691 8.4353 36.2645 8.4353C36.0599 8.4353 35.8943 8.60114 35.8943 8.80575C35.8943 9.01014 36.0601 9.17597 36.2645 9.17597C36.4689 9.17597 36.635 9.01037 36.635 8.80575Z" fill="#02247F"/>
<path d="M33.2899 21.8884L27.3534 25.3246L26.4812 24.4524L31.6853 20.9555L33.2899 21.8884Z" fill="url(#paint0_linear_13230_38301)"/>
<path d="M33.4241 22.1209L27.48 25.5439L27.7993 26.7354L33.4297 23.9769L33.4241 22.1209Z" fill="url(#paint1_linear_13230_38301)"/>
<path d="M33.66 22.1209L39.6041 25.5439L39.2848 26.7354L33.6544 23.9769L33.66 22.1209Z" fill="url(#paint2_linear_13230_38301)"/>
<path d="M33.7942 21.8884L39.7307 25.3246L40.6029 24.4524L35.3988 20.9555L33.7942 21.8884Z" fill="url(#paint3_linear_13230_38301)"/>
<path d="M33.6601 21.6345L33.6525 14.7753L34.8439 14.4561L35.2703 20.7114L33.6601 21.6345Z" fill="url(#paint4_linear_13230_38301)"/>
<path d="M33.3917 21.6345L33.3992 14.7753L32.2078 14.4561L31.7815 20.7114L33.3917 21.6345Z" fill="url(#paint5_linear_13230_38301)"/>
<path d="M33.2899 21.8884L27.3534 25.3246L26.4812 24.4524L31.6853 20.9555L33.2899 21.8884Z" stroke="url(#paint6_linear_13230_38301)"/>
<path d="M33.4241 22.1209L27.48 25.5439L27.7993 26.7354L33.4297 23.9769L33.4241 22.1209Z" stroke="url(#paint7_linear_13230_38301)"/>
<path d="M33.66 22.1209L39.6041 25.5439L39.2848 26.7354L33.6544 23.9769L33.66 22.1209Z" stroke="url(#paint8_linear_13230_38301)"/>
<path d="M33.7942 21.8884L39.7307 25.3246L40.6029 24.4524L35.3988 20.9555L33.7942 21.8884Z" stroke="url(#paint9_linear_13230_38301)"/>
<path d="M33.6601 21.6345L33.6525 14.7753L34.8439 14.4561L35.2703 20.7114L33.6601 21.6345Z" stroke="url(#paint10_linear_13230_38301)"/>
<path d="M33.3917 21.6345L33.3992 14.7753L32.2078 14.4561L31.7815 20.7114L33.3917 21.6345Z" stroke="url(#paint11_linear_13230_38301)"/>
<g opacity="0.6">
<path d="M27.7578 27.551L33.5259 24.7615L39.294 27.551" stroke="#0439C7"/>
<path d="M27.7578 27.551L33.5259 24.7615L39.294 27.551" stroke="url(#paint12_linear_13230_38301)"/>
</g>
<g opacity="0.6">
<path d="M25.6304 24.0523L30.9257 20.4591L31.3985 14.0291" stroke="#0439C7"/>
<path d="M25.6304 24.0523L30.9257 20.4591L31.3985 14.0291" stroke="url(#paint13_linear_13230_38301)"/>
</g>
<g opacity="0.6">
<path d="M35.6536 13.9817L36.1264 20.4117L41.4217 24.0523" stroke="#0439C7"/>
<path d="M35.6536 13.9817L36.1264 20.4117L41.4217 24.0523" stroke="url(#paint14_linear_13230_38301)"/>
</g>
<path opacity="0.4" d="M27.7576 28.4965L33.5257 25.707L39.2938 28.4965" stroke="url(#paint15_linear_13230_38301)"/>
<g opacity="0.4">
<path d="M24.6843 23.485L29.9796 19.8917L30.4524 13.4617" stroke="#0439C7"/>
<path d="M24.6843 23.485L29.9796 19.8917L30.4524 13.4617" stroke="url(#paint16_linear_13230_38301)"/>
</g>
<g opacity="0.4">
<path d="M36.5518 13.8872L37.0718 19.8444L42.3672 23.485" stroke="#0439C7"/>
<path d="M36.5518 13.8872L37.0718 19.8444L42.3672 23.485" stroke="url(#paint17_linear_13230_38301)"/>
</g>
<path opacity="0.2" d="M27.7578 29.395L33.5259 26.6055L39.294 29.395" stroke="url(#paint18_linear_13230_38301)"/>
<g opacity="0.2">
<path d="M23.7388 22.7284L29.0341 19.1351L29.5069 12.7051" stroke="#0439C7"/>
<path d="M23.7388 22.7284L29.0341 19.1351L29.5069 12.7051" stroke="url(#paint19_linear_13230_38301)"/>
</g>
<g opacity="0.2">
<path d="M37.5447 12.7051L38.0175 19.1351L43.3128 22.7756" stroke="#0439C7"/>
<path d="M37.5447 12.7051L38.0175 19.1351L43.3128 22.7756" stroke="url(#paint20_linear_13230_38301)"/>
</g>
<defs>
<linearGradient id="paint0_linear_13230_38301" x1="33.5421" y1="14.4561" x2="33.5421" y2="26.7354" gradientUnits="userSpaceOnUse">
<stop stop-color="#33E6BF"/>
<stop offset="1" stop-color="#0439C7"/>
</linearGradient>
<linearGradient id="paint1_linear_13230_38301" x1="33.5421" y1="14.4561" x2="33.5421" y2="26.7354" gradientUnits="userSpaceOnUse">
<stop stop-color="#33E6BF"/>
<stop offset="1" stop-color="#0439C7"/>
</linearGradient>
<linearGradient id="paint2_linear_13230_38301" x1="33.5421" y1="14.4561" x2="33.5421" y2="26.7354" gradientUnits="userSpaceOnUse">
<stop stop-color="#33E6BF"/>
<stop offset="1" stop-color="#0439C7"/>
</linearGradient>
<linearGradient id="paint3_linear_13230_38301" x1="33.5421" y1="14.4561" x2="33.5421" y2="26.7354" gradientUnits="userSpaceOnUse">
<stop stop-color="#33E6BF"/>
<stop offset="1" stop-color="#0439C7"/>
</linearGradient>
<linearGradient id="paint4_linear_13230_38301" x1="33.5421" y1="14.4561" x2="33.5421" y2="26.7354" gradientUnits="userSpaceOnUse">
<stop stop-color="#33E6BF"/>
<stop offset="1" stop-color="#0439C7"/>
</linearGradient>
<linearGradient id="paint5_linear_13230_38301" x1="33.5421" y1="14.4561" x2="33.5421" y2="26.7354" gradientUnits="userSpaceOnUse">
<stop stop-color="#33E6BF"/>
<stop offset="1" stop-color="#0439C7"/>
</linearGradient>
<linearGradient id="paint6_linear_13230_38301" x1="33.5421" y1="14.4561" x2="33.5421" y2="26.7354" gradientUnits="userSpaceOnUse">
<stop stop-color="#33E6BF"/>
<stop offset="1" stop-color="#0439C7"/>
</linearGradient>
<linearGradient id="paint7_linear_13230_38301" x1="33.5421" y1="14.4561" x2="33.5421" y2="26.7354" gradientUnits="userSpaceOnUse">
<stop stop-color="#33E6BF"/>
<stop offset="1" stop-color="#0439C7"/>
</linearGradient>
<linearGradient id="paint8_linear_13230_38301" x1="33.5421" y1="14.4561" x2="33.5421" y2="26.7354" gradientUnits="userSpaceOnUse">
<stop stop-color="#33E6BF"/>
<stop offset="1" stop-color="#0439C7"/>
</linearGradient>
<linearGradient id="paint9_linear_13230_38301" x1="33.5421" y1="14.4561" x2="33.5421" y2="26.7354" gradientUnits="userSpaceOnUse">
<stop stop-color="#33E6BF"/>
<stop offset="1" stop-color="#0439C7"/>
</linearGradient>
<linearGradient id="paint10_linear_13230_38301" x1="33.5421" y1="14.4561" x2="33.5421" y2="26.7354" gradientUnits="userSpaceOnUse">
<stop stop-color="#33E6BF"/>
<stop offset="1" stop-color="#0439C7"/>
</linearGradient>
<linearGradient id="paint11_linear_13230_38301" x1="33.5421" y1="14.4561" x2="33.5421" y2="26.7354" gradientUnits="userSpaceOnUse">
<stop stop-color="#33E6BF"/>
<stop offset="1" stop-color="#0439C7"/>
</linearGradient>
<linearGradient id="paint12_linear_13230_38301" x1="33.5732" y1="26.2744" x2="33.3368" y2="14.5018" gradientUnits="userSpaceOnUse">
<stop stop-color="#0439C7"/>
<stop offset="1" stop-color="#33E6BF"/>
</linearGradient>
<linearGradient id="paint13_linear_13230_38301" x1="23.4555" y1="24.9464" x2="22.717" y2="14.1363" gradientUnits="userSpaceOnUse">
<stop stop-color="#0439C7"/>
<stop offset="1" stop-color="#33E6BF"/>
</linearGradient>
<linearGradient id="paint14_linear_13230_38301" x1="33.4787" y1="24.9506" x2="32.7332" y2="14.0899" gradientUnits="userSpaceOnUse">
<stop stop-color="#0439C7"/>
<stop offset="1" stop-color="#33E6BF"/>
</linearGradient>
<linearGradient id="paint15_linear_13230_38301" x1="33.4311" y1="25.7543" x2="33.2893" y2="13.4616" gradientUnits="userSpaceOnUse">
<stop stop-color="#0439C7"/>
<stop offset="1" stop-color="#33E6BF"/>
</linearGradient>
<linearGradient id="paint16_linear_13230_38301" x1="22.5095" y1="24.3791" x2="21.7709" y2="13.5689" gradientUnits="userSpaceOnUse">
<stop stop-color="#0439C7"/>
<stop offset="1" stop-color="#33E6BF"/>
</linearGradient>
<linearGradient id="paint17_linear_13230_38301" x1="34.3591" y1="24.3411" x2="33.6871" y2="13.9851" gradientUnits="userSpaceOnUse">
<stop stop-color="#0439C7"/>
<stop offset="1" stop-color="#33E6BF"/>
</linearGradient>
<linearGradient id="paint18_linear_13230_38301" x1="33.4314" y1="26.6527" x2="33.2895" y2="14.36" gradientUnits="userSpaceOnUse">
<stop stop-color="#0439C7"/>
<stop offset="1" stop-color="#33E6BF"/>
</linearGradient>
<linearGradient id="paint19_linear_13230_38301" x1="21.5639" y1="23.6225" x2="20.8253" y2="12.8123" gradientUnits="userSpaceOnUse">
<stop stop-color="#0439C7"/>
<stop offset="1" stop-color="#33E6BF"/>
</linearGradient>
<linearGradient id="paint20_linear_13230_38301" x1="35.3698" y1="23.674" x2="34.6243" y2="12.8133" gradientUnits="userSpaceOnUse">
<stop stop-color="#0439C7"/>
<stop offset="1" stop-color="#33E6BF"/>
</linearGradient>
</defs>
</svg>
