<svg width="500" height="500" viewBox="0 0 500 500" fill="none" xmlns="http://www.w3.org/2000/svg">
<path d="M419.264 106.81C414.845 93.685 405.255 81.503 391.945 77.674C375.491 72.941 364.726 75.519 350.037 84.317C334.792 93.449 313.383 100.907 296.223 91.763C282.812 84.617 276.928 69.358 267.434 58.405C265.521 56.198 263.458 54.114 261.159 52.294C251.119 44.344 240.083 41.411 227.802 39.357C214.308 37.1 201.426 38.425 189.177 44.834C176.412 51.513 166.205 62.352 158.876 74.618C145.711 96.652 143.139 122.398 133.997 145.981C132.438 150.002 130.179 154.404 126.016 155.53C119.343 157.335 116.722 150.884 113.393 146.817C109.521 142.086 103.174 136.023 96.6719 135.695C85.4069 135.127 77.0649 148.743 77.0649 160.393V426.889C77.3539 428.133 77.6389 429.379 77.9319 430.621H421.99V124.34C421.99 118.422 421.171 112.51 419.299 106.917C419.288 106.881 419.276 106.845 419.264 106.81Z" fill="#061B3A"/>
<path d="M390.205 429.552H110.292C105.764 429.552 102.093 425.881 102.093 421.353V265.288C102.093 260.76 105.764 257.089 110.292 257.089H390.206C394.734 257.089 398.405 260.76 398.405 265.288V421.353C398.404 425.881 394.733 429.552 390.205 429.552Z" fill="#202786"/>
<path d="M398.404 265.77H102.093V420.292H398.404V265.77Z" fill="#22325E"/>
<path d="M394.501 269.154H105.135V278.8H394.501V269.154Z" fill="#59C6EE"/>
<path d="M225.192 277.158C226.317 278.668 233.168 277.14 240.495 273.747C246.655 270.894 251.174 267.636 251.794 265.771H231.726C230.689 266.299 229.692 266.83 228.792 267.36C228.05 267.797 227.359 268.231 226.726 268.656C226.41 268.868 226.108 269.079 225.822 269.286C224.964 269.908 224.245 270.504 223.693 271.054C222.588 272.153 222.144 273.066 222.566 273.632C223.066 274.304 224.691 276.485 225.192 277.158Z" fill="#244FB0"/>
<path d="M203.142 265.77H188.684C187.569 266.468 186.429 267.235 185.287 268.075C183.725 269.223 182.316 270.382 181.105 271.495C181.463 270.959 181.817 270.412 182.162 269.842C183.012 268.437 183.73 267.065 184.317 265.77H169.982C168.955 267.512 168.115 269.203 167.505 270.737C167.241 271.4 167.019 272.034 166.84 272.63C166.661 273.226 166.525 273.786 166.434 274.3C166.252 275.327 166.252 276.173 166.448 276.771C166.497 276.92 166.559 277.054 166.633 277.172C166.781 277.407 166.979 277.575 167.23 277.669C168.122 278.005 171.019 279.094 171.911 279.429C172.958 279.823 174.712 278.83 176.669 276.939C176.359 277.718 176.368 278.323 176.777 278.669C177.451 279.239 179.64 281.09 180.314 281.66C181.828 282.941 188.094 280.274 194.309 275.704C199.723 271.721 203.309 267.61 203.142 265.77Z" fill="#244FB0"/>
<path d="M303.604 271.526C303.447 271.415 303.271 271.304 303.076 271.195C302.299 270.756 301.233 270.33 299.948 269.942C298.342 269.457 296.393 269.03 294.237 268.709C293.375 268.58 292.479 268.469 291.559 268.377C289.719 268.193 287.956 268.107 286.342 268.107C284.728 268.107 283.264 268.195 282.024 268.36C281.094 268.484 280.289 268.651 279.641 268.857C278.993 269.063 278.502 269.309 278.198 269.59C277.996 269.778 277.876 269.981 277.85 270.198C277.756 270.973 277.449 273.488 277.355 274.263C277.281 274.867 277.946 275.503 279.135 276.107C276.986 275.837 275.061 275.747 273.544 275.84C272.485 275.905 271.634 276.062 271.027 276.302C270.969 276.271 270.907 276.233 270.85 276.204C269.504 275.509 268.449 275.301 267.886 275.715C267.218 276.207 265.049 277.804 264.381 278.296C262.88 279.401 265.452 284.511 270.125 289.708C270.487 290.111 270.851 290.498 271.215 290.876C269.954 290.492 268.596 290.133 267.165 289.817C265.366 289.421 263.63 289.13 262.029 288.942C260.829 288.802 259.705 288.719 258.689 288.695C258.35 288.687 258.024 288.685 257.71 288.69C255.83 288.719 254.423 288.979 253.74 289.466C253.626 289.547 253.533 289.635 253.46 289.728C253.388 289.822 253.337 289.922 253.308 290.028C253.104 290.786 252.443 293.244 252.24 294.002C251.924 295.179 254.442 296.816 258.405 298.238C258.397 298.261 258.378 298.281 258.372 298.304C258.291 298.607 258.135 299.185 257.966 299.815C257.508 299.736 257.055 299.664 256.611 299.6C254.531 299.301 252.635 299.164 251.068 299.188C251.049 299.188 251.033 299.19 251.014 299.19C251.014 298.127 251.014 296.325 251.014 295.686C251.014 294.592 248.669 293.627 245.103 293.057C244.488 292.959 243.83 292.875 243.147 292.801C246.176 292.22 248.114 291.333 248.114 290.339C248.114 289.703 248.114 287.917 248.114 286.852C254.939 286.705 260.287 285.349 260.287 283.696C260.287 282.916 260.287 280.386 260.287 279.606C260.287 279.168 259.912 278.751 259.233 278.372C258.724 278.088 258.045 277.824 257.225 277.589C256.678 277.433 256.07 277.288 255.408 277.159C255.077 277.094 254.732 277.033 254.376 276.977C252.236 276.635 249.657 276.436 246.88 276.436C244.104 276.436 241.524 276.635 239.384 276.977C239.027 277.034 238.683 277.095 238.352 277.159C237.69 277.288 237.081 277.432 236.534 277.589C235.714 277.824 235.035 278.087 234.526 278.372C233.847 278.751 233.472 279.168 233.472 279.606C233.472 280.242 233.472 282.028 233.472 283.093C231.619 283.133 229.873 283.261 228.316 283.461C227.556 283.559 226.841 283.673 226.178 283.802C225.185 283.996 224.312 284.223 223.589 284.476C222.143 284.982 221.299 285.592 221.299 286.248C221.299 287.028 221.299 289.558 221.299 290.338C221.299 290.48 221.352 290.619 221.429 290.757C220.622 289.996 219.201 288.656 218.703 288.186C218.563 288.054 218.37 287.976 218.147 287.929C221.625 284.317 223.462 281.088 222.397 280.084C221.8 279.521 219.865 277.696 219.268 277.133C219.017 276.896 218.622 276.8 218.112 276.83C216.707 276.914 214.422 277.964 211.831 279.68C211.353 278.879 210.845 278.028 210.618 277.648C210.561 277.552 210.483 277.467 210.387 277.393C210.217 277.262 209.979 277.172 209.698 277.108C209.342 277.027 208.912 276.993 208.4 277.015C208.171 277.025 207.928 277.044 207.672 277.074C206.391 277.221 204.78 277.612 202.98 278.214C202.62 278.334 202.253 278.464 201.879 278.601C200.383 279.15 198.785 279.83 197.156 280.626C193.492 282.417 190.453 284.413 188.66 286.091C188.461 286.277 188.277 286.46 188.109 286.638C187.103 287.705 186.681 288.605 187.025 289.182C187.435 289.868 188.763 292.094 189.173 292.78C189.988 294.146 194.821 293.249 200.447 290.809C199.607 292.279 199.365 293.412 199.92 293.935C200.517 294.498 202.452 296.323 203.049 296.886C203.188 297.018 203.382 297.096 203.605 297.143C202.315 298.482 201.246 299.77 200.473 300.91C200.309 301.152 200.158 301.387 200.021 301.615C199.609 302.298 199.321 302.914 199.171 303.438C199.071 303.787 199.034 304.096 199.063 304.357C199.092 304.618 199.188 304.831 199.355 304.989C199.952 305.552 201.887 307.377 202.484 307.94C203.195 308.611 205.061 308.145 207.45 306.875C207.957 307.848 208.682 309.237 208.955 309.759C209.447 310.703 211.819 310.71 215.067 309.961C214.917 310.042 214.761 310.123 214.615 310.204C213.928 310.586 213.285 310.97 212.693 311.348C212.397 311.537 212.115 311.726 211.846 311.912C211.308 312.285 210.825 312.65 210.405 313.003C209.699 313.595 209.182 314.148 208.861 314.643C208.514 315.18 208.399 315.649 208.587 316.009C208.955 316.714 210.148 319.002 210.516 319.707C211.114 320.853 214.478 320.621 218.827 319.325C210.069 325.374 204.413 334.916 204.413 345.656C204.413 363.942 220.793 378.765 240.998 378.765C261.204 378.765 277.583 363.941 277.583 345.656C277.583 336.008 273.02 327.327 265.744 321.275C270.24 321.738 273.539 321.349 273.868 320.127C274.072 319.369 274.733 316.911 274.936 316.154C274.965 316.048 274.97 315.938 274.953 315.824C274.912 315.545 274.723 315.244 274.429 314.933C274.245 314.739 274.031 314.541 273.758 314.339C273.581 314.207 273.386 314.075 273.174 313.941C271.902 313.14 270.018 312.311 267.742 311.563C267.735 311.561 267.727 311.558 267.72 311.556C269.956 311.47 271.433 311.03 271.647 310.236C271.729 309.933 271.884 309.355 272.053 308.725C278.106 309.762 282.949 309.509 283.352 308.013C283.556 307.255 284.217 304.797 284.42 304.039C284.449 303.933 284.454 303.823 284.437 303.709C284.337 303.029 283.442 302.231 281.972 301.424C280.992 300.886 279.756 300.343 278.331 299.829C278.307 299.82 278.28 299.812 278.255 299.803C278.263 299.78 278.282 299.76 278.289 299.737C278.425 299.229 278.765 297.965 279.037 296.954C280.045 297.373 280.837 297.454 281.297 297.115C281.965 296.623 284.134 295.026 284.802 294.534C285.271 294.189 285.342 293.452 285.076 292.444C284.81 291.436 284.206 290.157 283.325 288.725C283.046 288.271 282.731 287.799 282.398 287.318C289.055 288.629 294.59 288.454 295.021 286.85C295.225 286.092 295.885 283.634 296.089 282.877C296.118 282.771 296.123 282.661 296.106 282.547C296.056 282.207 295.807 281.838 295.387 281.452C294.426 280.571 292.565 279.607 290.143 278.721C290.193 278.726 290.241 278.733 290.29 278.738C297.65 279.472 303.788 278.656 304 276.916C304.094 276.141 304.4 273.627 304.495 272.852C304.529 272.574 304.394 272.288 304.139 272.003C304.002 271.847 303.83 271.686 303.604 271.526ZM227.611 305.262C227.497 305.284 227.39 305.302 227.273 305.326C227.096 305.363 226.909 305.409 226.726 305.451C227.029 305.287 227.324 305.123 227.611 304.959C227.611 305.064 227.611 305.162 227.611 305.262Z" fill="#244FB0"/>
<path d="M321.087 267.192C320.989 266.786 320.732 266.301 320.369 265.77H302.442C302.669 265.92 302.892 266.071 303.125 266.221C309.709 270.458 316.184 272.792 317.588 271.436C318.213 270.832 320.242 268.872 320.867 268.268C321.043 268.099 321.13 267.879 321.137 267.617C321.14 267.486 321.124 267.344 321.087 267.192Z" fill="#244FB0"/>
<path d="M418.226 439.583H80.5353C77.8983 439.583 75.7603 437.445 75.7603 434.808V429.165H423V434.808C423 437.445 420.863 439.583 418.226 439.583Z" fill="#33E6BF"/>
<path d="M385.132 436.01C386.197 436.01 387.061 435.146 387.061 434.081C387.061 433.015 386.197 432.152 385.132 432.152C384.067 432.152 383.203 433.015 383.203 434.081C383.203 435.146 384.067 436.01 385.132 436.01Z" fill="#202786"/>
<path d="M392.848 436.01C393.913 436.01 394.777 435.146 394.777 434.081C394.777 433.015 393.913 432.152 392.848 432.152C391.783 432.152 390.919 433.015 390.919 434.081C390.919 435.146 391.783 436.01 392.848 436.01Z" fill="#202786"/>
<path d="M400.564 436.01C401.63 436.01 402.493 435.146 402.493 434.081C402.493 433.015 401.63 432.152 400.564 432.152C399.499 432.152 398.635 433.015 398.635 434.081C398.635 435.146 399.499 436.01 400.564 436.01Z" fill="#202786"/>
<path d="M433.709 402.778L368.932 383.897C366.816 383.28 365.601 381.065 366.218 378.949L376.775 342.73C377.392 340.614 379.607 339.399 381.722 340.016L446.499 358.897C448.615 359.514 449.83 361.729 449.213 363.845L438.656 400.064C438.04 402.18 435.825 403.395 433.709 402.778Z" fill="#1DAC8D"/>
<path d="M376.489 343.605L373.596 353.53L446.031 374.642L448.923 364.717L376.489 343.605Z" fill="#202786"/>
<path d="M376.631 359.329L372.166 374.651L389.23 379.625L393.695 364.302L376.631 359.329Z" fill="white"/>
<path d="M433.687 385.438L429.397 384.188C427.891 383.749 427.026 382.172 427.465 380.666L428.426 377.37C428.865 375.864 430.442 374.999 431.948 375.438L436.238 376.688C437.744 377.127 438.609 378.704 438.17 380.21L437.209 383.506C436.77 385.012 435.193 385.877 433.687 385.438Z" fill="#33E6BF"/>
<path d="M430.718 395.625L426.428 394.374C424.922 393.935 424.057 392.358 424.496 390.852L425.457 387.556C425.896 386.05 427.473 385.185 428.979 385.624L433.269 386.875C434.775 387.314 435.64 388.891 435.201 390.397L434.24 393.693C433.801 395.199 432.224 396.064 430.718 395.625Z" fill="#33E6BF"/>
<path d="M101.163 176.572L102.728 182.966H102.727L105.189 193.025L108.704 192.165L106.957 185.027L108.7 183.266L101.163 176.572Z" fill="#202786"/>
<path d="M145.517 180.668L65.8418 200.167L77.7893 248.987L157.464 229.489L145.517 180.668Z" fill="#1DAC8D"/>
<path d="M140.072 187.175L73.6768 203.424L75.7795 212.016L142.175 195.767L140.072 187.175Z" fill="#59C6EE"/>
<path d="M101.086 212.244L77.4575 218.026L83.24 241.655L106.869 235.873L101.086 212.244Z" fill="white"/>
<path d="M95.1704 221.415C95.7714 223.871 94.6624 227.962 92.2064 228.563C89.7504 229.164 86.8774 226.048 86.2764 223.592C85.6754 221.136 87.1784 218.658 89.6344 218.057C92.0904 217.455 94.5684 218.959 95.1704 221.415Z" fill="#1DAC8D"/>
<path d="M100.67 230.033C99.8883 229.566 98.9823 229.362 98.0953 229.155C97.2083 228.947 96.3043 228.719 95.5473 228.214C95.4273 228.134 95.3133 228.042 95.2033 227.946C94.5703 229.052 93.6963 229.896 92.5983 230.165C91.5003 230.434 90.3353 230.088 89.2633 229.4C89.2103 229.536 89.1513 229.67 89.0813 229.797C88.6433 230.595 87.9463 231.215 87.2563 231.809C86.5663 232.403 85.8563 233.002 85.3783 233.777C84.5753 235.08 84.5523 236.826 85.3203 238.15L94.0313 236.016L102.742 233.886C102.811 232.355 101.984 230.818 100.67 230.033Z" fill="#1DAC8D"/>
<path d="M143.043 202.696L108.039 211.262L108.613 213.606L143.616 205.04L143.043 202.696Z" fill="#33E6BF"/>
<path d="M145.497 212.728L110.494 221.295L111.067 223.638L146.071 215.072L145.497 212.728Z" fill="#33E6BF"/>
<path d="M147.954 222.762L112.95 231.328L113.524 233.672L148.527 225.105L147.954 222.762Z" fill="#33E6BF"/>
<path d="M118.907 157.947C118.485 156.221 116.743 155.165 115.018 155.587C113.292 156.009 112.236 157.751 112.658 159.476C112.936 160.61 113.786 161.444 114.824 161.77L121.194 187.798C121.904 190.698 120.598 193.627 118.177 195.107C117.547 194.824 116.826 194.729 116.103 194.906C114.377 195.328 113.321 197.07 113.743 198.795C114.165 200.521 115.907 201.577 117.632 201.155C119.046 200.809 119.995 199.575 120.065 198.192C123.792 195.911 125.801 191.402 124.708 186.937L118.288 160.705C118.886 159.955 119.153 158.952 118.907 157.947Z" fill="#202786"/>
<path d="M129.653 318.245L123.109 336.11L135.28 334.109L125.653 359.192L132.712 358.032L123.415 380.561L124.952 364.058L119.11 365.018L122.608 342.193L110.437 344.194L115.747 320.531L81.4561 326.168L87.8951 365.339C89.894 377.5 97.6861 387.927 108.782 393.29L131.882 404.454L150.538 386.408C159.466 377.772 163.591 365.306 161.577 353.049L155.166 314.051L129.653 318.245Z" fill="#202786"/>
<path d="M126.638 326.477L123.109 336.111L135.28 334.11L125.653 359.193L132.712 358.033L123.415 380.562L124.952 364.059L119.11 365.019L122.608 342.194L110.437 344.195L113.944 328.564L89.2803 332.618L94.5683 364.789C96.2103 374.777 102.61 383.341 111.723 387.745L130.695 396.914L146.018 382.093C153.351 375 156.738 364.762 155.084 354.695L149.819 322.666L126.638 326.477Z" fill="#33E6BF"/>
<path d="M419.654 292.744L377.158 304.031L385.186 334.257L427.682 322.97L419.654 292.744Z" fill="#1DAC8D"/>
<path d="M409.554 283.458L407.171 282.389L406.583 283.802C407.32 284.661 407.886 285.688 408.195 286.853L409.845 293.064L416.383 291.328L414.733 285.117C414.149 282.917 413.075 280.98 411.677 279.364L409.554 283.458Z" fill="#202786"/>
<path d="M402.217 281.233C402.785 279.675 403.219 278.492 403.219 278.492L406.595 279.345L408.042 276.321C404.808 274.42 400.847 273.756 396.943 274.793L387.953 277.181C380.202 279.24 375.571 287.22 377.63 294.97L379.28 301.181L385.818 299.445L384.168 293.234C383.067 289.088 385.544 284.82 389.69 283.719L398.68 281.332C399.876 281.013 401.08 281.001 402.217 281.233Z" fill="#202786"/>
<path d="M406.821 309.775C407.151 306.851 405.048 304.213 402.124 303.883C399.2 303.554 396.562 305.657 396.233 308.582C395.903 311.507 398.006 314.145 400.93 314.474C403.854 314.804 406.492 312.7 406.821 309.775Z" fill="white"/>
<path d="M409.217 321.764L401.109 323.917L400.428 313.51L404.644 312.39L409.217 321.764Z" fill="white"/>
<path d="M106.212 310.942L54.2101 297.906C52.1391 297.387 50.8811 295.287 51.4001 293.216L52.4651 288.969C52.9841 286.898 55.0841 285.64 57.1551 286.159L109.157 299.195C111.228 299.714 112.486 301.814 111.967 303.885L110.902 308.132C110.383 310.203 108.283 311.461 106.212 310.942Z" fill="#59C6EE"/>
<path d="M109.861 296.386L57.859 283.35C55.788 282.831 54.53 280.731 55.049 278.66L56.114 274.413C56.633 272.342 58.733 271.084 60.804 271.603L112.806 284.639C114.877 285.158 116.135 287.258 115.616 289.329L114.551 293.576C114.032 295.647 111.932 296.905 109.861 296.386Z" fill="#1DAC8D"/>
<path d="M66.125 294.922C65.757 296.391 64.268 297.283 62.8 296.914C61.332 296.546 60.44 295.057 60.808 293.589C61.176 292.121 62.665 291.228 64.134 291.597C65.601 291.964 66.493 293.453 66.125 294.922Z" fill="#1DAC8D"/>
<path d="M75.2022 297.197C74.8342 298.665 73.3452 299.557 71.8762 299.189C70.4072 298.821 69.5162 297.332 69.8842 295.864C70.2522 294.395 71.7412 293.503 73.2102 293.872C74.6782 294.24 75.5702 295.729 75.2022 297.197Z" fill="#1DAC8D"/>
<path d="M84.2788 299.473C83.9108 300.942 82.4218 301.834 80.9528 301.465C79.4848 301.097 78.5928 299.608 78.9608 298.139C79.3288 296.671 80.8178 295.779 82.2868 296.147C83.7548 296.515 84.6468 298.004 84.2788 299.473Z" fill="#1DAC8D"/>
<path d="M93.355 301.748C92.987 303.217 91.498 304.109 90.029 303.74C88.561 303.372 87.669 301.883 88.037 300.414C88.405 298.946 89.894 298.054 91.363 298.422C92.832 298.791 93.724 300.28 93.355 301.748Z" fill="#1DAC8D"/>
<path d="M102.432 304.023C102.064 305.492 100.575 306.384 99.1071 306.015C97.6391 305.647 96.7471 304.158 97.1151 302.69C97.4831 301.221 98.9721 300.329 100.44 300.698C101.909 301.066 102.8 302.555 102.432 304.023Z" fill="#1DAC8D"/>
<path d="M97.3269 260.185C96.5419 263.316 92.8519 267.274 89.7219 266.489C86.5909 265.704 85.2049 260.474 85.9899 257.343C86.7749 254.212 89.9489 252.31 93.0799 253.095C96.2099 253.879 98.1119 257.054 97.3269 260.185Z" fill="#202786"/>
<path d="M98.401 273.192C97.797 272.199 96.895 271.429 96.018 270.666C95.141 269.903 94.256 269.107 93.702 268.084C93.614 267.922 93.54 267.75 93.473 267.576C92.099 268.447 90.609 268.88 89.21 268.529C87.811 268.178 86.701 267.094 85.9 265.678C85.759 265.8 85.612 265.916 85.458 266.018C84.488 266.658 83.331 266.942 82.198 267.202C81.065 267.461 79.906 267.714 78.905 268.305C77.221 269.298 76.155 271.255 76.233 273.208L87.339 275.99L98.444 278.776C99.435 277.091 99.418 274.862 98.401 273.192Z" fill="#202786"/>
<path d="M173.989 244.989C181.278 237.7 181.278 225.883 173.989 218.594C166.701 211.306 154.883 211.306 147.595 218.594C140.306 225.883 140.306 237.7 147.595 244.989C154.883 252.278 166.701 252.278 173.989 244.989Z" fill="#59C6EE"/>
<path d="M160.611 225.027C162.316 225.027 163.9 225.544 165.215 226.429C165.237 226.245 165.271 226.064 165.271 225.874C165.271 223.3 163.184 221.214 160.611 221.214C158.037 221.214 155.951 223.301 155.951 225.874C155.951 226.064 155.985 226.244 156.007 226.429C157.323 225.544 158.906 225.027 160.611 225.027Z" fill="#202786"/>
<path d="M171.593 232.388H167.974C167.673 231.413 167.183 230.52 166.547 229.753L170.933 226.434C171.213 226.223 171.268 225.825 171.056 225.544C170.844 225.264 170.446 225.208 170.165 225.421L165.646 228.841C164.295 227.672 162.538 226.96 160.611 226.96C158.684 226.96 156.927 227.672 155.576 228.841L151.057 225.421C150.777 225.207 150.378 225.263 150.167 225.544C149.955 225.825 150.011 226.223 150.29 226.434L154.675 229.753C154.039 230.52 153.549 231.413 153.248 232.388H149.628C149.277 232.388 148.993 232.672 148.993 233.023C148.993 233.374 149.277 233.658 149.628 233.658H152.978C152.935 233.988 152.905 234.323 152.905 234.665C152.905 235.833 153.172 236.935 153.637 237.927L150.289 240.46C150.009 240.671 149.954 241.069 150.166 241.35C150.291 241.515 150.481 241.602 150.674 241.602C150.807 241.602 150.942 241.56 151.057 241.473L154.272 239.04C155.662 241.051 157.981 242.37 160.611 242.37C163.241 242.37 165.56 241.051 166.95 239.04L170.165 241.473C170.28 241.56 170.414 241.602 170.548 241.602C170.74 241.602 170.93 241.515 171.056 241.35C171.268 241.07 171.212 240.671 170.933 240.46L167.585 237.927C168.05 236.935 168.317 235.833 168.317 234.665C168.317 234.323 168.287 233.989 168.244 233.658H171.594C171.945 233.658 172.229 233.374 172.229 233.023C172.229 232.672 171.944 232.388 171.593 232.388Z" fill="#202786"/>
<path d="M213.496 190.115C211.044 183.262 208.387 176.775 205.869 170.246L205.684 170.321C205.344 166.864 205.202 163.805 204.751 161.109C203.905 156.049 202.833 150.653 199.054 147.182C193.377 141.969 184.279 142.607 177.947 138.213C176.704 140.425 177.821 143.337 179.713 145.027C181.606 146.717 184.094 147.533 186.423 148.539C188.752 149.545 191.122 150.919 192.23 153.202C193.851 156.542 192.243 160.455 191.92 164.153C191.843 165.031 191.856 165.914 191.933 166.791C191.044 166.677 190.145 166.631 189.264 166.647C185.621 166.713 182.021 167.589 178.377 167.558C173.444 167.516 168.653 165.808 164.289 163.508C163.039 162.849 161.821 162.134 160.616 161.397C158.073 158.695 155.679 155.825 153.342 152.979C152.484 151.934 151.35 150.777 150.02 151.019C148.827 151.235 148.126 152.568 148.18 153.786C147.77 153.042 147.327 152.304 146.642 151.814C145.842 151.241 144.603 151.143 143.951 151.88C143.552 152.331 143.462 152.974 143.442 153.576C143.384 155.302 143.784 157.028 144.544 158.579C144.545 158.595 144.543 158.612 144.544 158.629C144.661 160.412 145.567 162.034 146.471 163.575C150.946 171.204 156.256 178.876 164.167 182.829C169.407 185.447 175.352 186.203 181.166 186.92C181.938 187.015 182.709 187.11 183.481 187.206C184.409 191.455 185.315 195.362 186.226 199.029C195.211 195.957 204.302 193.027 213.496 190.115Z" fill="#202786"/>
<path d="M222.083 143.668C221.847 160.379 224.707 187.222 220.926 207.136C219.217 199.93 217.013 193.37 214.624 187.113C204.626 189.977 193.857 193.307 184.08 196.333C189.279 216.048 195.591 228.539 205.944 252.017C205.963 252.06 205.982 252.103 206.001 252.147C207.776 256.152 211.771 258.713 216.151 258.713H223.578C225.504 258.713 227.494 258.838 229.402 258.643C231.901 258.388 234.27 257.263 236.215 255.701C236.372 255.575 236.526 255.447 236.677 255.315C240.741 251.779 243.689 243.403 245.636 238.241C250.935 224.19 259.408 180.908 259.508 178.585L222.083 143.668Z" fill="#244FB0"/>
<path d="M225.16 256.462L224.159 255.882C240.53 227.611 249.628 195.405 250.466 162.746L251.623 162.775C250.779 195.628 241.628 228.024 225.16 256.462Z" fill="#202786"/>
<path d="M210.933 186.962C217.9 200.85 223.105 218.802 225.355 234.176L210.933 186.962Z" stroke="#0439C7" stroke-miterlimit="10"/>
<path d="M293.994 258.161H390.555C388.154 226.794 382.09 195.708 372.504 165.745C368.759 154.039 364.429 142.399 357.8 132.05C351.171 121.701 342.923 113.367 331.537 108.739C321.57 104.688 310.428 104.535 299.741 105.776C270.494 109.173 242.549 122.889 221.971 143.947C236.303 165.079 259.18 179.069 274.475 199.515C287.031 216.301 293.929 237.212 293.994 258.161Z" fill="#0E2A52"/>
<path d="M268.676 165.016C270.239 165.016 271.507 163.749 271.507 162.185C271.507 160.621 270.239 159.354 268.676 159.354C267.112 159.354 265.845 160.621 265.845 162.185C265.845 163.749 267.112 165.016 268.676 165.016Z" fill="#1DAC8D"/>
<path d="M268.662 202.833H268.645C268.178 202.833 267.8 202.455 267.8 201.988V161.772C267.8 161.305 268.178 160.927 268.645 160.927H268.662C269.129 160.927 269.507 161.305 269.507 161.772V201.988C269.507 202.455 269.129 202.833 268.662 202.833Z" fill="#244FB0"/>
<path d="M271.293 205.88H266.132L266.718 201.62C266.854 200.632 267.698 199.896 268.695 199.896H268.73C269.727 199.896 270.571 200.632 270.707 201.62L271.293 205.88Z" fill="#1DAC8D"/>
<path d="M208.929 74.7239C206.023 84.8169 204.166 95.2129 203.4 105.688C202.839 113.351 202.957 121.453 206.704 128.16C210.529 135.007 217.618 139.417 224.878 142.385C232.822 145.633 241.254 147.499 249.393 150.222C257.532 152.945 265.592 156.676 271.507 162.895C272.527 163.968 273.55 165.156 274.961 165.604C277.022 166.258 279.305 165.057 280.59 163.318C281.875 161.579 282.389 159.406 282.895 157.304C285.392 146.948 288.475 136.623 293.682 127.329C298.889 118.035 306.393 109.764 315.994 105.15C307.028 99.4309 302.21 89.2069 297.555 79.6439C292.9 70.0819 287.342 60.0369 277.76 55.4209C271.121 52.2229 263.45 52.1149 256.089 52.4729C247.452 52.8929 238.843 53.8679 230.331 55.3899C225.379 56.2749 220.234 57.4539 216.416 60.7299C212.342 64.2249 210.414 69.5639 208.929 74.7239Z" fill="#244FB0"/>
<path d="M229.786 67.429C225.498 66.69 220.563 66.19 217.29 69.057C215.422 70.693 214.494 73.129 213.687 75.477C211.169 82.8 209.144 90.293 207.63 97.888C206.332 104.4 205.409 111.098 206.37 117.668C207.331 124.238 210.386 130.732 215.752 134.644C220.901 138.398 227.481 139.39 233.707 140.745C245.911 143.401 257.721 147.864 268.632 153.944C269.912 143.465 273.673 133.465 275.951 123.157C278.229 112.849 278.915 101.626 274.297 92.133C270.437 84.196 263.193 78.285 255.211 74.517C247.229 70.75 238.483 68.928 229.786 67.429Z" fill="#061B3A"/>
<path d="M282.179 156.402C282.179 157.966 280.912 159.233 279.348 159.233C277.784 159.233 276.517 157.965 276.517 156.402C276.517 154.839 277.784 153.571 279.348 153.571C280.911 153.571 282.179 154.839 282.179 156.402Z" fill="#1DAC8D"/>
<path d="M279.334 197.05H279.317C278.85 197.05 278.472 196.672 278.472 196.205V155.989C278.472 155.522 278.85 155.144 279.317 155.144H279.334C279.801 155.144 280.179 155.522 280.179 155.989V196.205C280.179 196.672 279.801 197.05 279.334 197.05Z" fill="#244FB0"/>
<path d="M281.966 200.097H276.805L277.391 195.837C277.527 194.849 278.371 194.113 279.368 194.113H279.403C280.4 194.113 281.244 194.849 281.38 195.837L281.966 200.097Z" fill="#1DAC8D"/>
<path d="M273.524 179.935L272.868 178.981C275.54 177.143 275.825 173.371 275.258 170.7C274.865 168.846 274.103 167.042 273.365 165.297C272.852 164.082 272.322 162.826 271.907 161.541C269.875 155.243 270.435 147.693 273.574 139.103C274.851 135.608 276.428 132.18 277.954 128.864C279.518 125.464 281.135 121.948 282.418 118.381C285.419 110.034 285.899 102.739 283.844 96.6978C280.513 86.9008 270.691 80.7398 262.507 76.4668C253.482 71.7548 244.013 67.7258 234.363 64.4898C228.828 62.6328 221.844 60.9648 216.929 64.5668L216.245 63.6328C221.59 59.7168 228.931 61.4468 234.732 63.3918C244.439 66.6468 253.964 70.6998 263.043 75.4398C271.419 79.8128 281.477 86.1388 284.941 96.3248C287.082 102.62 286.599 110.173 283.508 118.772C282.208 122.387 280.58 125.926 279.006 129.348C277.49 132.643 275.924 136.05 274.662 139.501C271.613 147.843 271.057 155.14 273.008 161.187C273.407 162.423 273.928 163.656 274.432 164.848C275.19 166.643 275.974 168.499 276.391 170.461C277.032 173.48 276.667 177.774 273.524 179.935Z" fill="#202786"/>
<path d="M348.516 243.622C337.217 238.46 327.816 229.586 322.007 218.611H289.944V217.453H322.708L322.87 217.764C328.547 228.655 337.826 237.465 348.998 242.569L348.516 243.622Z" fill="#33E6BF"/>
<path d="M138.044 126.67L125.577 146.235L189.909 187.231L202.376 167.666L138.044 126.67Z" fill="#244FB0"/>
<path d="M137.317 127.811L136.686 128.802L201.018 169.798L201.649 168.807L137.317 127.811Z" fill="#33E6BF"/>
<path d="M136.001 129.876L135.37 130.867L199.702 171.863L200.333 170.872L136.001 129.876Z" fill="#33E6BF"/>
<path d="M134.686 131.942L134.054 132.933L198.386 173.929L199.018 172.938L134.686 131.942Z" fill="#33E6BF"/>
<path d="M133.37 134.006L132.738 134.997L197.07 175.993L197.702 175.003L133.37 134.006Z" fill="#33E6BF"/>
<path d="M132.053 136.072L131.422 137.062L195.754 178.059L196.385 177.068L132.053 136.072Z" fill="#33E6BF"/>
<path d="M130.737 138.137L130.106 139.127L194.438 180.124L195.069 179.133L130.737 138.137Z" fill="#33E6BF"/>
<path d="M129.421 140.202L128.789 141.193L193.121 182.189L193.752 181.198L129.421 140.202Z" fill="#33E6BF"/>
<path d="M128.105 142.267L127.473 143.258L191.805 184.254L192.437 183.263L128.105 142.267Z" fill="#33E6BF"/>
<path d="M126.789 144.332L126.158 145.323L190.49 186.319L191.121 185.328L126.789 144.332Z" fill="#33E6BF"/>
<path d="M198.43 156.291L150.043 125.453L138.052 126.676L202.385 167.676L198.43 156.291Z" fill="#59C6EE"/>
<path d="M198.43 156.291L159.239 131.314L151.563 135.286L202.385 167.676L198.43 156.291Z" fill="#202786"/>
<path d="M198.43 156.291C198.43 156.291 166.615 136.497 161.817 119.774L149.443 121.594C149.443 121.594 162.467 144.021 202.385 167.675L198.43 156.291Z" fill="#59C6EE"/>
<path d="M161.899 90.1979C166.713 89.6789 171.528 89.1599 176.342 88.6409C174.243 96.2459 173.499 104.22 175.013 111.933C176.528 119.646 180.393 127.093 186.631 132.627C183.882 134.03 181.134 135.432 178.385 136.835C165.03 124.771 158.703 106.875 161.899 90.1979Z" fill="#59C6EE"/>
<path d="M182.706 144.961L182.559 154.951L169.874 174.855L176.844 179.297L189.614 159.259L189.2 149.854L182.706 144.961Z" fill="#244FB0"/>
<path d="M336.063 337.347C333.197 331.899 326.457 329.807 321.009 332.673C316.199 335.204 314.011 340.753 315.536 345.768L275.725 366.714L277.686 370.442L279.521 369.477L283.63 377.287L286.607 375.721L285.168 372.987L287.66 371.676L289.099 374.41L292.076 372.844L290.637 370.11L293.129 368.799L294.568 371.533L297.545 369.967L293.436 362.157L317.499 349.496C320.768 353.593 326.581 354.932 331.391 352.402C336.837 349.535 338.93 342.795 336.063 337.347ZM329.581 348.964C326.031 350.832 321.64 349.468 319.772 345.918C317.904 342.368 319.268 337.977 322.818 336.109C326.368 334.241 330.759 335.605 332.627 339.155C334.494 342.705 333.13 347.097 329.581 348.964Z" fill="#33E6BF"/>
<path d="M364.021 342.186C363.523 335.881 361.759 330.144 359.917 324.093C358.689 320.06 357.741 315.793 357.826 311.616C359.479 304.504 361.34 297.459 363.218 290.443L333.497 282.476C331.911 290.959 330.066 299.058 328.221 306.238C323.446 308.149 318.944 310.752 315.187 314.247C310.523 318.587 307.967 321.599 307.003 327.896C306.039 334.193 305.966 339.35 310.637 345.426C311.298 346.286 312.383 347.355 313.568 347.206C315.789 346.928 316.571 344.156 316.68 342.298C316.817 339.957 316.181 337.659 316.134 335.326C316.06 331.593 317.594 328.383 321.117 327.146C324.416 325.988 328.253 328.381 329.378 331.691C330.503 335.001 329.34 338.767 327.15 341.493C324.96 344.218 321.875 346.068 318.751 347.638C317.758 348.138 316.728 348.633 315.975 349.451C315.222 350.268 314.803 351.503 315.261 352.516C315.777 353.656 317.174 354.11 318.426 354.141C321.608 354.219 326.474 352.558 329.149 350.832C332.634 348.583 334.723 347.482 337.627 343.958C337.851 348.003 336.205 352.114 333.25 354.885C332.61 355.485 331.905 356.035 331.424 356.768C330.943 357.501 330.727 358.489 331.154 359.254C331.694 360.221 333.004 360.448 334.099 360.278C337.576 359.739 342.958 355.464 344.55 352.326C346.142 349.188 346.202 348.879 347.255 344.623C348.143 346.5 348.159 349.961 346.788 353.262C346.245 354.571 345.033 356.549 345.364 357.926C345.761 359.579 347.934 360.267 349.521 359.658C351.108 359.049 352.179 357.57 353.026 356.096C355.5 351.793 355.758 346.413 355.845 341.45C358.012 343.277 356.733 347.463 359.066 349.073C360.575 350.114 362.111 349.043 363.109 347.505C364.109 345.969 364.165 344.013 364.021 342.186Z" fill="#202786"/>
<path d="M376.907 238.077C377.849 217.841 378.143 204.134 371.798 181.585C366.995 164.517 356.273 137.689 343.197 123.623C335.907 115.782 329.357 115.128 322.275 114.554C313.305 113.827 304.508 121.025 303.145 129.921C301.877 138.197 306.214 146.17 310.145 153.563C321.978 175.819 331.443 199.505 336.108 224.275C339.353 241.504 336.69 264.248 332.345 284.629L364.544 295.032C370.251 276.309 375.991 257.773 376.907 238.077Z" fill="#244FB0"/>
<path d="M355.309 287.958L354.215 287.583C365.367 255.038 363.346 219.886 359.688 196.129C355.494 168.891 343.005 141.035 322.569 113.336L323.5 112.649C344.05 140.5 356.61 168.528 360.832 195.953C364.51 219.839 366.538 255.19 355.309 287.958Z" fill="#202786"/>
<path d="M252.346 75.195C244.483 72.182 235.631 74.606 227.836 77.792C225.727 78.654 223.547 79.641 222.155 81.445C220.365 83.765 220.247 86.921 220.204 89.85C220.152 93.386 220.14 97.094 221.793 100.22C222.681 101.899 224.035 103.375 224.459 105.227C224.846 106.917 223.806 110.843 224.189 112.534C225.445 118.08 227.434 122.018 231.78 126.738C235.537 130.818 239.392 135.586 242.631 140.049C243.487 141.229 245.406 140.377 246.827 140.049C249.314 139.475 250.493 139.04 253.048 138.747C256.406 138.362 261.553 138.77 263.553 136.045C264.588 134.634 265.085 132.912 265.475 131.2C266.424 127.044 267.055 122.824 267.464 118.58C268.304 109.86 269.068 100.749 266.612 92.259C264.477 84.876 259.523 77.944 252.346 75.195Z" fill="#33E6BF"/>
<path d="M226.261 111.953C227.062 110.796 227.656 109.402 228.866 108.682C230.506 107.706 232.624 108.35 234.304 109.257C236.865 110.641 239.249 112.633 242.145 112.938C245.144 113.254 247.976 111.685 250.631 110.254C256.214 107.245 262.08 104.622 268.232 103.156C268.101 99.4641 267.642 95.8061 266.615 92.2571C265.874 89.6961 264.786 87.1941 263.392 84.8971C262.754 84.7621 262.105 84.6641 261.466 84.5841C253.732 83.6201 245.792 83.8551 238.27 85.8931C231.686 87.6771 225.43 90.8851 220.405 95.4771C220.614 97.1331 221.016 98.7411 221.796 100.217C222.684 101.896 224.038 103.372 224.462 105.224C224.849 106.914 223.809 110.84 224.192 112.531C224.27 112.873 224.369 113.198 224.457 113.532C225.165 113.211 225.81 112.605 226.261 111.953Z" fill="#1DAC8D"/>
<path d="M220.754 113.192C221.183 113.579 221.875 113.526 222.372 113.233C222.87 112.94 223.222 112.458 223.573 111.999C225.115 109.98 226.985 108.086 229.373 107.218C232.435 106.105 235.835 106.842 238.96 107.763C242.085 108.684 245.287 109.795 248.52 109.394C252.408 108.911 255.681 106.324 258.544 103.649C261.406 100.974 264.193 98.0361 267.814 96.5401C268.59 96.2191 269.471 95.9061 269.849 95.1561C270.247 94.3651 269.922 93.4181 269.593 92.5961C268.265 89.2751 266.609 85.6171 263.277 84.3161C261.048 83.4461 258.549 83.8511 256.195 84.2771C243.551 86.5691 230.445 89.3751 220.34 97.3141C219.515 97.9621 218.686 98.6801 218.29 99.6511C217.789 100.878 218.07 102.268 218.357 103.562C218.987 106.397 219.616 109.232 220.246 112.066C220.337 112.475 220.443 112.912 220.754 113.192Z" fill="#202786"/>
<path d="M231.277 121.601C229.831 121.089 228.771 119.635 228.726 118.101C231.692 118.179 234.659 118.258 237.625 118.336C237.555 119.353 236.95 120.29 236.127 120.891C235.303 121.492 234.281 121.778 233.264 121.839C232.593 121.879 231.91 121.825 231.277 121.601Z" fill="#202786"/>
<path d="M259.195 91.9411C258.816 91.2321 258.046 90.8301 257.296 90.5411C254.248 89.3661 250.822 89.3851 247.657 90.1951C244.492 91.0051 241.564 92.5711 238.864 94.4101C237.818 95.1231 236.691 96.0931 236.749 97.3581C236.806 98.6011 237.975 99.4581 239.027 100.124C241.765 101.857 244.754 103.657 247.987 103.424C250.134 103.27 252.136 102.207 253.775 100.811C255.414 99.4151 256.737 97.6931 258.047 95.9841C258.95 94.8051 259.895 93.2511 259.195 91.9411Z" fill="#244FB0"/>
<path d="M227.78 101.326C228.242 101.948 228.636 102.686 228.572 103.458C228.528 103.993 228.269 104.484 228.016 104.958C227.356 106.191 226.628 107.494 225.391 108.148C225.423 105.762 224.67 103.372 223.278 101.435C223.061 101.133 222.816 100.793 222.878 100.427C222.924 100.159 223.129 99.9441 223.355 99.7921C224.072 99.3101 225.042 99.3191 225.835 99.6601C226.629 100.001 227.265 100.632 227.78 101.326Z" fill="#244FB0"/>
<path d="M252.473 301.849C252.473 300.098 247.041 298.679 240.34 298.679C233.639 298.679 228.207 300.098 228.207 301.849C228.207 302.629 228.207 305.159 228.207 305.939C228.207 307.69 233.639 309.109 240.34 309.109C247.041 309.109 252.473 307.69 252.473 305.939C252.473 305.159 252.473 302.629 252.473 301.849Z" fill="#1DAC8D"/>
<path d="M240.339 305.019C247.04 305.019 252.472 303.6 252.472 301.849C252.472 300.098 247.04 298.679 240.339 298.679C233.638 298.679 228.206 300.098 228.206 301.849C228.206 303.6 233.638 305.019 240.339 305.019Z" fill="#33E6BF"/>
<path d="M249.386 295.119C249.386 293.368 243.954 291.949 237.253 291.949C230.552 291.949 225.12 293.368 225.12 295.119C225.12 295.899 225.12 298.429 225.12 299.209C225.12 300.96 230.552 302.379 237.253 302.379C243.954 302.379 249.386 300.96 249.386 299.209C249.386 298.429 249.386 295.899 249.386 295.119Z" fill="#1DAC8D"/>
<path d="M237.253 298.289C243.954 298.289 249.386 296.87 249.386 295.119C249.386 293.368 243.954 291.949 237.253 291.949C230.552 291.949 225.12 293.368 225.12 295.119C225.12 296.87 230.552 298.289 237.253 298.289Z" fill="#33E6BF"/>
<path d="M246.761 285.684C246.761 283.933 241.329 282.514 234.628 282.514C227.927 282.514 222.495 283.933 222.495 285.684C222.495 286.464 222.495 288.994 222.495 289.774C222.495 291.525 227.927 292.944 234.628 292.944C241.329 292.944 246.761 291.525 246.761 289.774C246.761 288.993 246.761 286.463 246.761 285.684Z" fill="#1DAC8D"/>
<path d="M234.628 288.854C241.329 288.854 246.761 287.435 246.761 285.684C246.761 283.933 241.329 282.514 234.628 282.514C227.927 282.514 222.495 283.933 222.495 285.684C222.495 287.435 227.927 288.854 234.628 288.854Z" fill="#33E6BF"/>
<path d="M257.778 279.041C257.778 277.29 252.346 275.871 245.645 275.871C238.944 275.871 233.512 277.29 233.512 279.041C233.512 279.821 233.512 282.351 233.512 283.131C233.512 284.882 238.944 286.301 245.645 286.301C252.346 286.301 257.778 284.882 257.778 283.131C257.778 282.351 257.778 279.82 257.778 279.041Z" fill="#1DAC8D"/>
<path d="M245.645 282.211C252.346 282.211 257.778 280.792 257.778 279.041C257.778 277.29 252.346 275.871 245.645 275.871C238.944 275.871 233.512 277.29 233.512 279.041C233.512 280.792 238.944 282.211 245.645 282.211Z" fill="#33E6BF"/>
<path d="M263.738 215.224C262.14 214.508 258.624 218.885 255.884 225C253.144 231.115 252.218 236.653 253.816 237.369C254.528 237.688 256.836 238.722 257.548 239.041C259.146 239.757 262.662 235.38 265.402 229.265C268.142 223.15 269.068 217.612 267.47 216.896C266.759 216.578 264.45 215.543 263.738 215.224Z" fill="#1DAC8D"/>
<path d="M263.738 215.224C265.336 215.94 264.41 221.478 261.67 227.593C258.93 233.708 255.414 238.085 253.816 237.369C252.218 236.653 253.144 231.115 255.884 225C258.624 218.886 262.14 214.508 263.738 215.224Z" fill="#33E6BF"/>
<path d="M247.258 260.771C246.371 259.261 240.968 260.789 235.19 264.182C229.412 267.576 225.447 271.551 226.334 273.061C226.729 273.733 228.01 275.915 228.405 276.587C229.292 278.097 234.695 276.569 240.473 273.176C246.251 269.782 250.216 265.807 249.329 264.297C248.934 263.625 247.653 261.443 247.258 260.771Z" fill="#1DAC8D"/>
<path d="M247.258 260.771C248.145 262.281 244.18 266.256 238.402 269.65C232.624 273.044 227.221 274.571 226.334 273.061C225.447 271.551 229.412 267.576 235.19 264.182C240.968 260.789 246.371 259.261 247.258 260.771Z" fill="#33E6BF"/>
<path d="M262.31 249.682C263.01 248.077 258.597 244.605 252.454 241.928C246.311 239.251 240.764 238.382 240.065 239.987C239.753 240.702 238.743 243.021 238.431 243.736C237.731 245.341 242.144 248.813 248.287 251.49C254.43 254.167 259.977 255.036 260.676 253.431C260.988 252.716 261.999 250.397 262.31 249.682Z" fill="#1DAC8D"/>
<path d="M262.31 249.682C261.611 251.287 256.064 250.418 249.921 247.741C243.778 245.064 239.365 241.592 240.065 239.987C240.764 238.382 246.311 239.251 252.454 241.928C258.597 244.605 263.01 248.077 262.31 249.682Z" fill="#33E6BF"/>
<path d="M232.938 305.084C232.191 303.501 226.672 304.536 220.613 307.397C214.553 310.258 210.247 313.86 210.994 315.443C211.327 316.148 212.407 318.436 212.74 319.141C213.487 320.724 219.006 319.689 225.065 316.828C231.125 313.967 235.431 310.365 234.684 308.781C234.35 308.077 233.27 305.789 232.938 305.084Z" fill="#1DAC8D"/>
<path d="M232.938 305.084C233.685 306.667 229.379 310.27 223.319 313.13C217.259 315.991 211.741 317.026 210.994 315.443C210.247 313.86 214.553 310.257 220.613 307.397C226.672 304.536 232.19 303.5 232.938 305.084Z" fill="#33E6BF"/>
<path d="M231.523 295.135C230.776 293.552 225.257 294.587 219.198 297.448C213.138 300.309 208.832 303.911 209.579 305.494C209.912 306.199 210.992 308.487 211.325 309.192C212.072 310.775 217.591 309.74 223.651 306.879C229.711 304.018 234.017 300.416 233.27 298.833C232.936 298.128 231.856 295.84 231.523 295.135Z" fill="#1DAC8D"/>
<path d="M231.523 295.135C232.27 296.718 227.964 300.321 221.904 303.181C215.844 306.042 210.326 307.077 209.579 305.494C208.832 303.911 213.138 300.308 219.198 297.448C225.257 294.587 230.776 293.552 231.523 295.135Z" fill="#33E6BF"/>
<path d="M220.146 287.621C218.934 286.358 214.031 289.095 209.196 293.734C204.361 298.374 201.424 303.159 202.637 304.422C203.177 304.985 204.929 306.81 205.469 307.373C206.681 308.636 211.584 305.899 216.418 301.26C221.253 296.62 224.19 291.835 222.977 290.572C222.438 290.009 220.686 288.184 220.146 287.621Z" fill="#1DAC8D"/>
<path d="M220.146 287.621C221.358 288.884 218.422 293.67 213.587 298.309C208.752 302.949 203.85 305.686 202.637 304.422C201.424 303.158 204.361 298.373 209.196 293.734C214.032 289.095 218.934 286.358 220.146 287.621Z" fill="#33E6BF"/>
<path d="M220.658 276.568C219.446 275.305 214.543 278.042 209.709 282.681C204.874 287.321 201.937 292.106 203.15 293.369C203.69 293.932 205.442 295.757 205.982 296.32C207.194 297.583 212.097 294.846 216.931 290.207C221.766 285.567 224.703 280.782 223.49 279.519C222.95 278.957 221.198 277.131 220.658 276.568Z" fill="#1DAC8D"/>
<path d="M220.658 276.568C221.87 277.831 218.934 282.617 214.099 287.256C209.264 291.896 204.362 294.633 203.149 293.369C201.937 292.106 204.873 287.32 209.708 282.681C214.544 278.042 219.446 275.305 220.658 276.568Z" fill="#33E6BF"/>
<path d="M212.831 277.084C211.999 275.544 206.545 276.876 200.649 280.061C194.753 283.246 190.648 287.076 191.48 288.617C191.851 289.303 193.053 291.529 193.424 292.215C194.256 293.756 199.71 292.423 205.606 289.238C211.502 286.053 215.607 282.223 214.775 280.682C214.404 279.996 213.201 277.77 212.831 277.084Z" fill="#1DAC8D"/>
<path d="M212.831 277.084C213.663 278.625 209.558 282.455 203.663 285.64C197.767 288.825 192.313 290.158 191.481 288.617C190.649 287.077 194.754 283.246 200.65 280.061C206.544 276.876 211.999 275.544 212.831 277.084Z" fill="#33E6BF"/>
<path d="M207.973 261.548C206.779 260.267 201.838 262.934 196.937 267.504C192.036 272.074 189.031 276.817 190.226 278.098C190.758 278.668 192.483 280.519 193.015 281.089C194.209 282.37 199.15 279.703 204.051 275.133C208.952 270.563 211.956 265.82 210.762 264.539C210.231 263.969 208.505 262.118 207.973 261.548Z" fill="#1DAC8D"/>
<path d="M207.974 261.548C209.168 262.828 206.163 267.571 201.263 272.141C196.362 276.711 191.421 279.378 190.227 278.097C189.033 276.817 192.038 272.074 196.938 267.503C201.839 262.935 206.78 260.268 207.974 261.548Z" fill="#33E6BF"/>
<path d="M187.895 255.195C186.315 254.441 182.695 258.734 179.811 264.782C176.927 270.83 175.87 276.345 177.45 277.098C178.154 277.434 180.438 278.523 181.141 278.858C182.721 279.612 186.341 275.319 189.225 269.271C192.109 263.223 193.166 257.708 191.586 256.955C190.882 256.619 188.598 255.53 187.895 255.195Z" fill="#1DAC8D"/>
<path d="M187.895 255.195C189.476 255.949 188.418 261.463 185.534 267.511C182.65 273.559 179.03 277.852 177.45 277.098C175.869 276.344 176.927 270.83 179.811 264.782C182.695 258.733 186.314 254.441 187.895 255.195Z" fill="#33E6BF"/>
<path d="M271.039 315.587C271.453 313.886 266.51 311.222 259.999 309.638C253.488 308.054 247.874 308.148 247.46 309.85C247.276 310.608 246.677 313.066 246.493 313.824C246.079 315.525 251.022 318.189 257.533 319.773C264.044 321.357 269.658 321.263 270.072 319.561C270.257 318.803 270.855 316.345 271.039 315.587Z" fill="#1DAC8D"/>
<path d="M271.039 315.587C270.625 317.288 265.011 317.383 258.5 315.799C251.989 314.215 247.046 311.551 247.46 309.85C247.874 308.149 253.488 308.054 259.999 309.638C266.51 311.223 271.453 313.886 271.039 315.587Z" fill="#33E6BF"/>
<path d="M269.03 305.696C269.444 303.995 264.501 301.331 257.99 299.747C251.479 298.163 245.865 298.257 245.451 299.959C245.267 300.717 244.668 303.175 244.484 303.933C244.07 305.634 249.013 308.298 255.524 309.882C262.035 311.466 267.649 311.372 268.063 309.67C268.247 308.912 268.846 306.454 269.03 305.696Z" fill="#1DAC8D"/>
<path d="M269.03 305.696C268.616 307.397 263.002 307.492 256.491 305.908C249.98 304.324 245.037 301.66 245.451 299.959C245.865 298.258 251.479 298.163 257.99 299.747C264.501 301.331 269.444 303.995 269.03 305.696Z" fill="#33E6BF"/>
<path d="M279.623 303.474C280.037 301.773 275.094 299.109 268.583 297.525C262.072 295.941 256.458 296.035 256.044 297.737C255.86 298.495 255.261 300.953 255.077 301.711C254.663 303.412 259.606 306.076 266.117 307.66C272.628 309.244 278.242 309.15 278.656 307.448C278.84 306.69 279.439 304.231 279.623 303.474Z" fill="#1DAC8D"/>
<path d="M279.623 303.474C279.209 305.175 273.595 305.27 267.084 303.686C260.573 302.102 255.63 299.438 256.044 297.737C256.458 296.036 262.072 295.941 268.583 297.525C275.094 299.109 280.037 301.772 279.623 303.474Z" fill="#33E6BF"/>
<path d="M275.041 295.198C275.455 293.497 270.512 290.833 264.001 289.249C257.49 287.665 251.876 287.759 251.462 289.461C251.278 290.219 250.679 292.677 250.495 293.435C250.081 295.136 255.024 297.8 261.535 299.384C268.046 300.968 273.66 300.874 274.074 299.172C274.258 298.414 274.857 295.956 275.041 295.198Z" fill="#1DAC8D"/>
<path d="M275.041 295.198C274.627 296.899 269.013 296.994 262.502 295.41C255.991 293.826 251.048 291.162 251.462 289.461C251.876 287.76 257.49 287.665 264.001 289.249C270.512 290.833 275.455 293.497 275.041 295.198Z" fill="#33E6BF"/>
<path d="M279.969 293.969C281.327 292.864 279 287.754 274.771 282.557C270.542 277.359 266.013 274.041 264.654 275.146C264.049 275.638 262.087 277.235 261.482 277.727C260.124 278.832 262.451 283.942 266.68 289.139C270.909 294.337 275.438 297.655 276.797 296.55C277.402 296.058 279.364 294.461 279.969 293.969Z" fill="#1DAC8D"/>
<path d="M279.969 293.969C278.611 295.074 274.082 291.756 269.852 286.558C265.623 281.36 263.296 276.251 264.654 275.146C266.012 274.041 270.542 277.359 274.771 282.557C279 287.754 281.327 292.864 279.969 293.969Z" fill="#33E6BF"/>
<path d="M290.184 282.313C290.598 280.612 285.655 277.948 279.144 276.364C272.633 274.78 267.019 274.874 266.605 276.576C266.421 277.334 265.822 279.792 265.638 280.55C265.224 282.251 270.167 284.915 276.678 286.499C283.189 288.083 288.803 287.989 289.217 286.287C289.401 285.529 289.999 283.07 290.184 282.313Z" fill="#1DAC8D"/>
<path d="M290.184 282.313C289.77 284.014 284.156 284.109 277.645 282.525C271.134 280.941 266.191 278.277 266.605 276.576C267.019 274.875 272.633 274.78 279.144 276.364C285.655 277.948 290.598 280.612 290.184 282.313Z" fill="#33E6BF"/>
<path d="M297.792 272.286C297.984 270.546 292.74 268.54 286.079 267.806C279.418 267.072 273.863 267.888 273.672 269.628C273.587 270.403 273.309 272.918 273.224 273.693C273.032 275.433 278.276 277.439 284.937 278.173C291.598 278.907 297.153 278.091 297.344 276.351C297.429 275.576 297.706 273.062 297.792 272.286Z" fill="#1DAC8D"/>
<path d="M297.792 272.287C297.6 274.027 292.045 274.843 285.385 274.109C278.724 273.375 273.48 271.369 273.672 269.629C273.864 267.889 279.419 267.073 286.079 267.807C292.739 268.54 297.983 270.546 297.792 272.287Z" fill="#33E6BF"/>
<path d="M303.852 267.697C304.959 266.34 301.648 261.806 296.456 257.57C291.264 253.334 286.158 250.999 285.051 252.355C284.558 252.959 282.958 254.919 282.465 255.524C281.358 256.881 284.669 261.415 289.861 265.651C295.053 269.888 300.159 272.222 301.266 270.866C301.759 270.262 303.359 268.301 303.852 267.697Z" fill="#1DAC8D"/>
<path d="M303.852 267.697C302.745 269.054 297.639 266.719 292.447 262.482C287.255 258.245 283.944 253.711 285.051 252.355C286.158 250.998 291.264 253.333 296.456 257.57C301.647 261.807 304.958 266.341 303.852 267.697Z" fill="#33E6BF"/>
<path d="M316.912 258.944C318.382 257.993 316.624 252.661 312.986 247.034C309.347 241.407 305.206 237.616 303.735 238.567C303.08 238.99 300.956 240.364 300.301 240.788C298.831 241.739 300.589 247.071 304.227 252.698C307.866 258.325 312.007 262.116 313.478 261.165C314.133 260.741 316.257 259.367 316.912 258.944Z" fill="#1DAC8D"/>
<path d="M316.912 258.944C315.442 259.895 311.3 256.104 307.661 250.477C304.022 244.85 302.264 239.518 303.735 238.567C305.205 237.616 309.347 241.407 312.986 247.034C316.625 252.661 318.382 257.993 316.912 258.944Z" fill="#33E6BF"/>
<path d="M240.325 378.199C258.61 378.199 273.434 363.376 273.434 345.09C273.434 326.804 258.61 311.981 240.325 311.981C222.039 311.981 207.216 326.804 207.216 345.09C207.216 363.376 222.039 378.199 240.325 378.199Z" fill="#1DAC8D"/>
<path d="M240.325 374.483C256.558 374.483 269.718 361.323 269.718 345.09C269.718 328.857 256.558 315.697 240.325 315.697C224.091 315.697 210.932 328.857 210.932 345.09C210.932 361.323 224.091 374.483 240.325 374.483Z" fill="#33E6BF"/>
<path d="M240.325 344.701C245.024 344.701 248.833 340.892 248.833 336.193C248.833 331.494 245.024 327.685 240.325 327.685C235.626 327.685 231.817 331.494 231.817 336.193C231.817 340.892 235.626 344.701 240.325 344.701Z" fill="#202786"/>
<path d="M247.01 364.775L233.64 364.721L235.88 340.021L244.971 340.058L247.01 364.775Z" fill="#202786"/>
<path d="M288.007 400.242H192.644C191.091 400.242 189.831 398.983 189.831 397.429V384.24C189.831 382.686 191.09 381.427 192.644 381.427H288.007C289.56 381.427 290.82 382.686 290.82 384.24V397.429C290.82 398.982 289.56 400.242 288.007 400.242Z" fill="#202786"/>
<path d="M210.49 391.019C210.49 393.005 208.88 394.616 206.893 394.616C204.906 394.616 203.296 393.006 203.296 391.019C203.296 389.032 204.906 387.422 206.893 387.422C208.88 387.422 210.49 389.033 210.49 391.019Z" fill="#33E6BF"/>
<path d="M223.863 391.019C223.863 393.005 222.253 394.616 220.266 394.616C218.279 394.616 216.669 393.006 216.669 391.019C216.669 389.032 218.279 387.422 220.266 387.422C222.253 387.422 223.863 389.033 223.863 391.019Z" fill="#33E6BF"/>
<path d="M237.236 391.019C237.236 393.005 235.626 394.616 233.639 394.616C231.653 394.616 230.042 393.006 230.042 391.019C230.042 389.032 231.652 387.422 233.639 387.422C235.625 387.422 237.236 389.033 237.236 391.019Z" fill="#33E6BF"/>
<path d="M250.608 391.019C250.608 393.005 248.998 394.616 247.011 394.616C245.025 394.616 243.414 393.006 243.414 391.019C243.414 389.032 245.024 387.422 247.011 387.422C248.998 387.422 250.608 389.033 250.608 391.019Z" fill="#33E6BF"/>
<path d="M263.982 391.019C263.982 393.005 262.372 394.616 260.385 394.616C258.399 394.616 256.788 393.006 256.788 391.019C256.788 389.032 258.398 387.422 260.385 387.422C262.371 387.422 263.982 389.033 263.982 391.019Z" fill="#33E6BF"/>
<path d="M277.354 391.019C277.354 393.005 275.744 394.616 273.757 394.616C271.77 394.616 270.16 393.006 270.16 391.019C270.16 389.032 271.77 387.422 273.757 387.422C275.744 387.422 277.354 389.033 277.354 391.019Z" fill="#33E6BF"/>
</svg>
