<svg width="56" height="56" viewBox="0 0 56 56" fill="none" xmlns="http://www.w3.org/2000/svg">
<path d="M1.64063 17.3395C2.54669 17.3395 3.28125 16.605 3.28125 15.6989V3.28125H15.6989C16.605 3.28125 17.3395 2.54669 17.3395 1.64063C17.3395 0.734563 16.605 0 15.6989 0H1.64063C0.734563 0 0 0.734563 0 1.64063V15.6989C0 16.605 0.734563 17.3395 1.64063 17.3395Z" fill="#0439C7"/>
<path d="M15.6989 52.7187H3.28125V40.301C3.28125 39.395 2.54669 38.6604 1.64063 38.6604C0.734563 38.6604 0 39.395 0 40.301V54.3593C0 55.2654 0.734563 55.9999 1.64063 55.9999H15.6989C16.605 55.9999 17.3395 55.2654 17.3395 54.3593C17.3395 53.4533 16.605 52.7187 15.6989 52.7187Z" fill="#0439C7"/>
<path d="M54.3596 0H40.3013C39.3952 0 38.6606 0.734563 38.6606 1.64063C38.6606 2.54669 39.3952 3.28125 40.3013 3.28125H52.7189V15.6989C52.7189 16.605 53.4535 17.3395 54.3596 17.3395C55.2656 17.3395 56.0002 16.605 56.0002 15.6989V1.64063C56.0002 0.734563 55.2656 0 54.3596 0Z" fill="#0439C7"/>
<path d="M54.3596 38.6604C53.4535 38.6604 52.7189 39.395 52.7189 40.301V52.7187H40.3013C39.3952 52.7187 38.6606 53.4533 38.6606 54.3593C38.6606 55.2654 39.3952 55.9999 40.3013 55.9999H54.3596C55.2656 55.9999 56.0002 55.2654 56.0002 54.3593V40.301C56.0002 39.395 55.2656 38.6604 54.3596 38.6604Z" fill="#0439C7"/>
<path d="M54.3596 22.8448C43.4823 22.8448 37.4298 31.6313 35.0294 31.6313C34.0632 31.6313 34.5828 29.2684 34.8286 28.5188C35.1824 27.4573 34.3911 26.3594 33.2722 26.3594C31.7878 26.3594 30.6441 27.6994 29.0611 29.5538C27.7577 31.0809 25.7879 33.3886 24.4857 33.3886C22.3698 33.3886 25.3409 26.4517 25.9531 25.2192C26.2074 24.7107 26.1802 24.1066 25.8813 23.623C25.5824 23.1392 25.0542 22.8449 24.4857 22.8449C22.8815 22.8449 21.8461 24.5068 18.141 30.8611C16.6757 33.3742 15.0147 36.2225 13.5048 38.4541C11.8468 40.9047 10.9386 41.7554 10.5377 42.0464C10.0946 40.7998 10.1592 36.8106 12.3695 29.2946C14.2564 22.878 16.9421 16.7765 18.6165 15.1019C19.2572 14.4612 19.2572 13.4224 18.6165 12.7817C17.9759 12.1411 16.9371 12.1411 16.2964 12.7817C13.8388 15.2393 11.0911 22.2415 9.48492 27.4909C6.05984 38.6839 6.10654 45.4563 10.4273 45.4563C13.0592 45.4563 15.6981 41.5338 20.5633 33.2195C20.8833 35.5408 22.4938 36.6699 24.4856 36.6699C27.1889 36.6699 29.4719 34.1214 31.3278 31.9521C31.5009 32.7354 32.2173 34.9126 35.0294 34.9126C39.6046 34.9126 44.186 26.126 54.3596 26.126C55.2657 26.126 56.0002 25.3915 56.0002 24.4854C56.0002 23.5793 55.2657 22.8448 54.3596 22.8448Z" fill="#33E6BF"/>
</svg>
