<svg width="172" height="172" viewBox="0 0 172 172" fill="none" xmlns="http://www.w3.org/2000/svg">
<path d="M129 129C152.748 105.252 152.748 66.7482 129 43C105.252 19.2518 66.7482 19.2518 43 43C19.2518 66.7482 19.2518 105.252 43 129C66.7482 152.748 105.252 152.748 129 129Z" fill="#102E59"/>
<g opacity="0.4">
<path d="M48.013 63.7322H42.354V76.7671H48.013V63.7322Z" fill="#33E6BF"/>
<path d="M45.6049 52.3267H44.7607V79.0078H45.6049V52.3267Z" fill="#33E6BF"/>
<path d="M56.5804 49.7549H50.9214V66.2406H56.5804V49.7549Z" fill="#33E6BF"/>
<path d="M54.1732 44.8967H53.3291V74.578H54.1732V44.8967Z" fill="#33E6BF"/>
<path d="M116.558 67.7539H110.899V77.0442H116.558V67.7539Z" fill="#33E6BF"/>
<path d="M114.152 62.8958H113.308V85.3817H114.152V62.8958Z" fill="#33E6BF"/>
<path d="M167.967 40.1384H162.308V55.4626H167.967V40.1384Z" fill="#33E6BF"/>
<path d="M165.559 33.3796H164.715V64.6641H165.559V33.3796Z" fill="#33E6BF"/>
<path d="M39.4441 75.3254H33.7852V84.0537H39.4441V75.3254Z" fill="#33E6BF"/>
<path d="M37.0365 72.5293H36.1924V88.4529H37.0365V72.5293Z" fill="#33E6BF"/>
<path d="M107.99 66.3901H102.331V72.6953H107.99V66.3901Z" fill="#33E6BF"/>
<path d="M105.582 64.3706H104.738V75.8733H105.582V64.3706Z" fill="#33E6BF"/>
<path d="M99.4217 54.6592H93.7627V72.8945H99.4217V54.6592Z" fill="#33E6BF"/>
<path d="M97.015 51.1233H96.1709V78.4607H97.015V51.1233Z" fill="#33E6BF"/>
<path d="M90.8533 50.1606H85.1943V74.9665H90.8533V50.1606Z" fill="#33E6BF"/>
<path d="M88.4462 44.4736H87.6021V77.9944H88.4462V44.4736Z" fill="#33E6BF"/>
<path d="M82.285 50.9478H76.626V56.3613H82.285V50.9478Z" fill="#33E6BF"/>
<path d="M79.8778 49.2136H79.0337V66.2853H79.8778V49.2136Z" fill="#33E6BF"/>
<path d="M73.7176 46.1345H68.0586V64.3699H73.7176V46.1345Z" fill="#33E6BF"/>
<path d="M71.309 42.5984H70.4648V69.9358H71.309V42.5984Z" fill="#33E6BF"/>
<path d="M65.1483 54.9978H59.4893V73.2594H65.1483V54.9978Z" fill="#33E6BF"/>
<path d="M62.7421 48.7942H61.8979V75.4753H62.7421V48.7942Z" fill="#33E6BF"/>
<path d="M133.695 49.9199H128.036V65.3532H133.695V49.9199Z" fill="#33E6BF"/>
<path d="M131.287 45.7104H130.443V67.5947H131.287V45.7104Z" fill="#33E6BF"/>
<path d="M142.263 43.1389H136.604V54.8277H142.263V43.1389Z" fill="#33E6BF"/>
<path d="M139.855 38.2805H139.011V63.1649H139.855V38.2805Z" fill="#33E6BF"/>
<path d="M125.126 63.9116H119.467V72.6399H125.126V63.9116Z" fill="#33E6BF"/>
<path d="M122.719 61.1162H121.875V77.0399H122.719V61.1162Z" fill="#33E6BF"/>
<path d="M159.399 37.9353H153.74V44.0349H159.399V37.9353Z" fill="#33E6BF"/>
<path d="M156.991 35.9824H156.146V54.3053H156.991V35.9824Z" fill="#33E6BF"/>
<path d="M150.83 48.3811H145.171V71.4388H150.83V48.3811Z" fill="#33E6BF"/>
<path d="M148.424 42.1782H147.58V73.6563H148.424V42.1782Z" fill="#33E6BF"/>
<path d="M14.4212 69.4917H8.76221V82.5266H14.4212V69.4917Z" fill="#33E6BF"/>
<path d="M12.0131 65.2815H11.1689V84.7673H12.0131V65.2815Z" fill="#33E6BF"/>
<path d="M22.9891 55.5151H17.3301V72.0008H22.9891V55.5151Z" fill="#33E6BF"/>
<path d="M20.5824 50.657H19.7383V80.3375H20.5824V50.657Z" fill="#33E6BF"/>
<path d="M5.85284 80.4038H0.193848V87.0057H5.85284V80.4038Z" fill="#33E6BF"/>
<path d="M3.44471 78.2896H2.60059V90.3349H3.44471V78.2896Z" fill="#33E6BF"/>
<path d="M31.5574 67.9529H25.8984V79.0191H31.5574V67.9529Z" fill="#33E6BF"/>
<path d="M29.1498 54.5547H28.3057V81.2358H29.1498V54.5547Z" fill="#33E6BF"/>
</g>
<path d="M116.39 138.321L105.579 144.603C113.368 140.076 118.858 134.97 119.386 134.478L130.197 128.196C129.669 128.687 124.179 133.794 116.39 138.321Z" fill="#4879FD"/>
<path d="M41.7524 26.9836L52.5635 20.7009L91.5438 25.3964L80.7327 31.6791L41.7524 26.9836Z" fill="#4879FD"/>
<path d="M80.7318 31.6794L119.562 71.9077L119.385 134.478C118.371 135.421 99.1234 153.327 80.3921 151.587C61.712 131.728 42.5812 91.6632 41.5742 89.5543L41.7515 26.9839L80.7318 31.6794Z" fill="#0439C7"/>
<path d="M80.7334 31.6792L91.5445 25.3965L130.375 65.6248L119.564 71.9078L80.7334 31.6792Z" fill="#4879FD"/>
<path d="M119.563 71.908L130.374 65.625L130.196 128.196L119.385 134.478L119.563 71.908Z" fill="#042D9A"/>
<path d="M112.922 74.6069V126.914C112.922 126.914 96.1261 142.791 80.5566 141.335C77.1825 137.728 73.6536 133.127 70.432 128.294C65.4474 121.239 60.8451 113.493 57.1636 106.744C51.795 97.0803 48.1909 89.5644 48.1909 89.5644V37.2566L80.5566 41.0912L101.341 62.5667L112.922 74.6069Z" fill="#15D7AC"/>
<path d="M80.5681 49.4267L74.6997 52.8149L80.5683 62.9793L86.4367 59.5911L80.5681 49.4267Z" fill="#4879FD"/>
<path d="M80.5681 120.106L74.6997 123.494L80.5681 133.658L86.4365 130.27L80.5681 120.106Z" fill="#4879FD"/>
<path d="M63.7541 68.8245L66.1684 75.8667L71.5664 79.8891L67.6604 82.0306L68.5827 88.7706L63.7541 83.0522L58.9256 83.1957L59.8482 77.52L55.9419 70.8681L61.3399 73.0792L63.7541 68.8245Z" fill="#FFC947"/>
<path d="M80.5256 78.5071L82.9402 85.5493L88.3382 89.5717L84.4319 91.7129L85.3545 98.4536L80.5256 92.7348L75.6974 92.878L76.6194 87.2026L72.7134 80.5507L78.1116 82.7615L80.5256 78.5071Z" fill="#FFC947"/>
<path d="M97.2964 88.1897L99.7107 95.2319L105.109 99.2543L101.203 101.396L102.125 108.136L97.2964 102.417L92.4682 102.561L93.3902 96.8849L89.4839 90.2334L94.8822 92.4441L97.2964 88.1897Z" fill="#FFC947"/>
<g opacity="0.3">
<path d="M112.924 74.6066V85.7289L70.434 128.294C65.4494 121.238 60.847 113.492 57.1655 106.744L101.343 62.5664L112.924 74.6066Z" fill="white"/>
</g>
</svg>
