<svg width="281" height="240" viewBox="0 0 281 240" fill="none" xmlns="http://www.w3.org/2000/svg">
<path d="M137.136 131.894L52.5191 180.872L40.0869 168.44L114.265 118.596L137.136 131.894Z" fill="url(#paint0_linear_2600_14280)"/>
<path d="M139.049 135.206L54.324 183.998L58.8744 200.981L139.13 161.662L139.049 135.206Z" fill="url(#paint1_linear_2600_14280)"/>
<path d="M142.412 135.206L227.137 183.998L222.587 200.98L142.332 161.662L142.412 135.206Z" fill="url(#paint2_linear_2600_14280)"/>
<path d="M144.325 131.894L228.942 180.872L241.374 168.44L167.196 118.596L144.325 131.894Z" fill="url(#paint3_linear_2600_14280)"/>
<path d="M142.413 128.274L142.305 30.5047L159.287 25.9541L165.364 115.116L142.413 128.274Z" fill="url(#paint4_linear_2600_14280)"/>
<path d="M138.587 128.274L138.695 30.5047L121.712 25.9541L115.636 115.116L138.587 128.274Z" fill="url(#paint5_linear_2600_14280)"/>
<path d="M137.136 131.894L52.5191 180.872L40.0869 168.44L114.265 118.596L137.136 131.894Z" stroke="url(#paint6_linear_2600_14280)"/>
<path d="M139.049 135.206L54.324 183.998L58.8744 200.981L139.13 161.662L139.049 135.206Z" stroke="url(#paint7_linear_2600_14280)"/>
<path d="M142.412 135.206L227.137 183.998L222.587 200.98L142.332 161.662L142.412 135.206Z" stroke="url(#paint8_linear_2600_14280)"/>
<path d="M144.325 131.894L228.942 180.872L241.374 168.44L167.196 118.596L144.325 131.894Z" stroke="url(#paint9_linear_2600_14280)"/>
<path d="M142.413 128.274L142.305 30.5047L159.287 25.9541L165.364 115.116L142.413 128.274Z" stroke="url(#paint10_linear_2600_14280)"/>
<path d="M138.587 128.274L138.695 30.5047L121.712 25.9541L115.636 115.116L138.587 128.274Z" stroke="url(#paint11_linear_2600_14280)"/>
<g opacity="0.6">
<path d="M58.2832 212.609L140.501 172.848L222.718 212.609" stroke="#0439C7"/>
<path d="M58.2832 212.609L140.501 172.848L222.718 212.609" stroke="url(#paint12_linear_2600_14280)"/>
</g>
<g opacity="0.6">
<path d="M27.957 162.739L103.435 111.522L110.174 19.8696" stroke="#0439C7"/>
<path d="M27.957 162.739L103.435 111.522L110.174 19.8696" stroke="url(#paint13_linear_2600_14280)"/>
</g>
<g opacity="0.6">
<path d="M170.826 19.1958L177.565 110.848L253.044 162.739" stroke="#0439C7"/>
<path d="M170.826 19.1958L177.565 110.848L253.044 162.739" stroke="url(#paint14_linear_2600_14280)"/>
</g>
<path opacity="0.4" d="M58.2822 226.087L140.5 186.326L222.717 226.087" stroke="url(#paint15_linear_2600_14280)"/>
<g opacity="0.4">
<path d="M14.4775 154.652L89.9558 103.435L96.6949 11.7827" stroke="#0439C7"/>
<path d="M14.4775 154.652L89.9558 103.435L96.6949 11.7827" stroke="url(#paint16_linear_2600_14280)"/>
</g>
<g opacity="0.4">
<path d="M183.63 17.8481L191.043 102.761L266.521 154.652" stroke="#0439C7"/>
<path d="M183.63 17.8481L191.043 102.761L266.521 154.652" stroke="url(#paint17_linear_2600_14280)"/>
</g>
<path opacity="0.2" d="M58.2822 238.891L140.5 199.13L222.717 238.891" stroke="url(#paint18_linear_2600_14280)"/>
<g opacity="0.2">
<path d="M1 143.87L76.4783 92.6522L83.2174 1" stroke="#0439C7"/>
<path d="M1 143.87L76.4783 92.6522L83.2174 1" stroke="url(#paint19_linear_2600_14280)"/>
</g>
<g opacity="0.2">
<path d="M197.782 1L204.521 92.6522L280 144.543" stroke="#0439C7"/>
<path d="M197.782 1L204.521 92.6522L280 144.543" stroke="url(#paint20_linear_2600_14280)"/>
</g>
<defs>
<linearGradient id="paint0_linear_2600_14280" x1="140.731" y1="25.9541" x2="140.731" y2="200.981" gradientUnits="userSpaceOnUse">
<stop stop-color="#33E6BF"/>
<stop offset="1" stop-color="#0439C7"/>
</linearGradient>
<linearGradient id="paint1_linear_2600_14280" x1="140.731" y1="25.9541" x2="140.731" y2="200.981" gradientUnits="userSpaceOnUse">
<stop stop-color="#33E6BF"/>
<stop offset="1" stop-color="#0439C7"/>
</linearGradient>
<linearGradient id="paint2_linear_2600_14280" x1="140.731" y1="25.9541" x2="140.731" y2="200.981" gradientUnits="userSpaceOnUse">
<stop stop-color="#33E6BF"/>
<stop offset="1" stop-color="#0439C7"/>
</linearGradient>
<linearGradient id="paint3_linear_2600_14280" x1="140.731" y1="25.9541" x2="140.731" y2="200.981" gradientUnits="userSpaceOnUse">
<stop stop-color="#33E6BF"/>
<stop offset="1" stop-color="#0439C7"/>
</linearGradient>
<linearGradient id="paint4_linear_2600_14280" x1="140.731" y1="25.9541" x2="140.731" y2="200.981" gradientUnits="userSpaceOnUse">
<stop stop-color="#33E6BF"/>
<stop offset="1" stop-color="#0439C7"/>
</linearGradient>
<linearGradient id="paint5_linear_2600_14280" x1="140.731" y1="25.9541" x2="140.731" y2="200.981" gradientUnits="userSpaceOnUse">
<stop stop-color="#33E6BF"/>
<stop offset="1" stop-color="#0439C7"/>
</linearGradient>
<linearGradient id="paint6_linear_2600_14280" x1="140.731" y1="25.9541" x2="140.731" y2="200.981" gradientUnits="userSpaceOnUse">
<stop stop-color="#33E6BF"/>
<stop offset="1" stop-color="#0439C7"/>
</linearGradient>
<linearGradient id="paint7_linear_2600_14280" x1="140.731" y1="25.9541" x2="140.731" y2="200.981" gradientUnits="userSpaceOnUse">
<stop stop-color="#33E6BF"/>
<stop offset="1" stop-color="#0439C7"/>
</linearGradient>
<linearGradient id="paint8_linear_2600_14280" x1="140.731" y1="25.9541" x2="140.731" y2="200.981" gradientUnits="userSpaceOnUse">
<stop stop-color="#33E6BF"/>
<stop offset="1" stop-color="#0439C7"/>
</linearGradient>
<linearGradient id="paint9_linear_2600_14280" x1="140.731" y1="25.9541" x2="140.731" y2="200.981" gradientUnits="userSpaceOnUse">
<stop stop-color="#33E6BF"/>
<stop offset="1" stop-color="#0439C7"/>
</linearGradient>
<linearGradient id="paint10_linear_2600_14280" x1="140.731" y1="25.9541" x2="140.731" y2="200.981" gradientUnits="userSpaceOnUse">
<stop stop-color="#33E6BF"/>
<stop offset="1" stop-color="#0439C7"/>
</linearGradient>
<linearGradient id="paint11_linear_2600_14280" x1="140.731" y1="25.9541" x2="140.731" y2="200.981" gradientUnits="userSpaceOnUse">
<stop stop-color="#33E6BF"/>
<stop offset="1" stop-color="#0439C7"/>
</linearGradient>
<linearGradient id="paint12_linear_2600_14280" x1="141.175" y1="194.413" x2="137.805" y2="26.609" gradientUnits="userSpaceOnUse">
<stop stop-color="#0439C7"/>
<stop offset="1" stop-color="#33E6BF"/>
</linearGradient>
<linearGradient id="paint13_linear_2600_14280" x1="-3.04297" y1="175.483" x2="-13.5702" y2="21.3977" gradientUnits="userSpaceOnUse">
<stop stop-color="#0439C7"/>
<stop offset="1" stop-color="#33E6BF"/>
</linearGradient>
<linearGradient id="paint14_linear_2600_14280" x1="139.826" y1="175.544" x2="129.2" y2="20.7379" gradientUnits="userSpaceOnUse">
<stop stop-color="#0439C7"/>
<stop offset="1" stop-color="#33E6BF"/>
</linearGradient>
<linearGradient id="paint15_linear_2600_14280" x1="139.152" y1="187" x2="137.13" y2="11.7827" gradientUnits="userSpaceOnUse">
<stop stop-color="#0439C7"/>
<stop offset="1" stop-color="#33E6BF"/>
</linearGradient>
<linearGradient id="paint16_linear_2600_14280" x1="-16.5225" y1="167.397" x2="-27.0497" y2="13.3108" gradientUnits="userSpaceOnUse">
<stop stop-color="#0439C7"/>
<stop offset="1" stop-color="#33E6BF"/>
</linearGradient>
<linearGradient id="paint17_linear_2600_14280" x1="152.376" y1="166.856" x2="142.798" y2="19.2442" gradientUnits="userSpaceOnUse">
<stop stop-color="#0439C7"/>
<stop offset="1" stop-color="#33E6BF"/>
</linearGradient>
<linearGradient id="paint18_linear_2600_14280" x1="139.152" y1="199.804" x2="137.13" y2="24.5869" gradientUnits="userSpaceOnUse">
<stop stop-color="#0439C7"/>
<stop offset="1" stop-color="#33E6BF"/>
</linearGradient>
<linearGradient id="paint19_linear_2600_14280" x1="-30" y1="156.614" x2="-40.5272" y2="2.5281" gradientUnits="userSpaceOnUse">
<stop stop-color="#0439C7"/>
<stop offset="1" stop-color="#33E6BF"/>
</linearGradient>
<linearGradient id="paint20_linear_2600_14280" x1="166.782" y1="157.348" x2="156.156" y2="2.5421" gradientUnits="userSpaceOnUse">
<stop stop-color="#0439C7"/>
<stop offset="1" stop-color="#33E6BF"/>
</linearGradient>
</defs>
</svg>
