<svg width="932" height="434" viewBox="0 0 932 434" fill="none" xmlns="http://www.w3.org/2000/svg">
<g clip-path="url(#clip0_2600_14329)">
<rect width="932" height="434" rx="20" fill="#061B3A"/>
<path d="M101.1 311V297H103.1V311H101.1ZM112.291 300.3C113.158 300.3 113.918 300.467 114.571 300.8C115.238 301.133 115.758 301.64 116.131 302.32C116.505 303 116.691 303.86 116.691 304.9V311H114.771V305.12C114.771 304.093 114.518 303.32 114.011 302.8C113.518 302.28 112.818 302.02 111.911 302.02C111.231 302.02 110.638 302.153 110.131 302.42C109.625 302.687 109.231 303.08 108.951 303.6C108.685 304.12 108.551 304.767 108.551 305.54V311H106.631V300.4H108.471V303.26L108.171 302.5C108.518 301.807 109.051 301.267 109.771 300.88C110.491 300.493 111.331 300.3 112.291 300.3ZM119.865 311V300.4H121.785V311H119.865ZM120.825 298.36C120.451 298.36 120.138 298.24 119.885 298C119.645 297.76 119.525 297.467 119.525 297.12C119.525 296.76 119.645 296.46 119.885 296.22C120.138 295.98 120.451 295.86 120.825 295.86C121.198 295.86 121.505 295.98 121.745 296.22C121.998 296.447 122.125 296.733 122.125 297.08C122.125 297.44 122.005 297.747 121.765 298C121.525 298.24 121.211 298.36 120.825 298.36ZM128.711 311.12C127.644 311.12 126.817 310.833 126.231 310.26C125.644 309.687 125.351 308.867 125.351 307.8V298.08H127.271V307.72C127.271 308.293 127.411 308.733 127.691 309.04C127.984 309.347 128.397 309.5 128.931 309.5C129.531 309.5 130.031 309.333 130.431 309L131.031 310.38C130.737 310.633 130.384 310.82 129.971 310.94C129.571 311.06 129.151 311.12 128.711 311.12ZM123.551 301.98V300.4H130.311V301.98H123.551ZM132.972 311V300.4H134.892V311H132.972ZM133.932 298.36C133.559 298.36 133.245 298.24 132.992 298C132.752 297.76 132.632 297.467 132.632 297.12C132.632 296.76 132.752 296.46 132.992 296.22C133.245 295.98 133.559 295.86 133.932 295.86C134.305 295.86 134.612 295.98 134.852 296.22C135.105 296.447 135.232 296.733 135.232 297.08C135.232 297.44 135.112 297.747 134.872 298C134.632 298.24 134.319 298.36 133.932 298.36ZM144.758 311V308.76L144.658 308.34V304.52C144.658 303.707 144.418 303.08 143.938 302.64C143.471 302.187 142.764 301.96 141.818 301.96C141.191 301.96 140.578 302.067 139.978 302.28C139.378 302.48 138.871 302.753 138.458 303.1L137.658 301.66C138.204 301.22 138.858 300.887 139.618 300.66C140.391 300.42 141.198 300.3 142.038 300.3C143.491 300.3 144.611 300.653 145.398 301.36C146.184 302.067 146.578 303.147 146.578 304.6V311H144.758ZM141.278 311.12C140.491 311.12 139.798 310.987 139.198 310.72C138.611 310.453 138.158 310.087 137.838 309.62C137.518 309.14 137.358 308.6 137.358 308C137.358 307.427 137.491 306.907 137.758 306.44C138.038 305.973 138.484 305.6 139.098 305.32C139.724 305.04 140.564 304.9 141.618 304.9H144.978V306.28H141.698C140.738 306.28 140.091 306.44 139.758 306.76C139.424 307.08 139.258 307.467 139.258 307.92C139.258 308.44 139.464 308.86 139.878 309.18C140.291 309.487 140.864 309.64 141.598 309.64C142.318 309.64 142.944 309.48 143.478 309.16C144.024 308.84 144.418 308.373 144.658 307.76L145.038 309.08C144.784 309.707 144.338 310.207 143.698 310.58C143.058 310.94 142.251 311.12 141.278 311.12ZM149.751 311V296.16H151.671V311H149.751ZM160.228 311V297H162.228V309.26H169.808V311H160.228ZM178.023 311V308.76L177.923 308.34V304.52C177.923 303.707 177.683 303.08 177.203 302.64C176.736 302.187 176.03 301.96 175.083 301.96C174.456 301.96 173.843 302.067 173.243 302.28C172.643 302.48 172.136 302.753 171.723 303.1L170.923 301.66C171.47 301.22 172.123 300.887 172.883 300.66C173.656 300.42 174.463 300.3 175.303 300.3C176.756 300.3 177.876 300.653 178.663 301.36C179.45 302.067 179.843 303.147 179.843 304.6V311H178.023ZM174.543 311.12C173.756 311.12 173.063 310.987 172.463 310.72C171.876 310.453 171.423 310.087 171.103 309.62C170.783 309.14 170.623 308.6 170.623 308C170.623 307.427 170.756 306.907 171.023 306.44C171.303 305.973 171.75 305.6 172.363 305.32C172.99 305.04 173.83 304.9 174.883 304.9H178.243V306.28H174.963C174.003 306.28 173.356 306.44 173.023 306.76C172.69 307.08 172.523 307.467 172.523 307.92C172.523 308.44 172.73 308.86 173.143 309.18C173.556 309.487 174.13 309.64 174.863 309.64C175.583 309.64 176.21 309.48 176.743 309.16C177.29 308.84 177.683 308.373 177.923 307.76L178.303 309.08C178.05 309.707 177.603 310.207 176.963 310.58C176.323 310.94 175.516 311.12 174.543 311.12ZM187.476 311.12C186.569 311.12 185.769 310.953 185.076 310.62C184.396 310.287 183.863 309.78 183.476 309.1C183.103 308.407 182.916 307.54 182.916 306.5V300.4H184.836V306.28C184.836 307.32 185.083 308.1 185.576 308.62C186.083 309.14 186.789 309.4 187.696 309.4C188.363 309.4 188.943 309.267 189.436 309C189.929 308.72 190.309 308.32 190.576 307.8C190.843 307.267 190.976 306.627 190.976 305.88V300.4H192.896V311H191.076V308.14L191.376 308.9C191.029 309.607 190.509 310.153 189.816 310.54C189.123 310.927 188.343 311.12 187.476 311.12ZM201.831 300.3C202.698 300.3 203.458 300.467 204.111 300.8C204.778 301.133 205.298 301.64 205.671 302.32C206.045 303 206.231 303.86 206.231 304.9V311H204.311V305.12C204.311 304.093 204.058 303.32 203.551 302.8C203.058 302.28 202.358 302.02 201.451 302.02C200.771 302.02 200.178 302.153 199.671 302.42C199.165 302.687 198.771 303.08 198.491 303.6C198.225 304.12 198.091 304.767 198.091 305.54V311H196.171V300.4H198.011V303.26L197.711 302.5C198.058 301.807 198.591 301.267 199.311 300.88C200.031 300.493 200.871 300.3 201.831 300.3ZM214.025 311.12C212.945 311.12 211.978 310.887 211.125 310.42C210.285 309.953 209.625 309.313 209.145 308.5C208.665 307.687 208.425 306.753 208.425 305.7C208.425 304.647 208.665 303.713 209.145 302.9C209.625 302.087 210.285 301.453 211.125 301C211.978 300.533 212.945 300.3 214.025 300.3C214.985 300.3 215.838 300.493 216.585 300.88C217.345 301.253 217.931 301.813 218.345 302.56L216.885 303.5C216.538 302.98 216.111 302.6 215.605 302.36C215.111 302.107 214.578 301.98 214.005 301.98C213.311 301.98 212.691 302.133 212.145 302.44C211.598 302.747 211.165 303.18 210.845 303.74C210.525 304.287 210.365 304.94 210.365 305.7C210.365 306.46 210.525 307.12 210.845 307.68C211.165 308.24 211.598 308.673 212.145 308.98C212.691 309.287 213.311 309.44 214.005 309.44C214.578 309.44 215.111 309.32 215.605 309.08C216.111 308.827 216.538 308.44 216.885 307.92L218.345 308.84C217.931 309.573 217.345 310.14 216.585 310.54C215.838 310.927 214.985 311.12 214.025 311.12ZM225.974 300.3C226.84 300.3 227.6 300.467 228.254 300.8C228.92 301.133 229.44 301.64 229.814 302.32C230.187 303 230.374 303.86 230.374 304.9V311H228.454V305.12C228.454 304.093 228.2 303.32 227.694 302.8C227.2 302.28 226.5 302.02 225.594 302.02C224.914 302.02 224.32 302.153 223.814 302.42C223.307 302.687 222.914 303.08 222.634 303.6C222.367 304.12 222.234 304.767 222.234 305.54V311H220.314V296.16H222.234V303.26L221.854 302.5C222.2 301.807 222.734 301.267 223.454 300.88C224.174 300.493 225.014 300.3 225.974 300.3Z" fill="#F3F4F5"/>
<path d="M583.337 53V39H588.797C590.024 39 591.07 39.1933 591.937 39.58C592.804 39.9667 593.47 40.5267 593.937 41.26C594.404 41.9933 594.637 42.8667 594.637 43.88C594.637 44.8933 594.404 45.7667 593.937 46.5C593.47 47.22 592.804 47.78 591.937 48.18C591.07 48.5667 590.024 48.76 588.797 48.76H584.437L585.337 47.82V53H583.337ZM585.337 48.02L584.437 47.02H588.737C590.017 47.02 590.984 46.7467 591.637 46.2C592.304 45.6533 592.637 44.88 592.637 43.88C592.637 42.88 592.304 42.1067 591.637 41.56C590.984 41.0133 590.017 40.74 588.737 40.74H584.437L585.337 39.74V48.02ZM601.57 53.12C600.664 53.12 599.864 52.9533 599.17 52.62C598.49 52.2867 597.957 51.78 597.57 51.1C597.197 50.4067 597.01 49.54 597.01 48.5V42.4H598.93V48.28C598.93 49.32 599.177 50.1 599.67 50.62C600.177 51.14 600.884 51.4 601.79 51.4C602.457 51.4 603.037 51.2667 603.53 51C604.024 50.72 604.404 50.32 604.67 49.8C604.937 49.2667 605.07 48.6267 605.07 47.88V42.4H606.99V53H605.17V50.14L605.47 50.9C605.124 51.6067 604.604 52.1533 603.91 52.54C603.217 52.9267 602.437 53.12 601.57 53.12ZM615.886 53.12C614.979 53.12 614.159 52.92 613.426 52.52C612.706 52.1067 612.132 51.5 611.706 50.7C611.292 49.9 611.086 48.9 611.086 47.7C611.086 46.5 611.299 45.5 611.726 44.7C612.166 43.9 612.746 43.3 613.466 42.9C614.199 42.5 615.006 42.3 615.886 42.3C616.926 42.3 617.846 42.5267 618.646 42.98C619.446 43.4333 620.079 44.0667 620.546 44.88C621.012 45.68 621.246 46.62 621.246 47.7C621.246 48.78 621.012 49.7267 620.546 50.54C620.079 51.3533 619.446 51.9867 618.646 52.44C617.846 52.8933 616.926 53.12 615.886 53.12ZM610.266 53V38.16H612.186V45.22L611.986 47.68L612.106 50.14V53H610.266ZM615.726 51.44C616.406 51.44 617.012 51.2867 617.546 50.98C618.092 50.6733 618.519 50.24 618.826 49.68C619.146 49.1067 619.306 48.4467 619.306 47.7C619.306 46.94 619.146 46.2867 618.826 45.74C618.519 45.18 618.092 44.7467 617.546 44.44C617.012 44.1333 616.406 43.98 615.726 43.98C615.059 43.98 614.452 44.1333 613.906 44.44C613.372 44.7467 612.946 45.18 612.626 45.74C612.319 46.2867 612.166 46.94 612.166 47.7C612.166 48.4467 612.319 49.1067 612.626 49.68C612.946 50.24 613.372 50.6733 613.906 50.98C614.452 51.2867 615.059 51.44 615.726 51.44ZM623.518 53V38.16H625.438V53H623.518ZM628.724 53V42.4H630.644V53H628.724ZM629.684 40.36C629.311 40.36 628.998 40.24 628.744 40C628.504 39.76 628.384 39.4667 628.384 39.12C628.384 38.76 628.504 38.46 628.744 38.22C628.998 37.98 629.311 37.86 629.684 37.86C630.058 37.86 630.364 37.98 630.604 38.22C630.858 38.4467 630.984 38.7333 630.984 39.08C630.984 39.44 630.864 39.7467 630.624 40C630.384 40.24 630.071 40.36 629.684 40.36ZM638.55 53.12C637.47 53.12 636.504 52.8867 635.65 52.42C634.81 51.9533 634.15 51.3133 633.67 50.5C633.19 49.6867 632.95 48.7533 632.95 47.7C632.95 46.6467 633.19 45.7133 633.67 44.9C634.15 44.0867 634.81 43.4533 635.65 43C636.504 42.5333 637.47 42.3 638.55 42.3C639.51 42.3 640.364 42.4933 641.11 42.88C641.87 43.2533 642.457 43.8133 642.87 44.56L641.41 45.5C641.064 44.98 640.637 44.6 640.13 44.36C639.637 44.1067 639.104 43.98 638.53 43.98C637.837 43.98 637.217 44.1333 636.67 44.44C636.124 44.7467 635.69 45.18 635.37 45.74C635.05 46.2867 634.89 46.94 634.89 47.7C634.89 48.46 635.05 49.12 635.37 49.68C635.69 50.24 636.124 50.6733 636.67 50.98C637.217 51.2867 637.837 51.44 638.53 51.44C639.104 51.44 639.637 51.32 640.13 51.08C640.637 50.8267 641.064 50.44 641.41 49.92L642.87 50.84C642.457 51.5733 641.87 52.14 641.11 52.54C640.364 52.9267 639.51 53.12 638.55 53.12ZM648.127 53L654.467 39H656.447L662.807 53H660.707L655.047 40.12H655.847L650.187 53H648.127ZM650.827 49.5L651.367 47.9H659.247L659.827 49.5H650.827ZM664.236 53V42.4H666.156V53H664.236ZM665.196 40.36C664.822 40.36 664.509 40.24 664.256 40C664.016 39.76 663.896 39.4667 663.896 39.12C663.896 38.76 664.016 38.46 664.256 38.22C664.509 37.98 664.822 37.86 665.196 37.86C665.569 37.86 665.876 37.98 666.116 38.22C666.369 38.4467 666.496 38.7333 666.496 39.08C666.496 39.44 666.376 39.7467 666.136 40C665.896 40.24 665.582 40.36 665.196 40.36ZM669.442 53V42.4H671.282V45.28L671.102 44.56C671.395 43.8267 671.888 43.2667 672.582 42.88C673.275 42.4933 674.128 42.3 675.142 42.3V44.16C675.062 44.1467 674.982 44.14 674.902 44.14C674.835 44.14 674.768 44.14 674.702 44.14C673.675 44.14 672.862 44.4467 672.262 45.06C671.662 45.6733 671.362 46.56 671.362 47.72V53H669.442ZM681.41 53.12C680.384 53.12 679.464 52.8933 678.65 52.44C677.85 51.9867 677.217 51.3533 676.75 50.54C676.284 49.7267 676.05 48.78 676.05 47.7C676.05 46.62 676.284 45.68 676.75 44.88C677.217 44.0667 677.85 43.4333 678.65 42.98C679.464 42.5267 680.384 42.3 681.41 42.3C682.304 42.3 683.11 42.5 683.83 42.9C684.55 43.3 685.124 43.9 685.55 44.7C685.99 45.5 686.21 46.5 686.21 47.7C686.21 48.9 685.997 49.9 685.57 50.7C685.157 51.5 684.59 52.1067 683.87 52.52C683.15 52.92 682.33 53.12 681.41 53.12ZM681.57 51.44C682.237 51.44 682.837 51.2867 683.37 50.98C683.917 50.6733 684.344 50.24 684.65 49.68C684.97 49.1067 685.13 48.4467 685.13 47.7C685.13 46.94 684.97 46.2867 684.65 45.74C684.344 45.18 683.917 44.7467 683.37 44.44C682.837 44.1333 682.237 43.98 681.57 43.98C680.89 43.98 680.284 44.1333 679.75 44.44C679.217 44.7467 678.79 45.18 678.47 45.74C678.15 46.2867 677.99 46.94 677.99 47.7C677.99 48.4467 678.15 49.1067 678.47 49.68C678.79 50.24 679.217 50.6733 679.75 50.98C680.284 51.2867 680.89 51.44 681.57 51.44ZM685.19 53V50.14L685.31 47.68L685.11 45.22V38.16H687.03V53H685.19ZM690.283 53V42.4H692.123V45.28L691.943 44.56C692.236 43.8267 692.73 43.2667 693.423 42.88C694.116 42.4933 694.97 42.3 695.983 42.3V44.16C695.903 44.1467 695.823 44.14 695.743 44.14C695.676 44.14 695.61 44.14 695.543 44.14C694.516 44.14 693.703 44.4467 693.103 45.06C692.503 45.6733 692.203 46.56 692.203 47.72V53H690.283ZM702.412 53.12C701.345 53.12 700.399 52.8867 699.572 52.42C698.745 51.9533 698.092 51.3133 697.612 50.5C697.132 49.6733 696.892 48.74 696.892 47.7C696.892 46.6467 697.132 45.7133 697.612 44.9C698.092 44.0867 698.745 43.4533 699.572 43C700.399 42.5333 701.345 42.3 702.412 42.3C703.465 42.3 704.405 42.5333 705.232 43C706.072 43.4533 706.725 44.0867 707.192 44.9C707.672 45.7 707.912 46.6333 707.912 47.7C707.912 48.7533 707.672 49.6867 707.192 50.5C706.725 51.3133 706.072 51.9533 705.232 52.42C704.405 52.8867 703.465 53.12 702.412 53.12ZM702.412 51.44C703.092 51.44 703.699 51.2867 704.232 50.98C704.779 50.6733 705.205 50.24 705.512 49.68C705.819 49.1067 705.972 48.4467 705.972 47.7C705.972 46.94 705.819 46.2867 705.512 45.74C705.205 45.18 704.779 44.7467 704.232 44.44C703.699 44.1333 703.092 43.98 702.412 43.98C701.732 43.98 701.125 44.1333 700.592 44.44C700.059 44.7467 699.632 45.18 699.312 45.74C698.992 46.2867 698.832 46.94 698.832 47.7C698.832 48.4467 698.992 49.1067 699.312 49.68C699.632 50.24 700.059 50.6733 700.592 50.98C701.125 51.2867 701.732 51.44 702.412 51.44ZM715.807 53.12C714.927 53.12 714.121 52.92 713.387 52.52C712.667 52.1067 712.087 51.5 711.647 50.7C711.221 49.9 711.007 48.9 711.007 47.7C711.007 46.5 711.214 45.5 711.627 44.7C712.054 43.9 712.627 43.3 713.347 42.9C714.081 42.5 714.901 42.3 715.807 42.3C716.847 42.3 717.767 42.5267 718.567 42.98C719.367 43.4333 720.001 44.0667 720.467 44.88C720.934 45.68 721.167 46.62 721.167 47.7C721.167 48.78 720.934 49.7267 720.467 50.54C720.001 51.3533 719.367 51.9867 718.567 52.44C717.767 52.8933 716.847 53.12 715.807 53.12ZM710.187 56.88V42.4H712.027V45.26L711.907 47.72L712.107 50.18V56.88H710.187ZM715.647 51.44C716.327 51.44 716.934 51.2867 717.467 50.98C718.014 50.6733 718.441 50.24 718.747 49.68C719.067 49.1067 719.227 48.4467 719.227 47.7C719.227 46.94 719.067 46.2867 718.747 45.74C718.441 45.18 718.014 44.7467 717.467 44.44C716.934 44.1333 716.327 43.98 715.647 43.98C714.981 43.98 714.374 44.1333 713.827 44.44C713.294 44.7467 712.867 45.18 712.547 45.74C712.241 46.2867 712.087 46.94 712.087 47.7C712.087 48.4467 712.241 49.1067 712.547 49.68C712.867 50.24 713.294 50.6733 713.827 50.98C714.374 51.2867 714.981 51.44 715.647 51.44Z" fill="#F3F4F5"/>
<circle cx="458" cy="229" r="125" fill="#9F9F9F"/>
<circle cx="458" cy="229" r="125" fill="url(#paint0_linear_2600_14329)"/>
<mask id="mask0_2600_14329" style="mask-type:alpha" maskUnits="userSpaceOnUse" x="333" y="104" width="250" height="250">
<circle cx="458" cy="229" r="125" fill="#FFB400"/>
</mask>
<g mask="url(#mask0_2600_14329)">
<path d="M458 229L396.512 86.5L519.488 86.5L458 229Z" fill="#FFB400"/>
</g>
<path d="M349 290L293.836 319H99" stroke="white"/>
<path d="M472 104L527.164 75H722" stroke="white"/>
<g filter="url(#filter0_f_2600_14329)">
<circle cx="901" cy="402" r="275" fill="url(#paint1_radial_2600_14329)"/>
</g>
<g filter="url(#filter1_f_2600_14329)">
<circle cx="-21" cy="-18" r="275" fill="url(#paint2_radial_2600_14329)"/>
</g>
<circle cx="907.5" cy="390.5" r="147" stroke="#33E6BF" stroke-opacity="0.27"/>
<circle cx="-14.5" cy="-29.5" r="147" stroke="#33E6BF" stroke-opacity="0.27"/>
</g>
<defs>
<filter id="filter0_f_2600_14329" x="613.3" y="114.3" width="575.4" height="575.4" filterUnits="userSpaceOnUse" color-interpolation-filters="sRGB">
<feFlood flood-opacity="0" result="BackgroundImageFix"/>
<feBlend mode="normal" in="SourceGraphic" in2="BackgroundImageFix" result="shape"/>
<feGaussianBlur stdDeviation="6.35" result="effect1_foregroundBlur_2600_14329"/>
</filter>
<filter id="filter1_f_2600_14329" x="-308.7" y="-305.7" width="575.4" height="575.4" filterUnits="userSpaceOnUse" color-interpolation-filters="sRGB">
<feFlood flood-opacity="0" result="BackgroundImageFix"/>
<feBlend mode="normal" in="SourceGraphic" in2="BackgroundImageFix" result="shape"/>
<feGaussianBlur stdDeviation="6.35" result="effect1_foregroundBlur_2600_14329"/>
</filter>
<linearGradient id="paint0_linear_2600_14329" x1="373" y1="104" x2="743.784" y2="188.377" gradientUnits="userSpaceOnUse">
<stop stop-color="#33E6BF"/>
<stop offset="1" stop-color="#0439C7"/>
</linearGradient>
<radialGradient id="paint1_radial_2600_14329" cx="0" cy="0" r="1" gradientUnits="userSpaceOnUse" gradientTransform="translate(901 402) rotate(90) scale(226.705)">
<stop stop-color="#0439C7" stop-opacity="0.21"/>
<stop offset="1" stop-color="#061B3A" stop-opacity="0.48"/>
</radialGradient>
<radialGradient id="paint2_radial_2600_14329" cx="0" cy="0" r="1" gradientUnits="userSpaceOnUse" gradientTransform="translate(-21 -18) rotate(90) scale(226.705)">
<stop stop-color="#0439C7" stop-opacity="0.21"/>
<stop offset="1" stop-color="#061B3A" stop-opacity="0.48"/>
</radialGradient>
<clipPath id="clip0_2600_14329">
<rect width="932" height="434" fill="white"/>
</clipPath>
</defs>
</svg>
